<svg xmlns="http://www.w3.org/2000/svg" xmlns:xlink="http://www.w3.org/1999/xlink" xmlns:lucid="lucid" width="2091" height="1415"><g transform="translate(-110 -90)" lucid:page-tab-id="m-5o7ONTd-nK"><path d="M0 0h2672v1562H0z" fill="#fff"/><path d="M161.43 125.85a2 2 0 0 1 2-2H2158a2 2 0 0 1 2 2v236a2 2 0 0 1-2 2H163.43a2 2 0 0 1-2-2z" stroke="#000" stroke-opacity="0" stroke-width="9" fill="#efefef"/><path d="M140 123.85h21.43v240H140z" fill="#30ad82"/><path d="M200 188a8 8 0 0 1 8-8h251.42a8 8 0 0 1 8 8v124a8 8 0 0 1-8 8H208a8 8 0 0 1-8-8z" stroke="#000" stroke-opacity="0" stroke-width="9" fill="#fff" fill-opacity="0"/><use xlink:href="#a" transform="matrix(1,0,0,1,205.00000000000003,185) translate(0 57.39637586805555)"/><use xlink:href="#b" transform="matrix(1,0,0,1,205.00000000000003,185) translate(100.28190104166664 57.39637586805555)"/><use xlink:href="#c" transform="matrix(1,0,0,1,205.00000000000003,185) translate(0 94.01410590277777)"/><path d="M462.13 38.58a8 8 0 0 1 8-8h836.75a8 8 0 0 1 8 8v25.15a8 8 0 0 1-8 8H470.13a8 8 0 0 1-8-8z" stroke="#000" stroke-opacity="0" stroke-width="2" fill="#fff" fill-opacity="0"/><use xlink:href="#d" transform="matrix(1,0,0,1,466.1286890146541,34.57761197821656) translate(217.63469135802472 25.782777777777778)"/><use xlink:href="#e" transform="matrix(1,0,0,1,466.1286890146541,34.57761197821656) translate(349.91123456790126 25.782777777777778)"/><use xlink:href="#f" transform="matrix(1,0,0,1,466.1286890146541,34.57761197821656) translate(411.4606172839506 25.782777777777778)"/><use xlink:href="#g" transform="matrix(1,0,0,1,466.1286890146541,34.57761197821656) translate(532.1556790123457 25.782777777777778)"/><path d="M462.13 79.73a8 8 0 0 1 8-8h837.7a8 8 0 0 1 8 8v2.85a8 8 0 0 1-8 8h-837.7a8 8 0 0 1-8-8z" stroke="#000" stroke-opacity="0" stroke-width="2" fill="#fff" fill-opacity="0"/><use xlink:href="#h" transform="matrix(1,0,0,1,466.1286890146546,75.73283593511539) translate(281.2713683127572 14.917037037037037)"/><use xlink:href="#i" transform="matrix(1,0,0,1,466.1286890146546,75.73283593511539) translate(428.96560699588474 14.917037037037037)"/><use xlink:href="#j" transform="matrix(1,0,0,1,466.1286890146546,75.73283593511539) translate(441.41509259259254 14.917037037037037)"/><use xlink:href="#k" transform="matrix(1,0,0,1,466.1286890146546,75.73283593511539) translate(520.3609773662552 14.917037037037037)"/><use xlink:href="#l" transform="matrix(1,0,0,1,466.1286890146546,75.73283593511539) translate(537.3568621399177 14.917037037037037)"/><path d="M161.43 1236a2 2 0 0 1 2-2H2158a2 2 0 0 1 2 2v233.08a2 2 0 0 1-2 2H163.43a2 2 0 0 1-2-2z" stroke="#000" stroke-opacity="0" stroke-width="9" fill="#efefef"/><path d="M140 1234h21.43v237.08H140z" fill="#f58034"/><path d="M199.2 1331.82a8 8 0 0 1 8-8h208.9a8 8 0 0 1 8 8v43.27a8 8 0 0 1-8 8H207.2a8 8 0 0 1-8-8z" stroke="#000" stroke-opacity="0" stroke-width="9" fill="#fff" fill-opacity="0"/><use xlink:href="#m" transform="matrix(1,0,0,1,204.19274025136525,1328.8171109178968) translate(0 34.99012586805555)"/><use xlink:href="#n" transform="matrix(1,0,0,1,204.19274025136525,1328.8171109178968) translate(56.731879340277764 34.99012586805555)"/><path d="M161.43 962a2 2 0 0 1 2-2H2158a2 2 0 0 1 2 2v234a2 2 0 0 1-2 2H163.43a2 2 0 0 1-2-2z" stroke="#000" stroke-opacity="0" stroke-width="9" fill="#efefef"/><path d="M140 960h21.43v238H140z" fill="#2c90c8"/><path d="M190.46 1058.17a8 8 0 0 1 8-8h242.27a8 8 0 0 1 8 8v43.5a8 8 0 0 1-8 8H198.46a8 8 0 0 1-8-8z" stroke="#000" stroke-opacity="0" stroke-width="9" fill="#fff" fill-opacity="0"/><use xlink:href="#o" transform="matrix(1,0,0,1,195.4594414245105,1055.1677140187994) translate(0 34.99012586805555)"/><path d="M751.92 242h33.54" stroke="#333" stroke-width="5" fill="none"/><path d="M751.98 244.5h-2.56v-5h2.56z" stroke="#333" stroke-width=".05" fill="#333"/><path d="M802.23 242l-14.27 4.63v-9.26z" stroke="#333" stroke-width="5" fill="#333"/><path d="M162.15 399a2 2 0 0 1 2-2h1994.57a2 2 0 0 1 2 2v236a2 2 0 0 1-2 2H164.15a2 2 0 0 1-2-2z" stroke="#000" stroke-opacity="0" stroke-width="9" fill="#efefef"/><path d="M140.72 397h21.43v240h-21.43z" fill="#30ad82"/><path d="M199.2 448a8 8 0 0 1 8-8h246.93a8 8 0 0 1 8 8v124a8 8 0 0 1-8 8H207.2a8 8 0 0 1-8-8z" stroke="#000" stroke-opacity="0" stroke-width="9" fill="#fff" fill-opacity="0"/><use xlink:href="#p" transform="matrix(1,0,0,1,204.19274025143093,445) translate(0 57.39637586805555)"/><use xlink:href="#q" transform="matrix(1,0,0,1,204.19274025143093,445) translate(83.66015624999999 57.39637586805555)"/><use xlink:href="#r" transform="matrix(1,0,0,1,204.19274025143093,445) translate(0 94.01410590277777)"/><path d="M161.43 680a2 2 0 0 1 2-2H2158a2 2 0 0 1 2 2v236a2 2 0 0 1-2 2H163.43a2 2 0 0 1-2-2z" stroke="#000" stroke-opacity="0" stroke-width="9" fill="#efefef"/><path d="M140 678h21.43v240H140z" fill="#30ad82"/><path d="M200 764.38a8 8 0 0 1 8-8h246.13a8 8 0 0 1 8 8v67.24a8 8 0 0 1-8 8H208a8 8 0 0 1-8-8z" stroke="#000" stroke-opacity="0" stroke-width="9" fill="#fff" fill-opacity="0"/><use xlink:href="#s" transform="matrix(1,0,0,1,205.00000000000003,761.3822699652778) translate(0 47.24012586805555)"/><use xlink:href="#t" transform="matrix(1,0,0,1,205.00000000000003,761.3822699652778) translate(57.48025173611111 47.24012586805555)"/><path d="M1600 604.85v75.94" stroke="#333" stroke-width="5" fill="none"/><path d="M1602.5 604.9h-5v-2.55h5z" stroke="#333" stroke-width=".05" fill="#333"/><path d="M1600 697.56l-4.63-14.27h9.27z" stroke="#333" stroke-width="5" fill="#333"/><path d="M1465.88 997.57a8 8 0 0 1 8-8h251.42a8 8 0 0 1 8 8v164.7a8 8 0 0 1-8 8h-251.42a8 8 0 0 1-8-8z" stroke="#2c90c8" stroke-width="4" fill="#fff"/><use xlink:href="#u" transform="matrix(1,0,0,1,1477.8818774791125,1001.5663417291546) translate(33.9388888888889 65.6673611111111)"/><use xlink:href="#v" transform="matrix(1,0,0,1,1477.8818774791125,1001.5663417291546) translate(156.35802469135803 65.6673611111111)"/><use xlink:href="#w" transform="matrix(1,0,0,1,1477.8818774791125,1001.5663417291546) translate(19.78487654320989 97.93402777777776)"/><use xlink:href="#x" transform="matrix(1,0,0,1,1477.8818774791125,1001.5663417291546) translate(112.32746913580247 97.93402777777776)"/><use xlink:href="#y" transform="matrix(1,0,0,1,1477.8818774791125,1001.5663417291546) translate(167.4496913580247 97.93402777777776)"/><path d="M1497.13 1016.82c.92-1.24 2.36-2 3.92-2 2.54 0 4.63 1.95 4.8 4.46l.06 1.07 1.08.28c1.17.3 2 1.38 2 2.62 0 1.38-1.1 2.5-2.54 2.58h-15.12c-1.14-.32-1.94-1.4-1.94-2.58 0-1.27.88-2.35 2.1-2.62l.98-.24.15-1.04c.16-1.16 1.15-2.07 2.33-2.07.2 0 .42.03.6.07l1 .28.6-.83z" stroke="#000" stroke-opacity="0" fill="#109af0"/><path d="M1497.97 1043.9c.57.26 1.25.26 1.8-.05 5.76-2.98 11.3-6.9 15.1-14.53 3.1-6.15 3.05-9.2 3-16.7 0-.8-.03-1.64-.03-2.5 0-.5-.3-.9-.72-1l-17.74-4.65c-.3-.12-.7-.12-1 0l-17.74 4.64c-.42.13-.72.53-.72 1 0 .88-.04 1.7-.04 2.5-.04 7.5-.07 10.57 3 16.72 3.84 7.66 8.86 11.35 15.1 14.57zm3.08-32.1c-2.2 0-4.3.97-5.74 2.5h-.37c-2.4 0-4.4 1.56-5.1 3.7-2.04.88-3.45 2.9-3.45 5.25 0 2.65 1.82 4.92 4.4 5.55H1506.53c3-.12 5.47-2.46 5.47-5.55 0-2.27-1.34-4.25-3.28-5.16-.72-3.6-3.87-6.3-7.67-6.3z" stroke="#000" stroke-opacity="0" fill="#109af0"/><path d="M1793.88 427.65a8 8 0 0 1 8-8h251.42a8 8 0 0 1 8 8v164.7a8 8 0 0 1-8 8h-251.42a8 8 0 0 1-8-8z" stroke="#30ad82" stroke-width="4" fill="#fff"/><use xlink:href="#z" transform="matrix(1,0,0,1,1805.8818774791127,431.6486277103551) translate(51.15524691358026 65.6673611111111)"/><use xlink:href="#A" transform="matrix(1,0,0,1,1805.8818774791127,431.6486277103551) translate(139.14166666666665 65.6673611111111)"/><use xlink:href="#B" transform="matrix(1,0,0,1,1805.8818774791127,431.6486277103551) translate(77.29722222222223 97.93402777777776)"/><path d="M1827.25 447.07c.9-1.23 2.36-1.98 3.92-1.98 2.54 0 4.63 1.93 4.78 4.43l.08 1.08 1.06.28c1.17.32 2 1.4 2 2.62 0 1.4-1.1 2.5-2.54 2.58h-15.12c-1.14-.3-1.94-1.38-1.94-2.58 0-1.27.87-2.34 2.1-2.62l.98-.23.15-1.04c.15-1.14 1.14-2.05 2.32-2.05.2 0 .42.04.6.08l1 .28.6-.83z" stroke="#000" stroke-opacity="0" fill="#109af0"/><path d="M1828.1 474.14c.56.28 1.24.28 1.77-.03 5.78-2.97 11.33-6.9 15.13-14.52 3.08-6.16 3.04-9.2 3-16.7 0-.8-.04-1.64-.04-2.5 0-.5-.3-.9-.72-1l-17.75-4.65c-.3-.12-.7-.12-1 0l-17.74 4.64c-.42.12-.72.52-.72 1 0 .87-.04 1.7-.04 2.5-.04 7.5-.08 10.55 3 16.7 3.84 7.67 8.86 11.36 15.1 14.57zm3.07-32.07c-2.2 0-4.3.95-5.74 2.5h-.38c-2.4 0-4.4 1.55-5.1 3.7-2.05.87-3.45 2.9-3.45 5.23 0 2.66 1.82 4.93 4.4 5.56H1836.65c3-.12 5.47-2.46 5.47-5.56 0-2.26-1.32-4.24-3.26-5.16-.72-3.57-3.87-6.27-7.67-6.27z" stroke="#000" stroke-opacity="0" fill="#109af0"/><path d="M480 159.65a8 8 0 0 1 8-8h251.42a8 8 0 0 1 8 8v164.7a8 8 0 0 1-8 8H488a8 8 0 0 1-8-8z" stroke="#30ad82" stroke-width="4" fill="#fff"/><use xlink:href="#C" transform="matrix(1,0,0,1,492,163.6486277102387) translate(61.53734567901236 85.2923611111111)"/><use xlink:href="#D" transform="matrix(1,0,0,1,492,163.6486277102387) translate(116.80895061728395 85.2923611111111)"/><path d="M512.78 163.68l13.88 8 1.47 1.48.54 2v5.16l-.3-.32-.6-.68-.57-.68-.57-.6-.54-.56-.5-.56-.5-.48-.12-.12-.1-.12-.47-.44-.2-.2-.22-.2-.43-.4-.28-.24-.3-.24-2.64-1.6-3.33-.92-3.6-.08-3.45.88-2.32 1.16-2.7 2.24-1.74 2.48-1.08 3.04-.33 2.68.4 1.12 1.06.48 1.1-.4.5-1.08.37-2.48.86-2.16 1.35-1.84 1.86-1.48 2.44-1.12 2.76-.48 2.75.24 2.4.84 1.4.92.18.12.32.28.18.16.4.36.38.36.12.12.1.08.44.44.43.48.5.52.5.52.5.6.53.6.86 1 .88 1.04.97 1.16.32.4v5.4l-1.22-2-1.47-2-1.75-2-.25-.28-.4-.4-1.07-.48-1.1.44-.46 1.08.43 1.12 1.86 2.04 1.54 2.04 1.22 2 .88 1.92.14.36-.18.12-.18.12-2.8 1.6-2.38-4.8-4.76-5.92-1.08-.48-1.1.4-.5 1.08.42 1.12 5.4 7.16 1.22 3.04-3.43 2-.04-.12-.53-2.08-.7-1.96-.08-.2-.26-.48-.04-.12-.14-.28-.07-.12-.2-.24-.07-.16-.17-.28-.22-.28-.25-.32-.3-.36-.5-.6-1.25-1.44-.36-.44-.1-.12-.1-.08-.3-.4-.3-.4-.24-.32-.43-.72-.25-.56-.3-2.24.7-1.96 1.1-1.24 2.1-.96 2.16.12 1.32.76.1.12 1.05.32 1.04-.44.43-1.08-.43-1.12-1.7-1.16-2.02-.64h-2.15l-2.14.64-1.72 1.08-1.6 1.72-.97 1.92-.35 2.08.2 2.2.23.76.65 1.44 1.18 1.68.4.48.46.52.85 1.04.64.76.4.48.2.28.18.24.14.2.15.2.1.2.08.16.78 1.96.54 2.04.2.52.4.4-2.4 1.4-2 .52-2-.52-13.88-8-1.48-1.48-.54-2v-16l.54-2 1.47-1.48 13.87-8 2-.52zm-10.6 24.88l-.2 1.16.67 2.2.9 2.08 1.2 2 1.48 1.88 1.1 1.16 1.12.44 1.1-.48.44-1.08-.48-1.08-1.64-1.84-1.33-1.96-.96-2.04-.6-1.96-.67-.96-1.18-.2zm18.97 9.4l-.07-.12h.04z" stroke="#000" stroke-opacity="0" fill="#1fb547"/><path d="M812.32 159.65a8 8 0 0 1 8-8h251.42a8 8 0 0 1 8 8v164.7a8 8 0 0 1-8 8H820.32a8 8 0 0 1-8-8z" stroke="#30ad82" stroke-width="4" fill="#fff"/><use xlink:href="#E" transform="matrix(1,0,0,1,824.3173353421487,163.6486277102387) translate(36.92654320987657 85.2923611111111)"/><use xlink:href="#D" transform="matrix(1,0,0,1,824.3173353421487,163.6486277102387) translate(141.41975308641975 85.2923611111111)"/><path d="M846.9 163.68l13.88 8 1.47 1.48.54 2v5.16l-.3-.32-.6-.68-.58-.68-.57-.6-.54-.56-.5-.56-.5-.48-.1-.12-.1-.12-.47-.44-.22-.2-.2-.2-.43-.4-.3-.24-.27-.24-2.65-1.6-3.33-.92-3.6-.08-3.45.88-2.33 1.16-2.68 2.24-1.75 2.48-1.07 3.04-.32 2.68.4 1.12 1.08.48 1.1-.4.5-1.08.37-2.48.86-2.16 1.37-1.84 1.86-1.48 2.43-1.12 2.76-.48 2.75.24 2.4.84 1.4.92.17.12.33.28.18.16.4.36.38.36.1.12.12.08.43.44.43.48.5.52.5.52.5.6.55.6.85 1 .9 1.04.97 1.16.32.4v5.4l-1.23-2-1.47-2-1.75-2-.25-.28-.4-.4-1.07-.48-1.1.44-.47 1.08.43 1.12 1.85 2.04 1.54 2.04 1.2 2 .9 1.92.14.36-.18.12-.18.12-2.8 1.6-2.4-4.8-4.75-5.92-1.07-.48-1.1.4-.5 1.08.42 1.12 5.4 7.16 1.22 3.04-3.44 2-.03-.12-.54-2.08-.72-1.96-.08-.2-.25-.48-.03-.12-.14-.28-.08-.12-.17-.24-.08-.16-.17-.28-.22-.28-.25-.32-.28-.36-.5-.6-1.25-1.44-.36-.44-.1-.12-.07-.08-.32-.4-.28-.4-.25-.32-.43-.72-.25-.56-.3-2.24.7-1.96 1.1-1.24 2.1-.96 2.16.12 1.32.76.1.12 1.04.32 1.04-.44.43-1.08-.44-1.12-1.7-1.16-2.02-.64h-2.15l-2.15.64-1.72 1.08-1.6 1.72-.98 1.92-.36 2.08.2 2.2.22.76.65 1.44 1.18 1.68.4.48.46.52.87 1.04.64.76.4.48.22.28.18.24.14.2.14.2.1.2.08.16.8 1.96.53 2.04.2.52.4.4-2.4 1.4-2 .52-2-.52-13.9-8-1.46-1.48-.54-2v-16l.54-2 1.46-1.48 13.9-8 2-.52zm-10.6 24.88l-.2 1.16.67 2.2.9 2.08 1.2 2 1.48 1.88 1.1 1.16 1.12.44 1.1-.48.44-1.08-.46-1.08L842 195l-1.33-1.96-.96-2.04-.57-1.96-.68-.96-1.18-.2zm18.97 9.4l-.07-.12h.04z" stroke="#000" stroke-opacity="0" fill="#1fb547"/><path d="M1137.88 159.14a8 8 0 0 1 8-8h251.42a8 8 0 0 1 8 8v164.7a8 8 0 0 1-8 8h-251.42a8 8 0 0 1-8-8z" fill="#fff"/><path d="M1187.8 151.14h41.9m20.94 0h41.9m20.95 0h41.9m20.95 0h20.95l1.25.1 1.22.3 1.16.47 1.07.67.96.8.8.97.67 1.07.48 1.17.3 1.22.1 1.24v18.3m0 18.3v36.6m0 18.3v36.6m0 18.3v18.3l-.1 1.25-.3 1.2-.47 1.17-.66 1.07-.8.96-.97.8-1.07.67-1.16.48-1.22.3-1.25.1h-20.95m-20.95 0h-41.9m-20.96 0h-41.9m-20.95 0h-41.9m-20.97 0h-20.95l-1.25-.1-1.22-.3-1.15-.48-1.07-.66-.96-.8-.8-.96-.67-1.07-.48-1.16-.3-1.2-.1-1.26v-18.3m0-18.3v-36.6m0-18.3v-36.6m0-18.3v-18.3l.1-1.25.3-1.23.48-1.16.66-1.06.82-.96.96-.8 1.07-.67 1.16-.47 1.23-.3 1.25-.1h20.95" stroke="#30ad82" stroke-width="4" fill="none"/><use xlink:href="#F" transform="matrix(1,0,0,1,1149.8818774791123,163.13841179225483) translate(63.852777777777796 65.6673611111111)"/><use xlink:href="#G" transform="matrix(1,0,0,1,1149.8818774791123,163.13841179225483) translate(52.64907407407409 97.93402777777776)"/><path d="M1169.13 175.9c.92-1.24 2.36-2 3.92-2 2.54 0 4.63 1.95 4.8 4.45l.06 1.07 1.08.28c1.17.32 2 1.4 2 2.62 0 1.4-1.1 2.5-2.54 2.58h-15.12c-1.14-.32-1.94-1.4-1.94-2.58 0-1.27.88-2.34 2.1-2.62l.98-.24.15-1.03c.16-1.15 1.15-2.06 2.33-2.06.2 0 .42.03.6.07l1 .28.6-.83z" stroke="#000" stroke-opacity="0" fill="#109af0"/><path d="M1169.97 202.96c.57.28 1.25.28 1.8-.04 5.76-2.98 11.3-6.9 15.1-14.53 3.1-6.16 3.05-9.22 3-16.72 0-.8-.03-1.63-.03-2.5 0-.48-.3-.87-.72-1l-17.74-4.64c-.3-.12-.7-.12-1 0l-17.74 4.65c-.42.1-.72.5-.72.98 0 .87-.04 1.7-.04 2.5-.04 7.5-.07 10.56 3 16.7 3.84 7.67 8.86 11.37 15.1 14.58zm3.08-32.07c-2.2 0-4.3.94-5.74 2.5h-.37c-2.4 0-4.4 1.54-5.1 3.68-2.04.87-3.45 2.9-3.45 5.24 0 2.66 1.82 4.92 4.4 5.56H1178.53c3-.12 5.47-2.47 5.47-5.56 0-2.26-1.34-4.25-3.28-5.16-.72-3.57-3.87-6.27-7.67-6.27z" stroke="#000" stroke-opacity="0" fill="#109af0"/><path d="M1793.88 1268a8 8 0 0 1 8-8h251.42a8 8 0 0 1 8 8v164.7a8 8 0 0 1-8 8h-251.42a8 8 0 0 1-8-8z" stroke="#f58034" stroke-width="4" fill="#fff"/><use xlink:href="#H" transform="matrix(1,0,0,1,1805.8818774791127,1272) translate(10.037654320987684 65.6673611111111)"/><use xlink:href="#I" transform="matrix(1,0,0,1,1805.8818774791127,1272) translate(117.51851851851853 65.6673611111111)"/><use xlink:href="#J" transform="matrix(1,0,0,1,1805.8818774791127,1272) translate(147.39506172839506 65.6673611111111)"/><use xlink:href="#K" transform="matrix(1,0,0,1,1805.8818774791127,1272) translate(169.80246913580245 65.6673611111111)"/><use xlink:href="#L" transform="matrix(1,0,0,1,1805.8818774791127,1272) translate(57.84012345679014 97.93402777777776)"/><path d="M1825.13 1287.24c.92-1.23 2.36-2 3.92-2 2.54 0 4.63 1.96 4.8 4.46l.06 1.07 1.08.28c1.17.32 2 1.4 2 2.62 0 1.4-1.1 2.5-2.54 2.58h-15.12c-1.14-.32-1.94-1.4-1.94-2.58 0-1.27.88-2.34 2.1-2.62l.98-.24.15-1.02c.16-1.15 1.15-2.07 2.33-2.07.2 0 .42.06.6.1l1 .27.6-.83z" stroke="#000" stroke-opacity="0" fill="#109af0"/><path d="M1825.97 1314.3c.57.3 1.25.3 1.8-.03 5.76-2.98 11.3-6.9 15.1-14.53 3.1-6.15 3.05-9.2 3-16.7 0-.8-.03-1.64-.03-2.5 0-.5-.3-.88-.72-1l-17.74-4.65c-.3-.13-.7-.13-1 0l-17.74 4.64c-.42.12-.72.5-.72 1 0 .86-.04 1.7-.04 2.5-.04 7.5-.07 10.55 3 16.7 3.84 7.66 8.86 11.36 15.1 14.57zm3.08-32.06c-2.2 0-4.3.95-5.74 2.5h-.37c-2.4 0-4.4 1.55-5.1 3.7-2.04.86-3.45 2.9-3.45 5.23 0 2.66 1.82 4.92 4.4 5.56H1834.53c3-.12 5.47-2.46 5.47-5.56 0-2.26-1.34-4.25-3.28-5.16-.72-3.56-3.87-6.26-7.67-6.26z" stroke="#000" stroke-opacity="0" fill="#109af0"/><path d="M1077.92 510h30.16" stroke="#333" stroke-width="5" fill="none"/><path d="M1077.98 512.5h-2.56v-5h2.56z" stroke="#333" stroke-width=".05" fill="#333"/><path d="M1124.85 510l-14.26 4.63v-9.26z" stroke="#333" stroke-width="5" fill="#333"/><path d="M1406.86 510h32.17" stroke="#333" stroke-width="5" fill="none"/><path d="M1406.92 512.5h-2.56v-5h2.56z" stroke="#333" stroke-width=".05" fill="#333"/><path d="M1455.8 510l-14.27 4.63v-9.26z" stroke="#333" stroke-width="5" fill="#333"/><path d="M1737.8 510h29.23" stroke="#333" stroke-width="5" fill="none"/><path d="M1737.87 512.5h-2.57v-5h2.57z" stroke="#333" stroke-width=".05" fill="#333"/><path d="M1783.8 510l-14.27 4.63v-9.26z" stroke="#333" stroke-width="5" fill="#333"/><path d="M1927.6 604.85v75.94" stroke="#333" stroke-width="5" fill="none"/><path d="M1930.1 604.9h-5v-2.55h5z" stroke="#333" stroke-width=".05" fill="#333"/><path d="M1927.6 697.56l-4.64-14.27h9.27z" stroke="#333" stroke-width="5" fill="#333"/><path d="M1927.6 892.85v340.3" stroke="#333" stroke-width="5" fill="none"/><path d="M1930.1 892.9h-5v-2.55h5z" stroke="#333" stroke-width=".05" fill="#333"/><path d="M1927.6 1249.9l-4.64-14.26h9.27z" stroke="#333" stroke-width="5" fill="#333"/><path d="M480 429.8a8 8 0 0 1 8-8h251.42a8 8 0 0 1 8 8v164.7a8 8 0 0 1-8 8H488a8 8 0 0 1-8-8z" stroke="#30ad82" stroke-width="4" fill="#fff"/><use xlink:href="#M" transform="matrix(1,0,0,1,492,433.7977759076179) translate(36.179629629629645 65.6673611111111)"/><use xlink:href="#N" transform="matrix(1,0,0,1,492,433.7977759076179) translate(143.6604938271605 65.6673611111111)"/><use xlink:href="#O" transform="matrix(1,0,0,1,492,433.7977759076179) translate(51.11790123456791 97.93402777777776)"/><path d="M532.52 464.64c1.6-2.84 2.48-6.16 2.48-9.64 0-4.96-1.8-9.48-4.8-13l-14.8 12.68 17.12 9.96zm.48-11.12c0 1.92-1.56 3.48-3.48 3.48-1.96 0-3.52-1.56-3.52-3.48 0-1.96 1.56-3.52 3.52-3.52 1.92 0 3.48 1.56 3.48 3.52z" stroke="#000" stroke-opacity="0" fill="#172e8d"/><path d="M530.88 467.16c-3.64 4.76-9.4 7.84-15.88 7.84-11.04 0-20-8.96-20-20s8.96-20 20-20c5 0 9.6 1.84 13.08 4.88l-3.08 2.64c-1.96-1.56-4.28-2.68-6.76-3.2-3.28-.68-6.72-.28-9.76 1.08-3.08 1.36-5.64 3.68-7.32 6.56-1.68 2.92-2.4 6.28-2.08 9.6.32 3.36 1.72 6.52 3.92 9.04 2.24 2.52 5.2 4.28 8.48 5 3.28.76 6.68.44 9.8-.88 2.36-1 4.48-2.6 6.12-4.6l3.48 2.04z" stroke="#000" stroke-opacity="0" fill="#172e8d"/><path d="M517.84 441.28c2.04.44 3.96 1.32 5.6 2.56l-3.92 3.36c-.88-.48-1.88-.88-2.88-1.04-1.88-.36-3.8-.12-5.52.72-1.72.8-3.12 2.16-4.04 3.8-.88 1.68-1.24 3.6-1 5.48.24 1.88 1.08 3.64 2.4 5.04 1.28 1.36 3 2.28 4.84 2.64 1.88.36 3.8.12 5.52-.72.88-.4 1.68-.96 2.36-1.6l4.44 2.6c-1.4 1.6-3.16 2.92-5.16 3.76-2.72 1.16-5.72 1.44-8.56.76-2.88-.64-5.48-2.16-7.4-4.36-1.96-2.2-3.16-4.96-3.44-7.88-.32-2.96.32-5.88 1.8-8.44 1.48-2.52 3.72-4.56 6.4-5.76 2.68-1.2 5.68-1.52 8.56-.92z" stroke="#000" stroke-opacity="0" fill="#172e8d"/><path d="M517.88 448.6l-5.72 4.92c-.36.28-.52.68-.56 1.08-.2.68.08 1.4.68 1.76l7.08 4.12c-.4.32-.88.6-1.36.84-1.32.64-2.84.84-4.28.56-1.48-.28-2.8-1-3.8-2.08-1.04-1.08-1.68-2.44-1.88-3.88-.16-1.48.12-2.96.8-4.28.72-1.28 1.8-2.32 3.16-2.96 1.32-.64 2.84-.84 4.28-.56.56.08 1.08.28 1.6.48z" stroke="#000" stroke-opacity="0" fill="#172e8d"/><path d="M806 427.65a8 8 0 0 1 8-8h251.42a8 8 0 0 1 8 8v164.7a8 8 0 0 1-8 8H814a8 8 0 0 1-8-8z" fill="#fff"/><path d="M855.9 419.65h41.9m20.96 0h41.9m20.95 0h41.92m20.95 0h20.95l1.25.1 1.22.3 1.15.47 1.07.66.96.8.8.97.67 1.07.48 1.16.3 1.22.1 1.25v18.3m0 18.3v36.6m0 18.3v36.6m0 18.3v18.3l-.1 1.25-.3 1.22-.48 1.16-.66 1.07-.82.96-.96.82-1.07.66-1.16.48-1.23.3-1.25.1h-20.95m-20.95 0h-41.9m-20.96 0h-41.9m-20.95 0h-41.9m-20.95 0H814l-1.25-.1-1.22-.3-1.16-.48-1.07-.66-.96-.8-.8-.97-.67-1.07-.48-1.16-.3-1.22-.1-1.25v-18.3m0-18.3v-36.6m0-18.3v-36.6m0-18.3v-18.3l.1-1.25.3-1.22.47-1.16.66-1.07.8-.96.97-.82 1.07-.66 1.16-.48 1.22-.3 1.25-.1h20.95" stroke="#30ad82" stroke-width="4" fill="none"/><g><use xlink:href="#P" transform="matrix(1,0,0,1,818,431.6486277103552) translate(68.29691358024692 65.6673611111111)"/><use xlink:href="#O" transform="matrix(1,0,0,1,818,431.6486277103552) translate(51.11790123456791 97.93402777777776)"/></g><path d="M857.52 464.14c1.6-2.84 2.48-6.16 2.48-9.64 0-4.96-1.8-9.48-4.8-13l-14.8 12.68 17.12 9.96zm.48-11.12c0 1.92-1.56 3.48-3.48 3.48-1.96 0-3.52-1.56-3.52-3.48 0-1.96 1.56-3.52 3.52-3.52 1.92 0 3.48 1.56 3.48 3.52z" stroke="#000" stroke-opacity="0" fill="#172e8d"/><path d="M855.88 466.66c-3.64 4.76-9.4 7.84-15.88 7.84-11.04 0-20-8.96-20-20s8.96-20 20-20c5 0 9.6 1.84 13.08 4.88l-3.08 2.64c-1.96-1.56-4.28-2.68-6.76-3.2-3.28-.68-6.72-.28-9.76 1.08-3.08 1.36-5.64 3.68-7.32 6.56-1.68 2.92-2.4 6.28-2.08 9.6.32 3.36 1.72 6.52 3.92 9.04 2.24 2.52 5.2 4.28 8.48 5 3.28.76 6.68.44 9.8-.88 2.36-1 4.48-2.6 6.12-4.6l3.48 2.04z" stroke="#000" stroke-opacity="0" fill="#172e8d"/><path d="M842.84 440.78c2.04.44 3.96 1.32 5.6 2.56l-3.92 3.36c-.88-.48-1.88-.88-2.88-1.04-1.88-.36-3.8-.12-5.52.72-1.72.8-3.12 2.16-4.04 3.8-.88 1.68-1.24 3.6-1 5.48.24 1.88 1.08 3.64 2.4 5.04 1.28 1.36 3 2.28 4.84 2.64 1.88.36 3.8.12 5.52-.72.88-.4 1.68-.96 2.36-1.6l4.44 2.6c-1.4 1.6-3.16 2.92-5.16 3.76-2.72 1.16-5.72 1.44-8.56.76-2.88-.64-5.48-2.16-7.4-4.36-1.96-2.2-3.16-4.96-3.44-7.88-.32-2.96.32-5.88 1.8-8.44 1.48-2.52 3.72-4.56 6.4-5.76 2.68-1.2 5.68-1.52 8.56-.92z" stroke="#000" stroke-opacity="0" fill="#172e8d"/><path d="M842.88 448.1l-5.72 4.92c-.36.28-.52.68-.56 1.08-.2.68.08 1.4.68 1.76l7.08 4.12c-.4.32-.88.6-1.36.84-1.32.64-2.84.84-4.28.56-1.48-.28-2.8-1-3.8-2.08-1.04-1.08-1.68-2.44-1.88-3.88-.16-1.48.12-2.96.8-4.28.72-1.28 1.8-2.32 3.16-2.96 1.32-.64 2.84-.84 4.28-.56.56.08 1.08.28 1.6.48z" stroke="#000" stroke-opacity="0" fill="#172e8d"/><path d="M1465.88 427.65a8 8 0 0 1 8-8h251.42a8 8 0 0 1 8 8v164.7a8 8 0 0 1-8 8h-251.42a8 8 0 0 1-8-8z" fill="#fff"/><path d="M1515.8 419.65h41.9m20.94 0h41.9m20.95 0h41.9m20.95 0h20.95l1.25.1 1.22.3 1.16.47 1.07.66.96.8.8.97.67 1.07.48 1.16.3 1.22.1 1.25v18.3m0 18.3v36.6m0 18.3v36.6m0 18.3v18.3l-.1 1.25-.3 1.22-.47 1.16-.66 1.07-.8.96-.97.82-1.07.66-1.16.48-1.22.3-1.25.1h-20.95m-20.95 0h-41.9m-20.96 0h-41.9m-20.95 0h-41.9m-20.97 0h-20.95l-1.25-.1-1.22-.3-1.15-.48-1.07-.66-.96-.8-.8-.97-.67-1.07-.48-1.16-.3-1.22-.1-1.25v-18.3m0-18.3v-36.6m0-18.3v-36.6m0-18.3v-18.3l.1-1.25.3-1.22.48-1.16.66-1.07.82-.96.96-.82 1.07-.66 1.16-.48 1.23-.3 1.25-.1h20.95" stroke="#30ad82" stroke-width="4" fill="none"/><g><use xlink:href="#Q" transform="matrix(1,0,0,1,1477.8818774791125,431.64862771035513) translate(63.852777777777796 65.6673611111111)"/><use xlink:href="#R" transform="matrix(1,0,0,1,1477.8818774791125,431.64862771035513) translate(8.543827160493848 97.93402777777776)"/><use xlink:href="#S" transform="matrix(1,0,0,1,1477.8818774791125,431.64862771035513) translate(151.80185185185184 97.93402777777776)"/></g><path d="M1500.25 446.9c.9-1.23 2.36-2 3.92-2 2.54 0 4.63 1.96 4.78 4.46l.08 1.07 1.06.28c1.17.33 2 1.4 2 2.63 0 1.4-1.1 2.5-2.54 2.58h-15.12c-1.14-.3-1.94-1.38-1.94-2.57 0-1.27.87-2.34 2.1-2.62l.98-.23.15-1.03c.15-1.15 1.14-2.07 2.32-2.07.2 0 .42.04.6.08l1 .28.6-.83z" fill="#109af0"/><path d="M1499.48 455.9h-5.04l-1.4-.95-.54-1.62.6-1.68 1.5-.94.98-.23.15-1.03.77-1.47 1.55-.6.3.03.3.05 1 .28.6-.83 1.72-1.46 2.2-.53 2.84.93 1.73 2.35.22 1.18.08 1.07 1.06.28 1.44.98.57 1.65-.72 1.78-1.82.8h-5.04" stroke="#30ad82" fill="none"/><path d="M1501.1 473.97c.56.28 1.24.28 1.77-.04 5.78-2.98 11.33-6.9 15.13-14.53 3.08-6.15 3.04-9.2 3-16.7 0-.8-.04-1.64-.04-2.5 0-.5-.3-.88-.72-1l-17.75-4.65c-.3-.12-.7-.12-1 0l-17.74 4.65c-.42.12-.72.5-.72 1 0 .86-.04 1.7-.04 2.5-.04 7.5-.08 10.55 3 16.7 3.84 7.66 8.86 11.35 15.1 14.57zm3.07-32.07c-2.2 0-4.3.95-5.74 2.5h-.38c-2.4 0-4.4 1.55-5.1 3.7-2.05.86-3.45 2.9-3.45 5.23 0 2.66 1.82 4.92 4.4 5.56H1509.65c3-.13 5.47-2.48 5.47-5.57 0-2.26-1.32-4.25-3.26-5.16-.72-3.57-3.87-6.27-7.67-6.27z" fill="#109af0"/><path d="M1513.94 465.2l2.35-2.78 1.7-3.02 1.97-5.37m.72-5.63l.3-5.7-.02-1.23-.02-1.28-.2-.64-.52-.36-5.9-1.55m-5.93-1.55l-5.9-1.55-.5-.1-.5.1-5.9 1.55m-5.92 1.55l-5.92 1.55-.52.36-.2.63-.02 1.27-.02 1.22.4 5.7m.5 5.68l2.1 5.32 3.94 5.92m5.18 4.82l1.38 1.18 4.6 2.65.9.2.87-.24 5.9-3.96m-4.35-11.1h5.22l2.94-.9 2-2.25.53-2.4-.55-2.45-1.5-1.93-1.2-.77-1.04-2.6-.5-.56m-2.74-2.2l-1.02-.54-2.37-.36-2.25.33-2.02.93-1.47 1.24h-.38l-2.6.66-1.88 1.74-.6 1.3-2.04 1.44-1.2 2.2-.23 1.6.66 2.65 1.78 2 1.97.88h5.34" stroke="#30ad82" fill="none"/><path d="M1465.88 715.65a8 8 0 0 1 8-8h251.42a8 8 0 0 1 8 8v164.7a8 8 0 0 1-8 8h-251.42a8 8 0 0 1-8-8z" fill="#fff"/><path d="M1515.8 707.65h41.9m20.94 0h41.9m20.95 0h41.9m20.95 0h20.95l1.25.1 1.22.3 1.16.47 1.07.66.96.8.8.97.67 1.07.48 1.16.3 1.22.1 1.25v18.3m0 18.3v36.6m0 18.3v36.6m0 18.3v18.3l-.1 1.25-.3 1.22-.47 1.16-.66 1.07-.8.96-.97.82-1.07.66-1.16.48-1.22.3-1.25.1h-20.95m-20.95 0h-41.9m-20.96 0h-41.9m-20.95 0h-41.9m-20.97 0h-20.95l-1.25-.1-1.22-.3-1.15-.48-1.07-.66-.96-.8-.8-.97-.67-1.07-.48-1.16-.3-1.22-.1-1.25v-18.3m0-18.3v-36.6m0-18.3v-36.6m0-18.3v-18.3l.1-1.25.3-1.22.48-1.16.66-1.07.82-.96.96-.82 1.07-.66 1.16-.48 1.23-.3 1.25-.1h20.95" stroke="#30ad82" stroke-width="4" fill="none"/><g><use xlink:href="#T" transform="matrix(1,0,0,1,1477.8818774791125,719.6486277103552) translate(21.577469135802488 65.6673611111111)"/><use xlink:href="#U" transform="matrix(1,0,0,1,1477.8818774791125,719.6486277103552) translate(86.63364197530865 65.6673611111111)"/><use xlink:href="#V" transform="matrix(1,0,0,1,1477.8818774791125,719.6486277103552) translate(30.166975308641995 97.93402777777776)"/><use xlink:href="#W" transform="matrix(1,0,0,1,1477.8818774791125,719.6486277103552) translate(121.29043209876544 97.93402777777776)"/></g><path d="M1500.25 735.07c.9-1.23 2.36-1.98 3.92-1.98 2.54 0 4.63 1.93 4.78 4.43l.08 1.08 1.06.28c1.17.32 2 1.4 2 2.62 0 1.4-1.1 2.5-2.54 2.58h-15.12c-1.14-.3-1.94-1.38-1.94-2.58 0-1.27.87-2.34 2.1-2.62l.98-.23.15-1.04c.15-1.14 1.14-2.05 2.32-2.05.2 0 .42.04.6.08l1 .28.6-.83z" stroke="#000" stroke-opacity="0" fill="#109af0"/><path d="M1501.1 762.14c.56.28 1.24.28 1.77-.03 5.78-2.97 11.33-6.9 15.13-14.52 3.08-6.16 3.04-9.2 3-16.72 0-.8-.04-1.62-.04-2.5 0-.47-.3-.87-.72-1l-17.75-4.63c-.3-.12-.7-.12-1 0l-17.74 4.64c-.42.12-.72.52-.72 1 0 .87-.04 1.7-.04 2.5-.04 7.5-.08 10.55 3 16.7 3.84 7.67 8.86 11.36 15.1 14.57zm3.07-32.07c-2.2 0-4.3.95-5.74 2.5h-.38c-2.4 0-4.4 1.55-5.1 3.7-2.05.87-3.45 2.9-3.45 5.23 0 2.66 1.82 4.93 4.4 5.56H1509.65c3-.12 5.47-2.46 5.47-5.56 0-2.26-1.32-4.24-3.26-5.16-.72-3.57-3.87-6.27-7.67-6.27z" stroke="#000" stroke-opacity="0" fill="#109af0"/><path d="M1793.88 715.65a8 8 0 0 1 8-8h251.42a8 8 0 0 1 8 8v164.7a8 8 0 0 1-8 8h-251.42a8 8 0 0 1-8-8z" stroke="#30ad82" stroke-width="4" fill="#fff"/><g><use xlink:href="#X" transform="matrix(1,0,0,1,1805.8818774791127,719.6486277103552) translate(42.90185185185187 36.229861111111106)"/><use xlink:href="#Y" transform="matrix(1,0,0,1,1805.8818774791127,719.6486277103552) translate(147.39506172839504 36.229861111111106)"/><use xlink:href="#Z" transform="matrix(1,0,0,1,1805.8818774791127,719.6486277103552) translate(57.91481481481483 68.49652777777777)"/><use xlink:href="#aa" transform="matrix(1,0,0,1,1805.8818774791127,719.6486277103552) translate(154.7895061728395 68.49652777777777)"/><use xlink:href="#ab" transform="matrix(1,0,0,1,1805.8818774791127,719.6486277103552) translate(63.03117283950619 100.76319444444442)"/><use xlink:href="#O" transform="matrix(1,0,0,1,1805.8818774791127,719.6486277103552) translate(51.11790123456791 133.02986111111107)"/></g><path d="M1827.25 735.07c.9-1.23 2.36-1.98 3.92-1.98 2.54 0 4.63 1.93 4.78 4.43l.08 1.08 1.06.28c1.17.32 2 1.4 2 2.62 0 1.4-1.1 2.5-2.54 2.58h-15.12c-1.14-.3-1.94-1.38-1.94-2.58 0-1.27.87-2.34 2.1-2.62l.98-.23.15-1.04c.15-1.14 1.14-2.05 2.32-2.05.2 0 .42.04.6.08l1 .28.6-.83z" stroke="#000" stroke-opacity="0" fill="#109af0"/><path d="M1828.1 762.14c.56.28 1.24.28 1.77-.03 5.78-2.97 11.33-6.9 15.13-14.52 3.08-6.16 3.04-9.2 3-16.72 0-.8-.04-1.62-.04-2.5 0-.47-.3-.87-.72-1l-17.75-4.63c-.3-.12-.7-.12-1 0l-17.74 4.64c-.42.12-.72.52-.72 1 0 .87-.04 1.7-.04 2.5-.04 7.5-.08 10.55 3 16.7 3.84 7.67 8.86 11.36 15.1 14.57zm3.07-32.07c-2.2 0-4.3.95-5.74 2.5h-.38c-2.4 0-4.4 1.55-5.1 3.7-2.05.87-3.45 2.9-3.45 5.23 0 2.66 1.82 4.93 4.4 5.56H1836.65c3-.12 5.47-2.46 5.47-5.56 0-2.26-1.32-4.24-3.26-5.16-.72-3.57-3.87-6.27-7.67-6.27z" stroke="#000" stroke-opacity="0" fill="#109af0"/><path d="M1134.94 427.65a8 8 0 0 1 8-8h251.42a8 8 0 0 1 8 8v164.7a8 8 0 0 1-8 8h-251.42a8 8 0 0 1-8-8z" stroke="#30ad82" stroke-width="4" fill="#fff"/><g><use xlink:href="#ac" transform="matrix(1,0,0,1,1146.9409387395563,431.648627710355) translate(36.88919753086421 85.2923611111111)"/><use xlink:href="#ad" transform="matrix(1,0,0,1,1146.9409387395563,431.648627710355) translate(92.1608024691358 85.2923611111111)"/><use xlink:href="#ae" transform="matrix(1,0,0,1,1146.9409387395563,431.648627710355) translate(148.85154320987652 85.2923611111111)"/></g><path d="M1171.96 434.86l13.88 8 1.47 1.48.55 2v5.16l-.3-.32-.6-.68-.57-.68-.57-.6-.53-.56-.5-.56-.5-.48-.1-.12-.12-.12-.46-.44-.23-.2-.2-.2-.44-.4-.3-.24-.27-.24-2.65-1.6-3.32-.92-3.62-.08-3.43.88-2.33 1.16-2.68 2.24-1.75 2.48-1.08 3.04-.33 2.68.4 1.12 1.07.48 1.1-.4.5-1.08.37-2.48.87-2.16 1.36-1.84 1.86-1.48 2.42-1.12 2.75-.48 2.76.24 2.4.84 1.4.92.17.12.32.28.18.16.4.36.4.36.1.12.1.08.43.44.44.48.5.52.5.52.5.6.54.6.86 1 .9 1.04.96 1.16.33.4v5.4l-1.22-2-1.47-2-1.75-2-.24-.28-.4-.4-1.07-.48-1.12.44-.46 1.08.43 1.12 1.86 2.04 1.55 2.04 1.2 2 .9 1.92.15.36-.18.12-.18.12-2.8 1.6-2.4-4.8-4.75-5.92-1.08-.48-1.1.4-.5 1.08.42 1.12 5.4 7.16 1.22 3.04-3.44 2-.03-.12-.55-2.08-.7-1.96-.1-.2-.24-.48-.02-.12-.14-.28-.08-.12-.18-.24-.07-.16-.17-.28-.2-.28-.26-.32-.3-.36-.5-.6-1.24-1.44-.36-.44-.1-.12-.08-.08-.33-.4-.3-.4-.24-.32-.43-.72-.25-.56-.28-2.24.68-1.96 1.1-1.24 2.12-.96 2.14.12 1.34.76.1.12 1.04.32 1.04-.44.43-1.08-.43-1.12-1.72-1.16-2-.64h-2.15l-2.14.64-1.7 1.08-1.62 1.72-.97 1.92-.35 2.08.22 2.2.2.76.66 1.44 1.18 1.68.4.48.47.52.86 1.04.64.76.4.48.2.28.2.24.13.2.14.2.1.2.08.16.8 1.96.53 2.04.2.52.4.4-2.4 1.4-2 .52-2-.52-13.9-8-1.45-1.48-.54-2v-16l.54-2 1.46-1.48 13.9-8 2-.52zm-10.6 24.88l-.2 1.16.67 2.2.9 2.08 1.2 2 1.48 1.88 1.12 1.16 1.1.44 1.12-.48.42-1.08-.46-1.08-1.65-1.84-1.32-1.96-.97-2.04-.57-1.96-.7-.96-1.17-.2zm18.97 9.4l-.07-.12h.04z" stroke="#000" stroke-opacity="0" fill="#1fb547"/><path d="M751.92 511.93h31.1" stroke="#333" stroke-width="5" fill="none"/><path d="M751.98 509.43v5h-2.56v-5z" stroke="#333" stroke-width=".05" fill="#333"/><path d="M799.8 511.93l-14.27 4.63v-9.27z" stroke="#333" stroke-width="5" fill="#333"/><defs><path fill="#30ad82" d="M596-1225c-134-8-223 103-163 219 11 21 33 41 61 60s93 53 196 102c137 65 230 130 281 196s76 147 76 242c-3 286-231 426-539 426C352 20 214-9 94-68v-288c159 68 260 115 438 120 123 3 211-41 211-155 0-73-44-105-95-141-63-46-329-160-390-220-78-77-147-167-147-315 0-273 208-420 495-416 177 2 298 46 434 103l-100 241c-131-51-199-78-344-86" id="af"/><path fill="#30ad82" d="M791-1139c262-1 402 148 401 410V0H887v-653c0-161-60-242-180-242-201 0-242 142-242 369V0H160v-1556h305c-1 210 6 368-14 581h16c68-109 176-164 324-164" id="ag"/><path fill="#30ad82" d="M618-1141c286 0 465 117 465 396V0H870l-59-152h-8C704-33 632 18 432 20 216 22 86-113 86-334c0-119 44-202 124-262 109-82 356-99 570-100 11-142-39-219-174-219-89 0-194 27-315 81l-101-206c129-67 271-101 428-101zm-71 938c137 0 235-88 233-223v-92c-190 3-382 4-381 186 0 86 49 129 148 129" id="ah"/><path fill="#30ad82" d="M451-930c71-134 228-244 436-200l-23 286c-220-45-399 61-399 275V0H160v-1118h231l45 188h15" id="ai"/><path fill="#30ad82" d="M836-686c0-141-77-236-213-236-140 0-206 98-215 236h428zm223 627C946-4 838 19 666 20 308 22 92-191 92-551c0-356 187-588 529-588 314 0 504 195 501 508v148H401c5 169 104 277 279 276 158-2 261-33 379-88v236" id="aj"/><path fill="#30ad82" d="M92-557c0-327 132-582 430-582 141 0 248 55 322 164h10c-38-188-18-371-23-581h306V0H903l-59-145h-13C762-35 656 20 514 20 222 20 92-237 92-557zm309 4c0 190 54 330 220 330 191 0 231-123 231-332 0-214-44-336-236-336-161 0-215 151-215 338" id="ak"/><g id="a"><use transform="matrix(0.013129340277777775,0,0,0.013129340277777775,0,0)" xlink:href="#af"/><use transform="matrix(0.013129340277777775,0,0,0.013129340277777775,14.80989583333333,0)" xlink:href="#ag"/><use transform="matrix(0.013129340277777775,0,0,0.013129340277777775,32.481987847222214,0)" xlink:href="#ah"/><use transform="matrix(0.013129340277777775,0,0,0.013129340277777775,48.72298177083332,0)" xlink:href="#ai"/><use transform="matrix(0.013129340277777775,0,0,0.013129340277777775,60.394965277777764,0)" xlink:href="#aj"/><use transform="matrix(0.013129340277777775,0,0,0.013129340277777775,76.28146701388887,0)" xlink:href="#ak"/></g><path fill="#30ad82" d="M426 0L0-1118h319l216 637c24 81 39 157 45 229h6c3-64 15-141 45-229l215-637h319L739 0H426" id="al"/><path fill="#30ad82" d="M479-1407c-1 99-61 150-166 150-111 0-166-50-166-150 0-99 55-149 166-149s166 50 166 149zM465 0H160v-1118h305V0" id="am"/><path fill="#30ad82" d="M954-63C853 0 774 20 614 20 266 20 92-171 92-553c0-369 188-586 549-586 129 0 245 25 348 76l-90 236c-84-31-156-66-258-66-159 0-238 113-238 338 0 219 79 328 238 328 137 0 223-38 313-97v261" id="an"/><path fill="#30ad82" d="M836-831c-99-39-182-77-306-82-139-6-173 83-92 144 51 39 327 139 383 188 71 62 119 126 119 249C940-74 747 21 463 20 305 20 202 0 94-45v-252c93 45 253 94 379 94 111 0 166-32 166-96 0-68-41-76-98-109-79-46-276-119-333-167-74-61-116-125-116-252 0-368 555-367 836-224" id="ao"/><g id="b"><use transform="matrix(0.013129340277777775,0,0,0.013129340277777775,0,0)" xlink:href="#af"/><use transform="matrix(0.013129340277777775,0,0,0.013129340277777775,14.80989583333333,0)" xlink:href="#aj"/><use transform="matrix(0.013129340277777775,0,0,0.013129340277777775,30.696397569444436,0)" xlink:href="#ai"/><use transform="matrix(0.013129340277777775,0,0,0.013129340277777775,42.906684027777764,0)" xlink:href="#al"/><use transform="matrix(0.013129340277777775,0,0,0.013129340277777775,58.20236545138887,0)" xlink:href="#am"/><use transform="matrix(0.013129340277777775,0,0,0.013129340277777775,66.40820312499999,0)" xlink:href="#an"/><use transform="matrix(0.013129340277777775,0,0,0.013129340277777775,80.23339843749999,0)" xlink:href="#aj"/><use transform="matrix(0.013129340277777775,0,0,0.013129340277777775,96.11990017361109,0)" xlink:href="#ao"/></g><path fill="#30ad82" d="M1384-895c-176 0-222 133-223 334V0H856v-653c-1-144-37-242-168-242-78 0-135 29-170 86s-53 152-53 283V0H160v-1118h233l41 143h17c56-98 174-164 325-164 167 0 281 55 340 164h27c55-99 179-165 330-164 265 2 385 133 385 410V0h-306v-653c-1-144-37-242-168-242" id="ap"/><path fill="#30ad82" d="M795-1139c261-1 398 148 397 410V0H887v-653c-1-148-42-242-180-242-202 0-242 139-242 369V0H160v-1118h233l41 143h17c62-102 185-163 344-164" id="aq"/><path fill="#30ad82" d="M498-350c-2 85 52 126 133 127 53 0 117-12 192-35v227C747 3 654 20 543 20c-247 0-350-124-350-370v-539H47v-129l168-102 88-236h195v238h313v229H498v539" id="ar"/><path fill="#30ad82" d="M633-893c-183 0-230 133-230 332s48 336 232 336c183 0 229-137 229-336s-47-332-231-332zm4-246c347 5 535 225 539 578S978 25 631 20C283 15 96-208 92-561c-4-355 196-583 545-578" id="as"/><g id="c"><use transform="matrix(0.013129340277777775,0,0,0.013129340277777775,0,0)" xlink:href="#ah"/><use transform="matrix(0.013129340277777775,0,0,0.013129340277777775,16.240993923611107,0)" xlink:href="#ak"/><use transform="matrix(0.013129340277777775,0,0,0.013129340277777775,33.2566189236111,0)" xlink:href="#ap"/><use transform="matrix(0.013129340277777775,0,0,0.013129340277777775,59.65972222222219,0)" xlink:href="#am"/><use transform="matrix(0.013129340277777775,0,0,0.013129340277777775,67.86555989583331,0)" xlink:href="#aq"/><use transform="matrix(0.013129340277777775,0,0,0.013129340277777775,85.5376519097222,0)" xlink:href="#am"/><use transform="matrix(0.013129340277777775,0,0,0.013129340277777775,93.74348958333331,0)" xlink:href="#aq"/><use transform="matrix(0.013129340277777775,0,0,0.013129340277777775,111.4155815972222,0)" xlink:href="#ao"/><use transform="matrix(0.013129340277777775,0,0,0.013129340277777775,124.78124999999997,0)" xlink:href="#ar"/><use transform="matrix(0.013129340277777775,0,0,0.013129340277777775,136.4532335069444,0)" xlink:href="#ai"/><use transform="matrix(0.013129340277777775,0,0,0.013129340277777775,148.12521701388886,0)" xlink:href="#ah"/><use transform="matrix(0.013129340277777775,0,0,0.013129340277777775,164.36621093749997,0)" xlink:href="#ar"/><use transform="matrix(0.013129340277777775,0,0,0.013129340277777775,176.0381944444444,0)" xlink:href="#as"/><use transform="matrix(0.013129340277777775,0,0,0.013129340277777775,192.68619791666663,0)" xlink:href="#ai"/></g><path fill="#a9afb8" d="M186 0v-106H76V0H24v-248h52v99h110v-99h50V0h-50" id="at"/><path fill="#a9afb8" d="M25-224v-37h50v37H25zM25 0v-190h50V0H25" id="au"/><path fill="#a9afb8" d="M195-6C206 82 75 100 31 46c-4-6-6-13-8-21l49-6c3 16 16 24 34 25 40 0 42-37 40-79-11 22-30 35-61 35-53 0-70-43-70-97 0-56 18-96 73-97 30 0 46 14 59 34l2-30h47zm-90-29c32 0 41-27 41-63 0-35-9-62-40-62-32 0-39 29-40 63 0 36 9 62 39 62" id="av"/><path fill="#a9afb8" d="M114-157C55-157 80-60 75 0H25v-261h50l-1 109c12-26 28-41 61-42 86-1 58 113 63 194h-50c-7-57 23-157-34-157" id="aw"/><path fill="#a9afb8" d="M14-72v-43h91v43H14" id="ax"/><path fill="#a9afb8" d="M25 0v-261h50V0H25" id="ay"/><path fill="#a9afb8" d="M185-48c-13 30-37 53-82 52C43 2 14-33 14-96s30-98 90-98c62 0 83 45 84 108H66c0 31 8 55 39 56 18 0 30-7 34-22zm-45-69c5-46-57-63-70-21-2 6-4 13-4 21h74" id="az"/><path fill="#a9afb8" d="M128 0H69L1-190h53L99-40l48-150h52" id="aA"/><g id="d"><use transform="matrix(0.0728395061728395,0,0,0.0728395061728395,0,0)" xlink:href="#at"/><use transform="matrix(0.0728395061728395,0,0,0.0728395061728395,18.86543209876543,0)" xlink:href="#au"/><use transform="matrix(0.0728395061728395,0,0,0.0728395061728395,26.14938271604938,0)" xlink:href="#av"/><use transform="matrix(0.0728395061728395,0,0,0.0728395061728395,42.10123456790124,0)" xlink:href="#aw"/><use transform="matrix(0.0728395061728395,0,0,0.0728395061728395,58.05308641975308,0)" xlink:href="#ax"/><use transform="matrix(0.0728395061728395,0,0,0.0728395061728395,66.72098765432098,0)" xlink:href="#ay"/><use transform="matrix(0.0728395061728395,0,0,0.0728395061728395,74.00493827160493,0)" xlink:href="#az"/><use transform="matrix(0.0728395061728395,0,0,0.0728395061728395,88.57283950617283,0)" xlink:href="#aA"/><use transform="matrix(0.0728395061728395,0,0,0.0728395061728395,103.14074074074072,0)" xlink:href="#az"/><use transform="matrix(0.0728395061728395,0,0,0.0728395061728395,117.70864197530862,0)" xlink:href="#ay"/></g><path fill="#a9afb8" d="M169-182c-1-43-94-46-97-3 18 66 151 10 154 114 3 95-165 93-204 36-6-8-10-19-12-30l50-8c3 46 112 56 116 5-17-69-150-10-154-114-4-87 153-88 188-35 5 8 8 18 10 28" id="aB"/><path fill="#a9afb8" d="M67-125c0 53 21 87 73 88 37 1 54-22 65-47l45 17C233-25 199 4 140 4 58 4 20-42 15-125 8-235 124-281 211-232c18 10 29 29 36 50l-46 12c-8-25-30-41-62-41-52 0-71 34-72 86" id="aC"/><path fill="#a9afb8" d="M199 0l-22-63H83L61 0H9l90-248h61L250 0h-51zm-33-102l-36-108c-10 38-24 72-36 108h72" id="aD"/><g id="e"><use transform="matrix(0.0728395061728395,0,0,0.0728395061728395,0,0)" xlink:href="#aB"/><use transform="matrix(0.0728395061728395,0,0,0.0728395061728395,17.48148148148148,0)" xlink:href="#aC"/><use transform="matrix(0.0728395061728395,0,0,0.0728395061728395,36.34691358024691,0)" xlink:href="#aD"/></g><path fill="#a9afb8" d="M231 0h-52l-39-155L100 0H48L-1-190h46L77-45c9-52 24-97 36-145h53l37 145 32-145h46" id="aE"/><path fill="#a9afb8" d="M110-194c64 0 96 36 96 99 0 64-35 99-97 99-61 0-95-36-95-99 0-62 34-99 96-99zm-1 164c35 0 45-28 45-65 0-40-10-65-43-65-34 0-45 26-45 65 0 36 10 65 43 65" id="aF"/><path fill="#a9afb8" d="M135-150c-39-12-60 13-60 57V0H25l-1-190h47c2 13-1 29 3 40 6-28 27-53 61-41v41" id="aG"/><path fill="#a9afb8" d="M147 0L96-86 75-71V0H25v-261h50v150l67-79h53l-66 74L201 0h-54" id="aH"/><path fill="#a9afb8" d="M121-226c-27-7-43 5-38 36h38v33H83V0H34v-157H6v-33h28c-9-59 32-81 87-68v32" id="aI"/><g id="f"><use transform="matrix(0.0728395061728395,0,0,0.0728395061728395,0,0)" xlink:href="#aE"/><use transform="matrix(0.0728395061728395,0,0,0.0728395061728395,20.39506172839506,0)" xlink:href="#aF"/><use transform="matrix(0.0728395061728395,0,0,0.0728395061728395,36.34691358024691,0)" xlink:href="#aG"/><use transform="matrix(0.0728395061728395,0,0,0.0728395061728395,46.544444444444444,0)" xlink:href="#aH"/><use transform="matrix(0.0728395061728395,0,0,0.0728395061728395,61.11234567901234,0)" xlink:href="#aI"/><use transform="matrix(0.0728395061728395,0,0,0.0728395061728395,69.78024691358024,0)" xlink:href="#ay"/><use transform="matrix(0.0728395061728395,0,0,0.0728395061728395,77.06419753086419,0)" xlink:href="#aF"/><use transform="matrix(0.0728395061728395,0,0,0.0728395061728395,93.01604938271605,0)" xlink:href="#aE"/></g><path fill="#a9afb8" d="M88-194c31-1 46 15 58 34l-1-101h50l1 261h-48c-2-10 0-23-3-31C134-8 116 4 84 4 32 4 16-41 15-95c0-56 19-97 73-99zm17 164c33 0 40-30 41-66 1-37-9-64-41-64s-38 30-39 65c0 43 13 65 39 65" id="aJ"/><path fill="#a9afb8" d="M133-34C117-15 103 5 69 4 32 3 11-16 11-54c-1-60 55-63 116-61 1-26-3-47-28-47-18 1-26 9-28 27l-52-2c7-38 36-58 82-57s74 22 75 68l1 82c-1 14 12 18 25 15v27c-30 8-71 5-69-32zm-48 3c29 0 43-24 42-57-32 0-66-3-65 30 0 17 8 27 23 27" id="aK"/><path fill="#a9afb8" d="M220-157c-53 9-28 100-34 157h-49v-107c1-27-5-49-29-50C55-147 81-57 75 0H25l-1-190h47c2 12-1 28 3 38 10-53 101-56 108 0 13-22 24-43 59-42 82 1 51 116 57 194h-49v-107c-1-25-5-48-29-50" id="aL"/><g id="g"><use transform="matrix(0.0728395061728395,0,0,0.0728395061728395,0,0)" xlink:href="#aJ"/><use transform="matrix(0.0728395061728395,0,0,0.0728395061728395,15.95185185185185,0)" xlink:href="#au"/><use transform="matrix(0.0728395061728395,0,0,0.0728395061728395,23.235802469135802,0)" xlink:href="#aK"/><use transform="matrix(0.0728395061728395,0,0,0.0728395061728395,37.803703703703704,0)" xlink:href="#av"/><use transform="matrix(0.0728395061728395,0,0,0.0728395061728395,53.75555555555555,0)" xlink:href="#aG"/><use transform="matrix(0.0728395061728395,0,0,0.0728395061728395,63.953086419753085,0)" xlink:href="#aK"/><use transform="matrix(0.0728395061728395,0,0,0.0728395061728395,78.52098765432099,0)" xlink:href="#aL"/></g><path fill="#a9afb8" d="M30-248c87 1 191-15 191 75 0 78-77 80-158 76V0H30v-248zm33 125c57 0 124 11 124-50 0-59-68-47-124-48v98" id="aM"/><path fill="#a9afb8" d="M100-194c63 0 86 42 84 106H49c0 40 14 67 53 68 26 1 43-12 49-29l28 8c-11 28-37 45-77 45C44 4 14-33 15-96c1-61 26-98 85-98zm52 81c6-60-76-77-97-28-3 7-6 17-6 28h103" id="aN"/><path fill="#a9afb8" d="M117-194c89-4 53 116 60 194h-32v-121c0-31-8-49-39-48C34-167 62-67 57 0H25l-1-190h30c1 10-1 24 2 32 11-22 29-35 61-36" id="aO"/><path fill="#a9afb8" d="M24-231v-30h32v30H24zM24 0v-190h32V0H24" id="aP"/><path fill="#a9afb8" d="M141-36C126-15 110 5 73 4 37 3 15-17 15-53c-1-64 63-63 125-63 3-35-9-54-41-54-24 1-41 7-42 31l-33-3c5-37 33-52 76-52 45 0 72 20 72 64v82c-1 20 7 32 28 27v20c-31 9-61-2-59-35zM48-53c0 20 12 33 32 33 41-3 63-29 60-74-43 2-92-5-92 41" id="aQ"/><path fill="#a9afb8" d="M33 0v-38h34V0H33" id="aR"/><path fill="#a9afb8" d="M233-177c-1 41-23 64-60 70L243 0h-38l-65-103H63V0H30v-248c88 3 205-21 203 71zM63-129c60-2 137 13 137-47 0-61-80-42-137-45v92" id="aS"/><path fill="#a9afb8" d="M100-194c62-1 85 37 85 99 1 63-27 99-86 99S16-35 15-95c0-66 28-99 85-99zM99-20c44 1 53-31 53-75 0-43-8-75-51-75s-53 32-53 75 10 74 51 75" id="aT"/><path fill="#a9afb8" d="M135-143c-3-34-86-38-87 0 15 53 115 12 119 90S17 21 10-45l28-5c4 36 97 45 98 0-10-56-113-15-118-90-4-57 82-63 122-42 12 7 21 19 24 35" id="aU"/><path fill="#a9afb8" d="M9 0v-24l116-142H16v-24h144v24L44-24h123V0H9" id="aV"/><path fill="#a9afb8" d="M206 0h-36l-40-164L89 0H53L-1-190h32L70-26l43-164h34l41 164 42-164h31" id="aW"/><path fill="#a9afb8" d="M177-190C167-65 218 103 67 71c-23-6-38-20-44-43l32-5c15 47 100 32 89-28v-30C133-14 115 1 83 1 29 1 15-40 15-95c0-56 16-97 71-98 29-1 48 16 59 35 1-10 0-23 2-32h30zM94-22c36 0 50-32 50-73 0-42-14-75-50-75-39 0-46 34-46 75s6 73 46 73" id="aX"/><g id="h"><use transform="matrix(0.04248971193415638,0,0,0.04248971193415638,0,0)" xlink:href="#aM"/><use transform="matrix(0.04248971193415638,0,0,0.04248971193415638,10.19753086419753,0)" xlink:href="#aN"/><use transform="matrix(0.04248971193415638,0,0,0.04248971193415638,18.695473251028805,0)" xlink:href="#aO"/><use transform="matrix(0.04248971193415638,0,0,0.04248971193415638,27.193415637860078,0)" xlink:href="#aP"/><use transform="matrix(0.04248971193415638,0,0,0.04248971193415638,30.55010288065843,0)" xlink:href="#aO"/><use transform="matrix(0.04248971193415638,0,0,0.04248971193415638,39.048045267489705,0)" xlink:href="#aQ"/><use transform="matrix(0.04248971193415638,0,0,0.04248971193415638,47.54598765432099,0)" xlink:href="#aR"/><use transform="matrix(0.04248971193415638,0,0,0.04248971193415638,51.794958847736616,0)" xlink:href="#aS"/><use transform="matrix(0.04248971193415638,0,0,0.04248971193415638,62.79979423868311,0)" xlink:href="#aT"/><use transform="matrix(0.04248971193415638,0,0,0.04248971193415638,71.29773662551439,0)" xlink:href="#aU"/><use transform="matrix(0.04248971193415638,0,0,0.04248971193415638,78.94588477366254,0)" xlink:href="#aN"/><use transform="matrix(0.04248971193415638,0,0,0.04248971193415638,87.44382716049381,0)" xlink:href="#aO"/><use transform="matrix(0.04248971193415638,0,0,0.04248971193415638,95.94176954732508,0)" xlink:href="#aV"/><use transform="matrix(0.04248971193415638,0,0,0.04248971193415638,103.58991769547323,0)" xlink:href="#aW"/><use transform="matrix(0.04248971193415638,0,0,0.04248971193415638,114.59475308641973,0)" xlink:href="#aN"/><use transform="matrix(0.04248971193415638,0,0,0.04248971193415638,123.092695473251,0)" xlink:href="#aP"/><use transform="matrix(0.04248971193415638,0,0,0.04248971193415638,126.44938271604936,0)" xlink:href="#aX"/></g><path fill="#a9afb8" d="M32 76v-337h29V76H32" id="aY"/><use transform="matrix(0.04248971193415638,0,0,0.04248971193415638,0,0)" xlink:href="#aY" id="i"/><path fill="#a9afb8" d="M185-189c-5-48-123-54-124 2 14 75 158 14 163 119 3 78-121 87-175 55-17-10-28-26-33-46l33-7c5 56 141 63 141-1 0-78-155-14-162-118-5-82 145-84 179-34 5 7 8 16 11 25" id="aZ"/><path fill="#a9afb8" d="M115-194c55 1 70 41 70 98S169 2 115 4C84 4 66-9 55-30l1 105H24l-1-265h31l2 30c10-21 28-34 59-34zm-8 174c40 0 45-34 45-75s-6-73-45-74c-42 0-51 32-51 76 0 43 10 73 51 73" id="ba"/><path fill="#a9afb8" d="M59-47c-2 24 18 29 38 22v24C64 9 27 4 27-40v-127H5v-23h24l9-43h21v43h35v23H59v120" id="bb"/><path fill="#a9afb8" d="M210-169c-67 3-38 105-44 169h-31v-121c0-29-5-50-35-48C34-165 62-65 56 0H25l-1-190h30c1 10-1 24 2 32 10-44 99-50 107 0 11-21 27-35 58-36 85-2 47 119 55 194h-31v-121c0-29-5-49-35-48" id="bc"/><path fill="#a9afb8" d="M115-194c53 0 69 39 70 98 0 66-23 100-70 100C84 3 66-7 56-30L54 0H23l1-261h32v101c10-23 28-34 59-34zm-8 174c40 0 45-34 45-75 0-40-5-75-45-74-42 0-51 32-51 76 0 43 10 73 51 73" id="bd"/><path fill="#a9afb8" d="M114-163C36-179 61-72 57 0H25l-1-190h30c1 12-1 29 2 39 6-27 23-49 58-41v29" id="be"/><g id="j"><use transform="matrix(0.04248971193415638,0,0,0.04248971193415638,0,0)" xlink:href="#aZ"/><use transform="matrix(0.04248971193415638,0,0,0.04248971193415638,10.19753086419753,0)" xlink:href="#aN"/><use transform="matrix(0.04248971193415638,0,0,0.04248971193415638,18.695473251028805,0)" xlink:href="#ba"/><use transform="matrix(0.04248971193415638,0,0,0.04248971193415638,27.193415637860078,0)" xlink:href="#bb"/><use transform="matrix(0.04248971193415638,0,0,0.04248971193415638,31.442386831275712,0)" xlink:href="#aN"/><use transform="matrix(0.04248971193415638,0,0,0.04248971193415638,39.94032921810699,0)" xlink:href="#bc"/><use transform="matrix(0.04248971193415638,0,0,0.04248971193415638,52.64475308641975,0)" xlink:href="#bd"/><use transform="matrix(0.04248971193415638,0,0,0.04248971193415638,61.142695473251024,0)" xlink:href="#aN"/><use transform="matrix(0.04248971193415638,0,0,0.04248971193415638,69.6406378600823,0)" xlink:href="#be"/></g><path fill="#a9afb8" d="M64 0c3-98 48-159 88-221H18v-27h164v26C143-157 98-101 97 0H64" id="bf"/><path fill="#a9afb8" d="M68-38c1 34 0 65-14 84H32c9-13 17-26 17-46H33v-38h35" id="bg"/><g id="k"><use transform="matrix(0.04248971193415638,0,0,0.04248971193415638,0,0)" xlink:href="#bf"/><use transform="matrix(0.04248971193415638,0,0,0.04248971193415638,8.497942386831275,0)" xlink:href="#bg"/></g><path fill="#a9afb8" d="M101-251c82-7 93 87 43 132L82-64C71-53 59-42 53-27h129V0H18c2-99 128-94 128-182 0-28-16-43-45-43s-46 15-49 41l-32-3c6-41 34-60 81-64" id="bh"/><path fill="#a9afb8" d="M101-251c68 0 85 55 85 127S166 4 100 4C33 4 14-52 14-124c0-73 17-127 87-127zm-1 229c47 0 54-49 54-102s-4-102-53-102c-51 0-55 48-55 102 0 53 5 102 54 102" id="bi"/><path fill="#a9afb8" d="M126-127c33 6 58 20 58 59 0 88-139 92-164 29-3-8-5-16-6-25l32-3c6 27 21 44 54 44 32 0 52-15 52-46 0-38-36-46-79-43v-28c39 1 72-4 72-42 0-27-17-43-46-43-28 0-47 15-49 41l-32-3c6-42 35-63 81-64 48-1 79 21 79 65 0 36-21 52-52 59" id="bj"/><g id="l"><use transform="matrix(0.04248971193415638,0,0,0.04248971193415638,0,0)" xlink:href="#bh"/><use transform="matrix(0.04248971193415638,0,0,0.04248971193415638,8.497942386831275,0)" xlink:href="#bi"/><use transform="matrix(0.04248971193415638,0,0,0.04248971193415638,16.99588477366255,0)" xlink:href="#bh"/><use transform="matrix(0.04248971193415638,0,0,0.04248971193415638,25.493827160493822,0)" xlink:href="#bj"/></g><path fill="#f58034" d="M1026 0H184v-1462h842v254H494v321h495v254H494v377h532V0" id="bk"/><path fill="#f58034" d="M795-1139c261-1 398 148 397 410V0H887v-653c-1-148-42-242-180-242-202 0-242 139-242 369V0H160v-1118h233l41 143h17c62-102 185-163 344-164" id="bl"/><path fill="#f58034" d="M92-557c0-327 132-582 430-582 141 0 248 55 322 164h10c-38-188-18-371-23-581h306V0H903l-59-145h-13C762-35 656 20 514 20 222 20 92-237 92-557zm309 4c0 190 54 330 220 330 191 0 231-123 231-332 0-214-44-336-236-336-161 0-215 151-215 338" id="bm"/><g id="m"><use transform="matrix(0.013129340277777775,0,0,0.013129340277777775,0,0)" xlink:href="#bk"/><use transform="matrix(0.013129340277777775,0,0,0.013129340277777775,15.059353298611107,0)" xlink:href="#bl"/><use transform="matrix(0.013129340277777775,0,0,0.013129340277777775,32.73144531249999,0)" xlink:href="#bm"/></g><path fill="#f58034" d="M639-223c202 0 242-139 242-369v-526h305V0H952l-41-143h-16C834-43 709 20 551 20c-263 0-397-147-397-409v-729h305v653c1 148 42 242 180 242" id="bn"/><path fill="#f58034" d="M836-831c-99-39-182-77-306-82-139-6-173 83-92 144 51 39 327 139 383 188 71 62 119 126 119 249C940-74 747 21 463 20 305 20 202 0 94-45v-252c93 45 253 94 379 94 111 0 166-32 166-96 0-68-41-76-98-109-79-46-276-119-333-167-74-61-116-125-116-252 0-368 555-367 836-224" id="bo"/><path fill="#f58034" d="M836-686c0-141-77-236-213-236-140 0-206 98-215 236h428zm223 627C946-4 838 19 666 20 308 22 92-191 92-551c0-356 187-588 529-588 314 0 504 195 501 508v148H401c5 169 104 277 279 276 158-2 261-33 379-88v236" id="bp"/><path fill="#f58034" d="M451-930c71-134 228-244 436-200l-23 286c-220-45-399 61-399 275V0H160v-1118h231l45 188h15" id="bq"/><g id="n"><use transform="matrix(0.013129340277777775,0,0,0.013129340277777775,0,0)" xlink:href="#bn"/><use transform="matrix(0.013129340277777775,0,0,0.013129340277777775,17.672092013888886,0)" xlink:href="#bo"/><use transform="matrix(0.013129340277777775,0,0,0.013129340277777775,31.037760416666657,0)" xlink:href="#bp"/><use transform="matrix(0.013129340277777775,0,0,0.013129340277777775,46.92426215277777,0)" xlink:href="#bq"/><use transform="matrix(0.013129340277777775,0,0,0.013129340277777775,59.13454861111109,0)" xlink:href="#bo"/></g><path fill="#2c90c8" d="M643-1462c464-5 754 260 754 717 0 491-297 749-799 745H184v-1462h459zm432 725c0-314-139-471-416-471H494v952h133c299 0 448-160 448-481" id="br"/><path fill="#2c90c8" d="M836-686c0-141-77-236-213-236-140 0-206 98-215 236h428zm223 627C946-4 838 19 666 20 308 22 92-191 92-551c0-356 187-588 529-588 314 0 504 195 501 508v148H401c5 169 104 277 279 276 158-2 261-33 379-88v236" id="bs"/><path fill="#2c90c8" d="M426 0L0-1118h319l216 637c24 81 39 157 45 229h6c3-64 15-141 45-229l215-637h319L739 0H426" id="bt"/><path fill="#2c90c8" d="M465 0H160v-1556h305V0" id="bu"/><path fill="#2c90c8" d="M633-893c-183 0-230 133-230 332s48 336 232 336c183 0 229-137 229-336s-47-332-231-332zm4-246c347 5 535 225 539 578S978 25 631 20C283 15 96-208 92-561c-4-355 196-583 545-578" id="bv"/><path fill="#2c90c8" d="M782-1139c293 0 422 256 422 578 0 230-70 418-202 512-65 46-141 69-228 69-131 0-234-48-309-143h-16c32 222 9 383 16 615H160v-1610h248l43 145h14c71-111 177-166 317-166zm111 574c0-190-40-330-209-330-184 0-221 128-219 332 2 209 40 336 223 336 137 0 205-113 205-338" id="bw"/><path fill="#2c90c8" d="M451-930c71-134 228-244 436-200l-23 286c-220-45-399 61-399 275V0H160v-1118h231l45 188h15" id="bx"/><path fill="#2c90c8" d="M836-831c-99-39-182-77-306-82-139-6-173 83-92 144 51 39 327 139 383 188 71 62 119 126 119 249C940-74 747 21 463 20 305 20 202 0 94-45v-252c93 45 253 94 379 94 111 0 166-32 166-96 0-68-41-76-98-109-79-46-276-119-333-167-74-61-116-125-116-252 0-368 555-367 836-224" id="by"/><g id="o"><use transform="matrix(0.013129340277777775,0,0,0.013129340277777775,0,0)" xlink:href="#br"/><use transform="matrix(0.013129340277777775,0,0,0.013129340277777775,19.904079861111107,0)" xlink:href="#bs"/><use transform="matrix(0.013129340277777775,0,0,0.013129340277777775,35.25227864583333,0)" xlink:href="#bt"/><use transform="matrix(0.013129340277777775,0,0,0.013129340277777775,50.547960069444436,0)" xlink:href="#bs"/><use transform="matrix(0.013129340277777775,0,0,0.013129340277777775,66.43446180555554,0)" xlink:href="#bu"/><use transform="matrix(0.013129340277777775,0,0,0.013129340277777775,74.64029947916666,0)" xlink:href="#bv"/><use transform="matrix(0.013129340277777775,0,0,0.013129340277777775,91.28830295138887,0)" xlink:href="#bw"/><use transform="matrix(0.013129340277777775,0,0,0.013129340277777775,108.30392795138886,0)" xlink:href="#bs"/><use transform="matrix(0.013129340277777775,0,0,0.013129340277777775,124.19042968749997,0)" xlink:href="#bx"/><use transform="matrix(0.013129340277777775,0,0,0.013129340277777775,136.40071614583331,0)" xlink:href="#by"/></g><path fill="#30ad82" d="M1133-1128c-95-42-202-97-328-97-258 0-367 218-367 498 0 326 122 489 367 489 103 0 227-26 373-77v260C1058-5 924 20 776 20c-443 0-662-290-657-749 5-455 236-754 686-754 142 0 285 34 428 103" id="bz"/><path fill="#30ad82" d="M465 0H160v-1556h305V0" id="bA"/><path fill="#30ad82" d="M639-223c202 0 242-139 242-369v-526h305V0H952l-41-143h-16C834-43 709 20 551 20c-263 0-397-147-397-409v-729h305v653c1 148 42 242 180 242" id="bB"/><g id="p"><use transform="matrix(0.013129340277777775,0,0,0.013129340277777775,0,0)" xlink:href="#bz"/><use transform="matrix(0.013129340277777775,0,0,0.013129340277777775,17.133789062499996,0)" xlink:href="#bA"/><use transform="matrix(0.013129340277777775,0,0,0.013129340277777775,25.339626736111107,0)" xlink:href="#as"/><use transform="matrix(0.013129340277777775,0,0,0.013129340277777775,41.98763020833333,0)" xlink:href="#bB"/><use transform="matrix(0.013129340277777775,0,0,0.013129340277777775,59.65972222222222,0)" xlink:href="#ak"/></g><path fill="#30ad82" d="M0-1118h334l211 629c18 55 30 119 37 194h6c7-69 23-133 43-194l207-629h327L692 143C611 389 392 544 70 475V233c95 21 196 18 262-37 50-42 89-123 112-204" id="bC"/><g id="q"><use transform="matrix(0.013129340277777775,0,0,0.013129340277777775,0,0)" xlink:href="#ao"/><use transform="matrix(0.013129340277777775,0,0,0.013129340277777775,13.365668402777775,0)" xlink:href="#aj"/><use transform="matrix(0.013129340277777775,0,0,0.013129340277777775,29.252170138888882,0)" xlink:href="#an"/><use transform="matrix(0.013129340277777775,0,0,0.013129340277777775,43.07736545138888,0)" xlink:href="#bB"/><use transform="matrix(0.013129340277777775,0,0,0.013129340277777775,60.749457465277764,0)" xlink:href="#ai"/><use transform="matrix(0.013129340277777775,0,0,0.013129340277777775,72.9597439236111,0)" xlink:href="#am"/><use transform="matrix(0.013129340277777775,0,0,0.013129340277777775,81.16558159722221,0)" xlink:href="#ar"/><use transform="matrix(0.013129340277777775,0,0,0.013129340277777775,92.83756510416666,0)" xlink:href="#bC"/></g><g id="r"><use transform="matrix(0.013129340277777775,0,0,0.013129340277777775,0,0)" xlink:href="#ah"/><use transform="matrix(0.013129340277777775,0,0,0.013129340277777775,16.240993923611107,0)" xlink:href="#ak"/><use transform="matrix(0.013129340277777775,0,0,0.013129340277777775,33.2566189236111,0)" xlink:href="#ap"/><use transform="matrix(0.013129340277777775,0,0,0.013129340277777775,59.65972222222219,0)" xlink:href="#am"/><use transform="matrix(0.013129340277777775,0,0,0.013129340277777775,67.86555989583331,0)" xlink:href="#aq"/><use transform="matrix(0.013129340277777775,0,0,0.013129340277777775,85.5376519097222,0)" xlink:href="#am"/><use transform="matrix(0.013129340277777775,0,0,0.013129340277777775,93.74348958333331,0)" xlink:href="#ao"/><use transform="matrix(0.013129340277777775,0,0,0.013129340277777775,107.10915798611109,0)" xlink:href="#ar"/><use transform="matrix(0.013129340277777775,0,0,0.013129340277777775,118.78114149305553,0)" xlink:href="#ai"/><use transform="matrix(0.013129340277777775,0,0,0.013129340277777775,130.45312499999997,0)" xlink:href="#ah"/><use transform="matrix(0.013129340277777775,0,0,0.013129340277777775,146.6941189236111,0)" xlink:href="#ar"/><use transform="matrix(0.013129340277777775,0,0,0.013129340277777775,158.36610243055551,0)" xlink:href="#as"/><use transform="matrix(0.013129340277777775,0,0,0.013129340277777775,175.01410590277774,0)" xlink:href="#ai"/></g><path fill="#30ad82" d="M1079 0L973-348H440L334 0H0l516-1468h379L1413 0h-334zM899-608c-127-415-146-457-192-633-22 85-85 296-189 633h381" id="bD"/><g id="s"><use transform="matrix(0.013129340277777775,0,0,0.013129340277777775,0,0)" xlink:href="#af"/><use transform="matrix(0.013129340277777775,0,0,0.013129340277777775,14.80989583333333,0)" xlink:href="#bz"/><use transform="matrix(0.013129340277777775,0,0,0.013129340277777775,31.943684895833332,0)" xlink:href="#bD"/></g><g id="t"><use transform="matrix(0.013129340277777775,0,0,0.013129340277777775,0,0)" xlink:href="#ah"/><use transform="matrix(0.013129340277777775,0,0,0.013129340277777775,16.240993923611107,0)" xlink:href="#ak"/><use transform="matrix(0.013129340277777775,0,0,0.013129340277777775,33.2566189236111,0)" xlink:href="#ap"/><use transform="matrix(0.013129340277777775,0,0,0.013129340277777775,59.65972222222219,0)" xlink:href="#am"/><use transform="matrix(0.013129340277777775,0,0,0.013129340277777775,67.86555989583331,0)" xlink:href="#aq"/><use transform="matrix(0.013129340277777775,0,0,0.013129340277777775,85.5376519097222,0)" xlink:href="#am"/><use transform="matrix(0.013129340277777775,0,0,0.013129340277777775,93.74348958333331,0)" xlink:href="#ao"/><use transform="matrix(0.013129340277777775,0,0,0.013129340277777775,107.10915798611109,0)" xlink:href="#ar"/><use transform="matrix(0.013129340277777775,0,0,0.013129340277777775,118.78114149305553,0)" xlink:href="#ai"/><use transform="matrix(0.013129340277777775,0,0,0.013129340277777775,130.45312499999997,0)" xlink:href="#ah"/><use transform="matrix(0.013129340277777775,0,0,0.013129340277777775,146.6941189236111,0)" xlink:href="#ar"/><use transform="matrix(0.013129340277777775,0,0,0.013129340277777775,158.36610243055551,0)" xlink:href="#as"/><use transform="matrix(0.013129340277777775,0,0,0.013129340277777775,175.01410590277774,0)" xlink:href="#ai"/></g><path fill="#333" d="M205 0l-28-72H64L36 0H1l101-248h38L239 0h-34zm-38-99l-47-123c-12 45-31 82-46 123h93" id="bE"/><path fill="#333" d="M84 4C-5 8 30-112 23-190h32v120c0 31 7 50 39 49 72-2 45-101 50-169h31l1 190h-30c-1-10 1-25-2-33-11 22-28 36-60 37" id="bF"/><path fill="#333" d="M59-47c-2 24 18 29 38 22v24C64 9 27 4 27-40v-127H5v-23h24l9-43h21v43h35v23H59v120" id="bG"/><path fill="#333" d="M100-194c62-1 85 37 85 99 1 63-27 99-86 99S16-35 15-95c0-66 28-99 85-99zM99-20c44 1 53-31 53-75 0-43-8-75-51-75s-53 32-53 75 10 74 51 75" id="bH"/><path fill="#333" d="M210-169c-67 3-38 105-44 169h-31v-121c0-29-5-50-35-48C34-165 62-65 56 0H25l-1-190h30c1 10-1 24 2 32 10-44 99-50 107 0 11-21 27-35 58-36 85-2 47 119 55 194h-31v-121c0-29-5-49-35-48" id="bI"/><path fill="#333" d="M141-36C126-15 110 5 73 4 37 3 15-17 15-53c-1-64 63-63 125-63 3-35-9-54-41-54-24 1-41 7-42 31l-33-3c5-37 33-52 76-52 45 0 72 20 72 64v82c-1 20 7 32 28 27v20c-31 9-61-2-59-35zM48-53c0 20 12 33 32 33 41-3 63-29 60-74-43 2-92-5-92 41" id="bJ"/><path fill="#333" d="M100-194c63 0 86 42 84 106H49c0 40 14 67 53 68 26 1 43-12 49-29l28 8c-11 28-37 45-77 45C44 4 14-33 15-96c1-61 26-98 85-98zm52 81c6-60-76-77-97-28-3 7-6 17-6 28h103" id="bK"/><g id="u"><use transform="matrix(0.07469135802469135,0,0,0.07469135802469135,0,0)" xlink:href="#bE"/><use transform="matrix(0.07469135802469135,0,0,0.07469135802469135,17.925925925925924,0)" xlink:href="#bF"/><use transform="matrix(0.07469135802469135,0,0,0.07469135802469135,32.86419753086419,0)" xlink:href="#bG"/><use transform="matrix(0.07469135802469135,0,0,0.07469135802469135,40.33333333333332,0)" xlink:href="#bH"/><use transform="matrix(0.07469135802469135,0,0,0.07469135802469135,55.271604938271594,0)" xlink:href="#bI"/><use transform="matrix(0.07469135802469135,0,0,0.07469135802469135,77.6043209876543,0)" xlink:href="#bJ"/><use transform="matrix(0.07469135802469135,0,0,0.07469135802469135,92.54259259259258,0)" xlink:href="#bG"/><use transform="matrix(0.07469135802469135,0,0,0.07469135802469135,100.01172839506171,0)" xlink:href="#bK"/></g><path fill="#333" d="M185-189c-5-48-123-54-124 2 14 75 158 14 163 119 3 78-121 87-175 55-17-10-28-26-33-46l33-7c5 56 141 63 141-1 0-78-155-14-162-118-5-82 145-84 179-34 5 7 8 16 11 25" id="bL"/><path fill="#333" d="M212-179c-10-28-35-45-73-45-59 0-87 40-87 99 0 60 29 101 89 101 43 0 62-24 78-52l27 14C228-24 195 4 139 4 59 4 22-46 18-125c-6-104 99-153 187-111 19 9 31 26 39 46" id="bM"/><g id="v"><use transform="matrix(0.07469135802469135,0,0,0.07469135802469135,0,0)" xlink:href="#bL"/><use transform="matrix(0.07469135802469135,0,0,0.07469135802469135,17.925925925925924,0)" xlink:href="#bM"/><use transform="matrix(0.07469135802469135,0,0,0.07469135802469135,37.27098765432098,0)" xlink:href="#bE"/></g><path fill="#333" d="M96-169c-40 0-48 33-48 73s9 75 48 75c24 0 41-14 43-38l32 2c-6 37-31 61-74 61-59 0-76-41-82-99-10-93 101-131 147-64 4 7 5 14 7 22l-32 3c-4-21-16-35-41-35" id="bN"/><path fill="#333" d="M24-231v-30h32v30H24zM24 0v-190h32V0H24" id="bO"/><path fill="#333" d="M117-194c89-4 53 116 60 194h-32v-121c0-31-8-49-39-48C34-167 62-67 57 0H25l-1-190h30c1 10-1 24 2 32 11-22 29-35 61-36" id="bP"/><path fill="#333" d="M135-143c-3-34-86-38-87 0 15 53 115 12 119 90S17 21 10-45l28-5c4 36 97 45 98 0-10-56-113-15-118-90-4-57 82-63 122-42 12 7 21 19 24 35" id="bQ"/><g id="w"><use transform="matrix(0.07469135802469135,0,0,0.07469135802469135,0,0)" xlink:href="#bJ"/><use transform="matrix(0.07469135802469135,0,0,0.07469135802469135,14.938271604938269,0)" xlink:href="#bN"/><use transform="matrix(0.07469135802469135,0,0,0.07469135802469135,28.38271604938271,0)" xlink:href="#bG"/><use transform="matrix(0.07469135802469135,0,0,0.07469135802469135,35.85185185185185,0)" xlink:href="#bO"/><use transform="matrix(0.07469135802469135,0,0,0.07469135802469135,41.752469135802464,0)" xlink:href="#bH"/><use transform="matrix(0.07469135802469135,0,0,0.07469135802469135,56.690740740740736,0)" xlink:href="#bP"/><use transform="matrix(0.07469135802469135,0,0,0.07469135802469135,71.629012345679,0)" xlink:href="#bQ"/></g><path fill="#333" d="M206 0h-36l-40-164L89 0H53L-1-190h32L70-26l43-164h34l41 164 42-164h31" id="bR"/><path fill="#333" d="M106-169C34-169 62-67 57 0H25v-261h32l-1 103c12-21 28-36 61-36 89 0 53 116 60 194h-32v-121c2-32-8-49-39-48" id="bS"/><g id="x"><use transform="matrix(0.07469135802469135,0,0,0.07469135802469135,0,0)" xlink:href="#bR"/><use transform="matrix(0.07469135802469135,0,0,0.07469135802469135,19.34506172839506,0)" xlink:href="#bO"/><use transform="matrix(0.07469135802469135,0,0,0.07469135802469135,25.245679012345676,0)" xlink:href="#bG"/><use transform="matrix(0.07469135802469135,0,0,0.07469135802469135,32.71481481481481,0)" xlink:href="#bS"/></g><path fill="#333" d="M30-248c87 1 191-15 191 75 0 78-77 80-158 76V0H30v-248zm33 125c57 0 124 11 124-50 0-59-68-47-124-48v98" id="bT"/><path fill="#333" d="M33 0v-248h34V0H33" id="bU"/><g id="y"><use transform="matrix(0.07469135802469135,0,0,0.07469135802469135,0,0)" xlink:href="#bE"/><use transform="matrix(0.07469135802469135,0,0,0.07469135802469135,17.925925925925924,0)" xlink:href="#bT"/><use transform="matrix(0.07469135802469135,0,0,0.07469135802469135,35.85185185185185,0)" xlink:href="#bU"/><use transform="matrix(0.07469135802469135,0,0,0.07469135802469135,43.32098765432098,0)" xlink:href="#bQ"/></g><path fill="#333" d="M114-163C36-179 61-72 57 0H25l-1-190h30c1 12-1 29 2 39 6-27 23-49 58-41v29" id="bV"/><g id="z"><use transform="matrix(0.07469135802469135,0,0,0.07469135802469135,0,0)" xlink:href="#bM"/><use transform="matrix(0.07469135802469135,0,0,0.07469135802469135,19.34506172839506,0)" xlink:href="#bV"/><use transform="matrix(0.07469135802469135,0,0,0.07469135802469135,28.233333333333327,0)" xlink:href="#bK"/><use transform="matrix(0.07469135802469135,0,0,0.07469135802469135,43.1716049382716,0)" xlink:href="#bJ"/><use transform="matrix(0.07469135802469135,0,0,0.07469135802469135,58.109876543209865,0)" xlink:href="#bG"/><use transform="matrix(0.07469135802469135,0,0,0.07469135802469135,65.579012345679,0)" xlink:href="#bK"/></g><g id="A"><use transform="matrix(0.07469135802469135,0,0,0.07469135802469135,0,0)" xlink:href="#bL"/><use transform="matrix(0.07469135802469135,0,0,0.07469135802469135,17.925925925925924,0)" xlink:href="#bM"/><use transform="matrix(0.07469135802469135,0,0,0.07469135802469135,37.27098765432098,0)" xlink:href="#bE"/></g><path fill="#333" d="M115-194c55 1 70 41 70 98S169 2 115 4C84 4 66-9 55-30l1 105H24l-1-265h31l2 30c10-21 28-34 59-34zm-8 174c40 0 45-34 45-75s-6-73-45-74c-42 0-51 32-51 76 0 43 10 73 51 73" id="bW"/><path fill="#333" d="M24 0v-261h32V0H24" id="bX"/><g id="B"><use transform="matrix(0.07469135802469135,0,0,0.07469135802469135,0,0)" xlink:href="#bW"/><use transform="matrix(0.07469135802469135,0,0,0.07469135802469135,14.938271604938269,0)" xlink:href="#bH"/><use transform="matrix(0.07469135802469135,0,0,0.07469135802469135,29.876543209876537,0)" xlink:href="#bX"/><use transform="matrix(0.07469135802469135,0,0,0.07469135802469135,35.777160493827154,0)" xlink:href="#bO"/><use transform="matrix(0.07469135802469135,0,0,0.07469135802469135,41.67777777777777,0)" xlink:href="#bN"/><use transform="matrix(0.07469135802469135,0,0,0.07469135802469135,55.12222222222221,0)" xlink:href="#bO"/><use transform="matrix(0.07469135802469135,0,0,0.07469135802469135,61.02283950617283,0)" xlink:href="#bK"/><use transform="matrix(0.07469135802469135,0,0,0.07469135802469135,75.9611111111111,0)" xlink:href="#bQ"/></g><path fill="#333" d="M85-194c31 0 48 13 60 33l-1-100h32l1 261h-30c-2-10 0-23-3-31C134-8 116 4 85 4 32 4 16-35 15-94c0-66 23-100 70-100zm9 24c-40 0-46 34-46 75 0 40 6 74 45 74 42 0 51-32 51-76 0-42-9-74-50-73" id="bY"/><g id="C"><use transform="matrix(0.07469135802469135,0,0,0.07469135802469135,0,0)" xlink:href="#bE"/><use transform="matrix(0.07469135802469135,0,0,0.07469135802469135,17.925925925925924,0)" xlink:href="#bY"/><use transform="matrix(0.07469135802469135,0,0,0.07469135802469135,32.86419753086419,0)" xlink:href="#bY"/></g><g id="D"><use transform="matrix(0.07469135802469135,0,0,0.07469135802469135,0,0)" xlink:href="#bF"/><use transform="matrix(0.07469135802469135,0,0,0.07469135802469135,14.938271604938269,0)" xlink:href="#bQ"/><use transform="matrix(0.07469135802469135,0,0,0.07469135802469135,28.38271604938271,0)" xlink:href="#bK"/><use transform="matrix(0.07469135802469135,0,0,0.07469135802469135,43.32098765432098,0)" xlink:href="#bV"/><use transform="matrix(0.07469135802469135,0,0,0.07469135802469135,52.20925925925925,0)" xlink:href="#bQ"/></g><path fill="#333" d="M240 0l2-218c-23 76-54 145-80 218h-23L58-218 59 0H30v-248h44l77 211c21-75 51-140 76-211h43V0h-30" id="bZ"/><path fill="#333" d="M177-190C167-65 218 103 67 71c-23-6-38-20-44-43l32-5c15 47 100 32 89-28v-30C133-14 115 1 83 1 29 1 15-40 15-95c0-56 16-97 71-98 29-1 48 16 59 35 1-10 0-23 2-32h30zM94-22c36 0 50-32 50-73 0-42-14-75-50-75-39 0-46 34-46 75s6 73 46 73" id="ca"/><g id="E"><use transform="matrix(0.07469135802469135,0,0,0.07469135802469135,0,0)" xlink:href="#bZ"/><use transform="matrix(0.07469135802469135,0,0,0.07469135802469135,22.33271604938271,0)" xlink:href="#bJ"/><use transform="matrix(0.07469135802469135,0,0,0.07469135802469135,37.270987654320976,0)" xlink:href="#bP"/><use transform="matrix(0.07469135802469135,0,0,0.07469135802469135,52.20925925925924,0)" xlink:href="#bJ"/><use transform="matrix(0.07469135802469135,0,0,0.07469135802469135,67.1475308641975,0)" xlink:href="#ca"/><use transform="matrix(0.07469135802469135,0,0,0.07469135802469135,82.08580246913577,0)" xlink:href="#bK"/></g><path fill="#333" d="M101-234c-31-9-42 10-38 44h38v23H63V0H32v-167H5v-23h27c-7-52 17-82 69-68v24" id="cb"/><g id="F"><use transform="matrix(0.07469135802469135,0,0,0.07469135802469135,0,0)" xlink:href="#bM"/><use transform="matrix(0.07469135802469135,0,0,0.07469135802469135,19.34506172839506,0)" xlink:href="#bH"/><use transform="matrix(0.07469135802469135,0,0,0.07469135802469135,34.28333333333333,0)" xlink:href="#bP"/><use transform="matrix(0.07469135802469135,0,0,0.07469135802469135,49.2216049382716,0)" xlink:href="#cb"/><use transform="matrix(0.07469135802469135,0,0,0.07469135802469135,56.69074074074073,0)" xlink:href="#bO"/><use transform="matrix(0.07469135802469135,0,0,0.07469135802469135,62.591358024691345,0)" xlink:href="#ca"/><use transform="matrix(0.07469135802469135,0,0,0.07469135802469135,77.52962962962961,0)" xlink:href="#bF"/><use transform="matrix(0.07469135802469135,0,0,0.07469135802469135,92.46790123456788,0)" xlink:href="#bV"/><use transform="matrix(0.07469135802469135,0,0,0.07469135802469135,101.35617283950614,0)" xlink:href="#bK"/></g><g id="G"><use transform="matrix(0.07469135802469135,0,0,0.07469135802469135,0,0)" xlink:href="#bO"/><use transform="matrix(0.07469135802469135,0,0,0.07469135802469135,5.900617283950616,0)" xlink:href="#bP"/><use transform="matrix(0.07469135802469135,0,0,0.07469135802469135,20.838888888888885,0)" xlink:href="#bG"/><use transform="matrix(0.07469135802469135,0,0,0.07469135802469135,28.30802469135802,0)" xlink:href="#bK"/><use transform="matrix(0.07469135802469135,0,0,0.07469135802469135,43.2462962962963,0)" xlink:href="#ca"/><use transform="matrix(0.07469135802469135,0,0,0.07469135802469135,58.18456790123456,0)" xlink:href="#bV"/><use transform="matrix(0.07469135802469135,0,0,0.07469135802469135,67.07283950617283,0)" xlink:href="#bJ"/><use transform="matrix(0.07469135802469135,0,0,0.07469135802469135,82.01111111111109,0)" xlink:href="#bG"/><use transform="matrix(0.07469135802469135,0,0,0.07469135802469135,89.48024691358023,0)" xlink:href="#bO"/><use transform="matrix(0.07469135802469135,0,0,0.07469135802469135,95.38086419753085,0)" xlink:href="#bH"/><use transform="matrix(0.07469135802469135,0,0,0.07469135802469135,110.31913580246912,0)" xlink:href="#bP"/><use transform="matrix(0.07469135802469135,0,0,0.07469135802469135,125.25740740740738,0)" xlink:href="#bQ"/></g><g id="H"><use transform="matrix(0.07469135802469135,0,0,0.07469135802469135,0,0)" xlink:href="#bM"/><use transform="matrix(0.07469135802469135,0,0,0.07469135802469135,19.34506172839506,0)" xlink:href="#bH"/><use transform="matrix(0.07469135802469135,0,0,0.07469135802469135,34.28333333333333,0)" xlink:href="#bP"/><use transform="matrix(0.07469135802469135,0,0,0.07469135802469135,49.2216049382716,0)" xlink:href="#bP"/><use transform="matrix(0.07469135802469135,0,0,0.07469135802469135,64.15987654320986,0)" xlink:href="#bK"/><use transform="matrix(0.07469135802469135,0,0,0.07469135802469135,79.09814814814814,0)" xlink:href="#bN"/><use transform="matrix(0.07469135802469135,0,0,0.07469135802469135,92.54259259259258,0)" xlink:href="#bG"/></g><g id="I"><use transform="matrix(0.07469135802469135,0,0,0.07469135802469135,0,0)" xlink:href="#bG"/><use transform="matrix(0.07469135802469135,0,0,0.07469135802469135,7.469135802469134,0)" xlink:href="#bH"/></g><use transform="matrix(0.07469135802469135,0,0,0.07469135802469135,0,0)" xlink:href="#bJ" id="J"/><g id="K"><use transform="matrix(0.07469135802469135,0,0,0.07469135802469135,0,0)" xlink:href="#bN"/><use transform="matrix(0.07469135802469135,0,0,0.07469135802469135,13.444444444444443,0)" xlink:href="#bX"/><use transform="matrix(0.07469135802469135,0,0,0.07469135802469135,19.34506172839506,0)" xlink:href="#bH"/><use transform="matrix(0.07469135802469135,0,0,0.07469135802469135,34.28333333333333,0)" xlink:href="#bF"/><use transform="matrix(0.07469135802469135,0,0,0.07469135802469135,49.2216049382716,0)" xlink:href="#bY"/></g><path fill="#333" d="M143 0L79-87 56-68V0H24v-261h32v163l83-92h37l-77 82L181 0h-38" id="cc"/><g id="L"><use transform="matrix(0.07469135802469135,0,0,0.07469135802469135,0,0)" xlink:href="#bR"/><use transform="matrix(0.07469135802469135,0,0,0.07469135802469135,19.34506172839506,0)" xlink:href="#bH"/><use transform="matrix(0.07469135802469135,0,0,0.07469135802469135,34.28333333333333,0)" xlink:href="#bV"/><use transform="matrix(0.07469135802469135,0,0,0.07469135802469135,43.1716049382716,0)" xlink:href="#cc"/><use transform="matrix(0.07469135802469135,0,0,0.07469135802469135,56.61604938271604,0)" xlink:href="#bQ"/><use transform="matrix(0.07469135802469135,0,0,0.07469135802469135,70.06049382716049,0)" xlink:href="#bW"/><use transform="matrix(0.07469135802469135,0,0,0.07469135802469135,84.99876543209875,0)" xlink:href="#bJ"/><use transform="matrix(0.07469135802469135,0,0,0.07469135802469135,99.93703703703702,0)" xlink:href="#bN"/><use transform="matrix(0.07469135802469135,0,0,0.07469135802469135,113.38148148148146,0)" xlink:href="#bK"/></g><g id="M"><use transform="matrix(0.07469135802469135,0,0,0.07469135802469135,0,0)" xlink:href="#bM"/><use transform="matrix(0.07469135802469135,0,0,0.07469135802469135,19.34506172839506,0)" xlink:href="#bH"/><use transform="matrix(0.07469135802469135,0,0,0.07469135802469135,34.28333333333333,0)" xlink:href="#bP"/><use transform="matrix(0.07469135802469135,0,0,0.07469135802469135,49.2216049382716,0)" xlink:href="#bP"/><use transform="matrix(0.07469135802469135,0,0,0.07469135802469135,64.15987654320986,0)" xlink:href="#bK"/><use transform="matrix(0.07469135802469135,0,0,0.07469135802469135,79.09814814814814,0)" xlink:href="#bN"/><use transform="matrix(0.07469135802469135,0,0,0.07469135802469135,92.54259259259258,0)" xlink:href="#bG"/></g><g id="N"><use transform="matrix(0.07469135802469135,0,0,0.07469135802469135,0,0)" xlink:href="#bN"/><use transform="matrix(0.07469135802469135,0,0,0.07469135802469135,13.444444444444443,0)" xlink:href="#bX"/><use transform="matrix(0.07469135802469135,0,0,0.07469135802469135,19.34506172839506,0)" xlink:href="#bH"/><use transform="matrix(0.07469135802469135,0,0,0.07469135802469135,34.28333333333333,0)" xlink:href="#bF"/><use transform="matrix(0.07469135802469135,0,0,0.07469135802469135,49.2216049382716,0)" xlink:href="#bY"/></g><g id="O"><use transform="matrix(0.07469135802469135,0,0,0.07469135802469135,0,0)" xlink:href="#bR"/><use transform="matrix(0.07469135802469135,0,0,0.07469135802469135,19.34506172839506,0)" xlink:href="#bH"/><use transform="matrix(0.07469135802469135,0,0,0.07469135802469135,34.28333333333333,0)" xlink:href="#bV"/><use transform="matrix(0.07469135802469135,0,0,0.07469135802469135,43.1716049382716,0)" xlink:href="#cc"/><use transform="matrix(0.07469135802469135,0,0,0.07469135802469135,56.61604938271604,0)" xlink:href="#bQ"/><use transform="matrix(0.07469135802469135,0,0,0.07469135802469135,70.06049382716049,0)" xlink:href="#bW"/><use transform="matrix(0.07469135802469135,0,0,0.07469135802469135,84.99876543209875,0)" xlink:href="#bJ"/><use transform="matrix(0.07469135802469135,0,0,0.07469135802469135,99.93703703703702,0)" xlink:href="#bN"/><use transform="matrix(0.07469135802469135,0,0,0.07469135802469135,113.38148148148146,0)" xlink:href="#bK"/><use transform="matrix(0.07469135802469135,0,0,0.07469135802469135,128.31975308641972,0)" xlink:href="#bQ"/></g><path fill="#333" d="M30-248c118-7 216 8 213 122C240-48 200 0 122 0H30v-248zM63-27c89 8 146-16 146-99s-60-101-146-95v194" id="cd"/><g id="P"><use transform="matrix(0.07469135802469135,0,0,0.07469135802469135,0,0)" xlink:href="#cd"/><use transform="matrix(0.07469135802469135,0,0,0.07469135802469135,19.34506172839506,0)" xlink:href="#bK"/><use transform="matrix(0.07469135802469135,0,0,0.07469135802469135,34.28333333333333,0)" xlink:href="#bX"/><use transform="matrix(0.07469135802469135,0,0,0.07469135802469135,40.18395061728394,0)" xlink:href="#bK"/><use transform="matrix(0.07469135802469135,0,0,0.07469135802469135,55.12222222222222,0)" xlink:href="#ca"/><use transform="matrix(0.07469135802469135,0,0,0.07469135802469135,70.06049382716049,0)" xlink:href="#bJ"/><use transform="matrix(0.07469135802469135,0,0,0.07469135802469135,84.99876543209875,0)" xlink:href="#bG"/><use transform="matrix(0.07469135802469135,0,0,0.07469135802469135,92.46790123456789,0)" xlink:href="#bK"/></g><g id="Q"><use transform="matrix(0.07469135802469135,0,0,0.07469135802469135,0,0)" xlink:href="#bM"/><use transform="matrix(0.07469135802469135,0,0,0.07469135802469135,19.34506172839506,0)" xlink:href="#bH"/><use transform="matrix(0.07469135802469135,0,0,0.07469135802469135,34.28333333333333,0)" xlink:href="#bP"/><use transform="matrix(0.07469135802469135,0,0,0.07469135802469135,49.2216049382716,0)" xlink:href="#cb"/><use transform="matrix(0.07469135802469135,0,0,0.07469135802469135,56.69074074074073,0)" xlink:href="#bO"/><use transform="matrix(0.07469135802469135,0,0,0.07469135802469135,62.591358024691345,0)" xlink:href="#ca"/><use transform="matrix(0.07469135802469135,0,0,0.07469135802469135,77.52962962962961,0)" xlink:href="#bF"/><use transform="matrix(0.07469135802469135,0,0,0.07469135802469135,92.46790123456788,0)" xlink:href="#bV"/><use transform="matrix(0.07469135802469135,0,0,0.07469135802469135,101.35617283950614,0)" xlink:href="#bK"/></g><path fill="#333" d="M16-82v-28h88v28H16" id="ce"/><g id="R"><use transform="matrix(0.07469135802469135,0,0,0.07469135802469135,0,0)" xlink:href="#bH"/><use transform="matrix(0.07469135802469135,0,0,0.07469135802469135,14.938271604938269,0)" xlink:href="#bP"/><use transform="matrix(0.07469135802469135,0,0,0.07469135802469135,29.876543209876537,0)" xlink:href="#ce"/><use transform="matrix(0.07469135802469135,0,0,0.07469135802469135,38.764814814814805,0)" xlink:href="#bY"/><use transform="matrix(0.07469135802469135,0,0,0.07469135802469135,53.70308641975308,0)" xlink:href="#bK"/><use transform="matrix(0.07469135802469135,0,0,0.07469135802469135,68.64135802469134,0)" xlink:href="#bI"/><use transform="matrix(0.07469135802469135,0,0,0.07469135802469135,90.97407407407405,0)" xlink:href="#bJ"/><use transform="matrix(0.07469135802469135,0,0,0.07469135802469135,105.9123456790123,0)" xlink:href="#bP"/><use transform="matrix(0.07469135802469135,0,0,0.07469135802469135,120.85061728395058,0)" xlink:href="#bY"/></g><g id="S"><use transform="matrix(0.07469135802469135,0,0,0.07469135802469135,0,0)" xlink:href="#bJ"/><use transform="matrix(0.07469135802469135,0,0,0.07469135802469135,14.938271604938269,0)" xlink:href="#bN"/><use transform="matrix(0.07469135802469135,0,0,0.07469135802469135,28.38271604938271,0)" xlink:href="#bN"/><use transform="matrix(0.07469135802469135,0,0,0.07469135802469135,41.82716049382715,0)" xlink:href="#bK"/><use transform="matrix(0.07469135802469135,0,0,0.07469135802469135,56.765432098765416,0)" xlink:href="#bQ"/><use transform="matrix(0.07469135802469135,0,0,0.07469135802469135,70.20987654320986,0)" xlink:href="#bQ"/></g><path fill="#333" d="M137 0h-34L2-248h35l83 218 83-218h36" id="cf"/><g id="T"><use transform="matrix(0.07469135802469135,0,0,0.07469135802469135,0,0)" xlink:href="#cf"/><use transform="matrix(0.07469135802469135,0,0,0.07469135802469135,17.403086419753084,0)" xlink:href="#bO"/><use transform="matrix(0.07469135802469135,0,0,0.07469135802469135,23.3037037037037,0)" xlink:href="#bK"/><use transform="matrix(0.07469135802469135,0,0,0.07469135802469135,38.24197530864197,0)" xlink:href="#bR"/></g><g id="U"><use transform="matrix(0.07469135802469135,0,0,0.07469135802469135,0,0)" xlink:href="#bH"/><use transform="matrix(0.07469135802469135,0,0,0.07469135802469135,14.938271604938269,0)" xlink:href="#bP"/><use transform="matrix(0.07469135802469135,0,0,0.07469135802469135,29.876543209876537,0)" xlink:href="#ce"/><use transform="matrix(0.07469135802469135,0,0,0.07469135802469135,38.764814814814805,0)" xlink:href="#bY"/><use transform="matrix(0.07469135802469135,0,0,0.07469135802469135,53.70308641975308,0)" xlink:href="#bK"/><use transform="matrix(0.07469135802469135,0,0,0.07469135802469135,68.64135802469134,0)" xlink:href="#bI"/><use transform="matrix(0.07469135802469135,0,0,0.07469135802469135,90.97407407407405,0)" xlink:href="#bJ"/><use transform="matrix(0.07469135802469135,0,0,0.07469135802469135,105.9123456790123,0)" xlink:href="#bP"/><use transform="matrix(0.07469135802469135,0,0,0.07469135802469135,120.85061728395058,0)" xlink:href="#bY"/></g><g id="V"><use transform="matrix(0.07469135802469135,0,0,0.07469135802469135,0,0)" xlink:href="#bJ"/><use transform="matrix(0.07469135802469135,0,0,0.07469135802469135,14.938271604938269,0)" xlink:href="#bN"/><use transform="matrix(0.07469135802469135,0,0,0.07469135802469135,28.38271604938271,0)" xlink:href="#bN"/><use transform="matrix(0.07469135802469135,0,0,0.07469135802469135,41.82716049382715,0)" xlink:href="#bK"/><use transform="matrix(0.07469135802469135,0,0,0.07469135802469135,56.765432098765416,0)" xlink:href="#bQ"/><use transform="matrix(0.07469135802469135,0,0,0.07469135802469135,70.20987654320986,0)" xlink:href="#bQ"/></g><g id="W"><use transform="matrix(0.07469135802469135,0,0,0.07469135802469135,0,0)" xlink:href="#bQ"/><use transform="matrix(0.07469135802469135,0,0,0.07469135802469135,13.444444444444443,0)" xlink:href="#bK"/><use transform="matrix(0.07469135802469135,0,0,0.07469135802469135,28.38271604938271,0)" xlink:href="#bG"/><use transform="matrix(0.07469135802469135,0,0,0.07469135802469135,35.85185185185185,0)" xlink:href="#bG"/><use transform="matrix(0.07469135802469135,0,0,0.07469135802469135,43.32098765432098,0)" xlink:href="#bO"/><use transform="matrix(0.07469135802469135,0,0,0.07469135802469135,49.2216049382716,0)" xlink:href="#bP"/><use transform="matrix(0.07469135802469135,0,0,0.07469135802469135,64.15987654320986,0)" xlink:href="#ca"/><use transform="matrix(0.07469135802469135,0,0,0.07469135802469135,79.09814814814814,0)" xlink:href="#bQ"/></g><g id="X"><use transform="matrix(0.07469135802469135,0,0,0.07469135802469135,0,0)" xlink:href="#bZ"/><use transform="matrix(0.07469135802469135,0,0,0.07469135802469135,22.33271604938271,0)" xlink:href="#bJ"/><use transform="matrix(0.07469135802469135,0,0,0.07469135802469135,37.270987654320976,0)" xlink:href="#bP"/><use transform="matrix(0.07469135802469135,0,0,0.07469135802469135,52.20925925925924,0)" xlink:href="#bJ"/><use transform="matrix(0.07469135802469135,0,0,0.07469135802469135,67.1475308641975,0)" xlink:href="#ca"/><use transform="matrix(0.07469135802469135,0,0,0.07469135802469135,82.08580246913577,0)" xlink:href="#bK"/></g><g id="Y"><use transform="matrix(0.07469135802469135,0,0,0.07469135802469135,0,0)" xlink:href="#bL"/><use transform="matrix(0.07469135802469135,0,0,0.07469135802469135,17.925925925925924,0)" xlink:href="#bM"/><use transform="matrix(0.07469135802469135,0,0,0.07469135802469135,37.27098765432098,0)" xlink:href="#bE"/></g><g id="Z"><use transform="matrix(0.07469135802469135,0,0,0.07469135802469135,0,0)" xlink:href="#bW"/><use transform="matrix(0.07469135802469135,0,0,0.07469135802469135,14.938271604938269,0)" xlink:href="#bH"/><use transform="matrix(0.07469135802469135,0,0,0.07469135802469135,29.876543209876537,0)" xlink:href="#bX"/><use transform="matrix(0.07469135802469135,0,0,0.07469135802469135,35.777160493827154,0)" xlink:href="#bO"/><use transform="matrix(0.07469135802469135,0,0,0.07469135802469135,41.67777777777777,0)" xlink:href="#bN"/><use transform="matrix(0.07469135802469135,0,0,0.07469135802469135,55.12222222222221,0)" xlink:href="#bO"/><use transform="matrix(0.07469135802469135,0,0,0.07469135802469135,61.02283950617283,0)" xlink:href="#bK"/><use transform="matrix(0.07469135802469135,0,0,0.07469135802469135,75.9611111111111,0)" xlink:href="#bQ"/></g><g id="aa"><use transform="matrix(0.07469135802469135,0,0,0.07469135802469135,0,0)" xlink:href="#cb"/><use transform="matrix(0.07469135802469135,0,0,0.07469135802469135,7.469135802469134,0)" xlink:href="#bH"/><use transform="matrix(0.07469135802469135,0,0,0.07469135802469135,22.407407407407405,0)" xlink:href="#bV"/></g><g id="ab"><use transform="matrix(0.07469135802469135,0,0,0.07469135802469135,0,0)" xlink:href="#bY"/><use transform="matrix(0.07469135802469135,0,0,0.07469135802469135,14.938271604938269,0)" xlink:href="#bK"/><use transform="matrix(0.07469135802469135,0,0,0.07469135802469135,29.876543209876537,0)" xlink:href="#bX"/><use transform="matrix(0.07469135802469135,0,0,0.07469135802469135,35.777160493827154,0)" xlink:href="#bK"/><use transform="matrix(0.07469135802469135,0,0,0.07469135802469135,50.71543209876541,0)" xlink:href="#ca"/><use transform="matrix(0.07469135802469135,0,0,0.07469135802469135,65.65370370370368,0)" xlink:href="#bJ"/><use transform="matrix(0.07469135802469135,0,0,0.07469135802469135,80.59197530864195,0)" xlink:href="#bG"/><use transform="matrix(0.07469135802469135,0,0,0.07469135802469135,88.0611111111111,0)" xlink:href="#bK"/><use transform="matrix(0.07469135802469135,0,0,0.07469135802469135,102.99938271604935,0)" xlink:href="#bY"/></g><g id="ac"><use transform="matrix(0.07469135802469135,0,0,0.07469135802469135,0,0)" xlink:href="#bE"/><use transform="matrix(0.07469135802469135,0,0,0.07469135802469135,17.925925925925924,0)" xlink:href="#bY"/><use transform="matrix(0.07469135802469135,0,0,0.07469135802469135,32.86419753086419,0)" xlink:href="#bY"/></g><path fill="#333" d="M115-194c53 0 69 39 70 98 0 66-23 100-70 100C84 3 66-7 56-30L54 0H23l1-261h32v101c10-23 28-34 59-34zm-8 174c40 0 45-34 45-75 0-40-5-75-45-74-42 0-51 32-51 76 0 43 10 73 51 73" id="cg"/><g id="ad"><use transform="matrix(0.07469135802469135,0,0,0.07469135802469135,0,0)" xlink:href="#bR"/><use transform="matrix(0.07469135802469135,0,0,0.07469135802469135,19.34506172839506,0)" xlink:href="#bK"/><use transform="matrix(0.07469135802469135,0,0,0.07469135802469135,34.28333333333333,0)" xlink:href="#cg"/></g><g id="ae"><use transform="matrix(0.07469135802469135,0,0,0.07469135802469135,0,0)" xlink:href="#bJ"/><use transform="matrix(0.07469135802469135,0,0,0.07469135802469135,14.938271604938269,0)" xlink:href="#bW"/><use transform="matrix(0.07469135802469135,0,0,0.07469135802469135,29.876543209876537,0)" xlink:href="#bW"/><use transform="matrix(0.07469135802469135,0,0,0.07469135802469135,44.81481481481481,0)" xlink:href="#bQ"/></g></defs></g></svg>