<svg xmlns="http://www.w3.org/2000/svg" width="50" height="50" viewBox="0 0 50 50">
    <defs>
        <filter id="jali0rgyna">
            <feColorMatrix in="SourceGraphic" values="0 0 0 0 0.058824 0 0 0 0 0.133333 0 0 0 0 0.200000 0 0 0 1.000000 0"/>
        </filter>
        <filter id="kznocmu9ob">
            <feColorMatrix in="SourceGraphic" values="0 0 0 0 0.000000 0 0 0 0 0.000000 0 0 0 0 0.000000 0 0 0 1.000000 0"/>
        </filter>
    </defs>
    <g fill="none" fill-rule="evenodd">
        <g>
            <g>
                <g filter="url(#jali0rgyna)" transform="translate(-359 -743) translate(358.5 738) translate(.5 5)">
                    <g filter="url(#kznocmu9ob)">
                        <g>
                            <path fill="#000" fill-rule="nonzero" d="M12.5 20.3c2.589 0 4.688 2.098 4.688 4.687V32.8c0 2.589-2.1 4.687-4.688 4.687H4.687C2.1 37.487 0 35.39 0 32.8v-7.813C0 22.398 2.099 20.3 4.688 20.3H12.5zM30.61 1.373l5.525 5.524c1.83 1.83 1.83 4.799 0 6.63l-5.53 5.528c-.635.637-1.409 1.052-2.224 1.246l2.852-.001c2.59 0 4.688 2.098 4.688 4.687V32.8c0 2.589-2.099 4.687-4.688 4.687h-7.812c-2.59 0-4.688-2.098-4.688-4.687v-7.813c0-2.589 2.099-4.687 4.688-4.687h2.781c-.815-.193-1.589-.608-2.225-1.245l-5.524-5.524c-.66-.659-1.081-1.466-1.266-2.313v2.832c0 2.589-2.098 4.687-4.687 4.687H4.687C2.1 18.737 0 16.64 0 14.05V6.237C0 3.648 2.099 1.55 4.688 1.55H12.5c2.589 0 4.688 2.098 4.688 4.687v2.979c.184-.848.605-1.655 1.265-2.314l5.529-5.53c1.83-1.83 4.798-1.83 6.629 0zM12.5 22.643H4.687c-1.218 0-2.219.93-2.333 2.118l-.01.226V32.8c0 1.218.93 2.22 2.118 2.333l.226.01H12.5c1.218 0 2.22-.93 2.333-2.118l.01-.225v-7.813c0-1.218-.929-2.22-2.117-2.333l-.226-.01zm18.733 0h-7.812c-1.219 0-2.22.93-2.333 2.118l-.011.226V32.8c0 1.218.93 2.22 2.118 2.333l.226.01h7.812c1.218 0 2.22-.93 2.333-2.118l.011-.225v-7.813c0-1.218-.93-2.22-2.118-2.333l-.226-.01zM25.806 2.878l-.167.152-5.53 5.53c-.86.86-.911 2.226-.151 3.147l.152.167 5.524 5.524c.862.862 2.227.912 3.147.152l.168-.152 5.529-5.529c.861-.861.912-2.227.152-3.147l-.152-.168-5.525-5.524c-.861-.861-2.226-.912-3.147-.152zM12.5 3.893H4.687c-1.218 0-2.219.93-2.333 2.118l-.01.226v7.813c0 1.218.93 2.22 2.118 2.333l.226.01H12.5c1.218 0 2.22-.93 2.333-2.118l.01-.225V6.237c0-1.218-.929-2.22-2.117-2.333l-.226-.01z" transform="translate(6.3 6.237)"/>
                        </g>
                    </g>
                </g>
            </g>
        </g>
    </g>
</svg>
