<svg xmlns="http://www.w3.org/2000/svg" width="75" height="92" viewBox="0 0 75 92">
    <g fill="none" fill-rule="evenodd">
        <path fill="#5B8FC7" d="M9.265 18.791a2.316 2.316 0 1 0 0 4.632 2.316 2.316 0 0 0 0-4.632M17.373 18.791a2.315 2.315 0 1 0-.001 4.631 2.315 2.315 0 0 0 0-4.631M25.48 18.791a2.315 2.315 0 1 0 0 4.631 2.315 2.315 0 0 0 0-4.631"/>
        <path fill="#6D6E71" d="M2.316 26.898V18.79a3.481 3.481 0 0 1 3.475-3.475h62.543a3.48 3.48 0 0 1 3.474 3.475v8.107H2.316zm69.492 46.327a3.48 3.48 0 0 1-3.474 3.474H5.791a3.48 3.48 0 0 1-3.475-3.474V29.214h69.492v44.01zM68.334 13H5.791a5.798 5.798 0 0 0-5.79 5.79v54.434a5.798 5.798 0 0 0 5.79 5.792h62.543a5.8 5.8 0 0 0 5.791-5.791V18.79A5.8 5.8 0 0 0 68.335 13z"/>
        <path fill="#6D6E71" d="M13.898 35.584h6.95c.64 0 1.157-.517 1.157-1.158 0-.64-.517-1.158-1.158-1.158h-6.949c-.64 0-1.158.518-1.158 1.158 0 .641.517 1.158 1.158 1.158M17.373 39.059c0 .64.518 1.158 1.158 1.158h6.949a1.157 1.157 0 1 0 0-2.316h-6.95c-.64 0-1.157.517-1.157 1.158M22.006 43.691c0 .641.517 1.158 1.157 1.158h6.948a1.157 1.157 0 1 0 0-2.316h-6.948c-.64 0-1.157.517-1.157 1.158M34.746 44.85h17.373c.64 0 1.158-.518 1.158-1.158 0-.641-.517-1.158-1.158-1.158H34.746a1.157 1.157 0 1 0 0 2.316M30.112 47.166h-6.948c-.641 0-1.158.518-1.158 1.158 0 .641.517 1.158 1.158 1.158h6.948c.641 0 1.158-.517 1.158-1.158 0-.64-.517-1.158-1.158-1.158M52.119 47.166H34.746a1.157 1.157 0 1 0 0 2.316h17.373a1.157 1.157 0 1 0 0-2.316M13.898 58.748h6.95c.64 0 1.157-.518 1.157-1.158 0-.642-.517-1.159-1.158-1.159h-6.949c-.64 0-1.158.518-1.158 1.159 0 .64.517 1.157 1.158 1.157M20.847 70.33h-6.949a1.157 1.157 0 1 0 0 2.315h6.95a1.157 1.157 0 1 0 0-2.316M25.48 61.064h-6.949c-.64 0-1.158.518-1.158 1.158 0 .64.517 1.158 1.158 1.158h6.95c.64 0 1.157-.517 1.157-1.158 0-.64-.517-1.158-1.158-1.158M47.486 61.064H30.112c-.641 0-1.157.518-1.157 1.158 0 .64.516 1.158 1.157 1.158h17.374c.641 0 1.158-.517 1.158-1.158 0-.64-.517-1.158-1.158-1.158M25.48 65.697h-6.949c-.64 0-1.158.518-1.158 1.158 0 .64.517 1.158 1.158 1.158h6.95c.64 0 1.157-.517 1.157-1.158 0-.64-.517-1.158-1.158-1.158M47.486 65.697H30.112c-.641 0-1.157.518-1.157 1.158 0 .64.516 1.158 1.157 1.158h17.374c.641 0 1.158-.517 1.158-1.158 0-.64-.517-1.158-1.158-1.158M8.107 32.689a1.737 1.737 0 1 0 0 3.475 1.737 1.737 0 0 0 0-3.475M8.107 55.852a1.737 1.737 0 1 0 0 3.475 1.737 1.737 0 0 0 0-3.475M8.107 69.75a1.737 1.737 0 1 0 0 3.475 1.737 1.737 0 0 0 0-3.474M25.48 54.115h-6.949a1.156 1.156 0 0 1-1.158-1.158c0-.641.517-1.158 1.158-1.158h6.95c.64 0 1.157.517 1.157 1.158 0 .64-.517 1.158-1.158 1.158"/>
    </g>
</svg>
