<svg id="Layer_1" data-name="Layer 1" xmlns="http://www.w3.org/2000/svg" viewBox="0 0 150 150">
  <defs>
    <style>
      .cls-1 {
        fill: #fff;
        stroke-width: 4px;
      }

      .cls-1, .cls-2, .cls-3 {
        stroke: #344660;
        stroke-linecap: round;
        stroke-linejoin: round;
      }

      .cls-2, .cls-3 {
        fill: none;
      }

      .cls-2 {
        stroke-width: 3px;
      }

      .cls-3 {
        stroke-width: 1.5px;
      }

      .cls-4 {
        fill: #ff8533;
      }
    </style>
  </defs>
  <title>APIs</title>
  <path class="cls-1" d="M132.45,103.95h14.2V16l-112.2-.2a.2.2,0,0,0-.2.2V28"/>
  <path class="cls-1" d="M117.25,117.15h14.2v-88L19.05,29a.2.2,0,0,0-.2.2v12"/>
  <path class="cls-1" d="M115.45,130.35H4.25s-.6-.2-.6-.4V42.35a.2.2,0,0,1,.2-.2l112.4.2v88Z"/>
  <line class="cls-2" x1="114.65" y1="59.35" x2="3.65" y2="59.35"/>
  <line class="cls-3" x1="16.05" y1="50.75" x2="45.05" y2="50.75"/>
  <g>
    <g>
      <rect class="cls-4" x="74.25" y="96.98" width="15" height="3.2" transform="translate(-45.9 88.26) rotate(-45.71)"/>
      <rect class="cls-4" x="80.68" y="82.49" width="3.2" height="15" transform="translate(-39.6 86.25) rotate(-45.81)"/>
    </g>
    <g>
      <rect class="cls-4" x="42.9" y="91.27" width="3.2" height="15" transform="translate(-57.61 62.58) rotate(-46.23)"/>
      <rect class="cls-4" x="36.67" y="88.76" width="15" height="3.2" transform="translate(-51.64 59.74) rotate(-46.23)"/>
    </g>
    <rect class="cls-4" x="48.31" y="92.7" width="29.4" height="3.2" transform="translate(-48.89 112.73) rotate(-65.6)"/>
  </g>
  <line class="cls-3" x1="31.25" y1="36.55" x2="60.25" y2="36.55"/>
  <line class="cls-2" x1="131.05" y1="46.15" x2="116.85" y2="46.15"/>
  <line class="cls-3" x1="46.45" y1="23.35" x2="75.65" y2="23.35"/>
  <line class="cls-2" x1="146.25" y1="33.15" x2="132.05" y2="33.15"/>
</svg>
