<svg id="Layer_1" data-name="Layer 1" xmlns="http://www.w3.org/2000/svg" xmlns:xlink="http://www.w3.org/1999/xlink" viewBox="0 0 300 250"><defs><style>.cls-1{fill:#a6c7e5;}.cls-2{fill:url(#linear-gradient);}.cls-3{fill:#08141c;}.cls-4{fill:#4d8fcc;opacity:0.37;}</style><linearGradient id="linear-gradient" x1="151.69" y1="95.87" x2="107.75" y2="153.78" gradientTransform="translate(-9.62 15.62) rotate(-5.38)" gradientUnits="userSpaceOnUse"><stop offset="0" stop-color="#4d8fcc"/><stop offset="1"/></linearGradient></defs><title>blog_icon-resized</title><path d="M286.85,197.4c-.46.23-.93.66-1.37.64-1.78-.09-3.55-.49-5.32-.47-2.89,0-5.78.61-8.65.45-7-.37-14-1.23-20.95-1.54-12-.52-23.92-1-35.89-1.08-11.48-.1-22.92-.48-34.37-1.58-9.41-.9-1.08-.9-10.55-1.18-4.93-.14-9.86,0-14.8,0-1.09,0-2.17-.23-3.26-.26-5.13-.1-10.43,1.76-15.3-1.34a1.91,1.91,0,0,0-1.09,0c-4.14.55-8.22,2-12.45.55a2.1,2.1,0,0,0-.83,0c-5.12.36-10.24.67-15.35,1.11-2.09.18-4.16.88-6.24.91a11.17,11.17,0,0,1-5-1c-3.7-1.87-7.52-1.86-11.42-1.29-2.33.33-4.62,1.26-6.92,1.27-6.71,0-13.41-.38-20.12-.44a64.09,64.09,0,0,0-9.19.59,3.73,3.73,0,0,0-2.62,2,19,19,0,0,0-1,6.92c.3,3,2,3.52,4.86,2.33a14.23,14.23,0,0,1,4.6-.88c2.34-.14,4.69,0,7-.05,6.4-.15,12.8-.37,19.19-.52,1.19,0,2.39.36,3.56.27,1.83-.15,3.64-.75,5.47-.79,5.2-.11,10.42,0,15.63,0h12c2.34,0,4.7.12,7,0,4.11-.26,8.21-1,12.3-1,5.12,0,10.24.69,15.36,1,1.2.06,2.42-.44,3.62-.42,6.32.11,12.63.5,18.94.39,6.82-.11,13.63-.77,20.45-1,3-.09-11.82.5-8.82.47,7.6-.08,15.21-.6,22.8-.44,9.37.19,18.8-1.08,28.13,1a88.34,88.34,0,0,0,9.79,1.14c5.41.56,10.82,1.38,16.24,1.55,3.9.12,7.83-.59,11.74-1,2.45-.27,4.87-.92,7.31-1,3.83-.17,7.68,0,11.51-.08a7.2,7.2,0,0,0,3.24-1,5.3,5.3,0,0,0,2.13-2.48C293.52,197.82,286.53,197.08,286.85,197.4Z"/><path d="M156.67,236.55c-4.7,1.28-9.25,1.44-13.83,1.7-4.77.27-9.52,1.05-14.29,1.57-6.72.75-13.43,1.52-20.16,2.16-2.14.2-4.32,0-6.47,0-5.11.15-10.21.4-15.31.52-3.17.08-6.38-.24-9.52.08-4.26.44-8.46,1.47-12.72,2-2.58.3-5.21.05-7.82.16-1.53.07-3,.44-4.58.51-8,.4-16,.84-23.95,1-2.27.06-5,.34-6-2.69-.06-.17-1.05-.24-1.46,0-2.32,1.09-4.65,2.18-6.86,3.47-1.82,1.08-3.65,1.6-5.44.37-2.21-1.52-2-4-1.91-6.26,0-.4.54-.81.47-1.15-.49-2.54.45-4.23,3-5,2-.61,3.78-1.45,6.25-.88a13.19,13.19,0,0,0,8.16-.71c2.73-1.16,6.09-.91,9.18-1.24.2,0,.44.37.66.57l-.76.49-1.46.92c.64.24,1.3.73,1.92.68,4.14-.28,8.35-.32,12.37-1.18,2.53-.54,4.93-.29,7.38-.47.69-.05,1.32-.76,2-1.12,1.48-.77,2.93-2.37,4.24.43.69,1.45,6.07,1.14,6.8-.51,1-2.4,2.89-1.33,4.4-1.4.94,0,1.89.73,2.87,1,2.61.72,5,.91,7.45-1,2.12-1.67,4.51-1.61,7.09-.06,1.4.83,3.59.62,5.39.49,3-.21,6.21-.18,8.86-1.3a16.69,16.69,0,0,1,7.19-1.38c.28,0,.64-.11.82,0,3.41,2.51,6.79-.52,10.2-.07,1,.13,2.1-.59,3.08-.45,4.11.63,8.33-1.64,12.36.49a.66.66,0,0,0,.55,0c5.72-2.81,11.93-1.72,18-2.15,6.43-.46,12.89-.69,19.32-1.15,1.9-.13,3.76-1,5.65-1,3.85,0,7.7.31,11.55.38,4.13.08-9.57,0-5.43,0a38.69,38.69,0,0,1,4.57.12,239.17,239.17,0,0,0,34.87,2.18c3.85-.09,7.71-.15,11.56,0,5.67.25,11.34.67,17,1.08,4.29.31,8.58.69,12.86,1.1a7.88,7.88,0,0,1,1.9.72c-.33.57-.54,1.31-1,1.67a16.65,16.65,0,0,1-10.68,3.59c-7.52-.35-15-.88-22.56-1-5-.11-10.08.47-15.12.45-7.51,0-15-.38-22.52-.49-6.13-.09-12.27,0-18.4,0-4.55-.07,8.74-.5,4.2-.47-3.78,0-7.57.36-11.33.74-3.14.33-6.27.88-9.39,1.41C160.14,235.75,158.55,236.19,156.67,236.55Z"/><path d="M3.1,216.17c2.22-.32,4.3-.49,6.38-.68,3.64-.35,7.27-.73,10.9-1.05a23.27,23.27,0,0,1,3.34,0c5.06.34,10.12.75,15.18,1.07,3.65.23,7.33.73,11,.45s6.95-1.59,10.47-2c2.09-.23,4.27.47,6.42.68a14.14,14.14,0,0,0,3.78.13c1.76-.3,3.44-1.13,5.21-1.4,2.39-.36,4.83-.4,7.25-.59,2-.17,4-.06,5.84-.64a3,3,0,0,1,3.28.58c1.25,1,2.64,1.68,4.59.72,1.26-.62,3.11.05,4.65-.18a5.11,5.11,0,0,0,2.65-1.4c1.55-1.58,2.74-.11,4,.29,2.53.8,5,1.47,7.33-.45.26-.22.57-.52.87-.54,3.65-.21,7.31-.48,11-.54,5.06-.09,10.12,0,15.17,0,6.34-.11,12.67-.33,19-.54,4.76-.15,9.53-.57,14.29-.48,5.4.11,10.79.85,16.2,1,3,.08-11.88-.22-8.93-.65,4.67-.69,9,.87,13.38,1.76a11.89,11.89,0,0,0,2.86,0c3.48-.17,7-.43,10.42-.54,2.49-.09,5,0,7.48,0h18c7.58,0,15.17.14,22.75,0,7.34-.18,14.67-.68,22-1.07.58,0,1.21-.59,1.7-.47a7.57,7.57,0,0,1,2,1.18c-.33.49-.62,1-1,1.49-2.15,2.58-4.77,2.48-8,2.4-6.59-.17-13.22.89-19.83,1.42-4.75.38-9.49.87-14.25,1.07-10.47.45-21,.73-31.44,1.15-1.56.06-3.09.65-4.65.76a41.57,41.57,0,0,1-5.58,0c-1.84-.11-3.66-.82-5.32.84a4,4,0,0,1-2.76.55c-4.48-.29-8.94-.8-13.42-1-3.57-.18,10.68,0,7.11-.06-1,0-2.06-.44-3.1-.51-2.73-.16-5.45-.68-8.08.83-.69.4-2-.35-3-.27-3.9.33-7.79.85-11.7,1.16-1.7.13-3.42-.12-5.13-.08-6.8.15-13.61.21-20.4.57s-14,.27-20.61,1.84c-5.51,1.3-11-.29-16.52,1.73-3.13,1.16-7.07.19-10.65.24a4.11,4.11,0,0,0-1.7.53c-2.91,1.43-6,1.38-9.12,1.2-.82-.05-1.69.48-2.5.39-4.83-.55-9.65-1.21-14.47-1.84a16.66,16.66,0,0,0-2.09-.29c-7.8,0-15.65-.57-23.38.16-5.83.55-11.4-.66-17.08-.66a51.27,51.27,0,0,0-8.42,1.05c-2.71.47-4.65-1-4.52-3.75C2,219.81,1,217.75,3.1,216.17Z"/><path d="M38.47,232.73c0-.55.31-1.57.56-1.56a39.85,39.85,0,0,1,4.34.65c-1.35.3-2.71.61-4.07.9A5,5,0,0,1,38.47,232.73Z"/><polyline class="cls-1" points="258.91 157.09 297.11 199.82 242.96 181.23"/><path class="cls-2" d="M258.91,157.09,63.85,28.23,46.71,16.91h0l-1.05-.69L29.72,40.35l1.05.69h0L49.58,53.47h0L243,181.23s9,2.34,15.29-7.24S258.91,157.09,258.91,157.09Z"/><path class="cls-3" d="M281,181.83l16.07,18-23.35-8.07S280.56,188.73,281,181.83Z"/><path class="cls-1" d="M31.81,41.73,13,29.3,28.94,5.17,47.75,17.6S54,24.1,47.1,34.5C39.68,45.73,31.81,41.73,31.81,41.73Z"/><polyline class="cls-1" points="32.12 41.93 9.86 27.23 25.8 3.1 48.06 17.8"/><ellipse class="cls-1" cx="17.75" cy="15.11" rx="14.46" ry="9.93" transform="matrix(0.55, -0.83, 0.83, 0.55, -4.64, 21.6)"/><ellipse class="cls-4" cx="17.75" cy="15.11" rx="14.46" ry="9.93" transform="matrix(0.55, -0.83, 0.83, 0.55, -4.64, 21.6)"/><ellipse class="cls-1" cx="40.75" cy="30.4" rx="14.46" ry="9.93" transform="matrix(0.55, -0.83, 0.83, 0.55, -7.08, 47.64)"/></svg>