<svg xmlns="http://www.w3.org/2000/svg" width="50" height="50" viewBox="0 0 50 50">
    <defs>
        <filter id="urr867aena">
            <feColorMatrix in="SourceGraphic" values="0 0 0 0 0.058824 0 0 0 0 0.133333 0 0 0 0 0.200000 0 0 0 1.000000 0"/>
        </filter>
    </defs>
    <g fill="none" fill-rule="evenodd">
        <g>
            <g>
                <g filter="url(#urr867aena)" transform="translate(-847 -743) translate(358.5 738) translate(488.5 5)">
                    <path fill="#000" fill-rule="nonzero" d="M26.736 4.833c1.053 0 1.95.76 2.106 1.782l.522 3.114.133.036c.202.06.404.124.604.191l.596.215c.823.316 1.618.699 2.375 1.145l-.423-.24 2.67-1.914.233-.127c.286-.135.593-.207.91-.207.569 0 1.11.225 1.513.628l2.564 2.564c.708.712.822 1.812.285 2.66l-.047.072-1.857 2.605.113.198c.113.213.222.429.325.647l.296.663c.146.35.28.705.402 1.067l.192.616 3.11.528c.975.15 1.706.938 1.8 1.902l.01.21v3.538c0 1.098-.65 1.924-1.794 2.185l-3.135.522-.018.07c-.107.363-.227.72-.36 1.071l-.207.524c-.14.338-.294.671-.457.996l-.284.534 1.855 2.612c.543.779.498 1.827-.084 2.559l-.157.176-2.566 2.567c-.38.376-.891.621-1.508.621-.451 0-.887-.142-1.24-.4l-2.588-1.841-.182.103c-.207.11-.417.216-.63.318l-.643.29c-.358.15-.722.289-1.093.414l-.646.202-.525 3.11c-.15.975-.938 1.705-1.902 1.798l-.208.01h-3.618c-1.053 0-1.95-.76-2.107-1.784l-.523-3.137-.212-.06c-.228-.07-.455-.146-.68-.227l-.674-.258c-.667-.273-1.319-.593-1.95-.955l.417.23-2.72 1.932-.232.127c-.285.134-.592.206-.907.206-.57 0-1.112-.226-1.514-.628l-2.56-2.56c-.714-.714-.828-1.82-.283-2.673l.043-.065 1.845-2.59-.095-.168c-.22-.403-.42-.815-.602-1.232l-.258-.632c-.102-.267-.196-.535-.282-.804l-.11-.355L6.64 29c-.917-.142-1.618-.848-1.774-1.734l-.023-.168-.01-.209v-3.617c0-1.052.76-1.948 1.782-2.107l3.112-.523.018-.063c.104-.36.22-.715.348-1.064l.2-.52c.141-.343.293-.68.456-1.012l.279-.538-1.87-2.628c-.549-.78-.505-1.834.08-2.566l.158-.175 2.559-2.56c.38-.38.893-.629 1.514-.629.452 0 .89.142 1.242.4l2.57 1.833.058-.034c.328-.18.66-.35.998-.506l.51-.226c.341-.144.687-.275 1.034-.392l.591-.187.535-3.134c.15-.975.938-1.706 1.902-1.8l.209-.01zm-.334 2.53H23.45l-.563 3.31c-.106.617-.531 1.124-1.115 1.357l-.2.067c-.59.152-1.172.35-1.743.59-.573.242-1.134.526-1.686.857-.273.16-.588.244-.905.244-.37 0-.73-.113-1.039-.33l-2.69-1.92-2.09 2.09 1.942 2.732c.365.507.437 1.161.198 1.728l-.104.207c-.31.528-.583 1.08-.818 1.656-.234.576-.43 1.174-.584 1.789-.173.688-.74 1.202-1.438 1.32l-3.253.547v2.95l3.31.564c.617.106 1.125.531 1.358 1.116l.067.2c.117.455.262.906.432 1.35.272.71.61 1.403 1.016 2.08.353.603.32 1.364-.087 1.942l-1.92 2.689 2.09 2.09 2.729-1.938.121-.08.02-.034.101-.033.147-.068c.07-.027.14-.05.211-.067l.18-.036.248-.07c.257-.07.31-.055.371.004l.026.025c.081.03.145.058.245.112l.804.443c.364.188.735.36 1.11.513.564.231 1.137.422 1.712.57.683.174 1.195.735 1.313 1.432l.546 3.275h2.949l.553-3.262c.098-.632.528-1.157 1.107-1.379l.198-.062c.641-.166 1.264-.377 1.865-.631.546-.23 1.072-.497 1.583-.8.274-.162.59-.247.908-.247.37 0 .73.113 1.025.326l2.712 1.93 2.091-2.093-1.933-2.72c-.359-.511-.421-1.162-.178-1.73l.105-.21c.31-.52.585-1.067.822-1.634.242-.581.444-1.183.602-1.795.174-.683.735-1.195 1.43-1.312l3.285-.548v-2.95l-3.262-.55c-.632-.098-1.157-.528-1.379-1.107l-.062-.198c-.162-.626-.367-1.235-.613-1.822-.235-.561-.508-1.103-.82-1.628-.353-.6-.325-1.367.08-1.93l1.932-2.712-2.092-2.092-2.699 1.942c-.239.168-.516.274-.805.31l-.218.014c-.32 0-.632-.087-.909-.249-.637-.376-1.306-.698-1.998-.963-.497-.19-1.006-.351-1.52-.481-.69-.172-1.205-.739-1.323-1.437l-.546-3.254zM25 16.236c4.838 0 8.76 3.922 8.76 8.76 0 4.838-3.922 8.76-8.76 8.76-4.838 0-8.76-3.922-8.76-8.76 0-4.838 3.922-8.76 8.76-8.76zm0 2.53c-3.44 0-6.23 2.789-6.23 6.23 0 3.44 2.79 6.23 6.23 6.23 3.44 0 6.23-2.79 6.23-6.23 0-3.441-2.79-6.23-6.23-6.23z"/>
                </g>
            </g>
        </g>
    </g>
</svg>
