<svg id="Layer_1" data-name="Layer 1" xmlns="http://www.w3.org/2000/svg" xmlns:xlink="http://www.w3.org/1999/xlink" viewBox="0 0 300 260"><defs><style>.cls-1{fill:#a6c7e5;}.cls-2{fill:#08141c;}.cls-3{fill:#4d8fcc;}.cls-4{fill:url(#linear-gradient);}</style><linearGradient id="linear-gradient" x1="150" y1="183.31" x2="150" y2="235.47" gradientUnits="userSpaceOnUse"><stop offset="0" stop-color="#4d8fcc"/><stop offset="0.11" stop-color="#5091cd" stop-opacity="0.97"/><stop offset="0.25" stop-color="#5795cf" stop-opacity="0.89"/><stop offset="0.41" stop-color="#639dd2" stop-opacity="0.75"/><stop offset="0.59" stop-color="#74a7d7" stop-opacity="0.57"/><stop offset="0.78" stop-color="#89b5dd" stop-opacity="0.33"/><stop offset="0.98" stop-color="#a3c5e4" stop-opacity="0.04"/><stop offset="1" stop-color="#a6c7e5" stop-opacity="0"/></linearGradient></defs><title>get_started_icon copy</title><path class="cls-1" d="M289.81,1.87H10.19c-4.82,0-8.74,4.38-8.74,9.78V193.07c0,5.4,3.92,9.78,8.74,9.78H128.41v45.61H106a4.87,4.87,0,0,0,0,9.67h89.82a4.87,4.87,0,0,0,0-9.67H171.59V202.85H289.81c4.82,0,8.74-4.38,8.74-9.78V11.65C298.55,6.25,294.63,1.87,289.81,1.87Z"/><rect class="cls-2" x="10.95" y="12.5" width="276.37" height="169.5" rx="6.48"/><path class="cls-3" d="M130.81,136.37a6.53,6.53,0,0,1-4-11.66l32.07-25.33-32.2-26.79a6.53,6.53,0,1,1,8.35-10l38.39,31.94a6.52,6.52,0,0,1-.13,10.15L134.85,135A6.48,6.48,0,0,1,130.81,136.37Z"/><rect class="cls-4" x="128.41" y="202.85" width="43.18" height="34.78"/></svg>