<svg xmlns="http://www.w3.org/2000/svg" width="77" height="92" viewBox="0 0 77 92">
    <g fill="none" fill-rule="evenodd">
        <path fill="#FFF" d="M59.935 71.52c-.029-.067-.058-.355-.088-.42-2.385-5.185-7.203-8.49-13.228-9.99l-16.766-.03c-6.245 1.523-11.21 4.975-13.54 10.44"/>
        <path stroke="#6D6E71" stroke-linecap="round" stroke-linejoin="round" stroke-width="2" d="M59.935 71.52c-.029-.067-.058-.355-.088-.42-2.385-5.185-7.203-8.49-13.228-9.99l-16.766-.03c-6.245 1.523-11.21 4.975-13.54 10.44"/>
        <path fill="#FFF" d="M45.558 54.52v5.947-.001c.03 4.221-3.46 7.001-7.799 7.03-4.337.03-7.879-2.7-7.91-6.922V54.52"/>
        <path stroke="#6D6E71" stroke-linecap="round" stroke-linejoin="round" stroke-width="2" d="M45.558 54.52v5.947-.001c.03 4.221-3.46 7.001-7.799 7.03-4.337.03-7.879-2.7-7.91-6.922V54.52"/>
        <path fill="#FFF" d="M3.986 84.025v-7.864c0-2.262 1.853-4.093 4.14-4.093H68.84c2.286 0 4.14 1.831 4.14 4.093v7.864"/>
        <path stroke="#6D6E71" stroke-linecap="round" stroke-linejoin="round" stroke-width="2" d="M3.986 84.025v-7.864c0-2.262 1.853-4.093 4.14-4.093H68.84c2.286 0 4.14 1.831 4.14 4.093v7.864"/>
        <path stroke="#5B8FC7" d="M14 33C14 19.193 24.969 8 38.5 8S63 19.193 63 33"/>
        <path fill="#5B8FC7" d="M16.257 27C11.144 27 7 30.806 7 35.5s4.144 8.5 9.257 8.5H19l-2.777-8.5 1.03-8.5h-.996zM60.743 27C65.856 27 70 30.806 70 35.5S65.856 44 60.743 44H58l2.777-8.5-1.03-8.5h.996z"/>
        <path fill="#FFF" d="M61 34c0 12.15-10.074 22-22.5 22S16 46.15 16 34c0-12.151 10.074-22 22.5-22S61 21.849 61 34"/>
        <path stroke="#6D6E71" stroke-linecap="round" stroke-linejoin="round" stroke-width="1.5" d="M61 34c0 12.15-10.074 22-22.5 22S16 46.15 16 34c0-12.151 10.074-22 22.5-22S61 21.849 61 34z"/>
        <path stroke="#6D6E71" stroke-linecap="round" stroke-linejoin="round" stroke-width="1.5" d="M31 43a7.39 7.39 0 0 0 7.001 5A7.389 7.389 0 0 0 45 43M48.3 39h-3.6c-2.044 0-3.7-1.6-3.7-3.573v-2.854C41 30.6 42.656 29 44.7 29h3.6c2.043 0 3.7 1.6 3.7 3.573v2.854C52 37.4 50.343 39 48.3 39zM33.3 39h-3.6c-2.044 0-3.7-1.6-3.7-3.573v-2.854C26 30.6 27.656 29 29.7 29h3.6c2.043 0 3.7 1.6 3.7 3.573v2.854C37 37.4 35.343 39 33.3 39z"/>
        <path stroke="#6D6E71" stroke-linecap="round" stroke-linejoin="round" d="M37.5 33H40"/>
        <path stroke="#6D6E71" stroke-linecap="round" stroke-linejoin="round" stroke-width="2" d="M16 33c4.38-2.36 7.85-6.074 9.783-10.544a23.51 23.51 0 0 0 8.54 1.595c6.265 0 11.933-1.128 16.025-5.051C52.114 25.354 55.422 29.498 61 32.7"/>
    </g>
</svg>
