<svg id="Layer_1" data-name="Layer 1" xmlns="http://www.w3.org/2000/svg" viewBox="0 0 150 150">
  <defs>
    <style>
      .cls-1, .cls-2 {
        fill: #fff;
        stroke: #344660;
        stroke-linecap: round;
        stroke-linejoin: round;
      }

      .cls-1 {
        stroke-width: 3px;
      }

      .cls-2 {
        stroke-width: 4px;
      }

      .cls-3 {
        fill: #40b2eb;
        stroke: #40b2eb;
        stroke-miterlimit: 10;
        stroke-width: 2px;
      }
    </style>
  </defs>
  <title>FAQs</title>
  <path class="cls-1" d="M83.6,46.77v-21A12.52,12.52,0,0,0,71.12,13.23h0l-54.45-.14A12.52,12.52,0,0,0,4.12,25.57V51.92A12.52,12.52,0,0,0,16.6,64.48h7.51l25,16L42,64.6l.14,7.93L76.87,64.6"/>
  <path class="cls-1" d="M78.45,100.82a12.68,12.68,0,0,0,6.84,2h22.33l22.61,19.26L130,102.8h2.69a13.71,13.71,0,0,0,13.41-13.87V56.16A13.43,13.43,0,0,0,132.6,42.81h-.06L88,42.95A13.43,13.43,0,0,0,74.77,54.7V70.35"/>
  <path class="cls-2" d="M53.09,126.24a47.76,47.76,0,0,0,4.79.24c21.79,0,39.63-14.68,39.63-32.81S79.8,60.86,57.89,60.86,18.26,75.54,18.26,93.67c0,10.36,5.79,19.59,14.82,25.6a18,18,0,0,0,4,1.62c-.89.89-15.65,17-15.65,17l31.7-11.65"/>
  <path class="cls-3" d="M63,104.74l-1-3.21h-.16a9.47,9.47,0,0,1-3.37,2.87,10.64,10.64,0,0,1-4.34.75,7.35,7.35,0,0,1-5.31-1.84,6.88,6.88,0,0,1-2-5.21,6.1,6.1,0,0,1,2.65-5.39,15.3,15.3,0,0,1,8.08-2l4-.12V89.39a4.68,4.68,0,0,0-1-3.31A4.22,4.22,0,0,0,57.31,85a11.1,11.1,0,0,0-3.41.52,25.76,25.76,0,0,0-3.13,1.23l-1.59-3.51a17.12,17.12,0,0,1,4.12-1.49,19,19,0,0,1,4.22-.52,9.91,9.91,0,0,1,6.66,2,7.53,7.53,0,0,1,2.24,5.94v15.57Zm-7.31-3.35A6.08,6.08,0,0,0,60,99.91a5.41,5.41,0,0,0,1.62-4.18v-2l-3,.12A10.16,10.16,0,0,0,53.59,95,3.53,3.53,0,0,0,52,98.21a3.09,3.09,0,0,0,1.09,2.34,4,4,0,0,0,2.67.85Z"/>
  <path class="cls-3" d="M109.74,81.66a7.93,7.93,0,0,1-6.7-3.19,14.09,14.09,0,0,1-2.4-8.74,14.11,14.11,0,0,1,2.46-8.84,8.12,8.12,0,0,1,6.8-3.19,9.11,9.11,0,0,1,4,.81,8.18,8.18,0,0,1,3.09,2.64h.16l.53-3h4.08v33.4h-5V79.74a6.35,6.35,0,0,1,.14-1.57h-.28A7.57,7.57,0,0,1,109.74,81.66Zm1.41-4a5.21,5.21,0,0,0,4.44-1.78,8.94,8.94,0,0,0,1.35-5.37v-.77a10.56,10.56,0,0,0-1.39-6.16,5.21,5.21,0,0,0-4.48-1.88,4.52,4.52,0,0,0-4,2.08,10.88,10.88,0,0,0-1.39,5.94q0,8,5.43,8Z"/>
  <path class="cls-3" d="M49.59,37.7H44.06v19H39.22v-19H35.52V35.46L39.22,34V32.51a8.22,8.22,0,0,1,1.88-5.94,7.69,7.69,0,0,1,5.75-2,15.34,15.34,0,0,1,5,.83l-1.27,3.65a11.1,11.1,0,0,0-3.43-.52,2.75,2.75,0,0,0-2.38,1,5.09,5.09,0,0,0-.75,3v1.47h5.53Z"/>
</svg>
