<svg xmlns="http://www.w3.org/2000/svg" width="90" height="92" viewBox="0 0 90 92">
    <g fill="none" fill-rule="evenodd" stroke="#6D6E71" stroke-width="2">
        <path d="M2 66.445h7.558M80.466 66.445h7.558M6.135 73.113H4.92C3.315 73.113 2 71.786 2 70.164V56.776c0-2.33 3.048-5.447 4.113-5.447 1.174 0 4.112 3.116 4.112 5.447v12.21c0 2.27-1.841 4.127-4.09 4.127zM84.601 73.113h-.045c-2.249 0-4.09-1.857-4.09-4.128V56.776c0-2.33 3.048-5.447 4.113-5.447 1.174 0 4.112 3.116 4.112 5.447v12.21c0 2.27-1.84 4.127-4.09 4.127zM6.001 77.336v6.224M84.023 77.336v6.224M11.114 57.775c6.784 0 14.78-7.476 16.004-22.006M10.225 69.779s9.552-4.445 18.894-4.445M80.244 58.442c-6.827 0-15.629-9.264-16.227-23.118M80.466 69.779s-9.552-4.445-18.894-4.445"/>
        <path d="M28.605 64.508S18.32 19.335 45.219 7.095c28.083 12.24 17.146 56.892 17.146 56.892 0 5.816-32.22 6.462-33.76.52z"/>
        <path d="M53.792 32.324a8.114 8.114 0 1 1-16.228-.002 8.114 8.114 0 0 1 16.228.002zM46.234 73.78v15.56M52.459 73.78v9.78M40.455 73.78v9.78M35.343 61.11H55.57"/>
    </g>
</svg>
