<svg xmlns="http://www.w3.org/2000/svg" width="84" height="92" viewBox="0 0 84 92">
    <g fill="none" fill-rule="evenodd" stroke="#6D6E71" stroke-linejoin="round">
        <path stroke-width="2" d="M7 61l23.478 11.053L43 64.158v-1.58L19.522 51.527 7 59.421zM79 61L55.522 72.053 43 64.158v-1.58l23.478-11.052L79 59.421zM7 42.053L30.478 31 43 38.895v1.579L19.522 51.526 7 43.632zM79 42.053L55.522 31 43 38.895v1.579l23.478 11.052L79 43.632zM43 64.158V91"/>
        <path stroke-width="2" d="M66.478 67.316v12.631L43 91 19.522 79.947V67.316"/>
        <path stroke-width="1.5" d="M63.348 1.162l2.712 5.545 6.066.89-4.39 4.316 1.037 6.093-5.425-2.877-5.425 2.877 1.036-6.093-4.389-4.317 6.065-.889zM43 12l2.163 4.279 4.837.686-3.5 3.33.826 4.705L43 22.779 38.674 25l.826-4.704-3.5-3.331 4.837-.686z"/>
    </g>
</svg>
