<svg xmlns="http://www.w3.org/2000/svg" width="76" height="93" viewBox="0 0 76 93">
    <g fill="none" fill-rule="evenodd" stroke-linejoin="round">
        <path stroke="#6D6E71" stroke-width="2" d="M1 61.579l24.13 11.175L38 64.772v-1.597L13.87 52 1 59.982zM75 61.579L50.87 72.754 38 64.772v-1.597L62.13 52 75 59.982zM1 42.175L25.13 31 38 38.982v1.597L13.87 51.754 1 43.772zM75 42.175L50.87 31 38 38.982v1.597l24.13 11.175L75 43.772zM38 65v27.14"/>
        <path stroke="#6D6E71" stroke-width="2" d="M62.26 68v12.772L38.13 91.947 14 80.772V68"/>
        <path stroke="#5B8FC7" stroke-width="1.5" d="M59.022 1l2.787 5.607 6.234.899-4.51 4.365 1.064 6.16-5.575-2.908-5.576 2.908 1.065-6.16L50 7.506l6.234-.9zM38 12l2.163 4.279 4.837.686-3.5 3.33.826 4.705L38 22.779 33.674 25l.826-4.704-3.5-3.331 4.837-.686z"/>
    </g>
</svg>
