<svg xmlns="http://www.w3.org/2000/svg" xmlns:xlink="http://www.w3.org/1999/xlink" width="77" height="92" viewBox="0 0 77 92">
    <defs>
        <path id="a" d="M0 .067h61.68V55H0z"/>
    </defs>
    <g fill="none" fill-rule="evenodd">
        <path fill="#5B8FC7" d="M9.71 30.326a1.928 1.928 0 1 0 0 3.855 1.928 1.928 0 0 0 0-3.855M16.456 30.326a1.928 1.928 0 1 0 0 3.855 1.928 1.928 0 0 0 0-3.855M23.202 30.326a1.928 1.928 0 1 0 0 3.855 1.928 1.928 0 0 0 0-3.855"/>
        <g transform="translate(2 25.44)">
            <mask id="b" fill="#fff">
                <use xlink:href="#a"/>
            </mask>
            <path fill="#6D6E71" d="M1.928 11.632V4.886a2.896 2.896 0 0 1 2.89-2.891h52.044a2.896 2.896 0 0 1 2.89 2.891v6.746H1.929zm57.825 38.55a2.895 2.895 0 0 1-2.891 2.89H4.819a2.895 2.895 0 0 1-2.891-2.89V13.56h57.825v36.622zM56.862.067H4.819a4.825 4.825 0 0 0-4.82 4.819v45.296A4.825 4.825 0 0 0 4.82 55h52.043a4.825 4.825 0 0 0 4.818-4.818V4.886A4.826 4.826 0 0 0 56.862.067z" mask="url(#b)"/>
        </g>
        <path fill="#5B8FC7" d="M16.085 23.307c-.776 0-1.442.463-1.748 1.125h3.496a1.926 1.926 0 0 0-1.748-1.125M22.831 23.307c-.776 0-1.442.463-1.748 1.125h3.496a1.926 1.926 0 0 0-1.748-1.125M29.577 23.307c-.776 0-1.442.463-1.748 1.125h3.496a1.926 1.926 0 0 0-1.748-1.125"/>
        <path fill="#6D6E71" d="M65.237 18.49H13.194a4.824 4.824 0 0 0-4.818 4.817v1.125h1.927v-1.125a2.896 2.896 0 0 1 2.89-2.89h52.044a2.897 2.897 0 0 1 2.892 2.89v6.747h-3.27v1.927h3.27v36.622a2.896 2.896 0 0 1-2.893 2.891h-.377v1.928h.378a4.826 4.826 0 0 0 4.818-4.819V23.307a4.825 4.825 0 0 0-4.818-4.818"/>
        <path fill="#5B8FC7" d="M21.91 15.819c-.777 0-1.443.462-1.748 1.125h3.495a1.925 1.925 0 0 0-1.748-1.125M28.656 15.819c-.777 0-1.443.462-1.748 1.125h3.495a1.924 1.924 0 0 0-1.747-1.125M35.403 15.819c-.777 0-1.444.462-1.748 1.125h3.495a1.924 1.924 0 0 0-1.747-1.125"/>
        <path fill="#6D6E71" d="M71.062 11H19.019a4.825 4.825 0 0 0-4.818 4.819v1.124h1.926v-1.124a2.896 2.896 0 0 1 2.892-2.891h52.043a2.896 2.896 0 0 1 2.89 2.89v6.747h-3.268v1.927h3.269v36.623a2.895 2.895 0 0 1-2.891 2.89h-.378v1.928h.378a4.825 4.825 0 0 0 4.818-4.818V15.819a4.826 4.826 0 0 0-4.818-4.82"/>
    </g>
</svg>
