<svg id="Layer_1" data-name="Layer 1" xmlns="http://www.w3.org/2000/svg" viewBox="0 0 150 150">
  <defs>
    <style>
      .cls-1 {
        fill: #fff;
      }

      .cls-2, .cls-3 {
        fill: none;
      }

      .cls-2 {
        stroke: #364660;
        stroke-linecap: round;
        stroke-linejoin: round;
        stroke-width: 4px;
      }

      .cls-3 {
        stroke: #7890a7;
        stroke-miterlimit: 10;
        stroke-width: 3px;
      }
    </style>
  </defs>
  <title>PDFs</title>
  <path class="cls-1" d="M127.93,12.56H36.85a.42.42,0,0,0-.42.42V27.11l-2-2.56H22.7a.36.36,0,0,0-.36.36h0V138.08a.36.36,0,0,0,.36.36H114a.36.36,0,0,0,.36-.36h0V126.45h13.57a.42.42,0,0,0,.42-.42V13A.42.42,0,0,0,127.93,12.56Z"/>
  <rect class="cls-2" x="36.43" y="12.56" width="91.91" height="113.89" rx="0.42" ry="0.42"/>
  <path class="cls-2" d="M114.36,126.45v11.63a.36.36,0,0,1-.36.36H22.8a.36.36,0,0,1-.36-.36h0V24.91a.36.36,0,0,1,.26-.36H34.33"/>
  <line class="cls-3" x1="58.41" y1="34.54" x2="88.38" y2="34.54"/>
  <line class="cls-3" x1="58.41" y1="45.86" x2="106.37" y2="45.86"/>
  <line class="cls-3" x1="58.41" y1="57.17" x2="106.37" y2="57.19"/>
  <line class="cls-3" x1="58.41" y1="68.51" x2="106.37" y2="68.51"/>
  <line class="cls-3" x1="58.41" y1="79.83" x2="106.37" y2="79.83"/>
  <line class="cls-3" x1="58.41" y1="91.14" x2="106.37" y2="91.16"/>
  <line class="cls-3" x1="58.41" y1="102.47" x2="106.37" y2="102.47"/>
</svg>
