<svg xmlns="http://www.w3.org/2000/svg" width="50" height="50" viewBox="0 0 50 50">
    <defs>
        <filter id="ir39mwf92a">
            <feColorMatrix in="SourceGraphic" values="0 0 0 0 0.058824 0 0 0 0 0.133333 0 0 0 0 0.200000 0 0 0 1.000000 0"/>
        </filter>
    </defs>
    <g fill="none" fill-rule="evenodd">
        <g>
            <g>
                <g filter="url(#ir39mwf92a)" transform="translate(-1297 -738) translate(358.5 738) translate(938.5)">
                    <g fill="#000" fill-rule="nonzero" transform="translate(2.344 7.133)">
                        <path d="M35.91 1.003c1.49 0 2.711 1.148 2.83 2.607l.009.233v3.086h-2.344V3.843c0-.235-.163-.431-.382-.483l-.113-.013H4.088c-.234 0-.43.163-.482.382l-.013.114v20.102c0 .235.163.431.382.483l.113.013h3.724v2.344H4.088c-1.49 0-2.711-1.148-2.83-2.607l-.01-.233V3.843c0-1.49 1.148-2.712 2.607-2.83l.233-.01H35.91z"/>
                        <circle cx="14.686" cy="16.113" r="1.793"/>
                        <circle cx="14.686" cy="24.387" r="1.793"/>
                        <path d="M36.17 14.74c.647 0 1.172.524 1.172 1.171 0 .594-.441 1.084-1.013 1.161l-.16.011H21.516c-.647 0-1.172-.524-1.172-1.172 0-.593.441-1.083 1.013-1.16l.159-.012H36.17zM36.17 23.062c.647 0 1.172.525 1.172 1.172 0 .593-.441 1.083-1.013 1.161l-.16.01H21.516c-.647 0-1.172-.524-1.172-1.171 0-.593.441-1.084 1.013-1.161l.159-.011H36.17z"/>
                        <path d="M41.301 6.64H9.481c-1.57 0-2.84 1.343-2.84 2.998v21.224c0 1.655 1.27 2.998 2.84 2.998H41.3c1.568 0 2.84-1.343 2.84-2.998V9.638c0-1.655-1.272-2.997-2.84-2.997zM9.481 9.116H41.3c.274 0 .496.234.496.523v21.224c0 .289-.222.523-.496.523H9.481c-.275 0-.497-.234-.497-.523V9.638c0-.289.222-.523.496-.523z"/>
                    </g>
                </g>
            </g>
        </g>
    </g>
</svg>
