<svg id="Layer_1" data-name="Layer 1" xmlns="http://www.w3.org/2000/svg" viewBox="0 0 150 150">
  <defs>
    <style>
      .cls-1, .cls-2, .cls-3, .cls-8 {
        fill: #fff;
      }

      .cls-1, .cls-2, .cls-4, .cls-7, .cls-8, .cls-9 {
        stroke: #364660;
      }

      .cls-1, .cls-4, .cls-7, .cls-8, .cls-9 {
        stroke-linecap: round;
      }

      .cls-1, .cls-2, .cls-4, .cls-7, .cls-8 {
        stroke-linejoin: round;
      }

      .cls-1, .cls-2 {
        stroke-width: 4px;
      }

      .cls-4, .cls-5, .cls-7, .cls-9 {
        fill: none;
      }

      .cls-4, .cls-8, .cls-9 {
        stroke-width: 3px;
      }

      .cls-5 {
        stroke: #bfa1ce;
      }

      .cls-5, .cls-9 {
        stroke-miterlimit: 10;
      }

      .cls-6 {
        fill: #bfa1ce;
      }

      .cls-7 {
        stroke-width: 1.5px;
      }

      .cls-10 {
        fill: #364660;
      }
    </style>
  </defs>
  <title>tutorials</title>
  <path class="cls-1" d="M44.28,25.8a3.58,3.58,0,1,1,0-7.17h99.1a3.58,3.58,0,0,1,0,7.17"/>
  <polyline class="cls-2" points="45.19 24.92 45.19 115 142.49 115 142.49 24.92"/>
  <path class="cls-3" d="M3,136.55V97.78A13.63,13.63,0,0,1,16.6,84.15h0l7.51,13.63,7.51-13.63c7.53,0,12.75,8.35,13.63,13.63v3.7H57.42a3.7,3.7,0,0,1,0,7.37l-19.36-.48v28.18Z"/>
  <g>
    <line class="cls-4" x1="72.99" y1="135.59" x2="88.54" y2="115.88"/>
    <line class="cls-4" x1="114.66" y1="135.59" x2="99.29" y2="115.88"/>
  </g>
  <g>
    <circle class="cls-5" cx="106.3" cy="66.45" r="18.5"/>
    <path class="cls-6" d="M93.23,53.38a15.54,15.54,0,0,1,1.22-1.1A18.48,18.48,0,1,0,93.73,80l-.5-.44a18.5,18.5,0,0,1,0-26.16Z"/>
  </g>
  <line class="cls-7" x1="143.39" y1="25.36" x2="44.28" y2="25.36"/>
  <circle class="cls-8" cx="23.87" cy="67.25" r="11.77"/>
  <path class="cls-9" d="M39,108.09H57.5a3.7,3.7,0,0,0,0-7.37H45.33V97A13.63,13.63,0,0,0,31.69,83.33h0L24.19,97,16.68,83.33A13.63,13.63,0,0,0,3,96.88s0,.05,0,.08v38.77"/>
  <path class="cls-4" d="M38.28,101.12v34.61H10.7V101.88"/>
  <line class="cls-9" x1="58.02" y1="100.52" x2="98.05" y2="66.49"/>
  <path class="cls-10" d="M91,19.09V13.33a2.88,2.88,0,0,1,2.78-2.88h0a2.88,2.88,0,0,1,2.88,2.88v5.74"/>
</svg>
