<svg xmlns="http://www.w3.org/2000/svg" width="33" height="32" viewBox="0 0 33 32">
    <g fill="none" fill-rule="evenodd">
        <g fill="#000" fill-rule="nonzero">
            <g>
                <path d="M23.5 27.5c.414 0 .75.336.75.75 0 .38-.282.693-.648.743L23.5 29h-16c-.414 0-.75-.336-.75-.75 0-.38.282-.693.648-.743L7.5 27.5h16zM27 3c1.519 0 2.75 1.231 2.75 2.75v17c0 1.519-1.231 2.75-2.75 2.75H5c-1.519 0-2.75-1.231-2.75-2.75v-17C2.25 4.231 3.481 3 5 3zm0 1.5H5c-.69 0-1.25.56-1.25 1.25v17c0 .69.56 1.25 1.25 1.25h22c.69 0 1.25-.56 1.25-1.25v-17c0-.69-.56-1.25-1.25-1.25zM11.752 8.814c0-.59.65-.95 1.15-.635l8.635 5.436c.467.294.467.976 0 1.27L12.9 20.32c-.5.314-1.15-.045-1.15-.635zm1.5 1.358v8.155l6.478-4.078-6.477-4.077z" transform="translate(-241 -852) translate(241.5 852)"/>
            </g>
        </g>
    </g>
</svg>
