<svg xmlns="http://www.w3.org/2000/svg" xmlns:xlink="http://www.w3.org/1999/xlink" viewBox="0 0 300 260"><defs><style>.cls-1{isolation:isolate;}.cls-2{fill:url(#radial-gradient);}.cls-3{fill:url(#linear-gradient);}.cls-4{fill:url(#radial-gradient-2);}.cls-5{fill:#08141c;opacity:0.5;}.cls-6{fill:#a6c7e5;opacity:0.84;mix-blend-mode:multiply;}</style><radialGradient id="radial-gradient" cx="78.73" cy="212.88" r="154.79" gradientUnits="userSpaceOnUse"><stop offset="0" stop-color="#1a3442"/><stop offset="1" stop-color="#08141c"/></radialGradient><linearGradient id="linear-gradient" x1="198.31" y1="131.84" x2="466.75" y2="133.75" gradientUnits="userSpaceOnUse"><stop offset="0" stop-color="#4d8fcc"/><stop offset="1" stop-color="#28638e"/></linearGradient><radialGradient id="radial-gradient-2" cx="77.91" cy="48.92" r="407.2" gradientTransform="translate(-11.79 30.93) rotate(-20.27) scale(1 0.98)" gradientUnits="userSpaceOnUse"><stop offset="0" stop-color="#a6c7e5"/><stop offset="1" stop-color="#4d8fcc"/></radialGradient></defs><title>community_icon-resized</title><g class="cls-1"><g id="Layer_1" data-name="Layer 1"><path class="cls-2" d="M172.3,147.38H83.88a25.44,25.44,0,0,0-25.44,25.44v43.57a25.43,25.43,0,0,0,25.44,25.43H119.8l8.44,16.89,8.66-16.89h35.4a25.43,25.43,0,0,0,25.43-25.43V172.82A25.44,25.44,0,0,0,172.3,147.38Z"/><path class="cls-3" d="M284.59,52.26H135.33A13.7,13.7,0,0,0,121.63,66V169a13.7,13.7,0,0,0,13.7,13.7h108.8l34.46,29.9L270,182.71h14.62a13.7,13.7,0,0,0,13.7-13.7V66A13.7,13.7,0,0,0,284.59,52.26Z"/><path class="cls-4" d="M91.06,1.29C41.71,1.29,1.71,30.94,1.71,67.53c0,23.31,16.25,43.8,40.8,55.61-7.29,10.54-18.66,15.24-18.66,15.24,16.33,3.21,28.1-2.86,35.36-8.95a117.1,117.1,0,0,0,31.85,4.34c49.34,0,89.35-29.66,89.35-66.24S140.4,1.29,91.06,1.29Z"/><path class="cls-5" d="M172.3,147.38H121.63V169a13.7,13.7,0,0,0,13.7,13.7h62.4v-9.89A25.44,25.44,0,0,0,172.3,147.38Z"/><path class="cls-6" d="M121.63,66v63.82c34.29-9.25,58.78-33.63,58.78-62.25A50.16,50.16,0,0,0,178,52.26H135.33A13.7,13.7,0,0,0,121.63,66Z"/></g></g></svg>