<svg id="Layer_1" data-name="Layer 1" xmlns="http://www.w3.org/2000/svg" viewBox="0 0 150 150">
  <defs>
    <style>
      .cls-1 {
        fill: #fff;
      }

      .cls-2, .cls-3, .cls-4 {
        fill: none;
      }

      .cls-2, .cls-3 {
        stroke: #384660;
        stroke-linecap: round;
        stroke-linejoin: round;
      }

      .cls-2 {
        stroke-width: 4px;
      }

      .cls-3, .cls-4 {
        stroke-width: 2px;
      }

      .cls-4 {
        stroke: #80729a;
        stroke-miterlimit: 10;
      }
    </style>
  </defs>
  <title>Artboard 1</title>
  <path class="cls-1" d="M129,133.09l9.41.4V13.5l-11.42.4v5.31a96.57,96.57,0,0,1-26.38,23.42C85.73,51.16,66.6,51.94,66.6,51.94H18.86v6.29h-8V87.32h8.61v5.41h9.15v11l2.86-.94,12.74,32.83,20-6L52.12,97.13l11-4.81s30.59-.66,44.47,13.3c4.19,4.19,18.75,17.35,18.75,17.35Z"/>
  <path class="cls-2" d="M128,13.4h11a.44.44,0,0,1,.4.4V133a.44.44,0,0,1-.4.4H128a.44.44,0,0,1-.4-.4V13.8A.44.44,0,0,1,128,13.4Z"/>
  <path class="cls-2" d="M19.47,87.52H9.85a.44.44,0,0,1-.4-.4v-29a.44.44,0,0,1,.4-.4h9.61"/>
  <path class="cls-2" d="M29.48,93.53H19.87a.44.44,0,0,1-.4-.4V52.06a.44.44,0,0,1,.4-.4H63.53s26,.4,40.26-9.82a164,164,0,0,0,24-21.43"/>
  <path class="cls-2" d="M29.48,104.54V90.92a.44.44,0,0,1,.4-.4h31a.44.44,0,0,1,.4.4v2.6a.44.44,0,0,1-.4.4h0L29.68,104.74C29.68,104.94,29.48,104.74,29.48,104.54Z"/>
  <path class="cls-2" d="M63.13,92.33s25.64-.4,39.66,9.61a157.12,157.12,0,0,1,23.64,21"/>
  <path class="cls-2" d="M52.12,97.13a.74.74,0,0,1,.6.2l11.42,31.25a.74.74,0,0,1-.2.6h0L45.51,136a.74.74,0,0,1-.6-.2L33.49,104.34a.74.74,0,0,1,.2-.6h0"/>
  <line class="cls-3" x1="80.56" y1="59.48" x2="80.56" y2="87.52"/>
  <line class="cls-3" x1="74.15" y1="65.68" x2="74.15" y2="83.51"/>
  <line class="cls-4" x1="35.49" y1="63.48" x2="27.48" y2="63.48"/>
  <line class="cls-4" x1="35.49" y1="69.49" x2="27.48" y2="69.49"/>
  <line class="cls-4" x1="35.49" y1="75.5" x2="27.48" y2="75.5"/>
  <line class="cls-4" x1="35.49" y1="81.51" x2="27.48" y2="81.51"/>
</svg>
