<svg width="17" height="17" viewBox="0 0 17 17" fill="none" xmlns="http://www.w3.org/2000/svg">
<path fill-rule="evenodd" clip-rule="evenodd" d="M11.833 7.16683C11.833 7.44297 11.6092 7.66683 11.333 7.66683H5.66636C5.39022 7.66683 5.16636 7.44297 5.16636 7.16683C5.16636 6.89069 5.39022 6.66683 5.66636 6.66683H11.333C11.6092 6.66683 11.833 6.89069 11.833 7.16683Z" fill="#1362CB"/>
<path fill-rule="evenodd" clip-rule="evenodd" d="M8.99969 9.8335C8.99969 10.1096 8.77583 10.3335 8.49969 10.3335H5.66636C5.39022 10.3335 5.16636 10.1096 5.16636 9.8335C5.16636 9.55735 5.39022 9.3335 5.66636 9.3335H8.49969C8.77583 9.3335 8.99969 9.55735 8.99969 9.8335Z" fill="#1362CB"/>
<path fill-rule="evenodd" clip-rule="evenodd" d="M2.56818 11.5435C1.97249 10.3825 1.72718 9.0648 1.87497 7.75352C2.06046 6.1077 2.85194 4.58986 4.09524 3.49564C5.33854 2.40142 6.94463 1.80917 8.60068 1.83426C10.2567 1.85935 11.8441 2.49998 13.0537 3.63136C14.2633 4.76274 15.0084 6.30387 15.144 7.95455C15.2795 9.60523 14.7958 11.2473 13.787 12.5608C12.7782 13.8744 11.3165 14.7654 9.68677 15.0603C8.38828 15.2953 7.05714 15.1384 5.85898 14.6215C5.70302 14.5543 5.54932 14.4809 5.39824 14.4015L2.68896 14.9888C2.51715 15.0261 2.33841 14.9703 2.2182 14.8421C2.09799 14.7138 2.05397 14.5318 2.10226 14.3628L2.79201 11.9487C2.72594 11.8446 2.65379 11.7103 2.56818 11.5435ZM9.52065 14.1422C8.11896 14.3959 6.67304 14.1187 5.46453 13.3646L3.29319 13.8346L3.84861 11.8532C3.01559 10.6977 2.64252 9.2735 2.80205 7.85801C2.96159 6.44251 3.64231 5.13708 4.71161 4.19599C5.78092 3.2549 7.16225 2.74553 8.58655 2.76711C10.0108 2.78869 11.3761 3.33967 12.4164 4.31272C13.4567 5.28577 14.0976 6.61122 14.2142 8.0309C14.3307 9.45058 13.9147 10.8628 13.0471 11.9926C12.1794 13.1223 10.9223 13.8886 9.52065 14.1422Z" fill="#1362CB"/>
</svg>
