<svg xmlns="http://www.w3.org/2000/svg" width="25" height="25" viewBox="0 0 25 25">
    <g fill="none" fill-rule="evenodd">
        <g transform="translate(-1722 -269)">
            <g>
                <g fill="#3165bd">
                    <path d="M15.89 9.162c0-.526-.24-1.03-.613-1.36.263-.35.372-.788.329-1.227-.088-.92-.921-1.665-1.885-1.665h-2.85l.176-1.36c.043-.416.043-.766-.044-1.117C10.674 1.008 9.403 0 7.934 0c-.329 0-.657.131-.898.373-.242.24-.373.548-.373.876v1.798c0 .789-.22 1.534-.636 2.213L5.26 6.488c-.11.175-.263.306-.438.394-.154-.482-.592-.833-1.118-.833h-2.52C.526 6.05 0 6.575 0 7.233v7.386c0 .658.526 1.184 1.184 1.184h2.564c.657 0 1.183-.526 1.183-1.184v-.175c.57.504 1.316.81 2.126.81h5.568c.504 0 1.008-.218 1.359-.57.35-.35.526-.81.504-1.292 0-.176-.022-.329-.088-.504.592-.307.986-.92.986-1.622 0-.241-.044-.482-.131-.702.394-.372.635-.876.635-1.402z" transform="translate(1722.5 269.25) translate(4 2)"/>
                </g>
            </g>
        </g>
    </g>
</svg>
