<svg xmlns="http://www.w3.org/2000/svg" xmlns:xlink="http://www.w3.org/1999/xlink" width="25" height="25" viewBox="0 0 25 25">
    <defs>
        <filter id="p8sc527k8a">
            <feColorMatrix in="SourceGraphic" values="0 0 0 0 0.192157 0 0 0 0 0.396078 0 0 0 0 0.741176 0 0 0 1.000000 0"/>
        </filter>
        <path id="v1yg4t9tlb" d="M0 0L15.89 0 15.89 15.803 0 15.803z"/>
    </defs>
    <g fill="none" fill-rule="evenodd">
        <g filter="url(#p8sc527k8a)" transform="translate(-1722 -269)">
            <g>
                <g transform="translate(1722.5 269.25) translate(4 2)">
                    <mask id="tyl0xxiy6c" fill="#fff">
                        <use xlink:href="#v1yg4t9tlb"/>
                    </mask>
                    <path fill="#000" d="M14.378 9.82c-.175.087-.307.24-.35.437-.044.198 0 .395.13.548.11.132.154.285.154.439 0 .35-.263.657-.613.723-.22.044-.417.176-.504.395-.088.219-.066.438.065.635.088.11.132.263.132.417 0 .175-.066.372-.197.504-.154.153-.373.24-.592.24H7.036c-1.162 0-2.126-.942-2.126-2.125V8c.547-.132 1.008-.46 1.315-.943l.767-1.227c.526-.833.81-1.797.81-2.783V1.249c0-.044.023-.087.045-.11.021-.021.065-.043.11-.043.964 0 1.774.657 1.994 1.578.043.197.066.438.022.723l-.198 1.534c-.044.263.044.526.22.746.175.197.438.328.7.328h3.026c.372 0 .745.307.789.658.021.263-.11.526-.329.68-.197.13-.307.372-.285.613.022.241.175.438.416.526.285.11.46.373.46.68.022.285-.13.526-.394.657zM3.814 14.596c0 .044-.044.088-.088.088H1.184c-.044 0-.088-.044-.088-.088V7.211c0-.044.044-.088.088-.088h2.564c.044 0 .088.044.088.088v7.386h-.022zM15.89 9.162c0-.526-.24-1.03-.613-1.36.263-.35.372-.788.329-1.227-.088-.92-.921-1.665-1.885-1.665h-2.85l.176-1.36c.043-.416.043-.766-.044-1.117C10.674 1.008 9.403 0 7.934 0c-.329 0-.657.131-.898.373-.242.24-.373.548-.373.876v1.798c0 .789-.22 1.534-.636 2.213L5.26 6.488c-.11.175-.263.306-.438.394-.154-.482-.592-.833-1.118-.833h-2.52C.526 6.05 0 6.575 0 7.233v7.386c0 .658.526 1.184 1.184 1.184h2.564c.657 0 1.183-.526 1.183-1.184v-.175c.57.504 1.316.81 2.126.81h5.568c.504 0 1.008-.218 1.359-.57.35-.35.526-.81.504-1.292 0-.176-.022-.329-.088-.504.592-.307.986-.92.986-1.622 0-.241-.044-.482-.131-.702.394-.372.635-.876.635-1.402z" mask="url(#tyl0xxiy6c)"/>
                </g>
            </g>
        </g>
    </g>
</svg>
