<?xml version="1.0" encoding="UTF-8"?><svg xmlns="http://www.w3.org/2000/svg" viewBox="0 0 16.84 17"><defs><style>.cls-1{fill:#fff;}.cls-2{fill:#fdf6b0;}.cls-3{fill:#2bace2;}.cls-4{fill:#0ea94e;}.cls-5{fill:#f15e24;}.cls-6{fill:#e21f26;}</style></defs><title>Asset 35</title><g id="Layer_2" data-name="Layer 2"><g id="Layer_1-2" data-name="Layer 1"><g id="g867"><g id="Layer_3" data-name="Layer 3"><path id="path25" class="cls-1" d="M8.49,0A8.47,8.47,0,0,0,0,8.35V17H8.49a8.5,8.5,0,0,0,0-17Z"/><path id="path27" class="cls-2" d="M8.58,3.23A5.18,5.18,0,0,0,4,10.88l-.94,3,3.36-.76a5.18,5.18,0,1,0,2.13-9.9Z"/><path id="path29" class="cls-3" d="M12.68,5.26a5.17,5.17,0,0,1-6.23,7.86l-3.36.77,3.42-.4a5.18,5.18,0,0,0,6.17-8.23Z"/><path id="path31" class="cls-4" d="M11.73,4.31a5.17,5.17,0,0,1-5.38,8.46L3.09,13.89l3.36-.76a5.17,5.17,0,0,0,5.28-8.82Z"/><path id="path33" class="cls-5" d="M4.33,11a5.18,5.18,0,0,1,8.36-5.73A5.18,5.18,0,0,0,4,10.88l-.94,3Z"/><path id="path35" class="cls-6" d="M4,10.88a5.17,5.17,0,0,1,7.7-6.57,5.17,5.17,0,0,0-8,6.49l-.62,3.09Z"/></g></g></g></g></svg>