<svg width="18" height="20" viewBox="0 0 18 20" fill="none" xmlns="http://www.w3.org/2000/svg">
<path fill-rule="evenodd" clip-rule="evenodd" d="M9.00997 1.4956C5.66111 1.4956 2.94633 4.2006 2.94633 7.53738V7.54213L2.93947 8.61634L1.43849 8.60685L1.44531 7.53495C1.44664 3.37328 4.83294 0 9.00997 0C13.1856 0 16.5711 3.37106 16.5746 7.53083L16.5892 8.38066L15.0884 8.40631L15.0735 7.53738C15.0735 4.2006 12.3588 1.4956 9.00997 1.4956Z" fill="#6C6E83"/>
<path fill-rule="evenodd" clip-rule="evenodd" d="M15.2279 11.2955L15.0744 7.7022L16.574 7.63859L16.7276 11.2319C16.7438 11.6129 16.8573 11.9835 17.0573 12.3086L17.6018 13.1941C17.8573 13.6095 17.9948 14.0862 17.9999 14.5733C18.0153 16.0697 16.8034 17.2917 15.3015 17.294L2.71837 17.3136C1.21774 17.3159 0 16.1045 0 14.6093C0 14.076 0.158241 13.5546 0.454826 13.1107L1.01302 12.2752C1.25136 11.9184 1.38217 11.5011 1.38995 11.0726L1.4386 8.39553L2.93937 8.4226L2.89072 11.0997C2.87774 11.8139 2.65974 12.5094 2.2625 13.104L1.70431 13.9394C1.57174 14.1379 1.50102 14.3709 1.50102 14.6093C1.50102 15.2776 2.0453 15.819 2.71602 15.818L15.2992 15.7984C15.9669 15.7974 16.5058 15.2541 16.4989 14.5887C16.4967 14.3721 16.4355 14.1602 16.3219 13.9755L15.7774 13.09C15.4442 12.5481 15.255 11.9305 15.2279 11.2955Z" fill="#6C6E83"/>
<path fill-rule="evenodd" clip-rule="evenodd" d="M7.45817 16.9776C7.45817 17.8208 8.1442 18.5044 8.99046 18.5044C9.83672 18.5044 10.5227 17.8208 10.5227 16.9776H12.0238C12.0238 18.6468 10.6657 20 8.99046 20C7.31521 20 5.95716 18.6468 5.95716 16.9776H7.45817Z" fill="#6C6E83"/>
</svg>
