<svg xmlns="http://www.w3.org/2000/svg" width="16" height="21" viewBox="0 0 16 21">
    <g fill="none" fill-rule="evenodd" stroke="#047AD4" stroke-linejoin="round" stroke-width="1.2">
        <path d="M14.095 6.658h-1.896V4.776a1.14 1.14 0 0 0-1.136-1.136H9.37v.54a.363.363 0 0 1-.362.361H4.045a.363.363 0 0 1-.362-.362V3.64H1.99A1.14 1.14 0 0 0 .855 4.776v11.42a1.14 1.14 0 0 0 1.136 1.136h1.896v1.882c0 .625.51 1.135 1.136 1.135h9.072a1.14 1.14 0 0 0 1.137-1.135V7.795a1.14 1.14 0 0 0-1.137-1.137z"/>
        <path stroke-linecap="round" d="M9.01 2.208h-.852l-.24-.838a.216.216 0 0 0-.216-.216h-2.35c-.118 0-.163.08-.216.216l-.308.838h-.783c-.2 0-.362.163-.362.362v1.609c0 .199.163.362.362.362H9.01a.363.363 0 0 0 .362-.362v-1.61a.363.363 0 0 0-.362-.361z"/>
        <path d="M14.232 20.35H4.887c-.55 0-1-.45-1-1V7.657c0-.55.45-1 1-1h9.345c.55 0 1 .45 1 1V19.35c0 .55-.45 1-1 1z"/>
    </g>
</svg>
