<?xml version="1.0" encoding="UTF-8"?>
<svg width="20px" height="20px" viewBox="0 0 20 20" version="1.1" xmlns="http://www.w3.org/2000/svg" xmlns:xlink="http://www.w3.org/1999/xlink">
    <!-- Generator: Sketch 62 (91390) - https://sketch.com -->
    <title>icon/20x20/Code_Branch</title>
    <desc>Created with Sketch.</desc>
    <g id="icon/20x20/Code_Branch" stroke="none" stroke-width="1" fill="white" fill-rule="evenodd">
        <path d="M7.25,2.02855756 C8.46142255,2.02855756 9.44347456,3.01060957 9.44347456,4.22203212 C9.44347456,5.17010194 8.84199091,5.97768772 7.99980591,6.28400717 L7.99928243,9.98549465 C8.44110151,9.6650468 8.98265663,9.41337963 9.62670076,9.25311759 C10.9540469,9.03189323 11.6754012,8.53287848 11.911767,7.69275584 C11.1156798,7.36311146 10.5565254,6.57960781 10.5565254,5.66550668 C10.5565254,4.45408413 11.5385775,3.47203212 12.75,3.47203212 C13.9614225,3.47203212 14.9434746,4.45408413 14.9434746,5.66550668 C14.9434746,6.63714933 14.3117084,7.4612351 13.4365447,7.7493955 C13.1530808,9.37053011 11.9194088,10.3913795 9.93190172,10.7205199 C8.66096753,11.0382535 8.064224,11.8497547 8.00492949,12.8283267 L8,12.992913 L7.99980591,13.7600327 C8.84199091,14.0663521 9.44347456,14.8739379 9.44347456,15.8220077 C9.44347456,17.0334303 8.46142255,18.0154823 7.25,18.0154823 C6.03857745,18.0154823 5.05652544,17.0334303 5.05652544,15.8220077 C5.05652544,14.8739379 5.65800909,14.0663521 6.50019409,13.7600327 L6.50019409,6.28400717 C5.65800909,5.97768772 5.05652544,5.17010194 5.05652544,4.22203212 C5.05652544,3.01060957 6.03857745,2.02855756 7.25,2.02855756 Z M7.25,15.1285332 C6.86700458,15.1285332 6.55652544,15.4390123 6.55652544,15.8220077 C6.55652544,16.2050031 6.86700458,16.5154823 7.25,16.5154823 C7.63299542,16.5154823 7.94347456,16.2050031 7.94347456,15.8220077 C7.94347456,15.4390123 7.63299542,15.1285332 7.25,15.1285332 Z M12.75,4.97203212 C12.3670046,4.97203212 12.0565254,5.28251126 12.0565254,5.66550668 C12.0565254,6.0485021 12.3670046,6.35898123 12.75,6.35898123 C13.1329954,6.35898123 13.4434746,6.0485021 13.4434746,5.66550668 C13.4434746,5.28251126 13.1329954,4.97203212 12.75,4.97203212 Z M7.25,3.52855756 C6.86700458,3.52855756 6.55652544,3.8390367 6.55652544,4.22203212 C6.55652544,4.60502754 6.86700458,4.91550668 7.25,4.91550668 C7.63299542,4.91550668 7.94347456,4.60502754 7.94347456,4.22203212 C7.94347456,3.8390367 7.63299542,3.52855756 7.25,3.52855756 Z" id="Combined-Shape" fill="white" fill-rule="nonzero"></path>
        <path d="" id="Path-9" stroke="#979797"></path>
    </g>
</svg>