<?xml version="1.0" encoding="UTF-8"?>
<svg width="20px" height="20px" viewBox="0 0 20 20" version="1.1" xmlns="http://www.w3.org/2000/svg" xmlns:xlink="http://www.w3.org/1999/xlink">
    <!-- Generator: Sketch 62 (91390) - https://sketch.com -->
    <title>icon/20x20/move_to_link</title>
    <desc>Created with Sketch.</desc>
    <g id="icon/20x20/move_to_link" stroke="none" stroke-width="1" fill="#666666" fill-rule="evenodd">
        <path d="M6.08657749,3.38221955 C6.50079106,3.38221955 6.83657749,3.71800598 6.83657749,4.13221955 C6.83657749,4.51191531 6.55442361,4.82571051 6.18834805,4.87537293 L6.08657749,4.88221955 L3.55802563,4.8816001 L3.55802563,16.4796001 L15.1710256,16.4796001 L15.1711794,13.9554818 C15.1711794,13.575786 15.4533333,13.2619908 15.8194088,13.2123284 L15.9211794,13.2054818 C16.3008751,13.2054818 16.6146703,13.4876357 16.6643328,13.8537112 L16.6711794,13.9554818 L16.6711794,17.2299026 C16.6711794,17.6095983 16.3890255,17.9233935 16.0229499,17.9730559 L15.9211794,17.9799026 L2.80837687,17.9799026 C2.4286811,17.9799026 2.11488591,17.6977487 2.06522348,17.3316731 L2.05837687,17.2299026 L2.05837687,4.13221955 C2.05837687,3.75252378 2.34053075,3.43872858 2.70660631,3.38906616 L2.80837687,3.38221955 L6.08657749,3.38221955 Z M17.2440557,2.03499971 L17.2650571,2.03570619 C17.2814954,2.03615614 17.2979224,2.03714353 17.3143095,2.03866856 L17.2440557,2.03499971 C17.2909013,2.03499971 17.3367437,2.0392946 17.3812108,2.04751209 C17.3905959,2.04966907 17.3999318,2.05157681 17.4092359,2.0536637 C17.4322493,2.05841704 17.4549852,2.06468342 17.4772621,2.07196468 C17.4887855,2.07607401 17.500469,2.08019818 17.5120653,2.08462073 C17.5332529,2.09242395 17.5536751,2.10132831 17.5736006,2.11109035 C17.5843129,2.11655268 17.5949895,2.12209013 17.6055564,2.12790176 C17.6264249,2.13920017 17.6470151,2.15187622 17.6669161,2.16548622 C17.6757422,2.17165205 17.6846411,2.17801918 17.6934291,2.18460461 C17.7520124,2.22841578 17.8037864,2.28050782 17.84721,2.33915576 L17.7708084,2.25122671 C17.8049918,2.28491338 17.8352612,2.32107177 17.8616125,2.35913579 C17.8765576,2.3808875 17.8907388,2.40392912 17.9036674,2.4277495 C17.9119652,2.44278959 17.9192775,2.45743077 17.9260819,2.47224915 C17.9331717,2.48795894 17.9401419,2.50465357 17.9465135,2.5216408 C17.9532816,2.53934912 17.9591747,2.5570911 17.9643883,2.57499028 C17.9682441,2.58871202 17.9717779,2.60228025 17.9749358,2.61599216 C17.9792096,2.63387348 17.9826614,2.65179855 17.9854563,2.66980682 L17.9872091,2.68322915 L17.9872091,2.68322915 L17.9940557,2.78499971 L17.9940557,9.14593145 C17.9940557,9.56014501 17.6582692,9.89593145 17.2440557,9.89593145 C16.8643599,9.89593145 16.5505647,9.61377757 16.5009023,9.24770201 L16.4940557,9.14593145 L16.4933769,4.61499971 L9.43832913,11.7750782 C9.14758726,12.070107 8.67272625,12.0735824 8.37769736,11.7828405 C8.10948928,11.5185297 8.08223456,11.1020544 8.29793441,10.8068564 L8.36993501,10.7222087 L15.4523769,3.53399971 L10.8831239,3.53499971 C10.5034282,3.53499971 10.189633,3.25284583 10.1399706,2.88677027 L10.1331239,2.78499971 C10.1331239,2.40530395 10.4152778,2.09150875 10.7813534,2.04184633 L10.8831239,2.03499971 L17.2440557,2.03499971 Z" id="Combined-Shape" fill="#666666" fill-rule="nonzero"></path>
    </g>
</svg>