<svg id="Layer_1" data-name="Layer 1" xmlns="http://www.w3.org/2000/svg" viewBox="0 0 154 128"><defs><style>.cls-1{fill:#fff;}</style></defs><title>enterprise-icon-briefcase</title><path d="M104.81,6a2.7,2.7,0,0,1,2.7,2.7V37.3a2.7,2.7,0,0,1-2.7,2.7H48.71A2.7,2.7,0,0,1,46,37.3V8.7A2.7,2.7,0,0,1,48.71,6h56.1m0-6H48.71A8.7,8.7,0,0,0,40,8.7V37.3a8.7,8.7,0,0,0,8.7,8.7h56.1a8.69,8.69,0,0,0,8.7-8.7V8.7a8.69,8.69,0,0,0-8.7-8.7Z"/><path class="cls-1" d="M6.09,125.61a3.75,3.75,0,0,1-3.72-3.77V29a3.75,3.75,0,0,1,3.72-3.77H147.91A3.75,3.75,0,0,1,151.63,29v92.89a3.75,3.75,0,0,1-3.72,3.77Z"/><path d="M147.91,27.58A1.36,1.36,0,0,1,149.27,29v92.89a1.36,1.36,0,0,1-1.36,1.37H6.09a1.36,1.36,0,0,1-1.36-1.37V29a1.36,1.36,0,0,1,1.36-1.37H147.91m0-4.79H6.09A6.13,6.13,0,0,0,0,29v92.89A6.13,6.13,0,0,0,6.09,128H147.91a6.13,6.13,0,0,0,6.09-6.16V29a6.13,6.13,0,0,0-6.09-6.16Z"/><path d="M49.33,42.57h54.35a1.57,1.57,0,0,1,1.57,1.57v12a1.57,1.57,0,0,1-1.57,1.57H68.94a1.57,1.57,0,0,0-1.57,1.57v6.61a1.57,1.57,0,0,0,1.57,1.58h31.17a1.57,1.57,0,0,1,1.57,1.57V80a1.57,1.57,0,0,1-1.57,1.57H68.94a1.57,1.57,0,0,0-1.57,1.57v7.08a1.57,1.57,0,0,0,1.57,1.57h35.25a1.57,1.57,0,0,1,1.57,1.57v12a1.57,1.57,0,0,1-1.57,1.57H49.33a1.57,1.57,0,0,1-1.57-1.57V44.14A1.57,1.57,0,0,1,49.33,42.57Z"/></svg>