<svg width="20" height="20" viewBox="0 0 20 20" fill="none" xmlns="http://www.w3.org/2000/svg">
<path fill-rule="evenodd" clip-rule="evenodd" d="M12.7851 4.44009L10.0187 7.20653C9.88114 7.3441 9.69455 7.42139 9.5 7.42139C9.30545 7.42139 9.11886 7.3441 8.98129 7.20653L6.21486 4.44009C5.92838 4.15362 5.92838 3.68915 6.21486 3.40268C6.50133 3.11621 6.9658 3.11621 7.25227 3.40268L8.76644 4.91685V1.15495C8.76644 0.749814 9.09486 0.421387 9.5 0.421387C9.90514 0.421387 10.2336 0.749814 10.2336 1.15495V4.91685L11.7477 3.40268C12.0342 3.11621 12.4987 3.11621 12.7851 3.40268C13.0716 3.68915 13.0716 4.15362 12.7851 4.44009Z" fill="#1362CB"/>
<path fill-rule="evenodd" clip-rule="evenodd" d="M6.21486 15.9027L8.98129 13.1362C9.11886 12.9987 9.30545 12.9214 9.5 12.9214C9.69455 12.9214 9.88114 12.9987 10.0187 13.1362L12.7851 15.9027C13.0716 16.1892 13.0716 16.6536 12.7851 16.9401C12.4987 17.2266 12.0342 17.2266 11.7477 16.9401L10.2336 15.4259L10.2336 19.1878C10.2336 19.593 9.90514 19.9214 9.5 19.9214C9.09487 19.9214 8.76644 19.593 8.76644 19.1878L8.76644 15.4259L7.25227 16.9401C6.9658 17.2266 6.50133 17.2266 6.21486 16.9401C5.92838 16.6536 5.92838 16.1892 6.21486 15.9027Z" fill="#1362CB"/>
<path fill-rule="evenodd" clip-rule="evenodd" d="M0 10.1714C0 9.75717 0.335786 9.42139 0.75 9.42139H19.25C19.6642 9.42139 20 9.75717 20 10.1714C20 10.5856 19.6642 10.9214 19.25 10.9214H0.75C0.335786 10.9214 0 10.5856 0 10.1714Z" fill="#1362CB"/>
</svg>
