<svg width="20" height="20" viewBox="0 0 20 20" fill="none" xmlns="http://www.w3.org/2000/svg">
<path fill-rule="evenodd" clip-rule="evenodd" d="M6.21486 3.40268L8.98129 0.636242C9.11886 0.498673 9.30545 0.421387 9.5 0.421387C9.69455 0.421387 9.88114 0.498673 10.0187 0.636242L12.7851 3.40268C13.0716 3.68915 13.0716 4.15362 12.7851 4.44009C12.4987 4.72657 12.0342 4.72657 11.7477 4.44009L10.2336 2.92593V6.68782C10.2336 7.09296 9.90514 7.42139 9.5 7.42139C9.09486 7.42139 8.76644 7.09296 8.76644 6.68782V2.92593L7.25227 4.44009C6.9658 4.72657 6.50133 4.72657 6.21486 4.44009C5.92838 4.15362 5.92838 3.68915 6.21486 3.40268Z" fill="#6C6E83"/>
<path fill-rule="evenodd" clip-rule="evenodd" d="M12.7851 16.9396L10.0187 19.706C9.88114 19.8436 9.69455 19.9209 9.5 19.9209C9.30545 19.9209 9.11886 19.8436 8.98129 19.706L6.21486 16.9396C5.92838 16.6531 5.92838 16.1887 6.21486 15.9022C6.50133 15.6157 6.9658 15.6157 7.25227 15.9022L8.76644 17.4164V13.6545C8.76644 13.2493 9.09486 12.9209 9.5 12.9209C9.90514 12.9209 10.2336 13.2493 10.2336 13.6545L10.2336 17.4164L11.7477 15.9022C12.0342 15.6157 12.4987 15.6157 12.7851 15.9022C13.0716 16.1887 13.0716 16.6531 12.7851 16.9396Z" fill="#6C6E83"/>
<path fill-rule="evenodd" clip-rule="evenodd" d="M0 10.1711C0 9.7569 0.335786 9.42112 0.75 9.42112H19.25C19.6642 9.42112 20 9.7569 20 10.1711C20 10.5853 19.6642 10.9211 19.25 10.9211H0.75C0.335786 10.9211 0 10.5853 0 10.1711Z" fill="#6C6E83"/>
</svg>
