<svg width="20" height="20" viewBox="0 0 20 20" fill="none" xmlns="http://www.w3.org/2000/svg">
<path fill-rule="evenodd" clip-rule="evenodd" d="M16.9668 16.9888C16.6733 17.2811 16.1984 17.2802 15.9061 16.9868L9.49649 10.5526C9.20416 10.2592 9.20506 9.78431 9.49852 9.49197C9.79197 9.19964 10.2668 9.20055 10.5592 9.494L16.9688 15.9281C17.2611 16.2216 17.2602 16.6965 16.9668 16.9888Z" fill="#6C6E83"/>
<path fill-rule="evenodd" clip-rule="evenodd" d="M9.75 9.75002V15.27C9.75 15.6842 9.41421 16.02 9 16.02C8.58579 16.02 8.25 15.6842 8.25 15.27V9.00002C8.25 8.80111 8.32902 8.61034 8.46967 8.46969C8.61032 8.32904 8.80109 8.25002 9 8.25002H15.2344C15.6486 8.25002 15.9844 8.58581 15.9844 9.00002C15.9844 9.41423 15.6486 9.75002 15.2344 9.75002H9.75Z" fill="#6C6E83"/>
<path fill-rule="evenodd" clip-rule="evenodd" d="M4.1665 1.19209e-07C4.58072 1.19209e-07 4.9165 0.335786 4.9165 0.75C4.9165 1.16421 4.58072 1.5 4.1665 1.5H2.74987C2.33565 1.5 1.99987 1.16421 1.99987 0.75C1.99987 0.335786 2.33565 0 2.74987 0L4.1665 1.19209e-07ZM9.27783 0.75C9.27783 0.335786 8.94205 1.19209e-07 8.52783 1.19209e-07L7.1112 0C6.69698 0 6.3612 0.335786 6.3612 0.75C6.3612 1.16421 6.69698 1.5 7.1112 1.5H8.52783C8.94205 1.5 9.27783 1.16421 9.27783 0.75ZM13.6387 0.75C13.6387 0.335786 13.3029 1.19209e-07 12.8887 1.19209e-07L11.472 0C11.0578 0 10.722 0.335786 10.722 0.75C10.722 1.16421 11.0578 1.5 11.472 1.5H12.8887C13.3029 1.5 13.6387 1.16421 13.6387 0.75ZM18 0.75C18 0.335786 17.6642 1.19209e-07 17.25 1.19209e-07L15.8334 0C15.4191 0 15.0834 0.335786 15.0834 0.75C15.0834 1.16421 15.4192 1.5 15.8334 1.5H17.25C17.6642 1.5 18 1.16421 18 0.75ZM12.8887 18.5C13.3029 18.5 13.6387 18.8358 13.6387 19.25C13.6387 19.6642 13.3029 20 12.8887 20H11.472C11.0578 20 10.722 19.6642 10.722 19.25C10.722 18.8358 11.0578 18.5 11.472 18.5H12.8887ZM8.52783 18.5C8.94205 18.5 9.27783 18.8358 9.27783 19.25C9.27783 19.6642 8.94205 20 8.52783 20H7.1112C6.69698 20 6.3612 19.6642 6.3612 19.25C6.3612 18.8358 6.69698 18.5 7.1112 18.5H8.52783ZM19.25 9.27783C19.6642 9.27783 20 8.94205 20 8.52783V7.1112C20 6.69698 19.6642 6.3612 19.25 6.3612C18.8358 6.3612 18.5 6.69698 18.5 7.1112V8.52783C18.5 8.94205 18.8358 9.27783 19.25 9.27783ZM4.9165 19.25C4.9165 18.8358 4.58072 18.5 4.1665 18.5H2.74987C2.33565 18.5 1.99987 18.8358 1.99987 19.25C1.99987 19.6642 2.33565 20 2.74987 20H4.1665C4.58072 20 4.9165 19.6642 4.9165 19.25ZM1.5 17.25C1.5 17.6642 1.16421 18 0.75 18C0.335786 18 0 17.6642 0 17.25L2.38419e-07 15.8334C2.38419e-07 15.4192 0.335787 15.0834 0.75 15.0834C1.16421 15.0834 1.5 15.4191 1.5 15.8334L1.5 17.25ZM0.75 13.6387C1.16421 13.6387 1.5 13.3029 1.5 12.8887L1.5 11.472C1.5 11.0578 1.16421 10.722 0.75 10.722C0.335787 10.722 2.38419e-07 11.0578 2.38419e-07 11.472L0 12.8887C0 13.3029 0.335786 13.6387 0.75 13.6387ZM20 12.8887C20 13.3029 19.6642 13.6387 19.25 13.6387C18.8358 13.6387 18.5 13.3029 18.5 12.8887V11.472C18.5 11.0578 18.8358 10.722 19.25 10.722C19.6642 10.722 20 11.0578 20 11.472V12.8887ZM0.75 9.27783C1.16421 9.27783 1.5 8.94205 1.5 8.52783L1.5 7.1112C1.5 6.69698 1.16421 6.3612 0.75 6.3612C0.335787 6.3612 2.38419e-07 6.69698 2.38419e-07 7.1112L0 8.52783C0 8.94205 0.335786 9.27783 0.75 9.27783ZM1.5 4.1665C1.5 4.58072 1.16421 4.9165 0.75 4.9165C0.335786 4.9165 0 4.58072 0 4.1665L2.38419e-07 2.74987C2.38419e-07 2.33565 0.335787 1.99987 0.75 1.99987C1.16421 1.99987 1.5 2.33565 1.5 2.74987L1.5 4.1665ZM19.25 4.9165C19.6642 4.9165 20 4.58072 20 4.1665V2.74987C20 2.33565 19.6642 1.99987 19.25 1.99987C18.8358 1.99987 18.5 2.33565 18.5 2.74987V4.1665C18.5 4.58072 18.8358 4.9165 19.25 4.9165Z" fill="#6C6E83"/>
</svg>
