<svg width="22" height="18" viewBox="0 0 22 18" fill="none" xmlns="http://www.w3.org/2000/svg">
<path fill-rule="evenodd" clip-rule="evenodd" d="M5.0083 11.9718C5.0083 11.5576 5.34409 11.2218 5.7583 11.2218H16.2505C16.6647 11.2218 17.0005 11.5576 17.0005 11.9718V17.25C17.0005 17.6642 16.6647 18 16.2505 18H5.7583C5.34409 18 5.0083 17.6642 5.0083 17.25V11.9718ZM6.5083 12.7218V16.5H15.5005V12.7218H6.5083Z" fill="#1362CB"/>
<path fill-rule="evenodd" clip-rule="evenodd" d="M0.964844 7.40811C0.964844 5.88933 2.19606 4.65811 3.71484 4.65811H18.2864C19.8052 4.65811 21.0364 5.88933 21.0364 7.40811V13.6336C21.0364 14.6001 20.2529 15.3836 19.2864 15.3836H17.0005V13.8836H19.2864C19.4244 13.8836 19.5364 13.7717 19.5364 13.6336V7.40811C19.5364 6.71776 18.9767 6.15811 18.2864 6.15811H3.71484C3.02449 6.15811 2.46484 6.71775 2.46484 7.40811V13.6336C2.46484 13.7717 2.57677 13.8836 2.71484 13.8836H5.0083V15.3836H2.71484C1.74835 15.3836 0.964844 14.6001 0.964844 13.6336V7.40811Z" fill="#1362CB"/>
<path fill-rule="evenodd" clip-rule="evenodd" d="M5.0083 1.75C5.0083 0.783501 5.7918 0 6.7583 0H15.0004C15.9669 0 16.7504 0.7835 16.7504 1.75V4.66016H15.2504V1.75C15.2504 1.61193 15.1385 1.5 15.0004 1.5H6.7583C6.62023 1.5 6.5083 1.61193 6.5083 1.75V4.66016H5.0083V1.75Z" fill="#1362CB"/>
<path d="M17.0005 7.64062H18.0005V8.64062H17.0005V7.64062Z" fill="#1362CB"/>
</svg>
