<svg xmlns="http://www.w3.org/2000/svg" xmlns:xlink="http://www.w3.org/1999/xlink" width="21" height="22" viewBox="0 0 21 22">
    <defs>
        <path id="a" d="M.447.167h6.708V6.86H.447z"/>
    </defs>
    <g fill="none" fill-rule="evenodd">
        <path fill="#03559B" d="M2.89 14.69l2.541 2.54 1.504-1.504-2.54-2.541L2.89 14.69zm2.541 3.458a.378.378 0 0 1-.269-.111l-3.078-3.078a.381.381 0 0 1 0-.538l2.042-2.042a.392.392 0 0 1 .537 0l3.078 3.079a.38.38 0 0 1 0 .537L5.7 18.037a.378.378 0 0 1-.268.11z"/>
        <path fill="#03559B" d="M3.173 14.69l2.258 2.257 1.22-1.221-2.256-2.258-1.222 1.222zm2.258 2.823L2.608 14.69l1.787-1.788 2.823 2.824-1.787 1.787zm-1.036-5.041a.178.178 0 0 0-.127.049l-2.042 2.042a.18.18 0 0 0 0 .254l3.078 3.078a.184.184 0 0 0 .254 0l2.04-2.042a.179.179 0 0 0 0-.254L4.523 12.52a.18.18 0 0 0-.127-.05zm1.036 5.876c-.155 0-.3-.06-.41-.17L1.943 15.1a.58.58 0 0 1 0-.82l2.042-2.042a.577.577 0 0 1 .41-.165.58.58 0 0 1 .41.165l3.077 3.078c.108.108.17.258.17.41a.585.585 0 0 1-.17.41L5.84 18.178a.575.575 0 0 1-.41.17z"/>
        <path fill="#03559B" d="M1.236 17.085l2.162.986 1.069-.73-1.744-1.744-1.487 1.488zm2.198 1.801a.393.393 0 0 1-.157-.034L.423 17.55a.379.379 0 0 1-.111-.614l2.143-2.144a.38.38 0 0 1 .537 0l2.337 2.337a.382.382 0 0 1-.054.583L3.649 18.82a.382.382 0 0 1-.215.067z"/>
        <path fill="#03559B" d="M1.581 17.023l1.797.82.777-.531-1.432-1.432-1.142 1.143zM3.417 18.3L.891 17.148l1.832-1.834 2.056 2.057-1.362.929zm-.694-3.42a.179.179 0 0 0-.127.053L.453 17.077a.18.18 0 0 0 .052.29L3.36 18.67a.19.19 0 0 0 .175-.015l1.627-1.11a.18.18 0 0 0 .025-.275L2.85 14.933a.178.178 0 0 0-.126-.053h-.001zm.711 4.206a.587.587 0 0 1-.239-.051L.339 17.73a.579.579 0 0 1-.169-.937l2.143-2.144a.579.579 0 0 1 .41-.17h.001c.155 0 .3.06.409.17l2.337 2.337a.58.58 0 0 1-.082.889l-1.627 1.109a.574.574 0 0 1-.327.1zM4.502 12.218l3.4 3.4 9.526-9.525-3.401-3.4-9.525 9.525zm3.4 4.317a.378.378 0 0 1-.268-.111l-3.938-3.937a.381.381 0 0 1 0-.538L13.758 1.887a.381.381 0 0 1 .538 0l3.937 3.937a.38.38 0 0 1 0 .538L8.17 16.424a.378.378 0 0 1-.27.11z"/>
        <path fill="#03559B" d="M4.785 12.218l3.118 3.117 9.242-9.242-3.118-3.117-9.242 9.242zm3.118 3.684L4.22 12.218l9.807-9.81 3.684 3.685-9.808 9.809zm6.124-13.926a.175.175 0 0 0-.127.053L3.838 12.09a.18.18 0 0 0 0 .254l3.938 3.937a.182.182 0 0 0 .253 0L18.092 6.22a.18.18 0 0 0 0-.254l-3.937-3.937a.178.178 0 0 0-.128-.053zm-6.124 14.76a.577.577 0 0 1-.41-.17l-3.938-3.938a.58.58 0 0 1 0-.82L13.617 1.745a.583.583 0 0 1 .82 0l3.938 3.938a.58.58 0 0 1 0 .82L8.313 16.566a.577.577 0 0 1-.41.17z"/>
        <path fill="#03559B" d="M14.564 2.155l3.4 3.4 1.088-1.087c.19-.19.19-.5 0-.69l-2.71-2.71a.49.49 0 0 0-.69 0l-1.088 1.087zm3.4 4.317a.378.378 0 0 1-.268-.11l-3.938-3.938a.382.382 0 0 1 0-.538L15.115.53a1.248 1.248 0 0 1 1.763 0l2.711 2.711a1.248 1.248 0 0 1 0 1.764l-1.356 1.356a.378.378 0 0 1-.269.111z"/>
        <g transform="translate(13 -.186)">
            <mask id="b" fill="#fff">
                <use xlink:href="#a"/>
            </mask>
            <path fill="#03559B" d="M1.847 2.342l3.118 3.117.946-.946a.285.285 0 0 0 0-.406l-2.71-2.711a.289.289 0 0 0-.408 0l-.946.946zm3.118 3.684L1.282 2.342l1.23-1.23a.688.688 0 0 1 .971 0l2.711 2.71c.13.13.201.304.201.488a.681.681 0 0 1-.2.486l-1.23 1.23zM2.997.552c-.28 0-.543.109-.74.307L.9 2.215a.179.179 0 0 0 0 .255l3.938 3.936a.182.182 0 0 0 .254 0L6.448 5.05c.198-.197.307-.46.307-.74 0-.281-.109-.543-.306-.74L3.737.859a1.037 1.037 0 0 0-.74-.307zM4.965 6.86a.577.577 0 0 1-.41-.17L.617 2.752a.589.589 0 0 1-.17-.41c0-.151.062-.301.17-.41L1.972.576C2.52.03 3.474.03 4.02.575l2.711 2.71c.273.275.424.638.424 1.025 0 .386-.15.75-.424 1.023L5.375 6.69a.58.58 0 0 1-.41.17z" mask="url(#b)"/>
        </g>
        <path fill="#03559B" d="M11.073 21.814H1.095a1 1 0 1 1 0-2h9.978a1 1 0 1 1 0 2M17.453 17.285a.744.744 0 0 1-.53-.22L3.29 3.432a.749.749 0 1 1 1.06-1.06l13.633 13.633a.749.749 0 0 1-.53 1.28"/>
    </g>
</svg>
