<svg xmlns="http://www.w3.org/2000/svg" xmlns:xlink="http://www.w3.org/1999/xlink" width="21" height="22" viewBox="0 0 21 22">
    <defs>
        <path id="a" d="M.447.167h6.708V6.86H.447z"/>
    </defs>
    <g fill="none" fill-rule="evenodd">
        <path fill="#666" d="M2.89 14.69l2.54 2.54 1.505-1.504-2.54-2.541L2.89 14.69zm2.54 3.458a.378.378 0 0 1-.268-.111l-3.078-3.078a.381.381 0 0 1 0-.538l2.042-2.042a.392.392 0 0 1 .537 0l3.078 3.079a.38.38 0 0 1 0 .537l-2.042 2.042a.378.378 0 0 1-.268.11z"/>
        <path fill="#666" d="M3.172 14.69l2.259 2.257 1.221-1.221-2.258-2.258-1.222 1.222zm2.259 2.823L2.607 14.69l1.787-1.788 2.824 2.824-1.787 1.787zm-1.037-5.041a.178.178 0 0 0-.127.049l-2.042 2.042a.18.18 0 0 0 0 .254l3.078 3.078a.184.184 0 0 0 .255 0L7.6 15.853a.182.182 0 0 0 0-.254L4.52 12.52a.18.18 0 0 0-.127-.05zm1.037 5.876c-.155 0-.3-.06-.41-.17L1.942 15.1a.58.58 0 0 1 0-.82l2.043-2.042a.58.58 0 0 1 .41-.165c.155 0 .304.059.41.165l3.078 3.078c.107.108.17.258.17.41a.585.585 0 0 1-.17.41L5.84 18.178a.575.575 0 0 1-.41.17z"/>
        <path fill="#666" d="M1.236 17.085l2.162.986 1.07-.73-1.744-1.744-1.489 1.488zm2.199 1.801a.394.394 0 0 1-.159-.034L.423 17.55a.377.377 0 0 1-.216-.278.377.377 0 0 1 .105-.336l2.142-2.144a.38.38 0 0 1 .537 0l2.337 2.337a.382.382 0 0 1-.054.583L3.648 18.82a.379.379 0 0 1-.214.067z"/>
        <path fill="#666" d="M1.58 17.023l1.798.82.778-.531-1.432-1.432-1.143 1.143zM3.418 18.3L.89 17.148l1.833-1.834L4.78 17.37l-1.363.929zm-.693-3.42a.178.178 0 0 0-.127.053L.453 17.077a.178.178 0 0 0-.05.158.183.183 0 0 0 .102.133L3.36 18.67a.188.188 0 0 0 .175-.015l1.627-1.11a.178.178 0 0 0 .025-.276L2.85 14.934a.181.181 0 0 0-.127-.053zm.71 4.206a.588.588 0 0 1-.24-.051L.34 17.73a.576.576 0 0 1-.33-.425.576.576 0 0 1 .16-.512l2.144-2.144a.58.58 0 0 1 .82 0l2.338 2.337a.58.58 0 0 1-.083.89L3.76 18.985a.574.574 0 0 1-.326.1zM4.502 12.218l3.4 3.4 9.526-9.525-3.401-3.4-9.525 9.525zm3.4 4.317a.382.382 0 0 1-.268-.111l-3.938-3.937a.381.381 0 0 1 0-.538L13.759 1.887a.38.38 0 0 1 .537 0l3.938 3.937a.381.381 0 0 1 0 .538L8.17 16.424a.378.378 0 0 1-.268.11z"/>
        <path fill="#666" d="M4.784 12.218l3.118 3.117 9.242-9.242-3.117-3.117-9.243 9.242zm3.118 3.684L4.22 12.218l9.808-9.81 3.683 3.685-9.808 9.809zm6.125-13.926a.174.174 0 0 0-.127.053L3.837 12.09a.18.18 0 0 0 0 .254l3.938 3.937a.182.182 0 0 0 .254 0L18.092 6.22a.18.18 0 0 0 0-.254l-3.938-3.937a.175.175 0 0 0-.127-.053zm-6.125 14.76a.579.579 0 0 1-.41-.17l-3.938-3.938a.58.58 0 0 1 0-.82L13.617 1.745a.58.58 0 0 1 .82 0l3.938 3.938a.58.58 0 0 1 0 .82L8.312 16.566a.579.579 0 0 1-.41.17z"/>
        <path fill="#666" d="M14.564 2.155l3.401 3.4 1.088-1.087c.19-.19.19-.5 0-.69l-2.712-2.71a.49.49 0 0 0-.689 0l-1.088 1.087zm3.401 4.317a.38.38 0 0 1-.269-.11l-3.938-3.938a.382.382 0 0 1 0-.538L15.115.53a1.248 1.248 0 0 1 1.763 0l2.712 2.711a1.25 1.25 0 0 1 0 1.764l-1.357 1.356a.378.378 0 0 1-.268.111z"/>
        <g transform="translate(13 -.186)">
            <mask id="b" fill="#fff">
                <use xlink:href="#a"/>
            </mask>
            <path fill="#666" d="M1.847 2.342l3.118 3.117.946-.946a.281.281 0 0 0 .084-.203.28.28 0 0 0-.084-.203L3.2 1.396a.288.288 0 0 0-.407 0l-.946.946zm3.118 3.684L1.282 2.342l1.229-1.23a.686.686 0 0 1 .972 0l2.712 2.71a.687.687 0 0 1-.001.974l-1.23 1.23zM2.997.552c-.28 0-.543.109-.74.307L.9 2.215a.183.183 0 0 0-.053.127c0 .047.02.094.053.127l3.938 3.937c.067.068.186.07.254 0L6.449 5.05a1.048 1.048 0 0 0 0-1.48L3.737.859a1.037 1.037 0 0 0-.74-.307zM4.965 6.86a.572.572 0 0 1-.41-.171L.617 2.752a.585.585 0 0 1-.17-.41c0-.152.062-.302.17-.41L1.973.575c.546-.544 1.5-.545 2.047 0l2.712 2.71a1.45 1.45 0 0 1 0 2.048L5.375 6.69a.579.579 0 0 1-.41.17z" mask="url(#b)"/>
        </g>
        <path fill="#666" d="M11.073 21.814H1.095a1 1 0 1 1 0-2h9.978a1 1 0 1 1 0 2M17.453 17.285a.744.744 0 0 1-.53-.22L3.29 3.432a.749.749 0 1 1 1.061-1.06l13.633 13.633a.749.749 0 0 1-.53 1.28"/>
    </g>
</svg>
