<svg xmlns="http://www.w3.org/2000/svg" width="22" height="22" viewBox="0 0 22 22">
    <g fill="#666" fill-rule="evenodd">
        <path d="M18.365 5.423a1.365 1.365 0 0 1-1.738.833 1.365 1.365 0 0 1 .91-2.574c.707.25 1.08 1.031.828 1.74zm-3.174-1.117a2.002 2.002 0 0 0 1.217 2.553 2 2 0 1 0 1.335-3.773 2.002 2.002 0 0 0-2.552 1.22zm3.7-3.45c.023.007.067.12.05.277l-.08.831-.026.275.218.167c.129.1.255.213.373.338l.19.2.27-.054.836-.17c.145-.032.262 0 .273.021l.268.566c.013.026 0 .075-.006.089a.338.338 0 0 1-.11.15l-.008.006-.008.006-.657.513-.227.176.04.285c.025.18.035.357.03.53l-.008.284.243.151.705.442.017.01c.092.051.16.176.141.227l-.208.587c-.008.024-.12.067-.278.05l-.82-.079-.277-.026-.168.223a3.252 3.252 0 0 1-.386.425l-.214.196.066.283.193.833.002.01.002.008a.338.338 0 0 1-.008.187c-.005.014-.024.06-.053.072l-.563.27c-.022.011-.133-.037-.232-.162l-.564-.683-.174-.21-.271.034a3.247 3.247 0 0 1-.464.022l-.276-.006-.152.23-.467.706c-.08.124-.185.183-.209.175l-.588-.207c-.05-.019-.105-.149-.088-.253l.002-.009.001-.01.1-.815.035-.285-.23-.173a3.242 3.242 0 0 1-.374-.335l-.19-.196-.268.055-.877.178c-.145.032-.262 0-.273-.022l-.27-.563c-.011-.027.002-.072.009-.09a.336.336 0 0 1 .108-.15L13 6.44l.008-.007.672-.527.228-.176-.042-.287a3.327 3.327 0 0 1-.033-.572l.009-.276-.232-.155-.696-.46c-.125-.08-.186-.185-.178-.208l.209-.589c.018-.05.148-.105.252-.088l.01.002.01.002.823.1.284.034.173-.227a3.19 3.19 0 0 1 .361-.397l.21-.196-.065-.28-.187-.81-.003-.01-.003-.01a.349.349 0 0 1 .01-.185c.005-.014.023-.06.051-.075l.563-.268c.022-.01.134.037.232.161l.536.648.177.215.275-.036c.19-.028.367-.036.536-.03l.288.01.153-.244.434-.696.007-.008.004-.009c.052-.09.176-.159.227-.14l.588.208zM17.45.495l-.243.6c-.21-.008-.385-.03-.59-.002l-.461-.498c-.19-.238-.653-.536-.963-.388l-.62.306c-.152.073-.239.27-.292.423-.056.157-.09.392-.048.541l.207.631c-.15.14-.324.296-.45.462l-.693-.07c-.298-.049-.793.12-.908.445l-.235.666c-.115.325.162.767.42.93l.593.353c-.007.22.006.354.037.57l-.55.476c-.126.09-.292.372-.349.53-.053.152-.086.338-.013.49l.303.585c.148.311.61.388.908.32l.8-.099c.134.138.202.313.358.43l-.08.545c-.05.299.045.91.37 1.024l.566.2c.325.116.9-.131 1.064-.389l.425-.615c.18.005.265-.013.442-.034l.531.617c.19.24.654.396.965.246l.605-.263c.15-.073.287-.317.34-.47a.97.97 0 0 0 .01-.523l-.125-.682c.162-.149.21-.162.344-.34l.656-.007c.303.035.825-.123.94-.449l.24-.564c.115-.324-.086-.918-.348-1.069l-.673-.396c.006-.207.004-.27-.024-.471l.58-.513c.124-.09.284-.264.34-.421.054-.152.093-.446.02-.599l-.293-.614c-.148-.31-.79-.371-1.086-.304l-.655.135c-.133-.14-.187-.178-.342-.297l.076-.754c.035-.303-.152-.835-.477-.95l-.61-.214c-.325-.116-.862.209-1.012.47zM7.43 16.656a1.938 1.938 0 0 1-1.938-1.933 1.938 1.938 0 0 1 3.877 0c0 1.066-.87 1.933-1.938 1.933zm-.006-4.777a2.842 2.842 0 0 0-2.841 2.837 2.842 2.842 0 0 0 5.682 0 2.841 2.841 0 0 0-2.841-2.837zm6.37 3.317c0 .035-.13.148-.348.198l-1.151.287-.38.095-.121.372a4.626 4.626 0 0 1-.276.658l-.178.35.202.336.623 1.037c.112.179.124.35.1.376l-.628.627c-.031.03-.102.033-.123.033a.482.482 0 0 1-.253-.076l-.012-.008-.011-.008-1-.635-.344-.221-.362.188a4.338 4.338 0 0 1-.693.29l-.386.126-.087.396-.256 1.153-.005.028c-.027.147-.16.296-.237.296h-.886c-.035 0-.148-.13-.198-.35L6.5 19.612l-.097-.384-.377-.12a4.412 4.412 0 0 1-.751-.316l-.364-.192-.347.222-1.025.652-.011.008-.012.008a.482.482 0 0 1-.253.075c-.021 0-.093-.003-.124-.034l-.626-.625c-.024-.025-.013-.197.106-.388l.648-1.08.2-.331-.173-.347a4.508 4.508 0 0 1-.252-.61l-.122-.373-.38-.095-1.164-.291c-.205-.046-.336-.16-.336-.194v-.886c0-.077.149-.21.296-.237l.014-.002.014-.004 1.136-.251.4-.09.123-.39c.066-.207.154-.422.27-.658l.173-.347-.2-.333-.653-1.09c-.113-.18-.125-.351-.1-.375l.625-.626c.03-.031.098-.034.125-.034.087 0 .187.029.253.075l.01.008.013.008 1.022.65.347.222.364-.192a4.46 4.46 0 0 1 .748-.314l.376-.12.096-.384.287-1.15c.047-.205.16-.334.195-.334h.886c.076 0 .21.148.237.294l.002.015.003.014.255 1.15.089.396.385.124c.236.076.472.175.702.295l.363.188.345-.22.996-.634.01-.008.013-.008a.473.473 0 0 1 .253-.075c.02 0 .092.002.124.033l.626.626c.025.024.013.197-.106.387l-.615 1.024-.202.338.178.35c.126.245.222.476.293.704l.122.39.4.09 1.138.252.013.004.014.002c.147.027.296.16.296.237v.886zm-.2-2.1l-.917-.043c-.09-.283-.144-.528-.278-.79l.449-.853c.229-.367.408-1.126.063-1.473l-.704-.682c-.17-.17-.475-.193-.704-.193-.237 0-.568.069-.747.193l-.747.576c-.26-.134-.551-.293-.832-.384l-.235-.961c-.076-.422-.535-1.003-1.024-1.003H6.915c-.49 0-.95.58-1.046 1.003l-.192.96c-.3.096-.473.176-.747.32l-.896-.511c-.18-.124-.637-.213-.875-.213-.228 0-.492.043-.662.213l-.64.682c-.346.347-.23.999 0 1.366l.512 1.025c-.121.245-.322.418-.405.682l-.768.15c-.423.076-1.196.492-1.196.98v.855c0 .489.602 1.14 1.025 1.238l1.024.277c.08.245.143.35.256.577l-.576 1.003c-.23.366-.217 1.062.128 1.408l.64.683c.169.169.56.235.79.235.237 0 .524-.111.704-.235l.854-.491c.275.147.316.203.619.299l.32.875c.096.422.556 1.046 1.045 1.046l.868.055c.488 0 1.19-.551 1.266-.973l.214-1.088a3.18 3.18 0 0 0 .619-.257l.96.534c.179.124.488.256.725.256.23 0 .643-.087.81-.256l.684-.683c.345-.346.123-1.234-.107-1.6l-.49-.811c.123-.244.148-.335.235-.598l1.045-.256c.422-.097 1.046-.6 1.046-1.09v-.916c0-.49-.688-1.054-1.11-1.131z"/>
    </g>
</svg>
