<svg xmlns="http://www.w3.org/2000/svg" width="18" height="22" viewBox="0 0 18 22">
    <g fill="none" fill-rule="evenodd" stroke="#03559B" stroke-width="1.5">
        <path stroke-linecap="round" stroke-linejoin="round" d="M11 15l3.714 1.057M6.955 10.703l-4.12.956"/>
        <path d="M5.45 16.29c1.413.146 2.248-.573 2.248-1.828l-.265-3.873.692-4.044c.08-2.608-1.279-5.4-2.693-5.545H4.144c-1.398.195-2.7 1.202-3.016 3.079 0 0-.482 2.576.422 4.616.793 1.788 1.595 4.761 1.595 4.761.532 2.043.891 2.689 2.305 2.834zM12.678 20.29c-1.413.146-2.248-.573-2.248-1.828l.265-3.873-.692-4.044c-.079-2.608 1.28-5.4 2.693-5.545h1.289c1.398.195 2.7 1.202 3.015 3.079 0 0 .482 2.576-.422 4.616-.792 1.788-1.595 4.761-1.595 4.761-.531 2.043-.89 2.689-2.305 2.834z"/>
    </g>
</svg>
