<svg width="24" height="24" viewBox="0 0 24 24" fill="none" xmlns="http://www.w3.org/2000/svg">
<g id="Actions/Like">
<g id="vector">
<path fill-rule="evenodd" clip-rule="evenodd" d="M11.92 3.52397L11.3769 7.40317C11.3319 7.72499 11.198 8.02787 10.9903 8.27781L7.64504 12.304L6.49278 11.3466L9.83805 7.32041C9.86772 7.2847 9.88685 7.24143 9.89328 7.19546L10.5049 2.82652C10.5465 2.5297 10.7572 2.25997 11.0772 2.16948C11.1896 2.1377 11.5031 2.05623 11.8977 2.0191C12.2823 1.98291 12.8087 1.98218 13.3133 2.1624C15.103 2.80153 15.4795 4.59598 15.4957 5.94867C15.5011 6.39032 15.3986 7.03102 15.2907 7.62773C15.2397 7.90978 15.187 8.18425 15.1364 8.44791C15.1087 8.59238 15.0816 8.73359 15.0557 8.87102H18.7184C19.1595 8.84091 19.7076 8.89531 20.2122 9.12788C20.75 9.37572 21.2432 9.83279 21.4456 10.5644C21.5745 11.0308 21.5488 11.5423 21.4569 11.9585C21.4192 12.1288 21.3672 12.2984 21.3002 12.4567C21.6631 12.8535 21.9373 13.4237 21.9251 14.1322C21.9158 14.6715 21.7176 15.181 21.4484 15.5723C21.3357 15.7361 21.1948 15.9012 21.0292 16.0445C21.0876 16.2196 21.1257 16.401 21.1451 16.5782C21.1955 17.0376 21.1327 17.5738 20.8628 18.0577C20.5966 18.5351 20.2383 18.8369 19.8918 19.0265C19.8955 19.043 19.8991 19.0595 19.9025 19.0761C19.9771 19.4413 19.977 19.8918 19.78 20.3387C19.5983 20.751 19.3403 21.1716 18.9176 21.4814C18.4854 21.7982 17.9584 21.943 17.342 21.943H9.89411L9.85375 21.9386C8.04186 21.7417 6.75037 20.5136 6.43365 19.1764L7.89144 18.8311C8.04924 19.4974 8.77007 20.2987 9.97746 20.4449H17.342C17.7176 20.4449 17.913 20.3603 18.032 20.273C18.1607 20.1788 18.283 20.0207 18.4091 19.7344C18.453 19.635 18.4627 19.5128 18.4347 19.376C18.4052 19.2314 18.3444 19.1258 18.3184 19.093C17.9603 18.6415 18.1966 17.9267 18.8143 17.8339C19.0176 17.8033 19.3521 17.6909 19.5544 17.3281C19.6437 17.168 19.6796 16.9569 19.6559 16.7415C19.6307 16.5111 19.5505 16.3802 19.5272 16.3552C19.2724 16.0828 19.2801 15.744 19.3471 15.5354C19.4141 15.3269 19.6011 15.0549 19.9549 14.9761L19.9564 14.9753C19.9708 14.9683 20.0828 14.9142 20.2141 14.7232C20.3449 14.5331 20.4238 14.3048 20.4272 14.1064C20.4345 13.6817 20.1864 13.4123 20.0085 13.3177C19.7428 13.1766 19.6548 12.9388 19.6293 12.8576C19.5957 12.7509 19.589 12.6539 19.5901 12.5834C19.5912 12.5107 19.6014 12.4245 19.6297 12.3337C19.6491 12.2716 19.7089 12.0994 19.8775 11.958C19.8828 11.9498 19.8912 11.9356 19.9019 11.9138C19.9333 11.8499 19.9677 11.7544 19.9941 11.6351C20.0492 11.3858 20.0482 11.1323 20.0017 10.9638C19.9361 10.7268 19.793 10.5842 19.5852 10.4885C19.3562 10.3829 19.0632 10.3466 18.804 10.3669L18.7749 10.3691H14.5124C13.8807 10.3691 13.3721 9.80524 13.4824 9.15457C13.5332 8.85459 13.6021 8.49488 13.6712 8.13356C13.7218 7.86939 13.7725 7.60436 13.8165 7.36116C13.9293 6.73711 14.001 6.2399 13.9977 5.96672C13.9828 4.72899 13.6415 3.87037 12.8094 3.57325C12.5986 3.49796 12.3215 3.48396 12.0381 3.51062C11.9974 3.51445 11.9579 3.51898 11.92 3.52397Z" fill="#6C6E83"/>
<path fill-rule="evenodd" clip-rule="evenodd" d="M3.57331 10.5145V20.5019H6.56954V10.5145H3.57331ZM3.07394 9.01634C2.52235 9.01634 2.0752 9.46349 2.0752 10.0151V21.0013C2.0752 21.5528 2.52235 22 3.07394 22H7.06891C7.6205 22 8.06765 21.5528 8.06765 21.0013V10.0151C8.06765 9.46349 7.6205 9.01634 7.06891 9.01634H3.07394Z" fill="#6C6E83"/>
</g>
</g>
</svg>
