<svg width="24" height="24" viewBox="0 0 24 24" fill="none" xmlns="http://www.w3.org/2000/svg">
<g id="Actions/Unlike">
<g id="vector">
<path fill-rule="evenodd" clip-rule="evenodd" d="M12.1552 20.476L12.6983 16.5968C12.7433 16.275 12.8772 15.9721 13.0849 15.7222L16.4302 11.696L17.5824 12.6534L14.2371 16.6796C14.2075 16.7153 14.1883 16.7586 14.1819 16.8045L13.5703 21.1735C13.5287 21.4703 13.318 21.74 12.998 21.8305C12.8856 21.8623 12.5721 21.9438 12.1775 21.9809C11.7929 22.0171 11.2665 22.0178 10.7619 21.8376C8.97222 21.1985 8.59574 19.404 8.57945 18.0513C8.57412 17.6097 8.67664 16.969 8.78453 16.3723C8.83554 16.0902 8.8882 15.8157 8.93878 15.5521C8.9665 15.4076 8.99359 15.2664 9.01945 15.129L5.35676 15.129C4.91566 15.1591 4.3676 15.1047 3.86296 14.8721C3.3252 14.6243 2.83201 14.1672 2.62965 13.4356C2.50066 12.9692 2.52635 12.4577 2.61835 12.0415C2.65599 11.8712 2.70801 11.7016 2.77503 11.5433C2.41207 11.1465 2.13788 10.5763 2.1501 9.86782C2.15939 9.32849 2.35764 8.81898 2.62682 8.42769C2.73951 8.26387 2.88035 8.09875 3.04597 7.95548C2.98762 7.78041 2.94949 7.59896 2.93006 7.42183C2.87967 6.96237 2.94249 6.42619 3.21238 5.94226C3.47861 5.46488 3.83689 5.16305 4.18339 4.97349C4.17966 4.95704 4.17609 4.94052 4.1727 4.92393C4.09805 4.55866 4.09824 4.10817 4.29518 3.66134C4.4769 3.24904 4.73489 2.82838 5.15758 2.5186C5.58984 2.20181 6.11683 2.057 6.73323 2.057L14.1811 2.057L14.2214 2.06139C16.0333 2.25833 17.3248 3.48638 17.6415 4.82364L16.1838 5.1689C16.026 4.50261 15.3051 3.7013 14.0977 3.55512L6.73323 3.55512C6.35758 3.55512 6.16221 3.6397 6.04315 3.72696C5.91453 3.82122 5.79223 3.97926 5.66605 4.26555C5.62221 4.36502 5.61253 4.48722 5.64048 4.62398C5.67002 4.76856 5.73078 4.87416 5.75684 4.90702C6.11486 5.35852 5.87857 6.07328 5.26093 6.1661C5.05758 6.19665 4.72314 6.30907 4.52077 6.67194C4.43149 6.83203 4.39562 7.04307 4.41925 7.25851C4.44452 7.48892 4.52472 7.61981 4.54805 7.64476C4.80276 7.91721 4.79506 8.25596 4.72806 8.46462C4.66112 8.67308 4.4741 8.9451 4.12029 9.02394L4.11884 9.02474C4.10439 9.03173 3.99242 9.08584 3.86109 9.27675C3.7303 9.46688 3.65141 9.69517 3.64799 9.89364C3.64067 10.3183 3.88884 10.5877 4.06674 10.6823C4.33241 10.8234 4.4204 11.0612 4.44593 11.1424C4.4795 11.2491 4.48623 11.3461 4.48511 11.4166C4.48397 11.4893 4.47381 11.5755 4.4455 11.6663C4.42611 11.7284 4.36625 11.9006 4.19767 12.042C4.19242 12.0502 4.18404 12.0644 4.17332 12.0862C4.1419 12.1501 4.10752 12.2456 4.08115 12.3649C4.02602 12.6142 4.02695 12.8677 4.07354 13.0362C4.13911 13.2732 4.28216 13.4158 4.49 13.5115C4.71904 13.6171 5.01197 13.6534 5.27116 13.6331L5.30029 13.6309L9.56284 13.6309C10.1945 13.6309 10.7031 14.1948 10.5928 14.8454C10.542 15.1454 10.4731 15.5051 10.404 15.8664C10.3534 16.1306 10.3027 16.3956 10.2587 16.6388C10.1459 17.2629 10.0742 17.7601 10.0775 18.0333C10.0924 19.271 10.4337 20.1296 11.2657 20.4268C11.4766 20.502 11.7537 20.516 12.0371 20.4894C12.0778 20.4855 12.1173 20.481 12.1552 20.476Z" fill="#6C6E83"/>
<path fill-rule="evenodd" clip-rule="evenodd" d="M20.5019 13.4855L20.5019 3.49812L17.5057 3.49812L17.5057 13.4855L20.5019 13.4855ZM21.0013 14.9837C21.5528 14.9837 22 14.5365 22 13.9849L22 2.99874C22 2.44715 21.5528 2 21.0013 2L17.0063 2C16.4547 2 16.0075 2.44715 16.0075 2.99874L16.0075 13.9849C16.0075 14.5365 16.4547 14.9837 17.0063 14.9837L21.0013 14.9837Z" fill="#6C6E83"/>
</g>
</g>
</svg>
