<?xml version="1.0" encoding="UTF-8"?>
<svg width="195px" height="205px" viewBox="0 0 195 205" version="1.1" xmlns="http://www.w3.org/2000/svg" xmlns:xlink="http://www.w3.org/1999/xlink">
    <title>coming soon image</title>
    <defs>
        <filter id="filter-1">
            <feColorMatrix in="SourceGraphic" type="matrix" values="0 0 0 0 0.767662 0 0 0 0 0.844564 0 0 0 0 0.918450 0 0 0 1.000000 0"></feColorMatrix>
        </filter>
        <polygon id="path-2" points="0.605292999 0.0225685279 10.4832845 0.0225685279 10.4832845 9.89847716 0.605292999 9.89847716"></polygon>
        <polygon id="path-4" points="0.286791878 0.340507614 11.0167411 0.340507614 11.0167411 11.0701929 0.286791878 11.0701929"></polygon>
    </defs>
    <g id="Page-1" stroke="none" stroke-width="1" fill="none" fill-rule="evenodd">
        <g id="coming-soon-image" transform="translate(-705.000000, -260.000000)" filter="url(#filter-1)">
            <g transform="translate(705.500000, 260.500000)">
                <g id="Group-10" transform="translate(111.500000, 127.000000) scale(-1, 1) translate(-111.500000, -127.000000) translate(29.000000, 50.500000)" fill="#414042">
                    <polygon id="Fill-1" points="95.856 39.9505 94.34 36.7965 103.509 32.3885 105.025 35.5425"></polygon>
                    <polygon id="Fill-2" points="41.8389 65.9153 40.3219 62.7613 87.2249 40.2153 88.7409 43.3703"></polygon>
                    <polygon id="Fill-3" points="115.5962 25.219 114.0802 22.065 136.8952 11.1 138.4102 14.254"></polygon>
                    <g id="Group-6" transform="translate(0.000000, 0.866000)">
                        <path d="M34.0742,61.0146 L106.7242,26.0926 L118.1942,49.9566 L45.5452,84.8786 L34.0742,61.0146 Z M20.6672,91.5476 L13.3282,76.2776 L32.9862,66.8286 L40.3252,82.0966 L20.6672,91.5476 Z M8.2162,92.6726 L4.6712,85.2996 L12.0712,81.7426 L15.6142,89.1136 L8.2162,92.6726 Z M140.1102,4.8056 L155.6732,37.1816 L123.3952,52.6976 L107.8312,20.3186 L140.1102,4.8056 Z M157.6542,33.2236 L144.4382,5.7286 C149.2592,4.8316 155.2622,8.9866 158.5672,15.8616 C161.8702,22.7386 161.3652,30.0206 157.6542,33.2236 Z M119.7102,53.1116 L121.7562,57.3686 L160.3432,38.8196 L159.2012,36.4446 C164.6892,32.4676 165.8982,23.0406 161.7212,14.3456 C157.5422,5.6516 149.4232,0.7076 142.8892,2.5076 L141.7482,0.1346 L103.1612,18.6796 L105.2082,22.9386 L29.4032,59.3766 L31.4692,63.6746 L8.6572,74.6396 L10.5552,78.5886 L0.0002,83.6606 L6.5782,97.3436 L17.1302,92.2686 L19.0282,96.2186 L41.8412,85.2506 L43.9072,89.5496 L72.6292,75.7436 L36.4752,142.9246 L39.6732,144.3396 L76,77.134 L75.3642,151.9856 L78.8612,151.9996 L80,77.134 L115.2162,144.3396 L118.4132,142.9246 L82,71.134 L119.7102,53.1116 Z" id="Fill-4"></path>
                    </g>
                </g>
                <g id="Group-39">
                    <path d="M24.4064508,38.081771 C24.0181213,38.081771 23.6330433,38.1486603 23.2632942,38.2810454 C22.4058106,38.5866923 21.7192663,39.2077408 21.3295433,40.0294572 C20.9402848,40.8511736 20.8938339,41.7755465 21.1994808,42.632101 C21.6821056,43.9852157 22.9706535,44.8947243 24.4055218,44.8947243 C24.7943158,44.8947243 25.1803227,44.8273705 25.5510009,44.6949854 C26.4075555,44.389803 27.0940998,43.7687545 27.4833583,42.9470381 C27.8730813,42.1262508 27.9190677,41.2014134 27.6134208,40.3453233 C27.130796,38.9912796 25.8417835,38.081771 24.4064508,38.081771 M24.4055218,46.5205057 C22.2850383,46.5205057 20.3810159,45.1771458 19.6679947,43.1783636 C19.2164919,41.9130411 19.2852392,40.5469202 19.8603014,39.3326937 C20.4362925,38.1189318 21.4507801,37.201062 22.7170316,36.7495593 C23.2628297,36.55493 23.8313887,36.4559896 24.4064508,36.4559896 C26.5273988,36.4559896 28.4318856,37.7993496 29.1449069,39.7990608 C29.5964096,41.0643832 29.5281268,42.4300396 28.9526002,43.6438016 C28.3766091,44.8575636 27.362586,45.7749688 26.0972635,46.2264716 C25.5500719,46.4215653 24.9810484,46.5205057 24.4055218,46.5205057" id="Fill-1" fill="#414042"></path>
                    <path d="M82.8163953,23.5721724 C82.587427,23.5721724 82.3604761,23.6120149 82.1415946,23.6896825 C81.6362506,23.8702346 81.2312693,24.236382 81.0012924,24.7210483 C80.7713155,25.2057146 80.7440814,25.7509011 80.9246334,26.2562451 C81.2090785,27.0541036 81.9686076,27.5902121 82.8153866,27.5902121 C83.0443549,27.5902121 83.2718101,27.5503696 83.4906916,27.4721976 C83.9960357,27.2916456 84.4015213,26.9254981 84.6314982,26.4413362 C84.8614751,25.9571742 84.8887092,25.4119877 84.7081572,24.9066437 C84.423712,24.1082809 83.6636787,23.5721724 82.8163953,23.5721724 M82.8153866,29.3553858 C81.2247129,29.3553858 79.7964352,28.3482281 79.2618398,26.8493435 C78.9229264,25.89968 78.9743686,24.8753749 79.406584,23.9645453 C79.8382951,23.0537157 80.5993371,22.3658023 81.5484962,22.0273932 C81.9580165,21.881136 82.3846842,21.8069987 82.8163953,21.8069987 C84.4080776,21.8069987 85.8363553,22.8146607 86.3709508,24.3135454 C86.7098641,25.2632088 86.6584219,26.2875139 86.2262066,27.1983435 C85.7939912,28.1086688 85.0334535,28.7960779 84.08379,29.1349912 C83.6742697,29.2812485 83.2470977,29.3553858 82.8153866,29.3553858" id="Fill-3" fill="#414042"></path>
                    <g id="Group-9" transform="translate(26.523825, 119.761015)">
                        <mask id="mask-3" fill="white">
                            <use xlink:href="#path-2"></use>
                        </mask>
                        <g id="Clip-8"></g>
                        <path d="M3.12315313,6.04321217 C2.97016118,6.04321217 2.81851423,6.06943936 2.67258345,6.1215575 C2.33566493,6.24193358 2.06565937,6.48571195 1.91266742,6.80850813 C1.75933924,7.13164057 1.74118195,7.49512252 1.86155803,7.83204105 C2.05120079,8.36398226 2.55758731,8.72174804 3.12214439,8.72174804 C3.27480009,8.72174804 3.4261108,8.6951846 3.57204158,8.64306647 C4.26739836,8.3949169 4.63155281,7.62760346 4.38373949,6.93291916 C4.19409673,6.4006417 3.68737396,6.04321217 3.12315313,6.04321217 M3.12214439,9.89860914 C2.06128817,9.89860914 1.10903942,9.22712582 0.752954871,8.22746637 C0.52699754,7.5943151 0.561294635,6.91139942 0.849457482,6.30413909 C1.13728408,5.69755126 1.64434309,5.23891167 2.27715812,5.01329059 C2.55052614,4.91544299 2.83532653,4.86635107 3.12315313,4.86635107 C4.1836731,4.86635107 5.13558561,5.53783439 5.49234265,6.53749383 C5.95804339,7.84347341 5.27411897,9.28529638 3.96746691,9.75166962 C3.69409888,9.84884472 3.40997099,9.89860914 3.12214439,9.89860914" id="Fill-7" fill="#414042" mask="url(#mask-3)"></path>
                    </g>
                    <path d="M107.169754,32.9927462 C107.65082,34.3409188 106.946708,35.8243706 105.599196,36.3047766 C104.250363,36.7851827 102.767571,36.0830508 102.286505,34.7348782 C101.805439,33.3867056 102.508891,31.9032538 103.857064,31.4221878 C105.205236,30.9417817 106.689348,31.6445736 107.169754,32.9927462" id="Fill-10" fill="#414042"></path>
                    <path d="M57.3783683,119.253223 C57.8594343,120.601396 57.1553226,122.084848 55.8078099,122.565254 C54.4589774,123.04566 52.9761855,122.343528 52.4951195,120.995355 C52.0140535,119.647183 52.7175053,118.163731 54.0656779,117.682665 C55.4138505,117.202259 56.8979622,117.905051 57.3783683,119.253223" id="Fill-12" fill="#414042"></path>
                    <path d="M11.2911246,58.4774315 C11.7721906,59.8269239 11.0693987,61.3110355 9.72122613,61.7914416 C8.37305355,62.2725076 6.89026167,61.5690558 6.40853578,60.2189036 C5.92812969,58.8727107 6.63092157,57.3899188 7.97975405,56.9088528 C9.32726674,56.4277868 10.8107185,57.1305787 11.2911246,58.4774315" id="Fill-14" fill="#414042"></path>
                    <path d="M2.87774898,112.874645 C3.06186065,113.391345 2.79262207,113.959518 2.27658146,114.143629 C1.76054085,114.327741 1.19302816,114.058503 1.00825659,113.541142 C0.824804814,113.025761 1.09404339,112.458249 1.610084,112.274137 C2.12612461,112.090025 2.6942972,112.359264 2.87774898,112.874645" id="Fill-16" fill="#414042"></path>
                    <path d="M105.662414,11.0552792 C105.846526,11.5719797 105.577287,12.1401523 105.061246,12.324264 C104.545206,12.5083756 103.977693,12.2391371 103.792922,11.7217766 C103.60947,11.2063959 103.878708,10.6388832 104.394749,10.4547716 C104.91079,10.2706599 105.478962,10.5398985 105.662414,11.0552792" id="Fill-18" fill="#414042"></path>
                    <path d="M58.5196627,25.4025939 C58.7037744,25.9192944 58.4345358,26.487467 57.9184952,26.6715787 C57.4024546,26.8556904 56.8349419,26.5864518 56.6501703,26.0690914 C56.4667185,25.5537107 56.7359571,24.986198 57.2519977,24.8020863 C57.7680383,24.6179746 58.3362109,24.8872132 58.5196627,25.4025939" id="Fill-20" fill="#414042"></path>
                    <path d="M40.8680383,9.45905076 C41.05215,9.97575127 40.7829114,10.5439239 40.2668708,10.7280355 C39.7508302,10.9121472 39.1833175,10.6429086 38.9985459,10.1255482 C38.8150942,9.61016751 39.0843327,9.04265482 39.6003733,8.85854315 C40.116414,8.67443147 40.6845865,8.94367005 40.8680383,9.45905076" id="Fill-22" fill="#414042"></path>
                    <path d="M164.443222,80.8508399 C164.627334,81.3675404 164.358096,81.935713 163.842055,82.1198246 C163.326014,82.3039363 162.758502,82.0346977 162.57373,81.5173373 C162.390278,81.0019566 162.659517,80.4344439 163.175557,80.2503323 C163.691598,80.0662206 164.259771,80.3354592 164.443222,80.8508399" id="Fill-24" fill="#414042"></path>
                    <path d="M158.466496,59.89186 C158.947562,61.2420123 158.24411,62.7234844 156.895938,63.2045504 C155.547765,63.6849564 154.064973,62.9834844 153.583247,61.633992 C153.102181,60.2851595 153.806953,58.8050072 155.155125,58.3232813 C156.503298,57.8428752 157.98543,58.5430275 158.466496,59.89186" id="Fill-26" fill="#414042"></path>
                    <g id="Group-30" transform="translate(61.498444, 0.319391)">
                        <mask id="mask-5" fill="white">
                            <use xlink:href="#path-4"></use>
                        </mask>
                        <g id="Clip-29"></g>
                        <polygon id="Fill-28" fill="#414042" mask="url(#mask-5)" points="5.6517665 0.340243655 6.90953299 4.44745178 11.0167411 5.70521827 6.90953299 6.96298477 5.6517665 11.0701929 4.394 6.96298477 0.286791878 5.70521827 4.394 4.44745178"></polygon>
                    </g>
                    <polygon id="Fill-31" fill="#414042" points="26.558523 98.9677419 27.8162895 103.07495 31.9234976 104.332717 27.8162895 105.590483 26.558523 109.697691 25.3007565 105.590483 21.1935484 104.332717 25.3007565 103.07495"></polygon>
                    <polygon id="Fill-33" fill="#414042" points="170.864975 24.5 172.122741 28.6072081 176.229949 29.8649746 172.122741 31.1227411 170.864975 35.2299492 169.607208 31.1227411 165.5 29.8649746 169.607208 28.6072081"></polygon>
                    <polygon id="Fill-35" fill="#414042" points="130.11185 25.5892132 131.369617 29.6964213 135.476825 30.9541878 131.369617 32.2119543 130.11185 36.3185025 128.854084 32.2119543 124.746876 30.9541878 128.854084 29.6964213"></polygon>
                </g>
            </g>
        </g>
    </g>
</svg>