<svg xmlns="http://www.w3.org/2000/svg" width="337" height="45" viewBox="0 0 337 45">
    <g fill="none" fill-rule="evenodd">
        <path fill="#4C8ECC" d="M10.127 16.657l9.277-5.373V-.061L.279 10.993z"/>
        <path fill="#2F74B0" d="M19.423 32.726l9.29-5.364 9.825-5.679v11.352l-19.1 11.034zM19.404 11.284l9.29 5.363 9.82-5.675L19.403-.06z"/>
        <path fill="#4C8ECC" d="M19.425 32.724l-9.298-5.351L.31 33.058l19.13 11.01z"/>
        <path fill="#2F74B0" d="M10.127 27.373V16.657L.279 10.993.31 33.059z"/>
        <path fill="#808183" d="M19.404 11.283l9.29 5.364v10.727l-9.29-5.363z"/>
        <path fill="#5A5A5D" d="M19.404 11.283l-9.277 5.375v10.715l9.277-5.362V11.285"/>
        <path fill="#FFF" d="M65.16 28.787c-1.99 1.963-4.563 2.875-7.272 2.875-7.023 0-10.175-4.838-10.203-9.926-.028-5.087 3.29-10.147 10.203-10.147 2.598 0 5.116.967 7.078 2.93l-2.074 1.991c-1.382-1.354-3.207-1.99-5.004-1.99-4.92 0-7.162 3.622-7.134 7.19.027 3.538 2.13 7.05 7.134 7.05 1.797 0 3.788-.747 5.143-2.102l2.128 2.13zM76.523 20.464l5.501-8.543h3.733v.138L78.071 23.34v7.935h-3.098V23.34L67.51 12.06v-.139h3.677zM92.919 28.4h5.806c1.714 0 4.09-.553 4.09-2.682 0-2.074-2.293-3.014-4.062-3.014h-5.834V28.4zm0-8.461h5.834c2.322 0 3.483-.912 3.483-2.433 0-1.355-1.188-2.792-3.511-2.792h-5.806v5.225zm5.806-8.018c3.677 0 6.58 1.687 6.58 5.53 0 1.632-.857 3.096-2.682 3.843 2.323.691 3.29 2.986 3.29 4.451 0 4.231-3.373 5.531-7.188 5.531H89.85V11.921h8.875zM125.322 31.276h-14.294V11.92h14.212v3.014h-11.115v5.225h10.673v2.876h-10.673v5.198h11.197zM133.783 14.74v7.024h5.89c2.571 0 3.704-1.63 3.704-3.456 0-1.742-1.133-3.567-3.677-3.567h-5.917zm13.604 16.536h-3.623l-5.889-6.692h-4.092v6.692h-3.097V11.893c3.014 0 6 .029 9.014.029 4.48 0 6.83 3.068 6.83 6.332 0 2.764-1.438 5.473-5.254 6.026l5.778 6.442.333.554z"/>
        <path fill="#2F74B0" d="M160.575 17.34l-2.487 6.166h4.948l-2.46-6.166zm4.313 10.756h-8.654l-1.272 3.18h-5.806l8.682-19.355h5.53l8.653 19.355h-5.86l-1.273-3.18zM180.428 16.29v4.645h4.036c1.438 0 2.073-1.078 2.073-2.24 0-1.216-.691-2.405-2.13-2.405h-3.98zm12.44 14.986h-6.026l-4.506-6.277h-1.908v6.277h-5.476V11.92h9.456c4.95 0 7.52 3.18 7.52 6.663 0 2.379-.828 4.397-4.091 5.835l5.032 6.525v.332zM213.827 12.252l-7.853 9.152c2.71 2.987 5.834 6.47 8.516 9.54v.332h-6.774l-5.53-6.444v6.444h-5.475V11.92h5.475v6.359c1.66-2.047 3.456-4.314 5.088-6.36h6.553v.333zM218.398 9.543h-.245v.807h.239c.431 0 .552-.128.552-.42 0-.286-.2-.387-.546-.387m.924 2.201h-.227c-.046 0-.08-.013-.099-.046-.06-.107-.107-.193-.18-.32-.185-.299-.285-.465-.439-.63a.186.186 0 0 0-.145-.075h-.08v.938c0 .067-.053.126-.12.126h-.153a.13.13 0 0 1-.126-.126V9.345c0-.066.06-.118.127-.118h.638c.565 0 .838.324.838.696 0 .352-.2.68-.651.692.125.067.404.46.703.992.034.059.014.139-.085.139m-.826-3.184c-1.037 0-1.862.837-1.862 1.934s.826 1.936 1.863 1.936 1.862-.84 1.862-1.936c0-1.097-.826-1.934-1.863-1.934m0 4.195a2.241 2.241 0 0 1-2.26-2.261 2.241 2.241 0 0 1 2.26-2.261c1.23 0 2.261.97 2.261 2.26a2.247 2.247 0 0 1-2.26 2.262"/>
        <path fill="#FFF" d="M236.824 11.92c2.715 0 4.678.942 6.506 2.5l-1.399 1.452c-1.397-1.21-3.305-2.015-5.133-2.015-4.247 0-7.5 3.576-7.5 7.74 0 4.14 3.253 7.717 7.5 7.717 2.34 0 3.71-.941 5.133-2.016l1.426 1.37c-1.828 1.775-4.14 2.608-6.533 2.608-5.376 0-9.704-4.274-9.704-9.651a9.683 9.683 0 0 1 9.704-9.704M255.548 29.394c4.275 0 7.796-3.495 7.796-7.769s-3.521-7.823-7.796-7.823c-4.273 0-7.77 3.55-7.77 7.823 0 4.274 3.497 7.77 7.77 7.77m0-17.474a9.66 9.66 0 0 1 9.679 9.704c0 5.376-4.302 9.651-9.68 9.651a9.592 9.592 0 0 1-9.65-9.65c0-5.378 4.275-9.705 9.65-9.705M282.673 11.921v15.108h-.054l-11.344-15.108h-1.962v19.355h1.962V15.872h.027l11.317 15.404h2.016V11.921c0-.037-.015.036-.024 0h-1.917c-.007.036-.021-.037-.021 0M295.972 11.921v13.521c0 2.85-1.667 4.033-3.28 4.033-1.183 0-2.15-.914-2.607-1.425l-1.533 1.236c.458.565 1.748 1.99 4.087 1.99 3.145 0 5.403-2.15 5.403-5.887V11.921c0-.037-.013.036-.021 0h-2.028c-.007.036-.021-.037-.021 0M315.758 11.921v12.043c0 3.065-1.936 5.403-5.108 5.403-3.145 0-5.054-2.393-5.054-5.457V11.921c0-.037-.013.036-.021 0h-2c-.007.036-.022-.037-.022 0v12.151c0 4.086 2.877 7.204 7.097 7.204 4.248 0 7.15-3.118 7.15-7.204V11.921c0-.037-.014.036-.022 0h-2c-.007.036-.02-.037-.02 0M325.435 21.867v-7.716h5.216c2.07 0 3.87 1.748 3.87 3.791 0 2.205-1.8 3.925-3.87 3.925h-5.216zm7.231 1.532c2.34-.94 3.98-3.01 3.98-5.484 0-3.199-2.636-5.726-5.86-5.726h-7.474v19.086h2.07v-7.634h5.135l3.83 7.634h2.567l-4.248-7.876z"/>
    </g>
</svg>
