<svg xmlns="http://www.w3.org/2000/svg" viewBox="0 0 265.25 38.52"><defs><style>.cls-1{fill:#4d90cd;}.cls-2{fill:#3074b1;}.cls-3{fill:#808184;}.cls-4{fill:#595a5c;}.cls-5{fill:#fff;}</style></defs><title>Asset 5</title><g id="Layer_2" data-name="Layer 2"><g id="Layer_1-2" data-name="Layer 1"><polygon class="cls-1" points="8.6 14.59 16.69 9.9 16.69 0 0 9.65 8.6 14.59"/><polygon class="cls-2" points="16.71 28.62 24.82 23.93 24.82 23.93 33.39 18.98 33.39 28.89 16.72 38.52 16.71 28.62"/><polygon class="cls-2" points="16.69 9.9 24.8 14.58 33.37 9.63 16.69 0 16.69 9.9"/><polygon class="cls-1" points="16.71 28.61 8.6 23.94 0.03 28.91 16.72 38.52 16.71 28.61"/><polygon class="cls-2" points="8.6 23.94 8.6 14.59 0 9.65 0.03 28.91 8.6 23.94"/><polygon class="cls-3" points="16.69 9.9 24.8 14.58 24.8 23.95 16.69 19.26 16.69 9.9"/><polyline class="cls-4" points="16.69 9.9 8.6 14.59 8.6 23.94 16.69 19.26 16.69 9.9"/><path class="cls-5" d="M56.63,25.18a8.87,8.87,0,0,1-6.35,2.51c-6.13,0-8.88-4.22-8.9-8.67s2.87-8.85,8.9-8.85a8.61,8.61,0,0,1,6.18,2.56l-1.81,1.73a6.22,6.22,0,0,0-4.37-1.73A5.93,5.93,0,0,0,44.05,19c0,3.09,1.86,6.15,6.23,6.15a6.55,6.55,0,0,0,4.49-1.83Z"/><path class="cls-5" d="M66.55,17.91l4.8-7.45h3.26v.12L67.9,20.42v6.93H65.19V20.42l-6.51-9.84v-.12h3.21Z"/><path class="cls-5" d="M85.92,10.46c3.21,0,5.75,1.47,5.75,4.82a3.51,3.51,0,0,1-2.34,3.36,4.18,4.18,0,0,1,2.87,3.88c0,3.7-3,4.83-6.28,4.83H78.18V10.46Zm-5.06,7H86c2,0,3-.8,3-2.13,0-1.18-1-2.43-3.07-2.43H80.86Zm0,7.38h5.06c1.5,0,3.58-.48,3.58-2.34s-2-2.63-3.55-2.63H80.86Z"/><path class="cls-5" d="M109.14,27.35H96.66V10.46h12.41v2.63h-9.7v4.56h9.31v2.51H99.37V24.7h9.77Z"/><path class="cls-5" d="M128.4,27.35h-3.16l-5.14-5.84h-3.58v5.84h-2.7V10.43c2.63,0,5.24,0,7.87,0,3.91,0,6,2.68,6,5.52a5,5,0,0,1-4.59,5.27l5.05,5.62ZM116.52,12.92v6.13h5.14a2.91,2.91,0,0,0,3.24-3,3,3,0,0,0-3.21-3.11Z"/><path class="cls-2" d="M143.67,24.58h-7.55L135,27.35h-5.07l7.58-16.89h4.83l7.55,16.89h-5.12Zm-3.76-9.39-2.17,5.38h4.32Z"/><path class="cls-2" d="M168.09,27.35h-5.26l-3.93-5.48h-1.66v5.48h-4.78V10.46h8.25c4.32,0,6.56,2.77,6.56,5.81,0,2.08-.72,3.84-3.57,5.1l4.39,5.69ZM157.24,14.27v4.05h3.52a1.77,1.77,0,0,0,1.81-1.95,1.9,1.9,0,0,0-1.86-2.1Z"/><path class="cls-2" d="M186.39,10.75l-6.86,8c2.37,2.6,5.1,5.64,7.44,8.32v.29h-5.92l-4.82-5.62v5.62h-4.78V10.46h4.78V16c1.45-1.79,3-3.77,4.44-5.55h5.72Z"/><path class="cls-2" d="M190.46,11.19a2,2,0,1,1,2-2A2,2,0,0,1,190.46,11.19Zm0-3.67a1.64,1.64,0,0,0-1.62,1.69,1.63,1.63,0,1,0,3.25,0A1.64,1.64,0,0,0,190.46,7.52Zm.72,2.78H191a.1.1,0,0,1-.09,0c-.05-.09-.09-.17-.16-.28a3.89,3.89,0,0,0-.38-.55.18.18,0,0,0-.13-.06h-.07v.82a.1.1,0,0,1-.1.11h-.14a.12.12,0,0,1-.11-.11v-2a.12.12,0,0,1,.11-.11h.56c.49,0,.73.29.73.61a.56.56,0,0,1-.57.61,3.08,3.08,0,0,1,.62.86C191.29,10.23,191.27,10.3,191.18,10.3Zm-.8-1.92h-.22v.71h.21c.38,0,.48-.12.48-.37S190.68,8.38,190.38,8.38Z"/><path class="cls-5" d="M200.48,10.46h5.83a8.45,8.45,0,1,1,0,16.89h-5.83Zm5.45,15.23a6.58,6.58,0,0,0,6.83-6.81,6.57,6.57,0,0,0-6.83-6.78h-3.62V25.69Z"/><path class="cls-5" d="M225.94,10.22a8.69,8.69,0,1,1-8.66,8.71A8.67,8.67,0,0,1,225.94,10.22Zm0,15.68a7,7,0,1,0-7-7A7,7,0,0,0,225.94,25.9Z"/><path class="cls-5" d="M245.84,10.22a8.48,8.48,0,0,1,5.84,2.25l-1.26,1.3a7.28,7.28,0,0,0-4.6-1.81,6.94,6.94,0,0,0,0,13.87,7,7,0,0,0,4.6-1.81l1.28,1.23a8.28,8.28,0,0,1-5.86,2.34,8.69,8.69,0,1,1,0-17.37Z"/><path class="cls-5" d="M256,24.14A6.63,6.63,0,0,0,260.09,26c2,0,3.23-1.23,3.23-2.66,0-1.66-1.45-2.65-4.22-3.81s-4.25-2.24-4.25-5c0-1.64,1.3-4.3,5.14-4.3a7.88,7.88,0,0,1,4.12,1.23l-1,1.5A6.72,6.72,0,0,0,260,11.84c-2.56,0-3.33,1.64-3.33,2.65,0,1.62,1.23,2.56,3.25,3.4,3.26,1.33,5.36,2.56,5.36,5.36,0,2.51-2.39,4.34-5.21,4.34A7.85,7.85,0,0,1,255,25.64Z"/></g></g></svg>