<svg width="325" height="41" viewBox="0 0 325 41" fill="none" xmlns="http://www.w3.org/2000/svg">
<path d="M71.6521 29.1674C69.3307 31.448 66.3577 32.5069 63.2218 32.5069C55.0767 32.5069 51.4521 26.8867 51.4113 21.0222C51.3706 15.117 55.2396 9.25244 63.2218 9.25244C66.2355 9.25244 69.1271 10.3928 71.4077 12.6327L69.0049 14.9541C67.4166 13.3658 65.2988 12.6327 63.2218 12.6327C57.5202 12.6327 54.9138 16.8274 54.9545 20.9408C54.9952 25.0541 57.4388 29.0859 63.2218 29.0859C65.2988 29.0859 67.6202 28.2307 69.1678 26.6424L71.6521 29.1674Z" fill="#173159"/>
<path d="M83.9847 19.5565L90.3786 9.66016H94.6955V9.82306L85.7766 22.8553V32.0594H82.1927V22.8553L73.5588 9.82306V9.66016H77.8351L83.9847 19.5565Z" fill="#173159"/>
<path d="M102.415 28.7199H109.135C111.13 28.7199 113.859 28.0682 113.859 25.6247C113.859 23.2219 111.212 22.1223 109.135 22.1223H102.374V28.7199H102.415ZM102.415 18.9456H109.175C111.863 18.9456 113.207 17.8868 113.207 16.1356C113.207 14.5473 111.823 12.9182 109.135 12.9182H102.415V18.9456ZM109.135 9.66016C113.411 9.66016 116.75 11.615 116.75 16.0541C116.75 17.9275 115.773 19.638 113.655 20.4932C116.343 21.3077 117.483 23.9549 117.483 25.6654C117.483 30.5525 113.574 32.0594 109.175 32.0594H98.9125V9.66016H109.135Z" fill="#173159"/>
<path d="M138.868 32.0594H122.293V9.66016H138.746V13.1219H125.877V19.19H138.257V22.5295H125.877V28.5162H138.868V32.0594Z" fill="#173159"/>
<path d="M146.177 12.9184V21.0636H152.978C155.951 21.0636 157.254 19.1902 157.254 17.0725C157.254 15.0362 155.951 12.9591 152.978 12.9591H146.177V12.9184ZM161.938 32.0596H157.743L150.942 24.3217H146.217V32.0596H142.634V9.61963C146.136 9.61963 149.598 9.66035 153.059 9.66035C158.232 9.66035 160.96 13.2035 160.96 16.991C160.96 20.2083 159.29 23.3442 154.892 23.9551L161.571 31.4079L161.938 32.0596Z" fill="#173159"/>
<path d="M176.114 15.9319L173.222 23.059H178.965L176.114 15.9319ZM181.123 28.394H171.105L169.638 32.0594H162.919L172.978 9.66016H179.372L189.391 32.0594H182.589L181.123 28.394Z" fill="#173159"/>
<path d="M198.261 14.7102V20.086H202.945C204.615 20.086 205.348 18.8235 205.348 17.4795C205.348 16.0541 204.533 14.7102 202.863 14.7102H198.261ZM212.678 32.0594H205.714L200.501 24.8102H198.302V32.0594H191.949V9.66016H202.863C208.606 9.66016 211.579 13.3255 211.579 17.3573C211.579 20.1267 210.601 22.4481 206.854 24.1178L212.678 31.6521V32.0594Z" fill="#173159"/>
<path d="M235.033 10.0269L225.951 20.6156C229.087 24.0773 232.712 28.1092 235.807 31.6523V32.0188H227.947L221.553 24.566V32.0188H215.2V9.61963H221.553V16.991C223.467 14.6289 225.544 11.9817 227.458 9.61963H235.033V10.0269Z" fill="#173159"/>
<path d="M240.327 6.89064H240.042V7.82734H240.327C240.816 7.82734 240.979 7.66444 240.979 7.33863C240.938 7.01282 240.735 6.89064 240.327 6.89064ZM241.386 9.45637H241.142C241.101 9.45637 241.061 9.45637 241.02 9.41565C240.938 9.29347 240.898 9.21202 240.816 9.04911C240.613 8.72331 240.49 8.51968 240.327 8.31605C240.287 8.27532 240.246 8.2346 240.165 8.2346H240.042V9.3342C240.042 9.41565 239.961 9.4971 239.92 9.4971H239.757C239.676 9.4971 239.594 9.41565 239.594 9.3342V6.72774C239.594 6.64629 239.676 6.60556 239.757 6.60556H240.49C241.142 6.60556 241.468 6.9721 241.468 7.42008C241.468 7.82734 241.223 8.19387 240.694 8.2346C240.857 8.31605 241.183 8.76403 241.508 9.37492C241.508 9.3342 241.508 9.45637 241.386 9.45637ZM240.45 5.75032C239.269 5.75032 238.291 6.72774 238.291 7.99024C238.291 9.25274 239.228 10.2302 240.45 10.2302C241.631 10.2302 242.608 9.25274 242.608 7.99024C242.608 6.72774 241.631 5.75032 240.45 5.75032ZM240.45 10.5967C239.024 10.5967 237.843 9.45637 237.843 7.99024C237.843 6.48339 239.024 5.38379 240.45 5.38379C241.875 5.38379 243.056 6.52411 243.056 7.99024C243.056 9.4971 241.875 10.5967 240.45 10.5967Z" fill="#173159"/>
<path fill-rule="evenodd" clip-rule="evenodd" d="M18.0116 0.965994C18.1775 0.869408 18.3825 0.869408 18.5484 0.965994L35.4017 10.7793C35.5659 10.8749 35.6668 11.0506 35.6667 11.2406C35.6665 11.4306 35.5653 11.6062 35.401 11.7015L27.0266 16.5607V24.6369L34.8787 20.3716C35.044 20.2818 35.2443 20.2857 35.406 20.3818C35.5676 20.478 35.6667 20.6522 35.6667 20.8402V30.5469C35.6667 30.7367 35.5657 30.9123 35.4017 31.0078L18.5484 40.8211C18.384 40.9168 18.1812 40.9177 18.016 40.8236L1.16267 31.2236C0.99614 31.1288 0.893311 30.9519 0.893311 30.7602V11.2402C0.893311 11.0504 0.994221 10.8749 1.15828 10.7793L18.0116 0.965994ZM25.96 24.6145L18.8133 20.5307V12.1906L25.96 16.5528V24.6145ZM26.5002 15.6329L34.072 11.2394L18.8133 2.3546V10.9409L26.5002 15.6329ZM17.7466 2.3546V10.943L10.1629 15.6329L2.4928 11.2366L17.7466 2.3546ZM1.95998 12.1606L9.63998 16.5626V25.231L1.95998 29.8202V12.1606ZM2.48483 30.7492L17.7466 39.4426V30.6376L10.1746 26.1541L2.48483 30.7492ZM11.2288 25.5387L18.2817 29.7148L25.4274 25.5387L18.2817 21.4555L11.2288 25.5387ZM17.7466 20.5327V12.1971L10.7066 16.5508V24.6085L17.7466 20.5327ZM18.8133 30.6396V39.4325L34.6 30.2403V21.7369L26.7552 25.9982L18.8133 30.6396Z" fill="url(#paint0_linear_246_1604)"/>
<path d="M269.951 22.1582C269.951 25.4577 269.035 27.9824 267.203 29.7324C265.37 31.4733 262.732 32.3438 259.286 32.3438H253.695V12.3555H259.874C263.055 12.3555 265.53 13.2122 267.298 14.9258C269.066 16.6393 269.951 19.0501 269.951 22.1582ZM266.505 22.2676C266.505 17.4824 264.268 15.0898 259.792 15.0898H256.962V29.5957H259.286C264.099 29.5957 266.505 27.153 266.505 22.2676ZM287.328 24.7559C287.328 27.2259 286.694 29.1536 285.427 30.5391C284.16 31.9245 282.397 32.6172 280.136 32.6172C278.723 32.6172 277.475 32.2982 276.39 31.6602C275.305 31.0221 274.471 30.1061 273.888 28.9121C273.305 27.7181 273.013 26.3327 273.013 24.7559C273.013 22.304 273.642 20.39 274.9 19.0137C276.158 17.6374 277.93 16.9492 280.218 16.9492C282.406 16.9492 284.137 17.6556 285.413 19.0684C286.689 20.472 287.328 22.3678 287.328 24.7559ZM276.322 24.7559C276.322 28.2467 277.611 29.9922 280.191 29.9922C282.743 29.9922 284.019 28.2467 284.019 24.7559C284.019 21.3014 282.734 19.5742 280.163 19.5742C278.814 19.5742 277.835 20.0208 277.224 20.9141C276.622 21.8073 276.322 23.0879 276.322 24.7559ZM297.13 32.6172C294.842 32.6172 293.102 31.9518 291.908 30.6211C290.723 29.2812 290.13 27.3626 290.13 24.8652C290.13 22.3223 290.75 20.3672 291.99 19C293.238 17.6328 295.038 16.9492 297.39 16.9492C298.985 16.9492 300.421 17.2454 301.697 17.8379L300.726 20.4219C299.368 19.8932 298.247 19.6289 297.363 19.6289C294.747 19.6289 293.439 21.3652 293.439 24.8379C293.439 26.5332 293.762 27.8092 294.41 28.666C295.066 29.5137 296.023 29.9375 297.281 29.9375C298.712 29.9375 300.065 29.582 301.341 28.8711V31.6738C300.767 32.0111 300.152 32.2526 299.495 32.3984C298.848 32.5443 298.06 32.6172 297.13 32.6172ZM315.054 28.0371C315.054 29.5137 314.516 30.6484 313.441 31.4414C312.365 32.2253 310.825 32.6172 308.82 32.6172C306.805 32.6172 305.188 32.3118 303.966 31.7012V28.9258C305.744 29.7461 307.398 30.1562 308.929 30.1562C310.907 30.1562 311.896 29.5592 311.896 28.3652C311.896 27.9824 311.786 27.6634 311.568 27.4082C311.349 27.153 310.989 26.8887 310.488 26.6152C309.986 26.3418 309.289 26.0319 308.396 25.6855C306.655 25.0111 305.475 24.3366 304.855 23.6621C304.244 22.9876 303.939 22.1126 303.939 21.0371C303.939 19.7428 304.458 18.7402 305.497 18.0293C306.546 17.3092 307.967 16.9492 309.763 16.9492C311.54 16.9492 313.222 17.3092 314.808 18.0293L313.769 20.4492C312.137 19.7747 310.766 19.4375 309.654 19.4375C307.958 19.4375 307.111 19.9206 307.111 20.8867C307.111 21.3607 307.329 21.7617 307.767 22.0898C308.214 22.418 309.18 22.8691 310.665 23.4434C311.914 23.9264 312.821 24.3685 313.386 24.7695C313.951 25.1706 314.37 25.6354 314.644 26.1641C314.917 26.6836 315.054 27.3079 315.054 28.0371Z" fill="#2F3564"/>
<defs>
<linearGradient id="paint0_linear_246_1604" x1="18.2952" y1="-1.41802" x2="18.2952" y2="44.2868" gradientUnits="userSpaceOnUse">
<stop stop-color="#79C5ED"/>
<stop offset="0.0208333" stop-color="#6EB6E2"/>
<stop offset="0.2666" stop-color="#5998CA"/>
<stop offset="0.7878" stop-color="#354B8B"/>
<stop offset="1" stop-color="#2B2E75"/>
</linearGradient>
</defs>
</svg>
