<svg xmlns="http://www.w3.org/2000/svg" xmlns:xlink="http://www.w3.org/1999/xlink" width="136" height="28" viewBox="0 0 136 28">
    <defs>
        <path id="a" d="M.092.508h2.785v2.827H.092z"/>
    </defs>
    <g fill="none" fill-rule="evenodd">
        <path fill="#3D7DB7" d="M0 6.91l6.068 3.54 5.718-3.358V0z"/>
        <path fill="#005DAC" d="M17.522 17.142l-5.725 3.354.01 7.09 11.769-6.897v-7.096zM11.786 7.092l5.724 3.352 6.051-3.546L11.786 0z"/>
        <path fill="#3D7DB7" d="M.019 20.704l11.788 6.883-.01-7.092L6.07 17.15z"/>
        <path fill="#005DAC" d="M.019 20.704l6.05-3.554V10.45L-.001 6.91z"/>
        <path fill="#999B9E" d="M11.785 7.09l5.725 3.354v6.706l-5.725-3.353z"/>
        <path fill="#5D5D60" d="M11.785 7.09l-5.717 3.36v6.7l5.717-3.353V7.092"/>
        <path fill="#000" d="M39.981 18.034c-1.227 1.227-2.81 1.797-4.48 1.797-4.328 0-6.27-3.024-6.288-6.205-.017-3.18 2.027-6.343 6.287-6.343 1.602 0 3.153.605 4.362 1.832l-1.278 1.244c-.851-.847-1.976-1.244-3.084-1.244-3.033 0-4.413 2.264-4.396 4.494.017 2.212 1.312 4.408 4.396 4.408 1.108 0 2.334-.467 3.17-1.314l1.311 1.33zM46.984 12.83l3.39-5.34h2.301v.086l-4.737 7.053v4.96H46.03v-4.96l-4.6-7.053V7.49h2.266zM57.087 17.792h3.579c1.056 0 2.521-.346 2.521-1.677 0-1.296-1.414-1.884-2.504-1.884h-3.596v3.56zm0-5.29h3.596c1.431 0 2.147-.57 2.147-1.52 0-.848-.733-1.746-2.164-1.746h-3.579v3.267zm3.579-5.012c2.266 0 4.055 1.055 4.055 3.457 0 1.02-.529 1.936-1.653 2.402 1.431.433 2.027 1.867 2.027 2.783 0 2.645-2.078 3.457-4.43 3.457h-5.469V7.49h5.47zM77.056 19.59h-8.809V7.49h8.758v1.884h-6.85v3.267h6.577v1.797h-6.576v3.25h6.9zM82.27 9.253v4.39h3.629c1.585 0 2.283-1.02 2.283-2.16 0-1.09-.698-2.23-2.266-2.23H82.27zm8.382 10.337h-2.231l-3.63-4.184H82.27v4.184H80.36V7.473c1.857 0 3.697.017 5.555.017 2.76 0 4.209 1.919 4.209 3.959 0 1.728-.886 3.422-3.238 3.767l3.56 4.027.205.347z"/>
        <path fill="#005DAC" d="M98.78 10.878l-1.533 3.854h3.05l-1.517-3.854zm2.658 6.723h-5.333l-.785 1.988h-3.577l5.35-12.099h3.409l5.332 12.1h-3.613l-.783-1.989zM111.014 10.221v2.904h2.486c.887 0 1.278-.674 1.278-1.4 0-.76-.425-1.504-1.312-1.504h-2.452zm7.666 9.368h-3.714l-2.776-3.923h-1.176v3.923h-3.374V7.49h5.826c3.05 0 4.635 1.988 4.635 4.166 0 1.486-.511 2.748-2.521 3.647l3.1 4.079v.207z"/>
        <g>
            <path fill="#005DAC" d="M131.596 7.697l-4.839 5.722a442.818 442.818 0 0 1 5.247 5.963v.207h-4.174l-3.408-4.028v4.028h-3.375V7.49h3.375v3.975c1.023-1.279 2.13-2.696 3.135-3.975h4.039v.207z"/>
            <g transform="translate(132.989 4.677)">
                <mask id="b" fill="#fff">
                    <use xlink:href="#a"/>
                </mask>
                <path fill="#000" d="M1.423 1.327h-.152v.503h.148c.266 0 .34-.08.34-.262 0-.179-.122-.241-.336-.241m.57 1.376h-.14c-.028 0-.048-.009-.061-.03l-.11-.199c-.116-.187-.176-.291-.27-.395a.117.117 0 0 0-.091-.046h-.05v.586c0 .042-.031.08-.073.08h-.095a.081.081 0 0 1-.078-.08V1.202c0-.041.038-.075.078-.075h.394c.348 0 .517.204.517.436 0 .22-.124.424-.402.433.077.041.25.287.434.62.02.037.008.087-.054.087M1.485.712c-.64 0-1.147.523-1.147 1.21 0 .685.508 1.209 1.147 1.209s1.146-.524 1.146-1.21c0-.686-.507-1.21-1.146-1.21m0 2.624A1.391 1.391 0 0 1 .092 1.92a1.394 1.394 0 0 1 2.786 0c0 .807-.635 1.414-1.393 1.414" mask="url(#b)"/>
            </g>
        </g>
    </g>
</svg>
