<svg xmlns="http://www.w3.org/2000/svg" xmlns:xlink="http://www.w3.org/1999/xlink" width="175" height="31" viewBox="0 0 175 31">
    <defs>
        <path id="a" d="M.329.155h19.865v7.33H.329z"/>
        <path id="c" d="M.135.166h19.864v7.329H.135z"/>
    </defs>
    <g fill="none" fill-rule="evenodd">
        <path fill="#FFF" d="M154 22h19v-8h-19zM32.074 21.825l1.616-1.672c1.093 1.208 2.095 1.788 3.123 1.788.887 0 1.593-.603 1.593-1.37 0-.696-.455-1.138-1.844-2.067-1.662-1.09-2.482-2.02-2.482-3.506 0-1.974 1.595-3.716 4.167-3.716 1.707 0 3.165.86 4.12 1.858l-1.502 1.788c-1.07-1.069-1.867-1.533-2.755-1.533-.842 0-1.457.58-1.457 1.3 0 .675.41 1.07 1.845 1.998 1.866 1.233 2.504 2.276 2.504 3.596 0 2.112-1.799 3.785-4.258 3.785-1.824.004-3.418-.832-4.67-2.249M45.39 16.833H50.4c.104-.386.15-.785.137-1.185 0-1.208-.593-2.157-1.845-2.157-.773 0-1.457.348-2.003.905-.57.578-1.025 1.46-1.298 2.437zm-.273 1.811v.186c0 1.858.888 3.019 2.417 3.019 1.025 0 1.754-.372 2.595-1.023l1.184 1.881c-1.047.813-2.298 1.371-3.893 1.371-3.004 0-4.827-2.02-4.827-5.248 0-2.183.865-4.39 2.278-5.83 1.046-1.068 2.367-1.765 4.006-1.765 2.573 0 4.167 1.882 4.167 4.552a8.395 8.395 0 0 1-.524 2.857h-7.403zM54.211 18.969c0-2.252.865-4.482 2.254-5.899 1.115-1.114 2.459-1.811 4.075-1.811 2.096 0 3.21.951 4.007 2.206l-2.003 1.603c-.524-.86-1.115-1.439-2.072-1.439-.752 0-1.41.348-1.958.906-.979 1.022-1.612 2.834-1.612 4.366 0 1.859.957 2.834 2.14 2.834.866 0 1.48-.442 2.232-1.07l1.362 1.787c-.957.905-2.096 1.625-3.735 1.625-2.755.001-4.69-1.926-4.69-5.108M66.875 11.468h2.686l-.523 2.229c1.024-1.58 2.254-2.578 4.098-2.438l-.751 2.877h-.16c-2.05 0-3.597 1.183-4.28 4.04L66.6 23.844h-2.686l2.96-12.375zM75.807 16.833h5.01c.103-.386.149-.785.135-1.185 0-1.208-.591-2.157-1.843-2.157-.775 0-1.458.348-2.005.905-.569.578-1.024 1.46-1.297 2.437zm-.273 1.811v.186c0 1.858.887 3.019 2.418 3.019 1.024 0 1.752-.372 2.595-1.023l1.184 1.881c-1.048.813-2.3 1.371-3.893 1.371-3.006 0-4.827-2.02-4.827-5.248 0-2.183.865-4.39 2.276-5.83 1.048-1.068 2.368-1.765 4.007-1.765 2.574 0 4.167 1.882 4.167 4.552a8.411 8.411 0 0 1-.523 2.857h-7.404zM84.902 21.709c0-.487.113-.999.227-1.51l1.503-6.362h-1.367l.592-2.37h1.344l.774-3.25h2.71l-.774 3.25h2.504l-.593 2.37h-2.48l-1.525 6.386c-.04.199-.063.4-.069.603 0 .465.341.744.934.744a3.44 3.44 0 0 0 1.433-.351l-.57 2.371c-.547.28-1.276.418-2.05.418-1.614 0-2.593-.882-2.593-2.3M95.943 7.078h2.687l-4.008 16.768h-2.708zM101.14 16.833h5.009c.103-.386.15-.785.136-1.185 0-1.208-.592-2.157-1.844-2.157-.774 0-1.457.348-2.004.905-.57.578-1.025 1.46-1.298 2.437zm-.273 1.811v.186c0 1.858.887 3.019 2.417 3.019 1.024 0 1.752-.372 2.595-1.023l1.184 1.881c-1.048.813-2.3 1.371-3.893 1.371-3.005 0-4.827-2.02-4.827-5.248 0-2.183.865-4.39 2.277-5.83 1.047-1.068 2.368-1.765 4.006-1.765 2.574 0 4.167 1.882 4.167 4.552a8.411 8.411 0 0 1-.523 2.857h-7.403zM108.336 21.825l1.612-1.672c1.093 1.208 2.094 1.788 3.122 1.788.888 0 1.594-.603 1.594-1.37 0-.696-.456-1.138-1.845-2.067-1.661-1.09-2.481-2.02-2.481-3.506 0-1.974 1.593-3.716 4.166-3.716 1.712 0 3.164.86 4.121 1.858l-1.503 1.788c-1.07-1.069-1.867-1.533-2.754-1.533-.843 0-1.458.58-1.458 1.3 0 .675.41 1.07 1.844 1.998 1.868 1.233 2.505 2.276 2.505 3.596 0 2.112-1.799 3.785-4.257 3.785-1.82.004-3.414-.832-4.666-2.249M118.266 21.825l1.611-1.672c1.093 1.208 2.094 1.788 3.123 1.788.888 0 1.594-.603 1.594-1.37 0-.696-.455-1.138-1.844-2.067-1.661-1.086-2.485-2.02-2.485-3.506 0-1.974 1.593-3.716 4.167-3.716 1.707 0 3.164.86 4.12 1.858l-1.502 1.788c-1.07-1.069-1.868-1.533-2.755-1.533-.842 0-1.458.58-1.458 1.3 0 .675.41 1.07 1.845 1.998 1.867 1.233 2.505 2.276 2.505 3.596 0 2.112-1.8 3.785-4.258 3.785-1.818.004-3.411-.832-4.663-2.249"/>
        <path fill="#4D8FCC" d="M18.248 18.956l-.687 2.81h5.952l.687-2.81z"/>
        <g transform="translate(2.004)">
            <mask id="b" fill="#fff">
                <use xlink:href="#a"/>
            </mask>
            <path fill="#FFF" d="M20.194 2.61C16.683.498 12.17-.46 8.344.572 4.63 1.57 1.37 4.465.329 7.485H5.94C6.7 6.107 8.11 5.01 9.768 4.563c2.99-.803 5.953-.538 9.569 1.505l.857-3.459z" mask="url(#b)"/>
        </g>
        <g transform="translate(3.006 23.505)">
            <mask id="d" fill="#fff">
                <use xlink:href="#c"/>
            </mask>
            <path fill="#FFF" d="M.135 5.042c3.51 2.11 8.022 3.066 11.85 2.036 3.712-.998 6.972-3.892 8.014-6.912h-5.61c-.761 1.378-2.17 2.475-3.828 2.922-2.99.803-5.952.538-9.569-1.504L.135 5.042z" mask="url(#d)"/>
        </g>
        <path fill="#4D8FCC" d="M9.77 9.458l-.687 2.81h4.974l.687-2.81zM1.823 9.458l-.687 2.81H6.98l.687-2.81zM25.173 14.096H.687L0 16.906h24.487zM16.198 18.956h-8.32l-.687 2.81h8.32zM169.088 17.508c-.19 0-.36.16-.514.482-.153.321-.23.68-.23 1.073 0 .363.108.545.322.545.124 0 .243-.075.357-.223a1.71 1.71 0 0 0 .27-.597c.067-.249.101-.492.101-.731a.9.9 0 0 0-.075-.398c-.05-.1-.126-.15-.231-.15M161.206 17.321c-.152 0-.294.089-.426.265a1.235 1.235 0 0 0-.239.6h.109c.271 0 .484-.052.638-.158a.484.484 0 0 0 .232-.417.298.298 0 0 0-.075-.205c-.05-.056-.13-.085-.239-.085M156.533 16.285h-.235l-.224.998h.269c.219 0 .385-.048.497-.145.112-.096.168-.251.168-.464 0-.26-.158-.389-.475-.389M156.107 18.385h-.253l-.247 1.17h.306a.793.793 0 0 0 .536-.186.586.586 0 0 0 .215-.463c0-.175-.041-.305-.123-.392-.082-.086-.227-.13-.434-.13"/>
        <path fill="#4D8FCC" d="M170.22 20.716h-1.155l.038-.468h-.03c-.14.198-.29.338-.452.42a1.19 1.19 0 0 1-.55.125c-.393 0-.691-.142-.896-.425-.204-.283-.306-.69-.306-1.221 0-.455.091-.919.273-1.391.182-.473.411-.83.689-1.07a1.37 1.37 0 0 1 .92-.363c.21 0 .394.048.553.143.16.095.302.251.427.467h.03l.197-.534h1.158l-.896 4.317zm-3.825-3.208h-1.08l-.313 1.46c-.04.195-.06.328-.06.4 0 .16.078.24.235.24.165 0 .392-.06.684-.18v1.11c-.34.17-.762.255-1.27.255-.369 0-.648-.081-.84-.242-.19-.162-.285-.426-.285-.795 0-.193.03-.432.09-.716l.314-1.532h-.576l.154-.724.814-.335.511-.914h.964l-.183.864h1.076l-.235 1.11zm-4.089 1.19c-.39.274-.953.41-1.69.41h-.22v.061c0 .376.204.564.612.564.197 0 .39-.03.58-.09.188-.059.404-.154.646-.283v1.044c-.28.145-.54.246-.781.303-.242.057-.52.086-.837.086-.528 0-.939-.151-1.232-.452-.294-.3-.441-.72-.441-1.255 0-.536.104-1.02.312-1.45.208-.43.493-.757.855-.98a2.353 2.353 0 0 1 1.257-.333c.473 0 .845.11 1.117.328.271.219.407.51.407.872 0 .511-.195.903-.585 1.176zm-4.368-.483c.13.184.194.41.194.676 0 .582-.19 1.032-.57 1.35-.38.317-.918.475-1.615.475h-2.043l1.154-5.57h1.819c.54 0 .95.105 1.23.314.278.21.417.51.417.901 0 .732-.37 1.21-1.11 1.437v.03c.22.074.394.203.524.387zm13.523-6.551h-25.843c-1.83 0-3.312 1.512-3.312 3.378v5.86c0 1.865 1.483 3.378 3.312 3.378h25.843c1.829 0 3.312-1.513 3.312-3.378v-5.86c0-1.866-1.483-3.378-3.312-3.378z"/>
        <path fill="#000" d="M149.662 17.71h-2.484l2.342-2.386 1.242 1.265-1.1 1.12zm2.527-1.13l-2.66-2.708a.125.125 0 0 0-.18 0l-.538.547a.131.131 0 0 0 0 .182l.178.18-3.836 3.905c-.614.625-.713 1.647-.149 2.317.326.387.783.58 1.241.58.418 0 .835-.162 1.153-.487l3.898-3.966.177.179c.049.05.13.05.179 0l.537-.548a.13.13 0 0 0 0-.18z"/>
    </g>
</svg>
