<svg xmlns="http://www.w3.org/2000/svg" width="95" height="19" viewBox="0 0 95 19">
    <g fill="none" fill-rule="evenodd">
        <path fill="#4D8FCC" d="M0 4.737l4.238 2.427 3.993-2.302V0z"/>
        <path fill="#2F74B1" d="M12.238 11.751l-3.999 2.3.007 4.86 8.221-4.728V9.318zM8.231 4.862L12.23 7.16l4.226-2.432L8.231 0z"/>
        <path fill="#4D8FCC" d="M.013 14.193l8.234 4.718-.007-4.862-4.002-2.293z"/>
        <path fill="#2F74B1" d="M.013 14.193l4.225-2.437V7.164L0 4.737z"/>
        <path fill="#808285" d="M8.231 4.861L12.23 7.16v4.597L8.231 9.458z"/>
        <path fill="#58595B" d="M8.231 4.861L4.238 7.164v4.592l3.993-2.298V4.862"/>
        <path fill="#FFF" d="M27.925 12.362c-.857.842-1.964 1.233-3.13 1.233-3.023 0-4.379-2.074-4.391-4.254-.012-2.18 1.416-4.349 4.391-4.349 1.119 0 2.202.415 3.047 1.256l-.893.853a3.067 3.067 0 0 0-2.154-.853c-2.118 0-3.082 1.552-3.07 3.081.012 1.517.916 3.021 3.07 3.021.774 0 1.63-.32 2.214-.9l.916.912zM32.816 8.796l2.368-3.661h1.607v.059l-3.308 4.834v3.4h-1.334v-3.4l-3.213-4.834v-.06h1.583zM39.873 12.196h2.499c.738 0 1.761-.237 1.761-1.149 0-.888-.988-1.291-1.749-1.291h-2.511v2.44zm0-3.625h2.511c1 0 1.5-.391 1.5-1.043 0-.58-.512-1.197-1.512-1.197h-2.5v2.24zm2.499-3.436c1.583 0 2.833.722 2.833 2.37 0 .699-.37 1.326-1.155 1.646 1 .296 1.416 1.28 1.416 1.908 0 1.813-1.452 2.37-3.094 2.37h-3.82V5.135h3.82zM53.82 13.429h-6.152V5.135h6.116v1.291H49v2.24h4.594v1.232H49v2.227h4.82zM57.462 6.343v3.01h2.535c1.106 0 1.594-.7 1.594-1.481 0-.747-.488-1.529-1.583-1.529h-2.546zm5.855 7.086h-1.56l-2.534-2.868h-1.761v2.868h-1.334V5.123c1.298 0 2.583.012 3.88.012 1.928 0 2.94 1.315 2.94 2.713 0 1.185-.62 2.346-2.262 2.583l2.488 2.76.143.238z"/>
        <path fill="#2F74B1" d="M68.993 7.457l-1.07 2.642h2.13l-1.06-2.642zm1.857 4.61h-3.725l-.548 1.362h-2.499l3.737-8.294h2.38l3.725 8.294h-2.523l-.547-1.363zM77.538 7.007v1.99h1.737c.619 0 .892-.462.892-.96 0-.52-.297-1.03-.916-1.03h-1.713zm5.355 6.422h-2.594l-1.94-2.69h-.821v2.69h-2.357V5.135h4.07c2.13 0 3.237 1.362 3.237 2.855 0 1.02-.357 1.884-1.761 2.5l2.166 2.796v.143zM91.913 5.277l-3.38 3.922a305.72 305.72 0 0 1 3.666 4.088v.142h-2.916l-2.38-2.761v2.76h-2.357V5.136h2.357V7.86c.714-.877 1.488-1.849 2.19-2.725h2.82v.142zM93.88 4.116h-.105v.345h.103c.186 0 .237-.055.237-.18 0-.122-.086-.165-.234-.165m.398.943h-.098c-.02 0-.034-.006-.043-.02-.025-.045-.045-.083-.077-.137-.08-.128-.123-.2-.189-.27a.08.08 0 0 0-.063-.032h-.034v.402c0 .029-.023.054-.052.054h-.065a.056.056 0 0 1-.055-.054V4.03c0-.028.026-.05.055-.05h.274c.244 0 .36.139.36.298 0 .151-.085.291-.28.297.055.028.175.196.304.424.014.026.005.06-.037.06m-.355-1.365c-.447 0-.802.36-.802.83s.355.829.802.829c.446 0 .8-.36.8-.83s-.354-.829-.8-.829m0 1.798a.963.963 0 0 1-.973-.969c0-.552.44-.968.973-.968.53 0 .973.416.973.968a.965.965 0 0 1-.973.97"/>
    </g>
</svg>
