<svg xmlns="http://www.w3.org/2000/svg" width="22" height="29" viewBox="0 0 22 29">
    <g fill="none" fill-rule="evenodd">
        <g fill="#ff8300">
            <g>
                <path fill-rule="nonzero" d="M14.87 0c.416 0 .795.156 1.084.412l.015-.001.084.097c.036.038.07.078.103.12l4.863 5.627c.273.21.443.53.476.888l.005.127v18.622c0 .89-.72 1.608-1.556 1.608H1.632C.732 27.5 0 26.768 0 25.868V1.633C0 .733.733 0 1.632 0zm0 1.5H1.631c-.07 0-.132.06-.132.133v24.235c0 .07.061.132.132.132h18.312c.009 0 .056-.047.056-.108V7.499h-3.577c-.507 0-.906-.223-1.147-.583l-.068-.112c-.127-.236-.17-.458-.175-.653L15 1.631c0-.073-.058-.131-.13-.131z" transform="translate(-180 -143) translate(180 143.5)"/>
                <path d="M10.75 18.755c-.43 0-.6-.23-.6-.552l-.516-8.967c-.029-.416 0-.834 1.114-.834 1.214 0 1.138.489 1.115.814l-.542 8.976c0 .323-.125.563-.571.563M11.51 20.378c0 .42-.34.76-.76.76s-.76-.34-.76-.76.34-.76.76-.76.76.34.76.76" transform="translate(-180 -143) translate(180 143.5)"/>
            </g>
        </g>
    </g>
</svg>
