<svg xmlns="http://www.w3.org/2000/svg" width="28" height="27" viewBox="0 0 28 27">
    <g fill="none" fill-rule="evenodd">
        <g fill="#4d84b8" fill-rule="nonzero">
            <g>
                <path d="M25.75 0h-24C.786 0 0 .785 0 1.75v17c0 .965.786 1.75 1.75 1.75h24c.964 0 1.75-.785 1.75-1.75v-17C27.5.785 26.715 0 25.75 0zm-24 1.5h24c.136 0 .25.114.25.25v17c0 .136-.114.25-.25.25h-24c-.136 0-.25-.114-.25-.25v-17c0-.136.114-.25.25-.25z" transform="translate(-300 -144) translate(300 144)"/>
                <path d="M9.45 5.884c.293-.293.768-.293 1.06 0 .267.266.291.682.073.976l-.072.084-2.964 2.963 2.967 3c.264.268.286.685.067.978l-.074.083c-.267.265-.684.287-.976.067l-.084-.073-3.49-3.53c-.264-.266-.287-.681-.07-.974l.073-.083 3.49-3.491zM16.287 5.936c.268-.265.685-.287.977-.067l.084.073 3.49 3.53c.264.266.287.681.07.974l-.073.083-3.49 3.491c-.293.293-.768.293-1.06 0-.267-.266-.291-.682-.073-.976l.072-.084 2.963-2.964-2.966-3c-.264-.267-.286-.684-.067-.977l.073-.083zM13.922 4.348c.094-.403.497-.654.9-.56.37.085.612.43.578.799l-.016.1L12.85 15.61c-.094.404-.497.655-.9.561-.37-.085-.612-.431-.578-.799l.016-.1 2.534-10.924zM10.43 19.572c.098-.402.504-.649.906-.55.37.09.607.439.568.806l-.018.1-1.419 5.795c-.098.402-.504.648-.907.55-.368-.09-.606-.44-.567-.807l.017-.1 1.42-5.794zM15.458 19.022c.37-.09.741.109.876.453l.031.097 1.47 6c.099.402-.147.808-.55.907-.368.09-.74-.11-.876-.453l-.03-.097-1.47-6c-.1-.402.147-.808.55-.907z" transform="translate(-300 -144) translate(300 144)"/>
                <path d="M21.75 25c.414 0 .75.336.75.75 0 .38-.282.694-.648.744l-.102.006h-16c-.414 0-.75-.335-.75-.75 0-.38.282-.693.648-.743L5.75 25h16z" transform="translate(-300 -144) translate(300 144)"/>
            </g>
        </g>
    </g>
</svg>
