<svg xmlns="http://www.w3.org/2000/svg" width="22" height="29" viewBox="0 0 22 29">
    <g fill="none" fill-rule="evenodd">
        <g fill="#0089fc">
            <g>
                <path fill-rule="nonzero" d="M14.87 0H1.631C.732 0 0 .733 0 1.633v24.235c0 .9.733 1.632 1.632 1.632h18.312c.836 0 1.556-.717 1.556-1.608V7.27l-.005-.127C21.437 6.514 20.955 6 20.23 6l-3.698-.001-.032-4.374C16.5.73 15.77 0 14.87 0zM1.631 1.5H14.87c.073 0 .131.058.131.13l.033 4.521c.004.195.048.417.175.653l.068.112c.24.36.64.584 1.147.584L20 7.499v18.393c0 .06-.047.108-.056.108H1.632c-.071 0-.132-.061-.132-.132V1.633c0-.072.061-.133.132-.133z" transform="translate(-436 -143) translate(436 143.5)"/>
                <path d="M20.14 6.165h-4.196c-.39 0-.708-.318-.708-.708V1.26c0-.39.343-.85.733-.85l5.205 6.026c0 .704-.645-.272-1.034-.272M5.758 12.088c-.437 0-.786.143-1.046.428-.26.284-.413.678-.46 1.18H7.1c0-.52-.116-.916-.348-1.194-.232-.276-.563-.415-.993-.415m.223 4.951c-.804 0-1.44-.244-1.905-.733-.464-.49-.697-1.171-.697-2.041 0-.878.216-1.574.648-2.091.433-.518 1.012-.775 1.74-.775.682 0 1.222.223 1.619.671.398.45.597 1.042.597 1.777v.521h-3.75c.017.638.178 1.123.484 1.454.307.333.738.496 1.294.496.586 0 1.165-.122 1.738-.366v.736c-.291.125-.567.215-.826.27-.261.055-.574.081-.942.081M9.065 16.414c0-.222.05-.391.152-.504.1-.115.245-.172.434-.172.192 0 .342.057.45.172.107.113.16.282.16.504 0 .216-.054.38-.163.496-.11.116-.258.175-.447.175-.17 0-.31-.053-.42-.157-.11-.104-.166-.276-.166-.514M12.249 13.239c0 .382.108.67.323.866.215.195.515.292.899.292.804 0 1.207-.39 1.207-1.172 0-.817-.408-1.225-1.222-1.225-.388 0-.686.103-.894.31-.209.21-.313.519-.313.929zm-.447 4.614c0 .296.124.519.373.67.248.153.604.23 1.067.23.692 0 1.204-.103 1.538-.311.332-.207.498-.487.498-.841 0-.295-.091-.5-.273-.614-.182-.114-.525-.172-1.028-.172h-.988c-.374 0-.665.09-.874.27-.209.178-.313.434-.313.768zm4.341-6.356v.522l-1.009.119c.094.116.176.267.249.455.073.187.109.397.109.632 0 .534-.182.959-.546 1.278-.364.317-.864.476-1.5.476-.163 0-.314-.014-.457-.04-.351.185-.527.419-.527.699 0 .15.061.26.184.33.123.073.333.108.631.108h.964c.589 0 1.042.123 1.357.373.317.247.475.608.475 1.08 0 .605-.242 1.064-.725 1.38-.483.316-1.188.475-2.116.475-.711 0-1.26-.132-1.646-.398-.385-.266-.579-.64-.579-1.122 0-.331.106-.617.318-.858.213-.244.51-.407.894-.494-.139-.062-.256-.16-.349-.293-.096-.132-.142-.285-.142-.461 0-.2.053-.373.159-.521.105-.15.273-.294.501-.433-.282-.116-.511-.313-.687-.591-.178-.28-.266-.596-.266-.953 0-.597.178-1.055.536-1.378.358-.323.864-.485 1.52-.485.284 0 .541.033.769.1h1.883zM16.937 16.414c0-.222.05-.391.152-.504.1-.115.245-.172.434-.172.192 0 .342.057.45.172.107.113.161.282.161.504 0 .216-.055.38-.164.496-.109.116-.258.175-.447.175-.169 0-.309-.053-.42-.157-.11-.104-.166-.276-.166-.514" transform="translate(-436 -143) translate(436 143.5)"/>
            </g>
        </g>
    </g>
</svg>
