<svg xmlns="http://www.w3.org/2000/svg" width="23" height="29" viewBox="0 0 23 29">
    <g fill="none" fill-rule="evenodd">
        <g>
            <g>
                <g fill="#1b9e91" fill-rule="nonzero">
                    <path d="M16.662 10.118c.414 0 .75.336.75.75 0 .38-.283.694-.649.743l-.101.007H4.84c-.415 0-.75-.336-.75-.75 0-.38.282-.693.648-.743l.102-.007h11.822zM10.843 6.524c.414 0 .75.336.75.75 0 .38-.283.694-.649.744l-.101.006H4.84c-.415 0-.75-.335-.75-.75 0-.38.282-.693.648-.743l.102-.007h6.003zM16.662 13.712c.414 0 .75.336.75.75 0 .38-.283.693-.649.743l-.101.007H4.84c-.415 0-.75-.336-.75-.75 0-.38.282-.694.648-.743l.102-.007h11.822zM16.662 17.306c.414 0 .75.335.75.75 0 .38-.283.693-.649.743l-.101.007H4.84c-.415 0-.75-.336-.75-.75 0-.38.282-.694.648-.743l.102-.007h11.822zM16.662 20.898c.414 0 .75.336.75.75 0 .38-.283.694-.649.744l-.101.006H4.84c-.415 0-.75-.335-.75-.75 0-.38.282-.693.648-.743l.102-.007h11.822z" transform="translate(-50 -143) translate(50.5 143) translate(0 .5)"/>
                    <path d="M14.87.5c.416 0 .796.156 1.084.412h.015l.082.094c.037.039.072.08.105.122l4.862 5.628c.274.21.444.53.476.887l.006.127v18.622c0 .89-.72 1.608-1.555 1.608H1.633C.733 28 0 27.268 0 26.368V2.133C0 1.233.733.5 1.633.5zm0 1.5H1.633c-.072 0-.133.061-.133.133v24.235c0 .071.06.132.133.132h18.312c.008 0 .055-.047.055-.108V7.999L16.423 8c-.507 0-.907-.224-1.147-.583l-.068-.112c-.128-.237-.17-.459-.175-.653L15 2.13c0-.072-.059-.131-.13-.131z" transform="translate(-50 -143) translate(50.5 143) translate(0 .5)"/>
                </g>
            </g>
        </g>
    </g>
</svg>
