<svg xmlns="http://www.w3.org/2000/svg" width="24" height="28" viewBox="0 0 24 28">
    <g fill="none" fill-rule="evenodd">
        <g stroke="#1b9e91" stroke-width="1.5">
            <g>
                <path stroke-linecap="round" d="M13.706 21.015L4.734 21.015" transform="translate(-49 -145) translate(49 145) matrix(-1 0 0 1 19.16 0)"/>
                <path stroke-linecap="round" d="M14.567 27.038l-12.287.04c-.744 0-1.347-.603-1.347-1.347V2.826c0-.744.603-1.348 1.347-1.348h17.516c.744 0 1.347.604 1.347 1.348v9.431" transform="translate(-49 -145) translate(49 145) matrix(1 0 0 -1 0 28.557)"/>
                <path stroke-linejoin="round" d="M22.57 3.02c.829.83.835 2.173.014 3.01l-9.724 9.914c-.144.147-.33.246-.532.283l-3.562.657h0l.813-3.438c.042-.178.132-.34.26-.47l9.75-9.94c.811-.828 2.14-.84 2.966-.03l.015.015z" transform="translate(-49 -145) translate(49 145)"/>
                <path d="M18.352 4.658L21.388 7.695" transform="translate(-49 -145) translate(49 145)"/>
            </g>
        </g>
    </g>
</svg>
