<svg xmlns="http://www.w3.org/2000/svg" width="17" height="29" viewBox="0 0 17 29">
    <g fill="none" fill-rule="evenodd">
        <g>
            <g>
                <path fill="#fff" d="M16.076 8.414c0 2.508-1.653 4.281-3.067 6.132-1.574 2.06.443 5.828-1.825 5.828l-5.364-.002c-2.39 0-.417-3.881-1.909-5.756-1.932-2.43-3.16-3.652-3.16-6.202C.75 4.182 4.18.75 8.412.75c4.232 0 7.663 3.43 7.663 7.663" transform="translate(-571 -143) translate(571 143.5)"/>
                <path fill="#81719b" fill-rule="nonzero" d="M8.413 0C3.766 0 0 3.768 0 8.415c0 1.401.333 2.513 1.048 3.672.228.37.493.745.84 1.196l.243.312 1.193 1.488c.35.44.472 1.09.466 2.22l-.011 1.094.006.34c.015.47.063.766.172 1.095.273.822.915 1.29 1.863 1.29l5.364.003c.907 0 1.522-.456 1.774-1.25.088-.28.13-.53.146-.898l.006-.3-.002-.358-.019-.912v-.357l.006-.215c.032-.826.184-1.407.51-1.833l.76-.978.412-.542c1.495-2.009 2.05-3.251 2.05-5.067C16.826 3.767 13.058 0 8.412 0zm0 1.5c3.818 0 6.913 3.096 6.913 6.914 0 1.284-.376 2.244-1.436 3.737l-.339.464-.381.502-.685.88-.072.093c-.502.658-.734 1.437-.802 2.415l-.02.394-.003.373.007.464.014.73v.276l-.009.223-.016.18c-.006.054-.014.103-.024.149l-.033.127c-.055.174-.093.203-.343.203l-5.364-.002c-.298 0-.37-.052-.44-.264-.043-.13-.07-.278-.085-.49l-.012-.234-.004-.29.011-1.03c.007-1.456-.166-2.38-.792-3.165l-1.25-1.56-.32-.417-.27-.37c-.125-.177-.234-.342-.333-.503-.573-.93-.825-1.77-.825-2.885C1.5 4.595 4.595 1.5 8.413 1.5z" transform="translate(-571 -143) translate(571 143.5)"/>
                <path fill="#81719b" d="M10.197 25.832c.26 0 .416.292.267.508-.307.444-.924 1.02-2.06 1.02-1.091 0-1.716-.569-2.037-1.01-.156-.214-.002-.512.262-.513l3.568-.005zM11.821 23.136h-6.96c-.223 0-.404-.182-.404-.403v-.615c0-.22.181-.402.403-.402h6.961c.222 0 .403.181.403.402v.615c0 .221-.18.403-.403.403M11.34 25.063H5.216c-.22 0-.403-.182-.403-.403v-.615c0-.221.182-.402.403-.402h6.122c.222 0 .403.18.403.402v.615c0 .22-.18.403-.403.403" transform="translate(-571 -143) translate(571 143.5)"/>
                <path fill="#81719b" fill-rule="nonzero" d="M8.279 2.582c2.01 0 3.867.928 5.078 2.484.254.327.195.798-.131 1.052-.327.255-.798.196-1.053-.13-.93-1.195-2.352-1.906-3.894-1.906-.414 0-.75-.335-.75-.75 0-.414.336-.75.75-.75z" transform="translate(-571 -143) translate(571 143.5)"/>
            </g>
        </g>
    </g>
</svg>
