<svg xmlns="http://www.w3.org/2000/svg" xmlns:xlink="http://www.w3.org/1999/xlink" xmlns:lucid="lucid" width="1659" height="1359"><g transform="translate(-1851 -1124)" lucid:page-tab-id="0_0"><path d="M1900 1163a6 6 0 0 1 6-6h1551a6 6 0 0 1 6 6v222.85a6 6 0 0 1-6 6H1906a6 6 0 0 1-6-6z" fill="#e0e8f5"/><path d="M1921 1157h14.97m7.5 0h14.98m7.5 0h14.98m7.5 0h14.98m7.5 0h14.98m7.5 0h14.98m7.5 0h14.98m7.5 0h14.98m7.5 0h14.98m7.5 0h14.97m7.5 0h14.98m7.5 0h14.98m7.5 0h14.98m7.5 0h15m7.48 0h15m7.48 0h15m7.48 0h14.98m7.5 0h14.98m7.5 0h14.98m7.5 0h14.98m7.5 0h14.98m7.5 0H2408m7.5 0h15m7.5 0h14.97m7.5 0h14.98m7.5 0h14.98m7.5 0h14.98m7.5 0h14.98m7.5 0h14.98m7.5 0h14.98m7.5 0h14.98m7.5 0h14.98m7.5 0h14.97m7.5 0h14.98m7.5 0h14.98m7.5 0h14.98m7.5 0h15m7.48 0h15m7.48 0h15m7.48 0h14.98m7.5 0h14.98m7.5 0h14.98m7.5 0h14.98m7.5 0h14.98m7.5 0H2925m7.5 0h15m7.5 0h14.97m7.5 0h14.98m7.5 0h14.98m7.5 0h14.98m7.5 0h14.98m7.5 0h14.98m7.5 0h14.98m7.5 0h14.98m7.5 0h14.98m7.5 0h14.97m7.5 0h14.98m7.5 0h14.98m7.5 0h14.98m7.5 0h15m7.48 0h15m7.48 0h14.98m7.5 0h14.98m7.5 0h14.98m7.5 0h14.98m7.5 0h14.98m7.5 0h14.98m7.5 0H3442m7.5 0h7.5l.94.07.9.22.88.35.8.5.72.6.6.72.5.8.37.87.23.9.07.95v7.42m0 7.43v14.86m0 7.44V1215m0 7.42v14.86m0 7.43v14.86m0 7.43v14.85m0 7.43v14.85m0 7.43v14.86m0 7.43v14.85m0 7.43V1371m0 7.42v7.43l-.07.93-.22.92-.36.87-.5.8-.6.72-.7.6-.82.5-.87.35-.9.22-.95.08h-7.5m-7.5 0h-14.97m-7.5 0h-14.98m-7.5 0h-14.98m-7.5 0h-14.98m-7.5 0h-15m-7.48 0h-14.98m-7.5 0h-14.98m-7.5 0h-14.98m-7.5 0h-14.98m-7.5 0h-14.98m-7.5 0h-14.97m-7.5 0h-14.98m-7.5 0h-14.98m-7.5 0h-15m-7.48 0h-15m-7.48 0h-15m-7.48 0h-14.98m-7.5 0h-14.98m-7.5 0h-14.98m-7.5 0h-14.98m-7.5 0h-14.98m-7.5 0H2955m-7.5 0h-15m-7.5 0h-14.97m-7.5 0h-14.98m-7.5 0h-14.98m-7.5 0h-14.98m-7.5 0h-14.98m-7.5 0h-14.98m-7.5 0h-14.98m-7.5 0h-14.98m-7.5 0h-14.98m-7.5 0h-14.98m-7.5 0h-14.97m-7.5 0h-14.98m-7.5 0h-14.98m-7.5 0h-15m-7.48 0h-15m-7.48 0h-15m-7.48 0h-14.98m-7.5 0h-14.98m-7.5 0h-14.98m-7.5 0h-14.98m-7.5 0h-14.98m-7.5 0H2438m-7.5 0h-15m-7.5 0h-14.97m-7.5 0h-14.98m-7.5 0h-14.98m-7.5 0h-14.98m-7.5 0h-14.98m-7.5 0h-14.98m-7.5 0h-14.98m-7.5 0h-14.98m-7.5 0h-14.98m-7.5 0h-14.97m-7.5 0h-14.98m-7.5 0h-14.98m-7.5 0h-14.98m-7.5 0h-15m-7.48 0h-15m-7.48 0h-15m-7.48 0h-14.98m-7.5 0h-14.98m-7.5 0h-14.98m-7.5 0h-14.98m-7.5 0h-14.98m-7.5 0H1921m-7.5 0h-7.5l-.94-.08-.9-.22-.88-.36-.8-.5-.72-.6-.6-.73-.5-.8-.37-.87-.23-.92-.07-.93v-7.43m0-7.43v-14.87m0-7.43v-14.85m0-7.43v-14.86m0-7.43v-14.85m0-7.43V1267m0-7.44v-14.85m0-7.42v-14.86m0-7.43v-14.86m0-7.43v-14.85m0-7.43V1163l.07-.94.22-.92.35-.87.5-.8.6-.72.72-.6.8-.5.88-.36.9-.23.95-.08h7.5" stroke="#2f3564" stroke-width="1.5" fill="none"/><path d="M1900 1426a6 6 0 0 1 6-6h1551a6 6 0 0 1 6 6v222.85a6 6 0 0 1-6 6H1906a6 6 0 0 1-6-6z" fill="#e0e8f5"/><path d="M1921 1420h14.97m7.5 0h14.98m7.5 0h14.98m7.5 0h14.98m7.5 0h14.98m7.5 0h14.98m7.5 0h14.98m7.5 0h14.98m7.5 0h14.98m7.5 0h14.97m7.5 0h14.98m7.5 0h14.98m7.5 0h14.98m7.5 0h15m7.48 0h15m7.48 0h15m7.48 0h14.98m7.5 0h14.98m7.5 0h14.98m7.5 0h14.98m7.5 0h14.98m7.5 0H2408m7.5 0h15m7.5 0h14.97m7.5 0h14.98m7.5 0h14.98m7.5 0h14.98m7.5 0h14.98m7.5 0h14.98m7.5 0h14.98m7.5 0h14.98m7.5 0h14.98m7.5 0h14.97m7.5 0h14.98m7.5 0h14.98m7.5 0h14.98m7.5 0h15m7.48 0h15m7.48 0h15m7.48 0h14.98m7.5 0h14.98m7.5 0h14.98m7.5 0h14.98m7.5 0h14.98m7.5 0H2925m7.5 0h15m7.5 0h14.97m7.5 0h14.98m7.5 0h14.98m7.5 0h14.98m7.5 0h14.98m7.5 0h14.98m7.5 0h14.98m7.5 0h14.98m7.5 0h14.98m7.5 0h14.97m7.5 0h14.98m7.5 0h14.98m7.5 0h14.98m7.5 0h15m7.48 0h15m7.48 0h14.98m7.5 0h14.98m7.5 0h14.98m7.5 0h14.98m7.5 0h14.98m7.5 0h14.98m7.5 0H3442m7.5 0h7.5l.94.07.9.22.88.35.8.5.72.6.6.72.5.8.37.88.23.9.07.95v7.43m0 7.43v14.85m0 7.44V1478m0 7.43v14.85m0 7.43v14.87m0 7.43v14.85m0 7.43v14.86m0 7.43v14.86m0 7.42v14.86m0 7.44V1634m0 7.42v7.43l-.07.94-.22.9-.36.88-.5.8-.6.7-.7.63-.82.5-.87.36-.9.22-.95.07h-7.5m-7.5 0h-14.97m-7.5 0h-14.98m-7.5 0h-14.98m-7.5 0h-14.98m-7.5 0h-15m-7.48 0h-14.98m-7.5 0h-14.98m-7.5 0h-14.98m-7.5 0h-14.98m-7.5 0h-14.98m-7.5 0h-14.97m-7.5 0h-14.98m-7.5 0h-14.98m-7.5 0h-15m-7.48 0h-15m-7.48 0h-15m-7.48 0h-14.98m-7.5 0h-14.98m-7.5 0h-14.98m-7.5 0h-14.98m-7.5 0h-14.98m-7.5 0H2955m-7.5 0h-15m-7.5 0h-14.97m-7.5 0h-14.98m-7.5 0h-14.98m-7.5 0h-14.98m-7.5 0h-14.98m-7.5 0h-14.98m-7.5 0h-14.98m-7.5 0h-14.98m-7.5 0h-14.98m-7.5 0h-14.98m-7.5 0h-14.97m-7.5 0h-14.98m-7.5 0h-14.98m-7.5 0h-15m-7.48 0h-15m-7.48 0h-15m-7.48 0h-14.98m-7.5 0h-14.98m-7.5 0h-14.98m-7.5 0h-14.98m-7.5 0h-14.98m-7.5 0H2438m-7.5 0h-15m-7.5 0h-14.97m-7.5 0h-14.98m-7.5 0h-14.98m-7.5 0h-14.98m-7.5 0h-14.98m-7.5 0h-14.98m-7.5 0h-14.98m-7.5 0h-14.98m-7.5 0h-14.98m-7.5 0h-14.97m-7.5 0h-14.98m-7.5 0h-14.98m-7.5 0h-14.98m-7.5 0h-15m-7.48 0h-15m-7.48 0h-15m-7.48 0h-14.98m-7.5 0h-14.98m-7.5 0h-14.98m-7.5 0h-14.98m-7.5 0h-14.98m-7.5 0H1921m-7.5 0h-7.5l-.94-.07-.9-.22-.88-.36-.8-.5-.72-.6-.6-.72-.5-.8-.37-.87-.23-.9-.07-.95v-7.43m0-7.43v-14.86m0-7.43v-14.85m0-7.42v-14.86m0-7.43v-14.86m0-7.43V1530m0-7.43v-14.86m0-7.42v-14.85m0-7.43v-14.86m0-7.43v-14.84m0-7.43V1426l.07-.94.22-.9.35-.88.5-.8.6-.72.72-.6.8-.5.88-.37.9-.23.95-.07h7.5" stroke="#2f3564" stroke-width="1.5" fill="none"/><path d="M2576.95 1274.42h36.8" stroke="#6c6e83" stroke-width="1.5" fill="none"/><path d="M2576.97 1275.17h-.77v-1.5h.77z" stroke="#6c6e83" stroke-width=".05" fill="#6c6e83"/><path d="M2628.78 1274.42l-14.27 4.63v-9.26z" stroke="#6c6e83" stroke-width="1.5" fill="#6c6e83"/><path d="M2892.45 1274.42h37.3" stroke="#6c6e83" stroke-width="1.5" fill="none"/><path d="M2892.47 1275.17h-.77v-1.5h.77z" stroke="#6c6e83" stroke-width=".05" fill="#6c6e83"/><path d="M2944.78 1274.42l-14.27 4.63v-9.26z" stroke="#6c6e83" stroke-width="1.5" fill="#6c6e83"/><path d="M1996.73 1537.43a19.5 19.5 0 0 1 19.5-19.5h101a19.5 19.5 0 0 1 19.5 19.5 19.5 19.5 0 0 1-19.5 19.5h-101a19.5 19.5 0 0 1-19.5-19.5z" stroke="#6c6e83" fill="#fff"/><path d="M2060.07 1525h100v23h-100z" fill="none"/><use xlink:href="#a" transform="matrix(1,0,0,1,2060.0675455223386,1525) translate(0 17.880208333333332)"/><path d="M1987.73 1586.9c27.6 0 50-22.3 50-49.98 0-27.56-22.4-49.98-50-49.98s-50 22.42-50 49.98c0 27.67 22.4 49.98 50 49.98z" stroke="#6c6e83" fill="#a2c6f6"/><path d="M1987.73 1585.8c26.9 0 48.8-21.82 48.8-48.78s-21.9-48.77-48.8-48.77c-27 0-48.8 21.8-48.8 48.77 0 26.96 21.8 48.77 48.8 48.77z" stroke="#000" stroke-opacity="0" fill="#a2c6f6"/><path d="M2008.63 1515.3c0-.2-.1-.4-.1-.6.2-.4.2-.8.2-1.2 0-1-.7-1.82-1.3-2.63-.7-1-1.4-2.02-2.2-2.83-.4-.4-.8-.8-1.2-1-.6-.3-1.1-.4-1.6-1-1-1.53-2.1-2.64-3.8-3.25-1.1-.4-2.3-.4-3.5-.3-.6-.72-1.7-1.12-2.8-1.12-.7-.1-1.5.2-2.3.1-.6-.1-1-.5-1.6-.6-1.2-.2-2.5.1-3.6.4-1.3.4-2.3 1-3.5 1.72-.7.4-1.4.2-2.2.3-.5 0-1 .2-1.5.4-1.8.8-2.9 2.43-3.4 4.24-1.2.1-2.2.6-3 1.42-1.4 1.4-1.4 3.03-1.3 4.84 0 .7 0 1.32-.2 1.92-.1.6-.3 1.1-.5 1.62-.3 1.1-.2 2.12 0 3.23l.9 5.75c-.4.9-.3 2.12.4 3.03.2.2.6.5.9.7.5.4 1 .92 1.4 1.52.5.8 1.1 1.62 1.8 2.33 3 2.92 7.3 3.83 11.4 3.53 2.5-.2 4.8-1 7.3-1.2 1.2-.1 2.4-.1 3.6-.32 1.1-.3 2.1-.7 3-1.2 3.6-1.7 6.9-4.84 7.3-8.98 0-.8 0-1.52.3-2.22.2-.5.5-1 .7-1.52.3-1.1-.3-2.42 0-3.63.2-1.1.5-2.22.4-3.44z" stroke="#000" stroke-opacity="0" fill="#33261a"/><path d="M2009.23 1567.4c-3.6-2.2-8.8-3.12-10.6-7.36-.9-2.32-.5-5.15-.5-7.57v-7.37c0-.3-.4-.4-.5-.1-1 1.4-4 1.3-5.5 1.4-1.7.1-3.5.2-5.3.2-3.1 0-6.7.32-9.5-1.2 0-.4-.1-.7-.1-1.1 0-.3-.6-.3-.6 0 0 .4.1.7.1 1.1-.1 0-.1.1-.1.1 0 .1.1.2.1.2.1 1.12.1 2.23.2 3.34.2 2.92.3 5.85.3 8.78.1.9.1 1.92.1 2.83-.9 1.92-2.3 3.73-3.9 5.25-1.3 1.2-2.7 2.32-4.2 3.23-1.1.8-2.5 1.3-3.3 2.52v.2c0 .1.1.1.1.2 3.4 1.62 6.9 3.14 10.5 4.55 3.3 1.2 7.1 2.93 10.8 2.53 1.6-.2 2.9-.9 4.3-1.72 1.7-1 3.4-1.9 5.1-2.82.8-.5 1.6-.9 2.4-1.3 3.3-.2 6.5-1.12 9.5-2.54.6-.3 1.7-.6 2.1-1.2.8-1.02-.8-1.72-1.5-2.13z" stroke="#000" stroke-opacity="0" fill="#b86554"/><path d="M2002.03 1539.65c.2-.8.3-1.62.5-2.53 0-.2 0-.3.1-.5l.3-1.52c0-.3.1-.6.1-.9.1-.8.2-1.52.4-2.23l.3-2.32c.9-6.56 1.4-12.32 1.2-12.82-.8-2.22-2.3-3.23-4-4.54-.3-.32-.6-.52-.9-.72-.3-.2-.5-.4-.8-.6-1.7-1.52-4.2-1.93-6.4-2.03-5.2-.2-10.2 0-14.8 2.53-.7.3-1.3.7-1.9 1.2-.1.1-.3.2-.5.3-.6.62-1.2 1.22-1.7 2.03-.5.72-.8 1.53-.9 2.43-.2 1.22-.1 2.43-.4 3.74v.2c-.2 1-.2 3.74-.1 6.97V1530.66c.1.8.1 1.62.1 2.42.1.7.1 1.52.2 2.23v.6c.1.52.1.92.1 1.42.1.4.1.9.2 1.32.2 1.7.4 3.03.7 4.04.6 2.22 1.6 4.34 3 6.26 1.9 2.52 4.4 4.54 7.4 5.25 1.2.4 2.5.5 3.8.4.8-.1 1.6-.2 2.3-.4.5-.1 1-.22 1.5-.42 1.6-.4 3.1-1.2 4.4-2.22 1.8-1.4 3.2-3.33 4.1-5.55.6-1.5 1.2-3.83 1.7-6.35z" stroke="#000" stroke-opacity="0" fill="#b86554"/><path d="M2006.53 1529.35c-.4-1.52-2.1-2.32-3.1-.8-.1.2.1.4.3.4-.8 1.4-1.3 3.02-1.8 4.64-.3 1.1-1.1 2.92-.8 4.13.5 2.12 3.3-.2 4-1 1.7-2.03 2-4.96 1.4-7.38zM1970.03 1534.6c.5.9 3 3.53 3.8 1.5.4-1.2-.1-3.02-.3-4.23-.2-1.7.1-2.82-.5-4.34.2 0-.2-.6-.3-.9-.8-1.62-2.6-1.02-3.2.4-.9 2.42-1 5.35.5 7.57z" stroke="#000" stroke-opacity="0" fill="#b86554"/><path d="M1997.03 1530.76c.1-.6.2-1.2.1-1.7 0-.32-.1-.62-.3-.82-.6-.6-1.3-.1-1.4.5-.3.8-.3 2.53.4 2.93.7.4 1-.1 1.2-.9zM1980.83 1529.95c.1-.5.2-1.1.1-1.7 0-.32-.2-.52-.3-.72-.6-.6-1.3-.1-1.4.5-.3.8-.3 2.43.4 2.83.8.4 1.1-.1 1.2-.9z" stroke="#000" stroke-opacity="0" fill="#33261a"/><path d="M2004.63 1530.16v-.1c0-.1 0-.1-.1-.2h-.2-.1c-.1 0-.1.1-.1.1-.1 0-.1.1-.1.1V1530.36l-.3 1.2c-.1.4-.5.92-.4 1.32 0 .2.1.3.2.4.2.4.3.7.3 1.12 0 .4-.4 1.7-1 1.4-.4-.1-.7.4-.3.52 1 .5 1.8-.9 1.9-1.82 0-.2 0-.5-.1-.7 0-.3-.4-.62-.4-.92-.1-.3.3-.9.4-1.2l.3-1.52zM1972.53 1534.1c-1-.9-1.2-1.62-.4-2.23l.4-.4c.1-.2.1-.3.1-.5.1-1.02-.4-2.23-.7-3.24-.1-.3-.7-.2-.6.2.2.7.9 2.53.7 3.13-.2.6-.8.8-1 1.42-.2 1 .4 1.82 1.3 2.12.4.1.5-.4.2-.5zM1994.03 1553.78c-.3-.5-1.4-.2-3.1.5-2.6.92-6.2.1-8.6-1-1.9-.9-3.9-2.63-5.4-4.34.2 3.02.3 5.95.3 8.88h.6c1.2 0 2.4.6 3.6.7 1 0 1.8-.5 2.7-.7 1.2-.4 2.4 0 3.7-.2.9-.1 1.8-.6 2.6-1.1 1-.62 4.2-1.32 3.6-2.74zM1990.73 1536.52c-.2-1.52-.4-3.13-.7-4.65-.1-.4-.7-.3-.6 0 .4 2.02.7 4.14.9 6.16 0 .7.3 1.2-.6 1.62-.6.3-1.5.2-2.1.1-.8-.1-1.4-.1-2.2-.1-.4.1-.4.7 0 .6 1.4-.1 4.6.9 5.4-.7.4-.8 0-2.22-.1-3.03z" stroke="#000" stroke-opacity="0" fill="#9c4736"/><path d="M1975.63 1524.7c.1.6.8.8 1.4.8 1.4.2 2.9 0 4.3 0 .8 0 2.6.32 3.3-.3 1.5-1.2-1.5-2-2.3-2.1-1.4-.2-2.8-.2-4.2.1-.5.1-2.7.9-2.5 1.5zM1999.63 1524.2c-1.3-.3-2.8-.4-4.2-.3-.7.1-3.8.7-2.3 2 .6.62 2.4.42 3.2.42 1.5.1 2.9.3 4.4.3.5 0 1.2-.2 1.4-.8.3-.6-1.9-1.52-2.5-1.62z" stroke="#000" stroke-opacity="0" fill="#33261a"/><path d="M1985.13 1543.38c-.6-.1-1.3-.3-1.9-.6-.1 0-1-.2-1.1-.4.2.6.9 1.3 1.3 1.8.9 1.22 1.7 1.63 3.1 1.73 1.6.1 3.5-.1 4.9-1 0 0 1.6-1.1 1.8-2.22-.1.2-2 .6-2.9.8-.8.1-3.4.2-5.2-.1z" stroke="#000" stroke-opacity="0" fill="#9c4736"/><path d="M2015.63 1572.97l-.3-4.14v-.1h-.1l-4.3-1.82c-1.4-.6-7.2-2.1-7.2-2.1s-13 11.1-14.5 11.4c-1.6.3-15.4-10.6-15.4-10.6s-5.7 1.8-7.3 2.92c-2.9 2.12-2.1 5.76-1.9 8.8 2.4 14.63 49.9 12.1 51-4.35z" stroke="#000" stroke-opacity="0" fill="#fff8f0"/><path d="M1968.23 1583.37s.3 1.3.7-1.2c.7-4.96 2.2-15.66 2.1-15.66-.2 0-.4 0-.5.1h-.1c-4.9 1.12-9.6 4.55-14.3 6.57-3.5 1.4-1.3 1.6-1.3 1.6l13.4 8.6zM2023.03 1570.54c-1.7-1.3-3.6-1.9-5.6-2.52-2.5-.7-4.5-.9-6.9-1.62-.6-.2-3.3-.7-3.3-.7 0 6.26-1.2 18.37 0 17.67 8.5-4.85 16.6-10.1 15.8-12.83z" stroke="#000" stroke-opacity="0" fill="#456664"/><path d="M1977.83 1584.68c-.5-1-1-2.02-1.3-3.13l-.1-.1c-.1 0-.1 0-.1-.1h-.2c0 .1-.1.1-.1.1-1 1-1.9 1.92-2.8 3.03-.2.3.2.7.5.4.7-.9 1.5-1.82 2.4-2.62.3.9.7 1.8 1.2 2.72.2.3.7 0 .5-.3zM2004.13 1577.4c-.5-.9-1-1.7-1.5-2.52-.2-.3-.4-.6-.8-.5-.5 0-1 .7-1.3 1-.6.62-1.2 1.32-1.7 2.03-.2.3.2.72.5.4.6-.9 1.3-1.7 2.1-2.5.4-.3.3-.3.7-.1.2.2.3.6.5.8.3.5.7 1.1 1 1.7.2.32.7 0 .5-.3zM1994.43 1587c-.5-.9-.9-1.92-1.4-2.72-.2-.2-.4-.5-.8-.4-.4 0-.9.8-1.1 1.1l-2 2.42c-.3.3.2.7.4.4.8-1 1.5-2.2 2.5-3.02.2-.2.1-.3.5-.1.1 0 .3.6.4.8l1 1.82c.2.3.7 0 .5-.3zM1976.73 1571.65c-.3-.7-.7-1.5-1.1-2.22-.2-.4-.6-1.2-1.1-1.2-.5-.1-1 .6-1.3.9-.7.6-1.4 1.3-2 2.12-.3.3.2.7.4.4.4-.5.7-.9 1.1-1.2.3-.4.9-1.12 1.3-1.32.7-.3.9.4 1.2.9.4.6.7 1.22.9 1.83.2.4.7.2.6-.2z" stroke="#000" stroke-opacity="0" fill="#aeb5c2"/><path d="M2005.83 1516.53c-.3-.7-.9-1.32-1.4-2.02-.7-.7-1.3-1.5-2-2.1-1.4-1.43-2.9-2.54-4.7-3.35-3.6-1.5-7.7-1.3-11.4-.6-2.1.5-4.2 1.1-6.3 1.82-1.7.6-3.5 1.1-4.9 2.22-3.5 3.02-2.5 8.16-3.4 12.1v.1h.1c.3 1.12.4 2.22.8 3.23.1.4.4.8.8.7.6-.3.6-1.5.7-2 .1-1.12 0-2.23.3-3.34.4-1.02.4-1.93.6-2.94.2-1.3.7-2.22 1.5-3.23 1.3-1.5 2.4-3.23 3.1-5.15.4.1.7.1 1.1.1.9 0 1.8 0 2.6.1 1.8 0 3.7.1 5.5.1 3.6.2 7.1.6 10.7 1h.1c2.4 1.13 2.1 4.86 2.4 7.08.2 1.52.4 3.03.8 4.55.1.8 0 1.62 0 2.43-.1.7-.3 1.4-.4 2.12 0 .3 0 .6.3.7.5.5.8-.3.9-.7.2-.5.4-1.1.6-1.72.3-.5.5-1.1.6-1.7.2-1.12.3-2.23.5-3.35.2-1 .3-2.12.5-3.13.1-1 .3-2 0-3.02z" stroke="#000" stroke-opacity="0" fill="#33261a"/><path d="M1987.73 1586.9c27.6 0 50-22.3 50-49.98 0-27.56-22.4-49.98-50-49.98s-50 22.42-50 49.98c0 27.67 22.4 49.98 50 49.98z" stroke="#6c6e83" fill-opacity="0"/><path d="M2255.7 1518.28a6 6 0 0 1 6-6h243.5a6 6 0 0 1 6 6v38.3a6 6 0 0 1-6 6h-243.5a6 6 0 0 1-6-6z" stroke="#6c6e83" fill="#fff"/><path d="M2304.37 1525.93h206.83v23h-206.83z" fill="none"/><use xlink:href="#b" transform="matrix(1,0,0,1,2304.3741012521123,1525.929882836208) translate(0 17.880208333333336)"/><use xlink:href="#c" transform="matrix(1,0,0,1,2304.3741012521123,1525.929882836208) translate(37.852864583333336 17.880208333333336)"/><use xlink:href="#d" transform="matrix(1,0,0,1,2304.3741012521123,1525.929882836208) translate(54.07682291666667 17.880208333333336)"/><use xlink:href="#e" transform="matrix(1,0,0,1,2304.3741012521123,1525.929882836208) translate(126.02734375000001 17.880208333333336)"/><path d="M2512.45 1537.43h37.14" stroke="#6c6e83" stroke-width="1.5" fill="none"/><path d="M2512.47 1538.18h-.77v-1.5h.77z" stroke="#6c6e83" stroke-width=".05" fill="#6c6e83"/><path d="M2564.6 1537.43l-14.26 4.63v-9.27z" stroke="#6c6e83" stroke-width="1.5" fill="#6c6e83"/><path d="M2567.54 1518.28a6 6 0 0 1 6-6h288a6 6 0 0 1 6 6v38.3a6 6 0 0 1-6 6h-288a6 6 0 0 1-6-6z" stroke="#6c6e83" fill="#fff"/><path d="M2615.54 1525.93h204v23h-204z" fill="none"/><use xlink:href="#b" transform="matrix(1,0,0,1,2615.540134560945,1525.9298828364374) translate(0 17.880208333333336)"/><use xlink:href="#c" transform="matrix(1,0,0,1,2615.540134560945,1525.9298828364374) translate(37.852864583333336 17.880208333333336)"/><use xlink:href="#d" transform="matrix(1,0,0,1,2615.540134560945,1525.9298828364374) translate(54.07682291666667 17.880208333333336)"/><use xlink:href="#f" transform="matrix(1,0,0,1,2615.540134560945,1525.9298828364374) translate(126.02734375000001 17.880208333333336)"/><path d="M2868.8 1537.43h37.13" stroke="#6c6e83" stroke-width="1.5" fill="none"/><path d="M2868.8 1538.18h-.76v-1.5h.77z" stroke="#6c6e83" stroke-width=".05" fill="#6c6e83"/><path d="M2920.94 1537.43l-14.26 4.63v-9.27z" stroke="#6c6e83" stroke-width="1.5" fill="#6c6e83"/><path d="M2923.87 1518.28a6 6 0 0 1 6-6h267a6 6 0 0 1 6 6v38.3a6 6 0 0 1-6 6h-267a6 6 0 0 1-6-6z" stroke="#6c6e83" fill="#fff"/><path d="M2968.5 1525.93h189.73v23H2968.5z" fill="none"/><use xlink:href="#g" transform="matrix(1,0,0,1,2968.513289349177,1525.9298828364824) translate(0 17.880208333333336)"/><use xlink:href="#h" transform="matrix(1,0,0,1,2968.513289349177,1525.9298828364824) translate(85.52213541666667 17.880208333333336)"/><path d="M1900 1689a6 6 0 0 1 6-6h1551a6 6 0 0 1 6 6v222.86a6 6 0 0 1-6 6H1906a6 6 0 0 1-6-6z" fill="#e0e8f5"/><path d="M1921 1683h14.97m7.5 0h14.98m7.5 0h14.98m7.5 0h14.98m7.5 0h14.98m7.5 0h14.98m7.5 0h14.98m7.5 0h14.98m7.5 0h14.98m7.5 0h14.97m7.5 0h14.98m7.5 0h14.98m7.5 0h14.98m7.5 0h15m7.48 0h15m7.48 0h15m7.48 0h14.98m7.5 0h14.98m7.5 0h14.98m7.5 0h14.98m7.5 0h14.98m7.5 0H2408m7.5 0h15m7.5 0h14.97m7.5 0h14.98m7.5 0h14.98m7.5 0h14.98m7.5 0h14.98m7.5 0h14.98m7.5 0h14.98m7.5 0h14.98m7.5 0h14.98m7.5 0h14.97m7.5 0h14.98m7.5 0h14.98m7.5 0h14.98m7.5 0h15m7.48 0h15m7.48 0h15m7.48 0h14.98m7.5 0h14.98m7.5 0h14.98m7.5 0h14.98m7.5 0h14.98m7.5 0H2925m7.5 0h15m7.5 0h14.97m7.5 0h14.98m7.5 0h14.98m7.5 0h14.98m7.5 0h14.98m7.5 0h14.98m7.5 0h14.98m7.5 0h14.98m7.5 0h14.98m7.5 0h14.97m7.5 0h14.98m7.5 0h14.98m7.5 0h14.98m7.5 0h15m7.48 0h15m7.48 0h14.98m7.5 0h14.98m7.5 0h14.98m7.5 0h14.98m7.5 0h14.98m7.5 0h14.98m7.5 0H3442m7.5 0h7.5l.94.08.9.22.88.36.8.5.72.6.6.72.5.8.37.87.23.92.07.94v7.43m0 7.43v14.86m0 7.43V1741m0 7.43v14.86m0 7.42v14.86m0 7.42v14.86m0 7.43v14.85m0 7.42v14.86m0 7.43v14.86m0 7.42V1897m0 7.43v7.43l-.07.94-.22.9-.36.88-.5.8-.6.72-.7.6-.82.5-.87.36-.9.22-.95.08h-7.5m-7.5 0h-14.97m-7.5 0h-14.98m-7.5 0h-14.98m-7.5 0h-14.98m-7.5 0h-15m-7.48 0h-14.98m-7.5 0h-14.98m-7.5 0h-14.98m-7.5 0h-14.98m-7.5 0h-14.98m-7.5 0h-14.97m-7.5 0h-14.98m-7.5 0h-14.98m-7.5 0h-15m-7.48 0h-15m-7.48 0h-15m-7.48 0h-14.98m-7.5 0h-14.98m-7.5 0h-14.98m-7.5 0h-14.98m-7.5 0h-14.98m-7.5 0H2955m-7.5 0h-15m-7.5 0h-14.97m-7.5 0h-14.98m-7.5 0h-14.98m-7.5 0h-14.98m-7.5 0h-14.98m-7.5 0h-14.98m-7.5 0h-14.98m-7.5 0h-14.98m-7.5 0h-14.98m-7.5 0h-14.98m-7.5 0h-14.97m-7.5 0h-14.98m-7.5 0h-14.98m-7.5 0h-15m-7.48 0h-15m-7.48 0h-15m-7.48 0h-14.98m-7.5 0h-14.98m-7.5 0h-14.98m-7.5 0h-14.98m-7.5 0h-14.98m-7.5 0H2438m-7.5 0h-15m-7.5 0h-14.97m-7.5 0h-14.98m-7.5 0h-14.98m-7.5 0h-14.98m-7.5 0h-14.98m-7.5 0h-14.98m-7.5 0h-14.98m-7.5 0h-14.98m-7.5 0h-14.98m-7.5 0h-14.97m-7.5 0h-14.98m-7.5 0h-14.98m-7.5 0h-14.98m-7.5 0h-15m-7.48 0h-15m-7.48 0h-15m-7.48 0h-14.98m-7.5 0h-14.98m-7.5 0h-14.98m-7.5 0h-14.98m-7.5 0h-14.98m-7.5 0H1921m-7.5 0h-7.5l-.94-.08-.9-.22-.88-.36-.8-.5-.72-.6-.6-.7-.5-.82-.37-.87-.23-.9-.07-.94v-7.43m0-7.43v-14.86m0-7.42v-14.86m0-7.43v-14.86m0-7.42v-14.86m0-7.44V1793m0-7.42v-14.86m0-7.43v-14.87m0-7.42v-14.85m0-7.43v-14.86m0-7.43V1689l.07-.93.22-.92.35-.87.5-.8.6-.72.72-.6.8-.5.88-.36.9-.22.95-.07h7.5" stroke="#2f3564" stroke-width="1.5" fill="none"/><path d="M2255.7 1784.28a6 6 0 0 1 6-6h243.5a6 6 0 0 1 6 6v38.3a6 6 0 0 1-6 6h-243.5a6 6 0 0 1-6-6z" stroke="#6c6e83" fill="#fff"/><path d="M2304.37 1791.94h206.83v23h-206.83z" fill="none"/><use xlink:href="#b" transform="matrix(1,0,0,1,2304.3741012521123,1791.935959508819) translate(0 17.880208333333336)"/><use xlink:href="#c" transform="matrix(1,0,0,1,2304.3741012521123,1791.935959508819) translate(37.852864583333336 17.880208333333336)"/><use xlink:href="#d" transform="matrix(1,0,0,1,2304.3741012521123,1791.935959508819) translate(54.07682291666667 17.880208333333336)"/><use xlink:href="#i" transform="matrix(1,0,0,1,2304.3741012521123,1791.935959508819) translate(126.02734375000001 17.880208333333336)"/><path d="M2003 1804.47a19.5 19.5 0 0 1 19.5-19.5h161a19.5 19.5 0 0 1 19.5 19.5 19.5 19.5 0 0 1-19.5 19.5h-161a19.5 19.5 0 0 1-19.5-19.5z" stroke="#6c6e83" fill="#fff"/><path d="M2062 1791.27h143.67V1818H2062z" fill="none"/><use xlink:href="#j" transform="matrix(1,0,0,1,2062,1791.267770139942) translate(0 19.880208333333332)"/><use xlink:href="#k" transform="matrix(1,0,0,1,2062,1791.267770139942) translate(41.99999999999999 19.880208333333332)"/><path d="M1987.73 1850.45c27.6 0 50-22.4 50-50.02 0-27.6-22.4-50.02-50-50.02s-50 22.42-50 50.03c0 27.6 22.4 50.02 50 50.02z" stroke="#6c6e83" fill="#a2c6f6"/><path d="M1987.73 1751.5c26.9 0 48.7 21.92 48.7 48.83 0 26.9-21.8 48.82-48.7 48.82-26.9 0-48.7-21.9-48.7-48.82 0-26.9 21.8-48.82 48.7-48.82z" stroke="#000" stroke-opacity="0" fill="#a2c6f6"/><path d="M2008.43 1803.93c-.6-3.2-.4-6.4-.6-9.6-.3-2.6-.7-5.2-1.3-7.8-.5-2.4-.4-4.9-.9-7.3-.9-4.1-2.3-9.3-6.1-11.4-1.1-.6-2.3-.9-3.5-1-1.3 0-2.5.3-3.6.8 0 0-10.7-3.4-18.2 1.8-2.4 1.6-3.6 5.9-4.7 8.4-2.3 4.7-1.8 9.7-1.9 14.8-.2 3-.8 5.5-2.2 8.3-1 2-1.2 3.8-.6 6 .4 1.5.7 2.9.3 4.4-.4 1.2-1 2.3-.9 3.6 0 1.9 1.4 3.5 2.8 4.6.9.7 1.8 1.2 2.7 1.8-.5.7-.8 1.5-.1 1.9 1.7 1.1 3.7 1.7 5.7 2.3 2.3.7 4.6 1.4 7 1.9 4.4.9 12.7-.8 18.5-2.4h.1c1.9 0 4.2-.2 5.8-1.2 1.7-1 2.5-3.1 2.8-4.9.8-4.8-.2-10.3-1.1-15z" stroke="#000" stroke-opacity="0" fill="#b06d51"/><path d="M2006.63 1823.04c-.1-1.5-.3-3.1-.4-4.6-.2-1.2-.2-2.5-.7-3.6-.4-.8-.9-1.3-1.1-2.3-.2-.9-.2-1.7-.3-2.6-.1-1.8-.2-3.6-.4-5.4-.3-3.7-.5-7.4-.8-11.2 0 0 0-.1-.1-.1 0-.1-.1-.1-.1-.1-.1-.1-.1-.1-.2-.1 0 .1-.1.1-.1.1-1.9 1.8-4.2 3-6.5 4.1-2.9 1.4-5.4 2.3-8.6 1.3-2.7-.9-4.9-2.6-7.4-3.9-1.1-.5-3.6-2-4.7-.9-.6.6-.8 1.8-1.2 2.5-.5 1-1.1 2-1.7 2.9-1.2 1.7-2.2 3.4-2.5 5.5-.1 1.4 0 2.9-.7 4.3-.6 1.1-1.5 1.9-2 3.1-.8 1.6-1.1 3.5-.9 5.3v.2c0 .1 0 .1.1.2v.3c.1.2.3.3.5.1.4.8.6 2.6.8 3.1.5 1 1.1 1.9 1.9 2.7 1.8 2 4.3 3.2 6.8 4.3 2.4 1 4.8 2 7.5 2.3 3 .3 5.8 1.6 8.8 1.8 2.9.3 5.8.1 8.7.5 2.1.3 4.2 0 5.1-2.2.9-2.3.4-5.2.2-7.6z" stroke="#000" stroke-opacity="0" fill="#8f5238"/><path d="M1999.13 1800.83c0-.2-.3-.4-.5-.2-.4.5-.7 1.2-1.2 1.6-.5.5-1.2.8-1.8 1-1.6.6-3.3 1-5 1.3-1.5.2-3.1.2-4.6.1-1-.1-1.9-.1-2.8.2 0-.4-.1-.7-.1-1.1 0-.4-.6-.4-.5 0 0 .4 0 .9.1 1.3-.3.2-.2.5 0 .6.1.6.1 1.2.1 1.9.1.3.1.6.1.9l.3 6.9v.2c0 2 .1 4.1 0 6.1-.3.7-.6 1.5-.3 2 .3.4 1.1.4 1.6.5l2.8.3c3.9.2 7.9-.4 11.6-1.7.1 0 .1-.1.2-.1v-.2-21.6z" stroke="#000" stroke-opacity="0" fill="#ffa894"/><path d="M1999.43 1776.72c-1.1-.7-5-.2-6.2-.1-2.1.3-4.1.7-6.1 1-4.6.8-8.4 1.4-12.7 3.1-.1 0-.2.1-.3.2v.3l-.1.1v.1c.5 5.5 1.8 15.9 4.5 21.6 1.4 3.12 5.2 6.62 8.4 7.92 6.7 2.7 10.2-1.3 13.1-6.2 3.3-5.8 2.4-11.8 1.4-18-.2-1.7-1-9.22-2-10.02z" stroke="#000" stroke-opacity="0" fill="#ffa894"/><path d="M1996.23 1790.23c0-.5-.1-1.1-.2-1.6-.1-.3-.2-.5-.4-.7-.6-.4-1.2.2-1.3.8 0 .7.2 2.2.9 2.5.7.3.9-.3 1-1zM1982.53 1792.33c0-.6-.1-1.1-.3-1.6-.1-.3-.2-.5-.4-.7-.6-.4-1.1.2-1.2.8-.1.7.2 2.2.9 2.4.8.3.9-.2 1-.9z" stroke="#000" stroke-opacity="0" fill="#232c44"/><path d="M2004.23 1787.53c-.7-1.7-2-1.4-2.9-.4h-.2s-.1 0-.1.1c-.2.3-.4.6-.5 1v.1c-.2.7-.2 1.5-.1 2.3.1 1.7.4 3.4.7 5.1.4 2.7 2.1.1 2.8-1 1.3-2 1.3-5 .3-7.2zM1974.73 1798.63c1 .9 3.3 3 3 .3l-.6-5.1c-.1-.8-.3-1.6-.7-2.3h-.1c-.2-.4-.4-.6-.7-.9 0 0-.1 0-.2-.1l-.1.1c-1.1-.7-2.5-.7-2.7 1.1-.4 2.4.3 5.3 2.1 6.9z" stroke="#000" stroke-opacity="0" fill="#ffa894"/><path d="M2003.13 1791.83c-.1-.5-.3-.6-.6-1-.3-.6 0-1.5 0-2.1.1-.4-.5-.4-.6 0 0 .5-.3 1.6-.1 2.2.1.2.3.2.4.4.6.6.4 1.5-.3 2-.3.2 0 .7.3.5.7-.5 1.1-1.2.9-2zM1976.43 1796.83c-.3-.2-.7-.5-.8-.9-.1-.5.1-.8.3-1.2 0-.1.1-.2 0-.4 0-.3-.3-.7-.4-1-.3-.5-.5-1-.8-1.5-.1-.4-.6-.1-.5.3.3.6.9 1.3 1 2 .1.4.1.2 0 .6-.1.3-.2.4-.2.7-.1.8.4 1.5 1.1 1.9.4.2.7-.3.3-.5z" stroke="#000" stroke-opacity="0" fill="#f7886d"/><path d="M1984.23 1786.43c-1.1-.7-2.6-.4-3.7 0-1.2.3-2.5 1.3-2.8 2.4-.1.1-.1.2 0 .2 0 .1 0 .2.1.2.3.2.3.1.6.1.9-.2 1.7-.8 2.5-1 .8-.3 1.6-.4 2.4-.5.4 0 1 0 1.3-.3.4-.4 0-.9-.4-1.1zM1991.53 1786.23c.4.2.9 0 1.3-.1.8-.2 1.6-.3 2.4-.4.9 0 1.8.3 2.6.2.4-.1.4 0 .7-.3v-.2-.2c-.8-1-2.3-1.4-3.5-1.4-1.2.1-2.8.2-3.6 1.2-.3.4-.4.9.1 1.2z" stroke="#000" stroke-opacity="0" fill="#b06d51"/><path d="M1998.13 1807.54c-2.2 2.1-4.1 3.8-6.7 4.1-1.5.1-6.3-1.4-8.5-3.2l.3 6.9c.3 0 .6.1 1.5.2.5.1.9.2 1.5.1 1.3-.3 2.2-.9 3.7-.6.7.1 1.4.3 2.2 0 .5-.2.9-.5 1.3-.9.8-.8 1.5-1.5 2.4-2.2 1.3-.9 1.4-1.4 2-2.9.1-.3.5-1.6.3-1.5z" stroke="#000" stroke-opacity="0" fill="#f7886d"/><path d="M1994.23 1801.13c-.6 0-7.8 1.2-8 1.1-.1 0-.2.1-.2.2.2.6 1.2 1 1.8 1.2.9.3 1.9.3 2.8.2.8-.1 1.5-.4 2.2-.7.7-.4 1.3-1.1 1.5-1.9v-.1h-.1z" stroke="#000" stroke-opacity="0" fill="#fff"/><path d="M2018.23 1840.75c3.3-2.3 5.9-4.9 5.8-8.4v-.1c0-.2 0-.4-.1-.6-.4-2.6-.8-5.1-2.4-7.2-.8-1-1.7-1.9-2.8-2.6-.1-.1-.3-.1-.4-.2-.2-.1-.4-.2-.6-.4-.4-.2-.7-.3-1.1-.5-2.6-1.1-7.8-2.2-10.8-2.7-.3-.1-.6-.1-.9-.2h-.4c-.4-.1-.7-.1-.9-.1-.1-.1-.2-.1-.2 0-.6-2.6.9-6.6-2.7-6.3-1.7.1-2.8 1.6-4.4 2.1-1.2.4-6.9.1-8 .2-2.6.2-3.3-.2-5.8-1.2-1.1-.5-2.5-1-3.1.5-.2.6-.2 1.2 0 1.8.3 1 .5 1.8.5 2.7-.2 0-.4-.1-.6-.2h-.2l-.9-.3h-.1c-.3 0-.6-.1-.8-.1-1.2-.2-2.4-.2-3.6-.4-.5-.1-1.1-.3-1.6-.4-1.4 1.7-3 2.8-5.2 3.4-.5.1-1 .2-1.6.4h-.1l-.9.6c-.3.2-.5.4-.8.5l-.4.4c-.6.5-1.2 1-1.7 1.6-.2.2-.8.7-.8 1l.3-.4c-.1.1-.2.3-.4.5l-1.2 2.1-1.2 2.4c0 .1 0 .1-.1.2-.1.4-.3.7-.4 1.1-.5 1.3-1 2.7-1.6 4.1 0 1.6-.7 3.2.3 4.8 7.2 10.4 37.5 19 61.9 1.9z" stroke="#000" stroke-opacity="0" fill="#fad3b1"/><path d="M1990.83 1798.23c-.3.1-1.1.2-1.5.1-.8-.2-.7-1-.7-1.7-.1-.9-.1-1.8-.1-2.7.1-.4-.5-.4-.6 0 0 .9 0 1.8.1 2.7 0 .5 0 1.1.2 1.6.5 1.1 1.9.7 2.8.6.4-.1.2-.6-.2-.6z" stroke="#000" stroke-opacity="0" fill="#f7886d"/><path d="M2027.93 1830.05c.8-4.8-9.2-8.2-9.2-8.2-.8 1-13 17-13.8 17.9-.2.3.3 1.4 2.3 7.1.3.9 20.1-12.5 20.7-16.8zM1974.23 1848.85c2-5.6 3.3-9.7 3.1-10-.8-.8-13.1-16.9-13.8-17.8v-.1s-12.4 7.6-12.4 13.7c9.8 9.7 15.9 11 23.1 14.2z" stroke="#000" stroke-opacity="0" fill="#fad3b1"/><path d="M2017.73 1821.34c-.1.2-.2.4-.2.6-.6 1.7-.8 3.4-2.9 3.9-1.6.4-3.3-.1-4.9-.4-.9-.1-1.8-.3-2.7.1-1 .5-1.7 1.6-2.5 2.4-1.1 1.1-2.4 2.2-4.1 2.5-3.1.6-4.6-2.7-7.5-3.2-2.7-.3-5.3 1.1-8 1.1-1.7.1-4-.2-4.9-1.7-.5-.9-.2-1.2-.4-2.1 0-.4-.2-.7-.5-1-.6-.6-1.8-.7-2.6-.9-1.6-.4-3.2-.7-4.7-1.2-1.5-.4-2.3-1.5-2.7-2.7-.2.1-.5.1-.7.2.3.9.7 1.7 1.4 2.2 2.1 1.8 5.6 1.3 8 2.4 2 .8.7 2.4 1.6 3.7.5.8 1.6 1.1 2.5 1.3 2.6.8 5 .2 7.6-.4 1.7-.4 3.5-.6 5.2.4 1.1.7 1.9 1.7 3.1 2.2 2 .9 4.2.1 5.8-1.2 1.2-.9 2-2.2 3.1-3 1.5-1.2 3.5-.3 5.2-.1 2.1.3 4.7 0 5.6-2.3.3-.9.5-1.7.8-2.5l-.6-.3z" stroke="#000" stroke-opacity="0" fill="#fff"/><path d="M2020.73 1827.44c-1.7 3.1-3.2 6.3-4.6 9.5-.1.4.4.7.5.3 1.4-3.2 2.9-6.4 4.6-9.5.2-.3-.4-.6-.5-.3zM2000.03 1819.94c-6.2 3.8-13.7 3.3-19.1-1.5-.3-.2-.7.2-.5.5 5.7 4.9 13.5 5.5 19.9 1.5.3-.2 0-.7-.3-.5zM2000.93 1815.94c-5 1.1-10.1 2.1-15.2 1-.4-.1-.5.5-.1.5 5.2 1.2 10.4.1 15.5-.9.3-.1.2-.7-.2-.6z" stroke="#000" stroke-opacity="0" fill="#ebbd94"/><path d="M2000.73 1778.32c-.6-2.1-1.6-3.1-3.7-3.6-4.3-.9-8.9-.3-12.8 1.5-.1-.1-.1-.1-.2-.1h-.1c.1-.3.1-.7.1-1.1 0-.3-.5-.3-.6 0 0 .5 0 .9-.1 1.3-1.5.4-3.1.8-4.6 1.3-1.3.5-3.2.8-4.4 1.6-.8.5-.9 1.8-1.1 2.7-.3 1.5-.5 3.1-.6 4.6 0 .7 0 1.4.1 2-.8 2-1.4 4.2-1.6 6.3-.4 3.4 0 6.7.5 10 0 .1 0 .1.1.1-.1.8-.2 1.62-.4 2.4-.6 3.32-1.8 6.62-2 10.02-.2 3.4 1.6 7.5 0 10.7-.6 1.1-1.1 2.2-1.1 3.5-.1 1.6.3 3.1.6 4.6l.1.1c.1.1.1.1.2.1 1.8.1 3.7.1 5.5.1.1 0 .2 0 .2-.1.1 0 .1-.1.1-.2 0-1.7-.9-3.2-.9-5 .1-1.6.8-3.1 1.2-4.6-.4 2-.4 3.9-.2 5.8.1 1.5 0 3.3 1.1 4.4 0 .1.1.1.2.1h.1c.1 0 .1-.1.2-.1v-.2c.5-5.6 1.4-11.3 1.5-16.9 0-2.8-.3-5.7-.6-8.4-.1-1.8-.3-3.5-.4-5.2.3-3.9.6-7.5.6-8.6 0-2.6 2.3-7.5 3.3-9.9 1.2-2.82 2-5.72 2.5-8.72 4-.9 8.2-1.5 12.3-1.4 1.5 0 2.4.5 3.2 1.8.5.9.9 1.9 1.1 2.9.3 1.7.1 3.4 1 4.9.2.2.5.1.5-.2.4-2.9-.2-5.7-.9-8.5z" stroke="#000" stroke-opacity="0" fill="#b06d51"/><path d="M1992.43 1773.12c.2-.3.3-.6.3-1s-.2-.8-.3-1.2c-.1-.7-.1-1.5 0-2.3 0-.4-.5-.5-.6-.2-.1.7-.1 1.5 0 2.2.2 1.2.5 1.7-.4 2.8-.2.4-.5.8-.5 1.3 0 .3.4 1.1.4 1.2-.2.4.3.7.5.3.2-.4.1-.3 0-.7 0-.4-.3-.9-.2-1.4.2-.3.7-.7.8-1zM1982.13 1772.42c-2.3 1.2-4.7 2.3-6.4 4.2-1.5 1.7-2.4 3.7-2.9 5.8-.5 2.8.5 5.6-.6 8.3-1 2.5-2 4.7-1.8 7.5 0 .4.6.4.6 0-.2-2.8.8-4.8 1.8-7.3.9-2.4.3-4.6.4-7.1.2-2.4 1.2-4.7 2.8-6.6 1.7-2 4-3.1 6.4-4.2.3-.2 0-.7-.3-.6zM1986.23 1771.02c-2.7-.5-5.3-.2-7.7 1-.4.2-.1.7.3.5 2.3-1.2 4.7-1.4 7.2-1 .4.1.5-.5.2-.5z" stroke="#000" stroke-opacity="0" fill="#8f5238"/><path d="M1987.73 1850.45c27.6 0 50-22.4 50-50.02 0-27.6-22.4-50.02-50-50.02s-50 22.42-50 50.03c0 27.6 22.4 50.02 50 50.02z" stroke="#6c6e83" fill-opacity="0"/><path d="M1900 1952a6 6 0 0 1 6-6h1551a6 6 0 0 1 6 6v222.86a6 6 0 0 1-6 6H1906a6 6 0 0 1-6-6z" fill="#e0e8f5"/><path d="M1921 1946h14.97m7.5 0h14.98m7.5 0h14.98m7.5 0h14.98m7.5 0h14.98m7.5 0h14.98m7.5 0h14.98m7.5 0h14.98m7.5 0h14.98m7.5 0h14.97m7.5 0h14.98m7.5 0h14.98m7.5 0h14.98m7.5 0h15m7.48 0h15m7.48 0h15m7.48 0h14.98m7.5 0h14.98m7.5 0h14.98m7.5 0h14.98m7.5 0h14.98m7.5 0H2408m7.5 0h15m7.5 0h14.97m7.5 0h14.98m7.5 0h14.98m7.5 0h14.98m7.5 0h14.98m7.5 0h14.98m7.5 0h14.98m7.5 0h14.98m7.5 0h14.98m7.5 0h14.97m7.5 0h14.98m7.5 0h14.98m7.5 0h14.98m7.5 0h15m7.48 0h15m7.48 0h15m7.48 0h14.98m7.5 0h14.98m7.5 0h14.98m7.5 0h14.98m7.5 0h14.98m7.5 0H2925m7.5 0h15m7.5 0h14.97m7.5 0h14.98m7.5 0h14.98m7.5 0h14.98m7.5 0h14.98m7.5 0h14.98m7.5 0h14.98m7.5 0h14.98m7.5 0h14.98m7.5 0h14.97m7.5 0h14.98m7.5 0h14.98m7.5 0h14.98m7.5 0h15m7.48 0h15m7.48 0h14.98m7.5 0h14.98m7.5 0h14.98m7.5 0h14.98m7.5 0h14.98m7.5 0h14.98m7.5 0H3442m7.5 0h7.5l.94.1.9.2.88.37.8.5.72.6.6.7.5.82.37.86.23.9.07.95v7.44m0 7.43v14.86m0 7.42V2004m0 7.44v14.86m0 7.42v14.86m0 7.43v14.87m0 7.43v14.85m0 7.43v14.86m0 7.42v14.86m0 7.43V2160m0 7.44v7.42l-.07.94-.22.92-.36.87-.5.8-.6.7-.7.62-.82.5-.87.35-.9.22-.95.06h-7.5m-7.5 0h-14.97m-7.5 0h-14.98m-7.5 0h-14.98m-7.5 0h-14.98m-7.5 0h-15m-7.48 0h-14.98m-7.5 0h-14.98m-7.5 0h-14.98m-7.5 0h-14.98m-7.5 0h-14.98m-7.5 0h-14.97m-7.5 0h-14.98m-7.5 0h-14.98m-7.5 0h-15m-7.48 0h-15m-7.48 0h-15m-7.48 0h-14.98m-7.5 0h-14.98m-7.5 0h-14.98m-7.5 0h-14.98m-7.5 0h-14.98m-7.5 0H2955m-7.5 0h-15m-7.5 0h-14.97m-7.5 0h-14.98m-7.5 0h-14.98m-7.5 0h-14.98m-7.5 0h-14.98m-7.5 0h-14.98m-7.5 0h-14.98m-7.5 0h-14.98m-7.5 0h-14.98m-7.5 0h-14.98m-7.5 0h-14.97m-7.5 0h-14.98m-7.5 0h-14.98m-7.5 0h-15m-7.48 0h-15m-7.48 0h-15m-7.48 0h-14.98m-7.5 0h-14.98m-7.5 0h-14.98m-7.5 0h-14.98m-7.5 0h-14.98m-7.5 0H2438m-7.5 0h-15m-7.5 0h-14.97m-7.5 0h-14.98m-7.5 0h-14.98m-7.5 0h-14.98m-7.5 0h-14.98m-7.5 0h-14.98m-7.5 0h-14.98m-7.5 0h-14.98m-7.5 0h-14.98m-7.5 0h-14.97m-7.5 0h-14.98m-7.5 0h-14.98m-7.5 0h-14.98m-7.5 0h-15m-7.48 0h-15m-7.48 0h-15m-7.48 0h-14.98m-7.5 0h-14.98m-7.5 0h-14.98m-7.5 0h-14.98m-7.5 0h-14.98m-7.5 0H1921m-7.5 0h-7.5l-.94-.07-.9-.23-.88-.36-.8-.48-.72-.6-.6-.73-.5-.8-.37-.88-.23-.92-.07-.94v-7.42m0-7.43v-14.85m0-7.43v-14.86m0-7.42v-14.86m0-7.43v-14.86m0-7.43V2056m0-7.42v-14.86m0-7.42v-14.86m0-7.43v-14.85m0-7.42v-14.86m0-7.43V1952l.07-.93.22-.9.35-.88.5-.82.6-.7.72-.62.8-.5.88-.35.9-.2.95-.1h7.5" stroke="#2f3564" stroke-width="1.5" fill="none"/><path d="M2255.7 2044.3a6 6 0 0 1 6-6H2454a6 6 0 0 1 6 6v38.3a6 6 0 0 1-6 6h-192.3a6 6 0 0 1-6-6z" stroke="#6c6e83" fill="#fff"/><path d="M2294.62 2051.94H2460v23h-165.38z" fill="none"/><use xlink:href="#l" transform="matrix(1,0,0,1,2294.6202582798905,2051.94203618143) translate(0 17.880208333333336)"/><use xlink:href="#m" transform="matrix(1,0,0,1,2294.6202582798905,2051.94203618143) translate(93.59765625000001 17.880208333333336)"/><path d="M2488.17 2087.84v-47.1M2488.17 2087.82v.77M2488.17 2040.77v-.77" stroke="#6c6e83" stroke-width="1.5" fill="none"/><path d="M2516.33 2044.3a6 6 0 0 1 6-6H2855a6 6 0 0 1 6 6v38.3a6 6 0 0 1-6 6h-332.67a6 6 0 0 1-6-6z" stroke="#6c6e83" fill="#fff"/><path d="M2571.48 2051.94h234.37v23h-234.37z" fill="none"/><use xlink:href="#n" transform="matrix(1,0,0,1,2571.4837453853784,2051.9420361816597) translate(0 17.880208333333336)"/><use xlink:href="#o" transform="matrix(1,0,0,1,2571.4837453853784,2051.9420361816597) translate(58.94401041666667 17.880208333333336)"/><use xlink:href="#c" transform="matrix(1,0,0,1,2571.4837453853784,2051.9420361816597) translate(153.71744791666669 17.880208333333336)"/><use xlink:href="#p" transform="matrix(1,0,0,1,2571.4837453853784,2051.9420361816597) translate(169.94140625000003 17.880208333333336)"/><path d="M1997.7 2062.8a19.5 19.5 0 0 1 19.5-19.5h141a19.5 19.5 0 0 1 19.5 19.5 19.5 19.5 0 0 1-19.5 19.5h-141a19.5 19.5 0 0 1-19.5-19.5z" stroke="#6c6e83" fill="#fff"/><path d="M2062.02 2050.32h100v23h-100z" fill="none"/><use xlink:href="#q" transform="matrix(1,0,0,1,2062.0244380744634,2050.3184136518885) translate(0 17.880208333333332)"/><path d="M1987.7 2113.24c27.6 0 50-22.4 50-50s-22.4-50-50-50-50 22.4-50 50 22.4 50 50 50z" stroke="#6c6e83" fill="#a2c6f6"/><path d="M2004.4 2052.6c.3-2 .7-4.12.8-6.13.1-1.8-.1-3.7-.8-5.42-.8-1.9-2.1-3.32-3.5-4.72.8-.2 1.6-.6 2.3-1.2.7-.7 1.2-1.7 1.2-2.82 0-.6-.2-1-.4-1.5s-.2-.8-.1-1.3v-.7c-.4-.9-1.7-1.5-2.5-1.9-.8-.3-1.6-.5-2.5-.6-.3-.8-1.3-1.32-2.2-1.42-.7-.2-1.5-.2-2.2 0-.9.3-1.6.8-2.5 1.2-.8.4-1.8.5-2.6.8-.7.3-1.3.7-1.8 1.22-.7.6-1 1.3-1.3 2.1-1.6-.3-3.3-.4-4.9-.1-.9.2-1.6.6-2.3 1.1-1 .5-2 .7-2.9 1.2-.7.3-1.2.92-1.8 1.52-.7.8-1.6 1.3-2.4 2-.8.6-1.4 1.5-1.8 2.52-.7 1-1.1 2.1-1.5 3.3-.3 1.22-.6 2.42-.9 3.73-.3 1.2-.6 2.5-.7 3.7-.1 2.12.4 4.03 1.6 5.53v.1l.2.2c.1.1.2.1.2 0 2.1.9 4 1.9 5.9 3.22 1.8 1.3 3.6 2.8 5.4 4.3 3.5 2.93 6.3 6.64 9.9 9.45 1.3 1 2.9 2.4 4.7 2 1.7-.4 2.8-2 3.7-3.4 2.2-3.52 3.6-7.63 4.5-11.75.5-2 .9-4.12 1.2-6.23z" stroke="#000" stroke-opacity="0" fill="#5a3728"/><path d="M1999.1 2066.55c.6-3.7 2.8-20.18 1.6-23.1-1-2.1-2.5-3.1-4.3-4.3l-.9-.6c-.2-.2-.5-.4-.8-.6-1.8-1.52-4.3-1.72-6.5-1.72-5.1.1-10.2.4-14.7 3.2-.6.4-1.2.8-1.8 1.32-.1.1-.3.2-.4.4-.7.6-1.3 1.2-1.7 2-.5.8-.7 1.6-.8 2.42-1.1 6.22-.4 14.15.9 20.28 1.3 6.72 4.7 14.56 12 16.06 1.2.2 2.5.3 3.9.1 6.1-.7 10.3-4.8 12.3-10.53.5-1.6.9-3.3 1.2-4.92z" stroke="#000" stroke-opacity="0" fill="#fea689"/><path d="M2013.1 2090.55c-4.3-1.3-7.6.4-11.4-2.7-1.2-1.02-2.3-2.52-2.3-3.93l-.3-3.82c-.3-4.5-.5-9.03-.2-13.55h.1c.6-.5 1.3-1.1 1.9-1.8 1.2-1.5 1.8-3.32 1.8-5.23 0-1.6-.1-3.9-1.8-4.62-1.2-.4-2.7.6-3.4 1.6 0-.1-.1-.1-.2-.2.1-.2.2-.4.4-.6.1-.1-.1-.3-.2-.2-.5.6-.7 1.2-.7 1.9 0 1.12.1 2.12.1 3.13 0 1.7-.1 3.3-.2 4.92-.9 1-1.8 2-2.8 3-1.4 1.62-3 2.62-4.9 3.72-1.9 1.1-3.7 2.3-5.4 3.62-.9.6-4.6-.62-4.7-2.22-.1-.4-.6-.3-.6.1.5 5.22.8 10.44 1 15.66-.7.5-1.3 1-2 1.4-2 1.4-4.2 2.62-6.5 3.52-.2.1-.3.4-.1.5 3.3 2.6 7.9 5.22 11.5 7.43 1.4.9 2.1 1.3 3.7 1 2-.5 4-1.1 6-1.7 7.6-2.42 14.8-5.93 21.4-10.45.2-.1.1-.4-.2-.5z" stroke="#000" stroke-opacity="0" fill="#fea689"/><path d="M1975.8 2059.72c.1-.6 0-1.4-.1-1.6 0-.3-.1-.6-.3-.7-.6-.6-1.2 0-1.3.6-.2.7-.1 2.3.6 2.6.7.4 1-.2 1.1-.9zM1991.3 2058.72c.1-.6 0-1.4-.1-1.6 0-.3-.1-.6-.3-.7-.6-.6-1.2 0-1.3.6-.2.7-.1 2.3.6 2.6.7.4 1-.2 1.1-.9z" stroke="#000" stroke-opacity="0" fill="#232c44"/><path d="M1984.1 2067.96c-1 .4-3.1.9-3.8-.2-.4-.7.1-2.82.3-3.52.3-2.1.8-4.22 1-6.32.1-.4-.5-.5-.6-.1-.3 3.2-1.6 7.02-1.4 9.73.1 2 3.3 1.4 4.7 1 .4-.2.2-.7-.2-.6z" stroke="#000" stroke-opacity="0" fill="#b47a67"/><path d="M1978.2 2053.4c-.1 0-.2-.1-.3-.1-.7-.1-1.2-.2-2-.1-.9.1-2 .1-3 .4-1 .2-2.6.6-2.9 1.7 0 .1.1.3.2.3.9.4 1.6.1 2.6 0 1.3-.1 2.7-.1 4.1-.3.5 0 1.1-.3 1.4-.7.4-.4.3-.9-.1-1.2zM1986.2 2054.3c.4.3 1 .5 1.5.5 1.4-.1 2.8-.3 4.1-.5 1-.1 1.7.1 2.6-.5.1 0 .1-.2.1-.3-.6-1-2.1-1.1-3.2-1.2-1 0-2.1.2-3 .2-.8 0-1.3.2-2 .5-.1 0-.1.1-.2.1-.4.3-.3.9.1 1.2z" stroke="#000" stroke-opacity="0" fill="#b47a66"/><path d="M1997.3 2070.16c.1-1.6.1-3.3.1-5 0-.22.1-2.32-.7-1.52-.2.2-.2.7-.2 1l-.3 1.4c-.2 1-.4 2.02-.7 2.92-.1.8-.6 1.5-.8 2.3-.3.7-.7 1.3-1 2.02-.2.8-.5 1.5-1 2.2-.3.6-1 1-1.6 1.3l-2.5 1.62c-2.9 1.5-3-3.52-3.5-5.42-.6-.1-1.2 0-1.8.2l-.1.1c-.1 0-.1 0-.2.1.1.3.2.7.3 1.1.1.3.1.5 0 .8 0 .9.3 1.7.1 2.52-.2 1.1-1.2 1.2-2.3 1.5-.6.1-1.1.1-1.7-.3-.6-.5-1.3-.4-1.9-.9-.3-.2-.6-.3-.9-.5-.5-.3-.8-1.1-1.2-1.5-.4-.5-.5-1.22-.7-1.82-.3-.7-.7-.9-1.2-1.2-.6-.4-.5-.7-.8-1.2-.2-.4-.7-1.3-.9-1.62-.1-.2-.2-.5-.2-.7-.3-.6-.7-1.2-1.1-1.7l-.5-.5s-.1.8-.1 1c.1.4.2.7.3 1 .3.5.3 1.3.5 1.9.2.6 0 1.5.3 2.12.3.6.5 3.2.7 3.8.3.72.3 1.32.6 1.92.4.6.3 1.4.6 2 .3.6.8.9 1.3 1.2l.1.1.1.1c.4.42.8.72 1.2 1.22.2.3.7 1.3 1 1.5.5.4 1.1.5 1.5.9.3.3.6.1 1 .4.7.5 1.6.4 2.4.4.6 0 1 .3 1.5.4.5.1 1 0 1.5-.1 1.1-.3 3.2.42 4.3.2.9-.1 1.4-.4 2.1-1 .5-.5.9-.5 1.5-.7.3-.2.5-.6.7-.9.4-.4 1.8-1.7 2.1-2.1.4-.5.6-1 .8-1.6.2-.6.4-2.12.5-2.72.2-.4.3-.8.4-1.2.5-1.6.2-5.33.4-7.03z" stroke="#000" stroke-opacity="0" fill="#5a3728"/><path d="M1988.8 2070.67c-.7 0-9.3.9-9.5.9-.1 0-.2.1-.1.1 4.2 1.4 5.1 1.2 9.7-.9 0-.1-.1-.1-.1-.1z" stroke="#000" stroke-opacity="0" fill="#b66f58"/><path d="M2000.1 2063.74c-.4-.7-.5-.7-.1-1.7 0-.1.2-.2.2-.4.1-.4.2-.7 0-1.2-.1-.42-.7-.92-.7-1.32-.1-.7.5-1.9.7-2.5.1-.4-.5-.5-.6-.1-.2.7-.8 1.8-.8 2.6.1.4.4.6.6.9.7 1.3-.1 1.4-.3 2.3-.2.62.1 1.12.4 1.62.2.3.7.1.5-.2h.1zM2000.1 2035.02c-.9-.7-1.7-1.5-2.6-2.1-1.1-.6-2.2-.5-3.3-1.1-1.9-1.1-3.2-2.12-5.6-1.72-.4.1-.3.7.1.6 1.2-.2 2.5-.1 3.6.6.8.4 1.5 1 2.3 1.3.9.52 1.9.42 2.8 1.02.8.6 1.6 1.3 2.3 1.9.3.2.7-.2.4-.5z" stroke="#000" stroke-opacity="0" fill="#392e2a"/><path d="M2005.5 2092.86c-1.2-1.9-4.7-.9-6.4-.5-1.4.3-2.7.7-4 1.3-.6.3-1.3.6-2 .7-1.2.2-2.3-.3-3.5-.3-3.5-.2-7.1 1.4-10.4-.5-1.9-1-3.7-2.9-5.9-2.7l-.1-.1c-.1 0-.3 0-.3.1l-.1.1c-.3.1-.6.2-.9.4-.4.2 0 .6.3.5l.6-.3c.1.1.2.1.2.1H1973.3c.3 1.1 1.2 3.7 1.3 4 .6 1.5 1.2 2.92 1.9 4.33 1.4 2.8 3 5.6 5 7.92 1.8 2.3 4.2 1.7 6.6.6 2.9-1.5 5.7-3 8.5-4.62 2.5-1.5 5-3.1 6.9-5.32 1.2-1.3 3.1-3.82 2-5.72z" stroke="#000" stroke-opacity="0" fill="#93aebe"/><path d="M2027.9 2092.55s-5.9-6.12-10.4-8.83c-.1-.1-.1-.2-.2-.2-2.9-1.1-6.9-3.52-10-1.8-1.5.8-2.3 2.4-3.4 3.5-1.5 1.6-3.6 2.32-5.5 3.02-1.7.6-3.3 1.3-4.7 2.5-1.5 1.3-2.7 3.02-3.9 4.73-1.7 2.4-3.3 4.92-4.7 7.63-.1-.7-.2-1.4-.4-2.1-.6-2.32-1.9-4.23-3.5-6.04-1.7-2-3.2-4-4.2-6.52-.8-1.7-1.4-3.82-2.9-5.12-1.4-1.2-3.1-1.1-4.7-.6-1.1.4-2.1.8-3.2 1.1-1.1.3-2.3.5-3.3.8-2.7.7-4.6 2.9-4.7 5.53-2.8.3-5.6 1-8.2 2.3-1.5.7-2.6 1.3-2.6 1.3 25.1 24.2 57.9 26.62 80.5-1.2z" stroke="#000" stroke-opacity="0" fill="#485a7e"/><path d="M2019.4 2102.4s.3 0 .3-.4c-.9-1.9-1.3-1.7-2.1-3.72-1.6-4.32-1.5-9.14.2-13.46.1-.4-.4-.6-.6-.3-1.6 4.22-1.8 8.84-.5 13.05.7 2.1 1.6 2.92 2.7 4.82zM2013.4 2088.84c-1.4 2.7-3.9 4.52-6.5 6.12-2.9 1.7-5.9 3.42-8.8 5.13-2.8 1.6-5.7 3.1-8.5 4.7-2 1.1-3.9 2.5-4.8 4.52-1.6-1.8-3.4-3.4-5.3-4.82-2.4-1.7-5-2.8-6.9-5.12-1.4-1.9-2.9-3.4-4.9-4.72-2.3-1.3-4.9-2.2-7.4-3-.4-.1-.7.4-.3.5 2.3.8 4.7 1.5 6.8 2.7 2.6 1.4 4.1 3.42 6 5.53 1.5 1.8 3.7 2.8 5.7 4.1 2.3 1.6 4.3 3.42 6.1 5.53.1.2.4.2.5 0 1.1-2.82 3.9-4.22 6.4-5.63 3-1.6 6-3.3 8.9-5.02 2.8-1.6 5.6-3.1 8.2-4.82 2.2-1.5 4.2-3.1 5.4-5.52.2-.3-.4-.6-.5-.2h-.1z" stroke="#000" stroke-opacity="0" fill="#2c3b59"/><path d="M1980.2 2100.9c-5.2-4.63-7.8-11.36-12.8-16.18-.3-.3-.7.2-.4.4 5 4.82 7.6 11.65 12.8 16.27.3.2.7-.2.4-.5zM2001.6 2088.24c-1.2 2.1-3.1 3.7-4.8 5.32-1.8 1.7-3.6 3.3-5.4 5.02-.2.2.2.6.5.4l5.7-5.42c1.7-1.5 3.4-3 4.6-5.12.2-.3-.4-.5-.6-.2z" stroke="#000" stroke-opacity="0" fill="#2c3b59"/><path d="M1981.9 2108.22c.2-1.4.2-2.8.3-4.22-.6-.1-1.5-.2-2 .2-.6.5-.3 2.4-.4 3.1-.4 2.72-.6 4.83-.6 4.83s2.3 1.2 2.3-1.6c.2-.7.3-1.5.4-2.3zM1988.3 2110.23c-1.8 4.3 1.9 3.8 2 2.5.2-1.9.7-3.8.8-5.72 0-1.8-.1-3.7-.2-5.6-.7.2-1.5.4-2.2.5-.1 1 .1 1.9.3 3 .3 1.8-.5 3.52-.7 5.33z" stroke="#000" stroke-opacity="0" fill="#232c44"/><path d="M2002.2 2047.57c0-1.7-.5-3.3-1.3-4.8-.8-1.52-1.8-2.83-2.9-4.03-1.1-1.3-2.2-2.5-4-3-1.9-.62-3.9-.4-5.9-.3-2.1.1-4.2.1-6.4.3-1 .1-2.1.2-3 .6-.9.4-1.6.9-2.4 1.4-1.6.8-3.3 1.3-4.9 2.3-1.7 1-2.4 2.62-3 4.52-.6 2.1-1 4.32-.8 6.53 0 .1 0 .1.1.1l-.1.1v.2c.2.2.3.3.5.4h.2c1.1-1.4 1.1-3.42 1.4-5.13.3-1 .4-2.5 1.4-3 .6-.4 1.5-.3 2.3-.5.6-.1 1.2-.3 1.7-.62.4-.2.7-.5 1.1-.6.6-.2 1.2.1 1.9.2 1.8.3 3.4-.2 5.2-.7 1.2-.3 2.2-.2 3.4 0 1 .2 2.1.3 3.1.5 1.1.2 2.1.3 3.2.5s2.3.3 2.9 1.5c.9 1.82 1.3 3.83 1.1 5.93-.1 1.9-.4 3.82-.2 5.73.1 1.1 1.1 1.6 1.7.6.3-.5.6-.6 1.2-.7.2 0 .4-.1.6-.2.5-.5.7-1.3.9-1.9.6-1.8 1-3.92 1-5.93z" stroke="#000" stroke-opacity="0" fill="#5a3728"/><path d="M1987 2030.4c-1.4-.1-2.7.3-3.8 1-1.5.9-2.1 2.62-3.8 3.22-2.4.8-4.1 2.4-3.9 5.12 0 .4.6.3.6-.1-.1-1.5.5-3 1.9-3.8.8-.62 1.9-.62 2.8-1.22 1-.7 1.5-1.8 2.4-2.5 1.1-.8 2.4-1.2 3.8-1.1.4 0 .4-.6 0-.6zM2000.7 2037.84c0-.4-.6-.3-.6 0 .1 2.9.2 5.62-2.3 7.53-.3.3.1.7.4.5 2.6-2.1 2.5-4.92 2.5-8.03zM1999.4 2035.73c0-.4-.6-.3-.6.1 0 1.9 0 3.8-1.1 5.52-.2.3.3.6.5.2 1.1-1.7 1.2-3.82 1.2-5.82z" stroke="#000" stroke-opacity="0" fill="#392e2a"/><path d="M1987.7 2113.24c27.6 0 50-22.4 50-50s-22.4-50-50-50-50 22.4-50 50 22.4 50 50 50z" stroke="#6c6e83" fill-opacity="0"/><path d="M1900 2215.02a6 6 0 0 1 6-6h1551a6 6 0 0 1 6 6v222.85a6 6 0 0 1-6 6H1906a6 6 0 0 1-6-6z" fill="#e0e8f5"/><path d="M1921 2209.02h14.97m7.5 0h14.98m7.5 0h14.98m7.5 0h14.98m7.5 0h14.98m7.5 0h14.98m7.5 0h14.98m7.5 0h14.98m7.5 0h14.98m7.5 0h14.97m7.5 0h14.98m7.5 0h14.98m7.5 0h14.98m7.5 0h15m7.48 0h15m7.48 0h15m7.48 0h14.98m7.5 0h14.98m7.5 0h14.98m7.5 0h14.98m7.5 0h14.98m7.5 0H2408m7.5 0h15m7.5 0h14.97m7.5 0h14.98m7.5 0h14.98m7.5 0h14.98m7.5 0h14.98m7.5 0h14.98m7.5 0h14.98m7.5 0h14.98m7.5 0h14.98m7.5 0h14.97m7.5 0h14.98m7.5 0h14.98m7.5 0h14.98m7.5 0h15m7.48 0h15m7.48 0h15m7.48 0h14.98m7.5 0h14.98m7.5 0h14.98m7.5 0h14.98m7.5 0h14.98m7.5 0H2925m7.5 0h15m7.5 0h14.97m7.5 0h14.98m7.5 0h14.98m7.5 0h14.98m7.5 0h14.98m7.5 0h14.98m7.5 0h14.98m7.5 0h14.98m7.5 0h14.98m7.5 0h14.97m7.5 0h14.98m7.5 0h14.98m7.5 0h14.98m7.5 0h15m7.48 0h15m7.48 0h14.98m7.5 0h14.98m7.5 0h14.98m7.5 0h14.98m7.5 0h14.98m7.5 0h14.98m7.5 0H3442m7.5 0h7.5l.94.07.9.2.88.37.8.5.72.6.6.72.5.8.37.86.23.92.07.94v7.43m0 7.43v14.85m0 7.43v14.86m0 7.43v14.85m0 7.43v14.86m0 7.42v14.85m0 7.43v14.86m0 7.43v14.84m0 7.43v14.86m0 7.43V2423m0 7.44v7.43l-.07.94-.22.92-.36.87-.5.8-.6.7-.7.62-.82.5-.87.36-.9.22-.95.07h-7.5m-7.5 0h-14.97m-7.5 0h-14.98m-7.5 0h-14.98m-7.5 0h-14.98m-7.5 0h-15m-7.48 0h-14.98m-7.5 0h-14.98m-7.5 0h-14.98m-7.5 0h-14.98m-7.5 0h-14.98m-7.5 0h-14.97m-7.5 0h-14.98m-7.5 0h-14.98m-7.5 0h-15m-7.48 0h-15m-7.48 0h-15m-7.48 0h-14.98m-7.5 0h-14.98m-7.5 0h-14.98m-7.5 0h-14.98m-7.5 0h-14.98m-7.5 0H2955m-7.5 0h-15m-7.5 0h-14.97m-7.5 0h-14.98m-7.5 0h-14.98m-7.5 0h-14.98m-7.5 0h-14.98m-7.5 0h-14.98m-7.5 0h-14.98m-7.5 0h-14.98m-7.5 0h-14.98m-7.5 0h-14.98m-7.5 0h-14.97m-7.5 0h-14.98m-7.5 0h-14.98m-7.5 0h-15m-7.48 0h-15m-7.48 0h-15m-7.48 0h-14.98m-7.5 0h-14.98m-7.5 0h-14.98m-7.5 0h-14.98m-7.5 0h-14.98m-7.5 0H2438m-7.5 0h-15m-7.5 0h-14.97m-7.5 0h-14.98m-7.5 0h-14.98m-7.5 0h-14.98m-7.5 0h-14.98m-7.5 0h-14.98m-7.5 0h-14.98m-7.5 0h-14.98m-7.5 0h-14.98m-7.5 0h-14.97m-7.5 0h-14.98m-7.5 0h-14.98m-7.5 0h-14.98m-7.5 0h-15m-7.48 0h-15m-7.48 0h-15m-7.48 0h-14.98m-7.5 0h-14.98m-7.5 0h-14.98m-7.5 0h-14.98m-7.5 0h-14.98m-7.5 0H1921m-7.5 0h-7.5l-.94-.07-.9-.22-.88-.36-.8-.5-.72-.6-.6-.72-.5-.8-.37-.88-.23-.9-.07-.95v-7.43m0-7.43v-14.84m0-7.43v-14.86m0-7.43v-14.85m0-7.44v-14.86m0-7.43v-14.85m0-7.43v-14.87m0-7.43v-14.86m0-7.42v-14.86m0-7.43v-14.86m0-7.42v-7.43l.07-.94.22-.92.35-.87.5-.8.6-.72.72-.62.8-.5.88-.35.9-.2.95-.08h7.5" stroke="#2f3564" stroke-width="1.5" fill="none"/><path d="M2255.7 2307.3a6 6 0 0 1 6-6H2494a6 6 0 0 1 6 6v38.3a6 6 0 0 1-6 6h-232.3a6 6 0 0 1-6-6z" stroke="#6c6e83" fill="#fff"/><path d="M2302.24 2314.95H2500v23h-197.76z" fill="none"/><use xlink:href="#r" transform="matrix(1,0,0,1,2302.2399266420302,2314.948112854041) translate(0 17.880208333333336)"/><use xlink:href="#s" transform="matrix(1,0,0,1,2302.2399266420302,2314.948112854041) translate(69.27083333333334 17.880208333333336)"/><path d="M2560 2307.3a6 6 0 0 1 6-6h185.76a6 6 0 0 1 6 6v38.3a6 6 0 0 1-6 6H2566a6 6 0 0 1-6-6z" stroke="#6c6e83" fill="#fff"/><path d="M2591.64 2314.95h134.48v23h-134.48z" fill="none"/><use xlink:href="#t" transform="matrix(1,0,0,1,2591.6437771635506,2314.9481128540865) translate(0 17.880208333333336)"/><use xlink:href="#u" transform="matrix(1,0,0,1,2591.6437771635506,2314.9481128540865) translate(71.88671875 17.880208333333336)"/><path d="M2003.7 2326.44a19.5 19.5 0 0 1 19.5-19.5h101a19.5 19.5 0 0 1 19.5 19.5 19.5 19.5 0 0 1-19.5 19.5h-101a19.5 19.5 0 0 1-19.5-19.5z" stroke="#6c6e83" fill="#fff"/><path d="M2063.02 2314.24h63.67v22.4H2063z" fill="none"/><use xlink:href="#v" transform="matrix(1,0,0,1,2063.0244380744134,2314.2367696723045) translate(0 17.57638888888889)"/><path d="M1987.7 2376.07c27.6 0 50-22.35 50-49.93 0-27.68-22.4-50.03-50-50.03s-50 22.36-50 50.04c0 27.58 22.4 49.93 50 49.93z" stroke="#6c6e83" fill="#a2c6f6"/><path d="M1987.6 2277.22c27 0 48.8 21.85 48.8 48.82 0 26.98-21.8 48.82-48.8 48.82-26.9 0-48.7-21.84-48.7-48.82 0-26.97 21.8-48.82 48.7-48.82z" stroke="#000" stroke-opacity="0" fill="#a2c6f6"/><path d="M2003.7 2357.55c.1.2.2.4.3.7.1.3.3.5.4.8 1.5 3.63 3 7.15 4.7 10.78.3.6.2.9.5 1.5 8.2-5.23 14.7-10.96 14.7-10.96s-.7-1.1-2.7-3.33c-1.6-1.9-3.5-3.62-5.5-5.13-4.2-2.9-9.1-5.02-14.2-5.12 0 0 0 .1-.1.2 0 .1-.1.3-.1.5 0 0 0 .1-.1.1 0 .2 0 .3-.1.5 0 .1-.1.3-.1.5v.1c.2 1.12.3 2.83.5 3.93.3 1.73 1.1 3.34 1.8 4.95z" stroke="#000" stroke-opacity="0" fill="#456664"/><path d="M2003.1 2348.1l-2.7.8-.7.2c-3.1 1-.9 5.03-3.3 5.73-.3.1-1.1 0-2.2-.3-2.6-.6-6.3-1.92-6.3-1.8 0 0-.4-.22-1.1-.42-1.6-.4-4.7-1.4-7.6-2.3l-3.6-1.2-.8-.2-1.7-.6 1.1-.52.5-.3h.1l1.5-.7 2.3-1.1s8.1 2.9 8.4 2.8c.2 0 7-3.32 7-3.32l6 2.12.1.1.5.2 1 .3.3.1 1.2.4z" stroke="#000" stroke-opacity="0" fill="#ffa894"/><path d="M1996.9 2294.74c-.1-1-.9-1.7-1.2-2.72-.3-1.1 0-2.32 0-3.42 0-.2.1-.4 0-.5 0-1.4-.4-2.72-1.7-3.53-1.1-.8-2.3-1.1-3.6-.9-.9.2-1.5.8-2.3 1.2-.4.2-.7.4-1 .7-.7.3-1.3.5-2 .7-1.1.2-2.1.62-2.8 1.62-.8 1.2-.9 3-1.2 4.42-.3 1-.4 2-.5 3.02v.3c-.1.7-.1 1.5.1 2.22.1.2.1.5.3.7.5 1.1 1.6 1.7 3 1.6.8 0 1.6-.2 2.4-.3 1.2-.1 2 .6 3.1.82h.1c.4.1.8.1 1.2.1.3 0 .5-.1.8-.1 0 0 .1-.1.2-.1 1.2-.3 2.4-1 3.4-1.92 1.1-1.1 1.9-2.5 1.7-3.92z" stroke="#000" stroke-opacity="0" fill="#db6e56"/><path d="M1996.9 2294.74c-.1-1-.9-1.7-1.2-2.72-.3-1.1 0-2.32 0-3.42 0-.2.1-.4 0-.5-.2.9-.5 1.8-.9 2.6-1 2.13-2.5 2.93-4.8 2.83-1.3-.1-2.1.1-3 1-1.4 1.2-4.6 2.12-6.4.8v.3c-.1.72-.1 1.52.1 2.23.1.2.1.5.3.7.5 1.1 1.6 1.7 3 1.6.8 0 1.6-.3 2.4-.3 1.2-.1 2 .5 3.1.82h1.3c.2 0 .5-.1.8-.1h.2c1.2-.3 2.4-1 3.4-1.92 1.1-1.1 1.9-2.5 1.7-3.92z" stroke="#000" stroke-opacity="0" fill="#c2563e"/><path d="M2004 2307.42c-.2-.9-.7-1.8-1.3-2.62-.2-.1-.3-.2-.4-.3-.5-.5-.6-.7-.8-1.4-.2-.4-.2-.7-.4-1.12-.5-.7-1.3-1.2-2.1-1.5-1.3-.6-2.6-1.1-3.8-1.82h-.1c-1.8-1-3.6-1.2-5.5-.7-.6-.3-1.2-.5-1.8-.5-1.3-.1-2.6.3-3.8.6-1 .2-2 .3-3 .5-.5.1-.9.1-1.4.3-4.8 1.3-6.8 6.24-7.5 10.77-.5.9-1 1.6-1.2 2.62-.1 1 0 2-.1 3.02-.2 1.3-.2 2.32.1 3.52.2.6.4 1.1.6 1.6.1.1.2.3.2.4.2 1 .7 1.82 1.3 2.42.3.5.5 1 .7 1.4 0 .2.1.4.2.62 0 .1 0 .1.1.2H1974.3c.1 0 .1-.1.2-.1v-.1-.1-.1l-.1-.1c0-.2-.1-.4-.2-.6l.2.2c.1 0 .2.1.2.2l.1.1c.4.2.7.5 1 .8 1.5 1.2 3 2.52 4.7 3.42 4.1 2.42 8.6 3.52 13.2 1.9 1.7-.5 3.3-1.4 4.8-2.5.4-.4.9-.8 1.3-1.2.2-.2.5-.4.7-.72.2-.2.4-.4.6-.7.7-.9 1.4-1.9 1.9-2.92.1-.3.2-.5.2-.7.7-2.02.2-4.03.9-6.04.5-1.5.5-3.02.2-4.53.3-1.4.2-2.82-.2-4.23z" stroke="#000" stroke-opacity="0" fill="#db6e56"/><path d="M1991.8 2335.7c-1.5.1-3 .1-4.6-.2-1.7-.3-3.3-.8-4.9-1.4-.7-.2-1.4-.5-1.9-1-.5-.4-.7-1.12-1.1-1.62-.2-.2-.5-.1-.5.2 0 1.9-.1 3.82-.1 5.74v.1c-.1 2.2-.1 4.43-.2 6.64V2345.36c0 1.1 0 2.12-.1 3.13v1.2c0 1.2 0 2.4-.1 3.52 0 .1.1.2.1.2 0 .1.1.1.1.1 3.8 1.4 7.5 14 11.4 13.9.9 0 3.3-8.06 4.2-8.16.5-.1 2.8-2.82 2.8-2.82l-1.8-5.94v-1.7l.2-3.43.3-7.35.2-2.92s-3 .5-4 .6z" stroke="#000" stroke-opacity="0" fill="#ffa894"/><path d="M1974.5 2309.43c1-.9 5.4-3.92 6.6-3.92 2.1-.1 6.3-1 8.3-.9 4.7.1 7.7 2 10.4 4.93.2.2.4.3.4.5 0 0 .1 0 .1.1v.1c.4 5.54.2 16.1-1.6 22.15-1 3.22-3.7 7.15-6.7 8.96-6.1 3.73-9.8.6-13.3-3.82-4.2-5.34-4.1-11.08-4.7-17.92-.1-1.7-.4-9.26.5-10.17z" stroke="#000" stroke-opacity="0" fill="#ffa894"/><path d="M1980 2322.12c-.1-.5-.1-1.1-.1-1.6.1-.32.2-.52.4-.72.5-.6 1.1 0 1.3.5.2.7.2 2.32-.5 2.62-.7.4-1-.1-1.1-.8zM1992.8 2322.12c-.1-.5-.1-1.1 0-1.6 0-.32.1-.52.3-.72.5-.6 1.2-.1 1.3.5.2.7.2 2.22-.4 2.62-.7.4-1-.1-1.2-.8z" stroke="#000" stroke-opacity="0" fill="#232c44"/><path d="M1975.7 2323.32c-.1-.8-.2-1.6-.5-2.3v-.1c-.2-.3-.4-.5-.6-.72 0-.1 0-.1-.1-.2 0 0-.1 0-.1-.1-.1 0-.1 0-.2.1l-.2-.2c-.1 0-.2-.1-.3-.2-.8-.4-1.7-.3-2.2.8 0 .1-.1.3-.1.4-.6 2.32-.2 5.24 1.4 7.05.2.2.4.5.7.8.3.3.7.6 1.1.9.1.1.3.22.5.22.4 0 .6-.3.6-1.3v-2.83-2.32z" stroke="#000" stroke-opacity="0" fill="#ffa894"/><path d="M1983.2 2332.48s1 1.1 1.7 1.4c.8.2 1.6.62 2.4.52.9 0 1.9-.3 2.7-.7.5-.3 1.6-1.32 1.6-1.32l-8.4.1z" stroke="#000" stroke-opacity="0" fill="#ad4444"/><path d="M1991.7 2340.94c-2.1 1.5-5.1 1.7-7.5.6-2.1-1-3.7-2.3-5.5-4.02-.1 2.2-.1 4.43-.2 6.64v.1c.9.2 1.7.5 2.6.6 1.5.1 2.7-.8 4.1-.8 1.3.1 2.5.4 3.7-.3 1-.5 1.9-1.3 2.6-2.12.1-.2.3-.4.4-.5.1-.1-.1-.3-.2-.2z" stroke="#000" stroke-opacity="0" fill="#f7886d"/><path d="M1984.6 2316.98c-.2-.7-1.1-.9-1.6-1-2.2-.5-4.8.2-6.4 1.7-.4.3.9.2 1 .2 1.4-.3 2.7-.3 4.1-.3h2c.4 0 1-.1.9-.6zM1998.1 2318.1c-1.6-1.62-4.2-2.33-6.4-1.92-.5.1-1.5.3-1.6.9-.2.5.4.6.8.7h2c1.4.1 2.8.2 4.1.5.1 0 1.4.2 1.1-.2z" stroke="#000" stroke-opacity="0" fill="#db6e56"/><path d="M1974.5 2326.95c-.5-.2-1.4-1.9-.1-1.9 0-.02 0-.02.1-.02 0 0 .1 0 .1-.1 0 0 0-.1.1-.1v-.1c-.3-1.3-.6-2.6-.8-3.82-.1-.4-.6-.3-.6.1.2 1.22.5 2.32.7 3.53-1.4.3-.9 2.52.3 3.02.4.1.5-.4.2-.6z" stroke="#000" stroke-opacity="0" fill="#f7886d"/><path d="M2003.1 2322.22c0-.3 0-.5-.1-.8-.4-1.62-1.6-1.72-2.6-1.12 0 .1 0 .1-.1.1l-.1.1c-.1-.1-.1-.1-.2 0h-.1c-.3.3-.5.6-.7.9v.1c-.4.72-.5 1.42-.6 2.23-.1 1.6-.2 3.22-.2 4.73 0 .2-.1.3-.1.5 0 1.1.4 1.4.9 1.2.2-.1.4-.2.5-.3.4-.2.7-.5 1-.8l.6-.6c1.5-1.6 2.1-4.13 1.8-6.24z" stroke="#000" stroke-opacity="0" fill="#ffa894"/><path d="M1999.6 2327.45c.5-.1 1.5-1.8.3-1.9h-.2s0-.1-.1-.1v-.1-.1l.9-3.84c.1-.4.6-.2.5.2-.2 1.12-.5 2.33-.8 3.43 1.4.4.8 2.62-.4 3.02-.4.1-.5-.4-.2-.6zM1987.5 2328.76c-1.8-.8-.9-2.42-.7-3.83l.6-3.92c0-.3-.6-.4-.6 0-.2 1.12-.3 2.12-.5 3.23-.1 1-.6 2.1-.7 3.12 0 1 .9 1.6 1.8 2 .3.1.5-.4.1-.6z" stroke="#000" stroke-opacity="0" fill="#f7886d"/><path d="M2001 2314.06c-.1-1.8-.1-3.92-.9-5.63-1-2.42-3.5-3.73-6-4.23-.2-.1-.4-.1-.6-.1-.5-.1-1.1-.2-1.7-.3h-1.1c-2.4 0-4.7.3-7 .7-2.1.3-4.2.8-6.1 1.7-.4.2-.7.4-1.1.52-.2.2-.5.3-.8.5-.9.5-1.8 1.2-2.1 2.3-.6 1.83-.6 7.97.1 10.08.1.4.2.6.4.8H1974.4l.2-.2c.4-.5.4-1.5.5-2.1.1-1.72 0-3.23.6-4.84.5-1.5 1.3-2.92 2.2-4.23 1-1.5 1.9-2.82 3.8-3.12 1.4-.2 3-.1 4.4-.2 1.2-.1 2.5-.2 3.7-.1 1.2.2 2.2.7 3.4 1 1.9.62 4.2.62 5.3 2.63.9 1.5.7 3.63.8 5.24l.6 5.73v.2l.1.1H2000.3c.1 0 .1-.1.1-.1.8-1.9.6-4.32.6-6.34z" stroke="#000" stroke-opacity="0" fill="#db6e56"/><path d="M1992.1 2301.98c-.1-.6-.3-1.1-.7-1.6-.4-.5-1.6-1.2-1.5-1.92.1-.4-.5-.4-.6 0 0 .7.3 1.1.8 1.5 1.4 1.22 2 2.83.7 4.44-.2.3.2.7.4.4.7-.8 1-1.7.9-2.82zM1993.6 2301.88c-.2-.3-.7-.1-.5.3.2.3.3.7.4 1.1.1.3 0 .72 0 1.12-.1.4.4.6.5.2.1-.5.2-.9.1-1.4-.1-.5-.3-.9-.5-1.32zM1976.8 2309.74c-1.6-.7-.2-2.52-.2-3.53 0-.5-.2-.7-.3-1.1-.4-1.1-.4-2.1.2-3.22.1-.4-.4-.7-.5-.3-.4.7-.7 1.5-.6 2.32 0 1.1.7 1.9.4 3.02-.3 1.1-.7 2.7.7 3.32.3.2.6-.3.3-.5zM1988.4 2291.2c-1-1.3-.8-3.3-.4-4.92 0-.3-.5-.5-.6-.1-.4 1.8-.6 3.93.5 5.44.3.3.7-.1.5-.4z" stroke="#000" stroke-opacity="0" fill="#c2563e"/><path d="M2004.4 2350.4c-.1-.6-.9-3.82-2.1-2.92-.1.1-.3.1-.4.2-.1 0-.2.1-.2.1v-.2h-.1l-1-.3-.5-.2-.1-.1c-1.1.8-11 16.6-11 16.6s-12.6-17.1-12.7-17.1c-.3-.1-1.2.2-1.8.4-.2.1-.5.2-.5.2-.2.1-.4.2-.6.2l-1.1.4-.4.2c-.5.2-1 .4-1.1.9v.1c0 .2 0 .4.1.7 0 .22.1.32.2.52.1.5.2 1 .4 1.5.3 1 .7 2.02 1 3.03.4 1.1.9 2.3 1.3 3.42 1.1 2.92 2.3 5.74 3.4 8.56 5.6 9.57-.9 10.78 25.1 7.15 1.4-4.02.2 1.7.7-2.5.1-.62.1-1.22.2-1.82 0-1.1.1-2.32.1-3.53v-.8c.1-.8.1-1.6.1-2.42.1-1.7.1-3.42.3-5.13.1-.4.1-.7.1-1 .1-.82.3-1.52.4-2.32.1-.4.1-.7.2-1.1.1-.92.1-1.82 0-2.73z" stroke="#000" stroke-opacity="0" fill="#fff8f0"/><path d="M1981.6 2376.17c-1.2-4.83-.5-2.12-1.6-6.54-.6-2.62-1.5-5.14-2-7.76-.2-.7-.3-1.5-.4-2.3-1.2-3.13-2.7-6.75-3.5-7.96-.8-1.1-1.7-2.6-1.8-4.02-.3 0-.5 0-.7.1-.3.1-.6.2-.9.2-.2.1-.5.2-.7.2-1.4.4-2.9.8-4.4 1.3-.2 0-.5.1-.7.2-1.1.32-2.1.72-3.1 1.12-2 .8-4 1.7-5.9 2.92-1.2.8-8.8 8.16-5.7 5.94 0 0 18 16.9 31.4 16.6zM2018.9 2364.5c0-4.34-.2-8.86-4-11.68-3.8-2.92-8.4-4.74-13.1-5.84l-.3 1c-.5 1.92-.4 3.73-.7 5.64-.3 2.52-1.2 4.83-2 7.05-.4 4.83-.5 9.56-.8 14.3 12.9-2.42 20.9-9.77 20.9-10.48z" stroke="#000" stroke-opacity="0" fill="#456664"/><path d="M1998.9 2361.47c.1 3.53 2.2 6.55 5 8.56 1.6 1.2 2.7 1.8 4.5 2.5.5.22-.1-.4.4-.4-.3-.3 1 .3.7 0-3.4-3.6-7.2-7.03-10.6-10.66zM2013.7 2363.6c.3-2.83.6-6.05.2-8.87-1.5 1-2.7 4.93-3.1 6.54-1.1-3.42-2.9-7.85-5.5-10.47h-.1c.8 4.13 2 8.26 3.3 12.28.6 2.12 2.3 7.75 2.3 7.75l1.3-.3s1.3-5.03 1.6-6.94zM2014.4 2362.78c-.3 2.62-1.7 6.14.1 6.14 1.1-2 2.6-3.12 2.6-5.43.1-1.72-.2-3.44-.8-5.05-.1-.4-1.1-2.6-1.7-3.52.3 2.62.1 5.34-.2 7.85zM2007.7 2362.78c-1.1-3.72-2.2-7.45-3-11.27-1.2 4.34-.6 8.97 1.6 12.9-2.2-1.42-4.6-2.63-7-3.53-.1-.1-.1-.1-.2-.1 3.4 3.62 7.1 6.94 10.5 10.47.3.3-.3-.2 0 .1-.1-.4.7.1.5-.3-.8-2.72-1.5-5.54-2.4-8.26zM1971.8 2364c-.1 0-.1 0-.1-.1-2.2-2.93-3.3-7.56-3.8-11.18-.6 1.5-2.5 5.33-4.1 6.04.1-2.92.8-6.04 1.6-8.66.1-.3.2-.5.2-.7 1.5-.5 3-.9 4.4-1.32.2 1.1.3 2.12.5 3.23.6 4.23 1.1 8.46 1.3 12.7zM1964.9 2349.6c-.1.4-.3.8-.4 1.1-.6 2.42-1.2 5.14-1.3 7.75-.5-1-1.1-3.32-1.2-3.72-.3-1.3-.3-2.72-.2-4.03 1-.4 2-.8 3.1-1.1zM1973.8 2351.2c-.7-1.1-1.4-2.3-1.5-3.62-.3 0-.5 0-.7.1-.3.1-.6.2-.9.2.1 1.3.3 2.62.5 3.83.5 3.94 1 7.76 1.2 11.7 1.9-4.14 2-8.77.4-13 .4.3.7.5 1 .8z" stroke="#000" stroke-opacity="0" fill="#232c44"/><path d="M2000.7 2329.06c-.1 0-.2-.1-.3-.2 0-.1-.1-.1-.2-.1h-.2l-.2.2v.2l-.1.7-.2 6.95c0 .1 0 .1.1.2 0 .1 0 .1.1.1 0 .1.1.1.2.1h.2c.9-.4 2.7-1.5 2.7-4 0-1.72-1.2-3.23-2.1-4.14zM1974.6 2329.56l-.1-1s-.1-.1-.1-.2c-.1 0-.1-.1-.2-.1h-.2c-.1 0-.1.1-.2.1l-.3.3c-.8 1-1.9 2.52-1.8 4.13.2 2.5 2 3.5 3 3.9h.2c.1 0 .1-.1.2-.1 0 0 .1-.1.1-.2v-.1l-.6-6.74z" stroke="#000" stroke-opacity="0" fill="#f2e7e1"/><path d="M1973.3 2330.77c-.8.4-1 1.7-.8 2.52.2 1 1.5 1.5 1.8.3.1-.5.1-3.43-1-2.83zM2001.1 2331.38c-1.2-.4-1 2.4-.9 2.9.4 1.22 1.7.72 1.8-.3.2-.9-.1-2.2-.9-2.6z" stroke="#000" stroke-opacity="0" fill="#a2c6f6"/><path d="M1998 2346.27c0 .2 0 .4-.1.6 0 .4-.1.8-.2 1.12-.9 4.6-2.7 8.94-4.1 13.37-.9 2.52-1.5 5.14-1.9 7.85-.1.8-.2 1.6-.4 2.42l-.3-.1c-.3-.1-.4.4-.1.5l.3.1c-.2.5-.3 1.1-.6 1.6l-.6-.2h-.1c-.1 0-.1 0-.1.1h-.1v.1l-.1.1v.2c.1.32.2.72.4 1.02-.3.5-.5.9-.8 1.3h-.2s0 .1-.1.1c0 .1-.1.2-.1.3-.2-.6-.3-1.2-.5-1.9.2-.1.4-.3.6-.5.2-.2-.2-.6-.4-.3l-.3.3c-.1-.5-.2-1-.4-1.4l.6-.62c.3-.2-.1-.5-.3-.3-.1.1-.3.2-.4.3-.2-.9-.5-1.9-.8-2.82.3-.1.4-.3.6-.6.1-.2.1-.5.1-.7-.1-.3-.2-.5-.4-.7l-.6-.3h-.2-.2c-2.1-6.75-4.8-13.3-8.2-19.44-.2-.4-.6-1.1-.9-1.6-.2.1-.4.1-.4.2.2.3.5.9.6 1.2 3.5 6.24 6.3 12.9 8.5 19.83-.2.1-.4.3-.5.5-.1.22-.2.42-.2.72 0 .7.7 1.1 1.4 1 .3 1.1.6 2.12.8 3.13-.3.3-.5.6-.8 1-.2.2.2.5.4.3.1-.3.4-.5.6-.7l.3 1.4c-.2.3-.3.5-.5.82-.2.2.3.4.4.2.1-.1.2-.3.3-.4.1.7.1.7.3 1.4 1.4 0 .4-.1 1.3-.1.2-.3.4-.7.6-1 0 .2.1.7.3.9.2.2.4.1.5 0 .4-.3.7-.7 1-1 .2-.3 1.1-1 .6-1.4-.3-.22-.8-.22-1.1-.32l-.5-.1.6-1.5.6.2c.3.1.4-.3.1-.4-.2-.1-.4-.2-.6-.2.2-.6.3-1.12.4-1.72.4-2.82 1-5.54 1.8-8.26 1.5-4.63 3.5-9.26 4.4-14.1 0-.3.1-.6.1-.9.1-.2.1-.3.1-.4l-.5-.2zm-12.4 22.35c0-.2 0-.3.1-.4 0-.2.1-.3.2-.4.2.5.3.9.4 1.4-.3 0-.7-.2-.7-.6zm1.2.4c-.1-.4-.3-.9-.4-1.3.7 0 .9.9.4 1.3zm3.4 5.03l.2.1c0 .1-.1.2-.1.3-.1-.1-.1-.2-.1-.4zm2 .5l-.7.7c-.1.1-.5.72-.7.92l-.3-1.1c.1-.3.2-.6.3-.8h.2c.2.1 1.2.2 1.2.3z" stroke="#000" stroke-opacity="0" fill="#fad3b1"/><path d="M1987.7 2376.07c27.6 0 50-22.35 50-49.93 0-27.68-22.4-50.03-50-50.03s-50 22.36-50 50.04c0 27.58 22.4 49.93 50 49.93z" stroke="#6c6e83" fill-opacity="0"/><path d="M1997.73 1274.42a19.5 19.5 0 0 1 19.5-19.5h121a19.5 19.5 0 0 1 19.5 19.5 19.5 19.5 0 0 1-19.5 19.5h-121a19.5 19.5 0 0 1-19.5-19.5z" stroke="#6c6e83" fill="#fff"/><path d="M2064 1263.92h128.93v23H2064z" fill="none"/><use xlink:href="#w" transform="matrix(1,0,0,1,2064,1263.9238061635756) translate(0 15.055555555555555)"/><path d="M1987.73 1324.42c27.6 0 50-22.4 50-50s-22.4-50-50-50-50 22.4-50 50 22.4 50 50 50z" stroke="#6c6e83" fill="#a2c6f6"/><path d="M1987.73 1323.12c26.9 0 48.8-21.8 48.8-48.8 0-26.9-21.9-48.8-48.8-48.8-27 0-48.8 21.9-48.8 48.8 0 27 21.8 48.8 48.8 48.8z" stroke="#000" stroke-opacity="0" fill="#fff"/><path d="M1987.73 1323.12c26.9 0 48.8-21.8 48.8-48.8 0-26.9-21.9-48.8-48.8-48.8-27 0-48.8 21.9-48.8 48.8 0 27 21.8 48.8 48.8 48.8z" stroke="#000" stroke-opacity="0" fill="#a2c6f6"/><path d="M2009.93 1273.02c-.5-2.4-.9-4.8-1.1-7.2-.1-2.3-.1-4.5-.2-6.8-.2-3.9-.8-8-3.1-11.2-2-2.9-4.6-5.6-7.8-6.9-3-1.1-6-1.5-9.1-1.7-3-.2-6.7.1-9.6 1.1-2.4.8-4.5 2.3-6.2 4.2-3.2 3.5-4.9 7.6-5.6 12.3-.3 1.6-.5 3.1-.7 4.7-.1 1.5-.2 3-.5 4.4-.4 1.6-1.2 2.9-1.8 4.3-.5 1.3-.8 2.6-1 3.9-.4 3.1-.1 6.2.6 9.2 0 .1.2.1.3-.1.2-1.5.5-3 1.1-4.4-.3 1.5-.3 3.1 0 4.6v.1h.1c1.2-.1 2.3-.1 3.4.1.8 0 1.5.2 2.3.4.5.1 1.2.5 1.7.3.4-.2.6-.7.8-1.1 0 .7 0 1.5.5 1.9.4.3 1.2.3 1.7.4l2 .3c.7.1 1.5.2 2.3.2 1.2.6 2.8.3 4.1.1h1.5c2.4-.1 4.7.2 7 .4 2.5.3 5 .7 7.5.9 1.6.1 2.2-.8 2.4-2.1.1.4.2.7.2 1.1h.1c0 .1.1.1.1.1h1.9c1.6 0 3.2-.1 4.8-.4.1 0 .1-.1.1-.1.4-2.2.7-4.5.8-6.7.1-2.2-.1-4.3-.6-6.3z" stroke="#000" stroke-opacity="0" fill="#232c44"/><path d="M2005.54 1276.12c-.4-1.4-.7-2.8-.7-4.2 0-.8.1-1.7-.2-2.5-.4-1.1-1.2-1.9-2.3-1.3-2.2 1.3-4.7 1.5-7.1 1.6-2.8.2-5.5.2-8.2-.3-2.4-.3-4.7-.9-7.1-.8-1.3 0-2.5.1-3.7-.2-1.1-.2-1.9-.9-3-.9-.1 0-.2 0-.2.1-.1 0-.1.1-.1.1-.2 2-.3 4.1-1.4 5.8-1 1.6-2 2.6-2.2 4.6-.1 1.9.2 3.7-.6 5.5.8.1 1.5.2 2.2.4.5.1 1.3.5 1.8.3.3-.2.6-.7.8-1.1 0 .7 0 1.6.5 1.9.4.3 1.2.3 1.7.4l2 .3c.7.1 1.5.2 2.3.2 1.2.6 2.8.3 4.1.2.5-.1.9-.1 1.4-.1h.1c2.3-.1 4.7.2 7 .4 2.5.3 5 .8 7.5.9 1.6.1 2.2-.8 2.4-2.1.1.4.1.7.2 1.1h.1c0 .1.1.1.1.1h1.9c-.1-1.6-.2-3.3-.1-4.9.1-2 1.5-3.5.8-5.5z" stroke="#000" stroke-opacity="0" fill="#485a7e"/><path d="M2001.73 1252.52c-1-1-5.1-1.2-6.4-1.3-2.1-.1-4.3-.1-6.4-.1-4.8.1-9.7.3-14.4 1.3-.1.1-.2.1-.3.2-.1.1-.1.2-.1.3 0 .1-.1.1-.1.2v.1c-.5 6.1-.9 16.3.9 23 1 3.6 4.7 7.6 7.7 9.9 3.5 2.7 6 2.1 9.6.4 2.3-1.2 4.5-2.8 6.1-4.8 1.9-2.4 2.6-4.4 3.1-7.3.7-3.9 1.1-7.8 1.2-11.8 0-1.9-.1-3.8-.2-5.7 0-1.2.2-3.4-.7-4.4z" stroke="#000" stroke-opacity="0" fill="#fea689"/><path d="M2005.54 1266.12c-.4-1.9-2.2-2.3-3.8-1.4-.3.2-.2.6.1.7-1.1 2-2.4 5-1.9 7.2.4 1.8 2.8 1 3.7.2 1.5-1.4 2.3-4.6 1.9-6.7zM1972.23 1272.02c.8.9 2.8 1.8 3.4 0 .7-2.2-.2-5.3-1.1-7.4.3 0 .5-.4.2-.6-1.4-1.1-3.3-.9-3.9.9-.7 2 .1 5.5 1.4 7.1z" stroke="#000" stroke-opacity="0" fill="#fea689"/><path d="M1982.04 1265.92c.1-.6.1-1.3 0-1.9 0-.3-.2-.6-.4-.9-.6-.6-1.3 0-1.5.7-.2.8-.2 2.7.6 3.1.9.4 1.2-.2 1.3-1zM1996.23 1265.92c.1-.6.2-1.2.1-1.9-.1-.3-.2-.6-.4-.8-.6-.7-1.3-.1-1.5.6-.3.8-.3 2.7.5 3.1.8.5 1.1-.1 1.3-1z" stroke="#000" stroke-opacity="0" fill="#232c44"/><path d="M2004.93 1297.02c-.9-1-3.2-.8-4.3-1.7-2.3-2-5-3.5-5.2-6.7-.2-2.8.3-5.6.1-8.4 0 0 0-.1-.1-.2-.1 0-.1-.1-.2-.1-.4.1-.7.1-1 .1v-.1l-.1-.1c0-.1-.1-.1-.1-.1h-.1c-4.4.4-8.8.7-13.2.9-.1-.3-.6-.3-.6.1v.1c-.1.1-.1.2 0 .2.2.8-.1 2-.1 2.8v.1c0 1 0 2-.1 3 0 1.2 0 2.6-.3 3.8-.2 1-1.2 2.4-1.9 3.2-2.1 2.3-6.9 2.5-9.5 3.2-.2 0 2.7.8 2.8.9 1.4 2.2 3.3 4 5.4 5.4 1.1.8 2.1 1.4 3.2 2 1 .6 2 1.3 3.1 1.4 2.9.1 6.3-1.4 8.9-2.4 2.4-.8 4.8-1.6 7.1-2.6 1-.4 1.9-.8 2.9-1.3.4-.2 1.4-.4 1.6-1 .1-.5 2-2.2 1.7-2.5z" stroke="#000" stroke-opacity="0" fill="#fea689"/><path d="M1974.04 1270.42c-.7-.3-.9-.9-.4-1.8.1-.1.2-.1.2-.2.1-.1.1-.3.1-.4.2-1-.2-2.2-.3-3.2 0-.4-.7-.3-.6.1.1.8.3 1.7.3 2.6 0 .7-.5.8-.7 1.4-.3.9.4 1.6 1.1 2 .4.2.7-.3.3-.5zM2003.73 1265.72c.1-.4-.6-.5-.7-.1-.2.7-.5 1.6-.5 2.4 0 .8.8 1.6-.1 2.3-.3.2 0 .8.4.5.5-.4.8-.9.7-1.6-.1-.6-.4-.9-.3-1.6.1-.6.3-1.3.5-1.9zM1991.73 1286.42c-2.2.9-4.4 1.5-6.6.5-1.8-.8-3.5-1.8-5.1-3 0 1 0 2-.1 3 0 1.2-.1 2.6-.3 3.8.2.1.4.2.6.2.3 0 .6-.2.9-.2.8-.1 1.6.2 2.4.4.9.2 1.9.6 2.9.5 1-.2 1.4-1 2.2-1.5 1.6-.7 3.5-1.4 3.5-3.4v-.2l-.1-.1h-.2-.1zM1990.63 1271.62c-.5-1.6-1-3-.8-4.6 0-.4-.6-.6-.7-.2-.1 1.4.2 2.7.6 4 .2.7.8 1.9.7 2.7-.2 1.2-2.5 1-3.4.9-.4-.1-.6.6-.2.6 1.1.1 3.7.3 4.2-1 .3-.7-.2-1.8-.4-2.4z" stroke="#000" stroke-opacity="0" fill="#f2815c"/><path d="M1984.54 1259.72c-.5-.9-2.2-1-3.1-1.1-1.3 0-3 .6-3.8 1.7-.1.1-.1.2-.1.3 0 .1 0 .1.1.2.6.6 1.8-.1 2.4-.1.9-.1 1.8-.1 2.7 0 .4 0 .9.2 1.3 0 .4-.1.7-.5.5-1zM1993.43 1261.12c.4.1.9-.1 1.3-.2.9-.1 1.8-.2 2.7-.2.6.1 1.9.6 2.4 0 .1-.1.1-.1.1-.2s0-.2-.1-.2c-.9-1.2-2.6-1.6-4-1.5-.8.1-2.6.4-2.9 1.3-.2.4.1.9.5 1z" stroke="#000" stroke-opacity="0" fill="#232c44"/><path d="M1992.93 1277.02c-.3 0-.9.2-1.2.2-1.8.2-3.7.2-5.5.2-.7-.1-1.5-.1-2.2-.3-.5-.2.3.7.3.8l1.2.9c.9.6 1.9.8 3 .6.9-.1 1.8-.2 2.7-.6.5-.2 1.4-.8 1.6-1.4.1-.3.2-.3.1-.4z" stroke="#000" stroke-opacity="0" fill="#fff"/><path d="M1981.63 1272.12c-1.1.1-2.2-.1-3.1-.7-.9-.5-1.6-1.3-2.1-2.2-.5-1-.6-2-.5-3.1.1-1 .6-2 1.3-2.8.7-.8 1.6-1.4 2.6-1.6 1-.3 2.1-.3 3.1.1 1 .3 1.9.9 2.5 1.8.7.8 1.1 1.8 1.1 2.9.1 1.4-.4 2.8-1.3 3.8-.9 1.1-2.2 1.7-3.6 1.8zm-.7-10.1c-1 0-1.9.4-2.7 1-.7.5-1.3 1.3-1.6 2.3-.3.9-.4 1.9-.1 2.8.2.9.8 1.7 1.5 2.4.7.6 1.6 1 2.6 1.1.9.2 1.9 0 2.8-.4.8-.5 1.5-1.1 2-2 .5-.8.7-1.8.6-2.7 0-1.3-.6-2.5-1.6-3.3-1-.9-2.2-1.3-3.5-1.2zM1996.34 1271.92c-1.1.1-2.2-.2-3.1-.7-.9-.5-1.6-1.3-2.1-2.3-.5-.9-.6-2-.5-3 .1-1.1.6-2 1.3-2.8.7-.8 1.6-1.4 2.6-1.7 1-.3 2.1-.2 3.1.1 1 .4 1.9 1 2.5 1.8.7.9 1.1 1.9 1.1 2.9.1 1.4-.3 2.8-1.3 3.9-.9 1.1-2.2 1.7-3.6 1.8zm-.7-10.2c-1 .1-1.9.4-2.7 1-.7.6-1.3 1.4-1.6 2.3-.3.9-.4 1.9-.1 2.8.2 1 .8 1.8 1.5 2.4.7.7 1.6 1.1 2.6 1.2.9.1 1.9 0 2.8-.5.8-.4 1.5-1.1 2-1.9.5-.8.7-1.8.6-2.7 0-1.3-.6-2.5-1.6-3.4-1-.8-2.2-1.3-3.5-1.2z" stroke="#000" stroke-opacity="0" fill="#ecf2fb"/><path d="M1990.84 1266.02l-4.5.2v.5l4.5-.2v-.5zM1973.84 1262.62l-.4.3 2.8 2.6.3-.4-2.7-2.5zM2002.54 1263.42l-1.8 1.6.3.4 1.8-1.7-.3-.3z" stroke="#000" stroke-opacity="0" fill="#ecf2fb"/><path d="M2003.93 1261.72v.1c-1-.3-.3-4.3-.2-5.1.1-1.4.1-2.8-.5-4.1-.4-.7-1-1.3-1.6-1.9-.6-.6-1.2-1.1-1.9-1.5-1.6-.9-3.5-.9-5.2-1.1-3.8-.3-7.5-1.2-11.2.2-.9.4-1.8.7-2.7.9-1 .2-1.9.3-2.9.5-.7.2-1.3.5-1.9.8-.8.5-1.1 1.1-1.5 1.8-1.9 3.4-2.3 7.4-.9 11v.1H1973.73c1.6-1.7 1.2-4.2 1.8-6.3 1 .1 2 .1 3-.2.7-.2 1.2-.4 1.9-.4.5 0 .9.1 1.4 0 .9-.3 1.4-.9 1.7-1.6l-.1 1.3v.1s0 .1.1.1h.1c1.4-.8 2.1-2.1 2.7-3.5v1c.1.4 0 .9.2 1.3.2.5.7.4 1.2.4l3.2.2c.1 0 .1 0 .1-.1 0 0 .1 0 .1-.1 0-.5.1-1.1.2-1.7v.4c.1.3.3 1.1.5 1.3.5.5 1.4.4 2 .3 1.1-.2 2.1 0 3.2.1.7 0 1.4-.1 1.9-.6.8 1.3 1.3 2.9 1.8 4.3.6 1.6 1.1 3.1 1.5 4.7 0 .1 0 .1.1.1h.1c.5-.2 1-.6 1.3-1.1.4-.5.5-1.1.5-1.7 0-.2-.3-.2-.3 0z" stroke="#000" stroke-opacity="0" fill="#232c44"/><path d="M1978.63 1245.12c-2.1 3.1-3.3 6.7-3.5 10.5 0 .4.6.3.7-.1.2-3.6 1.4-7.1 3.4-10.1.2-.4-.3-.7-.6-.3zM1982.73 1244.12c-1.6 2.2-2.7 4.6-3.2 7.2-.1.4.5.5.6.1.5-2.5 1.6-4.8 3-6.8.3-.4-.2-.8-.4-.5zM2003.13 1262.52l-2.3-7.1c-.1-.3-.7-.1-.6.3l2.3 7c.2.4.8.1.6-.2z" stroke="#000" stroke-opacity="0" fill="#485a7e"/><path d="M2003.04 1271.52c-.1-.1-.3-.2-.4-.2-.2 0-.4.1-.5.2-.1.1-.2.2-.2.3 0 .1-.1.2-.1.3 0 .1.1.3.1.4.3.5 1.1.4 1.3-.1.1-.2.1-.3 0-.5 0-.1-.1-.3-.2-.4zM1974.04 1271.22h-.1v-.1h-.1H1973.54h-.1c-.1 0-.2.1-.3.2-.1 0-.2.1-.2.2v.4c0 .1.1.3.2.4.1.1.3.2.4.1h.1c.2 0 .3 0 .4-.1.1-.1.2-.2.2-.4.1-.1 0-.2 0-.3 0-.2-.1-.3-.2-.4z" stroke="#000" stroke-opacity="0" fill="#f7e9e1"/><path d="M2025.54 1306.22s-1.5-2.5-2.1-3.2c-2.5-2.6-21.8-7.3-21.8-7.3v.2c-3.7 2.4-8.3 3.6-12.5 3.9-2.9.2-5.9-.3-8.8-.9-2.6-.6-5.2-1.6-6.7-3.7H1973.34s-16.3 4.2-20 7.9c-.4.4-2.2 5.5-2.2 5.5 19.7 22.4 58.5 19.5 74.4-2.4z" stroke="#000" stroke-opacity="0" fill="#ed6a55"/><path d="M2010.93 1310.32c-.1-.2-.3-.3-.5-.4-.2-.2-.3-.5-.4-.8-.4-.9-.9-.6-1.6-.6-.9 0-2.1-.5-2.6.5-.2.3-.1.4-.1.7.1.6.2.8-.1 1.4-.1.1-.2.2-.3.4 0 .3 0 .6.1.8.2.4.6.4.9.7.7.5.7 1.5 1.8 1.4.5-.1 1.2-.4 1.5-.8.1-.3.1-.5.2-.7.1-.5.5-.6.8-.9.3-.3.5-.7.6-1.1v-.3c-.1-.2-.2-.3-.3-.3zm-2.1 1c0 .3-.3.5-.5.5-.1.1-.2.1-.4.1-.1-.1-.3-.1-.4-.3-.1-.2-.2-.3-.2-.4v-.3c0-.2.1-.4.2-.5.1-.1.3-.2.5-.2H2008.34c.2 0 .3.1.4.3.1.1.1.3.1.5v.3z" stroke="#000" stroke-opacity="0" fill="#fff"/><path d="M2004.04 1296.62c-4 4.3-10.6 6.2-16.3 6.3-2.9 0-5.9-.6-8.8-1.3-3-.8-5.9-2.3-7.1-5.3-.2-.4-.8-.2-.6.2 1 2.6 3.2 4.2 5.7 5.1 3.1 1.1 6.4 1.8 9.7 1.9 6.2.2 13.5-1.8 17.8-6.4.3-.3-.2-.8-.4-.5z" stroke="#000" stroke-opacity="0" fill="#d14b36"/><path d="M1987.73 1324.42c27.6 0 50-22.4 50-50s-22.4-50-50-50-50 22.4-50 50 22.4 50 50 50z" stroke="#6c6e83" fill-opacity="0"/><path d="M2255.7 1255.27a6 6 0 0 1 6-6h308a6 6 0 0 1 6 6v38.3a6 6 0 0 1-6 6h-308a6 6 0 0 1-6-6z" stroke="#6c6e83" fill="#fff"/><path d="M2306.9 1262.92h217.6v23h-217.6z" fill="none"/><g><use xlink:href="#x" transform="matrix(1,0,0,1,2306.9069654340265,1262.9238061635747) translate(0 17.880208333333336)"/><use xlink:href="#y" transform="matrix(1,0,0,1,2306.9069654340265,1262.9238061635747) translate(69.08854166666667 17.880208333333336)"/><use xlink:href="#z" transform="matrix(1,0,0,1,2306.9069654340265,1262.9238061635747) translate(109.65755208333334 17.880208333333336)"/></g><path d="M2632.2 1255.27a6 6 0 0 1 6-6h247a6 6 0 0 1 6 6v38.3a6 6 0 0 1-6 6h-247a6 6 0 0 1-6-6z" stroke="#6c6e83" fill="#fff"/><path d="M2673.65 1262.92h176.1v23h-176.1z" fill="none"/><g><use xlink:href="#A" transform="matrix(1,0,0,1,2673.6461350393815,1262.923806163575) translate(0 17.880208333333336)"/><use xlink:href="#c" transform="matrix(1,0,0,1,2673.6461350393815,1262.923806163575) translate(54.93359375 17.880208333333336)"/><use xlink:href="#B" transform="matrix(1,0,0,1,2673.6461350393815,1262.923806163575) translate(71.15755208333334 17.880208333333336)"/><use xlink:href="#C" transform="matrix(1,0,0,1,2673.6461350393815,1262.923806163575) translate(133.07291666666669 17.880208333333336)"/></g><path d="M2947.7 1255.27a6 6 0 0 1 6-6h347a6 6 0 0 1 6 6v38.3a6 6 0 0 1-6 6h-347a6 6 0 0 1-6-6z" stroke="#6c6e83" fill="#fff"/><path d="M3005.15 1262.92h244.1v23h-244.1z" fill="none"/><g><use xlink:href="#A" transform="matrix(1,0,0,1,3005.1472724318046,1262.92380616362) translate(0 17.880208333333336)"/><use xlink:href="#c" transform="matrix(1,0,0,1,3005.1472724318046,1262.92380616362) translate(54.93359375 17.880208333333336)"/><use xlink:href="#B" transform="matrix(1,0,0,1,3005.1472724318046,1262.92380616362) translate(71.15755208333334 17.880208333333336)"/><use xlink:href="#h" transform="matrix(1,0,0,1,3005.1472724318046,1262.92380616362) translate(133.07291666666669 17.880208333333336)"/></g><path d="M2530 2349.13v-47.08M2530 2349.1v.78M2530 2302.07v-.77" stroke="#6c6e83" stroke-width="1.5" fill="none"/><path d="M1920 1046a6 6 0 0 1 6-6h148a6 6 0 0 1 6 6v68a6 6 0 0 1-6 6h-148a6 6 0 0 1-6-6z" stroke="#3a414a" fill="#fff"/><g><use xlink:href="#D" transform="matrix(1,0,0,1,1932,1052) translate(0 35.444444444444436)"/><use xlink:href="#E" transform="matrix(1,0,0,1,1932,1052) translate(86.02469135802467 35.444444444444436)"/></g><defs><path fill="#172b4d" d="M973-380H363L226 0H28l556-1456h168L1309 0h-197zM421-538h495l-248-681" id="F"/><path fill="#172b4d" d="M520 20C244 20 95-247 95-550c0-298 151-550 427-552 127 0 227 43 301 130v-564h185V0H838l-9-116C755-25 652 20 520 20zm48-965c-210 0-288 177-288 416 0 218 87 392 286 392 117 0 203-53 257-158v-497c-55-102-140-153-255-153" id="G"/><path fill="#172b4d" d="M1240-945c-141 0-250 95-250 227V0H804v-709c0-157-77-236-231-236-121 0-204 52-249 155V0H139v-1082h175l5 120c79-93 186-140 321-140 151 0 254 58 309 174 69-98 181-174 345-174 237 0 362 126 362 377V0h-185v-714c-2-159-67-231-231-231" id="H"/><path fill="#172b4d" d="M341 0H156v-1082h185V0zm-91-1264c-68 0-108-42-109-105 0-62 41-107 109-107s110 44 110 107-42 105-110 105" id="I"/><path fill="#172b4d" d="M589-945c-131 0-219 81-264 174V0H140v-1082h175l6 136c83-104 191-156 324-156 229 0 346 129 346 387V0H806v-716c-2-153-65-229-217-229" id="J"/><g id="a"><use transform="matrix(0.00911458333333333,0,0,0.00911458333333333,0,0)" xlink:href="#F"/><use transform="matrix(0.00911458333333333,0,0,0.00911458333333333,12.177083333333329,0)" xlink:href="#G"/><use transform="matrix(0.00911458333333333,0,0,0.00911458333333333,22.704427083333325,0)" xlink:href="#H"/><use transform="matrix(0.00911458333333333,0,0,0.00911458333333333,39.06510416666666,0)" xlink:href="#I"/><use transform="matrix(0.00911458333333333,0,0,0.00911458333333333,43.59505208333332,0)" xlink:href="#J"/></g><g id="b"><use transform="matrix(0.009114583333333334,0,0,0.009114583333333334,0,0)" xlink:href="#F"/><use transform="matrix(0.009114583333333334,0,0,0.009114583333333334,12.177083333333334,0)" xlink:href="#G"/><use transform="matrix(0.009114583333333334,0,0,0.009114583333333334,22.704427083333336,0)" xlink:href="#G"/></g><path fill="#172b4d" d="M572 20C306 25 99-136 101-391c0-70 20-134 59-193s113-127 223-205c-65-79-108-142-130-190s-33-96-33-143c-3-220 144-354 364-354 187 0 349 127 346 308-3 212-172 290-307 398l324 387c45-87 68-183 68-289h167c0 170-41 311-123 423L1267 0h-222l-97-115C862-36 726 17 572 20zM286-391c0 162 118 260 286 260 98 0 188-37 269-112L486-668c-110 72-200 183-200 277zm297-933c-109 0-180 87-178 196 0 64 39 144 118 240 93-79 236-119 236-280 0-91-82-156-176-156" id="K"/><use transform="matrix(0.009114583333333334,0,0,0.009114583333333334,0,0)" xlink:href="#K" id="c"/><path fill="#172b4d" d="M561-1102c238-4 403 126 403 351v498c0 99 13 178 38 237V0H808c-11-21-19-59-26-114C696-25 593 20 474 20c-199 0-368-130-365-320 4-251 214-359 490-356h180v-85c-1-135-86-212-229-212-115 0-232 67-233 171H131c20-205 206-316 430-320zM294-326c0 117 90 185 207 185 122 0 239-75 278-162v-222H634c-227 0-340 66-340 199" id="L"/><path fill="#172b4d" d="M521 20C240 20 96-239 96-550c0-303 147-552 427-552 132 0 235 47 309 140l9-120h169V-26c4 277-183 454-459 452-165-1-334-81-400-187l96-111c79 98 176 147 291 147 180 1 288-109 286-290v-93C750-23 649 20 521 20zm48-965c-209 0-287 178-287 416 0 217 86 392 285 392 117 0 202-53 257-159v-494c-57-103-142-155-255-155" id="M"/><path fill="#172b4d" d="M599-131c141 0 220-65 285-146l113 88C906-50 770 20 589 20 281 21 93-214 93-545c0-223 93-397 233-485 74-48 154-72 240-72 300 2 449 218 445 537v77H278c0 197 129 357 321 357zm227-509c-3-180-88-310-260-310-170 0-264 140-282 310h542" id="N"/><g id="d"><use transform="matrix(0.009114583333333334,0,0,0.009114583333333334,0,0)" xlink:href="#H"/><use transform="matrix(0.009114583333333334,0,0,0.009114583333333334,16.360677083333336,0)" xlink:href="#L"/><use transform="matrix(0.009114583333333334,0,0,0.009114583333333334,26.51432291666667,0)" xlink:href="#J"/><use transform="matrix(0.009114583333333334,0,0,0.009114583333333334,36.81380208333334,0)" xlink:href="#L"/><use transform="matrix(0.009114583333333334,0,0,0.009114583333333334,46.96744791666668,0)" xlink:href="#M"/><use transform="matrix(0.009114583333333334,0,0,0.009114583333333334,57.44010416666668,0)" xlink:href="#N"/></g><path fill="#172b4d" d="M491 20c-241-1-355-148-355-398v-704h185v699c0 164 67 246 200 246 141 0 235-53 282-158v-787h185V0H812l-4-107C736-22 630 20 491 20" id="O"/><path fill="#172b4d" d="M538-131c121 0 232-49 232-156 0-50-20-88-56-117-73-60-334-92-420-143-92-55-162-110-162-238 0-190 192-317 400-317 223 0 414 129 413 338H759c0-108-110-186-227-186-119 0-215 53-215 159 0 45 18 78 53 101 76 52 331 90 416 139 98 57 169 115 169 251C955-92 760 20 538 20c-176 0-314-68-386-174-38-55-57-115-57-179h185c6 129 116 202 258 202" id="P"/><path fill="#172b4d" d="M663-916c-163-27-288 18-338 148V0H140v-1082h180l3 125c61-97 147-145 258-145 36 0 63 5 82 14v172" id="Q"/><g id="e"><use transform="matrix(0.009114583333333334,0,0,0.009114583333333334,0,0)" xlink:href="#O"/><use transform="matrix(0.009114583333333334,0,0,0.009114583333333334,10.290364583333334,0)" xlink:href="#P"/><use transform="matrix(0.009114583333333334,0,0,0.009114583333333334,19.915364583333336,0)" xlink:href="#N"/><use transform="matrix(0.009114583333333334,0,0,0.009114583333333334,29.804687500000004,0)" xlink:href="#Q"/><use transform="matrix(0.009114583333333334,0,0,0.009114583333333334,36.12109375,0)" xlink:href="#P"/></g><path fill="#172b4d" d="M277-555c0 244 77 420 297 424 127 2 249-93 255-210h175C980-127 805 20 574 20 258 20 81-222 92-562c11-319 164-533 481-540 237-5 426 165 431 392H829c-7-133-115-242-256-240-209 4-296 166-296 395" id="R"/><path fill="#172b4d" d="M584 20C278 26 81-227 91-551c10-320 175-545 491-551 308-5 503 247 494 573-9 322-175 543-492 549zm-2-970c-208 0-305 185-305 421 0 216 106 398 307 398 211 0 307-186 307-420 0-214-109-399-309-399" id="S"/><path fill="#172b4d" d="M456 20C285 20 205-92 206-268v-671H9v-143h197v-262h185v262h202v143H391v671c-9 125 92 149 207 118V0c-49 13-96 20-142 20" id="T"/><g id="f"><use transform="matrix(0.009114583333333334,0,0,0.009114583333333334,0,0)" xlink:href="#L"/><use transform="matrix(0.009114583333333334,0,0,0.009114583333333334,10.153645833333334,0)" xlink:href="#R"/><use transform="matrix(0.009114583333333334,0,0,0.009114583333333334,19.924479166666668,0)" xlink:href="#R"/><use transform="matrix(0.009114583333333334,0,0,0.009114583333333334,29.695312500000004,0)" xlink:href="#S"/><use transform="matrix(0.009114583333333334,0,0,0.009114583333333334,40.341145833333336,0)" xlink:href="#O"/><use transform="matrix(0.009114583333333334,0,0,0.009114583333333334,50.63151041666667,0)" xlink:href="#J"/><use transform="matrix(0.009114583333333334,0,0,0.009114583333333334,60.93098958333334,0)" xlink:href="#T"/><use transform="matrix(0.009114583333333334,0,0,0.009114583333333334,67.02864583333334,0)" xlink:href="#P"/></g><path fill="#172b4d" d="M688-137c238 0 323-102 359-325h193c-32 297-228 482-552 482-361 0-569-299-569-680 0-197 8-360 73-497 88-186 257-317 513-319 316-2 509 195 535 488h-193c-31-212-118-330-342-330-272 0-397 224-393 523v141c-3 282 115 517 376 517" id="U"/><path fill="#172b4d" d="M704-1390c-164-38-297 28-288 194v114h231v143H416V0H231v-939H60v-143h171v-111c-12-274 208-416 483-347" id="V"/><g id="g"><use transform="matrix(0.009114583333333334,0,0,0.009114583333333334,0,0)" xlink:href="#U"/><use transform="matrix(0.009114583333333334,0,0,0.009114583333333334,12.149739583333334,0)" xlink:href="#S"/><use transform="matrix(0.009114583333333334,0,0,0.009114583333333334,22.795572916666668,0)" xlink:href="#J"/><use transform="matrix(0.009114583333333334,0,0,0.009114583333333334,33.095052083333336,0)" xlink:href="#V"/><use transform="matrix(0.009114583333333334,0,0,0.009114583333333334,39.575520833333336,0)" xlink:href="#I"/><use transform="matrix(0.009114583333333334,0,0,0.009114583333333334,44.10546875,0)" xlink:href="#M"/><use transform="matrix(0.009114583333333334,0,0,0.009114583333333334,54.578125,0)" xlink:href="#O"/><use transform="matrix(0.009114583333333334,0,0,0.009114583333333334,64.86848958333333,0)" xlink:href="#Q"/><use transform="matrix(0.009114583333333334,0,0,0.009114583333333334,71.01171875,0)" xlink:href="#N"/></g><path fill="#172b4d" d="M632-1102c291 0 422 251 422 573 0 297-141 548-419 549-131 0-235-42-310-125v521H140v-1498h169l9 120c75-93 180-140 314-140zm-53 971c207 0 290-180 290-419 0-218-92-395-292-395-112 0-196 50-252 149v517c55 99 140 148 254 148" id="W"/><g id="h"><use transform="matrix(0.009114583333333334,0,0,0.009114583333333334,0,0)" xlink:href="#R"/><use transform="matrix(0.009114583333333334,0,0,0.009114583333333334,9.770833333333334,0)" xlink:href="#S"/><use transform="matrix(0.009114583333333334,0,0,0.009114583333333334,20.416666666666668,0)" xlink:href="#H"/><use transform="matrix(0.009114583333333334,0,0,0.009114583333333334,36.77734375,0)" xlink:href="#W"/><use transform="matrix(0.009114583333333334,0,0,0.009114583333333334,47.25,0)" xlink:href="#S"/><use transform="matrix(0.009114583333333334,0,0,0.009114583333333334,57.895833333333336,0)" xlink:href="#J"/><use transform="matrix(0.009114583333333334,0,0,0.009114583333333334,68.1953125,0)" xlink:href="#N"/><use transform="matrix(0.009114583333333334,0,0,0.009114583333333334,78.08463541666667,0)" xlink:href="#J"/><use transform="matrix(0.009114583333333334,0,0,0.009114583333333334,88.38411458333334,0)" xlink:href="#T"/><use transform="matrix(0.009114583333333334,0,0,0.009114583333333334,94.48177083333334,0)" xlink:href="#P"/></g><path fill="#172b4d" d="M631-137c179 0 314-70 314-231 0-71-25-127-75-166s-141-77-272-115c-165-47-285-106-360-175s-112-154-112-255c0-245 231-397 495-397 206 0 369 89 449 218 43 68 65 142 65 223H942c0-184-129-283-321-283-172 0-299 76-301 236 0 59 26 109 76 150s135 78 256 113c205 59 345 116 436 256 35 53 50 119 50 193-2 256-231 398-507 390C333 12 90-129 80-422h193c0 187 160 285 358 285" id="X"/><g id="i"><use transform="matrix(0.009114583333333334,0,0,0.009114583333333334,0,0)" xlink:href="#X"/><use transform="matrix(0.009114583333333334,0,0,0.009114583333333334,11.07421875,0)" xlink:href="#L"/><use transform="matrix(0.009114583333333334,0,0,0.009114583333333334,21.227864583333336,0)" xlink:href="#V"/><use transform="matrix(0.009114583333333334,0,0,0.009114583333333334,27.489583333333336,0)" xlink:href="#N"/><use transform="matrix(0.009114583333333334,0,0,0.009114583333333334,37.37890625,0)" xlink:href="#P"/></g><g id="j"><use transform="matrix(0.00911458333333333,0,0,0.00911458333333333,0,0)" xlink:href="#X"/><use transform="matrix(0.00911458333333333,0,0,0.00911458333333333,11.074218749999996,0)" xlink:href="#L"/><use transform="matrix(0.00911458333333333,0,0,0.00911458333333333,21.227864583333325,0)" xlink:href="#V"/><use transform="matrix(0.00911458333333333,0,0,0.00911458333333333,27.48958333333333,0)" xlink:href="#N"/></g><g id="k"><use transform="matrix(0.00911458333333333,0,0,0.00911458333333333,0,0)" xlink:href="#H"/><use transform="matrix(0.00911458333333333,0,0,0.00911458333333333,16.36067708333333,0)" xlink:href="#L"/><use transform="matrix(0.00911458333333333,0,0,0.00911458333333333,26.514322916666657,0)" xlink:href="#J"/><use transform="matrix(0.00911458333333333,0,0,0.00911458333333333,36.81380208333332,0)" xlink:href="#L"/><use transform="matrix(0.00911458333333333,0,0,0.00911458333333333,46.96744791666665,0)" xlink:href="#M"/><use transform="matrix(0.00911458333333333,0,0,0.00911458333333333,57.44010416666664,0)" xlink:href="#N"/><use transform="matrix(0.00911458333333333,0,0,0.00911458333333333,67.32942708333331,0)" xlink:href="#Q"/></g><path fill="#172b4d" d="M375 0H183v-1456h192V0" id="Y"/><path fill="#172b4d" d="M341 0H156v-1536h185V0" id="Z"/><g id="l"><use transform="matrix(0.009114583333333334,0,0,0.009114583333333334,0,0)" xlink:href="#Y"/><use transform="matrix(0.009114583333333334,0,0,0.009114583333333334,5.076822916666667,0)" xlink:href="#H"/><use transform="matrix(0.009114583333333334,0,0,0.009114583333333334,21.437500000000007,0)" xlink:href="#W"/><use transform="matrix(0.009114583333333334,0,0,0.009114583333333334,31.910156250000004,0)" xlink:href="#Z"/><use transform="matrix(0.009114583333333334,0,0,0.009114583333333334,36.44010416666667,0)" xlink:href="#N"/><use transform="matrix(0.009114583333333334,0,0,0.009114583333333334,46.32942708333334,0)" xlink:href="#H"/><use transform="matrix(0.009114583333333334,0,0,0.009114583333333334,62.69010416666668,0)" xlink:href="#N"/><use transform="matrix(0.009114583333333334,0,0,0.009114583333333334,72.57942708333334,0)" xlink:href="#J"/><use transform="matrix(0.009114583333333334,0,0,0.009114583333333334,82.87890625000003,0)" xlink:href="#T"/></g><path fill="#172b4d" d="M1216-1011c-1 297-202 441-512 441H361V0H169v-1456h537c297-6 510 164 510 445zm-192 2c1-178-126-288-307-289H361v571h345c196 1 318-92 318-282" id="aa"/><g id="m"><use transform="matrix(0.009114583333333334,0,0,0.009114583333333334,0,0)" xlink:href="#F"/><use transform="matrix(0.009114583333333334,0,0,0.009114583333333334,12.177083333333334,0)" xlink:href="#aa"/><use transform="matrix(0.009114583333333334,0,0,0.009114583333333334,23.953125,0)" xlink:href="#Y"/><use transform="matrix(0.009114583333333334,0,0,0.009114583333333334,29.029947916666668,0)" xlink:href="#P"/></g><g id="n"><use transform="matrix(0.009114583333333334,0,0,0.009114583333333334,0,0)" xlink:href="#U"/><use transform="matrix(0.009114583333333334,0,0,0.009114583333333334,12.149739583333334,0)" xlink:href="#Q"/><use transform="matrix(0.009114583333333334,0,0,0.009114583333333334,18.29296875,0)" xlink:href="#N"/><use transform="matrix(0.009114583333333334,0,0,0.009114583333333334,28.182291666666668,0)" xlink:href="#L"/><use transform="matrix(0.009114583333333334,0,0,0.009114583333333334,38.3359375,0)" xlink:href="#T"/><use transform="matrix(0.009114583333333334,0,0,0.009114583333333334,44.43359375,0)" xlink:href="#N"/></g><path fill="#172b4d" d="M503-687l240-395h216L605-547 970 0H756L506-405 256 0H41l365-547-354-535h214" id="ab"/><g id="o"><use transform="matrix(0.009114583333333334,0,0,0.009114583333333334,0,0)" xlink:href="#N"/><use transform="matrix(0.009114583333333334,0,0,0.009114583333333334,9.889322916666668,0)" xlink:href="#ab"/><use transform="matrix(0.009114583333333334,0,0,0.009114583333333334,19.140625,0)" xlink:href="#T"/><use transform="matrix(0.009114583333333334,0,0,0.009114583333333334,25.23828125,0)" xlink:href="#N"/><use transform="matrix(0.009114583333333334,0,0,0.009114583333333334,35.12760416666667,0)" xlink:href="#J"/><use transform="matrix(0.009114583333333334,0,0,0.009114583333333334,45.42708333333334,0)" xlink:href="#P"/><use transform="matrix(0.009114583333333334,0,0,0.009114583333333334,55.05208333333334,0)" xlink:href="#I"/><use transform="matrix(0.009114583333333334,0,0,0.009114583333333334,59.58203125000001,0)" xlink:href="#S"/><use transform="matrix(0.009114583333333334,0,0,0.009114583333333334,70.22786458333334,0)" xlink:href="#J"/><use transform="matrix(0.009114583333333334,0,0,0.009114583333333334,80.52734375000003,0)" xlink:href="#P"/></g><g id="p"><use transform="matrix(0.009114583333333334,0,0,0.009114583333333334,0,0)" xlink:href="#W"/><use transform="matrix(0.009114583333333334,0,0,0.009114583333333334,10.47265625,0)" xlink:href="#Z"/><use transform="matrix(0.009114583333333334,0,0,0.009114583333333334,15.002604166666668,0)" xlink:href="#O"/><use transform="matrix(0.009114583333333334,0,0,0.009114583333333334,25.29296875,0)" xlink:href="#M"/><use transform="matrix(0.009114583333333334,0,0,0.009114583333333334,35.765625,0)" xlink:href="#I"/><use transform="matrix(0.009114583333333334,0,0,0.009114583333333334,40.295572916666664,0)" xlink:href="#J"/><use transform="matrix(0.009114583333333334,0,0,0.009114583333333334,50.59505208333333,0)" xlink:href="#P"/></g><path fill="#172b4d" d="M1222-777c17 480-206 763-650 777H169v-1456h411c408 9 627 269 642 679zm-190 4c3-312-149-522-447-525H361v1141h202c308 0 473-209 469-531v-85" id="ac"/><path fill="#172b4d" d="M497-251l268-831h189L566 0H425L33-1082h189" id="ad"/><g id="q"><use transform="matrix(0.00911458333333333,0,0,0.00911458333333333,0,0)" xlink:href="#ac"/><use transform="matrix(0.00911458333333333,0,0,0.00911458333333333,12.240885416666663,0)" xlink:href="#N"/><use transform="matrix(0.00911458333333333,0,0,0.00911458333333333,22.011718749999993,0)" xlink:href="#ad"/><use transform="matrix(0.00911458333333333,0,0,0.00911458333333333,30.934895833333325,0)" xlink:href="#N"/><use transform="matrix(0.00911458333333333,0,0,0.00911458333333333,40.824218749999986,0)" xlink:href="#Z"/><use transform="matrix(0.00911458333333333,0,0,0.00911458333333333,45.35416666666665,0)" xlink:href="#S"/><use transform="matrix(0.00911458333333333,0,0,0.00911458333333333,55.999999999999986,0)" xlink:href="#W"/><use transform="matrix(0.00911458333333333,0,0,0.00911458333333333,66.47265624999997,0)" xlink:href="#N"/><use transform="matrix(0.00911458333333333,0,0,0.00911458333333333,76.36197916666663,0)" xlink:href="#Q"/></g><path fill="#172b4d" d="M417-1456L893-268l476-1188h249V0h-192c-4-403 4-794 18-1179L966 0H819L342-1176c15 384 23 773 19 1176H169v-1456h248" id="ae"/><g id="r"><use transform="matrix(0.009114583333333334,0,0,0.009114583333333334,0,0)" xlink:href="#ae"/><use transform="matrix(0.009114583333333334,0,0,0.009114583333333334,16.296875,0)" xlink:href="#S"/><use transform="matrix(0.009114583333333334,0,0,0.009114583333333334,26.942708333333336,0)" xlink:href="#J"/><use transform="matrix(0.009114583333333334,0,0,0.009114583333333334,37.2421875,0)" xlink:href="#I"/><use transform="matrix(0.009114583333333334,0,0,0.009114583333333334,41.772135416666664,0)" xlink:href="#T"/><use transform="matrix(0.009114583333333334,0,0,0.009114583333333334,47.6875,0)" xlink:href="#S"/><use transform="matrix(0.009114583333333334,0,0,0.009114583333333334,58.333333333333336,0)" xlink:href="#Q"/></g><g id="s"><use transform="matrix(0.009114583333333334,0,0,0.009114583333333334,0,0)" xlink:href="#P"/><use transform="matrix(0.009114583333333334,0,0,0.009114583333333334,9.625,0)" xlink:href="#N"/><use transform="matrix(0.009114583333333334,0,0,0.009114583333333334,19.514322916666668,0)" xlink:href="#P"/><use transform="matrix(0.009114583333333334,0,0,0.009114583333333334,29.139322916666668,0)" xlink:href="#P"/><use transform="matrix(0.009114583333333334,0,0,0.009114583333333334,38.76432291666667,0)" xlink:href="#I"/><use transform="matrix(0.009114583333333334,0,0,0.009114583333333334,43.294270833333336,0)" xlink:href="#S"/><use transform="matrix(0.009114583333333334,0,0,0.009114583333333334,53.94010416666667,0)" xlink:href="#J"/><use transform="matrix(0.009114583333333334,0,0,0.009114583333333334,64.23958333333334,0)" xlink:href="#P"/></g><g id="t"><use transform="matrix(0.009114583333333334,0,0,0.009114583333333334,0,0)" xlink:href="#ae"/><use transform="matrix(0.009114583333333334,0,0,0.009114583333333334,16.296875,0)" xlink:href="#L"/><use transform="matrix(0.009114583333333334,0,0,0.009114583333333334,26.450520833333336,0)" xlink:href="#J"/><use transform="matrix(0.009114583333333334,0,0,0.009114583333333334,36.75,0)" xlink:href="#L"/><use transform="matrix(0.009114583333333334,0,0,0.009114583333333334,46.903645833333336,0)" xlink:href="#M"/><use transform="matrix(0.009114583333333334,0,0,0.009114583333333334,57.376302083333336,0)" xlink:href="#N"/></g><path fill="#172b4d" d="M589-945c-131 0-219 81-264 174V0H140v-1536h185v585c82-101 189-151 320-151 229 0 346 129 346 387V0H806v-716c-2-153-65-229-217-229" id="af"/><g id="u"><use transform="matrix(0.009114583333333334,0,0,0.009114583333333334,0,0)" xlink:href="#T"/><use transform="matrix(0.009114583333333334,0,0,0.009114583333333334,6.09765625,0)" xlink:href="#af"/><use transform="matrix(0.009114583333333334,0,0,0.009114583333333334,16.37890625,0)" xlink:href="#Q"/><use transform="matrix(0.009114583333333334,0,0,0.009114583333333334,22.522135416666668,0)" xlink:href="#N"/><use transform="matrix(0.009114583333333334,0,0,0.009114583333333334,32.411458333333336,0)" xlink:href="#L"/><use transform="matrix(0.009114583333333334,0,0,0.009114583333333334,42.56510416666667,0)" xlink:href="#T"/><use transform="matrix(0.009114583333333334,0,0,0.009114583333333334,48.66276041666667,0)" xlink:href="#P"/></g><g id="v"><use transform="matrix(0.008680555555555556,0,0,0.008680555555555556,0,0)" xlink:href="#F"/><use transform="matrix(0.008680555555555556,0,0,0.008680555555555556,11.597222222222223,0)" xlink:href="#O"/><use transform="matrix(0.008680555555555556,0,0,0.008680555555555556,21.397569444444446,0)" xlink:href="#G"/><use transform="matrix(0.008680555555555556,0,0,0.008680555555555556,31.423611111111114,0)" xlink:href="#I"/><use transform="matrix(0.008680555555555556,0,0,0.008680555555555556,35.73784722222223,0)" xlink:href="#T"/><use transform="matrix(0.008680555555555556,0,0,0.008680555555555556,41.37152777777778,0)" xlink:href="#S"/><use transform="matrix(0.008680555555555556,0,0,0.008680555555555556,51.51041666666667,0)" xlink:href="#Q"/></g><path fill="#2f3564" d="M33 0v-248h34V0H33" id="ag"/><path fill="#2f3564" d="M117-194c89-4 53 116 60 194h-32v-121c0-31-8-49-39-48C34-167 62-67 57 0H25l-1-190h30c1 10-1 24 2 32 11-22 29-35 61-36" id="ah"/><path fill="#2f3564" d="M135-143c-3-34-86-38-87 0 15 53 115 12 119 90S17 21 10-45l28-5c4 36 97 45 98 0-10-56-113-15-118-90-4-57 82-63 122-42 12 7 21 19 24 35" id="ai"/><path fill="#2f3564" d="M59-47c-2 24 18 29 38 22v24C64 9 27 4 27-40v-127H5v-23h24l9-43h21v43h35v23H59v120" id="aj"/><path fill="#2f3564" d="M141-36C126-15 110 5 73 4 37 3 15-17 15-53c-1-64 63-63 125-63 3-35-9-54-41-54-24 1-41 7-42 31l-33-3c5-37 33-52 76-52 45 0 72 20 72 64v82c-1 20 7 32 28 27v20c-31 9-61-2-59-35zM48-53c0 20 12 33 32 33 41-3 63-29 60-74-43 2-92-5-92 41" id="ak"/><path fill="#2f3564" d="M24 0v-261h32V0H24" id="al"/><path fill="#2f3564" d="M100-194c63 0 86 42 84 106H49c0 40 14 67 53 68 26 1 43-12 49-29l28 8c-11 28-37 45-77 45C44 4 14-33 15-96c1-61 26-98 85-98zm52 81c6-60-76-77-97-28-3 7-6 17-6 28h103" id="am"/><path fill="#2f3564" d="M114-163C36-179 61-72 57 0H25l-1-190h30c1 12-1 29 2 39 6-27 23-49 58-41v29" id="an"/><g id="w"><use transform="matrix(0.049382716049382706,0,0,0.049382716049382706,0,0)" xlink:href="#ag"/><use transform="matrix(0.049382716049382706,0,0,0.049382716049382706,4.93827160493827,0)" xlink:href="#ah"/><use transform="matrix(0.049382716049382706,0,0,0.049382716049382706,14.814814814814811,0)" xlink:href="#ai"/><use transform="matrix(0.049382716049382706,0,0,0.049382716049382706,23.7037037037037,0)" xlink:href="#aj"/><use transform="matrix(0.049382716049382706,0,0,0.049382716049382706,28.64197530864197,0)" xlink:href="#ak"/><use transform="matrix(0.049382716049382706,0,0,0.049382716049382706,38.518518518518505,0)" xlink:href="#al"/><use transform="matrix(0.049382716049382706,0,0,0.049382716049382706,42.41975308641974,0)" xlink:href="#al"/><use transform="matrix(0.049382716049382706,0,0,0.049382716049382706,46.32098765432097,0)" xlink:href="#am"/><use transform="matrix(0.049382716049382706,0,0,0.049382716049382706,56.19753086419752,0)" xlink:href="#an"/></g><g id="x"><use transform="matrix(0.009114583333333334,0,0,0.009114583333333334,0,0)" xlink:href="#aa"/><use transform="matrix(0.009114583333333334,0,0,0.009114583333333334,11.776041666666668,0)" xlink:href="#Q"/><use transform="matrix(0.009114583333333334,0,0,0.009114583333333334,17.919270833333336,0)" xlink:href="#N"/><use transform="matrix(0.009114583333333334,0,0,0.009114583333333334,27.80859375,0)" xlink:href="#W"/><use transform="matrix(0.009114583333333334,0,0,0.009114583333333334,38.28125,0)" xlink:href="#L"/><use transform="matrix(0.009114583333333334,0,0,0.009114583333333334,48.434895833333336,0)" xlink:href="#Q"/><use transform="matrix(0.009114583333333334,0,0,0.009114583333333334,54.578125,0)" xlink:href="#N"/></g><path fill="#172b4d" d="M494-271l252-811h198L509 167C425 381 299 474 84 421V271c167 16 242-37 283-173l41-110L22-1082h202" id="ao"/><g id="y"><use transform="matrix(0.009114583333333334,0,0,0.009114583333333334,0,0)" xlink:href="#ao"/><use transform="matrix(0.009114583333333334,0,0,0.009114583333333334,8.6953125,0)" xlink:href="#S"/><use transform="matrix(0.009114583333333334,0,0,0.009114583333333334,19.341145833333336,0)" xlink:href="#O"/><use transform="matrix(0.009114583333333334,0,0,0.009114583333333334,29.63151041666667,0)" xlink:href="#Q"/></g><g id="z"><use transform="matrix(0.009114583333333334,0,0,0.009114583333333334,0,0)" xlink:href="#N"/><use transform="matrix(0.009114583333333334,0,0,0.009114583333333334,9.889322916666668,0)" xlink:href="#J"/><use transform="matrix(0.009114583333333334,0,0,0.009114583333333334,20.188802083333336,0)" xlink:href="#ad"/><use transform="matrix(0.009114583333333334,0,0,0.009114583333333334,29.230468750000004,0)" xlink:href="#I"/><use transform="matrix(0.009114583333333334,0,0,0.009114583333333334,33.76041666666667,0)" xlink:href="#Q"/><use transform="matrix(0.009114583333333334,0,0,0.009114583333333334,39.894531250000014,0)" xlink:href="#S"/><use transform="matrix(0.009114583333333334,0,0,0.009114583333333334,50.54036458333334,0)" xlink:href="#J"/><use transform="matrix(0.009114583333333334,0,0,0.009114583333333334,60.839843750000014,0)" xlink:href="#H"/><use transform="matrix(0.009114583333333334,0,0,0.009114583333333334,77.20052083333334,0)" xlink:href="#N"/><use transform="matrix(0.009114583333333334,0,0,0.009114583333333334,87.08984375000003,0)" xlink:href="#J"/><use transform="matrix(0.009114583333333334,0,0,0.009114583333333334,97.38932291666669,0)" xlink:href="#T"/></g><g id="A"><use transform="matrix(0.009114583333333334,0,0,0.009114583333333334,0,0)" xlink:href="#Y"/><use transform="matrix(0.009114583333333334,0,0,0.009114583333333334,5.076822916666667,0)" xlink:href="#J"/><use transform="matrix(0.009114583333333334,0,0,0.009114583333333334,15.376302083333336,0)" xlink:href="#P"/><use transform="matrix(0.009114583333333334,0,0,0.009114583333333334,25.001302083333336,0)" xlink:href="#T"/><use transform="matrix(0.009114583333333334,0,0,0.009114583333333334,31.098958333333336,0)" xlink:href="#L"/><use transform="matrix(0.009114583333333334,0,0,0.009114583333333334,41.25260416666667,0)" xlink:href="#Z"/><use transform="matrix(0.009114583333333334,0,0,0.009114583333333334,45.782552083333336,0)" xlink:href="#Z"/></g><g id="B"><use transform="matrix(0.009114583333333334,0,0,0.009114583333333334,0,0)" xlink:href="#af"/><use transform="matrix(0.009114583333333334,0,0,0.009114583333333334,10.28125,0)" xlink:href="#L"/><use transform="matrix(0.009114583333333334,0,0,0.009114583333333334,20.434895833333336,0)" xlink:href="#Q"/><use transform="matrix(0.009114583333333334,0,0,0.009114583333333334,26.578125,0)" xlink:href="#G"/><use transform="matrix(0.009114583333333334,0,0,0.009114583333333334,37.10546875,0)" xlink:href="#N"/><use transform="matrix(0.009114583333333334,0,0,0.009114583333333334,46.99479166666667,0)" xlink:href="#J"/></g><path fill="#172b4d" d="M651-255l416-1201h210L737 0H567L28-1456h209" id="ap"/><g id="C"><use transform="matrix(0.009114583333333334,0,0,0.009114583333333334,0,0)" xlink:href="#ap"/><use transform="matrix(0.009114583333333334,0,0,0.009114583333333334,11.45703125,0)" xlink:href="#L"/><use transform="matrix(0.009114583333333334,0,0,0.009114583333333334,21.610677083333336,0)" xlink:href="#O"/><use transform="matrix(0.009114583333333334,0,0,0.009114583333333334,31.90104166666667,0)" xlink:href="#Z"/><use transform="matrix(0.009114583333333334,0,0,0.009114583333333334,36.430989583333336,0)" xlink:href="#T"/></g><path fill="#3a414a" d="M24-248c93 1 206-16 204 79-1 75-69 88-152 82V0H24v-248zm52 121c47 0 100 7 100-41 0-47-54-39-100-39v80" id="aq"/><path fill="#3a414a" d="M199 0l-22-63H83L61 0H9l90-248h61L250 0h-51zm-33-102l-36-108c-10 38-24 72-36 108h72" id="ar"/><path fill="#3a414a" d="M230 0l2-204L168 0h-37L68-204 70 0H24v-248h70l56 185 57-185h69V0h-46" id="as"/><g id="D"><use transform="matrix(0.0987654320987654,0,0,0.0987654320987654,0,0)" xlink:href="#aq"/><use transform="matrix(0.0987654320987654,0,0,0.0987654320987654,21.03703703703703,0)" xlink:href="#ar"/><use transform="matrix(0.0987654320987654,0,0,0.0987654320987654,46.61728395061727,0)" xlink:href="#as"/></g><path fill="#3a414a" d="M169-182c-1-43-94-46-97-3 18 66 151 10 154 114 3 95-165 93-204 36-6-8-10-19-12-30l50-8c3 46 112 56 116 5-17-69-150-10-154-114-4-87 153-88 188-35 5 8 8 18 10 28" id="at"/><path fill="#3a414a" d="M186 0v-106H76V0H24v-248h52v99h110v-99h50V0h-50" id="au"/><g id="E"><use transform="matrix(0.0987654320987654,0,0,0.0987654320987654,0,0)" xlink:href="#at"/><use transform="matrix(0.0987654320987654,0,0,0.0987654320987654,23.703703703703695,0)" xlink:href="#au"/></g></defs></g></svg>