<svg xmlns="http://www.w3.org/2000/svg" xmlns:xlink="http://www.w3.org/1999/xlink" xmlns:lucid="lucid" width="1673" height="356"><g transform="translate(-3702 -7809)" lucid:page-tab-id="0_0"><path d="M3761.14 7877.38a6 6 0 0 1 6-6h1551a6 6 0 0 1 6 6v222.85a6 6 0 0 1-6 6h-1551a6 6 0 0 1-6-6z" fill="#e0e8f5"/><path d="M3782.13 7871.38h14.98m7.5 0h15m7.48 0h15m7.48 0h15m7.48 0h15m7.48 0h15m7.48 0h14.98m7.5 0h14.98m7.5 0h14.98m7.5 0h14.98m7.5 0h14.98m7.5 0h14.97m7.5 0h14.98m7.5 0h14.98m7.5 0h14.98m7.5 0h15m7.48 0h15m7.48 0h14.98m7.5 0h14.98m7.5 0h14.98m7.5 0h14.98m7.5 0h14.98m7.5 0h14.98m7.5 0h14.97m7.5 0h15m7.48 0h15m7.48 0h15m7.48 0h15m7.48 0h14.98m7.5 0h14.98m7.5 0h14.98m7.5 0h14.98m7.5 0h14.98m7.5 0h14.98m7.5 0h14.97m7.5 0h14.98m7.5 0h14.98m7.5 0h14.98m7.5 0h15m7.48 0h15m7.48 0h14.98m7.5 0h14.98m7.5 0h14.98m7.5 0h14.98m7.5 0h14.98m7.5 0h14.98m7.5 0h14.97m7.5 0h15m7.48 0h15m7.48 0h15m7.48 0h15m7.48 0h14.98m7.5 0h14.98m7.5 0h14.98m7.5 0h14.98m7.5 0h14.98m7.5 0h14.98m7.5 0h14.97m7.5 0h14.98m7.5 0h14.98m7.5 0h14.98m7.5 0h15m7.48 0h15m7.48 0h14.98m7.5 0h14.98m7.5 0h14.98m7.5 0h14.98m7.5 0h14.98m7.5 0h7.48l.94.07.92.23.87.35.8.5.7.6.63.72.5.8.35.88.22.9.07.95v7.43m0 7.44v14.86m0 7.42v14.86m0 7.43v14.86m0 7.43v14.85m0 7.43v14.86m0 7.42v14.86m0 7.43v14.86m0 7.43v14.86m0 7.42v14.86m0 7.43v7.43l-.07.94-.22.92-.36.86-.5.8-.62.72-.7.6-.8.5-.88.36-.92.22-.94.07h-7.5m-7.48 0h-15m-7.48 0h-15m-7.48 0h-15m-7.48 0h-14.98m-7.5 0h-14.98m-7.5 0h-14.98m-7.5 0h-14.98m-7.5 0h-14.98m-7.5 0h-14.97m-7.5 0h-14.98m-7.5 0h-14.98m-7.5 0h-15m-7.48 0h-15m-7.48 0h-15m-7.48 0h-14.98m-7.5 0H4951m-7.5 0h-14.98m-7.5 0h-14.98m-7.5 0h-14.98m-7.5 0h-14.98m-7.5 0h-14.97m-7.5 0h-14.97m-7.5 0h-14.98m-7.5 0h-14.98m-7.5 0h-14.98m-7.5 0h-15m-7.48 0h-14.98m-7.5 0h-14.98m-7.5 0h-14.98m-7.5 0h-14.98m-7.5 0h-14.98m-7.5 0h-14.97m-7.5 0h-14.98m-7.5 0h-14.98m-7.5 0h-15m-7.48 0h-15m-7.48 0h-15m-7.48 0h-14.98m-7.5 0H4434m-7.5 0h-14.98m-7.5 0h-14.98m-7.5 0h-14.98m-7.5 0h-14.98m-7.5 0h-14.97m-7.5 0h-14.97m-7.5 0h-14.98m-7.5 0h-14.98m-7.5 0h-14.98m-7.5 0h-14.98m-7.5 0h-14.98m-7.5 0h-14.98m-7.5 0h-14.98m-7.5 0h-14.98m-7.5 0h-14.98m-7.5 0h-14.98m-7.5 0h-14.97m-7.5 0h-14.98m-7.5 0h-15m-7.48 0h-15m-7.48 0h-15m-7.48 0h-14.98m-7.5 0H3917m-7.5 0h-14.98m-7.5 0h-14.98m-7.5 0h-14.98m-7.5 0h-14.98m-7.5 0h-14.97m-7.5 0h-14.97m-7.5 0h-7.5l-.93-.07-.9-.22-.88-.36-.8-.5-.72-.6-.6-.72-.5-.8-.36-.87-.22-.93-.08-.94v-7.42m0-7.42v-14.86m0-7.43v-14.87m0-7.42v-14.85m0-7.43v-14.86m0-7.42v-14.86m0-7.43v-14.86m0-7.44v-14.85m0-7.42v-14.86m0-7.43v-14.86m0-7.43v-7.42l.08-.94.22-.9.36-.88.5-.8.6-.72.72-.6.8-.5.87-.36.9-.23.94-.07h7.5" stroke="#2f3564" stroke-width="1.5" fill="none"/><path d="M3861.14 7993.9a19.5 19.5 0 0 1 19.5-19.5h101a19.5 19.5 0 0 1 19.5 19.5 19.5 19.5 0 0 1-19.5 19.5h-101a19.5 19.5 0 0 1-19.5-19.5z" stroke="#6c6e83" fill="#fff"/><path d="M3917.48 7982.4h100v23h-100z" fill="none"/><use xlink:href="#a" transform="matrix(1,0,0,1,3917.475921563214,7982.397715760906) translate(0 17.880208333333336)"/><path d="M3851.14 8043.37c27.6 0 50-22.32 50-49.98 0-27.58-22.4-50-50-50s-50 22.42-50 50c0 27.65 22.4 49.97 50 49.97z" stroke="#6c6e83" fill="#a2c6f6"/><path d="M3851.14 8042.26c26.9 0 48.8-21.8 48.8-48.77 0-26.97-21.9-48.78-48.8-48.78-27 0-48.8 21.8-48.8 48.77 0 26.95 21.8 48.76 48.8 48.76z" stroke="#000" stroke-opacity="0" fill="#a2c6f6"/><path d="M3872.04 7971.78c0-.2-.1-.4-.1-.6.2-.4.2-.8.2-1.22 0-1-.7-1.8-1.3-2.62-.7-1-1.4-2.02-2.2-2.83-.4-.4-.8-.8-1.2-1-.6-.3-1.1-.4-1.6-1-1-1.52-2.1-2.63-3.8-3.24-1.1-.4-2.3-.4-3.5-.3-.6-.7-1.7-1.1-2.8-1.1-.7-.1-1.5.2-2.3.1-.6-.1-1-.52-1.6-.62-1.2-.2-2.5.1-3.6.4-1.3.4-2.3 1.02-3.5 1.72-.7.4-1.4.2-2.2.3-.5 0-1 .2-1.5.4-1.8.82-2.9 2.43-3.4 4.25-1.2.1-2.2.62-3 1.42-1.4 1.42-1.4 3.03-1.3 4.85 0 .7 0 1.3-.2 1.92-.1.6-.3 1.1-.5 1.6-.3 1.12-.2 2.13 0 3.24l.9 5.75c-.4.9-.3 2.1.4 3.02.2.2.6.5.9.7.5.4 1 .92 1.4 1.52.5.8 1.1 1.62 1.8 2.32 3 2.93 7.3 3.84 11.4 3.54 2.5-.2 4.8-1 7.3-1.2 1.2-.12 2.4-.12 3.6-.32 1.1-.3 2.1-.7 3-1.2 3.6-1.73 6.9-4.85 7.3-9 0-.8 0-1.5.3-2.22.2-.5.5-1 .7-1.5.3-1.12-.3-2.43 0-3.64.2-1.12.5-2.23.4-3.44z" stroke="#000" stroke-opacity="0" fill="#33261a"/><path d="M3872.64 8023.88c-3.6-2.22-8.8-3.13-10.6-7.37-.9-2.3-.5-5.14-.5-7.56v-7.37c0-.3-.4-.4-.5-.1-1 1.4-4 1.3-5.5 1.4-1.7.1-3.5.2-5.3.2-3.1 0-6.7.32-9.5-1.2 0-.4-.1-.7-.1-1.1 0-.3-.6-.3-.6 0 0 .4.1.7.1 1.1-.1 0-.1.1-.1.1 0 .1.1.2.1.2.1 1.1.1 2.22.2 3.34.2 2.93.3 5.86.3 8.8.1.9.1 1.9.1 2.82-.9 1.9-2.3 3.73-3.9 5.25-1.3 1.2-2.7 2.32-4.2 3.23-1.1.8-2.5 1.3-3.3 2.52v.2c0 .1.1.1.1.2 3.4 1.62 6.9 3.14 10.5 4.55 3.3 1.2 7.1 2.93 10.8 2.52 1.6-.2 2.9-.9 4.3-1.72 1.7-1 3.4-1.92 5.1-2.83.8-.5 1.6-.9 2.4-1.3 3.3-.2 6.5-1.12 9.5-2.54.6-.3 1.7-.6 2.1-1.2.8-1-.8-1.72-1.5-2.12z" stroke="#000" stroke-opacity="0" fill="#b86554"/><path d="M3865.44 7996.1c.2-.8.3-1.6.5-2.5 0-.2 0-.3.1-.5l.3-1.53c0-.3.1-.6.1-.9.1-.82.2-1.52.4-2.23l.3-2.32c.9-6.56 1.4-12.32 1.2-12.82-.8-2.23-2.3-3.24-4-4.55-.3-.3-.6-.5-.9-.7-.3-.2-.5-.4-.8-.6-1.7-1.52-4.2-1.93-6.4-2.03-5.2-.2-10.2 0-14.8 2.52-.7.3-1.3.7-1.9 1.22-.1.1-.3.2-.5.3-.6.6-1.2 1.2-1.7 2.02-.5.7-.8 1.5-.9 2.42-.2 1.2-.1 2.43-.4 3.74v.2c-.2 1-.2 3.74-.1 6.97v2.33c.1.8.1 1.6.1 2.42.1.7.1 1.52.2 2.22v.6c.1.5.1.92.1 1.42.1.4.1.9.2 1.3.2 1.72.4 3.03.7 4.04.6 2.22 1.6 4.35 3 6.26 1.9 2.53 4.4 4.55 7.4 5.25 1.2.4 2.5.5 3.8.4.8-.1 1.6-.2 2.3-.4.5-.1 1-.2 1.5-.4 1.6-.4 3.1-1.2 4.4-2.22 1.8-1.4 3.2-3.33 4.1-5.55.6-1.52 1.2-3.84 1.7-6.36z" stroke="#000" stroke-opacity="0" fill="#b86554"/><path d="M3869.94 7985.82c-.4-1.52-2.1-2.33-3.1-.8-.1.2.1.4.3.4-.8 1.4-1.3 3.02-1.8 4.64-.3 1.1-1.1 2.92-.8 4.14.5 2.12 3.3-.2 4-1 1.7-2.03 2-4.96 1.4-7.38zM3833.44 7991.07c.5.9 3 3.53 3.8 1.5.4-1.2-.1-3.02-.3-4.23-.2-1.72.1-2.83-.5-4.34.2 0-.2-.6-.3-.9-.8-1.63-2.6-1.02-3.2.4-.9 2.42-1 5.35.5 7.57z" stroke="#000" stroke-opacity="0" fill="#b86554"/><path d="M3860.44 7987.23c.1-.6.2-1.2.1-1.72 0-.3-.1-.6-.3-.8-.6-.6-1.3-.1-1.4.5-.3.82-.3 2.53.4 2.94.7.4 1-.1 1.2-.9zM3844.24 7986.42c.1-.5.2-1.1.1-1.7 0-.32-.2-.52-.3-.72-.6-.6-1.3-.1-1.4.5-.3.8-.3 2.43.4 2.83.8.4 1.1-.1 1.2-.9z" stroke="#000" stroke-opacity="0" fill="#33261a"/><path d="M3868.04 7986.62v-.1c0-.1 0-.1-.1-.2h-.2-.1c-.1 0-.1.1-.1.1-.1 0-.1.1-.1.1V7986.82l-.3 1.22c-.1.4-.5.9-.4 1.3 0 .2.1.3.2.4.2.42.3.72.3 1.13 0 .4-.4 1.7-1 1.4-.4-.1-.7.4-.3.5 1 .52 1.8-.9 1.9-1.8 0-.2 0-.5-.1-.7 0-.3-.4-.62-.4-.92-.1-.3.3-.9.4-1.2l.3-1.53zM3835.94 7990.56c-1-.9-1.2-1.6-.4-2.22l.4-.4c.1-.2.1-.3.1-.5.1-1.02-.4-2.23-.7-3.24-.1-.3-.7-.2-.6.2.2.7.9 2.53.7 3.13-.2.6-.8.8-1 1.42-.2 1 .4 1.8 1.3 2.12.4.1.5-.4.2-.5zM3857.44 8010.25c-.3-.5-1.4-.2-3.1.5-2.6.9-6.2.1-8.6-1-1.9-.9-3.9-2.63-5.4-4.35.2 3.03.3 5.96.3 8.9h.6c1.2 0 2.4.6 3.6.7 1 0 1.8-.5 2.7-.7 1.2-.4 2.4 0 3.7-.2.9-.1 1.8-.62 2.6-1.12 1-.6 4.2-1.32 3.6-2.73zM3854.14 7992.98c-.2-1.5-.4-3.13-.7-4.64-.1-.4-.7-.3-.6 0 .4 2.02.7 4.14.9 6.16 0 .7.3 1.2-.6 1.6-.6.32-1.5.22-2.1.12-.8-.1-1.4-.1-2.2-.1-.4.1-.4.7 0 .6 1.4-.1 4.6.9 5.4-.7.4-.8 0-2.23-.1-3.04z" stroke="#000" stroke-opacity="0" fill="#9c4736"/><path d="M3839.04 7981.17c.1.6.8.8 1.4.8 1.4.2 2.9 0 4.3 0 .8 0 2.6.3 3.3-.3 1.5-1.2-1.5-2-2.3-2.1-1.4-.22-2.8-.22-4.2.1-.5.1-2.7.9-2.5 1.5zM3863.04 7980.67c-1.3-.3-2.8-.4-4.2-.3-.7.1-3.8.7-2.3 2 .6.62 2.4.42 3.2.42 1.5.1 2.9.3 4.4.3.5 0 1.2-.2 1.4-.82.3-.6-1.9-1.5-2.5-1.6z" stroke="#000" stroke-opacity="0" fill="#33261a"/><path d="M3848.54 7999.85c-.6-.1-1.3-.3-1.9-.6-.1 0-1-.2-1.1-.4.2.6.9 1.3 1.3 1.8.9 1.22 1.7 1.62 3.1 1.73 1.6.1 3.5-.1 4.9-1.02 0 0 1.6-1.1 1.8-2.22-.1.2-2 .6-2.9.8-.8.1-3.4.2-5.2-.1z" stroke="#000" stroke-opacity="0" fill="#9c4736"/><path d="M3879.04 8029.44l-.3-4.14v-.1h-.1l-4.3-1.82c-1.4-.6-7.2-2.12-7.2-2.12s-13 11.1-14.5 11.4c-1.6.3-15.4-10.6-15.4-10.6s-5.7 1.82-7.3 2.93c-2.9 2.1-2.1 5.75-1.9 8.78 2.4 14.64 49.9 12.1 51-4.34z" stroke="#000" stroke-opacity="0" fill="#fff8f0"/><path d="M3831.64 8039.83s.3 1.32.7-1.2c.7-4.95 2.2-15.66 2.1-15.66-.2 0-.4 0-.5.1h-.1c-4.9 1.1-9.6 4.55-14.3 6.57-3.5 1.4-1.3 1.6-1.3 1.6l13.4 8.6zM3886.44 8027c-1.7-1.3-3.6-1.9-5.6-2.5-2.5-.72-4.5-.92-6.9-1.63-.6-.2-3.3-.7-3.3-.7 0 6.26-1.2 18.37 0 17.66 8.5-4.84 16.6-10.1 15.8-12.82z" stroke="#000" stroke-opacity="0" fill="#456664"/><path d="M3841.24 8041.15c-.5-1-1-2.02-1.3-3.13l-.1-.1c-.1 0-.1 0-.1-.1h-.2c0 .1-.1.1-.1.1-1 1-1.9 1.9-2.8 3.02-.2.3.2.7.5.4.7-.9 1.5-1.8 2.4-2.62.3.9.7 1.82 1.2 2.73.2.3.7 0 .5-.3zM3867.54 8033.88c-.5-.9-1-1.72-1.5-2.53-.2-.3-.4-.6-.8-.5-.5 0-1 .7-1.3 1-.6.6-1.2 1.32-1.7 2.03-.2.3.2.7.5.4.6-.9 1.3-1.72 2.1-2.52.4-.3.3-.3.7-.1.2.2.3.6.5.8.3.5.7 1.1 1 1.72.2.3.7 0 .5-.3zM3857.84 8043.47c-.5-.9-.9-1.92-1.4-2.73-.2-.2-.4-.5-.8-.4-.4 0-.9.8-1.1 1.1l-2 2.43c-.3.3.2.7.4.4.8-1 1.5-2.2 2.5-3.02.2-.2.1-.3.5-.1.1 0 .3.6.4.8l1 1.82c.2.3.7 0 .5-.3zM3840.14 8028.12c-.3-.7-.7-1.5-1.1-2.22-.2-.4-.6-1.2-1.1-1.2-.5-.1-1 .6-1.3.9-.7.6-1.4 1.3-2 2.12-.3.3.2.7.4.4.4-.5.7-.9 1.1-1.2.3-.4.9-1.12 1.3-1.32.7-.3.9.4 1.2.9.4.6.7 1.22.9 1.82.2.4.7.2.6-.2z" stroke="#000" stroke-opacity="0" fill="#aeb5c2"/><path d="M3869.24 7973c-.3-.7-.9-1.32-1.4-2.03-.7-.7-1.3-1.5-2-2.12-1.4-1.4-2.9-2.52-4.7-3.33-3.6-1.5-7.7-1.3-11.4-.6-2.1.5-4.2 1.1-6.3 1.8-1.7.62-3.5 1.12-4.9 2.23-3.5 3.03-2.5 8.18-3.4 12.12v.1h.1c.3 1.1.4 2.22.8 3.23.1.4.4.8.8.7.6-.3.6-1.5.7-2 .1-1.12 0-2.23.3-3.34.4-1 .4-1.92.6-2.93.2-1.3.7-2.22 1.5-3.23 1.3-1.52 2.4-3.23 3.1-5.15.4.1.7.1 1.1.1.9 0 1.8 0 2.6.1 1.8 0 3.7.1 5.5.1 3.6.2 7.1.6 10.7 1h.1c2.4 1.12 2.1 4.86 2.4 7.08.2 1.52.4 3.03.8 4.54.1.8 0 1.62 0 2.43-.1.7-.3 1.4-.4 2.12 0 .3 0 .6.3.7.5.5.8-.3.9-.7.2-.5.4-1.1.6-1.72.3-.5.5-1.1.6-1.72.2-1.1.3-2.22.5-3.33.2-1 .3-2.12.5-3.13.1-1 .3-2.02 0-3.03z" stroke="#000" stroke-opacity="0" fill="#33261a"/><path d="M3851.14 8043.37c27.6 0 50-22.32 50-49.98 0-27.58-22.4-50-50-50s-50 22.42-50 50c0 27.65 22.4 49.97 50 49.97z" stroke="#6c6e83" fill-opacity="0"/><path d="M4173.8 7974.58a6 6 0 0 1 6-6h142.53a6 6 0 0 1 6 6v38.3a6 6 0 0 1-6 6H4179.8a6 6 0 0 1-6-6z" stroke="#6c6e83" fill="#fff"/><path d="M4210.72 7982.23h100v23h-100z" fill="none"/><use xlink:href="#b" transform="matrix(1,0,0,1,4210.715235649597,7982.233290970693) translate(0 17.880208333333336)"/><use xlink:href="#c" transform="matrix(1,0,0,1,4210.715235649597,7982.233290970693) translate(37.852864583333336 17.880208333333336)"/><path d="M4390 7974.58a6 6 0 0 1 6-6h158.75a6 6 0 0 1 6 6v38.3a6 6 0 0 1-6 6H4396a6 6 0 0 1-6-6z" stroke="#6c6e83" fill="#fff"/><path d="M4425.1 7982.23h116.1v23h-116.1z" fill="none"/><use xlink:href="#d" transform="matrix(1,0,0,1,4425.091824101841,7982.233290970738) translate(0 17.880208333333336)"/><use xlink:href="#e" transform="matrix(1,0,0,1,4425.091824101841,7982.233290970738) translate(58.94401041666667 17.880208333333336)"/><path d="M4360 8016.42v-47.1M4360 8016.4v.77M4360 7969.35v-.77" stroke="#6c6e83" stroke-width="1.5" fill="none"/><defs><path fill="#172b4d" d="M973-380H363L226 0H28l556-1456h168L1309 0h-197zM421-538h495l-248-681" id="f"/><path fill="#172b4d" d="M520 20C244 20 95-247 95-550c0-298 151-550 427-552 127 0 227 43 301 130v-564h185V0H838l-9-116C755-25 652 20 520 20zm48-965c-210 0-288 177-288 416 0 218 87 392 286 392 117 0 203-53 257-158v-497c-55-102-140-153-255-153" id="g"/><path fill="#172b4d" d="M1240-945c-141 0-250 95-250 227V0H804v-709c0-157-77-236-231-236-121 0-204 52-249 155V0H139v-1082h175l5 120c79-93 186-140 321-140 151 0 254 58 309 174 69-98 181-174 345-174 237 0 362 126 362 377V0h-185v-714c-2-159-67-231-231-231" id="h"/><path fill="#172b4d" d="M341 0H156v-1082h185V0zm-91-1264c-68 0-108-42-109-105 0-62 41-107 109-107s110 44 110 107-42 105-110 105" id="i"/><path fill="#172b4d" d="M589-945c-131 0-219 81-264 174V0H140v-1082h175l6 136c83-104 191-156 324-156 229 0 346 129 346 387V0H806v-716c-2-153-65-229-217-229" id="j"/><g id="a"><use transform="matrix(0.009114583333333334,0,0,0.009114583333333334,0,0)" xlink:href="#f"/><use transform="matrix(0.009114583333333334,0,0,0.009114583333333334,12.177083333333334,0)" xlink:href="#g"/><use transform="matrix(0.009114583333333334,0,0,0.009114583333333334,22.704427083333336,0)" xlink:href="#h"/><use transform="matrix(0.009114583333333334,0,0,0.009114583333333334,39.06510416666667,0)" xlink:href="#i"/><use transform="matrix(0.009114583333333334,0,0,0.009114583333333334,43.595052083333336,0)" xlink:href="#j"/></g><g id="b"><use transform="matrix(0.009114583333333334,0,0,0.009114583333333334,0,0)" xlink:href="#f"/><use transform="matrix(0.009114583333333334,0,0,0.009114583333333334,12.177083333333334,0)" xlink:href="#g"/><use transform="matrix(0.009114583333333334,0,0,0.009114583333333334,22.704427083333336,0)" xlink:href="#g"/></g><path fill="#172b4d" d="M491 20c-241-1-355-148-355-398v-704h185v699c0 164 67 246 200 246 141 0 235-53 282-158v-787h185V0H812l-4-107C736-22 630 20 491 20" id="k"/><path fill="#172b4d" d="M538-131c121 0 232-49 232-156 0-50-20-88-56-117-73-60-334-92-420-143-92-55-162-110-162-238 0-190 192-317 400-317 223 0 414 129 413 338H759c0-108-110-186-227-186-119 0-215 53-215 159 0 45 18 78 53 101 76 52 331 90 416 139 98 57 169 115 169 251C955-92 760 20 538 20c-176 0-314-68-386-174-38-55-57-115-57-179h185c6 129 116 202 258 202" id="l"/><path fill="#172b4d" d="M599-131c141 0 220-65 285-146l113 88C906-50 770 20 589 20 281 21 93-214 93-545c0-223 93-397 233-485 74-48 154-72 240-72 300 2 449 218 445 537v77H278c0 197 129 357 321 357zm227-509c-3-180-88-310-260-310-170 0-264 140-282 310h542" id="m"/><path fill="#172b4d" d="M663-916c-163-27-288 18-338 148V0H140v-1082h180l3 125c61-97 147-145 258-145 36 0 63 5 82 14v172" id="n"/><g id="c"><use transform="matrix(0.009114583333333334,0,0,0.009114583333333334,0,0)" xlink:href="#k"/><use transform="matrix(0.009114583333333334,0,0,0.009114583333333334,10.290364583333334,0)" xlink:href="#l"/><use transform="matrix(0.009114583333333334,0,0,0.009114583333333334,19.915364583333336,0)" xlink:href="#m"/><use transform="matrix(0.009114583333333334,0,0,0.009114583333333334,29.804687500000004,0)" xlink:href="#n"/><use transform="matrix(0.009114583333333334,0,0,0.009114583333333334,36.12109375,0)" xlink:href="#l"/></g><path fill="#172b4d" d="M688-137c238 0 323-102 359-325h193c-32 297-228 482-552 482-361 0-569-299-569-680 0-197 8-360 73-497 88-186 257-317 513-319 316-2 509 195 535 488h-193c-31-212-118-330-342-330-272 0-397 224-393 523v141c-3 282 115 517 376 517" id="o"/><path fill="#172b4d" d="M561-1102c238-4 403 126 403 351v498c0 99 13 178 38 237V0H808c-11-21-19-59-26-114C696-25 593 20 474 20c-199 0-368-130-365-320 4-251 214-359 490-356h180v-85c-1-135-86-212-229-212-115 0-232 67-233 171H131c20-205 206-316 430-320zM294-326c0 117 90 185 207 185 122 0 239-75 278-162v-222H634c-227 0-340 66-340 199" id="p"/><path fill="#172b4d" d="M456 20C285 20 205-92 206-268v-671H9v-143h197v-262h185v262h202v143H391v671c-9 125 92 149 207 118V0c-49 13-96 20-142 20" id="q"/><g id="d"><use transform="matrix(0.009114583333333334,0,0,0.009114583333333334,0,0)" xlink:href="#o"/><use transform="matrix(0.009114583333333334,0,0,0.009114583333333334,12.149739583333334,0)" xlink:href="#n"/><use transform="matrix(0.009114583333333334,0,0,0.009114583333333334,18.29296875,0)" xlink:href="#m"/><use transform="matrix(0.009114583333333334,0,0,0.009114583333333334,28.182291666666668,0)" xlink:href="#p"/><use transform="matrix(0.009114583333333334,0,0,0.009114583333333334,38.3359375,0)" xlink:href="#q"/><use transform="matrix(0.009114583333333334,0,0,0.009114583333333334,44.43359375,0)" xlink:href="#m"/></g><path fill="#172b4d" d="M704-1390c-164-38-297 28-288 194v114h231v143H416V0H231v-939H60v-143h171v-111c-12-274 208-416 483-347" id="r"/><path fill="#172b4d" d="M341 0H156v-1536h185V0" id="s"/><path fill="#172b4d" d="M584 20C278 26 81-227 91-551c10-320 175-545 491-551 308-5 503 247 494 573-9 322-175 543-492 549zm-2-970c-208 0-305 185-305 421 0 216 106 398 307 398 211 0 307-186 307-420 0-214-109-399-309-399" id="t"/><path fill="#172b4d" d="M1098-255l208-827h185L1176 0h-150L763-820 507 0H357L43-1082h184l213 810 252-810h149" id="u"/><g id="e"><use transform="matrix(0.009114583333333334,0,0,0.009114583333333334,0,0)" xlink:href="#r"/><use transform="matrix(0.009114583333333334,0,0,0.009114583333333334,6.48046875,0)" xlink:href="#s"/><use transform="matrix(0.009114583333333334,0,0,0.009114583333333334,11.010416666666668,0)" xlink:href="#t"/><use transform="matrix(0.009114583333333334,0,0,0.009114583333333334,21.65625,0)" xlink:href="#u"/><use transform="matrix(0.009114583333333334,0,0,0.009114583333333334,35.68359375,0)" xlink:href="#l"/></g></defs></g></svg>