<svg xmlns="http://www.w3.org/2000/svg" xmlns:xlink="http://www.w3.org/1999/xlink" xmlns:lucid="lucid" width="1673" height="1169"><g transform="translate(-151 -6122)" lucid:page-tab-id="0_0"><path d="M0 0h5484.6v12652.35H0z" fill="#fff"/><path d="M205.74 6206a6 6 0 0 1 6-6h1551a6 6 0 0 1 6 6v222.85a6 6 0 0 1-6 6h-1551a6 6 0 0 1-6-6z" fill="#e0e8f5"/><path d="M226.72 6200h15m7.48 0h14.98m7.5 0h14.98m7.5 0h14.98m7.5 0h14.98m7.5 0h14.98m7.5 0h14.97m7.5 0h14.98m7.5 0h14.98m7.5 0H444m7.5 0h15m7.48 0h15m7.48 0h15m7.48 0h14.98m7.5 0h14.98m7.5 0h14.98m7.5 0h14.98m7.5 0h14.98m7.5 0h14.97m7.5 0h15m7.5 0h14.97m7.5 0h14.98m7.5 0h14.98m7.5 0h14.98m7.5 0h14.98m7.5 0h14.98m7.5 0h14.98m7.5 0h14.98m7.5 0h14.98m7.5 0h14.98m7.5 0h14.97m7.5 0h14.98m7.5 0H961m7.5 0h15m7.48 0h15m7.48 0h14.98m7.5 0h14.98m7.5 0h14.98m7.5 0h14.98m7.5 0h14.98m7.5 0h14.98m7.5 0h14.97m7.5 0h15m7.5 0h14.97m7.5 0h14.98m7.5 0h14.98m7.5 0h14.97m7.5 0h14.98m7.5 0h14.98m7.5 0h14.98m7.5 0h14.98m7.5 0h14.98m7.5 0h14.98m7.5 0h14.97m7.5 0h14.98m7.5 0H1478m7.5 0h15m7.48 0h15m7.48 0h14.98m7.5 0h14.98m7.5 0h14.98m7.5 0h14.98m7.5 0h14.98m7.5 0h14.98m7.5 0h14.97m7.5 0h15m7.5 0h14.97m7.5 0h14.98m7.5 0h7.48l.94.07.92.22.86.35.8.5.72.6.6.72.5.8.36.88.22.9.07.95v7.43m0 7.43v14.85m0 7.44V6258m0 7.43v14.85m0 7.43v14.87m0 7.43v14.85m0 7.43v14.86m0 7.43v14.86m0 7.42v14.86m0 7.44V6414m0 7.42v7.43l-.07.94-.22.9-.36.88-.5.8-.6.7-.72.63-.8.5-.87.36-.93.22-.94.07h-7.5m-7.48 0h-15m-7.48 0h-14.98m-7.5 0h-15m-7.5 0h-14.97m-7.5 0h-14.98m-7.5 0h-14.98m-7.5 0h-14.98m-7.5 0h-15m-7.48 0h-14.98m-7.5 0h-14.98m-7.5 0H1508m-7.5 0h-14.98m-7.5 0h-14.98m-7.5 0h-14.97m-7.5 0h-14.98m-7.5 0h-14.98m-7.5 0h-15m-7.48 0h-15m-7.48 0h-15m-7.48 0h-14.98m-7.5 0h-14.98m-7.5 0h-14.98m-7.5 0h-14.98m-7.5 0h-14.98m-7.5 0h-14.97m-7.5 0h-15m-7.5 0h-14.97m-7.5 0h-14.98m-7.5 0h-14.98m-7.5 0h-14.98m-7.5 0h-14.98m-7.5 0h-14.98m-7.5 0h-14.98m-7.5 0H991m-7.5 0H968.5m-7.5 0h-14.98m-7.5 0h-14.97m-7.5 0h-14.98m-7.5 0H878.6m-7.5 0h-15m-7.48 0h-15m-7.48 0h-15m-7.48 0h-14.98m-7.5 0H766.2m-7.5 0h-14.98m-7.5 0h-14.98m-7.5 0h-14.98m-7.5 0H676.3m-7.5 0h-14.97m-7.5 0h-14.97m-7.5 0h-14.98m-7.5 0h-14.98m-7.5 0H563.9m-7.5 0h-14.98m-7.5 0h-14.98m-7.5 0h-14.98m-7.5 0H474m-7.5 0H451.5m-7.5 0h-14.98m-7.5 0h-14.97m-7.5 0h-14.98m-7.5 0H361.6m-7.5 0h-15m-7.48 0h-15m-7.48 0h-15m-7.48 0h-14.98m-7.5 0H249.2m-7.5 0h-14.98m-7.5 0h-7.48l-.94-.07-.92-.22-.87-.36-.8-.5-.7-.6-.62-.72-.5-.8-.35-.87-.22-.9-.06-.95v-7.43m0-7.43v-14.86m0-7.43v-14.85m0-7.43v-14.85m0-7.43v-14.86m0-7.43V6310m0-7.43v-14.86m0-7.42v-14.85m0-7.43v-14.86m0-7.43v-14.84m0-7.43V6206l.07-.94.23-.9.36-.88.48-.8.6-.72.73-.6.8-.5.88-.37.92-.23.94-.07h7.5" stroke="#2f3564" stroke-width="1.5" fill="none"/><path d="M700 6299.54a6 6 0 0 1 6-6h477.14a6 6 0 0 1 6 6v35.77a6 6 0 0 1-6 6H706a6 6 0 0 1-6-6z" stroke="#6c6e83" fill="#fff"/><path d="M726.28 6304.93h447.07v24H726.28z" fill="none"/><use xlink:href="#a" transform="matrix(1,0,0,1,726.2782551047006,6304.929882836117) translate(0 18.380208333333336)"/><use xlink:href="#b" transform="matrix(1,0,0,1,726.2782551047006,6304.929882836117) translate(37.852864583333336 18.380208333333336)"/><use xlink:href="#c" transform="matrix(1,0,0,1,726.2782551047006,6304.929882836117) translate(73.45442708333334 18.380208333333336)"/><use xlink:href="#d" transform="matrix(1,0,0,1,726.2782551047006,6304.929882836117) translate(145.40494791666669 18.380208333333336)"/><use xlink:href="#b" transform="matrix(1,0,0,1,726.2782551047006,6304.929882836117) translate(197.02994791666669 18.380208333333336)"/><use xlink:href="#e" transform="matrix(1,0,0,1,726.2782551047006,6304.929882836117) translate(232.63151041666669 18.380208333333336)"/><use xlink:href="#f" transform="matrix(1,0,0,1,726.2782551047006,6304.929882836117) translate(313.90625 18.380208333333336)"/><use xlink:href="#g" transform="matrix(1,0,0,1,726.2782551047006,6304.929882836117) translate(333.3567708333333 18.380208333333336)"/><use xlink:href="#h" transform="matrix(1,0,0,1,726.2782551047006,6304.929882836117) translate(376.9700520833333 18.380208333333336)"/><path d="M1249.93 6297.6a6 6 0 0 1 6-6H1691a6 6 0 0 1 6 6v38.3a6 6 0 0 1-6 6h-435.07a6 6 0 0 1-6-6z" stroke="#6c6e83" fill="#fff"/><path d="M1282 6305.26h400v23.66h-400z" fill="none"/><use xlink:href="#i" transform="matrix(1,0,0,1,1282,6305.262835493954) translate(0 18.380208333333336)"/><use xlink:href="#j" transform="matrix(1,0,0,1,1282,6305.262835493954) translate(44.59765625 18.380208333333336)"/><use xlink:href="#k" transform="matrix(1,0,0,1,1282,6305.262835493954) translate(86.59765625 18.380208333333336)"/><use xlink:href="#g" transform="matrix(1,0,0,1,1282,6305.262835493954) translate(130.83984375 18.380208333333336)"/><use xlink:href="#l" transform="matrix(1,0,0,1,1282,6305.262835493954) translate(174.453125 18.380208333333336)"/><use xlink:href="#m" transform="matrix(1,0,0,1,1282,6305.262835493954) translate(245.73828125 18.380208333333336)"/><use xlink:href="#n" transform="matrix(1,0,0,1,1282,6305.262835493954) translate(266.9205729166667 18.380208333333336)"/><use xlink:href="#o" transform="matrix(1,0,0,1,1282,6305.262835493954) translate(325.70052083333337 18.380208333333336)"/><path d="M308.74 6321.47a19.5 19.5 0 0 1 19.5-19.5h155.64a19.5 19.5 0 0 1 19.5 19.5 19.5 19.5 0 0 1-19.5 19.5H328.24a19.5 19.5 0 0 1-19.5-19.5z" stroke="#6c6e83" fill="#fff"/><path d="M361.74 6310.26h120.7v21.33h-120.7z" fill="none"/><use xlink:href="#p" transform="matrix(1,0,0,1,361.7349315215981,6310.261693467332) translate(0 17.380208333333332)"/><use xlink:href="#q" transform="matrix(1,0,0,1,361.7349315215981,6310.261693467332) translate(41.99999999999999 17.380208333333332)"/><path d="M293.47 6367.45c27.6 0 50-22.4 50-50.02 0-27.62-22.4-50.03-50-50.03s-50 22.4-50 50.03c0 27.6 22.4 50.02 50 50.02z" stroke="#6c6e83" fill="#a2c6f6"/><path d="M293.47 6268.5c26.9 0 48.7 21.9 48.7 48.83 0 26.9-21.8 48.82-48.7 48.82-26.9 0-48.7-21.9-48.7-48.82s21.8-48.83 48.7-48.83z" stroke="#000" stroke-opacity="0" fill="#a2c6f6"/><path d="M314.17 6320.93c-.6-3.2-.4-6.4-.6-9.6-.3-2.6-.7-5.2-1.3-7.8-.5-2.4-.4-4.9-.9-7.3-.9-4.1-2.3-9.32-6.1-11.42-1.1-.6-2.3-.9-3.5-1-1.3 0-2.5.3-3.6.8 0 0-10.7-3.4-18.2 1.8-2.4 1.6-3.6 5.9-4.7 8.42-2.3 4.7-1.8 9.7-1.9 14.8-.2 3-.8 5.5-2.2 8.3-1 2-1.2 3.8-.6 6 .4 1.5.7 2.9.3 4.4-.4 1.2-1 2.3-.9 3.6 0 1.9 1.4 3.5 2.8 4.6.9.7 1.8 1.2 2.7 1.8-.5.72-.8 1.52-.1 1.92 1.7 1.1 3.7 1.7 5.7 2.3 2.3.7 4.6 1.4 7 1.9 4.4.9 12.7-.8 18.5-2.4h.1c1.9 0 4.2-.2 5.8-1.2 1.7-1 2.5-3.1 2.8-4.9.8-4.8-.2-10.3-1.1-15z" stroke="#000" stroke-opacity="0" fill="#b06d51"/><path d="M312.37 6340.04c-.1-1.5-.3-3.1-.4-4.6-.2-1.2-.2-2.5-.7-3.6-.4-.8-.9-1.3-1.1-2.3-.2-.9-.2-1.7-.3-2.6-.1-1.8-.2-3.6-.4-5.4-.3-3.7-.5-7.42-.8-11.22 0 0 0-.1-.1-.1 0-.1-.1-.1-.1-.1-.1-.1-.1-.1-.2-.1 0 .1-.1.1-.1.1-1.9 1.8-4.2 3-6.5 4.1-2.9 1.4-5.4 2.3-8.6 1.3-2.7-.9-4.9-2.6-7.4-3.9-1.1-.5-3.6-2-4.7-.9-.6.6-.8 1.8-1.2 2.5-.5 1-1.1 2-1.7 2.9-1.2 1.7-2.2 3.4-2.5 5.5-.1 1.4 0 2.9-.7 4.3-.6 1.1-1.5 1.9-2 3.1-.8 1.6-1.1 3.5-.9 5.3v.2c0 .1 0 .1.1.2v.3c.1.2.3.3.5.1.4.8.6 2.6.8 3.1.5 1.02 1.1 1.92 1.9 2.72 1.8 2 4.3 3.2 6.8 4.3 2.4 1 4.8 2 7.5 2.3 3 .3 5.8 1.6 8.8 1.8 2.9.3 5.8.1 8.7.5 2.1.3 4.2 0 5.1-2.2.9-2.3.4-5.2.2-7.6z" stroke="#000" stroke-opacity="0" fill="#8f5238"/><path d="M304.87 6317.83c0-.2-.3-.4-.5-.2-.4.5-.7 1.2-1.2 1.6-.5.5-1.2.8-1.8 1-1.6.6-3.3 1-5 1.3-1.5.2-3.1.2-4.6.1-1-.1-1.9-.1-2.8.2 0-.4-.1-.7-.1-1.1 0-.4-.6-.4-.5 0 0 .4 0 .9.1 1.3-.3.2-.2.5 0 .6.1.6.1 1.2.1 1.9.1.3.1.6.1.9l.3 6.9v.2c0 2 .1 4.1 0 6.1-.3.7-.6 1.5-.3 2 .3.4 1.1.4 1.6.5l2.8.3c3.9.2 7.9-.4 11.6-1.7.1 0 .1-.1.2-.1v-.2-21.6z" stroke="#000" stroke-opacity="0" fill="#ffa894"/><path d="M305.17 6293.72c-1.1-.7-5-.2-6.2-.1-2.1.3-4.1.7-6.1 1-4.6.8-8.4 1.4-12.7 3.1-.1 0-.2.1-.3.2v.3l-.1.1v.1c.5 5.5 1.8 15.9 4.5 21.6 1.4 3.1 5.2 6.6 8.4 7.9 6.7 2.7 10.2-1.3 13.1-6.2 3.3-5.8 2.4-11.8 1.4-18-.2-1.7-1-9.2-2-10z" stroke="#000" stroke-opacity="0" fill="#ffa894"/><path d="M301.97 6307.22c0-.5-.1-1.1-.2-1.6-.1-.3-.2-.5-.4-.7-.6-.4-1.2.2-1.3.8 0 .7.2 2.2.9 2.5.7.3.9-.3 1-1zM288.27 6309.32c0-.6-.1-1.1-.3-1.6-.1-.3-.2-.5-.4-.7-.6-.4-1.1.2-1.2.8-.1.7.2 2.2.9 2.4.8.3.9-.2 1-.9z" stroke="#000" stroke-opacity="0" fill="#232c44"/><path d="M309.97 6304.52c-.7-1.7-2-1.4-2.9-.4h-.2s-.1 0-.1.1c-.2.3-.4.6-.5 1v.1c-.2.7-.2 1.5-.1 2.3.1 1.7.4 3.4.7 5.1.4 2.7 2.1.1 2.8-1 1.3-2 1.3-5 .3-7.2zM280.47 6315.63c1 .9 3.3 3 3 .3l-.6-5.1c-.1-.8-.3-1.6-.7-2.3h-.1c-.2-.4-.4-.6-.7-.9 0 0-.1 0-.2-.1l-.1.1c-1.1-.7-2.5-.7-2.7 1.1-.4 2.4.3 5.3 2.1 6.9z" stroke="#000" stroke-opacity="0" fill="#ffa894"/><path d="M308.87 6308.82c-.1-.5-.3-.6-.6-1-.3-.6 0-1.5 0-2.1.1-.4-.5-.4-.6 0 0 .5-.3 1.6-.1 2.2.1.2.3.2.4.4.6.6.4 1.5-.3 2-.3.2 0 .7.3.5.7-.5 1.1-1.2.9-2zM282.17 6313.82c-.3-.2-.7-.5-.8-.9-.1-.5.1-.8.3-1.2 0-.1.1-.2 0-.4 0-.3-.3-.7-.4-1-.3-.5-.5-1-.8-1.5-.1-.4-.6-.1-.5.3.3.6.9 1.3 1 2 .1.4.1.2 0 .6-.1.3-.2.4-.2.7-.1.8.4 1.5 1.1 1.9.4.2.7-.3.3-.5z" stroke="#000" stroke-opacity="0" fill="#f7886d"/><path d="M289.97 6303.42c-1.1-.7-2.6-.4-3.7 0-1.2.3-2.5 1.3-2.8 2.4-.1.1-.1.2 0 .2 0 .1 0 .2.1.2.3.2.3.1.6.1.9-.2 1.7-.8 2.5-1 .8-.3 1.6-.4 2.4-.5.4 0 1 0 1.3-.3.4-.4 0-.9-.4-1.1zM297.27 6303.22c.4.2.9 0 1.3-.1.8-.2 1.6-.3 2.4-.4.9 0 1.8.3 2.6.2.4-.1.4 0 .7-.3v-.2-.2c-.8-1-2.3-1.4-3.5-1.4-1.2.1-2.8.2-3.6 1.2-.3.4-.4.9.1 1.2z" stroke="#000" stroke-opacity="0" fill="#b06d51"/><path d="M303.87 6324.53c-2.2 2.1-4.1 3.8-6.7 4.1-1.5.1-6.3-1.4-8.5-3.2l.3 6.9c.3 0 .6.1 1.5.2.5.1.9.2 1.5.1 1.3-.3 2.2-.9 3.7-.6.7.1 1.4.3 2.2 0 .5-.2.9-.5 1.3-.9.8-.8 1.5-1.5 2.4-2.2 1.3-.9 1.4-1.4 2-2.9.1-.3.5-1.6.3-1.5z" stroke="#000" stroke-opacity="0" fill="#f7886d"/><path d="M299.97 6318.13c-.6 0-7.8 1.2-8 1.1-.1 0-.2.1-.2.2.2.6 1.2 1 1.8 1.2.9.3 1.9.3 2.8.2.8-.1 1.5-.4 2.2-.7.7-.4 1.3-1.1 1.5-1.9v-.1h-.1z" stroke="#000" stroke-opacity="0" fill="#fff"/><path d="M323.97 6357.74c3.3-2.3 5.9-4.9 5.8-8.4v-.1c0-.2 0-.4-.1-.6-.4-2.6-.8-5.1-2.4-7.2-.8-1-1.7-1.9-2.8-2.6-.1-.1-.3-.1-.4-.2-.2-.1-.4-.2-.6-.4-.4-.2-.7-.3-1.1-.5-2.6-1.1-7.8-2.2-10.8-2.7-.3-.1-.6-.1-.9-.2h-.4c-.4-.1-.7-.1-.9-.1-.1-.1-.2-.1-.2 0-.6-2.6.9-6.6-2.7-6.3-1.7.1-2.8 1.6-4.4 2.1-1.2.4-6.9.1-8 .2-2.6.2-3.3-.2-5.8-1.2-1.1-.5-2.5-1-3.1.5-.2.6-.2 1.2 0 1.8.3 1 .5 1.8.5 2.7-.2 0-.4-.1-.6-.2h-.2l-.9-.3h-.1c-.3 0-.6-.1-.8-.1-1.2-.2-2.4-.2-3.6-.4-.5-.1-1.1-.3-1.6-.4-1.4 1.7-3 2.8-5.2 3.4-.5.1-1 .2-1.6.4h-.1l-.9.6c-.3.2-.5.4-.8.5l-.4.4c-.6.5-1.2 1-1.7 1.6-.2.2-.8.7-.8 1l.3-.4c-.1.1-.2.3-.4.5l-1.2 2.1-1.2 2.4c0 .1 0 .1-.1.2-.1.4-.3.7-.4 1.1-.5 1.3-1 2.7-1.6 4.1 0 1.6-.7 3.2.3 4.8 7.2 10.4 37.5 19 61.9 1.9z" stroke="#000" stroke-opacity="0" fill="#fad3b1"/><path d="M296.57 6315.23c-.3.1-1.1.2-1.5.1-.8-.2-.7-1-.7-1.7-.1-.9-.1-1.8-.1-2.7.1-.4-.5-.4-.6 0 0 .9 0 1.8.1 2.7 0 .5 0 1.1.2 1.6.5 1.1 1.9.7 2.8.6.4-.1.2-.6-.2-.6z" stroke="#000" stroke-opacity="0" fill="#f7886d"/><path d="M333.67 6347.04c.8-4.8-9.2-8.2-9.2-8.2-.8 1-13 17-13.8 17.9-.2.3.3 1.4 2.3 7.1.3.9 20.1-12.5 20.7-16.8zM279.97 6365.85c2-5.6 3.3-9.7 3.1-10-.8-.8-13.1-16.9-13.8-17.82v-.1s-12.4 7.6-12.4 13.7c9.8 9.72 15.9 11.02 23.1 14.22z" stroke="#000" stroke-opacity="0" fill="#fad3b1"/><path d="M323.47 6338.34c-.1.2-.2.4-.2.6-.6 1.7-.8 3.4-2.9 3.9-1.6.4-3.3-.1-4.9-.4-.9-.1-1.8-.3-2.7.1-1 .5-1.7 1.6-2.5 2.4-1.1 1.1-2.4 2.2-4.1 2.5-3.1.6-4.6-2.7-7.5-3.2-2.7-.3-5.3 1.1-8 1.1-1.7.1-4-.2-4.9-1.7-.5-.9-.2-1.2-.4-2.1 0-.4-.2-.7-.5-1-.6-.6-1.8-.7-2.6-.9-1.6-.4-3.2-.7-4.7-1.2-1.5-.4-2.3-1.5-2.7-2.7-.2.1-.5.1-.7.2.3.9.7 1.7 1.4 2.2 2.1 1.8 5.6 1.3 8 2.4 2 .8.7 2.4 1.6 3.7.5.8 1.6 1.1 2.5 1.3 2.6.8 5 .2 7.6-.4 1.7-.4 3.5-.6 5.2.4 1.1.7 1.9 1.7 3.1 2.2 2 .9 4.2.1 5.8-1.2 1.2-.9 2-2.2 3.1-3 1.5-1.2 3.5-.3 5.2-.1 2.1.3 4.7 0 5.6-2.3.3-.9.5-1.7.8-2.5l-.6-.3z" stroke="#000" stroke-opacity="0" fill="#fff"/><path d="M326.47 6344.44c-1.7 3.1-3.2 6.3-4.6 9.5-.1.4.4.7.5.3 1.4-3.2 2.9-6.4 4.6-9.5.2-.3-.4-.6-.5-.3zM305.77 6336.94c-6.2 3.8-13.7 3.3-19.1-1.5-.3-.2-.7.2-.5.5 5.7 4.9 13.5 5.5 19.9 1.5.3-.2 0-.7-.3-.5zM306.67 6332.93c-5 1.1-10.1 2.1-15.2 1-.4-.1-.5.5-.1.5 5.2 1.2 10.4.1 15.5-.9.3-.1.2-.7-.2-.6z" stroke="#000" stroke-opacity="0" fill="#ebbd94"/><path d="M306.47 6295.32c-.6-2.1-1.6-3.1-3.7-3.6-4.3-.9-8.9-.3-12.8 1.5-.1-.1-.1-.1-.2-.1h-.1c.1-.3.1-.7.1-1.1 0-.3-.5-.3-.6 0 0 .5 0 .9-.1 1.3-1.5.4-3.1.8-4.6 1.3-1.3.5-3.2.8-4.4 1.6-.8.5-.9 1.8-1.1 2.7-.3 1.5-.5 3.1-.6 4.6 0 .7 0 1.4.1 2-.8 2-1.4 4.2-1.6 6.3-.4 3.4 0 6.7.5 10 0 .1 0 .1.1.1-.1.8-.2 1.6-.4 2.4-.6 3.3-1.8 6.6-2 10-.2 3.4 1.6 7.52 0 10.72-.6 1.1-1.1 2.2-1.1 3.5-.1 1.6.3 3.1.6 4.6l.1.1c.1.1.1.1.2.1 1.8.1 3.7.1 5.5.1.1 0 .2 0 .2-.1.1 0 .1-.1.1-.2 0-1.7-.9-3.2-.9-5 .1-1.6.8-3.1 1.2-4.6-.4 2-.4 3.9-.2 5.8.1 1.5 0 3.3 1.1 4.4 0 .1.1.1.2.1h.1c.1 0 .1-.1.2-.1v-.2c.5-5.6 1.4-11.3 1.5-16.9 0-2.8-.3-5.7-.6-8.4-.1-1.8-.3-3.5-.4-5.2.3-3.9.6-7.52.6-8.6 0-2.62 2.3-7.52 3.3-9.92 1.2-2.8 2-5.7 2.5-8.7 4-.9 8.2-1.5 12.3-1.4 1.5 0 2.4.5 3.2 1.8.5.9.9 1.9 1.1 2.9.3 1.7.1 3.4 1 4.9.2.2.5.1.5-.2.4-2.9-.2-5.7-.9-8.5z" stroke="#000" stroke-opacity="0" fill="#b06d51"/><path d="M298.17 6290.1c.2-.3.3-.6.3-1s-.2-.8-.3-1.2c-.1-.7-.1-1.5 0-2.3 0-.4-.5-.5-.6-.2-.1.7-.1 1.5 0 2.2.2 1.2.5 1.7-.4 2.8-.2.4-.5.8-.5 1.3 0 .32.4 1.1.4 1.22-.2.4.3.7.5.3.2-.4.1-.3 0-.7 0-.4-.3-.9-.2-1.4.2-.3.7-.7.8-1zM287.87 6289.4c-2.3 1.2-4.7 2.3-6.4 4.22-1.5 1.7-2.4 3.7-2.9 5.8-.5 2.8.5 5.6-.6 8.3-1 2.5-2 4.7-1.8 7.5 0 .4.6.4.6 0-.2-2.8.8-4.8 1.8-7.3.9-2.4.3-4.6.4-7.1.2-2.4 1.2-4.7 2.8-6.6 1.7-2 4-3.1 6.4-4.2.3-.2 0-.7-.3-.6zM291.97 6288c-2.7-.5-5.3-.2-7.7 1-.4.2-.1.7.3.5 2.3-1.2 4.7-1.4 7.2-1 .4.1.5-.5.2-.5z" stroke="#000" stroke-opacity="0" fill="#8f5238"/><path d="M293.47 6367.45c27.6 0 50-22.4 50-50.02 0-27.62-22.4-50.03-50-50.03s-50 22.4-50 50.03c0 27.6 22.4 50.02 50 50.02z" stroke="#6c6e83" fill-opacity="0"/><path d="M205.74 6732a6 6 0 0 1 6-6h1551a6 6 0 0 1 6 6v222.86a6 6 0 0 1-6 6h-1551a6 6 0 0 1-6-6z" fill="#e0e8f5"/><path d="M226.72 6726h15m7.48 0h14.98m7.5 0h14.98m7.5 0h14.98m7.5 0h14.98m7.5 0h14.98m7.5 0h14.97m7.5 0h14.98m7.5 0h14.98m7.5 0H444m7.5 0h15m7.48 0h15m7.48 0h15m7.48 0h14.98m7.5 0h14.98m7.5 0h14.98m7.5 0h14.98m7.5 0h14.98m7.5 0h14.97m7.5 0h15m7.5 0h14.97m7.5 0h14.98m7.5 0h14.98m7.5 0h14.98m7.5 0h14.98m7.5 0h14.98m7.5 0h14.98m7.5 0h14.98m7.5 0h14.98m7.5 0h14.98m7.5 0h14.97m7.5 0h14.98m7.5 0H961m7.5 0h15m7.48 0h15m7.48 0h14.98m7.5 0h14.98m7.5 0h14.98m7.5 0h14.98m7.5 0h14.98m7.5 0h14.98m7.5 0h14.97m7.5 0h15m7.5 0h14.97m7.5 0h14.98m7.5 0h14.98m7.5 0h14.97m7.5 0h14.98m7.5 0h14.98m7.5 0h14.98m7.5 0h14.98m7.5 0h14.98m7.5 0h14.98m7.5 0h14.97m7.5 0h14.98m7.5 0H1478m7.5 0h15m7.48 0h15m7.48 0h14.98m7.5 0h14.98m7.5 0h14.98m7.5 0h14.98m7.5 0h14.98m7.5 0h14.98m7.5 0h14.97m7.5 0h15m7.5 0h14.97m7.5 0h14.98m7.5 0h7.48l.94.1.92.2.86.37.8.5.72.6.6.7.5.82.36.86.22.9.07.95v7.44m0 7.43v14.86m0 7.42V6784m0 7.44v14.86m0 7.42v14.86m0 7.43v14.87m0 7.43v14.85m0 7.43v14.86m0 7.43v14.85m0 7.43V6940m0 7.44v7.42l-.07.94-.22.92-.36.87-.5.8-.6.7-.72.62-.8.5-.87.35-.93.22-.94.06h-7.5m-7.48 0h-15m-7.48 0h-14.98m-7.5 0h-15m-7.5 0h-14.97m-7.5 0h-14.98m-7.5 0h-14.98m-7.5 0h-14.98m-7.5 0h-15m-7.48 0h-14.98m-7.5 0h-14.98m-7.5 0H1508m-7.5 0h-14.98m-7.5 0h-14.98m-7.5 0h-14.97m-7.5 0h-14.98m-7.5 0h-14.98m-7.5 0h-15m-7.48 0h-15m-7.48 0h-15m-7.48 0h-14.98m-7.5 0h-14.98m-7.5 0h-14.98m-7.5 0h-14.98m-7.5 0h-14.98m-7.5 0h-14.97m-7.5 0h-15m-7.5 0h-14.97m-7.5 0h-14.98m-7.5 0h-14.98m-7.5 0h-14.98m-7.5 0h-14.98m-7.5 0h-14.98m-7.5 0h-14.98m-7.5 0H991m-7.5 0H968.5m-7.5 0h-14.98m-7.5 0h-14.97m-7.5 0h-14.98m-7.5 0H878.6m-7.5 0h-15m-7.48 0h-15m-7.48 0h-15m-7.48 0h-14.98m-7.5 0H766.2m-7.5 0h-14.98m-7.5 0h-14.98m-7.5 0h-14.98m-7.5 0H676.3m-7.5 0h-14.97m-7.5 0h-14.97m-7.5 0h-14.98m-7.5 0h-14.98m-7.5 0H563.9m-7.5 0h-14.98m-7.5 0h-14.98m-7.5 0h-14.98m-7.5 0H474m-7.5 0H451.5m-7.5 0h-14.98m-7.5 0h-14.97m-7.5 0h-14.98m-7.5 0H361.6m-7.5 0h-15m-7.48 0h-15m-7.48 0h-15m-7.48 0h-14.98m-7.5 0H249.2m-7.5 0h-14.98m-7.5 0h-7.48l-.94-.07-.92-.23-.87-.36-.8-.48-.7-.6-.62-.73-.5-.8-.35-.88-.22-.92-.06-.94v-7.42m0-7.43v-14.85m0-7.43v-14.86m0-7.42v-14.86m0-7.43v-14.85m0-7.43V6836m0-7.42v-14.86m0-7.42v-14.86m0-7.43v-14.85m0-7.42v-14.86m0-7.43V6732l.07-.93.23-.9.36-.88.48-.82.6-.7.73-.62.8-.5.88-.35.92-.2.94-.1h7.5" stroke="#2f3564" stroke-width="1.5" fill="none"/><path d="M700 6770.92a6 6 0 0 1 6-6h275.93a6 6 0 0 1 6 6v38.3a6 6 0 0 1-6 6H706a6 6 0 0 1-6-6z" stroke="#6c6e83" fill="#fff"/><path d="M736.98 6778.57h233.1v23h-233.1z" fill="none"/><use xlink:href="#r" transform="matrix(1,0,0,1,736.9815963922633,6778.571271513753) translate(0 17.880208333333336)"/><use xlink:href="#s" transform="matrix(1,0,0,1,736.9815963922633,6778.571271513753) translate(57.95052083333334 17.880208333333336)"/><use xlink:href="#t" transform="matrix(1,0,0,1,736.9815963922633,6778.571271513753) translate(138.87890625 17.880208333333336)"/><path d="M1221 6877.8a6 6 0 0 1 6-6h479.68a6 6 0 0 1 6 6v38.3a6 6 0 0 1-6 6H1227a6 6 0 0 1-6-6z" stroke="#6c6e83" fill="#fff"/><path d="M1253.2 6885.46H1697v21.5h-443.8z" fill="none"/><use xlink:href="#u" transform="matrix(1,0,0,1,1253.2000739934065,6885.4594114980455) translate(0 17.380208333333336)"/><use xlink:href="#v" transform="matrix(1,0,0,1,1253.2000739934065,6885.4594114980455) translate(31.682291666666668 17.380208333333336)"/><use xlink:href="#w" transform="matrix(1,0,0,1,1253.2000739934065,6885.4594114980455) translate(57.06640625 17.380208333333336)"/><use xlink:href="#x" transform="matrix(1,0,0,1,1253.2000739934065,6885.4594114980455) translate(147.61979166666669 17.380208333333336)"/><use xlink:href="#y" transform="matrix(1,0,0,1,1253.2000739934065,6885.4594114980455) translate(168.80208333333334 17.380208333333336)"/><use xlink:href="#z" transform="matrix(1,0,0,1,1253.2000739934065,6885.4594114980455) translate(215.72395833333334 17.380208333333336)"/><use xlink:href="#A" transform="matrix(1,0,0,1,1253.2000739934065,6885.4594114980455) translate(281.3854166666667 17.380208333333336)"/><use xlink:href="#B" transform="matrix(1,0,0,1,1253.2000739934065,6885.4594114980455) translate(325.6276041666667 17.380208333333336)"/><use xlink:href="#C" transform="matrix(1,0,0,1,1253.2000739934065,6885.4594114980455) translate(384.40755208333337 17.380208333333336)"/><path d="M303.43 6842.8a19.5 19.5 0 0 1 19.5-19.5h235.8a19.5 19.5 0 0 1 19.5 19.5 19.5 19.5 0 0 1-19.5 19.5h-235.8a19.5 19.5 0 0 1-19.5-19.5z" stroke="#6c6e83" fill="#fff"/><path d="M364.48 6830.32h186v26.16h-186z" fill="none"/><use xlink:href="#D" transform="matrix(1,0,0,1,364.48418291944733,6830.318413651932) translate(0 19.880208333333332)"/><path d="M293.43 6893.24c27.6 0 50-22.4 50-50s-22.4-50-50-50-50 22.4-50 50 22.4 50 50 50z" stroke="#6c6e83" fill="#a2c6f6"/><path d="M310.13 6832.6c.3-2 .7-4.12.8-6.13.1-1.8-.1-3.72-.8-5.42-.8-1.9-2.1-3.32-3.5-4.72.8-.2 1.6-.6 2.3-1.2.7-.7 1.2-1.7 1.2-2.82 0-.6-.2-1-.4-1.5s-.2-.8-.1-1.3v-.7c-.4-.9-1.7-1.5-2.5-1.9-.8-.3-1.6-.5-2.5-.6-.3-.8-1.3-1.32-2.2-1.42-.7-.2-1.5-.2-2.2 0-.9.3-1.6.8-2.5 1.2-.8.4-1.8.5-2.6.8-.7.3-1.3.7-1.8 1.22-.7.6-1 1.3-1.3 2.1-1.6-.3-3.3-.4-4.9-.1-.9.2-1.6.6-2.3 1.1-1 .5-2 .7-2.9 1.2-.7.32-1.2.92-1.8 1.52-.7.8-1.6 1.3-2.4 2-.8.6-1.4 1.5-1.8 2.52-.7 1-1.1 2.1-1.5 3.3-.3 1.22-.6 2.42-.9 3.73-.3 1.2-.6 2.5-.7 3.7-.1 2.12.4 4.03 1.6 5.53v.1l.2.2c.1.1.2.1.2 0 2.1.9 4 1.9 5.9 3.22 1.8 1.3 3.6 2.8 5.4 4.3 3.5 2.93 6.3 6.64 9.9 9.45 1.3 1 2.9 2.4 4.7 2 1.7-.4 2.8-2 3.7-3.4 2.2-3.52 3.6-7.63 4.5-11.75.5-2 .9-4.12 1.2-6.22z" stroke="#000" stroke-opacity="0" fill="#5a3728"/><path d="M304.83 6846.55c.6-3.7 2.8-20.18 1.6-23.1-1-2.1-2.5-3.1-4.3-4.3l-.9-.6c-.2-.2-.5-.4-.8-.6-1.8-1.52-4.3-1.72-6.5-1.72-5.1.1-10.2.4-14.7 3.2-.6.4-1.2.8-1.8 1.32-.1.1-.3.2-.4.4-.7.6-1.3 1.2-1.7 2-.5.8-.7 1.6-.8 2.42-1.1 6.22-.4 14.15.9 20.28 1.3 6.72 4.7 14.56 12 16.06 1.2.2 2.5.3 3.9.1 6.1-.7 10.3-4.8 12.3-10.53.5-1.6.9-3.3 1.2-4.92z" stroke="#000" stroke-opacity="0" fill="#fea689"/><path d="M318.83 6870.55c-4.3-1.3-7.6.4-11.4-2.7-1.2-1.02-2.3-2.52-2.3-3.93l-.3-3.82c-.3-4.5-.5-9.03-.2-13.55h.1c.6-.5 1.3-1.1 1.9-1.8 1.2-1.5 1.8-3.32 1.8-5.23 0-1.6-.1-3.9-1.8-4.62-1.2-.4-2.7.6-3.4 1.6 0-.1-.1-.1-.2-.2.1-.2.2-.4.4-.6.1-.1-.1-.3-.2-.2-.5.6-.7 1.2-.7 1.9 0 1.12.1 2.12.1 3.13 0 1.7-.1 3.3-.2 4.92-.9 1-1.8 2-2.8 3-1.4 1.6-3 2.62-4.9 3.72-1.9 1.1-3.7 2.3-5.4 3.62-.9.6-4.6-.6-4.7-2.22-.1-.4-.6-.3-.6.1.5 5.22.8 10.44 1 15.66-.7.5-1.3 1-2 1.4-2 1.4-4.2 2.62-6.5 3.52-.2.1-.3.4-.1.5 3.3 2.6 7.9 5.22 11.5 7.43 1.4.9 2.1 1.3 3.7 1 2-.5 4-1.1 6-1.7 7.6-2.42 14.8-5.93 21.4-10.45.2-.1.1-.4-.2-.5z" stroke="#000" stroke-opacity="0" fill="#fea689"/><path d="M281.53 6839.72c.1-.6 0-1.4-.1-1.6 0-.3-.1-.6-.3-.7-.6-.6-1.2 0-1.3.6-.2.7-.1 2.3.6 2.6.7.4 1-.2 1.1-.9zM297.03 6838.72c.1-.6 0-1.4-.1-1.6 0-.3-.1-.6-.3-.7-.6-.6-1.2 0-1.3.6-.2.7-.1 2.3.6 2.6.7.4 1-.2 1.1-.9z" stroke="#000" stroke-opacity="0" fill="#232c44"/><path d="M289.83 6847.96c-1 .4-3.1.9-3.8-.2-.4-.7.1-2.82.3-3.52.3-2.1.8-4.22 1-6.32.1-.4-.5-.5-.6-.1-.3 3.2-1.6 7.02-1.4 9.74.1 2 3.3 1.4 4.7 1 .4-.2.2-.7-.2-.6z" stroke="#000" stroke-opacity="0" fill="#b47a67"/><path d="M283.93 6833.4c-.1 0-.2-.1-.3-.1-.7-.1-1.2-.2-2-.1-.9.1-2 .1-3 .4-1 .2-2.6.6-2.9 1.7 0 .1.1.3.2.3.9.4 1.6.1 2.6 0 1.3-.1 2.7-.1 4.1-.3.5 0 1.1-.3 1.4-.7.4-.4.3-.9-.1-1.2zM291.93 6834.3c.4.3 1 .5 1.5.5 1.4-.1 2.8-.3 4.1-.5 1-.1 1.7.1 2.6-.5.1 0 .1-.2.1-.3-.6-1-2.1-1.1-3.2-1.2-1 0-2.1.2-3 .2-.8 0-1.3.2-2 .5-.1 0-.1.1-.2.1-.4.3-.3.9.1 1.2z" stroke="#000" stroke-opacity="0" fill="#b47a66"/><path d="M303.03 6850.16c.1-1.6.1-3.3.1-5 0-.22.1-2.32-.7-1.52-.2.2-.2.7-.2 1l-.3 1.4c-.2 1-.4 2.02-.7 2.92-.1.8-.6 1.5-.8 2.3-.3.7-.7 1.3-1 2.02-.2.8-.5 1.5-1 2.2-.3.6-1 1-1.6 1.3l-2.5 1.62c-2.9 1.5-3-3.52-3.5-5.42-.6-.1-1.2 0-1.8.2l-.1.1c-.1 0-.1 0-.2.1.1.3.2.7.3 1.1.1.3.1.5 0 .8 0 .9.3 1.7.1 2.52-.2 1.1-1.2 1.2-2.3 1.5-.6.1-1.1.1-1.7-.3-.6-.5-1.3-.4-1.9-.9-.3-.2-.6-.3-.9-.5-.5-.3-.8-1.1-1.2-1.5-.4-.5-.5-1.22-.7-1.82-.3-.7-.7-.9-1.2-1.2-.6-.4-.5-.7-.8-1.2-.2-.4-.7-1.3-.9-1.6-.1-.22-.2-.52-.2-.72-.3-.6-.7-1.2-1.1-1.7l-.5-.5s-.1.8-.1 1c.1.4.2.7.3 1 .3.5.3 1.3.5 1.9.2.6 0 1.5.3 2.12.3.6.5 3.2.7 3.8.3.72.3 1.32.6 1.92.4.6.3 1.4.6 2 .3.6.8.9 1.3 1.2l.1.1.1.12c.4.4.8.7 1.2 1.2.2.3.7 1.3 1 1.5.5.4 1.1.5 1.5.9.3.3.6.1 1 .4.7.5 1.6.4 2.4.4.6 0 1 .3 1.5.4.5.1 1 0 1.5-.1 1.1-.3 3.2.4 4.3.2.9-.1 1.4-.4 2.1-1 .5-.5.9-.5 1.5-.7.3-.2.5-.6.7-.9.4-.4 1.8-1.7 2.1-2.1.4-.5.6-1 .8-1.6.2-.6.4-2.12.5-2.72.2-.4.3-.8.4-1.2.5-1.6.2-5.33.4-7.03z" stroke="#000" stroke-opacity="0" fill="#5a3728"/><path d="M294.53 6850.67c-.7 0-9.3.9-9.5.9-.1 0-.2.1-.1.1 4.2 1.4 5.1 1.2 9.7-.9 0-.1-.1-.1-.1-.1z" stroke="#000" stroke-opacity="0" fill="#b66f58"/><path d="M305.83 6843.74c-.4-.7-.5-.7-.1-1.7 0-.1.2-.2.2-.4.1-.4.2-.7 0-1.2-.1-.42-.7-.92-.7-1.32-.1-.7.5-1.9.7-2.5.1-.4-.5-.5-.6-.1-.2.7-.8 1.8-.8 2.6.1.4.4.6.6.9.7 1.3-.1 1.4-.3 2.3-.2.62.1 1.12.4 1.62.2.3.7.1.5-.2h.1zM305.83 6815.02c-.9-.7-1.7-1.5-2.6-2.1-1.1-.6-2.2-.5-3.3-1.1-1.9-1.1-3.2-2.12-5.6-1.72-.4.1-.3.7.1.6 1.2-.2 2.5-.1 3.6.6.8.4 1.5 1 2.3 1.3.9.52 1.9.42 2.8 1.02.8.6 1.6 1.3 2.3 1.9.3.2.7-.2.4-.5z" stroke="#000" stroke-opacity="0" fill="#392e2a"/><path d="M311.23 6872.86c-1.2-1.9-4.7-.9-6.4-.5-1.4.3-2.7.7-4 1.3-.6.3-1.3.6-2 .7-1.2.2-2.3-.3-3.5-.3-3.5-.2-7.1 1.4-10.4-.5-1.9-1-3.7-2.9-5.9-2.7l-.1-.1c-.1 0-.3 0-.3.1l-.1.1c-.3.1-.6.2-.9.4-.4.2 0 .6.3.5l.6-.3c.1.1.2.1.2.1H279.03c.3 1.1 1.2 3.7 1.3 4 .6 1.5 1.2 2.92 1.9 4.32 1.4 2.82 3 5.63 5 7.94 1.8 2.3 4.2 1.7 6.6.6 2.9-1.5 5.7-3 8.5-4.62 2.5-1.5 5-3.1 6.9-5.32 1.2-1.3 3.1-3.82 2-5.72z" stroke="#000" stroke-opacity="0" fill="#93aebe"/><path d="M333.63 6872.56s-5.9-6.13-10.4-8.84c-.1-.1-.1-.2-.2-.2-2.9-1.1-6.9-3.52-10-1.8-1.5.8-2.3 2.4-3.4 3.5-1.5 1.6-3.6 2.3-5.5 3.02-1.7.6-3.3 1.3-4.7 2.5-1.5 1.3-2.7 3.02-3.9 4.73-1.7 2.4-3.3 4.92-4.7 7.63-.1-.7-.2-1.4-.4-2.1-.6-2.32-1.9-4.23-3.5-6.04-1.7-2-3.2-4-4.2-6.52-.8-1.7-1.4-3.82-2.9-5.12-1.4-1.2-3.1-1.1-4.7-.6-1.1.4-2.1.8-3.2 1.1-1.1.3-2.3.5-3.3.8-2.7.7-4.6 2.9-4.7 5.53-2.8.3-5.6 1-8.2 2.3-1.5.7-2.6 1.3-2.6 1.3 25.1 24.2 57.9 26.62 80.5-1.2z" stroke="#000" stroke-opacity="0" fill="#485a7e"/><path d="M325.13 6882.4s.3 0 .3-.4c-.9-1.9-1.3-1.7-2.1-3.72-1.6-4.32-1.5-9.14.2-13.46.1-.4-.4-.6-.6-.3-1.6 4.22-1.8 8.84-.5 13.05.7 2.1 1.6 2.92 2.7 4.82zM319.13 6868.84c-1.4 2.7-3.9 4.52-6.5 6.12-2.9 1.7-5.9 3.42-8.8 5.13-2.8 1.6-5.7 3.1-8.5 4.7-2 1.1-3.9 2.5-4.8 4.52-1.6-1.8-3.4-3.4-5.3-4.82-2.4-1.7-5-2.8-6.9-5.12-1.4-1.9-2.9-3.4-4.9-4.72-2.3-1.3-4.9-2.2-7.4-3-.4-.1-.7.4-.3.5 2.3.8 4.7 1.5 6.8 2.7 2.6 1.4 4.1 3.42 6 5.53 1.5 1.8 3.7 2.8 5.7 4.1 2.3 1.6 4.3 3.42 6.1 5.52.1.2.4.2.5 0 1.1-2.8 3.9-4.2 6.4-5.62 3-1.6 6-3.3 8.9-5.02 2.8-1.6 5.6-3.1 8.2-4.82 2.2-1.5 4.2-3.1 5.4-5.52.2-.3-.4-.6-.5-.2h-.1z" stroke="#000" stroke-opacity="0" fill="#2c3b59"/><path d="M285.93 6880.9c-5.2-4.63-7.8-11.36-12.8-16.18-.3-.3-.7.2-.4.4 5 4.82 7.6 11.65 12.8 16.27.3.2.7-.2.4-.5zM307.33 6868.24c-1.2 2.1-3.1 3.7-4.8 5.32-1.8 1.7-3.6 3.3-5.4 5.02-.2.2.2.6.5.4l5.7-5.42c1.7-1.5 3.4-3 4.6-5.12.2-.3-.4-.5-.6-.2z" stroke="#000" stroke-opacity="0" fill="#2c3b59"/><path d="M287.63 6888.22c.2-1.4.2-2.8.3-4.22-.6-.1-1.5-.2-2 .2-.6.5-.3 2.4-.4 3.1-.4 2.72-.6 4.83-.6 4.83s2.3 1.2 2.3-1.6c.2-.7.3-1.5.4-2.3zM294.03 6890.23c-1.8 4.3 1.9 3.8 2 2.5.2-1.9.7-3.8.8-5.72 0-1.8-.1-3.7-.2-5.6-.7.2-1.5.4-2.2.5-.1 1 .1 1.9.3 3 .3 1.8-.5 3.52-.7 5.33z" stroke="#000" stroke-opacity="0" fill="#232c44"/><path d="M307.93 6827.57c0-1.7-.5-3.3-1.3-4.8-.8-1.52-1.8-2.83-2.9-4.03-1.1-1.3-2.2-2.5-4-3-1.9-.6-3.9-.4-5.9-.3-2.1.1-4.2.1-6.4.3-1 .1-2.1.2-3 .6-.9.4-1.6.9-2.4 1.4-1.6.8-3.3 1.3-4.9 2.3-1.7 1-2.4 2.6-3 4.52-.6 2.1-1 4.32-.8 6.53 0 .1 0 .1.1.1l-.1.1v.2c.2.2.3.3.5.4h.2c1.1-1.4 1.1-3.42 1.4-5.13.3-1 .4-2.5 1.4-3 .6-.4 1.5-.3 2.3-.5.6-.1 1.2-.3 1.7-.62.4-.2.7-.5 1.1-.6.6-.2 1.2.1 1.9.2 1.8.3 3.4-.2 5.2-.7 1.2-.3 2.2-.2 3.4 0 1 .2 2.1.3 3.1.5 1.1.2 2.1.3 3.2.5s2.3.3 2.9 1.5c.9 1.82 1.3 3.83 1.1 5.93-.1 1.9-.4 3.82-.2 5.73.1 1.1 1.1 1.6 1.7.6.3-.5.6-.6 1.2-.7.2 0 .4-.1.6-.2.5-.5.7-1.3.9-1.9.6-1.8 1-3.92 1-5.93z" stroke="#000" stroke-opacity="0" fill="#5a3728"/><path d="M292.73 6810.4c-1.4-.1-2.7.3-3.8 1-1.5.9-2.1 2.62-3.8 3.22-2.4.8-4.1 2.4-3.9 5.12 0 .4.6.3.6-.1-.1-1.5.5-3 1.9-3.8.8-.6 1.9-.6 2.8-1.22 1-.7 1.5-1.8 2.4-2.5 1.1-.8 2.4-1.2 3.8-1.1.4 0 .4-.6 0-.6zM306.43 6817.84c0-.4-.6-.3-.6 0 .1 2.9.2 5.62-2.3 7.53-.3.3.1.7.4.5 2.6-2.1 2.5-4.92 2.5-8.03zM305.13 6815.73c0-.4-.6-.3-.6.1 0 1.9 0 3.8-1.1 5.52-.2.3.3.6.5.2 1.1-1.7 1.2-3.82 1.2-5.82z" stroke="#000" stroke-opacity="0" fill="#392e2a"/><path d="M293.43 6893.24c27.6 0 50-22.4 50-50s-22.4-50-50-50-50 22.4-50 50 22.4 50 50 50z" stroke="#6c6e83" fill-opacity="0"/><path d="M205.74 6995.02a6 6 0 0 1 6-6h1551a6 6 0 0 1 6 6v222.85a6 6 0 0 1-6 6h-1551a6 6 0 0 1-6-6z" fill="#e0e8f5"/><path d="M226.72 6989.02h15m7.48 0h14.98m7.5 0h14.98m7.5 0h14.98m7.5 0h14.98m7.5 0h14.98m7.5 0h14.97m7.5 0h14.98m7.5 0h14.98m7.5 0H444m7.5 0h15m7.48 0h15m7.48 0h15m7.48 0h14.98m7.5 0h14.98m7.5 0h14.98m7.5 0h14.98m7.5 0h14.98m7.5 0h14.97m7.5 0h15m7.5 0h14.97m7.5 0h14.98m7.5 0h14.98m7.5 0h14.98m7.5 0h14.98m7.5 0h14.98m7.5 0h14.98m7.5 0h14.98m7.5 0h14.98m7.5 0h14.98m7.5 0h14.97m7.5 0h14.98m7.5 0H961m7.5 0h15m7.48 0h15m7.48 0h14.98m7.5 0h14.98m7.5 0h14.98m7.5 0h14.98m7.5 0h14.98m7.5 0h14.98m7.5 0h14.97m7.5 0h15m7.5 0h14.97m7.5 0h14.98m7.5 0h14.98m7.5 0h14.97m7.5 0h14.98m7.5 0h14.98m7.5 0h14.98m7.5 0h14.98m7.5 0h14.98m7.5 0h14.98m7.5 0h14.97m7.5 0h14.98m7.5 0H1478m7.5 0h15m7.48 0h15m7.48 0h14.98m7.5 0h14.98m7.5 0h14.98m7.5 0h14.98m7.5 0h14.98m7.5 0h14.98m7.5 0h14.97m7.5 0h15m7.5 0h14.97m7.5 0h14.98m7.5 0h7.48l.94.07.92.2.86.37.8.5.72.6.6.72.5.8.36.86.22.92.07.94v7.43m0 7.43v14.85m0 7.43v14.86m0 7.42v14.86m0 7.43v14.86m0 7.42v14.85m0 7.43v14.86m0 7.43v14.84m0 7.43v14.86m0 7.43V7203m0 7.44v7.43l-.07.94-.22.92-.36.87-.5.8-.6.7-.72.62-.8.5-.87.36-.93.22-.94.07h-7.5m-7.48 0h-15m-7.48 0h-14.98m-7.5 0h-15m-7.5 0h-14.97m-7.5 0h-14.98m-7.5 0h-14.98m-7.5 0h-14.98m-7.5 0h-15m-7.48 0h-14.98m-7.5 0h-14.98m-7.5 0H1508m-7.5 0h-14.98m-7.5 0h-14.98m-7.5 0h-14.97m-7.5 0h-14.98m-7.5 0h-14.98m-7.5 0h-15m-7.48 0h-15m-7.48 0h-15m-7.48 0h-14.98m-7.5 0h-14.98m-7.5 0h-14.98m-7.5 0h-14.98m-7.5 0h-14.98m-7.5 0h-14.97m-7.5 0h-15m-7.5 0h-14.97m-7.5 0h-14.98m-7.5 0h-14.98m-7.5 0h-14.98m-7.5 0h-14.98m-7.5 0h-14.98m-7.5 0h-14.98m-7.5 0H991m-7.5 0H968.5m-7.5 0h-14.98m-7.5 0h-14.97m-7.5 0h-14.98m-7.5 0H878.6m-7.5 0h-15m-7.48 0h-15m-7.48 0h-15m-7.48 0h-14.98m-7.5 0H766.2m-7.5 0h-14.98m-7.5 0h-14.98m-7.5 0h-14.98m-7.5 0H676.3m-7.5 0h-14.97m-7.5 0h-14.97m-7.5 0h-14.98m-7.5 0h-14.98m-7.5 0H563.9m-7.5 0h-14.98m-7.5 0h-14.98m-7.5 0h-14.98m-7.5 0H474m-7.5 0H451.5m-7.5 0h-14.98m-7.5 0h-14.97m-7.5 0h-14.98m-7.5 0H361.6m-7.5 0h-15m-7.48 0h-15m-7.48 0h-15m-7.48 0h-14.98m-7.5 0H249.2m-7.5 0h-14.98m-7.5 0h-7.48l-.94-.07-.92-.22-.87-.36-.8-.5-.7-.6-.62-.72-.5-.8-.35-.88-.22-.9-.06-.95v-7.43m0-7.43v-14.84m0-7.43v-14.86m0-7.43v-14.85m0-7.44v-14.86m0-7.43v-14.85m0-7.43v-14.87m0-7.43v-14.86m0-7.42v-14.86m0-7.43v-14.85m0-7.43v-7.43l.07-.94.23-.92.36-.87.48-.8.6-.72.73-.62.8-.5.88-.35.92-.2.94-.08h7.5" stroke="#2f3564" stroke-width="1.5" fill="none"/><path d="M700 7086.3a6 6 0 0 1 6-6h184.86a6 6 0 0 1 6 6v38.3a6 6 0 0 1-6 6H706a6 6 0 0 1-6-6z" stroke="#6c6e83" fill="#fff"/><path d="M734.53 7093.95H862.8v22.7H734.52z" fill="none"/><use xlink:href="#E" transform="matrix(1,0,0,1,734.5261154304516,7093.948112854124) translate(0 17.880208333333336)"/><use xlink:href="#F" transform="matrix(1,0,0,1,734.5261154304516,7093.948112854124) translate(44.94401041666667 17.880208333333336)"/><use xlink:href="#G" transform="matrix(1,0,0,1,734.5261154304516,7093.948112854124) translate(91.1640625 17.880208333333336)"/><path d="M309.43 7106.44a19.5 19.5 0 0 1 19.5-19.5h228.2a19.5 19.5 0 0 1 19.5 19.5 19.5 19.5 0 0 1-19.5 19.5h-228.2a19.5 19.5 0 0 1-19.5-19.5z" stroke="#6c6e83" fill="#fff"/><path d="M368.76 7094.24H558v22.4H368.75z" fill="none"/><use xlink:href="#H" transform="matrix(1,0,0,1,368.7593695960111,7094.23676967235) translate(0 17.57638888888889)"/><use xlink:href="#I" transform="matrix(1,0,0,1,368.7593695960111,7094.23676967235) translate(61.927083333333336 17.57638888888889)"/><use xlink:href="#J" transform="matrix(1,0,0,1,368.7593695960111,7094.23676967235) translate(123.984375 17.57638888888889)"/><path d="M293.43 7156.07c27.6 0 50-22.35 50-49.93 0-27.68-22.4-50.03-50-50.03s-50 22.36-50 50.04c0 27.58 22.4 49.93 50 49.93z" stroke="#6c6e83" fill="#a2c6f6"/><path d="M293.33 7057.22c27 0 48.8 21.84 48.8 48.82s-21.8 48.82-48.8 48.82c-26.9 0-48.7-21.84-48.7-48.82s21.8-48.82 48.7-48.82z" stroke="#000" stroke-opacity="0" fill="#a2c6f6"/><path d="M309.43 7137.55c.1.2.2.4.3.7.1.3.3.5.4.8 1.5 3.63 3 7.15 4.7 10.78.3.6.2.9.5 1.5 8.2-5.23 14.7-10.96 14.7-10.96s-.7-1.1-2.7-3.33c-1.6-1.9-3.5-3.62-5.5-5.13-4.2-2.9-9.1-5.02-14.2-5.12 0 0 0 .1-.1.2 0 .1-.1.3-.1.5 0 0 0 .1-.1.1 0 .2 0 .3-.1.5 0 .1-.1.3-.1.5v.1c.2 1.12.3 2.83.5 3.93.3 1.73 1.1 3.34 1.8 4.95z" stroke="#000" stroke-opacity="0" fill="#456664"/><path d="M308.83 7128.09l-2.7.8-.7.2c-3.1 1-.9 5.02-3.3 5.73-.3.1-1.1 0-2.2-.3-2.6-.6-6.3-1.9-6.3-1.8 0 0-.4-.22-1.1-.42-1.6-.4-4.7-1.4-7.6-2.3l-3.6-1.2-.8-.2-1.7-.62 1.1-.5.5-.3h.1l1.5-.7 2.3-1.1s8.1 2.9 8.4 2.8c.2 0 7-3.32 7-3.32l6 2.12.1.1.5.2 1 .3.3.1 1.2.4z" stroke="#000" stroke-opacity="0" fill="#ffa894"/><path d="M302.63 7074.74c-.1-1-.9-1.7-1.2-2.72-.3-1.1 0-2.32 0-3.42 0-.2.1-.4 0-.5 0-1.4-.4-2.72-1.7-3.53-1.1-.8-2.3-1.1-3.6-.9-.9.2-1.5.8-2.3 1.2-.4.2-.7.4-1 .7-.7.3-1.3.5-2 .7-1.1.2-2.1.62-2.8 1.62-.8 1.2-.9 3-1.2 4.42-.3 1-.4 2-.5 3.02v.3c-.1.7-.1 1.5.1 2.22.1.2.1.5.3.7.5 1.1 1.6 1.7 3 1.6.8 0 1.6-.2 2.4-.3 1.2-.1 2 .62 3.1.82h.1c.4.1.8.1 1.2.1.3 0 .5-.1.8-.1 0 0 .1-.1.2-.1 1.2-.3 2.4-1 3.4-1.92 1.1-1.1 1.9-2.5 1.7-3.92z" stroke="#000" stroke-opacity="0" fill="#db6e56"/><path d="M302.63 7074.74c-.1-1-.9-1.7-1.2-2.72-.3-1.1 0-2.32 0-3.42 0-.2.1-.4 0-.5-.2.9-.5 1.8-.9 2.6-1 2.13-2.5 2.93-4.8 2.83-1.3-.1-2.1.1-3 1-1.4 1.2-4.6 2.12-6.4.8v.3c-.1.72-.1 1.52.1 2.23.1.2.1.5.3.7.5 1.1 1.6 1.7 3 1.6.8 0 1.6-.3 2.4-.3 1.2-.1 2 .5 3.1.82h1.3c.2 0 .5-.1.8-.1h.2c1.2-.3 2.4-1 3.4-1.92 1.1-1.1 1.9-2.5 1.7-3.92z" stroke="#000" stroke-opacity="0" fill="#c2563e"/><path d="M309.73 7087.42c-.2-.9-.7-1.8-1.3-2.62-.2-.1-.3-.2-.4-.3-.5-.5-.6-.7-.8-1.4-.2-.4-.2-.7-.4-1.12-.5-.7-1.3-1.2-2.1-1.5-1.3-.6-2.6-1.1-3.8-1.82h-.1c-1.8-1-3.6-1.2-5.5-.7-.6-.3-1.2-.5-1.8-.5-1.3-.1-2.6.3-3.8.6-1 .2-2 .3-3 .5-.5.1-.9.1-1.4.3-4.8 1.3-6.8 6.24-7.5 10.77-.5.9-1 1.6-1.2 2.62-.1 1 0 2.02-.1 3.02-.2 1.3-.2 2.32.1 3.52.2.6.4 1.1.6 1.6.1.1.2.3.2.4.2 1 .7 1.82 1.3 2.42.3.5.5 1 .7 1.4 0 .2.1.4.2.62 0 .1 0 .1.1.2H280.03c.1 0 .1-.1.2-.1v-.1-.1-.1l-.1-.1c0-.2-.1-.4-.2-.6l.2.2c.1 0 .2.1.2.2l.1.1c.4.2.7.5 1 .8 1.5 1.2 3 2.5 4.7 3.42 4.1 2.42 8.6 3.52 13.2 1.9 1.7-.5 3.3-1.4 4.8-2.5.4-.4.9-.8 1.3-1.2.2-.2.5-.4.7-.72.2-.2.4-.4.6-.7.7-.9 1.4-1.9 1.9-2.92.1-.3.2-.5.2-.7.7-2.02.2-4.03.9-6.04.5-1.5.5-3.02.2-4.53.3-1.4.2-2.82-.2-4.23z" stroke="#000" stroke-opacity="0" fill="#db6e56"/><path d="M297.53 7115.7c-1.5.1-3 .1-4.6-.2-1.7-.3-3.3-.8-4.9-1.4-.7-.2-1.4-.5-1.9-1-.5-.4-.7-1.12-1.1-1.62-.2-.2-.5-.1-.5.2 0 1.9-.1 3.82-.1 5.74v.1c-.1 2.2-.1 4.42-.2 6.64V7125.36c0 1.12 0 2.12-.1 3.13v1.2c0 1.2 0 2.4-.1 3.52 0 .1.1.2.1.2 0 .1.1.1.1.1 3.8 1.4 7.5 14 11.4 13.9.9 0 3.3-8.06 4.2-8.16.5-.1 2.8-2.82 2.8-2.82l-1.8-5.94v-1.7l.2-3.43.3-7.35.2-2.92s-3 .5-4 .6z" stroke="#000" stroke-opacity="0" fill="#ffa894"/><path d="M280.23 7089.43c1-.9 5.4-3.92 6.6-3.92 2.1-.1 6.3-1 8.3-.9 4.7.1 7.7 2 10.4 4.93.2.2.4.3.4.5 0 0 .1 0 .1.1v.1c.4 5.54.2 16.1-1.6 22.15-1 3.22-3.7 7.15-6.7 8.96-6.1 3.73-9.8.6-13.3-3.82-4.2-5.34-4.1-11.08-4.7-17.92-.1-1.7-.4-9.26.5-10.17z" stroke="#000" stroke-opacity="0" fill="#ffa894"/><path d="M285.73 7102.12c-.1-.5-.1-1.1-.1-1.6.1-.32.2-.52.4-.72.5-.6 1.1 0 1.3.5.2.7.2 2.32-.5 2.62-.7.4-1-.1-1.1-.8zM298.53 7102.12c-.1-.5-.1-1.1 0-1.6 0-.32.1-.52.3-.72.5-.6 1.2-.1 1.3.5.2.7.2 2.22-.4 2.62-.7.4-1-.1-1.2-.8z" stroke="#000" stroke-opacity="0" fill="#232c44"/><path d="M281.43 7103.32c-.1-.8-.2-1.6-.5-2.3v-.1c-.2-.3-.4-.52-.6-.72 0-.1 0-.1-.1-.2 0 0-.1 0-.1-.1-.1 0-.1 0-.2.1l-.2-.2c-.1 0-.2-.1-.3-.2-.8-.4-1.7-.3-2.2.8 0 .1-.1.3-.1.4-.6 2.32-.2 5.24 1.4 7.05.2.2.4.5.7.8.3.3.7.6 1.1.9.1.1.3.22.5.22.4 0 .6-.3.6-1.3v-2.83-2.32z" stroke="#000" stroke-opacity="0" fill="#ffa894"/><path d="M288.93 7112.48s1 1.1 1.7 1.4c.8.2 1.6.62 2.4.52.9 0 1.9-.3 2.7-.7.5-.3 1.6-1.32 1.6-1.32l-8.4.1z" stroke="#000" stroke-opacity="0" fill="#ad4444"/><path d="M297.43 7120.94c-2.1 1.5-5.1 1.7-7.5.6-2.1-1-3.7-2.3-5.5-4.02-.1 2.2-.1 4.42-.2 6.64v.1c.9.2 1.7.5 2.6.6 1.5.1 2.7-.8 4.1-.8 1.3.1 2.5.4 3.7-.3 1-.5 1.9-1.3 2.6-2.12.1-.2.3-.4.4-.5.1-.1-.1-.3-.2-.2z" stroke="#000" stroke-opacity="0" fill="#f7886d"/><path d="M290.33 7096.98c-.2-.7-1.1-.9-1.6-1-2.2-.5-4.8.2-6.4 1.7-.4.3.9.2 1 .2 1.4-.3 2.7-.3 4.1-.3h2c.4 0 1-.1.9-.6zM303.83 7098.1c-1.6-1.62-4.2-2.33-6.4-1.92-.5.1-1.5.3-1.6.9-.2.5.4.6.8.7h2c1.4.1 2.8.2 4.1.5.1 0 1.4.2 1.1-.2z" stroke="#000" stroke-opacity="0" fill="#db6e56"/><path d="M280.23 7106.95c-.5-.2-1.4-1.9-.1-1.9 0-.02 0-.02.1-.02 0 0 .1 0 .1-.1 0 0 0-.1.1-.1v-.1c-.3-1.3-.6-2.6-.8-3.82-.1-.4-.6-.3-.6.1.2 1.22.5 2.32.7 3.53-1.4.3-.9 2.52.3 3.02.4.1.5-.4.2-.6z" stroke="#000" stroke-opacity="0" fill="#f7886d"/><path d="M308.83 7102.22c0-.3 0-.5-.1-.8-.4-1.62-1.6-1.72-2.6-1.12 0 .1 0 .1-.1.1l-.1.1c-.1-.1-.1-.1-.2 0h-.1c-.3.3-.5.6-.7.9v.1c-.4.72-.5 1.42-.6 2.23-.1 1.6-.2 3.22-.2 4.73 0 .2-.1.3-.1.5 0 1.1.4 1.4.9 1.2.2-.1.4-.2.5-.3.4-.2.7-.5 1-.8l.6-.6c1.5-1.6 2.1-4.13 1.8-6.24z" stroke="#000" stroke-opacity="0" fill="#ffa894"/><path d="M305.33 7107.45c.5-.1 1.5-1.8.3-1.9h-.2s0-.1-.1-.1v-.1-.1l.9-3.84c.1-.4.6-.2.5.2-.2 1.12-.5 2.33-.8 3.43 1.4.4.8 2.62-.4 3.03-.4.1-.5-.4-.2-.6zM293.23 7108.76c-1.8-.8-.9-2.42-.7-3.83l.6-3.92c0-.3-.6-.4-.6 0-.2 1.12-.3 2.12-.5 3.23-.1 1-.6 2.1-.7 3.12 0 1 .9 1.6 1.8 2 .3.1.5-.4.1-.6z" stroke="#000" stroke-opacity="0" fill="#f7886d"/><path d="M306.73 7094.06c-.1-1.8-.1-3.92-.9-5.63-1-2.42-3.5-3.73-6-4.23-.2-.1-.4-.1-.6-.1-.5-.1-1.1-.2-1.7-.3h-1.1c-2.4 0-4.7.3-7 .7-2.1.3-4.2.8-6.1 1.7-.4.2-.7.4-1.1.52-.2.2-.5.3-.8.5-.9.5-1.8 1.2-2.1 2.3-.6 1.83-.6 7.97.1 10.08.1.4.2.6.4.8H280.13l.2-.2c.4-.5.4-1.5.5-2.1.1-1.72 0-3.23.6-4.84.5-1.5 1.3-2.92 2.2-4.23 1-1.5 1.9-2.82 3.8-3.12 1.4-.2 3-.1 4.4-.2 1.2-.1 2.5-.2 3.7-.1 1.2.2 2.2.7 3.4 1 1.9.62 4.2.62 5.3 2.63.9 1.5.7 3.63.8 5.24l.6 5.73v.2l.1.1H306.03c.1 0 .1-.1.1-.1.8-1.9.6-4.32.6-6.34z" stroke="#000" stroke-opacity="0" fill="#db6e56"/><path d="M297.83 7081.98c-.1-.6-.3-1.1-.7-1.6-.4-.5-1.6-1.2-1.5-1.92.1-.4-.5-.4-.6 0 0 .7.3 1.1.8 1.5 1.4 1.22 2 2.83.7 4.44-.2.3.2.7.4.4.7-.8 1-1.7.9-2.82zM299.33 7081.88c-.2-.3-.7-.1-.5.3.2.3.3.7.4 1.1.1.32 0 .72 0 1.12-.1.4.4.6.5.2.1-.5.2-.9.1-1.4-.1-.5-.3-.9-.5-1.32zM282.53 7089.73c-1.6-.7-.2-2.5-.2-3.52 0-.5-.2-.7-.3-1.1-.4-1.1-.4-2.1.2-3.22.1-.4-.4-.7-.5-.3-.4.7-.7 1.5-.6 2.32 0 1.1.7 1.9.4 3.02-.3 1.1-.7 2.7.7 3.32.3.2.6-.3.3-.5zM294.13 7071.2c-1-1.3-.8-3.3-.4-4.92 0-.3-.5-.5-.6-.1-.4 1.8-.6 3.93.5 5.44.3.3.7-.1.5-.4z" stroke="#000" stroke-opacity="0" fill="#c2563e"/><path d="M310.13 7130.4c-.1-.6-.9-3.82-2.1-2.92-.1.1-.3.1-.4.2-.1 0-.2.1-.2.1v-.2h-.1l-1-.3-.5-.2-.1-.1c-1.1.8-11 16.6-11 16.6s-12.6-17.1-12.7-17.1c-.3-.1-1.2.2-1.8.4-.2.1-.5.2-.5.2-.2.1-.4.2-.6.2l-1.1.4-.4.2c-.5.2-1 .4-1.1.9v.1c0 .2 0 .4.1.72 0 .2.1.3.2.5.1.5.2 1 .4 1.5.3 1 .7 2.02 1 3.03.4 1.1.9 2.3 1.3 3.42 1.1 2.92 2.3 5.74 3.4 8.56 5.6 9.57-.9 10.78 25.1 7.15 1.4-4.02.2 1.7.7-2.5.1-.62.1-1.22.2-1.82 0-1.1.1-2.32.1-3.53v-.8c.1-.8.1-1.6.1-2.42.1-1.7.1-3.42.3-5.13.1-.4.1-.7.1-1 .1-.82.3-1.52.4-2.32.1-.4.1-.7.2-1.1.1-.92.1-1.82 0-2.73z" stroke="#000" stroke-opacity="0" fill="#fff8f0"/><path d="M287.33 7156.17c-1.2-4.83-.5-2.1-1.6-6.54-.6-2.62-1.5-5.14-2-7.76-.2-.7-.3-1.5-.4-2.3-1.2-3.13-2.7-6.75-3.5-7.96-.8-1.1-1.7-2.6-1.8-4.02-.3 0-.5 0-.7.1-.3.1-.6.2-.9.2-.2.1-.5.2-.7.2-1.4.4-2.9.8-4.4 1.3-.2 0-.5.1-.7.22-1.1.3-2.1.7-3.1 1.1-2 .8-4 1.7-5.9 2.92-1.2.8-8.8 8.15-5.7 5.94 0 0 18 16.9 31.4 16.6zM324.63 7144.5c0-4.34-.2-8.86-4-11.68-3.8-2.92-8.4-4.73-13.1-5.84l-.3 1c-.5 1.92-.4 3.73-.7 5.64-.3 2.52-1.2 4.83-2 7.05-.4 4.83-.5 9.56-.8 14.3 12.9-2.43 20.9-9.77 20.9-10.48z" stroke="#000" stroke-opacity="0" fill="#456664"/><path d="M304.63 7141.47c.1 3.53 2.2 6.55 5 8.56 1.6 1.2 2.7 1.8 4.5 2.52.5.2-.1-.4.4-.4-.3-.3 1 .3.7 0-3.4-3.63-7.2-7.05-10.6-10.68zM319.43 7143.6c.3-2.83.6-6.05.2-8.87-1.5 1-2.7 4.93-3.1 6.54-1.1-3.42-2.9-7.85-5.5-10.47h-.1c.8 4.13 2 8.26 3.3 12.28.6 2.12 2.3 7.75 2.3 7.75l1.3-.3s1.3-5.03 1.6-6.94zM320.13 7142.78c-.3 2.62-1.7 6.14.1 6.14 1.1-2 2.6-3.12 2.6-5.43.1-1.73-.2-3.44-.8-5.05-.1-.4-1.1-2.6-1.7-3.52.3 2.62.1 5.34-.2 7.85zM313.43 7142.78c-1.1-3.72-2.2-7.45-3-11.27-1.2 4.34-.6 8.97 1.6 12.9-2.2-1.42-4.6-2.63-7-3.53-.1-.1-.1-.1-.2-.1 3.4 3.62 7.1 6.94 10.5 10.47.3.3-.3-.2 0 .1-.1-.4.7.1.5-.3-.8-2.72-1.5-5.54-2.4-8.26zM277.53 7144c-.1 0-.1 0-.1-.1-2.2-2.93-3.3-7.56-3.8-11.18-.6 1.5-2.5 5.33-4.1 6.03.1-2.9.8-6.03 1.6-8.65.1-.3.2-.5.2-.7 1.5-.5 3-.9 4.4-1.3.2 1.1.3 2.1.5 3.2.6 4.23 1.1 8.46 1.3 12.7zM270.63 7129.6c-.1.4-.3.8-.4 1.1-.6 2.42-1.2 5.14-1.3 7.75-.5-1-1.1-3.32-1.2-3.72-.3-1.3-.3-2.72-.2-4.03 1-.4 2-.8 3.1-1.1zM279.53 7131.2c-.7-1.1-1.4-2.3-1.5-3.62-.3 0-.5 0-.7.1-.3.1-.6.2-.9.2.1 1.3.3 2.62.5 3.83.5 3.94 1 7.76 1.2 11.7 1.9-4.14 2-8.77.4-13 .4.3.7.5 1 .8z" stroke="#000" stroke-opacity="0" fill="#232c44"/><path d="M306.43 7109.06c-.1 0-.2-.1-.3-.2 0-.1-.1-.1-.2-.1h-.2l-.2.2v.2l-.1.7-.2 6.95c0 .1 0 .1.1.2 0 .1 0 .1.1.1 0 .1.1.1.2.1h.2c.9-.4 2.7-1.5 2.7-4 0-1.72-1.2-3.23-2.1-4.14zM280.33 7109.56l-.1-1s-.1-.1-.1-.2c-.1 0-.1-.1-.2-.1h-.2c-.1 0-.1.1-.2.1l-.3.3c-.8 1-1.9 2.52-1.8 4.13.2 2.5 2 3.5 3 3.9h.2c.1 0 .1-.1.2-.1 0 0 .1-.1.1-.2v-.1l-.6-6.74z" stroke="#000" stroke-opacity="0" fill="#f2e7e1"/><path d="M279.03 7110.77c-.8.4-1 1.7-.8 2.52.2 1 1.5 1.5 1.8.3.1-.5.1-3.43-1-2.83zM306.83 7111.38c-1.2-.4-1 2.4-.9 2.9.4 1.22 1.7.72 1.8-.3.2-.9-.1-2.2-.9-2.6z" stroke="#000" stroke-opacity="0" fill="#a2c6f6"/><path d="M303.73 7126.27c0 .2 0 .4-.1.6 0 .4-.1.8-.2 1.1-.9 4.64-2.7 8.97-4.1 13.4-.9 2.52-1.5 5.14-1.9 7.85-.1.8-.2 1.6-.4 2.42l-.3-.1c-.3-.1-.4.4-.1.5l.3.1c-.2.5-.3 1.1-.6 1.6l-.6-.2h-.1c-.1 0-.1 0-.1.1h-.1v.1l-.1.1v.22c.1.3.2.7.4 1-.3.5-.5.9-.8 1.3h-.2s0 .1-.1.1c0 .1-.1.2-.1.3-.2-.6-.3-1.2-.5-1.9.2-.1.4-.3.6-.5.2-.2-.2-.6-.4-.3l-.3.3c-.1-.5-.2-1-.4-1.4l.6-.62c.3-.2-.1-.5-.3-.3-.1.1-.3.2-.4.3-.2-.9-.5-1.9-.8-2.82.3-.1.4-.3.6-.6.1-.2.1-.5.1-.7-.1-.3-.2-.5-.4-.7l-.6-.3h-.2-.2c-2.1-6.75-4.8-13.3-8.2-19.44-.2-.4-.6-1.1-.9-1.6-.2.1-.4.1-.4.2.2.3.5.9.6 1.2 3.5 6.24 6.3 12.9 8.5 19.83-.2.1-.4.3-.5.52-.1.2-.2.4-.2.7 0 .7.7 1.1 1.4 1 .3 1.1.6 2.12.8 3.13-.3.3-.5.6-.8 1-.2.2.2.5.4.3.1-.3.4-.5.6-.7l.3 1.4c-.2.3-.3.5-.5.8-.2.22.3.42.4.22.1-.1.2-.3.3-.4.1.7.1.7.3 1.4 1.4 0 .4-.1 1.3-.1.2-.3.4-.7.6-1 0 .2.1.7.3.9.2.2.4.1.5 0 .4-.3.7-.7 1-1 .2-.3 1.1-1 .6-1.4-.3-.22-.8-.22-1.1-.32l-.5-.1.6-1.5.6.2c.3.1.4-.3.1-.4-.2-.1-.4-.2-.6-.2.2-.6.3-1.12.4-1.72.4-2.82 1-5.54 1.8-8.26 1.5-4.63 3.5-9.26 4.4-14.1 0-.3.1-.6.1-.9.1-.2.1-.3.1-.4l-.5-.2zm-12.4 22.35c0-.2 0-.3.1-.4 0-.2.1-.3.2-.4.2.5.3.9.4 1.4-.3 0-.7-.2-.7-.6zm1.2.4c-.1-.4-.3-.9-.4-1.3.7 0 .9.9.4 1.3zm3.4 5.03l.2.1c0 .1-.1.2-.1.3-.1-.1-.1-.2-.1-.4zm2 .5l-.7.7c-.1.1-.5.72-.7.92l-.3-1.1c.1-.3.2-.6.3-.8h.2c.2.1 1.2.2 1.2.3z" stroke="#000" stroke-opacity="0" fill="#fad3b1"/><path d="M293.43 7156.07c27.6 0 50-22.35 50-49.93 0-27.68-22.4-50.03-50-50.03s-50 22.36-50 50.04c0 27.58 22.4 49.93 50 49.93z" stroke="#6c6e83" fill-opacity="0"/><path d="M700.47 6877.8a6 6 0 0 1 6-6h447.78a6 6 0 0 1 6 6v38.3a6 6 0 0 1-6 6H706.47a6 6 0 0 1-6-6z" stroke="#6c6e83" fill="#fff"/><path d="M726.62 6885.46h410.47v21.5H726.6z" fill="none"/><use xlink:href="#K" transform="matrix(1,0,0,1,726.6192951584184,6885.4594114980455) translate(0 17.380208333333336)"/><use xlink:href="#L" transform="matrix(1,0,0,1,726.6192951584184,6885.4594114980455) translate(31.682291666666668 17.380208333333336)"/><use xlink:href="#M" transform="matrix(1,0,0,1,726.6192951584184,6885.4594114980455) translate(57.06640625 17.380208333333336)"/><use xlink:href="#m" transform="matrix(1,0,0,1,726.6192951584184,6885.4594114980455) translate(147.61979166666669 17.380208333333336)"/><use xlink:href="#N" transform="matrix(1,0,0,1,726.6192951584184,6885.4594114980455) translate(168.80208333333334 17.380208333333336)"/><use xlink:href="#m" transform="matrix(1,0,0,1,726.6192951584184,6885.4594114980455) translate(276.97395833333337 17.380208333333336)"/><use xlink:href="#n" transform="matrix(1,0,0,1,726.6192951584184,6885.4594114980455) translate(298.15625000000006 17.380208333333336)"/><use xlink:href="#o" transform="matrix(1,0,0,1,726.6192951584184,6885.4594114980455) translate(356.93619791666674 17.380208333333336)"/><path d="M1161.5 6896.95h41.56" stroke="#6c6e83" stroke-width="1.5" fill="none"/><path d="M1161.52 6897.68h-.77v-1.45h.77z" stroke="#6c6e83" stroke-width=".05" fill="#6c6e83"/><path d="M1218.07 6896.95l-14.26 4.64v-9.28z" stroke="#6c6e83" stroke-width="1.5" fill="#6c6e83"/><path d="M1190.4 6317.43h41.58" stroke="#6c6e83" stroke-width="1.5" fill="none"/><path d="M1190.4 6318.15h-.76v-1.45h.77z" stroke="#6c6e83" stroke-width=".05" fill="#6c6e83"/><path d="M1247 6317.42l-14.27 4.64v-9.27z" stroke="#6c6e83" stroke-width="1.5" fill="#6c6e83"/><path d="M205.74 6469.5a6 6 0 0 1 6-6h1551a6 6 0 0 1 6 6v222.86a6 6 0 0 1-6 6h-1551a6 6 0 0 1-6-6z" fill="#e0e8f5"/><path d="M226.72 6463.5h15m7.48 0h14.98m7.5 0h14.98m7.5 0h14.98m7.5 0h14.98m7.5 0h14.98m7.5 0h14.97m7.5 0h14.98m7.5 0h14.98m7.5 0H444m7.5 0h15m7.48 0h15m7.48 0h15m7.48 0h14.98m7.5 0h14.98m7.5 0h14.98m7.5 0h14.98m7.5 0h14.98m7.5 0h14.97m7.5 0h15m7.5 0h14.97m7.5 0h14.98m7.5 0h14.98m7.5 0h14.98m7.5 0h14.98m7.5 0h14.98m7.5 0h14.98m7.5 0h14.98m7.5 0h14.98m7.5 0h14.98m7.5 0h14.97m7.5 0h14.98m7.5 0H961m7.5 0h15m7.48 0h15m7.48 0h14.98m7.5 0h14.98m7.5 0h14.98m7.5 0h14.98m7.5 0h14.98m7.5 0h14.98m7.5 0h14.97m7.5 0h15m7.5 0h14.97m7.5 0h14.98m7.5 0h14.98m7.5 0h14.97m7.5 0h14.98m7.5 0h14.98m7.5 0h14.98m7.5 0h14.98m7.5 0h14.98m7.5 0h14.98m7.5 0h14.97m7.5 0h14.98m7.5 0H1478m7.5 0h15m7.48 0h15m7.48 0h14.98m7.5 0h14.98m7.5 0h14.98m7.5 0h14.98m7.5 0h14.98m7.5 0h14.98m7.5 0h14.97m7.5 0h15m7.5 0h14.97m7.5 0h14.98m7.5 0h7.48l.94.08.92.22.86.36.8.5.72.6.6.72.5.8.36.87.22.92.07.94v7.44m0 7.42v14.86m0 7.43v14.86m0 7.44v14.85m0 7.42v14.86m0 7.43v14.86m0 7.43v14.85m0 7.43v14.85m0 7.43v14.86m0 7.43v14.85m0 7.43v7.43l-.07.94-.22.9-.36.88-.5.8-.6.72-.72.6-.8.5-.87.36-.93.22-.94.08h-7.5m-7.48 0h-15m-7.48 0h-14.98m-7.5 0h-15m-7.5 0h-14.97m-7.5 0h-14.98m-7.5 0h-14.98m-7.5 0h-14.98m-7.5 0h-15m-7.48 0h-14.98m-7.5 0h-14.98m-7.5 0H1508m-7.5 0h-14.98m-7.5 0h-14.98m-7.5 0h-14.97m-7.5 0h-14.98m-7.5 0h-14.98m-7.5 0h-15m-7.48 0h-15m-7.48 0h-15m-7.48 0h-14.98m-7.5 0h-14.98m-7.5 0h-14.98m-7.5 0h-14.98m-7.5 0h-14.98m-7.5 0h-14.97m-7.5 0h-15m-7.5 0h-14.97m-7.5 0h-14.98m-7.5 0h-14.98m-7.5 0h-14.98m-7.5 0h-14.98m-7.5 0h-14.98m-7.5 0h-14.98m-7.5 0H991m-7.5 0H968.5m-7.5 0h-14.98m-7.5 0h-14.97m-7.5 0h-14.98m-7.5 0H878.6m-7.5 0h-15m-7.48 0h-15m-7.48 0h-15m-7.48 0h-14.98m-7.5 0H766.2m-7.5 0h-14.98m-7.5 0h-14.98m-7.5 0h-14.98m-7.5 0H676.3m-7.5 0h-14.97m-7.5 0h-14.97m-7.5 0h-14.98m-7.5 0h-14.98m-7.5 0H563.9m-7.5 0h-14.98m-7.5 0h-14.98m-7.5 0h-14.98m-7.5 0H474m-7.5 0H451.5m-7.5 0h-14.98m-7.5 0h-14.97m-7.5 0h-14.98m-7.5 0H361.6m-7.5 0h-15m-7.48 0h-15m-7.48 0h-15m-7.48 0h-14.98m-7.5 0H249.2m-7.5 0h-14.98m-7.5 0h-7.48l-.94-.07-.92-.23-.87-.36-.8-.5-.7-.6-.62-.7-.5-.82-.35-.87-.22-.9-.06-.94v-7.43m0-7.43v-14.85m0-7.43v-14.86m0-7.43v-14.86m0-7.42v-14.86m0-7.44v-14.85m0-7.42v-14.86m0-7.43v-14.86m0-7.43v-14.85m0-7.43v-14.86m0-7.42v-7.43l.07-.93.23-.92.36-.87.48-.8.6-.7.73-.63.8-.5.88-.35.92-.22.94-.07h7.5" stroke="#2f3564" stroke-width="1.5" fill="none"/><path d="M700.47 6563.4a6 6 0 0 1 6-6h317.33a6 6 0 0 1 6 6v38.3a6 6 0 0 1-6 6H706.47a6 6 0 0 1-6-6z" stroke="#6c6e83" fill="#fff"/><path d="M724.9 6571h288.32v23.9h-288.3z" fill="none"/><use xlink:href="#O" transform="matrix(1,0,0,1,724.9094700839466,6570.992554448665) translate(0 18.380208333333336)"/><use xlink:href="#s" transform="matrix(1,0,0,1,724.9094700839466,6570.992554448665) translate(85.52213541666667 18.380208333333336)"/><use xlink:href="#P" transform="matrix(1,0,0,1,724.9094700839466,6570.992554448665) translate(166.45052083333334 18.380208333333336)"/><path d="M287.65 6582.94A19.34 19.34 0 0 1 307 6563.6H480a19.34 19.34 0 0 1 19.34 19.34 19.34 19.34 0 0 1-19.34 19.34H307a19.34 19.34 0 0 1-19.35-19.34z" stroke="#6c6e83" fill="#fff"/><path d="M362.43 6571.75H494.1v22.15H362.43z" fill="none"/><g><use xlink:href="#Q" transform="matrix(1,0,0,1,362.4302109174354,6571.746361009996) translate(0 17.880208333333336)"/><use xlink:href="#R" transform="matrix(1,0,0,1,362.4302109174354,6571.746361009996) translate(58.77994791666667 17.880208333333336)"/></g><path d="M293.6 6630.22c27.6 0 50-22.3 50-49.98 0-27.56-22.4-49.97-50-49.97s-50 22.4-50 49.97c0 27.67 22.4 49.98 50 49.98z" stroke="#6c6e83" fill="#a2c6f6"/><path d="M293.6 6629.1c26.9 0 48.8-21.8 48.8-48.75 0-26.96-21.9-48.77-48.8-48.77-27 0-48.8 21.8-48.8 48.77 0 26.95 21.8 48.76 48.8 48.76z" stroke="#000" stroke-opacity="0" fill="#a2c6f6"/><path d="M314.5 6558.64c0-.2-.1-.4-.1-.6.2-.4.2-.82.2-1.22 0-1-.7-1.82-1.3-2.63-.7-1-1.4-2.02-2.2-2.83-.4-.4-.8-.8-1.2-1-.6-.3-1.1-.42-1.6-1.02-1-1.52-2.1-2.63-3.8-3.23-1.1-.4-2.3-.4-3.5-.3-.6-.7-1.7-1.12-2.8-1.12-.7-.1-1.5.2-2.3.1-.6-.1-1-.5-1.6-.6-1.2-.2-2.5.1-3.6.4-1.3.4-2.3 1-3.5 1.72-.7.4-1.4.2-2.2.3-.5 0-1 .2-1.5.4-1.8.8-2.9 2.43-3.4 4.25-1.2.1-2.2.6-3 1.4-1.4 1.42-1.4 3.04-1.3 4.86 0 .7 0 1.3-.2 1.9-.1.62-.3 1.13-.5 1.63-.3 1.1-.2 2.12 0 3.23l.9 5.75c-.4.9-.3 2.12.4 3.03.2.2.6.5.9.7.5.4 1 .9 1.4 1.52.5.8 1.1 1.6 1.8 2.32 3 2.93 7.3 3.84 11.4 3.53 2.5-.2 4.8-1 7.3-1.2 1.2-.1 2.4-.1 3.6-.3 1.1-.3 2.1-.72 3-1.22 3.6-1.72 6.9-4.85 7.3-9 0-.8 0-1.5.3-2.2.2-.5.5-1.02.7-1.52.3-1.1-.3-2.42 0-3.63.2-1.1.5-2.22.4-3.43z" stroke="#000" stroke-opacity="0" fill="#33261a"/><path d="M315.1 6610.74c-3.6-2.22-8.8-3.13-10.6-7.37-.9-2.33-.5-5.15-.5-7.58v-7.38c0-.3-.4-.4-.5-.1-1 1.42-4 1.32-5.5 1.42-1.7.1-3.5.2-5.3.2-3.1 0-6.7.3-9.5-1.2 0-.42-.1-.72-.1-1.12 0-.3-.6-.3-.6 0 0 .4.1.7.1 1.1-.1 0-.1.1-.1.1 0 .1.1.2.1.2.1 1.12.1 2.23.2 3.34.2 2.93.3 5.86.3 8.8.1.9.1 1.9.1 2.8-.9 1.93-2.3 3.75-3.9 5.26-1.3 1.2-2.7 2.32-4.2 3.23-1.1.8-2.5 1.32-3.3 2.53v.2c0 .1.1.1.1.2 3.4 1.62 6.9 3.13 10.5 4.55 3.3 1.2 7.1 2.92 10.8 2.52 1.6-.2 2.9-.9 4.3-1.72 1.7-1 3.4-1.9 5.1-2.82.8-.5 1.6-.9 2.4-1.3 3.3-.2 6.5-1.12 9.5-2.53.6-.3 1.7-.6 2.1-1.2.8-1.02-.8-1.73-1.5-2.13z" stroke="#000" stroke-opacity="0" fill="#b86554"/><path d="M307.9 6582.97c.2-.8.3-1.6.5-2.52 0-.2 0-.3.1-.5l.3-1.52c0-.3.1-.6.1-.9.1-.82.2-1.53.4-2.23l.3-2.32c.9-6.57 1.4-12.32 1.2-12.83-.8-2.22-2.3-3.23-4-4.54-.3-.3-.6-.5-.9-.7-.3-.2-.5-.4-.8-.6-1.7-1.52-4.2-1.92-6.4-2.02-5.2-.2-10.2 0-14.8 2.52-.7.3-1.3.7-1.9 1.2-.1.1-.3.2-.5.3-.6.62-1.2 1.23-1.7 2.03-.5.7-.8 1.52-.9 2.43-.2 1.2-.1 2.42-.4 3.73v.2c-.2 1-.2 3.73-.1 6.96V6573.98c.1.8.1 1.62.1 2.43.1.72.1 1.52.2 2.23v.6c.1.5.1.9.1 1.42.1.4.1.9.2 1.3.2 1.73.4 3.04.7 4.05.6 2.22 1.6 4.34 3 6.26 1.9 2.52 4.4 4.54 7.4 5.25 1.2.4 2.5.52 3.8.4.8-.1 1.6-.2 2.3-.4.5-.1 1-.2 1.5-.4 1.6-.4 3.1-1.2 4.4-2.22 1.8-1.4 3.2-3.33 4.1-5.55.6-1.5 1.2-3.84 1.7-6.36z" stroke="#000" stroke-opacity="0" fill="#b86554"/><path d="M312.4 6572.67c-.4-1.5-2.1-2.32-3.1-.8-.1.2.1.4.3.4-.8 1.4-1.3 3.03-1.8 4.64-.3 1.12-1.1 2.94-.8 4.15.5 2.12 3.3-.2 4-1 1.7-2.03 2-4.95 1.4-7.38zM275.9 6577.92c.5.9 3 3.54 3.8 1.52.4-1.2-.1-3.03-.3-4.24-.2-1.72.1-2.83-.5-4.35.2 0-.2-.6-.3-.9-.8-1.62-2.6-1-3.2.4-.9 2.42-1 5.35.5 7.57z" stroke="#000" stroke-opacity="0" fill="#b86554"/><path d="M302.9 6574.1c.1-.62.2-1.23.1-1.73 0-.3-.1-.6-.3-.8-.6-.6-1.3-.1-1.4.5-.3.8-.3 2.52.4 2.93.7.4 1-.1 1.2-.9zM286.7 6573.28c.1-.5.2-1.1.1-1.72 0-.3-.2-.5-.3-.7-.6-.6-1.3-.1-1.4.5-.3.8-.3 2.42.4 2.83.8.4 1.1-.1 1.2-.92z" stroke="#000" stroke-opacity="0" fill="#33261a"/><path d="M310.5 6573.48v-.1c0-.1 0-.1-.1-.2h-.2-.1c-.1 0-.1.1-.1.1-.1 0-.1.1-.1.1V6573.68l-.3 1.2c-.1.42-.5.92-.4 1.33 0 .2.1.3.2.4.2.4.3.72.3 1.12 0 .4-.4 1.72-1 1.4-.4-.1-.7.42-.3.52 1 .5 1.8-.9 1.9-1.82 0-.2 0-.5-.1-.7 0-.3-.4-.6-.4-.9-.1-.32.3-.92.4-1.23l.3-1.52zM278.4 6577.42c-1-.9-1.2-1.62-.4-2.22l.4-.4c.1-.2.1-.3.1-.5.1-1.02-.4-2.23-.7-3.24-.1-.3-.7-.2-.6.2.2.7.9 2.52.7 3.13-.2.6-.8.8-1 1.4-.2 1 .4 1.82 1.3 2.12.4.1.5-.4.2-.5zM299.9 6597.1c-.3-.5-1.4-.2-3.1.5-2.6.92-6.2.1-8.6-1-1.9-.9-3.9-2.62-5.4-4.34.2 3.03.3 5.96.3 8.9h.6c1.2 0 2.4.6 3.6.7 1 0 1.8-.5 2.7-.7 1.2-.42 2.4 0 3.7-.22.9-.1 1.8-.6 2.6-1.1 1-.6 4.2-1.32 3.6-2.73zM296.6 6579.84c-.2-1.5-.4-3.13-.7-4.64-.1-.4-.7-.3-.6 0 .4 2.02.7 4.14.9 6.16 0 .7.3 1.2-.6 1.6-.6.3-1.5.2-2.1.1-.8-.1-1.4-.1-2.2-.1-.4.1-.4.72 0 .62 1.4-.1 4.6.9 5.4-.7.4-.82 0-2.23-.1-3.04z" stroke="#000" stroke-opacity="0" fill="#9c4736"/><path d="M281.5 6568.03c.1.6.8.8 1.4.8 1.4.2 2.9 0 4.3 0 .8 0 2.6.3 3.3-.3 1.5-1.2-1.5-2.02-2.3-2.12-1.4-.2-2.8-.2-4.2.1-.5.1-2.7.92-2.5 1.53zM305.5 6567.52c-1.3-.3-2.8-.4-4.2-.3-.7.1-3.8.7-2.3 2.02.6.6 2.4.4 3.2.4 1.5.1 2.9.3 4.4.3.5 0 1.2-.2 1.4-.8.3-.6-1.9-1.52-2.5-1.62z" stroke="#000" stroke-opacity="0" fill="#33261a"/><path d="M291 6586.7c-.6-.1-1.3-.3-1.9-.6-.1 0-1-.2-1.1-.4.2.6.9 1.3 1.3 1.82.9 1.2 1.7 1.6 3.1 1.7 1.6.1 3.5-.1 4.9-1 0 0 1.6-1.1 1.8-2.22-.1.2-2 .6-2.9.8-.8.1-3.4.2-5.2-.1z" stroke="#000" stroke-opacity="0" fill="#9c4736"/><path d="M321.5 6616.3l-.3-4.15v-.1h-.1l-4.3-1.82c-1.4-.6-7.2-2.12-7.2-2.12s-13 11.12-14.5 11.42c-1.6.3-15.4-10.6-15.4-10.6s-5.7 1.82-7.3 2.93c-2.9 2.12-2.1 5.75-1.9 8.78 2.4 14.64 49.9 12.12 51-4.34z" stroke="#000" stroke-opacity="0" fill="#fff8f0"/><path d="M274.1 6626.7s.3 1.3.7-1.22c.7-4.95 2.2-15.65 2.1-15.65-.2 0-.4 0-.5.1h-.1c-4.9 1.1-9.6 4.54-14.3 6.56-3.5 1.4-1.3 1.6-1.3 1.6l13.4 8.6zM328.9 6613.87c-1.7-1.3-3.6-1.92-5.6-2.53-2.5-.7-4.5-.9-6.9-1.6-.6-.2-3.3-.72-3.3-.72 0 6.26-1.2 18.38 0 17.67 8.5-4.86 16.6-10.1 15.8-12.83z" stroke="#000" stroke-opacity="0" fill="#456664"/><path d="M283.7 6628c-.5-1-1-2.02-1.3-3.13l-.1-.1c-.1 0-.1 0-.1-.1h-.2c0 .1-.1.1-.1.1-1 1-1.9 1.92-2.8 3.03-.2.3.2.7.5.4.7-.9 1.5-1.8 2.4-2.62.3.9.7 1.82 1.2 2.73.2.3.7 0 .5-.3zM310 6620.73c-.5-.9-1-1.7-1.5-2.52-.2-.3-.4-.6-.8-.5-.5 0-1 .7-1.3 1-.6.62-1.2 1.33-1.7 2.03-.2.3.2.7.5.4.6-.9 1.3-1.7 2.1-2.52.4-.3.3-.3.7-.1.2.2.3.62.5.82.3.5.7 1.1 1 1.72.2.3.7 0 .5-.3zM300.3 6630.32c-.5-.9-.9-1.9-1.4-2.72-.2-.2-.4-.5-.8-.4-.4 0-.9.8-1.1 1.1l-2 2.43c-.3.3.2.7.4.4.8-1 1.5-2.22 2.5-3.03.2-.2.1-.3.5-.1.1 0 .3.6.4.8l1 1.83c.2.3.7 0 .5-.3zM282.6 6614.98c-.3-.7-.7-1.52-1.1-2.22-.2-.4-.6-1.22-1.1-1.22-.5-.1-1 .6-1.3.9-.7.62-1.4 1.33-2 2.13-.3.3.2.7.4.4.4-.5.7-.9 1.1-1.2.3-.4.9-1.1 1.3-1.32.7-.3.9.4 1.2.9.4.62.7 1.22.9 1.83.2.4.7.2.6-.2z" stroke="#000" stroke-opacity="0" fill="#aeb5c2"/><path d="M311.7 6559.85c-.3-.7-.9-1.3-1.4-2.02-.7-.7-1.3-1.52-2-2.12-1.4-1.4-2.9-2.5-4.7-3.32-3.6-1.52-7.7-1.32-11.4-.6-2.1.5-4.2 1.1-6.3 1.8-1.7.6-3.5 1.12-4.9 2.23-3.5 3.04-2.5 8.2-3.4 12.13v.1h.1c.3 1.1.4 2.22.8 3.23.1.4.4.8.8.7.6-.3.6-1.5.7-2 .1-1.13 0-2.23.3-3.35.4-1 .4-1.9.6-2.9.2-1.33.7-2.23 1.5-3.24 1.3-1.52 2.4-3.24 3.1-5.15.4.1.7.1 1.1.1.9 0 1.8 0 2.6.1 1.8 0 3.7.1 5.5.1 3.6.2 7.1.6 10.7 1.02h.1c2.4 1.1 2.1 4.85 2.4 7.07.2 1.5.4 3.02.8 4.53.1.8 0 1.62 0 2.42-.1.7-.3 1.42-.4 2.12 0 .3 0 .6.3.7.5.5.8-.3.9-.7.2-.5.4-1.1.6-1.7.3-.52.5-1.12.6-1.73.2-1.1.3-2.22.5-3.33.2-1 .3-2.1.5-3.12.1-1 .3-2.02 0-3.03z" stroke="#000" stroke-opacity="0" fill="#33261a"/><path d="M293.6 6630.22c27.6 0 50-22.3 50-49.98 0-27.56-22.4-49.97-50-49.97s-50 22.4-50 49.97c0 27.67 22.4 49.98 50 49.98z" stroke="#6c6e83" fill-opacity="0"/><path d="M1090.66 6562.56a6 6 0 0 1 6-6H1574a6 6 0 0 1 6 6v38.3a6 6 0 0 1-6 6h-477.34a6 6 0 0 1-6-6z" stroke="#6c6e83" fill="#fff"/><path d="M1122 6570.2h436.4v21.7H1122z" fill="none"/><g><use xlink:href="#S" transform="matrix(1,0,0,1,1122,6570.213623419051) translate(0 17.380208333333336)"/><use xlink:href="#s" transform="matrix(1,0,0,1,1122,6570.213623419051) translate(71.88671875 17.380208333333336)"/><use xlink:href="#T" transform="matrix(1,0,0,1,1122,6570.213623419051) translate(152.81510416666669 17.380208333333336)"/><use xlink:href="#x" transform="matrix(1,0,0,1,1122,6570.213623419051) translate(216.27083333333337 17.380208333333336)"/><use xlink:href="#z" transform="matrix(1,0,0,1,1122,6570.213623419051) translate(237.45312500000003 17.380208333333336)"/><use xlink:href="#U" transform="matrix(1,0,0,1,1122,6570.213623419051) translate(303.11458333333337 17.380208333333336)"/><use xlink:href="#B" transform="matrix(1,0,0,1,1122,6570.213623419051) translate(322.5651041666667 17.380208333333336)"/><use xlink:href="#C" transform="matrix(1,0,0,1,1122,6570.213623419051) translate(381.34505208333337 17.380208333333336)"/></g><path d="M1059.9 6606.1v-47.08M1059.9 6606.1v.76M1059.9 6559.04v-.77" stroke="#6c6e83" stroke-width="1.5" fill="none"/><path d="M1222.67 6772.38a6 6 0 0 1 6-6h104.56a6 6 0 0 1 6 6v38.3a6 6 0 0 1-6 6h-104.56a6 6 0 0 1-6-6z" stroke="#6c6e83" fill="#fff"/><path d="M1237.64 6780.03H1332v23h-94.36z" fill="none"/><g><use xlink:href="#V" transform="matrix(1,0,0,1,1237.6422545326648,6780.03202878703) translate(0 17.880208333333336)"/></g><defs><path fill="#172b4d" d="M973-380H363L226 0H28l556-1456h168L1309 0h-197zM421-538h495l-248-681" id="W"/><path fill="#172b4d" d="M520 20C244 20 95-247 95-550c0-298 151-550 427-552 127 0 227 43 301 130v-564h185V0H838l-9-116C755-25 652 20 520 20zm48-965c-210 0-288 177-288 416 0 218 87 392 286 392 117 0 203-53 257-158v-497c-55-102-140-153-255-153" id="X"/><g id="a"><use transform="matrix(0.009114583333333334,0,0,0.009114583333333334,0,0)" xlink:href="#W"/><use transform="matrix(0.009114583333333334,0,0,0.009114583333333334,12.177083333333334,0)" xlink:href="#X"/><use transform="matrix(0.009114583333333334,0,0,0.009114583333333334,22.704427083333336,0)" xlink:href="#X"/></g><path fill="#172b4d" d="M561-1102c238-4 403 126 403 351v498c0 99 13 178 38 237V0H808c-11-21-19-59-26-114C696-25 593 20 474 20c-199 0-368-130-365-320 4-251 214-359 490-356h180v-85c-1-135-86-212-229-212-115 0-232 67-233 171H131c20-205 206-316 430-320zM294-326c0 117 90 185 207 185 122 0 239-75 278-162v-222H634c-227 0-340 66-340 199" id="Y"/><path fill="#172b4d" d="M589-945c-131 0-219 81-264 174V0H140v-1082h175l6 136c83-104 191-156 324-156 229 0 346 129 346 387V0H806v-716c-2-153-65-229-217-229" id="Z"/><g id="b"><use transform="matrix(0.009114583333333334,0,0,0.009114583333333334,0,0)" xlink:href="#Y"/><use transform="matrix(0.009114583333333334,0,0,0.009114583333333334,10.153645833333334,0)" xlink:href="#Z"/><use transform="matrix(0.009114583333333334,0,0,0.009114583333333334,20.453125,0)" xlink:href="#X"/></g><path fill="#172b4d" d="M1240-945c-141 0-250 95-250 227V0H804v-709c0-157-77-236-231-236-121 0-204 52-249 155V0H139v-1082h175l5 120c79-93 186-140 321-140 151 0 254 58 309 174 69-98 181-174 345-174 237 0 362 126 362 377V0h-185v-714c-2-159-67-231-231-231" id="aa"/><path fill="#172b4d" d="M521 20C240 20 96-239 96-550c0-303 147-552 427-552 132 0 235 47 309 140l9-120h169V-26c4 277-183 454-459 452-165-1-334-81-400-187l96-111c79 98 176 147 291 147 180 1 288-109 286-290v-93C750-23 649 20 521 20zm48-965c-209 0-287 178-287 416 0 217 86 392 285 392 117 0 202-53 257-159v-494c-57-103-142-155-255-155" id="ab"/><path fill="#172b4d" d="M599-131c141 0 220-65 285-146l113 88C906-50 770 20 589 20 281 21 93-214 93-545c0-223 93-397 233-485 74-48 154-72 240-72 300 2 449 218 445 537v77H278c0 197 129 357 321 357zm227-509c-3-180-88-310-260-310-170 0-264 140-282 310h542" id="ac"/><g id="c"><use transform="matrix(0.009114583333333334,0,0,0.009114583333333334,0,0)" xlink:href="#aa"/><use transform="matrix(0.009114583333333334,0,0,0.009114583333333334,16.360677083333336,0)" xlink:href="#Y"/><use transform="matrix(0.009114583333333334,0,0,0.009114583333333334,26.51432291666667,0)" xlink:href="#Z"/><use transform="matrix(0.009114583333333334,0,0,0.009114583333333334,36.81380208333334,0)" xlink:href="#Y"/><use transform="matrix(0.009114583333333334,0,0,0.009114583333333334,46.96744791666668,0)" xlink:href="#ab"/><use transform="matrix(0.009114583333333334,0,0,0.009114583333333334,57.44010416666668,0)" xlink:href="#ac"/></g><path fill="#172b4d" d="M631-137c179 0 314-70 314-231 0-71-25-127-75-166s-141-77-272-115c-165-47-285-106-360-175s-112-154-112-255c0-245 231-397 495-397 206 0 369 89 449 218 43 68 65 142 65 223H942c0-184-129-283-321-283-172 0-299 76-301 236 0 59 26 109 76 150s135 78 256 113c205 59 345 116 436 256 35 53 50 119 50 193-2 256-231 398-507 390C333 12 90-129 80-422h193c0 187 160 285 358 285" id="ad"/><path fill="#172b4d" d="M704-1390c-164-38-297 28-288 194v114h231v143H416V0H231v-939H60v-143h171v-111c-12-274 208-416 483-347" id="ae"/><path fill="#172b4d" d="M538-131c121 0 232-49 232-156 0-50-20-88-56-117-73-60-334-92-420-143-92-55-162-110-162-238 0-190 192-317 400-317 223 0 414 129 413 338H759c0-108-110-186-227-186-119 0-215 53-215 159 0 45 18 78 53 101 76 52 331 90 416 139 98 57 169 115 169 251C955-92 760 20 538 20c-176 0-314-68-386-174-38-55-57-115-57-179h185c6 129 116 202 258 202" id="af"/><g id="d"><use transform="matrix(0.009114583333333334,0,0,0.009114583333333334,0,0)" xlink:href="#ad"/><use transform="matrix(0.009114583333333334,0,0,0.009114583333333334,11.07421875,0)" xlink:href="#Y"/><use transform="matrix(0.009114583333333334,0,0,0.009114583333333334,21.227864583333336,0)" xlink:href="#ae"/><use transform="matrix(0.009114583333333334,0,0,0.009114583333333334,27.489583333333336,0)" xlink:href="#ac"/><use transform="matrix(0.009114583333333334,0,0,0.009114583333333334,37.37890625,0)" xlink:href="#af"/></g><path fill="#172b4d" d="M277-555c0 244 77 420 297 424 127 2 249-93 255-210h175C980-127 805 20 574 20 258 20 81-222 92-562c11-319 164-533 481-540 237-5 426 165 431 392H829c-7-133-115-242-256-240-209 4-296 166-296 395" id="ag"/><path fill="#172b4d" d="M584 20C278 26 81-227 91-551c10-320 175-545 491-551 308-5 503 247 494 573-9 322-175 543-492 549zm-2-970c-208 0-305 185-305 421 0 216 106 398 307 398 211 0 307-186 307-420 0-214-109-399-309-399" id="ah"/><path fill="#172b4d" d="M491 20c-241-1-355-148-355-398v-704h185v699c0 164 67 246 200 246 141 0 235-53 282-158v-787h185V0H812l-4-107C736-22 630 20 491 20" id="ai"/><path fill="#172b4d" d="M456 20C285 20 205-92 206-268v-671H9v-143h197v-262h185v262h202v143H391v671c-9 125 92 149 207 118V0c-49 13-96 20-142 20" id="aj"/><g id="e"><use transform="matrix(0.009114583333333334,0,0,0.009114583333333334,0,0)" xlink:href="#Y"/><use transform="matrix(0.009114583333333334,0,0,0.009114583333333334,10.153645833333334,0)" xlink:href="#ag"/><use transform="matrix(0.009114583333333334,0,0,0.009114583333333334,19.924479166666668,0)" xlink:href="#ag"/><use transform="matrix(0.009114583333333334,0,0,0.009114583333333334,29.695312500000004,0)" xlink:href="#ah"/><use transform="matrix(0.009114583333333334,0,0,0.009114583333333334,40.341145833333336,0)" xlink:href="#ai"/><use transform="matrix(0.009114583333333334,0,0,0.009114583333333334,50.63151041666667,0)" xlink:href="#Z"/><use transform="matrix(0.009114583333333334,0,0,0.009114583333333334,60.93098958333334,0)" xlink:href="#aj"/><use transform="matrix(0.009114583333333334,0,0,0.009114583333333334,67.02864583333334,0)" xlink:href="#af"/></g><path fill="#172b4d" d="M341 0H156v-1082h185V0zm-91-1264c-68 0-108-42-109-105 0-62 41-107 109-107s110 44 110 107-42 105-110 105" id="ak"/><g id="f"><use transform="matrix(0.009114583333333334,0,0,0.009114583333333334,0,0)" xlink:href="#ak"/><use transform="matrix(0.009114583333333334,0,0,0.009114583333333334,4.529947916666667,0)" xlink:href="#Z"/></g><path fill="#172b4d" d="M1216-1011c-1 297-202 441-512 441H361V0H169v-1456h537c297-6 510 164 510 445zm-192 2c1-178-126-288-307-289H361v571h345c196 1 318-92 318-282" id="al"/><path fill="#172b4d" d="M417-1456L893-268l476-1188h249V0h-192c-4-403 4-794 18-1179L966 0H819L342-1176c15 384 23 773 19 1176H169v-1456h248" id="am"/><g id="g"><use transform="matrix(0.009114583333333334,0,0,0.009114583333333334,0,0)" xlink:href="#al"/><use transform="matrix(0.009114583333333334,0,0,0.009114583333333334,10.518229166666668,0)" xlink:href="#W"/><use transform="matrix(0.009114583333333334,0,0,0.009114583333333334,22.6953125,0)" xlink:href="#am"/></g><path fill="#172b4d" d="M341 0H156v-1536h185V0" id="an"/><g id="h"><use transform="matrix(0.009114583333333334,0,0,0.009114583333333334,0,0)" xlink:href="#af"/><use transform="matrix(0.009114583333333334,0,0,0.009114583333333334,9.625,0)" xlink:href="#ah"/><use transform="matrix(0.009114583333333334,0,0,0.009114583333333334,20.270833333333336,0)" xlink:href="#an"/><use transform="matrix(0.009114583333333334,0,0,0.009114583333333334,24.80078125,0)" xlink:href="#ai"/><use transform="matrix(0.009114583333333334,0,0,0.009114583333333334,35.091145833333336,0)" xlink:href="#aj"/><use transform="matrix(0.009114583333333334,0,0,0.009114583333333334,41.188802083333336,0)" xlink:href="#ak"/><use transform="matrix(0.009114583333333334,0,0,0.009114583333333334,45.71875,0)" xlink:href="#ah"/><use transform="matrix(0.009114583333333334,0,0,0.009114583333333334,56.364583333333336,0)" xlink:href="#Z"/></g><path fill="#172b4d" d="M494-271l252-811h198L509 167C425 381 299 474 84 421V271c167 16 242-37 283-173l41-110L22-1082h202" id="ao"/><g id="i"><use transform="matrix(0.009114583333333334,0,0,0.009114583333333334,0,0)" xlink:href="#ad"/><use transform="matrix(0.009114583333333334,0,0,0.009114583333333334,11.07421875,0)" xlink:href="#ao"/><use transform="matrix(0.009114583333333334,0,0,0.009114583333333334,19.90625,0)" xlink:href="#Z"/><use transform="matrix(0.009114583333333334,0,0,0.009114583333333334,30.205729166666668,0)" xlink:href="#ag"/></g><g id="j"><use transform="matrix(0.009114583333333334,0,0,0.009114583333333334,0,0)" xlink:href="#ad"/><use transform="matrix(0.009114583333333334,0,0,0.009114583333333334,11.07421875,0)" xlink:href="#Y"/><use transform="matrix(0.009114583333333334,0,0,0.009114583333333334,21.227864583333336,0)" xlink:href="#ae"/><use transform="matrix(0.009114583333333334,0,0,0.009114583333333334,27.489583333333336,0)" xlink:href="#ac"/></g><path fill="#172b4d" d="M663-916c-163-27-288 18-338 148V0H140v-1082h180l3 125c61-97 147-145 258-145 36 0 63 5 82 14v172" id="ap"/><g id="k"><use transform="matrix(0.009114583333333334,0,0,0.009114583333333334,0,0)" xlink:href="#ae"/><use transform="matrix(0.009114583333333334,0,0,0.009114583333333334,6.48046875,0)" xlink:href="#ap"/><use transform="matrix(0.009114583333333334,0,0,0.009114583333333334,12.614583333333332,0)" xlink:href="#ah"/><use transform="matrix(0.009114583333333334,0,0,0.009114583333333334,23.260416666666664,0)" xlink:href="#aa"/></g><g id="l"><use transform="matrix(0.009114583333333334,0,0,0.009114583333333334,0,0)" xlink:href="#af"/><use transform="matrix(0.009114583333333334,0,0,0.009114583333333334,9.625,0)" xlink:href="#ah"/><use transform="matrix(0.009114583333333334,0,0,0.009114583333333334,20.270833333333336,0)" xlink:href="#an"/><use transform="matrix(0.009114583333333334,0,0,0.009114583333333334,24.80078125,0)" xlink:href="#ai"/><use transform="matrix(0.009114583333333334,0,0,0.009114583333333334,35.091145833333336,0)" xlink:href="#aj"/><use transform="matrix(0.009114583333333334,0,0,0.009114583333333334,41.188802083333336,0)" xlink:href="#ak"/><use transform="matrix(0.009114583333333334,0,0,0.009114583333333334,45.71875,0)" xlink:href="#ah"/><use transform="matrix(0.009114583333333334,0,0,0.009114583333333334,56.364583333333336,0)" xlink:href="#Z"/></g><g id="m"><use transform="matrix(0.009114583333333334,0,0,0.009114583333333334,0,0)" xlink:href="#aj"/><use transform="matrix(0.009114583333333334,0,0,0.009114583333333334,5.915364583333333,0)" xlink:href="#ah"/></g><path fill="#172b4d" d="M688-137c238 0 323-102 359-325h193c-32 297-228 482-552 482-361 0-569-299-569-680 0-197 8-360 73-497 88-186 257-317 513-319 316-2 509 195 535 488h-193c-31-212-118-330-342-330-272 0-397 224-393 523v141c-3 282 115 517 376 517" id="aq"/><path fill="#172b4d" d="M19 279c92 0 127-48 127-150v-1211h185V125c0 208-94 312-283 312-41 0-78-6-113-18V271c21 5 49 8 84 8zm216-1543c-68 0-107-42-108-105 0-61 42-107 108-107 68 0 110 44 110 107s-42 105-110 105" id="ar"/><g id="n"><use transform="matrix(0.009114583333333334,0,0,0.009114583333333334,0,0)" xlink:href="#aq"/><use transform="matrix(0.009114583333333334,0,0,0.009114583333333334,12.149739583333334,0)" xlink:href="#ah"/><use transform="matrix(0.009114583333333334,0,0,0.009114583333333334,22.795572916666668,0)" xlink:href="#Z"/><use transform="matrix(0.009114583333333334,0,0,0.009114583333333334,33.095052083333336,0)" xlink:href="#ar"/><use transform="matrix(0.009114583333333334,0,0,0.009114583333333334,37.552083333333336,0)" xlink:href="#ai"/><use transform="matrix(0.009114583333333334,0,0,0.009114583333333334,47.84244791666667,0)" xlink:href="#ap"/></g><g id="o"><use transform="matrix(0.009114583333333334,0,0,0.009114583333333334,0,0)" xlink:href="#aq"/><use transform="matrix(0.009114583333333334,0,0,0.009114583333333334,12.149739583333334,0)" xlink:href="#an"/><use transform="matrix(0.009114583333333334,0,0,0.009114583333333334,16.6796875,0)" xlink:href="#ah"/><use transform="matrix(0.009114583333333334,0,0,0.009114583333333334,27.325520833333336,0)" xlink:href="#ai"/><use transform="matrix(0.009114583333333334,0,0,0.009114583333333334,37.61588541666667,0)" xlink:href="#X"/></g><g id="p"><use transform="matrix(0.00911458333333333,0,0,0.00911458333333333,0,0)" xlink:href="#ad"/><use transform="matrix(0.00911458333333333,0,0,0.00911458333333333,11.074218749999996,0)" xlink:href="#Y"/><use transform="matrix(0.00911458333333333,0,0,0.00911458333333333,21.227864583333325,0)" xlink:href="#ae"/><use transform="matrix(0.00911458333333333,0,0,0.00911458333333333,27.48958333333333,0)" xlink:href="#ac"/></g><g id="q"><use transform="matrix(0.00911458333333333,0,0,0.00911458333333333,0,0)" xlink:href="#aa"/><use transform="matrix(0.00911458333333333,0,0,0.00911458333333333,16.36067708333333,0)" xlink:href="#Y"/><use transform="matrix(0.00911458333333333,0,0,0.00911458333333333,26.514322916666657,0)" xlink:href="#Z"/><use transform="matrix(0.00911458333333333,0,0,0.00911458333333333,36.81380208333332,0)" xlink:href="#Y"/><use transform="matrix(0.00911458333333333,0,0,0.00911458333333333,46.96744791666665,0)" xlink:href="#ab"/><use transform="matrix(0.00911458333333333,0,0,0.00911458333333333,57.44010416666664,0)" xlink:href="#ac"/><use transform="matrix(0.00911458333333333,0,0,0.00911458333333333,67.32942708333331,0)" xlink:href="#ap"/></g><path fill="#172b4d" d="M1222-777c17 480-206 763-650 777H169v-1456h411c408 9 627 269 642 679zm-190 4c3-312-149-522-447-525H361v1141h202c308 0 473-209 469-531v-85" id="as"/><g id="r"><use transform="matrix(0.009114583333333334,0,0,0.009114583333333334,0,0)" xlink:href="#as"/><use transform="matrix(0.009114583333333334,0,0,0.009114583333333334,12.240885416666668,0)" xlink:href="#ac"/><use transform="matrix(0.009114583333333334,0,0,0.009114583333333334,22.130208333333336,0)" xlink:href="#ae"/><use transform="matrix(0.009114583333333334,0,0,0.009114583333333334,28.610677083333336,0)" xlink:href="#ak"/><use transform="matrix(0.009114583333333334,0,0,0.009114583333333334,33.140625,0)" xlink:href="#Z"/><use transform="matrix(0.009114583333333334,0,0,0.009114583333333334,43.44010416666667,0)" xlink:href="#ac"/></g><path fill="#172b4d" d="M1098-255l208-827h185L1176 0h-150L763-820 507 0H357L43-1082h184l213 810 252-810h149" id="at"/><path fill="#172b4d" d="M442-501L326-380V0H141v-1536h185v929c135-169 291-317 436-475h225L566-630 1036 0H819" id="au"/><g id="s"><use transform="matrix(0.009114583333333334,0,0,0.009114583333333334,0,0)" xlink:href="#at"/><use transform="matrix(0.009114583333333334,0,0,0.009114583333333334,14.027343750000002,0)" xlink:href="#ah"/><use transform="matrix(0.009114583333333334,0,0,0.009114583333333334,24.673177083333336,0)" xlink:href="#ap"/><use transform="matrix(0.009114583333333334,0,0,0.009114583333333334,30.989583333333336,0)" xlink:href="#au"/><use transform="matrix(0.009114583333333334,0,0,0.009114583333333334,40.450520833333336,0)" xlink:href="#an"/><use transform="matrix(0.009114583333333334,0,0,0.009114583333333334,44.98046875,0)" xlink:href="#ah"/><use transform="matrix(0.009114583333333334,0,0,0.009114583333333334,55.626302083333336,0)" xlink:href="#Y"/><use transform="matrix(0.009114583333333334,0,0,0.009114583333333334,65.77994791666667,0)" xlink:href="#X"/></g><g id="t"><use transform="matrix(0.009114583333333334,0,0,0.009114583333333334,0,0)" xlink:href="#ak"/><use transform="matrix(0.009114583333333334,0,0,0.009114583333333334,4.529947916666667,0)" xlink:href="#X"/><use transform="matrix(0.009114583333333334,0,0,0.009114583333333334,15.057291666666668,0)" xlink:href="#ac"/><use transform="matrix(0.009114583333333334,0,0,0.009114583333333334,24.946614583333336,0)" xlink:href="#Z"/><use transform="matrix(0.009114583333333334,0,0,0.009114583333333334,35.24609375,0)" xlink:href="#aj"/><use transform="matrix(0.009114583333333334,0,0,0.009114583333333334,41.34375,0)" xlink:href="#ak"/><use transform="matrix(0.009114583333333334,0,0,0.009114583333333334,45.873697916666664,0)" xlink:href="#aj"/><use transform="matrix(0.009114583333333334,0,0,0.009114583333333334,51.971354166666664,0)" xlink:href="#ak"/><use transform="matrix(0.009114583333333334,0,0,0.009114583333333334,56.50130208333333,0)" xlink:href="#ac"/><use transform="matrix(0.009114583333333334,0,0,0.009114583333333334,66.390625,0)" xlink:href="#af"/></g><g id="u"><use transform="matrix(0.009114583333333334,0,0,0.009114583333333334,0,0)" xlink:href="#ad"/><use transform="matrix(0.009114583333333334,0,0,0.009114583333333334,11.07421875,0)" xlink:href="#ac"/><use transform="matrix(0.009114583333333334,0,0,0.009114583333333334,20.963541666666668,0)" xlink:href="#aj"/></g><path fill="#172b4d" d="M632-1102c291 0 422 251 422 573 0 297-141 548-419 549-131 0-235-42-310-125v521H140v-1498h169l9 120c75-93 180-140 314-140zm-53 971c207 0 290-180 290-419 0-218-92-395-292-395-112 0-196 50-252 149v517c55 99 140 148 254 148" id="av"/><g id="v"><use transform="matrix(0.009114583333333334,0,0,0.009114583333333334,0,0)" xlink:href="#ai"/><use transform="matrix(0.009114583333333334,0,0,0.009114583333333334,10.290364583333334,0)" xlink:href="#av"/></g><g id="w"><use transform="matrix(0.009114583333333334,0,0,0.009114583333333334,0,0)" xlink:href="#at"/><use transform="matrix(0.009114583333333334,0,0,0.009114583333333334,14.027343750000002,0)" xlink:href="#ah"/><use transform="matrix(0.009114583333333334,0,0,0.009114583333333334,24.673177083333336,0)" xlink:href="#ap"/><use transform="matrix(0.009114583333333334,0,0,0.009114583333333334,30.989583333333336,0)" xlink:href="#au"/><use transform="matrix(0.009114583333333334,0,0,0.009114583333333334,40.450520833333336,0)" xlink:href="#an"/><use transform="matrix(0.009114583333333334,0,0,0.009114583333333334,44.98046875,0)" xlink:href="#ah"/><use transform="matrix(0.009114583333333334,0,0,0.009114583333333334,55.626302083333336,0)" xlink:href="#Y"/><use transform="matrix(0.009114583333333334,0,0,0.009114583333333334,65.77994791666667,0)" xlink:href="#X"/><use transform="matrix(0.009114583333333334,0,0,0.009114583333333334,76.30729166666667,0)" xlink:href="#af"/></g><g id="x"><use transform="matrix(0.009114583333333334,0,0,0.009114583333333334,0,0)" xlink:href="#aj"/><use transform="matrix(0.009114583333333334,0,0,0.009114583333333334,5.915364583333333,0)" xlink:href="#ah"/></g><path fill="#172b4d" d="M589-945c-131 0-219 81-264 174V0H140v-1536h185v585c82-101 189-151 320-151 229 0 346 129 346 387V0H806v-716c-2-153-65-229-217-229" id="aw"/><g id="y"><use transform="matrix(0.009114583333333334,0,0,0.009114583333333334,0,0)" xlink:href="#ae"/><use transform="matrix(0.009114583333333334,0,0,0.009114583333333334,6.26171875,0)" xlink:href="#ac"/><use transform="matrix(0.009114583333333334,0,0,0.009114583333333334,16.151041666666668,0)" xlink:href="#aj"/><use transform="matrix(0.009114583333333334,0,0,0.009114583333333334,22.248697916666668,0)" xlink:href="#ag"/><use transform="matrix(0.009114583333333334,0,0,0.009114583333333334,32.01953125,0)" xlink:href="#aw"/></g><g id="z"><use transform="matrix(0.009114583333333334,0,0,0.009114583333333334,0,0)" xlink:href="#af"/><use transform="matrix(0.009114583333333334,0,0,0.009114583333333334,9.625,0)" xlink:href="#ac"/><use transform="matrix(0.009114583333333334,0,0,0.009114583333333334,19.514322916666668,0)" xlink:href="#ag"/><use transform="matrix(0.009114583333333334,0,0,0.009114583333333334,29.285156250000004,0)" xlink:href="#ap"/><use transform="matrix(0.009114583333333334,0,0,0.009114583333333334,35.42838541666667,0)" xlink:href="#ac"/><use transform="matrix(0.009114583333333334,0,0,0.009114583333333334,45.31770833333334,0)" xlink:href="#aj"/><use transform="matrix(0.009114583333333334,0,0,0.009114583333333334,51.41536458333334,0)" xlink:href="#af"/></g><g id="A"><use transform="matrix(0.009114583333333334,0,0,0.009114583333333334,0,0)" xlink:href="#ae"/><use transform="matrix(0.009114583333333334,0,0,0.009114583333333334,6.48046875,0)" xlink:href="#ap"/><use transform="matrix(0.009114583333333334,0,0,0.009114583333333334,12.614583333333332,0)" xlink:href="#ah"/><use transform="matrix(0.009114583333333334,0,0,0.009114583333333334,23.260416666666664,0)" xlink:href="#aa"/></g><g id="B"><use transform="matrix(0.009114583333333334,0,0,0.009114583333333334,0,0)" xlink:href="#aq"/><use transform="matrix(0.009114583333333334,0,0,0.009114583333333334,12.149739583333334,0)" xlink:href="#ah"/><use transform="matrix(0.009114583333333334,0,0,0.009114583333333334,22.795572916666668,0)" xlink:href="#Z"/><use transform="matrix(0.009114583333333334,0,0,0.009114583333333334,33.095052083333336,0)" xlink:href="#ar"/><use transform="matrix(0.009114583333333334,0,0,0.009114583333333334,37.552083333333336,0)" xlink:href="#ai"/><use transform="matrix(0.009114583333333334,0,0,0.009114583333333334,47.84244791666667,0)" xlink:href="#ap"/></g><g id="C"><use transform="matrix(0.009114583333333334,0,0,0.009114583333333334,0,0)" xlink:href="#aq"/><use transform="matrix(0.009114583333333334,0,0,0.009114583333333334,12.149739583333334,0)" xlink:href="#an"/><use transform="matrix(0.009114583333333334,0,0,0.009114583333333334,16.6796875,0)" xlink:href="#ah"/><use transform="matrix(0.009114583333333334,0,0,0.009114583333333334,27.325520833333336,0)" xlink:href="#ai"/><use transform="matrix(0.009114583333333334,0,0,0.009114583333333334,37.61588541666667,0)" xlink:href="#X"/></g><path fill="#172b4d" d="M497-251l268-831h189L566 0H425L33-1082h189" id="ax"/><path fill="#172b4d" d="M177 125H18l608-1581h158" id="ay"/><path fill="#172b4d" d="M703-1476c426 0 599 333 586 795-11 408-187 701-584 701-422 0-587-333-587-793 0-282 106-507 280-617 89-56 190-86 305-86zm2 1333c312 0 393-279 393-632 0-308-116-536-395-536-269 0-394 232-394 523v107c-4 298 123 538 396 538" id="az"/><g id="D"><use transform="matrix(0.00911458333333333,0,0,0.00911458333333333,0,0)" xlink:href="#as"/><use transform="matrix(0.00911458333333333,0,0,0.00911458333333333,12.240885416666663,0)" xlink:href="#ac"/><use transform="matrix(0.00911458333333333,0,0,0.00911458333333333,22.011718749999993,0)" xlink:href="#ax"/><use transform="matrix(0.00911458333333333,0,0,0.00911458333333333,30.934895833333325,0)" xlink:href="#ac"/><use transform="matrix(0.00911458333333333,0,0,0.00911458333333333,40.824218749999986,0)" xlink:href="#an"/><use transform="matrix(0.00911458333333333,0,0,0.00911458333333333,45.35416666666665,0)" xlink:href="#ah"/><use transform="matrix(0.00911458333333333,0,0,0.00911458333333333,55.999999999999986,0)" xlink:href="#av"/><use transform="matrix(0.00911458333333333,0,0,0.00911458333333333,66.47265624999997,0)" xlink:href="#ac"/><use transform="matrix(0.00911458333333333,0,0,0.00911458333333333,76.36197916666663,0)" xlink:href="#ap"/><use transform="matrix(0.00911458333333333,0,0,0.00911458333333333,82.67838541666663,0)" xlink:href="#ay"/><use transform="matrix(0.00911458333333333,0,0,0.00911458333333333,90.37109374999996,0)" xlink:href="#as"/><use transform="matrix(0.00911458333333333,0,0,0.00911458333333333,102.61197916666661,0)" xlink:href="#ac"/><use transform="matrix(0.00911458333333333,0,0,0.00911458333333333,112.38281249999994,0)" xlink:href="#ax"/><use transform="matrix(0.00911458333333333,0,0,0.00911458333333333,121.4244791666666,0)" xlink:href="#ad"/><use transform="matrix(0.00911458333333333,0,0,0.00911458333333333,132.4986979166666,0)" xlink:href="#ac"/><use transform="matrix(0.00911458333333333,0,0,0.00911458333333333,142.38802083333326,0)" xlink:href="#ag"/><use transform="matrix(0.00911458333333333,0,0,0.00911458333333333,152.15885416666657,0)" xlink:href="#az"/><use transform="matrix(0.00911458333333333,0,0,0.00911458333333333,164.99218749999994,0)" xlink:href="#av"/><use transform="matrix(0.00911458333333333,0,0,0.00911458333333333,175.46484374999994,0)" xlink:href="#af"/></g><path fill="#172b4d" d="M651-255l416-1201h210L737 0H567L28-1456h209" id="aA"/><g id="E"><use transform="matrix(0.009114583333333334,0,0,0.009114583333333334,0,0)" xlink:href="#aA"/><use transform="matrix(0.009114583333333334,0,0,0.009114583333333334,11.876302083333334,0)" xlink:href="#ak"/><use transform="matrix(0.009114583333333334,0,0,0.009114583333333334,16.40625,0)" xlink:href="#ac"/><use transform="matrix(0.009114583333333334,0,0,0.009114583333333334,26.295572916666668,0)" xlink:href="#at"/></g><g id="F"><use transform="matrix(0.009114583333333334,0,0,0.009114583333333334,0,0)" xlink:href="#Y"/><use transform="matrix(0.009114583333333334,0,0,0.009114583333333334,10.153645833333334,0)" xlink:href="#ai"/><use transform="matrix(0.009114583333333334,0,0,0.009114583333333334,20.444010416666668,0)" xlink:href="#X"/><use transform="matrix(0.009114583333333334,0,0,0.009114583333333334,30.971354166666668,0)" xlink:href="#ak"/><use transform="matrix(0.009114583333333334,0,0,0.009114583333333334,35.501302083333336,0)" xlink:href="#aj"/></g><g id="G"><use transform="matrix(0.009114583333333334,0,0,0.009114583333333334,0,0)" xlink:href="#an"/><use transform="matrix(0.009114583333333334,0,0,0.009114583333333334,4.529947916666667,0)" xlink:href="#ah"/><use transform="matrix(0.009114583333333334,0,0,0.009114583333333334,15.175781250000002,0)" xlink:href="#ab"/><use transform="matrix(0.009114583333333334,0,0,0.009114583333333334,25.6484375,0)" xlink:href="#af"/></g><g id="H"><use transform="matrix(0.008680555555555556,0,0,0.008680555555555556,0,0)" xlink:href="#W"/><use transform="matrix(0.008680555555555556,0,0,0.008680555555555556,11.597222222222223,0)" xlink:href="#ai"/><use transform="matrix(0.008680555555555556,0,0,0.008680555555555556,21.397569444444446,0)" xlink:href="#X"/><use transform="matrix(0.008680555555555556,0,0,0.008680555555555556,31.423611111111114,0)" xlink:href="#ak"/><use transform="matrix(0.008680555555555556,0,0,0.008680555555555556,35.73784722222223,0)" xlink:href="#aj"/><use transform="matrix(0.008680555555555556,0,0,0.008680555555555556,41.37152777777778,0)" xlink:href="#ah"/><use transform="matrix(0.008680555555555556,0,0,0.008680555555555556,51.51041666666667,0)" xlink:href="#ap"/></g><path fill="#172b4d" d="M319-664C304-226 428 158 661 357l-38 113c-89-49-172-133-254-248C142-97 71-578 194-1025c67-244 240-513 429-618l38 122c-201 153-330 502-342 857" id="aB"/><g id="I"><use transform="matrix(0.008680555555555556,0,0,0.008680555555555556,0,0)" xlink:href="#aB"/><use transform="matrix(0.008680555555555556,0,0,0.008680555555555556,6.076388888888889,0)" xlink:href="#aq"/><use transform="matrix(0.008680555555555556,0,0,0.008680555555555556,17.647569444444443,0)" xlink:href="#ah"/><use transform="matrix(0.008680555555555556,0,0,0.008680555555555556,27.786458333333332,0)" xlink:href="#Z"/><use transform="matrix(0.008680555555555556,0,0,0.008680555555555556,37.595486111111114,0)" xlink:href="#ar"/><use transform="matrix(0.008680555555555556,0,0,0.008680555555555556,41.84027777777778,0)" xlink:href="#ai"/><use transform="matrix(0.008680555555555556,0,0,0.008680555555555556,51.640625,0)" xlink:href="#ap"/></g><path fill="#172b4d" d="M38 357C331 141 457-487 337-984c-53-219-157-429-299-546l39-113c190 106 362 378 431 621 75 268 76 597 0 868C440 88 266 365 77 470" id="aC"/><g id="J"><use transform="matrix(0.008680555555555556,0,0,0.008680555555555556,0,0)" xlink:href="#Y"/><use transform="matrix(0.008680555555555556,0,0,0.008680555555555556,9.67013888888889,0)" xlink:href="#X"/><use transform="matrix(0.008680555555555556,0,0,0.008680555555555556,19.696180555555557,0)" xlink:href="#aa"/><use transform="matrix(0.008680555555555556,0,0,0.008680555555555556,35.27777777777778,0)" xlink:href="#ak"/><use transform="matrix(0.008680555555555556,0,0,0.008680555555555556,39.59201388888889,0)" xlink:href="#Z"/><use transform="matrix(0.008680555555555556,0,0,0.008680555555555556,49.40104166666667,0)" xlink:href="#aC"/></g><g id="K"><use transform="matrix(0.009114583333333334,0,0,0.009114583333333334,0,0)" xlink:href="#ad"/><use transform="matrix(0.009114583333333334,0,0,0.009114583333333334,11.07421875,0)" xlink:href="#ac"/><use transform="matrix(0.009114583333333334,0,0,0.009114583333333334,20.963541666666668,0)" xlink:href="#aj"/></g><g id="L"><use transform="matrix(0.009114583333333334,0,0,0.009114583333333334,0,0)" xlink:href="#ai"/><use transform="matrix(0.009114583333333334,0,0,0.009114583333333334,10.290364583333334,0)" xlink:href="#av"/></g><g id="M"><use transform="matrix(0.009114583333333334,0,0,0.009114583333333334,0,0)" xlink:href="#at"/><use transform="matrix(0.009114583333333334,0,0,0.009114583333333334,14.027343750000002,0)" xlink:href="#ah"/><use transform="matrix(0.009114583333333334,0,0,0.009114583333333334,24.673177083333336,0)" xlink:href="#ap"/><use transform="matrix(0.009114583333333334,0,0,0.009114583333333334,30.989583333333336,0)" xlink:href="#au"/><use transform="matrix(0.009114583333333334,0,0,0.009114583333333334,40.450520833333336,0)" xlink:href="#an"/><use transform="matrix(0.009114583333333334,0,0,0.009114583333333334,44.98046875,0)" xlink:href="#ah"/><use transform="matrix(0.009114583333333334,0,0,0.009114583333333334,55.626302083333336,0)" xlink:href="#Y"/><use transform="matrix(0.009114583333333334,0,0,0.009114583333333334,65.77994791666667,0)" xlink:href="#X"/><use transform="matrix(0.009114583333333334,0,0,0.009114583333333334,76.30729166666667,0)" xlink:href="#af"/></g><g id="N"><use transform="matrix(0.009114583333333334,0,0,0.009114583333333334,0,0)" xlink:href="#Y"/><use transform="matrix(0.009114583333333334,0,0,0.009114583333333334,10.153645833333334,0)" xlink:href="#ai"/><use transform="matrix(0.009114583333333334,0,0,0.009114583333333334,20.444010416666668,0)" xlink:href="#aj"/><use transform="matrix(0.009114583333333334,0,0,0.009114583333333334,26.541666666666668,0)" xlink:href="#aw"/><use transform="matrix(0.009114583333333334,0,0,0.009114583333333334,36.82291666666667,0)" xlink:href="#ac"/><use transform="matrix(0.009114583333333334,0,0,0.009114583333333334,46.71223958333334,0)" xlink:href="#Z"/><use transform="matrix(0.009114583333333334,0,0,0.009114583333333334,57.011718750000014,0)" xlink:href="#aj"/><use transform="matrix(0.009114583333333334,0,0,0.009114583333333334,63.109375000000014,0)" xlink:href="#ak"/><use transform="matrix(0.009114583333333334,0,0,0.009114583333333334,67.63932291666669,0)" xlink:href="#ag"/><use transform="matrix(0.009114583333333334,0,0,0.009114583333333334,77.41015625000003,0)" xlink:href="#Y"/><use transform="matrix(0.009114583333333334,0,0,0.009114583333333334,87.56380208333334,0)" xlink:href="#aj"/><use transform="matrix(0.009114583333333334,0,0,0.009114583333333334,93.66145833333334,0)" xlink:href="#ac"/></g><g id="O"><use transform="matrix(0.009114583333333334,0,0,0.009114583333333334,0,0)" xlink:href="#aq"/><use transform="matrix(0.009114583333333334,0,0,0.009114583333333334,12.149739583333334,0)" xlink:href="#ah"/><use transform="matrix(0.009114583333333334,0,0,0.009114583333333334,22.795572916666668,0)" xlink:href="#Z"/><use transform="matrix(0.009114583333333334,0,0,0.009114583333333334,33.095052083333336,0)" xlink:href="#ae"/><use transform="matrix(0.009114583333333334,0,0,0.009114583333333334,39.575520833333336,0)" xlink:href="#ak"/><use transform="matrix(0.009114583333333334,0,0,0.009114583333333334,44.10546875,0)" xlink:href="#ab"/><use transform="matrix(0.009114583333333334,0,0,0.009114583333333334,54.578125,0)" xlink:href="#ai"/><use transform="matrix(0.009114583333333334,0,0,0.009114583333333334,64.86848958333333,0)" xlink:href="#ap"/><use transform="matrix(0.009114583333333334,0,0,0.009114583333333334,71.01171875,0)" xlink:href="#ac"/></g><g id="P"><use transform="matrix(0.009114583333333334,0,0,0.009114583333333334,0,0)" xlink:href="#Y"/><use transform="matrix(0.009114583333333334,0,0,0.009114583333333334,10.153645833333334,0)" xlink:href="#ai"/><use transform="matrix(0.009114583333333334,0,0,0.009114583333333334,20.444010416666668,0)" xlink:href="#aj"/><use transform="matrix(0.009114583333333334,0,0,0.009114583333333334,26.541666666666668,0)" xlink:href="#aw"/><use transform="matrix(0.009114583333333334,0,0,0.009114583333333334,36.82291666666667,0)" xlink:href="#ac"/><use transform="matrix(0.009114583333333334,0,0,0.009114583333333334,46.71223958333334,0)" xlink:href="#Z"/><use transform="matrix(0.009114583333333334,0,0,0.009114583333333334,57.011718750000014,0)" xlink:href="#aj"/><use transform="matrix(0.009114583333333334,0,0,0.009114583333333334,63.109375000000014,0)" xlink:href="#ak"/><use transform="matrix(0.009114583333333334,0,0,0.009114583333333334,67.63932291666669,0)" xlink:href="#ag"/><use transform="matrix(0.009114583333333334,0,0,0.009114583333333334,77.41015625000003,0)" xlink:href="#Y"/><use transform="matrix(0.009114583333333334,0,0,0.009114583333333334,87.56380208333334,0)" xlink:href="#aj"/><use transform="matrix(0.009114583333333334,0,0,0.009114583333333334,93.66145833333334,0)" xlink:href="#ak"/><use transform="matrix(0.009114583333333334,0,0,0.009114583333333334,98.19140625,0)" xlink:href="#ah"/><use transform="matrix(0.009114583333333334,0,0,0.009114583333333334,108.83723958333334,0)" xlink:href="#Z"/></g><g id="Q"><use transform="matrix(0.009114583333333334,0,0,0.009114583333333334,0,0)" xlink:href="#aq"/><use transform="matrix(0.009114583333333334,0,0,0.009114583333333334,12.149739583333334,0)" xlink:href="#ah"/><use transform="matrix(0.009114583333333334,0,0,0.009114583333333334,22.795572916666668,0)" xlink:href="#Z"/><use transform="matrix(0.009114583333333334,0,0,0.009114583333333334,33.095052083333336,0)" xlink:href="#ar"/><use transform="matrix(0.009114583333333334,0,0,0.009114583333333334,37.552083333333336,0)" xlink:href="#ai"/><use transform="matrix(0.009114583333333334,0,0,0.009114583333333334,47.84244791666667,0)" xlink:href="#ap"/></g><g id="R"><use transform="matrix(0.009114583333333334,0,0,0.009114583333333334,0,0)" xlink:href="#Y"/><use transform="matrix(0.009114583333333334,0,0,0.009114583333333334,10.153645833333334,0)" xlink:href="#X"/><use transform="matrix(0.009114583333333334,0,0,0.009114583333333334,20.680989583333336,0)" xlink:href="#aa"/><use transform="matrix(0.009114583333333334,0,0,0.009114583333333334,37.04166666666667,0)" xlink:href="#ak"/><use transform="matrix(0.009114583333333334,0,0,0.009114583333333334,41.571614583333336,0)" xlink:href="#Z"/></g><g id="S"><use transform="matrix(0.009114583333333334,0,0,0.009114583333333334,0,0)" xlink:href="#am"/><use transform="matrix(0.009114583333333334,0,0,0.009114583333333334,16.296875,0)" xlink:href="#Y"/><use transform="matrix(0.009114583333333334,0,0,0.009114583333333334,26.450520833333336,0)" xlink:href="#Z"/><use transform="matrix(0.009114583333333334,0,0,0.009114583333333334,36.75,0)" xlink:href="#Y"/><use transform="matrix(0.009114583333333334,0,0,0.009114583333333334,46.903645833333336,0)" xlink:href="#ab"/><use transform="matrix(0.009114583333333334,0,0,0.009114583333333334,57.376302083333336,0)" xlink:href="#ac"/></g><g id="T"><use transform="matrix(0.009114583333333334,0,0,0.009114583333333334,0,0)" xlink:href="#Y"/><use transform="matrix(0.009114583333333334,0,0,0.009114583333333334,10.153645833333334,0)" xlink:href="#ag"/><use transform="matrix(0.009114583333333334,0,0,0.009114583333333334,19.924479166666668,0)" xlink:href="#ag"/><use transform="matrix(0.009114583333333334,0,0,0.009114583333333334,29.695312500000004,0)" xlink:href="#ac"/><use transform="matrix(0.009114583333333334,0,0,0.009114583333333334,39.58463541666667,0)" xlink:href="#af"/><use transform="matrix(0.009114583333333334,0,0,0.009114583333333334,49.20963541666667,0)" xlink:href="#af"/></g><g id="U"><use transform="matrix(0.009114583333333334,0,0,0.009114583333333334,0,0)" xlink:href="#ak"/><use transform="matrix(0.009114583333333334,0,0,0.009114583333333334,4.529947916666667,0)" xlink:href="#Z"/></g><g id="V"><use transform="matrix(0.009114583333333334,0,0,0.009114583333333334,0,0)" xlink:href="#W"/><use transform="matrix(0.009114583333333334,0,0,0.009114583333333334,12.177083333333334,0)" xlink:href="#ai"/><use transform="matrix(0.009114583333333334,0,0,0.009114583333333334,22.467447916666668,0)" xlink:href="#aj"/><use transform="matrix(0.009114583333333334,0,0,0.009114583333333334,28.382812500000004,0)" xlink:href="#ah"/><use transform="matrix(0.009114583333333334,0,0,0.009114583333333334,39.028645833333336,0)" xlink:href="#aa"/><use transform="matrix(0.009114583333333334,0,0,0.009114583333333334,55.38932291666667,0)" xlink:href="#Y"/><use transform="matrix(0.009114583333333334,0,0,0.009114583333333334,65.54296875,0)" xlink:href="#aj"/><use transform="matrix(0.009114583333333334,0,0,0.009114583333333334,71.640625,0)" xlink:href="#ac"/></g></defs></g></svg>