<svg xmlns="http://www.w3.org/2000/svg" xmlns:xlink="http://www.w3.org/1999/xlink" xmlns:lucid="lucid" width="1666" height="867"><g transform="translate(-1872 -11538)" lucid:page-tab-id="0_0"><path d="M1922.52 11863.83a6 6 0 0 1 6-6h1551a6 6 0 0 1 6 6v222.85a6 6 0 0 1-6 6h-1551a6 6 0 0 1-6-6z" fill="#e0e8f5"/><path d="M1943.5 11857.83h15m7.5 0h14.97m7.5 0h14.98m7.5 0h14.98m7.5 0h14.98m7.5 0h15m7.48 0h14.98m7.5 0h14.98m7.5 0h14.98m7.5 0h14.98m7.5 0h14.98m7.5 0h14.97m7.5 0h14.98m7.5 0h14.98m7.5 0h15m7.48 0h15m7.48 0h15m7.48 0h14.98m7.5 0h14.98m7.5 0h14.98m7.5 0h14.98m7.5 0h14.98m7.5 0H2453m7.5 0h14.97m7.5 0h14.97m7.5 0h14.98m7.5 0h14.98m7.5 0h14.98m7.5 0h15m7.48 0h14.98m7.5 0h14.98m7.5 0h14.98m7.5 0h14.98m7.5 0h14.98m7.5 0h14.97m7.5 0h14.98m7.5 0h14.98m7.5 0h15m7.48 0h15m7.48 0h15m7.48 0h14.98m7.5 0h14.98m7.5 0h14.98m7.5 0h14.98m7.5 0h14.98m7.5 0H2970m7.5 0h15m7.5 0h14.97m7.5 0h14.98m7.5 0h14.98m7.5 0h14.98m7.5 0h15m7.48 0h14.98m7.5 0h14.98m7.5 0h14.98m7.5 0h14.98m7.5 0h14.98m7.5 0h14.97m7.5 0h14.98m7.5 0h14.98m7.5 0h15m7.48 0h15m7.48 0h15m7.48 0h14.98m7.5 0h14.98m7.5 0h14.98m7.5 0h14.98m7.5 0h14.98m7.5 0h7.48l.94.08.92.23.87.36.8.48.7.6.63.73.5.8.35.88.22.92.07.93v7.43m0 7.43v14.85m0 7.43v14.85m0 7.43v14.86m0 7.43v14.85m0 7.43v14.86m0 7.42v14.85m0 7.43v14.86m0 7.43v14.84m0 7.43v14.86m0 7.43v7.42l-.07.94-.22.92-.36.87-.5.8-.6.73-.72.6-.8.5-.87.36-.92.2-.94.08h-7.5m-7.48 0h-15m-7.48 0h-15m-7.48 0h-15m-7.48 0h-14.98m-7.5 0h-14.98m-7.5 0h-14.98m-7.5 0h-14.98m-7.5 0h-14.98m-7.5 0h-14.97m-7.5 0h-14.98m-7.5 0h-14.98m-7.5 0h-14.98m-7.5 0h-15m-7.48 0h-15m-7.48 0h-14.98m-7.5 0h-14.98m-7.5 0h-14.98m-7.5 0h-14.98m-7.5 0h-14.98m-7.5 0h-14.97m-7.5 0H3000m-7.5 0h-15m-7.5 0h-14.97m-7.5 0h-14.98m-7.5 0h-14.98m-7.5 0h-14.98m-7.5 0h-14.98m-7.5 0h-14.98m-7.5 0h-14.98m-7.5 0h-14.98m-7.5 0h-14.98m-7.5 0h-14.97m-7.5 0h-14.98m-7.5 0h-14.98m-7.5 0h-14.98m-7.5 0h-15m-7.48 0h-15m-7.48 0h-14.98m-7.5 0h-14.98m-7.5 0h-14.98m-7.5 0h-14.98m-7.5 0h-14.98m-7.5 0h-14.97m-7.5 0H2483m-7.5 0h-15m-7.48 0h-15m-7.48 0h-15m-7.48 0h-15m-7.48 0h-15m-7.48 0h-14.98m-7.5 0h-14.98m-7.5 0h-14.98m-7.5 0h-14.98m-7.5 0h-14.98m-7.5 0h-14.97m-7.5 0h-14.98m-7.5 0h-14.98m-7.5 0h-14.98m-7.5 0h-15m-7.48 0h-15m-7.48 0h-14.98m-7.5 0h-14.98m-7.5 0h-14.98m-7.5 0h-14.98m-7.5 0h-14.98m-7.5 0h-14.98m-7.5 0H1966m-7.5 0h-15m-7.48 0h-7.5l-.93-.07-.93-.2-.87-.37-.8-.5-.72-.6-.6-.72-.5-.8-.36-.86-.22-.92-.08-.94v-7.42m0-7.43v-14.86m0-7.43v-14.85m0-7.44v-14.86m0-7.43v-14.85m0-7.43v-14.87m0-7.43v-14.85m0-7.43v-14.86m0-7.43v-14.85m0-7.43v-14.86m0-7.44v-7.43l.08-.93.22-.92.36-.87.5-.8.6-.7.72-.62.8-.5.87-.35.9-.22.95-.07h7.5" stroke="#2f3564" stroke-width="1.5" fill="none"/><path d="M1922.52 11600.83a6 6 0 0 1 6-6h1551a6 6 0 0 1 6 6v222.85a6 6 0 0 1-6 6h-1551a6 6 0 0 1-6-6z" fill="#e0e8f5"/><path d="M1943.5 11594.83h15m7.5 0h14.97m7.5 0h14.98m7.5 0h14.98m7.5 0h14.98m7.5 0h15m7.48 0h14.98m7.5 0h14.98m7.5 0h14.98m7.5 0h14.98m7.5 0h14.98m7.5 0h14.97m7.5 0h14.98m7.5 0h14.98m7.5 0h15m7.48 0h15m7.48 0h15m7.48 0h14.98m7.5 0h14.98m7.5 0h14.98m7.5 0h14.98m7.5 0h14.98m7.5 0H2453m7.5 0h14.97m7.5 0h14.97m7.5 0h14.98m7.5 0h14.98m7.5 0h14.98m7.5 0h15m7.48 0h14.98m7.5 0h14.98m7.5 0h14.98m7.5 0h14.98m7.5 0h14.98m7.5 0h14.97m7.5 0h14.98m7.5 0h14.98m7.5 0h15m7.48 0h15m7.48 0h15m7.48 0h14.98m7.5 0h14.98m7.5 0h14.98m7.5 0h14.98m7.5 0h14.98m7.5 0H2970m7.5 0h15m7.5 0h14.97m7.5 0h14.98m7.5 0h14.98m7.5 0h14.98m7.5 0h15m7.48 0h14.98m7.5 0h14.98m7.5 0h14.98m7.5 0h14.98m7.5 0h14.98m7.5 0h14.97m7.5 0h14.98m7.5 0h14.98m7.5 0h15m7.48 0h15m7.48 0h15m7.48 0h14.98m7.5 0h14.98m7.5 0h14.98m7.5 0h14.98m7.5 0h14.98m7.5 0h7.48l.94.07.92.22.87.36.8.5.7.6.63.72.5.8.35.87.22.92.07.93v7.43m0 7.42v14.86m0 7.43v14.86m0 7.42v14.86m0 7.44v14.86m0 7.43v14.85m0 7.43v14.87m0 7.43v14.85m0 7.43v14.86m0 7.42v14.86m0 7.43v7.43l-.07.94-.22.9-.36.88-.5.8-.6.72-.72.6-.8.5-.87.36-.92.23-.94.08h-7.5m-7.48 0h-15m-7.48 0h-15m-7.48 0h-15m-7.48 0h-14.98m-7.5 0h-14.98m-7.5 0h-14.98m-7.5 0h-14.98m-7.5 0h-14.98m-7.5 0h-14.97m-7.5 0h-14.98m-7.5 0h-14.98m-7.5 0h-14.98m-7.5 0h-15m-7.48 0h-15m-7.48 0h-14.98m-7.5 0h-14.98m-7.5 0h-14.98m-7.5 0h-14.98m-7.5 0h-14.98m-7.5 0h-14.97m-7.5 0H3000m-7.5 0h-15m-7.5 0h-14.97m-7.5 0h-14.98m-7.5 0h-14.98m-7.5 0h-14.98m-7.5 0h-14.98m-7.5 0h-14.98m-7.5 0h-14.98m-7.5 0h-14.98m-7.5 0h-14.98m-7.5 0h-14.97m-7.5 0h-14.98m-7.5 0h-14.98m-7.5 0h-14.98m-7.5 0h-15m-7.48 0h-15m-7.48 0h-14.98m-7.5 0h-14.98m-7.5 0h-14.98m-7.5 0h-14.98m-7.5 0h-14.98m-7.5 0h-14.97m-7.5 0H2483m-7.5 0h-15m-7.48 0h-15m-7.48 0h-15m-7.48 0h-15m-7.48 0h-15m-7.48 0h-14.98m-7.5 0h-14.98m-7.5 0h-14.98m-7.5 0h-14.98m-7.5 0h-14.98m-7.5 0h-14.97m-7.5 0h-14.98m-7.5 0h-14.98m-7.5 0h-14.98m-7.5 0h-15m-7.48 0h-15m-7.48 0h-14.98m-7.5 0h-14.98m-7.5 0h-14.98m-7.5 0h-14.98m-7.5 0h-14.98m-7.5 0h-14.98m-7.5 0H1966m-7.5 0h-15m-7.48 0h-7.5l-.93-.08-.93-.22-.87-.35-.8-.5-.72-.6-.6-.72-.5-.8-.36-.87-.22-.9-.08-.95v-7.43m0-7.43v-14.85m0-7.43v-14.86m0-7.43v-14.85m0-7.43v-14.86m0-7.42v-14.85m0-7.43v-14.86m0-7.43v-14.85m0-7.42v-14.86m0-7.43v-14.86m0-7.42v-7.43l.08-.94.22-.93.36-.87.5-.8.6-.72.72-.6.8-.5.87-.36.9-.22.95-.07h7.5" stroke="#2f3564" stroke-width="1.5" fill="none"/><path d="M2005.23 11711.66a19.73 19.73 0 0 1 19.73-19.73h223.08a19.73 19.73 0 0 1 19.73 19.73 19.73 19.73 0 0 1-19.73 19.73h-223.08a19.73 19.73 0 0 1-19.73-19.74z" stroke="#6c6e83" fill="#fff"/><path d="M2083 11692.83h196.74v36.56H2083z" fill="none"/><use xlink:href="#a" transform="matrix(1,0,0,1,2083,11692.826493163951) translate(0 24.880208333333336)"/><use xlink:href="#b" transform="matrix(1,0,0,1,2083,11692.826493163951) translate(71.421875 24.880208333333336)"/><path d="M2014.17 11763.55c27.6 0 50-22.35 50-49.92 0-27.68-22.4-50.02-50-50.02s-50 22.35-50 50.03c0 27.57 22.4 49.92 50 49.92z" stroke="#6c6e83" fill="#a2c6f6"/><path d="M2013.47 11763.55c-18.8-1.2-32.2-10.97-37.1-18.22 1.2-1.9 4.8-6.94 6.5-8.35 1.5-1.2 3.2-2.22 5.1-2.82 1.8-.6 4.4-.4 4.4-.4h8.2c4.7 0 9.4.1 12.9.3 1.6 0 3.2.1 4.7.1 2.9.1 5.8.2 8.7.4.8.1 1.7.1 2.6.2.3 0 .6.1.9.1.3 0 .6 0 .9.1l.8.1c.5 0 1.1.1 1.7.1 1.3.2 2.6.3 3.8.5.4 0 .8.1 1.3.1s1.1.1 1.6.1c.2.1.5.1.8.2 1.9.3 3.7 1.02 5.4 2.02 1.9 1.2 5.3 7.25 5.3 7.25s-4.8 5.64-8.5 8.45c-9.8 7.55-17.7 10.57-30 9.77z" stroke="#000" stroke-opacity="0" fill="#ffa894"/><path d="M2034.17 11696.12c.2-1.92-.2-4.03-.5-5.94-.3-1.6-.3-3.83-1.2-5.34-.8-1.2-2.4-2.1-3.6-2.8-2.8-1.52-5.8-1.32-8.8-.62-2.1-2.4-6-2.5-8.9-.9-1.2.7-1.7 0-3.2.2-1 .1-3.3.3-4.1.8-1.7 1-3 2.82-3.8 4.63-2.2.2-3.7 1.1-4.3 3.42-.4 1.5 0 3.73-.3 5.24-.3 1.42-.8 2.73-.8 4.13 0 1.5.6 2.72 1 4.13.6 1.9.9 3.93.9 6.04-.1 1.2.1 2.5.8 3.62.2.4.5.8.9 1.2.7.6 4.2 4.64 4.2 4.64s1.3-2.42 2.4-2.3c2.6.4 5.4 0 8-.12 2.9 0 5.5-.2 8.1 1.3.4.2.7.5 1.1.72.4.2.8.4 1.3.6 1 .3 1.6 0 2.6-.1 2.1-.2.9.3 2 .9.4.2.9.1 1.3 0 .1-.1.3-.1.4-.2 1.2-.4 2.5-1.4 2.7-2.8.2-1.12-.4-2.13-.3-3.33.1-1.4 1-2.12 1.5-3.43.4-.9.2-1.7 0-2.6.9-1.32.9-3.84.4-5.05-.4-1.2-.8-2-.5-3.32.2-.9.6-1.8.7-2.7z" stroke="#000" stroke-opacity="0" fill="#fad3b1"/><path d="M2028.17 11713.83c-.9-1.2-1.6-2.22-2-3.73-.3-1.4-.6-2.9-.7-4.32 0-.4-.6-.3-.6.1.1 1.3.3 2.72.6 4.13-1.5 1.5-1.9 3.63-2.5 5.54-.3.8-.6 1.7-.9 2.62.4.2.8.4 1.3.6 1 .3 1.6 0 2.6-.1 2.1-.2.9.3 2 .9.4.2.9.1 1.3 0 .1-.1.3-.1.4-.2 0-.1 0-.2.1-.3.2-1.9-.4-3.72-1.6-5.23z" stroke="#000" stroke-opacity="0" fill="#ebbd94"/><path d="M2032.77 11736.67l-2.9-.8c-.3-.1-.6-.1-.8-.2l-1.5-.4c-1-.3-2.4-.5-3.6-1-.1-.1-.3-.2-.5-.3-.7-.4-1.2-1.12-1.2-2.13v-.1c-.1-2.82 0-5.53.1-8.35v-.1c.1-1.02.1-2.02.2-3.03v-.1c-.1-.1-.1-.1-.1-.2h-.1c-.1 0-.1-.1-.2-.1-3 .5-6.1.4-9.2.8-2.7.3-5.4.8-8.1 1.6 0-1.7-.1-3.3-.2-5.02 0-.4-.6-.3-.6.1.2 4.53.3 9.06.4 13.6-.6.8-1.5 1.3-2.5 1.8-.2.1-.4.2-.5.2-.5.2-.9.4-1.4.5-.8.3-1.6.5-2.4.7-.4.1-.8.1-1.2.2h-.1l-.4.1c-.6.2-1.5.2-1.7.92-.2.9 1.3 2.7 1.8 3.52.4.8.9 1.7 1.4 2.5 1.4 2.32 2.9 4.53 4.6 6.75 2 2.72 4.2 5.33 6.5 7.85l.2.2c.1 0 .2 0 .2-.1l1.9-1.3.2-.2c1.3-.92 2.5-1.82 3.7-2.73 1.2-.9 2.4-1.8 3.6-2.72.1-.1.3-.2.4-.3 3.4-2.6 6.7-5.33 9.9-8.05 1.5-1.1 2.9-2.3 4.3-3.52 0-.1 0-.1.1-.2v-.1c0-.1-.1-.1-.1-.2-.1 0-.1-.1-.2-.1z" stroke="#000" stroke-opacity="0" fill="#ffa894"/><path d="M2026.77 11693.7c-.9-1-4.9-1.1-6.1-1.2-2.1-.1-4.1-.1-6.2-.1-4.6 0-9.2.3-13.8 1.3-.1 0-.2.1-.3.1 0 .1-.1.2 0 .4-.1 0-.1 0-.1.1-.1 0-.1 0-.1.1-.4 5.84-.8 16.3.9 22.75 1 3.42 3.8 7.65 6.6 9.76 5.4 4.14 11.6.62 15.2-4 4.2-5.45 4.6-12.8 4.7-19.44.1-1.9 0-3.72-.1-5.53 0-1.2.2-3.32-.7-4.23z" stroke="#000" stroke-opacity="0" fill="#ffa894"/><path d="M2021.57 11707.4c.1-.5.1-1.12 0-1.62 0-.3-.1-.6-.3-.8-.5-.5-1.2 0-1.3.6-.3.7-.3 2.3.4 2.7.7.42 1-.1 1.2-.9zM2007.07 11707.1c.2-.52.2-1.12.2-1.62-.1-.3-.2-.6-.3-.8-.5-.6-1.2-.1-1.4.5-.2.7-.3 2.3.4 2.7.6.4 1-.1 1.1-.8z" stroke="#000" stroke-opacity="0" fill="#232c44"/><path d="M2008.37 11728.32c.6.8 1.2 1 2.1 1.1 1.5.1 2.7.9 4.1 1.22 1 .1 1.9-.3 2.8-.3.8-.1 1.5.2 2.3.2 1 0 1.8-.4 2.6-.9 0-2.12 0-4.14.1-6.25-.6.5-3.9 3.7-7 4.62-2.7.8-5.7-.5-7.9-2 .1.9.4 1.7.9 2.3z" stroke="#000" stroke-opacity="0" fill="#f7886d"/><path d="M2006.87 11700.95c-1.2.1-2.4.3-3.5.9-.2.1-.5.3-.7.4-.2.2-.2.6.1.6 1.7.1 3.4-.2 5.1-.3.6 0 2.2.3 2.5-.5.4-1.4-1.9-1.2-2.6-1.2-.3 0-.6 0-.9.1zM2020.07 11701.05c-.8-.1-3.1-.1-2.6 1.2.3.8 1.9.5 2.5.5 1.7.1 3.4.3 5.1.2.3 0 .3-.4.1-.6-.3-.1-.5-.3-.8-.4-1.1-.6-2.3-.8-3.5-.9h-.8z" stroke="#000" stroke-opacity="0" fill="#fad3b1"/><path d="M2008.07 11717.95s.5 1.62 3.9 2.02c4.1.5 5.4-1.6 5.4-1.6l-9.3-.42z" stroke="#000" stroke-opacity="0" fill="#fff"/><path d="M2013.37 11707.6c0-.4-.6-.5-.6-.1-.2 1.1-.4 2.3-.8 3.5-.2.72-.6 1.42-.7 2.23-.1 1.5 1 1.6 2.1 2.3.3.2.7-.3.4-.5-.3-.2-.8-.3-1.1-.5-1.3-1-.5-2.2-.2-3.32.4-1.2.7-2.4.9-3.6z" stroke="#000" stroke-opacity="0" fill="#f7886d"/><path d="M2029.47 11706.68c-.7-2.2-2.2-2-3.6-.4-.3.3.2.6.5.3.1 0 .2-.2.3-.4-.3 1.6-.7 3.12-1.3 4.63-.3.92-1.1 2.33-.8 3.33.6 1.4 3.2-1 3.8-1.5.6-.6 1.5-1.42 1.6-2.42.2-1-.1-2.5-.5-3.52zM1996.77 11708.6c0 1 .8 1.9 1.4 2.6.5.52 2.9 3.13 3.6 1.82.4-.9-.2-2.4-.4-3.32-.4-1.6-.7-3.12-.9-4.73.1.1.2.3.3.4.2.3.7 0 .5-.3-1.2-1.7-2.7-2.1-3.6.1-.5 1-.9 2.42-.9 3.43z" stroke="#000" stroke-opacity="0" fill="#ffa894"/><path d="M1999.97 11706.9v-1.42c-.1-.4-.7-.4-.6 0 0 .7.2 1.5-.1 2.1-.1.4-.4.6-.6 1.02-.2.8.4 1.5 1 1.9.3.3.7-.2.3-.4-.3-.2-.5-.5-.6-.9-.1-.4 0-.7.4-.9.1-.2.2-.2.2-.4.2-.3 0-.7 0-1zM2027.47 11706.28c-.1.8-.4 1.7-.3 2.52 0 .5 1 1.8-.3 1.9-.4.1-.4.7 0 .6.8 0 1.3-.7 1.2-1.5 0-.4-.2-.6-.3-.9-.1-.3.1-.8.1-1.1l.2-1.42c.1-.4-.5-.4-.6-.1z" stroke="#000" stroke-opacity="0" fill="#f7886d"/><path d="M1983.47 11753.58l4.2-12.78c.8-2.1 1.7-4.63 2.1-7.04h4c.6 2.7.8 6.03 1.7 7.14 0 .1 1.1 1.5 2.5 3.12 1.4 1.6 3.1 3.63 4.2 4.73.8.7 1.5 1.5 2.1 2.42.6.9 1.1 1.9 1.6 2.82 1.1 1.7 2.7 2.8 4 4.3.8.92 1.3 1.93 1.7 3.13.9 2.72.6 2.62 2.8 2.72 1.7-1.3 1.4-2.82 2.7-4.43.7-1.1 1.6-2 2.3-3.12.6-1.1 1.1-2.2 1.9-3.22 1.3-1.8 3.1-3.22 4.5-5.03 1-1.3 2-2.92 2.6-4.53.1-.4.3-.8.5-1.2.2-.7.4-1.62.5-2.62.1-1 .2-2.02.4-2.92.1-.7.3-1.4.5-2.12l.1-.1c.3 0 .6 0 .8.1.3 0 .6 0 .9.1.5 0 1.1.1 1.7.1v.2c-.1 1.92.9 4.03 1.5 7.25.2 1.22.4 2.33.4 3.53.2 3.13 4 10.47 4 10.47s-3.4 1.8-5.7 2.92c-6.3 3.32-11.7 4.43-19.6 4.63-12.8.3-21.4-3.72-30.9-10.57z" stroke="#000" stroke-opacity="0" fill="#f2e7e1"/><path d="M2035.97 11754.7l-1.8-1.52c-.4-.4-.9-.8-1.2-1.3-.4-.4-.6-1.22-1-1.52-.2-.1-.3-.1-.6-.2-1.1-.2-2-.7-2.7-1.6 2.5-1.52 5-3.23 6.5-5.75 0 0 .1-.1.1-.2-.6-3.2-1.5-5.32-1.5-7.23-1.4.5-2.7 1-4 1.7-.2.9-.3 1.92-.4 2.93-.1 1-.3 1.9-.5 2.6-.2.4-.3.82-.5 1.22-.6 1.6-1.6 3.22-2.6 4.53-1.3 1.8-3.2 3.22-4.5 5.03-.8 1-1.2 2.12-1.9 3.22s-1.6 2-2.3 3.12c-1.2 1.5-.7 2.72-2.2 4.03 3.7-1 8.5 1.4 8.2-7.85 1 .7 2.1 1.2 3.2 1.8 1 .5 1.6 1.22 2.4 1.82.6.6 1.3.8 2.1 1.1.9.2 9.7-1.8 5.2-5.93zM2005.17 11753.68c-.4-.9-.8-1.8-1.3-2.6-3.4 1.5-6.7 3.7-8 7.33-.1 0-.1.1-.1.1 0 .1.1.1.1.22l.1.1h.1c2.8.3 5.7 0 8.4-1.1.6-.3 1.1-.6 1.7-.82.7-.2 1.1 0 1.6 0-.9-1-1.9-2-2.6-3.22zM1992.47 11750.06c-2.2.1-4.3 1.3-6.1 2.42-1.2.8-1.7 1.2-3.2 1.5 1.9 1.1 3.2 1.92 6.1 3.63 1.1-1.7 3.4-3.6 4.1-5.53.3-.9.3-2-.9-2zM2023.47 11733.96c-.6 1.7-1.3 3.32-2.1 4.93-.4.8-.9 1.6-1.4 2.4-1.2 1.82-2.6 3.53-4.6 4.53-1.4.6-2.6.6-4 .2-1.2-.4-2.5-1-3.5-1.7-2.1-1.4-3.4-3.73-4.6-5.84h-.1c-.5-1.93-.9-3.74-1.2-5.65v-.1c-.2.1-.4.2-.5.2.2 1.8.5 3.62 1 5.33v.1c.2 2.82 1.1 5.44 2.4 8.06.6 1.3 1.3 2.6 2.1 3.82.7 1.1 1.6 2.1 2.4 3.12.5.6.9 1 1.5 1.4.3.2.7.4 1.1.4 1 .2 2 .1 2.8-.4 2.3-1.1 3.3-3.5 4-5.73v-.2l2.1-7.24c1.1-2.4 2.2-4.82 3.2-7.34l-.6-.3zm-5 14.9c0 .1-.1.2-.1.3-.7 2.2-1.8 4.62-4.1 5.53-1 .4-2.2.4-3.2-.1-.1-.1-.2-.1-.3-.2-1-.72-1.7-1.92-2.5-2.83-1.5-1.9-2.6-4.03-3.6-6.24-.9-1.8-1.5-3.62-1.8-5.64.5 1.6 1.2 3 2 4.42 1.5 2.62 4.2 6.04 7.3 7.05 3.1.9 5.1-2.62 6.3-4.83.5-1.1 1.1-2.22 1.6-3.33-.5 1.93-1 3.94-1.6 5.85zm.4-4.74c-1.4 2.72-3.6 8.15-7.4 6.04-4-2.2-6.5-6.24-7.9-10.57 1.1 1.9 2.3 3.72 4.1 5.03 1.1.7 2.4 1.2 3.6 1.7 1.3.4 2.4.4 3.6 0 2-.8 3.6-2.4 4.9-4.12l.3-.6c-.4.9-.8 1.72-1.2 2.52z" stroke="#000" stroke-opacity="0" fill="#fff"/><path d="M2001.97 11721.08c-.6-1.5-1.1-3.02-1.4-4.63-.2-1.2-.8-3.83-1.2-3.73-.3 0-.6 1.4-.6 2.02-.1.9-.1 1.9-.1 2.8l-.3 2.73c-.1.9-.5 1.8-.6 2.72 0 .1 0 .1.1.2h.1c.6.1 1.2 0 1.8-.2.7-.1 1.4.1 2-.1.3 0 .6 0 .6-.42.1-.4-.3-1-.4-1.4zM2030.07 11721.98c-.6-1.5-1-3.02-1.3-4.53-.3-1.3-.9-3.92-1.2-3.82-.4 0-.7 1.4-.7 2 0 1.02 0 1.92-.1 2.83 0 1-.1 1.9-.2 2.82-.1.9-.6 1.8-.6 2.7v.1h.1c.6.22 1.2 0 1.9-.1.6-.2 1.3 0 2-.1.3-.1.5-.1.5-.4.1-.5-.2-1.1-.4-1.5z" stroke="#000" stroke-opacity="0" fill="#3b2b2b"/><path d="M1999.77 11711.5v-.1-.1c-.1 0-.1-.1-.1-.1 0-.1-.1-.1-.1-.2-.1 0-.2-.1-.3-.1-.1 0-.2.1-.2.1-.1.1-.2.1-.2.2-.2.4-.3 1.22.1 1.52.1.1.2.1.3.1.1 0 .2 0 .3-.1.1 0 .2-.1.2-.1 0-.1.1-.2.1-.2v-.5c0-.2 0-.3-.1-.4zM2027.97 11712.62v-.1l-.1-.1v-.1c0-.1-.1-.1-.2-.2 0 0-.1-.1-.2-.1s-.2 0-.3.1c-.1 0-.1.1-.2.2-.2.4-.2 1.2.2 1.5.1.1.2.1.3.1.1 0 .2 0 .3-.1.1 0 .1-.1.2-.1 0-.1 0-.2.1-.3v-.4c-.1-.2-.1-.3-.1-.4z" stroke="#000" stroke-opacity="0" fill="#fff"/><path d="M2029.67 11697.52c-.2-1.6-.3-3.32-.7-4.83-.1-.5-.2-.8-.7-1.1-.9-.52-2.7-.52-3.8-.82-1.4-.2-2.8-.6-4.2-.7-1.4-.2-2.8-.1-4.2-.1-1.7 0-3.4-.2-5.1-.4-2.5-.2-5.2-.5-7.6.4-1.8.7-3.5 2.1-4.2 4.12-.7 2.22-.4 5.03-.4 7.45 0 0-.1 0-.1.1l-.1.1s0 .1.1.1v.1l.1.1v.2c0 .1 0 .1.1.1 0 0 0 .1.1.1h.1c.6.9 1 1.92 1.1 2.92 0 .1 0 .2.1.2 0 .1.1.1.2.1h.1c.1-.1.2-.1.2-.2.8-1.9.2-3.82.4-5.73.2-1.2.6-2.32.7-3.52.1-.7.1-1.5.3-2.22.4.2.8.4 1.3.6 1.4.4 2.5 0 3.9 0 1.1.1 1.8.7 2.9.5 1.3-.4 2.5-.8 3.5-1.7.4.2.8.4 1.1.5 1.9.7 3.9.4 5.1 2.32.6 1.1 1.2 2.2 2.5 2.6.6.22 1.3.42 1.9.52 1 1.8 2.6 3.42 2.5 5.63-.1 1.4-.2 2.52.2 3.93.4 1.4 1.1 2.82 1.3 4.23-.1.2.6 1.9.6 1.5 0-.4 1.2-.3 1.2-.8.8-2.1 1.2-2.92 1.1-5.33-.1-.7-1.2-3.53-1.3-4.23-.1-.9.1-1.8.1-2.72.1-1.3-.2-2.72-.4-4.02z" stroke="#000" stroke-opacity="0" fill="#fad3b1"/><path d="M2001.27 11690.58c-.1-.5-.5-.9-.6-1.4-.2-.6 0-1.22.2-1.82.1-.4-.5-.5-.6-.1-.3 1-.4 1.8 0 2.72.3.6.5 1.1.5 1.8-.1.6-.1 1 0 1.62 0 .4.6.3.6-.1-.2-.9.2-1.8-.1-2.72zM2027.77 11695.4c-.9-1.3-2.2-1.6-3.6-2.2-1-.3-1.7-.9-2.3-1.7-.4-.52-.7-.92-1.2-1.22-.7-.4-1.5-.6-2.3-.6-.8-.1-1.6 0-2.3.3-.4.1-.2.7.2.5.9-.3 1.8-.4 2.8-.1.9.2 1.7.7 2.3 1.4.5.7.9 1.32 1.7 1.72 1 .4 2 .6 3 1.1 1.7 1.1 2 3.13 1.8 5.04-.1.4.5.5.6.1.1-1.5.1-3.02-.7-4.33zM2029.57 11690.38c-.3-1-1-1.9-2-2.52-.9-.6-2-.9-3.1-.8-.4 0-.3.6.1.6 1 0 1.9.2 2.7.7.8.6 1.4 1.42 1.8 2.32.1.3.7.1.5-.3z" stroke="#000" stroke-opacity="0" fill="#ebbd94"/><path d="M2014.17 11763.55c27.6 0 50-22.45 50-50.02 0-27.68-22.4-50.02-50-50.02s-50 22.35-50 50.03c0 27.57 22.4 50.02 50 50.02z" stroke="#6c6e83" fill-opacity="0"/><path d="M1922.52 12126.84a6 6 0 0 1 6-6h1551a6 6 0 0 1 6 6v222.85a6 6 0 0 1-6 6h-1551a6 6 0 0 1-6-6z" fill="#e0e8f5"/><path d="M1943.5 12120.84h15m7.5 0h14.97m7.5 0h14.98m7.5 0h14.98m7.5 0h14.98m7.5 0h15m7.48 0h14.98m7.5 0h14.98m7.5 0h14.98m7.5 0h14.98m7.5 0h14.98m7.5 0h14.97m7.5 0h14.98m7.5 0h14.98m7.5 0h15m7.48 0h15m7.48 0h15m7.48 0h14.98m7.5 0h14.98m7.5 0h14.98m7.5 0h14.98m7.5 0h14.98m7.5 0H2453m7.5 0h14.97m7.5 0h14.97m7.5 0h14.98m7.5 0h14.98m7.5 0h14.98m7.5 0h15m7.48 0h14.98m7.5 0h14.98m7.5 0h14.98m7.5 0h14.98m7.5 0h14.98m7.5 0h14.97m7.5 0h14.98m7.5 0h14.98m7.5 0h15m7.48 0h15m7.48 0h15m7.48 0h14.98m7.5 0h14.98m7.5 0h14.98m7.5 0h14.98m7.5 0h14.98m7.5 0H2970m7.5 0h15m7.5 0h14.97m7.5 0h14.98m7.5 0h14.98m7.5 0h14.98m7.5 0h15m7.48 0h14.98m7.5 0h14.98m7.5 0h14.98m7.5 0h14.98m7.5 0h14.98m7.5 0h14.97m7.5 0h14.98m7.5 0h14.98m7.5 0h15m7.48 0h15m7.48 0h15m7.48 0h14.98m7.5 0h14.98m7.5 0h14.98m7.5 0h14.98m7.5 0h14.98m7.5 0h7.48l.94.07.92.23.87.36.8.5.7.6.63.7.5.82.35.86.22.92.07.94v7.43m0 7.43v14.85m0 7.43v14.86m0 7.43v14.85m0 7.43v14.86m0 7.44v14.85m0 7.42v14.86m0 7.43v14.86m0 7.43v14.85m0 7.43v14.85m0 7.43v7.43l-.07.93-.22.92-.36.87-.5.8-.6.7-.72.63-.8.5-.87.35-.92.22-.94.07h-7.5m-7.48 0h-15m-7.48 0h-15m-7.48 0h-15m-7.48 0h-14.98m-7.5 0h-14.98m-7.5 0h-14.98m-7.5 0h-14.98m-7.5 0h-14.98m-7.5 0h-14.97m-7.5 0h-14.98m-7.5 0h-14.98m-7.5 0h-14.98m-7.5 0h-15m-7.48 0h-15m-7.48 0h-14.98m-7.5 0h-14.98m-7.5 0h-14.98m-7.5 0h-14.98m-7.5 0h-14.98m-7.5 0h-14.97m-7.5 0H3000m-7.5 0h-15m-7.5 0h-14.97m-7.5 0h-14.98m-7.5 0h-14.98m-7.5 0h-14.98m-7.5 0h-14.98m-7.5 0h-14.98m-7.5 0h-14.98m-7.5 0h-14.98m-7.5 0h-14.98m-7.5 0h-14.97m-7.5 0h-14.98m-7.5 0h-14.98m-7.5 0h-14.98m-7.5 0h-15m-7.48 0h-15m-7.48 0h-14.98m-7.5 0h-14.98m-7.5 0h-14.98m-7.5 0h-14.98m-7.5 0h-14.98m-7.5 0h-14.97m-7.5 0H2483m-7.5 0h-15m-7.48 0h-15m-7.48 0h-15m-7.48 0h-15m-7.48 0h-15m-7.48 0h-14.98m-7.5 0h-14.98m-7.5 0h-14.98m-7.5 0h-14.98m-7.5 0h-14.98m-7.5 0h-14.97m-7.5 0h-14.98m-7.5 0h-14.98m-7.5 0h-14.98m-7.5 0h-15m-7.48 0h-15m-7.48 0h-14.98m-7.5 0h-14.98m-7.5 0h-14.98m-7.5 0h-14.98m-7.5 0h-14.98m-7.5 0h-14.98m-7.5 0H1966m-7.5 0h-15m-7.48 0h-7.5l-.93-.08-.93-.22-.87-.36-.8-.5-.72-.6-.6-.72-.5-.8-.36-.88-.22-.9-.08-.95v-7.44m0-7.43v-14.85m0-7.43v-14.86m0-7.44v-14.85m0-7.42v-14.86m0-7.43v-14.86m0-7.43v-14.85m0-7.43v-14.85m0-7.43v-14.86m0-7.43v-14.85m0-7.43v-7.43l.08-.94.22-.9.36-.9.5-.8.6-.7.72-.6.8-.5.87-.37.9-.22.95-.06h7.5" stroke="#2f3564" stroke-width="1.5" fill="none"/><path d="M2794 11906a6 6 0 0 1 6-6h437.76a6 6 0 0 1 6 6v38.3a6 6 0 0 1-6 6H2800a6 6 0 0 1-6-6z" stroke="#6c6e83" fill="#fff"/><path d="M2821.7 11913.65h385.2v24.75h-385.2z" fill="none"/><use xlink:href="#c" transform="matrix(1,0,0,1,2821.6890128696023,11913.652234327672) translate(0 18.880208333333336)"/><use xlink:href="#d" transform="matrix(1,0,0,1,2821.6890128696023,11913.652234327672) translate(100.4609375 18.880208333333336)"/><use xlink:href="#e" transform="matrix(1,0,0,1,2821.6890128696023,11913.652234327672) translate(138.67838541666669 18.880208333333336)"/><use xlink:href="#f" transform="matrix(1,0,0,1,2821.6890128696023,11913.652234327672) translate(216.63541666666669 18.880208333333336)"/><use xlink:href="#g" transform="matrix(1,0,0,1,2821.6890128696023,11913.652234327672) translate(252.23697916666669 18.880208333333336)"/><use xlink:href="#h" transform="matrix(1,0,0,1,2821.6890128696023,11913.652234327672) translate(315.69270833333337 18.880208333333336)"/><path d="M2735.25 11926.43h40.8" stroke="#6c6e83" stroke-width="1.5" fill="none"/><path d="M2735.27 11927.16h-.77v-1.45h.77z" stroke="#6c6e83" stroke-width=".05" fill="#6c6e83"/><path d="M2791.07 11926.43l-14.26 4.64v-9.27z" stroke="#6c6e83" stroke-width="1.5" fill="#6c6e83"/><path d="M2448.2 11640a6 6 0 0 1 6-6H2895a6 6 0 0 1 6 6v38.3a6 6 0 0 1-6 6h-440.8a6 6 0 0 1-6-6z" stroke="#6c6e83" fill="#fff"/><path d="M2475 11641.55h426v37.45h-426z" fill="none"/><use xlink:href="#i" transform="matrix(1,0,0,1,2475,11641.553411652052) translate(0 25.380208333333336)"/><use xlink:href="#j" transform="matrix(1,0,0,1,2475,11641.553411652052) translate(117.6328125 25.380208333333336)"/><use xlink:href="#k" transform="matrix(1,0,0,1,2475,11641.553411652052) translate(221.16536458333331 25.380208333333336)"/><use xlink:href="#l" transform="matrix(1,0,0,1,2475,11641.553411652052) translate(237.38932291666666 25.380208333333336)"/><use xlink:href="#m" transform="matrix(1,0,0,1,2475,11641.553411652052) translate(325.36328125 25.380208333333336)"/><path d="M2448.2 11742.28a6 6 0 0 1 6-6h226.14a6 6 0 0 1 6 6v38.3a6 6 0 0 1-6 6H2454.2a6 6 0 0 1-6-6z" stroke="#6c6e83" fill="#fff"/><path d="M2473.05 11749.83h212v24.15h-212z" fill="none"/><use xlink:href="#n" transform="matrix(1,0,0,1,2473.054283427761,11749.831604493014) translate(0 18.880208333333336)"/><use xlink:href="#o" transform="matrix(1,0,0,1,2473.054283427761,11749.831604493014) translate(59.9921875 18.880208333333336)"/><use xlink:href="#p" transform="matrix(1,0,0,1,2473.054283427761,11749.831604493014) translate(85.55859375 18.880208333333336)"/><use xlink:href="#q" transform="matrix(1,0,0,1,2473.054283427761,11749.831604493014) translate(116.44791666666667 18.880208333333336)"/><path d="M2746 11742.28a6 6 0 0 1 6-6h287a6 6 0 0 1 6 6v38.3a6 6 0 0 1-6 6h-287a6 6 0 0 1-6-6z" stroke="#6c6e83" fill="#fff"/><path d="M2772.35 11750.4h266.4v23.58h-266.4z" fill="none"/><use xlink:href="#r" transform="matrix(1,0,0,1,2772.3487356154833,11750.411823096172) translate(0 18.380208333333336)"/><use xlink:href="#s" transform="matrix(1,0,0,1,2772.3487356154833,11750.411823096172) translate(40.46875 18.380208333333336)"/><use xlink:href="#t" transform="matrix(1,0,0,1,2772.3487356154833,11750.411823096172) translate(76.0703125 18.380208333333336)"/><use xlink:href="#p" transform="matrix(1,0,0,1,2772.3487356154833,11750.411823096172) translate(145.47786458333334 18.380208333333336)"/><use xlink:href="#q" transform="matrix(1,0,0,1,2772.3487356154833,11750.411823096172) translate(176.3671875 18.380208333333336)"/><path d="M2716 11783.58v-47.08M2716 11783.57v.76M2716 11736.52v-.77" stroke="#6c6e83" stroke-width="1.5" fill="none"/><path d="M2004.18 12235.8a19.2 19.2 0 0 1 19.2-19.22h128.4a19.2 19.2 0 0 1 19.2 19.2 19.2 19.2 0 0 1-19.2 19.22h-128.4a19.2 19.2 0 0 1-19.2-19.2z" stroke="#6c6e83" fill="#fff"/><path d="M2080.58 12218.58h99.4v33.42h-99.4z" fill="none"/><use xlink:href="#u" transform="matrix(1,0,0,1,2080.5755938024786,12218.57749953966) translate(0 23.380208333333336)"/><path d="M2010.83 12287.24c27.6 0 50-22.32 50-49.98 0-27.57-22.4-49.98-50-49.98s-50 22.4-50 49.98c0 27.66 22.4 49.98 50 49.98z" stroke="#6c6e83" fill="#a2c6f6"/><path d="M2010.83 12286.13c26.9 0 48.8-21.8 48.8-48.77 0-26.96-21.9-48.77-48.8-48.77-27 0-48.8 21.8-48.8 48.76 0 26.96 21.8 48.76 48.8 48.76z" stroke="#000" stroke-opacity="0" fill="#a2c6f6"/><path d="M2031.72 12215.65c0-.2-.1-.4-.1-.6.2-.4.2-.8.2-1.22 0-1-.7-1.82-1.3-2.62-.7-1-1.4-2-2.2-2.82-.4-.4-.8-.8-1.2-1-.6-.3-1.1-.4-1.6-1.02-1-1.52-2.1-2.63-3.8-3.23-1.1-.4-2.3-.4-3.5-.3-.6-.7-1.7-1.1-2.8-1.1-.7-.12-1.5.2-2.3.1-.6-.1-1-.52-1.6-.62-1.2-.2-2.5.1-3.6.4-1.3.42-2.3 1.02-3.5 1.73-.7.4-1.4.2-2.2.3-.5 0-1 .2-1.5.4-1.8.8-2.9 2.43-3.4 4.25-1.2.1-2.2.6-3 1.4-1.4 1.42-1.4 3.04-1.3 4.86 0 .7 0 1.3-.2 1.92-.1.6-.3 1.1-.5 1.6-.3 1.12-.2 2.13 0 3.24l.9 5.76c-.4.9-.3 2.12.4 3.03.2.2.6.5.9.7.5.4 1 .9 1.4 1.5.5.82 1.1 1.62 1.8 2.33 3 2.93 7.3 3.84 11.4 3.54 2.5-.2 4.8-1 7.3-1.22 1.2-.1 2.4-.1 3.6-.3 1.1-.3 2.1-.7 3-1.2 3.6-1.73 6.9-4.86 7.3-9 0-.8 0-1.5.3-2.22.2-.5.5-1 .7-1.5.3-1.12-.3-2.44 0-3.65.2-1.1.5-2.22.4-3.43z" stroke="#000" stroke-opacity="0" fill="#33261a"/><path d="M2032.33 12267.75c-3.6-2.22-8.8-3.13-10.6-7.37-.9-2.32-.5-5.15-.5-7.57v-7.37c0-.3-.4-.4-.5-.1-1 1.42-4 1.32-5.5 1.42-1.7.1-3.5.2-5.3.2-3.1 0-6.7.3-9.5-1.2 0-.42-.1-.72-.1-1.12 0-.3-.6-.3-.6 0 0 .4.1.7.1 1.1-.1 0-.1.1-.1.1 0 .1.1.2.1.2.1 1.12.1 2.23.2 3.34.2 2.93.3 5.86.3 8.8.1.9.1 1.9.1 2.8-.9 1.93-2.3 3.75-3.9 5.26-1.3 1.22-2.7 2.33-4.2 3.24-1.1.8-2.5 1.3-3.3 2.52v.2c0 .1.1.1.1.2 3.4 1.6 6.9 3.12 10.5 4.54 3.3 1.2 7.1 2.92 10.8 2.52 1.6-.2 2.9-.9 4.3-1.72 1.7-1 3.4-1.9 5.1-2.82.8-.5 1.6-.9 2.4-1.32 3.3-.2 6.5-1.1 9.5-2.52.6-.3 1.7-.6 2.1-1.2.8-1.02-.8-1.73-1.5-2.13z" stroke="#000" stroke-opacity="0" fill="#b86554"/><path d="M2025.13 12239.98c.2-.8.3-1.6.5-2.52 0-.2 0-.3.1-.5l.3-1.52c0-.3.1-.6.1-.9.1-.82.2-1.53.4-2.23l.3-2.3c.9-6.58 1.4-12.33 1.2-12.84-.8-2.22-2.3-3.23-4-4.54-.3-.3-.6-.5-.9-.7-.3-.2-.5-.4-.8-.6-1.7-1.53-4.2-1.93-6.4-2.03-5.2-.2-10.2 0-14.8 2.5-.7.32-1.3.72-1.9 1.22-.1.1-.3.2-.5.3-.6.6-1.2 1.22-1.7 2.03-.5.7-.8 1.5-.9 2.42-.2 1.2-.1 2.42-.4 3.73v.2c-.2 1.02-.2 3.74-.1 6.97v2.33c.1.8.1 1.6.1 2.42.1.7.1 1.5.2 2.22v.6c.1.5.1.92.1 1.42.1.4.1.9.2 1.3.2 1.73.4 3.04.7 4.05.6 2.23 1.6 4.35 3 6.27 1.9 2.52 4.4 4.55 7.4 5.25 1.2.4 2.5.5 3.8.4.8-.1 1.6-.2 2.3-.4.5-.1 1-.2 1.5-.4 1.6-.4 3.1-1.2 4.4-2.22 1.8-1.42 3.2-3.34 4.1-5.56.6-1.5 1.2-3.83 1.7-6.36z" stroke="#000" stroke-opacity="0" fill="#b86554"/><path d="M2029.63 12229.68c-.4-1.5-2.1-2.32-3.1-.8-.1.2.1.4.3.4-.8 1.4-1.3 3.03-1.8 4.64-.3 1.1-1.1 2.93-.8 4.14.5 2.12 3.3-.2 4-1 1.7-2.02 2-4.95 1.4-7.38zM1993.13 12234.93c.5.9 3 3.54 3.8 1.52.4-1.2-.1-3.03-.3-4.24-.2-1.7.1-2.82-.5-4.33.2 0-.2-.6-.3-.9-.8-1.63-2.6-1.02-3.2.4-.9 2.4-1 5.34.5 7.56z" stroke="#000" stroke-opacity="0" fill="#b86554"/><path d="M2020.13 12231.1c.1-.6.2-1.22.1-1.72 0-.3-.1-.6-.3-.8-.6-.6-1.3-.1-1.4.5-.3.8-.3 2.52.4 2.93.7.4 1-.1 1.2-.9zM2003.92 12230.3c.1-.52.2-1.12.1-1.73 0-.3-.2-.5-.3-.7-.6-.6-1.3-.1-1.4.5-.3.8-.3 2.42.4 2.83.8.4 1.1-.1 1.2-.9z" stroke="#000" stroke-opacity="0" fill="#33261a"/><path d="M2027.72 12230.5v-.1c0-.1 0-.1-.1-.2h-.2-.1c-.1 0-.1.1-.1.1-.1 0-.1.1-.1.1V12230.7l-.3 1.2c-.1.4-.5.9-.4 1.32 0 .2.1.3.2.4.2.4.3.7.3 1.1 0 .42-.4 1.73-1 1.43-.4-.1-.7.4-.3.5 1 .5 1.8-.9 1.9-1.82 0-.2 0-.5-.1-.7 0-.3-.4-.6-.4-.9-.1-.32.3-.92.4-1.22l.3-1.5zM1995.63 12234.43c-1-.9-1.2-1.62-.4-2.22l.4-.4c.1-.2.1-.3.1-.5.1-1-.4-2.22-.7-3.23-.1-.3-.7-.2-.6.2.2.7.9 2.52.7 3.13-.2.6-.8.8-1 1.4-.2 1.02.4 1.83 1.3 2.13.4.1.5-.4.2-.5zM2017.13 12254.12c-.3-.5-1.4-.2-3.1.5-2.6.9-6.2.1-8.6-1-1.9-.92-3.9-2.63-5.4-4.35.2 3.03.3 5.96.3 8.9h.6c1.2 0 2.4.6 3.6.7 1 0 1.8-.5 2.7-.7 1.2-.42 2.4 0 3.7-.22.9-.1 1.8-.6 2.6-1.1 1-.6 4.2-1.32 3.6-2.73zM2013.83 12236.85c-.2-1.5-.4-3.13-.7-4.64-.1-.4-.7-.3-.6 0 .4 2.03.7 4.15.9 6.17 0 .7.3 1.2-.6 1.6-.6.32-1.5.2-2.1.1-.8-.1-1.4-.1-2.2-.1-.4.1-.4.72 0 .62 1.4-.1 4.6.9 5.4-.72.4-.8 0-2.22-.1-3.03z" stroke="#000" stroke-opacity="0" fill="#9c4736"/><path d="M1998.72 12225.04c.1.6.8.8 1.4.8 1.4.2 2.9 0 4.3 0 .8 0 2.6.3 3.3-.3 1.5-1.2-1.5-2.02-2.3-2.12-1.4-.2-2.8-.2-4.2.1-.5.1-2.7.9-2.5 1.52zM2022.72 12224.53c-1.3-.3-2.8-.4-4.2-.3-.7.1-3.8.7-2.3 2.02.6.6 2.4.4 3.2.4 1.5.1 2.9.3 4.4.3.5 0 1.2-.2 1.4-.8.3-.6-1.9-1.5-2.5-1.62z" stroke="#000" stroke-opacity="0" fill="#33261a"/><path d="M2008.22 12243.72c-.6-.1-1.3-.3-1.9-.6-.1 0-1-.2-1.1-.4.2.6.9 1.3 1.3 1.8.9 1.22 1.7 1.62 3.1 1.72 1.6.1 3.5-.1 4.9-1 0 0 1.6-1.12 1.8-2.23-.1.2-2 .62-2.9.82-.8.1-3.4.2-5.2-.1z" stroke="#000" stroke-opacity="0" fill="#9c4736"/><path d="M2038.72 12273.3l-.3-4.14v-.1h-.1l-4.3-1.82c-1.4-.6-7.2-2.12-7.2-2.12s-13 11.1-14.5 11.4c-1.6.32-15.4-10.6-15.4-10.6s-5.7 1.83-7.3 2.94c-2.9 2.12-2.1 5.75-1.9 8.78 2.4 14.64 49.9 12.12 51-4.34z" stroke="#000" stroke-opacity="0" fill="#fff8f0"/><path d="M1991.33 12283.7s.3 1.3.7-1.2c.7-4.96 2.2-15.66 2.1-15.66-.2 0-.4 0-.5.1h-.1c-4.9 1.1-9.6 4.54-14.3 6.56-3.5 1.42-1.3 1.62-1.3 1.62l13.4 8.58zM2046.13 12270.88c-1.7-1.3-3.6-1.92-5.6-2.53-2.5-.7-4.5-.9-6.9-1.6-.6-.2-3.3-.72-3.3-.72 0 6.26-1.2 18.38 0 17.67 8.5-4.85 16.6-10.1 15.8-12.82z" stroke="#000" stroke-opacity="0" fill="#456664"/><path d="M2000.92 12285c-.5-1-1-2-1.3-3.12l-.1-.1c-.1 0-.1 0-.1-.1h-.2c0 .1-.1.1-.1.1-1 1-1.9 1.92-2.8 3.03-.2.32.2.72.5.42.7-.9 1.5-1.82 2.4-2.63.3.9.7 1.8 1.2 2.72.2.3.7 0 .5-.3zM2027.22 12277.74c-.5-.9-1-1.7-1.5-2.52-.2-.3-.4-.6-.8-.5-.5 0-1 .7-1.3 1-.6.6-1.2 1.32-1.7 2.02-.2.3.2.7.5.4.6-.9 1.3-1.7 2.1-2.52.4-.3.3-.3.7-.1.2.2.3.6.5.8.3.52.7 1.12 1 1.73.2.3.7 0 .5-.3zM2017.53 12287.34c-.5-.9-.9-1.92-1.4-2.73-.2-.2-.4-.5-.8-.4-.4 0-.9.8-1.1 1.12l-2 2.42c-.3.3.2.7.4.4.8-1 1.5-2.22 2.5-3.02.2-.2.1-.3.5-.1.1 0 .3.6.4.8l1 1.82c.2.3.7 0 .5-.3zM1999.83 12272c-.3-.72-.7-1.52-1.1-2.23-.2-.4-.6-1.2-1.1-1.2-.5-.1-1 .6-1.3.9-.7.6-1.4 1.3-2 2.1-.3.32.2.72.4.42.4-.52.7-.92 1.1-1.22.3-.4.9-1.1 1.3-1.32.7-.3.9.4 1.2.9.4.62.7 1.22.9 1.83.2.4.7.2.6-.2z" stroke="#000" stroke-opacity="0" fill="#aeb5c2"/><path d="M2028.92 12216.86c-.3-.7-.9-1.3-1.4-2.02-.7-.7-1.3-1.5-2-2.12-1.4-1.4-2.9-2.52-4.7-3.33-3.6-1.53-7.7-1.32-11.4-.62-2.1.5-4.2 1.1-6.3 1.82-1.7.6-3.5 1.1-4.9 2.22-3.5 3.03-2.5 8.18-3.4 12.12v.1h.1c.3 1.1.4 2.22.8 3.23.1.4.4.8.8.7.6-.3.6-1.5.7-2 .1-1.12 0-2.23.3-3.34.4-1 .4-1.92.6-2.93.2-1.32.7-2.22 1.5-3.23 1.3-1.52 2.4-3.23 3.1-5.15.4.1.7.1 1.1.1.9 0 1.8 0 2.6.1 1.8 0 3.7.1 5.5.1 3.6.2 7.1.6 10.7 1h.1c2.4 1.12 2.1 4.86 2.4 7.08.2 1.5.4 3.03.8 4.54.1.8 0 1.62 0 2.42-.1.7-.3 1.42-.4 2.12 0 .3 0 .6.3.7.5.52.8-.3.9-.7.2-.5.4-1.1.6-1.7.3-.52.5-1.12.6-1.73.2-1.1.3-2.22.5-3.33.2-1 .3-2.12.5-3.13.1-1.02.3-2.03 0-3.04z" stroke="#000" stroke-opacity="0" fill="#33261a"/><path d="M2010.83 12287.24c27.6 0 50-22.32 50-49.98 0-27.57-22.4-49.98-50-49.98s-50 22.4-50 49.98c0 27.66 22.4 49.98 50 49.98z" stroke="#6c6e83" fill-opacity="0"/><path d="M2448.2 12218.6a6 6 0 0 1 6-6h293.54a6 6 0 0 1 6 6v38.3a6 6 0 0 1-6 6H2454.2a6 6 0 0 1-6-6z" stroke="#6c6e83" fill="#fff"/><path d="M2481.08 12222.98h269.5v29.02h-269.5z" fill="none"/><use xlink:href="#v" transform="matrix(1,0,0,1,2481.083820434088,12222.98138473252) translate(0 21.380208333333336)"/><use xlink:href="#w" transform="matrix(1,0,0,1,2481.083820434088,12222.98138473252) translate(51.32421875 21.380208333333336)"/><use xlink:href="#x" transform="matrix(1,0,0,1,2481.083820434088,12222.98138473252) translate(85.75 21.380208333333336)"/><use xlink:href="#y" transform="matrix(1,0,0,1,2481.083820434088,12222.98138473252) translate(129.80989583333334 21.380208333333336)"/><use xlink:href="#z" transform="matrix(1,0,0,1,2481.083820434088,12222.98138473252) translate(170.515625 21.380208333333336)"/><path d="M2755 12236.4h40.84" stroke="#6c6e83" stroke-width="1.5" fill="none"/><path d="M2755 12237.13h-.76v-1.45h.77z" stroke="#6c6e83" stroke-width=".05" fill="#6c6e83"/><path d="M2810.85 12236.4l-14.26 4.64v-9.28z" stroke="#6c6e83" stroke-width="1.5" fill="#6c6e83"/><path d="M2813.78 12218.6a6 6 0 0 1 6-6h392.55a6 6 0 0 1 6 6v38.3a6 6 0 0 1-6 6h-392.55a6 6 0 0 1-6-6z" stroke="#6c6e83" fill="#fff"/><path d="M2841.04 12223.42h353.83v30.58h-353.83z" fill="none"/><use xlink:href="#A" transform="matrix(1,0,0,1,2841.036157602661,12223.41567301487) translate(0 21.880208333333336)"/><use xlink:href="#B" transform="matrix(1,0,0,1,2841.036157602661,12223.41567301487) translate(46.52083333333334 21.880208333333336)"/><use xlink:href="#C" transform="matrix(1,0,0,1,2841.036157602661,12223.41567301487) translate(169.04817708333334 21.880208333333336)"/><use xlink:href="#D" transform="matrix(1,0,0,1,2841.036157602661,12223.41567301487) translate(234.53645833333337 21.880208333333336)"/><path d="M2025.97 11974.9a20.1 20.1 0 0 1 20.1-20.1h268.56a20.1 20.1 0 0 1 20.1 20.1 20.1 20.1 0 0 1-20.1 20.1h-268.56a20.1 20.1 0 0 1-20.1-20.1z" stroke="#6c6e83" fill="#fff"/><path d="M2082.3 11959.1h252.43v31.9H2082.3z" fill="none"/><use xlink:href="#E" transform="matrix(1,0,0,1,2082.30137285152,11959.09500809805) translate(0 22.380208333333336)"/><use xlink:href="#F" transform="matrix(1,0,0,1,2082.30137285152,11959.09500809805) translate(76.11588541666667 22.380208333333336)"/><path d="M2015.97 12025.28c27.6 0 50-22.4 50-50.02 0-27.6-22.4-50.02-50-50.02s-50 22.4-50 50.02c0 27.6 22.4 50.02 50 50.02z" stroke="#6c6e83" fill="#a2c6f6"/><path d="M2015.97 11926.34c26.9 0 48.7 21.9 48.7 48.82 0 26.9-21.8 48.82-48.7 48.82-26.9 0-48.7-21.9-48.7-48.82 0-26.9 21.8-48.82 48.7-48.82z" stroke="#000" stroke-opacity="0" fill="#a2c6f6"/><path d="M2036.67 11978.76c-.6-3.2-.4-6.4-.6-9.6-.3-2.6-.7-5.2-1.3-7.8-.5-2.4-.4-4.9-.9-7.3-.9-4.1-2.3-9.3-6.1-11.4-1.1-.62-2.3-.92-3.5-1.02-1.3 0-2.5.3-3.6.8 0 0-10.7-3.4-18.2 1.8-2.4 1.6-3.6 5.9-4.7 8.4-2.3 4.7-1.8 9.7-1.9 14.82-.2 3-.8 5.5-2.2 8.3-1 2-1.2 3.8-.6 6 .4 1.5.7 2.9.3 4.4-.4 1.2-1 2.3-.9 3.6 0 1.9 1.4 3.5 2.8 4.6.9.7 1.8 1.2 2.7 1.8-.5.7-.8 1.5-.1 1.9 1.7 1.1 3.7 1.7 5.7 2.3 2.3.7 4.6 1.4 7 1.9 4.4.9 12.7-.8 18.5-2.4h.1c1.9 0 4.2-.2 5.8-1.2 1.7-1 2.5-3.1 2.8-4.9.8-4.8-.2-10.3-1.1-15z" stroke="#000" stroke-opacity="0" fill="#b06d51"/><path d="M2034.87 11997.87c-.1-1.5-.3-3.1-.4-4.6-.2-1.2-.2-2.5-.7-3.6-.4-.8-.9-1.3-1.1-2.3-.2-.9-.2-1.7-.3-2.6-.1-1.8-.2-3.6-.4-5.4-.3-3.7-.5-7.4-.8-11.2 0 0 0-.1-.1-.1 0-.1-.1-.1-.1-.1-.1-.1-.1-.1-.2-.1 0 .1-.1.1-.1.1-1.9 1.8-4.2 3-6.5 4.1-2.9 1.4-5.4 2.3-8.6 1.3-2.7-.9-4.9-2.6-7.4-3.9-1.1-.5-3.6-2-4.7-.9-.6.6-.8 1.8-1.2 2.5-.5 1-1.1 2-1.7 2.9-1.2 1.7-2.2 3.4-2.5 5.5-.1 1.4 0 2.9-.7 4.3-.6 1.1-1.5 1.9-2 3.1-.8 1.6-1.1 3.5-.9 5.3v.2c0 .1 0 .1.1.2v.3c.1.2.3.3.5.1.4.8.6 2.6.8 3.1.5 1 1.1 1.9 1.9 2.7 1.8 2 4.3 3.2 6.8 4.3 2.4 1 4.8 2 7.5 2.3 3 .3 5.8 1.6 8.8 1.8 2.9.3 5.8.1 8.7.5 2.1.3 4.2 0 5.1-2.2.9-2.3.4-5.2.2-7.6z" stroke="#000" stroke-opacity="0" fill="#8f5238"/><path d="M2027.37 11975.66c0-.2-.3-.4-.5-.2-.4.5-.7 1.2-1.2 1.6-.5.5-1.2.8-1.8 1-1.6.6-3.3 1-5 1.3-1.5.2-3.1.2-4.6.1-1-.1-1.9-.1-2.8.2 0-.4-.1-.7-.1-1.1 0-.4-.6-.4-.5 0 0 .4 0 .9.1 1.3-.3.2-.2.5 0 .6.1.6.1 1.2.1 1.9.1.3.1.6.1.9l.3 6.9v.2c0 2 .1 4.1 0 6.1-.3.7-.6 1.5-.3 2 .3.4 1.1.4 1.6.5l2.8.3c3.9.2 7.9-.4 11.6-1.7.1 0 .1-.1.2-.1v-.2-21.6z" stroke="#000" stroke-opacity="0" fill="#ffa894"/><path d="M2027.67 11951.55c-1.1-.7-5-.2-6.2-.1-2.1.3-4.1.7-6.1 1-4.6.8-8.4 1.4-12.7 3.1-.1 0-.2.1-.3.2v.3l-.1.1v.1c.5 5.5 1.8 15.9 4.5 21.6 1.4 3.1 5.2 6.6 8.4 7.9 6.7 2.72 10.2-1.3 13.1-6.2 3.3-5.8 2.4-11.8 1.4-18-.2-1.7-1-9.2-2-10z" stroke="#000" stroke-opacity="0" fill="#ffa894"/><path d="M2024.47 11965.06c0-.5-.1-1.1-.2-1.6-.1-.3-.2-.5-.4-.7-.6-.4-1.2.2-1.3.8 0 .7.2 2.2.9 2.5.7.3.9-.3 1-1zM2010.77 11967.16c0-.6-.1-1.1-.3-1.6-.1-.3-.2-.5-.4-.7-.6-.4-1.1.2-1.2.8-.1.7.2 2.2.9 2.4.8.3.9-.2 1-.9z" stroke="#000" stroke-opacity="0" fill="#232c44"/><path d="M2032.47 11962.35c-.7-1.7-2-1.4-2.9-.4h-.2s-.1 0-.1.1c-.2.3-.4.6-.5 1v.1c-.2.7-.2 1.5-.1 2.3.1 1.7.4 3.4.7 5.1.4 2.7 2.1.1 2.8-1 1.3-2 1.3-5 .3-7.2zM2002.97 11973.46c1 .9 3.3 3 3 .3l-.6-5.1c-.1-.8-.3-1.6-.7-2.3h-.1c-.2-.4-.4-.6-.7-.9 0 0-.1 0-.2-.1l-.1.1c-1.1-.7-2.5-.7-2.7 1.1-.4 2.4.3 5.3 2.1 6.9z" stroke="#000" stroke-opacity="0" fill="#ffa894"/><path d="M2031.37 11966.66c-.1-.5-.3-.6-.6-1-.3-.6 0-1.5 0-2.1.1-.4-.5-.4-.6 0 0 .5-.3 1.6-.1 2.2.1.2.3.2.4.4.6.6.4 1.5-.3 2-.3.2 0 .7.3.5.7-.5 1.1-1.2.9-2zM2004.67 11971.66c-.3-.2-.7-.5-.8-.9-.1-.5.1-.8.3-1.2 0-.1.1-.2 0-.4 0-.3-.3-.7-.4-1-.3-.5-.5-1-.8-1.5-.1-.4-.6-.1-.5.3.3.6.9 1.3 1 2 .1.4.1.2 0 .6-.1.3-.2.4-.2.7-.1.8.4 1.5 1.1 1.9.4.2.7-.3.3-.5z" stroke="#000" stroke-opacity="0" fill="#f7886d"/><path d="M2012.47 11961.25c-1.1-.7-2.6-.4-3.7 0-1.2.3-2.5 1.3-2.8 2.4-.1.1-.1.2 0 .2 0 .1 0 .2.1.2.3.2.3.1.6.1.9-.2 1.7-.8 2.5-1 .8-.3 1.6-.4 2.4-.5.4 0 1 0 1.3-.3.4-.4 0-.9-.4-1.1zM2019.77 11961.05c.4.2.9 0 1.3-.1.8-.2 1.6-.3 2.4-.4.9 0 1.8.3 2.6.2.4-.1.4 0 .7-.3v-.2-.2c-.8-1-2.3-1.4-3.5-1.4-1.2.1-2.8.2-3.6 1.2-.3.4-.4.9.1 1.2z" stroke="#000" stroke-opacity="0" fill="#b06d51"/><path d="M2026.37 11982.36c-2.2 2.1-4.1 3.8-6.7 4.1-1.5.1-6.3-1.4-8.5-3.2l.3 6.9c.3 0 .6.1 1.5.2.5.1.9.2 1.5.1 1.3-.3 2.2-.9 3.7-.6.7.1 1.4.3 2.2 0 .5-.2.9-.5 1.3-.9.8-.8 1.5-1.5 2.4-2.2 1.3-.9 1.4-1.4 2-2.9.1-.3.5-1.6.3-1.5z" stroke="#000" stroke-opacity="0" fill="#f7886d"/><path d="M2022.47 11975.96c-.6 0-7.8 1.2-8 1.1-.1 0-.2.1-.2.2.2.6 1.2 1 1.8 1.2.9.3 1.9.3 2.8.2.8-.1 1.5-.4 2.2-.7.7-.4 1.3-1.1 1.5-1.9v-.1h-.1z" stroke="#000" stroke-opacity="0" fill="#fff"/><path d="M2046.47 12015.58c3.3-2.3 5.9-4.9 5.8-8.4v-.1c0-.2 0-.4-.1-.6-.4-2.6-.8-5.1-2.4-7.2-.8-1-1.7-1.9-2.8-2.6-.1-.1-.3-.1-.4-.2-.2-.1-.4-.2-.6-.4-.4-.2-.7-.3-1.1-.5-2.6-1.1-7.8-2.2-10.8-2.7-.3-.1-.6-.1-.9-.2h-.4c-.4-.1-.7-.1-.9-.1-.1-.1-.2-.1-.2 0-.6-2.6.9-6.62-2.7-6.32-1.7.1-2.8 1.6-4.4 2.1-1.2.4-6.9.1-8 .2-2.6.2-3.3-.2-5.8-1.2-1.1-.5-2.5-1-3.1.5-.2.6-.2 1.2 0 1.8.3 1 .5 1.8.5 2.7-.2 0-.4-.1-.6-.2h-.2l-.9-.3h-.1c-.3 0-.6-.1-.8-.1-1.2-.2-2.4-.2-3.6-.4-.5-.1-1.1-.3-1.6-.4-1.4 1.7-3 2.8-5.2 3.4-.5.1-1 .2-1.6.4h-.1l-.9.6c-.3.2-.5.4-.8.5l-.4.4c-.6.5-1.2 1-1.7 1.6-.2.2-.8.7-.8 1l.3-.4c-.1.1-.2.3-.4.5l-1.2 2.1-1.2 2.4c0 .1 0 .1-.1.2-.1.4-.3.7-.4 1.1-.5 1.3-1 2.7-1.6 4.1 0 1.6-.7 3.22.3 4.82 7.2 10.4 37.5 19 61.9 1.9z" stroke="#000" stroke-opacity="0" fill="#fad3b1"/><path d="M2019.07 11973.06c-.3.1-1.1.2-1.5.1-.8-.2-.7-1-.7-1.7-.1-.9-.1-1.8-.1-2.7.1-.4-.5-.4-.6 0 0 .9 0 1.8.1 2.7 0 .5 0 1.1.2 1.6.5 1.1 1.9.7 2.8.6.4-.1.2-.6-.2-.6z" stroke="#000" stroke-opacity="0" fill="#f7886d"/><path d="M2056.17 12004.87c.8-4.8-9.2-8.2-9.2-8.2-.8 1-13 17-13.8 17.9-.2.3.3 1.4 2.3 7.1.3.9 20.1-12.5 20.7-16.8zM2002.47 12023.68c2-5.6 3.3-9.7 3.1-10-.8-.8-13.1-16.9-13.8-17.8v-.1s-12.4 7.6-12.4 13.7c9.8 9.7 15.9 11 23.1 14.2z" stroke="#000" stroke-opacity="0" fill="#fad3b1"/><path d="M2045.97 11996.17c-.1.2-.2.4-.2.6-.6 1.7-.8 3.4-2.9 3.9-1.6.4-3.3-.1-4.9-.4-.9-.1-1.8-.3-2.7.1-1 .5-1.7 1.6-2.5 2.4-1.1 1.1-2.4 2.2-4.1 2.5-3.1.6-4.6-2.7-7.5-3.2-2.7-.3-5.3 1.1-8 1.1-1.7.1-4-.2-4.9-1.7-.5-.9-.2-1.2-.4-2.1 0-.4-.2-.7-.5-1-.6-.6-1.8-.7-2.6-.9-1.6-.4-3.2-.7-4.7-1.2-1.5-.4-2.3-1.5-2.7-2.7-.2.1-.5.1-.7.2.3.9.7 1.7 1.4 2.2 2.1 1.8 5.6 1.3 8 2.4 2 .8.7 2.4 1.6 3.7.5.8 1.6 1.1 2.5 1.3 2.6.8 5 .2 7.6-.4 1.7-.4 3.5-.6 5.2.4 1.1.7 1.9 1.7 3.1 2.2 2 .9 4.2.1 5.8-1.2 1.2-.9 2-2.2 3.1-3 1.5-1.2 3.5-.3 5.2-.1 2.1.3 4.7 0 5.6-2.3.3-.9.5-1.7.8-2.5l-.6-.3z" stroke="#000" stroke-opacity="0" fill="#fff"/><path d="M2048.97 12002.27c-1.7 3.1-3.2 6.3-4.6 9.5-.1.4.4.7.5.3 1.4-3.2 2.9-6.4 4.6-9.5.2-.3-.4-.6-.5-.3zM2028.27 11994.77c-6.2 3.8-13.7 3.3-19.1-1.5-.3-.2-.7.2-.5.5 5.7 4.9 13.5 5.5 19.9 1.5.3-.2 0-.7-.3-.5zM2029.17 11990.77c-5 1.1-10.1 2.1-15.2 1-.4-.1-.5.5-.1.5 5.2 1.2 10.4.1 15.5-.9.3-.1.2-.7-.2-.6z" stroke="#000" stroke-opacity="0" fill="#ebbd94"/><path d="M2028.97 11953.15c-.6-2.1-1.6-3.1-3.7-3.6-4.3-.9-8.9-.3-12.8 1.5-.1-.1-.1-.1-.2-.1h-.1c.1-.3.1-.7.1-1.1 0-.3-.5-.3-.6 0 0 .5 0 .9-.1 1.3-1.5.4-3.1.8-4.6 1.3-1.3.5-3.2.8-4.4 1.6-.8.5-.9 1.8-1.1 2.7-.3 1.5-.5 3.1-.6 4.6 0 .7 0 1.4.1 2-.8 2-1.4 4.2-1.6 6.3-.4 3.4 0 6.7.5 10 0 .1 0 .1.1.1-.1.8-.2 1.6-.4 2.4-.6 3.3-1.8 6.6-2 10.02-.2 3.4 1.6 7.5 0 10.7-.6 1.1-1.1 2.2-1.1 3.5-.1 1.6.3 3.1.6 4.6l.1.1c.1.1.1.1.2.1 1.8.1 3.7.1 5.5.1.1 0 .2 0 .2-.1.1 0 .1-.1.1-.2 0-1.7-.9-3.2-.9-5 .1-1.6.8-3.1 1.2-4.6-.4 2-.4 3.9-.2 5.8.1 1.5 0 3.3 1.1 4.4 0 .1.1.1.2.1h.1c.1 0 .1-.1.2-.1v-.2c.5-5.6 1.4-11.3 1.5-16.9 0-2.8-.3-5.7-.6-8.4-.1-1.8-.3-3.5-.4-5.2.3-3.9.6-7.5.6-8.6 0-2.6 2.3-7.52 3.3-9.92 1.2-2.8 2-5.7 2.5-8.7 4-.9 8.2-1.5 12.3-1.4 1.5 0 2.4.5 3.2 1.8.5.9.9 1.9 1.1 2.9.3 1.7.1 3.4 1 4.9.2.2.5.1.5-.2.4-2.9-.2-5.7-.9-8.5z" stroke="#000" stroke-opacity="0" fill="#b06d51"/><path d="M2020.67 11947.95c.2-.3.3-.6.3-1s-.2-.8-.3-1.2c-.1-.7-.1-1.5 0-2.3 0-.4-.5-.5-.6-.2-.1.7-.1 1.5 0 2.2.2 1.2.5 1.7-.4 2.8-.2.4-.5.8-.5 1.3 0 .3.4 1.1.4 1.2-.2.4.3.7.5.3.2-.4.1-.3 0-.7 0-.4-.3-.9-.2-1.4.2-.3.7-.7.8-1zM2010.37 11947.25c-2.3 1.2-4.7 2.3-6.4 4.2-1.5 1.7-2.4 3.7-2.9 5.8-.5 2.8.5 5.6-.6 8.3-1 2.5-2 4.7-1.8 7.5 0 .4.6.4.6 0-.2-2.8.8-4.8 1.8-7.3.9-2.4.3-4.6.4-7.1.2-2.4 1.2-4.7 2.8-6.6 1.7-2 4-3.1 6.4-4.2.3-.2 0-.7-.3-.6zM2014.47 11945.85c-2.7-.5-5.3-.2-7.7 1-.4.2-.1.7.3.5 2.3-1.2 4.7-1.4 7.2-1 .4.1.5-.5.2-.5z" stroke="#000" stroke-opacity="0" fill="#8f5238"/><path d="M2015.97 12025.28c27.6 0 50-22.4 50-50.02 0-27.6-22.4-50.02-50-50.02s-50 22.4-50 50.02c0 27.6 22.4 50.02 50 50.02z" stroke="#6c6e83" fill-opacity="0"/><path d="M2449.4 11906a6 6 0 0 1 6-6H2728a6 6 0 0 1 6 6v38.3a6 6 0 0 1-6 6h-272.6a6 6 0 0 1-6-6z" stroke="#6c6e83" fill="#fff"/><path d="M2475.95 11913.65h243.75v24.75h-243.75z" fill="none"/><use xlink:href="#c" transform="matrix(1,0,0,1,2475.948830425915,11913.652234327672) translate(0 18.880208333333336)"/><use xlink:href="#G" transform="matrix(1,0,0,1,2475.948830425915,11913.652234327672) translate(100.4609375 18.880208333333336)"/><use xlink:href="#H" transform="matrix(1,0,0,1,2475.948830425915,11913.652234327672) translate(131.35026041666666 18.880208333333336)"/><use xlink:href="#I" transform="matrix(1,0,0,1,2475.948830425915,11913.652234327672) translate(187.70572916666666 18.880208333333336)"/><path d="M2449.4 12007.1a6 6 0 0 1 6-6h170.57a6 6 0 0 1 6 6v38.3a6 6 0 0 1-6 6H2455.4a6 6 0 0 1-6-6z" stroke="#6c6e83" fill="#fff"/><path d="M2477 12014.47h146.38v25.07H2477z" fill="none"/><g><use xlink:href="#J" transform="matrix(1,0,0,1,2477,12014.47250060355) translate(0 19.380208333333336)"/><use xlink:href="#K" transform="matrix(1,0,0,1,2477,12014.47250060355) translate(78.13020833333334 19.380208333333336)"/></g><path d="M2633.22 12024.9h40.64" stroke="#6c6e83" stroke-width="1.5" fill="none"/><path d="M2633.24 12024.16v1.45h-.77v-1.44z" stroke="#6c6e83" stroke-width=".05" fill="#6c6e83"/><path d="M2688.87 12024.9l-14.26 4.62v-9.27z" stroke="#6c6e83" stroke-width="1.5" fill="#6c6e83"/><path d="M2691.8 12007.1a6 6 0 0 1 6-6h283.04a6 6 0 0 1 6 6v38.3a6 6 0 0 1-6 6H2697.8a6 6 0 0 1-6-6z" stroke="#6c6e83" fill="#fff"/><path d="M2721.4 12012.9h243.63v26.64H2721.4z" fill="none"/><g><use xlink:href="#L" transform="matrix(1,0,0,1,2721.3881736722833,12012.906788885899) translate(0 19.880208333333336)"/><use xlink:href="#M" transform="matrix(1,0,0,1,2721.3881736722833,12012.906788885899) translate(65.47916666666667 19.880208333333336)"/><use xlink:href="#N" transform="matrix(1,0,0,1,2721.3881736722833,12012.906788885899) translate(106.04817708333334 19.880208333333336)"/><use xlink:href="#O" transform="matrix(1,0,0,1,2721.3881736722833,12012.906788885899) translate(176.02083333333334 19.880208333333336)"/></g><path d="M2988.38 12024.86H3029M2988.4 12024.86h-.78" stroke="#6c6e83" stroke-width="1.5" fill="none"/><path d="M3044.03 12024.86l-14.26 4.63v-9.28z" stroke="#6c6e83" stroke-width="1.5" fill="#6c6e83"/><path d="M3046.96 12007.07a6 6 0 0 1 6-6h203.24a6 6 0 0 1 6 6v38.3a6 6 0 0 1-6 6h-203.24a6 6 0 0 1-6-6z" stroke="#6c6e83" fill="#fff"/><path d="M3073.75 12012.88h164.56v26.66h-164.55z" fill="none"/><g><use xlink:href="#P" transform="matrix(1,0,0,1,3073.7500594062158,12012.875854550504) translate(0 19.880208333333336)"/><use xlink:href="#M" transform="matrix(1,0,0,1,3073.7500594062158,12012.875854550504) translate(46.11979166666667 19.880208333333336)"/><use xlink:href="#Q" transform="matrix(1,0,0,1,3073.7500594062158,12012.875854550504) translate(86.68880208333334 19.880208333333336)"/></g><path d="M3018.88 11951.3v18.4a6 6 0 0 1-6 6h-466.2a6 6 0 0 0-6 6v2.52" stroke="#3a414a" fill="none"/><path d="M3019.36 11951.3h-.95v-.5h.95z" stroke="#3a414a" stroke-width=".05" fill="#3a414a"/><path d="M2540.68 11999l-4.63-14.28h9.27z" stroke="#3a414a" fill="#3a414a"/><path d="M2961.06 11640a6 6 0 0 1 6-6h209.26a6 6 0 0 1 6 6v38.3a6 6 0 0 1-6 6h-209.26a6 6 0 0 1-6-6z" stroke="#6c6e83" fill="#fff"/><path d="M2991.2 11647.48h168.77v23.58H2991.2z" fill="none"/><g><use xlink:href="#R" transform="matrix(1,0,0,1,2991.20653512648,11647.482883294291) translate(0 18.380208333333336)"/><use xlink:href="#p" transform="matrix(1,0,0,1,2991.20653512648,11647.482883294291) translate(63.4921875 18.380208333333336)"/><use xlink:href="#q" transform="matrix(1,0,0,1,2991.20653512648,11647.482883294291) translate(94.38151041666667 18.380208333333336)"/></g><path d="M2931 11681.3v-47.08M2931 11681.3v.76M2931 11634.24v-.77" stroke="#6c6e83" stroke-width="1.5" fill="none"/><defs><path fill="#172b4d" d="M631-137c179 0 314-70 314-231 0-71-25-127-75-166s-141-77-272-115c-165-47-285-106-360-175s-112-154-112-255c0-245 231-397 495-397 206 0 369 89 449 218 43 68 65 142 65 223H942c0-184-129-283-321-283-172 0-299 76-301 236 0 59 26 109 76 150s135 78 256 113c205 59 345 116 436 256 35 53 50 119 50 193-2 256-231 398-507 390C333 12 90-129 80-422h193c0 187 160 285 358 285" id="S"/><path fill="#172b4d" d="M599-131c141 0 220-65 285-146l113 88C906-50 770 20 589 20 281 21 93-214 93-545c0-223 93-397 233-485 74-48 154-72 240-72 300 2 449 218 445 537v77H278c0 197 129 357 321 357zm227-509c-3-180-88-310-260-310-170 0-264 140-282 310h542" id="T"/><path fill="#172b4d" d="M277-555c0 244 77 420 297 424 127 2 249-93 255-210h175C980-127 805 20 574 20 258 20 81-222 92-562c11-319 164-533 481-540 237-5 426 165 431 392H829c-7-133-115-242-256-240-209 4-296 166-296 395" id="U"/><path fill="#172b4d" d="M491 20c-241-1-355-148-355-398v-704h185v699c0 164 67 246 200 246 141 0 235-53 282-158v-787h185V0H812l-4-107C736-22 630 20 491 20" id="V"/><path fill="#172b4d" d="M663-916c-163-27-288 18-338 148V0H140v-1082h180l3 125c61-97 147-145 258-145 36 0 63 5 82 14v172" id="W"/><path fill="#172b4d" d="M341 0H156v-1082h185V0zm-91-1264c-68 0-108-42-109-105 0-62 41-107 109-107s110 44 110 107-42 105-110 105" id="X"/><path fill="#172b4d" d="M456 20C285 20 205-92 206-268v-671H9v-143h197v-262h185v262h202v143H391v671c-9 125 92 149 207 118V0c-49 13-96 20-142 20" id="Y"/><path fill="#172b4d" d="M494-271l252-811h198L509 167C425 381 299 474 84 421V271c167 16 242-37 283-173l41-110L22-1082h202" id="Z"/><g id="a"><use transform="matrix(0.009114583333333334,0,0,0.009114583333333334,0,0)" xlink:href="#S"/><use transform="matrix(0.009114583333333334,0,0,0.009114583333333334,11.07421875,0)" xlink:href="#T"/><use transform="matrix(0.009114583333333334,0,0,0.009114583333333334,20.963541666666668,0)" xlink:href="#U"/><use transform="matrix(0.009114583333333334,0,0,0.009114583333333334,30.734375000000004,0)" xlink:href="#V"/><use transform="matrix(0.009114583333333334,0,0,0.009114583333333334,41.024739583333336,0)" xlink:href="#W"/><use transform="matrix(0.009114583333333334,0,0,0.009114583333333334,47.341145833333336,0)" xlink:href="#X"/><use transform="matrix(0.009114583333333334,0,0,0.009114583333333334,51.87109375,0)" xlink:href="#Y"/><use transform="matrix(0.009114583333333334,0,0,0.009114583333333334,57.96875000000001,0)" xlink:href="#Z"/></g><path fill="#172b4d" d="M341 0H156v-1536h185V0" id="aa"/><path fill="#172b4d" d="M561-1102c238-4 403 126 403 351v498c0 99 13 178 38 237V0H808c-11-21-19-59-26-114C696-25 593 20 474 20c-199 0-368-130-365-320 4-251 214-359 490-356h180v-85c-1-135-86-212-229-212-115 0-232 67-233 171H131c20-205 206-316 430-320zM294-326c0 117 90 185 207 185 122 0 239-75 278-162v-222H634c-227 0-340 66-340 199" id="ab"/><path fill="#172b4d" d="M520 20C244 20 95-247 95-550c0-298 151-550 427-552 127 0 227 43 301 130v-564h185V0H838l-9-116C755-25 652 20 520 20zm48-965c-210 0-288 177-288 416 0 218 87 392 286 392 117 0 203-53 257-158v-497c-55-102-140-153-255-153" id="ac"/><path fill="#172b4d" d="M538-131c121 0 232-49 232-156 0-50-20-88-56-117-73-60-334-92-420-143-92-55-162-110-162-238 0-190 192-317 400-317 223 0 414 129 413 338H759c0-108-110-186-227-186-119 0-215 53-215 159 0 45 18 78 53 101 76 52 331 90 416 139 98 57 169 115 169 251C955-92 760 20 538 20c-176 0-314-68-386-174-38-55-57-115-57-179h185c6 129 116 202 258 202" id="ad"/><path fill="#172b4d" d="M589-945c-131 0-219 81-264 174V0H140v-1536h185v585c82-101 189-151 320-151 229 0 346 129 346 387V0H806v-716c-2-153-65-229-217-229" id="ae"/><path fill="#172b4d" d="M632-1102c291 0 422 251 422 573 0 297-141 548-419 549-131 0-235-42-310-125v521H140v-1498h169l9 120c75-93 180-140 314-140zm-53 971c207 0 290-180 290-419 0-218-92-395-292-395-112 0-196 50-252 149v517c55 99 140 148 254 148" id="af"/><g id="b"><use transform="matrix(0.009114583333333334,0,0,0.009114583333333334,0,0)" xlink:href="#aa"/><use transform="matrix(0.009114583333333334,0,0,0.009114583333333334,4.529947916666667,0)" xlink:href="#T"/><use transform="matrix(0.009114583333333334,0,0,0.009114583333333334,14.419270833333336,0)" xlink:href="#ab"/><use transform="matrix(0.009114583333333334,0,0,0.009114583333333334,24.57291666666667,0)" xlink:href="#ac"/><use transform="matrix(0.009114583333333334,0,0,0.009114583333333334,35.10026041666667,0)" xlink:href="#T"/><use transform="matrix(0.009114583333333334,0,0,0.009114583333333334,44.98958333333334,0)" xlink:href="#W"/><use transform="matrix(0.009114583333333334,0,0,0.009114583333333334,51.30598958333334,0)" xlink:href="#ad"/><use transform="matrix(0.009114583333333334,0,0,0.009114583333333334,60.93098958333334,0)" xlink:href="#ae"/><use transform="matrix(0.009114583333333334,0,0,0.009114583333333334,71.21223958333334,0)" xlink:href="#X"/><use transform="matrix(0.009114583333333334,0,0,0.009114583333333334,75.74218750000003,0)" xlink:href="#af"/></g><path fill="#172b4d" d="M665-137c214 0 337-121 336-332v-987h193v990c-3 300-218 486-529 486-309 0-526-181-525-484v-992h190v986c-1 210 123 333 335 333" id="ag"/><path fill="#172b4d" d="M589-945c-131 0-219 81-264 174V0H140v-1082h175l6 136c83-104 191-156 324-156 229 0 346 129 346 387V0H806v-716c-2-153-65-229-217-229" id="ah"/><g id="c"><use transform="matrix(0.009114583333333334,0,0,0.009114583333333334,0,0)" xlink:href="#ag"/><use transform="matrix(0.009114583333333334,0,0,0.009114583333333334,12.104166666666668,0)" xlink:href="#ah"/><use transform="matrix(0.009114583333333334,0,0,0.009114583333333334,22.403645833333336,0)" xlink:href="#ac"/><use transform="matrix(0.009114583333333334,0,0,0.009114583333333334,32.930989583333336,0)" xlink:href="#T"/><use transform="matrix(0.009114583333333334,0,0,0.009114583333333334,42.8203125,0)" xlink:href="#W"/><use transform="matrix(0.009114583333333334,0,0,0.009114583333333334,49.13671875,0)" xlink:href="#ad"/><use transform="matrix(0.009114583333333334,0,0,0.009114583333333334,58.76171875000001,0)" xlink:href="#Y"/><use transform="matrix(0.009114583333333334,0,0,0.009114583333333334,64.859375,0)" xlink:href="#ab"/><use transform="matrix(0.009114583333333334,0,0,0.009114583333333334,75.01302083333333,0)" xlink:href="#ah"/><use transform="matrix(0.009114583333333334,0,0,0.009114583333333334,85.3125,0)" xlink:href="#ac"/></g><path fill="#172b4d" d="M442-501L326-380V0H141v-1536h185v929c135-169 291-317 436-475h225L566-630 1036 0H819" id="ai"/><path fill="#172b4d" d="M134 290L29 218c97-132 105-239 98-437h181c1 144 5 239-50 347-34 67-74 121-124 162" id="aj"/><g id="d"><use transform="matrix(0.009114583333333334,0,0,0.009114583333333334,0,0)" xlink:href="#W"/><use transform="matrix(0.009114583333333334,0,0,0.009114583333333334,6.31640625,0)" xlink:href="#X"/><use transform="matrix(0.009114583333333334,0,0,0.009114583333333334,10.846354166666668,0)" xlink:href="#ad"/><use transform="matrix(0.009114583333333334,0,0,0.009114583333333334,20.471354166666668,0)" xlink:href="#ai"/><use transform="matrix(0.009114583333333334,0,0,0.009114583333333334,29.932291666666668,0)" xlink:href="#aj"/></g><path fill="#172b4d" d="M497-251l268-831h189L566 0H425L33-1082h189" id="ak"/><path fill="#172b4d" d="M521 20C240 20 96-239 96-550c0-303 147-552 427-552 132 0 235 47 309 140l9-120h169V-26c4 277-183 454-459 452-165-1-334-81-400-187l96-111c79 98 176 147 291 147 180 1 288-109 286-290v-93C750-23 649 20 521 20zm48-965c-209 0-287 178-287 416 0 217 86 392 285 392 117 0 202-53 257-159v-494c-57-103-142-155-255-155" id="al"/><g id="e"><use transform="matrix(0.009114583333333334,0,0,0.009114583333333334,0,0)" xlink:href="#af"/><use transform="matrix(0.009114583333333334,0,0,0.009114583333333334,10.47265625,0)" xlink:href="#W"/><use transform="matrix(0.009114583333333334,0,0,0.009114583333333334,16.7890625,0)" xlink:href="#X"/><use transform="matrix(0.009114583333333334,0,0,0.009114583333333334,21.319010416666668,0)" xlink:href="#ak"/><use transform="matrix(0.009114583333333334,0,0,0.009114583333333334,30.360677083333336,0)" xlink:href="#X"/><use transform="matrix(0.009114583333333334,0,0,0.009114583333333334,34.890625,0)" xlink:href="#aa"/><use transform="matrix(0.009114583333333334,0,0,0.009114583333333334,39.420572916666664,0)" xlink:href="#T"/><use transform="matrix(0.009114583333333334,0,0,0.009114583333333334,49.30989583333333,0)" xlink:href="#al"/><use transform="matrix(0.009114583333333334,0,0,0.009114583333333334,59.78255208333333,0)" xlink:href="#T"/><use transform="matrix(0.009114583333333334,0,0,0.009114583333333334,69.671875,0)" xlink:href="#aj"/></g><g id="f"><use transform="matrix(0.009114583333333334,0,0,0.009114583333333334,0,0)" xlink:href="#ab"/><use transform="matrix(0.009114583333333334,0,0,0.009114583333333334,10.153645833333334,0)" xlink:href="#ah"/><use transform="matrix(0.009114583333333334,0,0,0.009114583333333334,20.453125,0)" xlink:href="#ac"/></g><g id="g"><use transform="matrix(0.009114583333333334,0,0,0.009114583333333334,0,0)" xlink:href="#ab"/><use transform="matrix(0.009114583333333334,0,0,0.009114583333333334,10.153645833333334,0)" xlink:href="#U"/><use transform="matrix(0.009114583333333334,0,0,0.009114583333333334,19.924479166666668,0)" xlink:href="#U"/><use transform="matrix(0.009114583333333334,0,0,0.009114583333333334,29.695312500000004,0)" xlink:href="#T"/><use transform="matrix(0.009114583333333334,0,0,0.009114583333333334,39.58463541666667,0)" xlink:href="#ad"/><use transform="matrix(0.009114583333333334,0,0,0.009114583333333334,49.20963541666667,0)" xlink:href="#ad"/></g><path fill="#172b4d" d="M584 20C278 26 81-227 91-551c10-320 175-545 491-551 308-5 503 247 494 573-9 322-175 543-492 549zm-2-970c-208 0-305 185-305 421 0 216 106 398 307 398 211 0 307-186 307-420 0-214-109-399-309-399" id="am"/><g id="h"><use transform="matrix(0.009114583333333334,0,0,0.009114583333333334,0,0)" xlink:href="#U"/><use transform="matrix(0.009114583333333334,0,0,0.009114583333333334,9.770833333333334,0)" xlink:href="#am"/><use transform="matrix(0.009114583333333334,0,0,0.009114583333333334,20.416666666666668,0)" xlink:href="#ah"/><use transform="matrix(0.009114583333333334,0,0,0.009114583333333334,30.716145833333336,0)" xlink:href="#Y"/><use transform="matrix(0.009114583333333334,0,0,0.009114583333333334,36.813802083333336,0)" xlink:href="#W"/><use transform="matrix(0.009114583333333334,0,0,0.009114583333333334,42.94791666666667,0)" xlink:href="#am"/><use transform="matrix(0.009114583333333334,0,0,0.009114583333333334,53.59375,0)" xlink:href="#aa"/><use transform="matrix(0.009114583333333334,0,0,0.009114583333333334,58.12369791666667,0)" xlink:href="#ad"/></g><path fill="#172b4d" d="M688-137c238 0 323-102 359-325h193c-32 297-228 482-552 482-361 0-569-299-569-680 0-197 8-360 73-497 88-186 257-317 513-319 316-2 509 195 535 488h-193c-31-212-118-330-342-330-272 0-397 224-393 523v141c-3 282 115 517 376 517" id="an"/><path fill="#172b4d" d="M634-1102c292 0 422 254 422 573 0 298-143 547-420 549-137 0-242-48-317-145L310 0H140v-1536h185v573c75-93 178-139 309-139zm-44 965c207 0 281-175 281-413 0-224-79-395-283-395-122 0-210 57-263 170v468c57 113 145 170 265 170" id="ao"/><g id="i"><use transform="matrix(0.009114583333333334,0,0,0.009114583333333334,0,0)" xlink:href="#an"/><use transform="matrix(0.009114583333333334,0,0,0.009114583333333334,12.149739583333334,0)" xlink:href="#Z"/><use transform="matrix(0.009114583333333334,0,0,0.009114583333333334,20.981770833333336,0)" xlink:href="#ao"/><use transform="matrix(0.009114583333333334,0,0,0.009114583333333334,31.454427083333336,0)" xlink:href="#T"/><use transform="matrix(0.009114583333333334,0,0,0.009114583333333334,41.34375,0)" xlink:href="#W"/><use transform="matrix(0.009114583333333334,0,0,0.009114583333333334,47.66015625,0)" xlink:href="#ad"/><use transform="matrix(0.009114583333333334,0,0,0.009114583333333334,57.28515625000001,0)" xlink:href="#T"/><use transform="matrix(0.009114583333333334,0,0,0.009114583333333334,67.17447916666667,0)" xlink:href="#U"/><use transform="matrix(0.009114583333333334,0,0,0.009114583333333334,76.9453125,0)" xlink:href="#V"/><use transform="matrix(0.009114583333333334,0,0,0.009114583333333334,87.23567708333333,0)" xlink:href="#W"/><use transform="matrix(0.009114583333333334,0,0,0.009114583333333334,93.55208333333333,0)" xlink:href="#X"/><use transform="matrix(0.009114583333333334,0,0,0.009114583333333334,98.08203125,0)" xlink:href="#Y"/><use transform="matrix(0.009114583333333334,0,0,0.009114583333333334,104.1796875,0)" xlink:href="#Z"/></g><path fill="#172b4d" d="M704-1390c-164-38-297 28-288 194v114h231v143H416V0H231v-939H60v-143h171v-111c-12-274 208-416 483-347" id="ap"/><path fill="#172b4d" d="M1240-945c-141 0-250 95-250 227V0H804v-709c0-157-77-236-231-236-121 0-204 52-249 155V0H139v-1082h175l5 120c79-93 186-140 321-140 151 0 254 58 309 174 69-98 181-174 345-174 237 0 362 126 362 377V0h-185v-714c-2-159-67-231-231-231" id="aq"/><path fill="#172b4d" d="M1098-255l208-827h185L1176 0h-150L763-820 507 0H357L43-1082h184l213 810 252-810h149" id="ar"/><g id="j"><use transform="matrix(0.009114583333333334,0,0,0.009114583333333334,0,0)" xlink:href="#ap"/><use transform="matrix(0.009114583333333334,0,0,0.009114583333333334,6.48046875,0)" xlink:href="#W"/><use transform="matrix(0.009114583333333334,0,0,0.009114583333333334,12.432291666666668,0)" xlink:href="#ab"/><use transform="matrix(0.009114583333333334,0,0,0.009114583333333334,22.5859375,0)" xlink:href="#aq"/><use transform="matrix(0.009114583333333334,0,0,0.009114583333333334,38.946614583333336,0)" xlink:href="#T"/><use transform="matrix(0.009114583333333334,0,0,0.009114583333333334,48.8359375,0)" xlink:href="#ar"/><use transform="matrix(0.009114583333333334,0,0,0.009114583333333334,62.86328125000001,0)" xlink:href="#am"/><use transform="matrix(0.009114583333333334,0,0,0.009114583333333334,73.50911458333333,0)" xlink:href="#W"/><use transform="matrix(0.009114583333333334,0,0,0.009114583333333334,79.82552083333333,0)" xlink:href="#ai"/><use transform="matrix(0.009114583333333334,0,0,0.009114583333333334,89.28645833333333,0)" xlink:href="#ad"/></g><path fill="#172b4d" d="M572 20C306 25 99-136 101-391c0-70 20-134 59-193s113-127 223-205c-65-79-108-142-130-190s-33-96-33-143c-3-220 144-354 364-354 187 0 349 127 346 308-3 212-172 290-307 398l324 387c45-87 68-183 68-289h167c0 170-41 311-123 423L1267 0h-222l-97-115C862-36 726 17 572 20zM286-391c0 162 118 260 286 260 98 0 188-37 269-112L486-668c-110 72-200 183-200 277zm297-933c-109 0-180 87-178 196 0 64 39 144 118 240 93-79 236-119 236-280 0-91-82-156-176-156" id="as"/><use transform="matrix(0.009114583333333334,0,0,0.009114583333333334,0,0)" xlink:href="#as" id="k"/><g id="l"><use transform="matrix(0.009114583333333334,0,0,0.009114583333333334,0,0)" xlink:href="#W"/><use transform="matrix(0.009114583333333334,0,0,0.009114583333333334,6.143229166666667,0)" xlink:href="#T"/><use transform="matrix(0.009114583333333334,0,0,0.009114583333333334,16.032552083333336,0)" xlink:href="#al"/><use transform="matrix(0.009114583333333334,0,0,0.009114583333333334,26.505208333333336,0)" xlink:href="#V"/><use transform="matrix(0.009114583333333334,0,0,0.009114583333333334,36.79557291666667,0)" xlink:href="#aa"/><use transform="matrix(0.009114583333333334,0,0,0.009114583333333334,41.325520833333336,0)" xlink:href="#ab"/><use transform="matrix(0.009114583333333334,0,0,0.009114583333333334,51.47916666666667,0)" xlink:href="#Y"/><use transform="matrix(0.009114583333333334,0,0,0.009114583333333334,57.39453125000001,0)" xlink:href="#am"/><use transform="matrix(0.009114583333333334,0,0,0.009114583333333334,68.04036458333334,0)" xlink:href="#W"/><use transform="matrix(0.009114583333333334,0,0,0.009114583333333334,74.52083333333334,0)" xlink:href="#Z"/></g><g id="m"><use transform="matrix(0.009114583333333334,0,0,0.009114583333333334,0,0)" xlink:href="#ad"/><use transform="matrix(0.009114583333333334,0,0,0.009114583333333334,9.625,0)" xlink:href="#Y"/><use transform="matrix(0.009114583333333334,0,0,0.009114583333333334,15.722656250000002,0)" xlink:href="#ab"/><use transform="matrix(0.009114583333333334,0,0,0.009114583333333334,25.876302083333336,0)" xlink:href="#ah"/><use transform="matrix(0.009114583333333334,0,0,0.009114583333333334,36.17578125,0)" xlink:href="#ac"/><use transform="matrix(0.009114583333333334,0,0,0.009114583333333334,46.703125,0)" xlink:href="#ab"/><use transform="matrix(0.009114583333333334,0,0,0.009114583333333334,56.856770833333336,0)" xlink:href="#W"/><use transform="matrix(0.009114583333333334,0,0,0.009114583333333334,63.00000000000001,0)" xlink:href="#ac"/><use transform="matrix(0.009114583333333334,0,0,0.009114583333333334,73.52734375,0)" xlink:href="#ad"/></g><path fill="#172b4d" d="M1161-1018c0 201-122 330-278 388l342 618V0h-206L703-589H361V0H168v-1456h482c310-2 511 139 511 438zm-193 0c0-187-120-280-313-280H361v552h295c179 3 313-101 312-272" id="at"/><g id="n"><use transform="matrix(0.009114583333333334,0,0,0.009114583333333334,0,0)" xlink:href="#at"/><use transform="matrix(0.009114583333333334,0,0,0.009114583333333334,11.493489583333334,0)" xlink:href="#T"/><use transform="matrix(0.009114583333333334,0,0,0.009114583333333334,21.3828125,0)" xlink:href="#af"/><use transform="matrix(0.009114583333333334,0,0,0.009114583333333334,31.855468750000004,0)" xlink:href="#am"/><use transform="matrix(0.009114583333333334,0,0,0.009114583333333334,42.501302083333336,0)" xlink:href="#W"/><use transform="matrix(0.009114583333333334,0,0,0.009114583333333334,49.2734375,0)" xlink:href="#Y"/></g><g id="o"><use transform="matrix(0.009114583333333334,0,0,0.009114583333333334,0,0)" xlink:href="#am"/><use transform="matrix(0.009114583333333334,0,0,0.009114583333333334,10.645833333333334,0)" xlink:href="#ah"/></g><g id="p"><use transform="matrix(0.009114583333333334,0,0,0.009114583333333334,0,0)" xlink:href="#Y"/><use transform="matrix(0.009114583333333334,0,0,0.009114583333333334,6.09765625,0)" xlink:href="#ae"/><use transform="matrix(0.009114583333333334,0,0,0.009114583333333334,16.37890625,0)" xlink:href="#T"/></g><g id="q"><use transform="matrix(0.009114583333333334,0,0,0.009114583333333334,0,0)" xlink:href="#af"/><use transform="matrix(0.009114583333333334,0,0,0.009114583333333334,10.47265625,0)" xlink:href="#W"/><use transform="matrix(0.009114583333333334,0,0,0.009114583333333334,16.606770833333336,0)" xlink:href="#am"/><use transform="matrix(0.009114583333333334,0,0,0.009114583333333334,27.25260416666667,0)" xlink:href="#al"/><use transform="matrix(0.009114583333333334,0,0,0.009114583333333334,37.72526041666667,0)" xlink:href="#W"/><use transform="matrix(0.009114583333333334,0,0,0.009114583333333334,43.677083333333336,0)" xlink:href="#ab"/><use transform="matrix(0.009114583333333334,0,0,0.009114583333333334,53.83072916666667,0)" xlink:href="#aq"/></g><path fill="#172b4d" d="M1175-1298H707V0H516v-1298H49v-158h1126v158" id="au"/><g id="r"><use transform="matrix(0.009114583333333334,0,0,0.009114583333333334,0,0)" xlink:href="#au"/><use transform="matrix(0.009114583333333334,0,0,0.009114583333333334,10.235677083333334,0)" xlink:href="#T"/><use transform="matrix(0.009114583333333334,0,0,0.009114583333333334,20.125,0)" xlink:href="#ad"/><use transform="matrix(0.009114583333333334,0,0,0.009114583333333334,29.750000000000004,0)" xlink:href="#Y"/></g><g id="s"><use transform="matrix(0.009114583333333334,0,0,0.009114583333333334,0,0)" xlink:href="#ab"/><use transform="matrix(0.009114583333333334,0,0,0.009114583333333334,10.153645833333334,0)" xlink:href="#ah"/><use transform="matrix(0.009114583333333334,0,0,0.009114583333333334,20.453125,0)" xlink:href="#ac"/></g><g id="t"><use transform="matrix(0.009114583333333334,0,0,0.009114583333333334,0,0)" xlink:href="#ak"/><use transform="matrix(0.009114583333333334,0,0,0.009114583333333334,8.904947916666668,0)" xlink:href="#ab"/><use transform="matrix(0.009114583333333334,0,0,0.009114583333333334,19.05859375,0)" xlink:href="#aa"/><use transform="matrix(0.009114583333333334,0,0,0.009114583333333334,23.588541666666668,0)" xlink:href="#X"/><use transform="matrix(0.009114583333333334,0,0,0.009114583333333334,28.118489583333336,0)" xlink:href="#ac"/><use transform="matrix(0.009114583333333334,0,0,0.009114583333333334,38.645833333333336,0)" xlink:href="#ab"/><use transform="matrix(0.009114583333333334,0,0,0.009114583333333334,48.79947916666667,0)" xlink:href="#Y"/><use transform="matrix(0.009114583333333334,0,0,0.009114583333333334,54.89713541666667,0)" xlink:href="#T"/></g><path fill="#172b4d" d="M973-380H363L226 0H28l556-1456h168L1309 0h-197zM421-538h495l-248-681" id="av"/><g id="u"><use transform="matrix(0.009114583333333334,0,0,0.009114583333333334,0,0)" xlink:href="#av"/><use transform="matrix(0.009114583333333334,0,0,0.009114583333333334,12.177083333333334,0)" xlink:href="#ac"/><use transform="matrix(0.009114583333333334,0,0,0.009114583333333334,22.704427083333336,0)" xlink:href="#aq"/><use transform="matrix(0.009114583333333334,0,0,0.009114583333333334,39.06510416666667,0)" xlink:href="#X"/><use transform="matrix(0.009114583333333334,0,0,0.009114583333333334,43.595052083333336,0)" xlink:href="#ah"/></g><path fill="#172b4d" d="M362-157h690V0H169v-1456h193v1299" id="aw"/><g id="v"><use transform="matrix(0.009114583333333334,0,0,0.009114583333333334,0,0)" xlink:href="#aw"/><use transform="matrix(0.009114583333333334,0,0,0.009114583333333334,10.044270833333334,0)" xlink:href="#T"/><use transform="matrix(0.009114583333333334,0,0,0.009114583333333334,19.93359375,0)" xlink:href="#ab"/><use transform="matrix(0.009114583333333334,0,0,0.009114583333333334,30.087239583333336,0)" xlink:href="#W"/><use transform="matrix(0.009114583333333334,0,0,0.009114583333333334,36.403645833333336,0)" xlink:href="#ah"/></g><g id="w"><use transform="matrix(0.009114583333333334,0,0,0.009114583333333334,0,0)" xlink:href="#V"/><use transform="matrix(0.009114583333333334,0,0,0.009114583333333334,10.290364583333334,0)" xlink:href="#ad"/><use transform="matrix(0.009114583333333334,0,0,0.009114583333333334,19.915364583333336,0)" xlink:href="#T"/></g><g id="x"><use transform="matrix(0.009114583333333334,0,0,0.009114583333333334,0,0)" xlink:href="#U"/><use transform="matrix(0.009114583333333334,0,0,0.009114583333333334,9.770833333333334,0)" xlink:href="#ab"/><use transform="matrix(0.009114583333333334,0,0,0.009114583333333334,19.924479166666668,0)" xlink:href="#ad"/><use transform="matrix(0.009114583333333334,0,0,0.009114583333333334,29.549479166666668,0)" xlink:href="#T"/></g><g id="y"><use transform="matrix(0.009114583333333334,0,0,0.009114583333333334,0,0)" xlink:href="#ao"/><use transform="matrix(0.009114583333333334,0,0,0.009114583333333334,10.47265625,0)" xlink:href="#T"/><use transform="matrix(0.009114583333333334,0,0,0.009114583333333334,20.361979166666668,0)" xlink:href="#ad"/><use transform="matrix(0.009114583333333334,0,0,0.009114583333333334,29.986979166666668,0)" xlink:href="#Y"/></g><g id="z"><use transform="matrix(0.009114583333333334,0,0,0.009114583333333334,0,0)" xlink:href="#af"/><use transform="matrix(0.009114583333333334,0,0,0.009114583333333334,10.47265625,0)" xlink:href="#W"/><use transform="matrix(0.009114583333333334,0,0,0.009114583333333334,16.424479166666664,0)" xlink:href="#ab"/><use transform="matrix(0.009114583333333334,0,0,0.009114583333333334,26.578125,0)" xlink:href="#U"/><use transform="matrix(0.009114583333333334,0,0,0.009114583333333334,36.348958333333336,0)" xlink:href="#Y"/><use transform="matrix(0.009114583333333334,0,0,0.009114583333333334,42.446614583333336,0)" xlink:href="#X"/><use transform="matrix(0.009114583333333334,0,0,0.009114583333333334,46.9765625,0)" xlink:href="#U"/><use transform="matrix(0.009114583333333334,0,0,0.009114583333333334,56.747395833333336,0)" xlink:href="#T"/><use transform="matrix(0.009114583333333334,0,0,0.009114583333333334,66.63671875,0)" xlink:href="#ad"/></g><path fill="#172b4d" d="M1222-777c17 480-206 763-650 777H169v-1456h411c408 9 627 269 642 679zm-190 4c3-312-149-522-447-525H361v1141h202c308 0 473-209 469-531v-85" id="ax"/><g id="A"><use transform="matrix(0.009114583333333334,0,0,0.009114583333333334,0,0)" xlink:href="#ax"/><use transform="matrix(0.009114583333333334,0,0,0.009114583333333334,12.240885416666668,0)" xlink:href="#W"/><use transform="matrix(0.009114583333333334,0,0,0.009114583333333334,18.557291666666668,0)" xlink:href="#X"/><use transform="matrix(0.009114583333333334,0,0,0.009114583333333334,23.087239583333336,0)" xlink:href="#ak"/><use transform="matrix(0.009114583333333334,0,0,0.009114583333333334,32.01041666666667,0)" xlink:href="#T"/></g><path fill="#172b4d" d="M314-151h633V0H88v-136l597-793H97v-153h820v131" id="ay"/><g id="B"><use transform="matrix(0.009114583333333334,0,0,0.009114583333333334,0,0)" xlink:href="#am"/><use transform="matrix(0.009114583333333334,0,0,0.009114583333333334,10.645833333333334,0)" xlink:href="#W"/><use transform="matrix(0.009114583333333334,0,0,0.009114583333333334,16.7890625,0)" xlink:href="#al"/><use transform="matrix(0.009114583333333334,0,0,0.009114583333333334,27.26171875,0)" xlink:href="#ab"/><use transform="matrix(0.009114583333333334,0,0,0.009114583333333334,37.415364583333336,0)" xlink:href="#ah"/><use transform="matrix(0.009114583333333334,0,0,0.009114583333333334,47.71484375,0)" xlink:href="#X"/><use transform="matrix(0.009114583333333334,0,0,0.009114583333333334,52.244791666666664,0)" xlink:href="#ay"/><use transform="matrix(0.009114583333333334,0,0,0.009114583333333334,61.49609375000001,0)" xlink:href="#ab"/><use transform="matrix(0.009114583333333334,0,0,0.009114583333333334,71.64973958333333,0)" xlink:href="#Y"/><use transform="matrix(0.009114583333333334,0,0,0.009114583333333334,77.74739583333333,0)" xlink:href="#X"/><use transform="matrix(0.009114583333333334,0,0,0.009114583333333334,82.27734375,0)" xlink:href="#am"/><use transform="matrix(0.009114583333333334,0,0,0.009114583333333334,92.92317708333333,0)" xlink:href="#ah"/><use transform="matrix(0.009114583333333334,0,0,0.009114583333333334,103.22265625,0)" xlink:href="#ab"/><use transform="matrix(0.009114583333333334,0,0,0.009114583333333334,113.37630208333333,0)" xlink:href="#aa"/></g><g id="C"><use transform="matrix(0.009114583333333334,0,0,0.009114583333333334,0,0)" xlink:href="#U"/><use transform="matrix(0.009114583333333334,0,0,0.009114583333333334,9.770833333333334,0)" xlink:href="#ae"/><use transform="matrix(0.009114583333333334,0,0,0.009114583333333334,20.052083333333336,0)" xlink:href="#ab"/><use transform="matrix(0.009114583333333334,0,0,0.009114583333333334,30.20572916666667,0)" xlink:href="#ah"/><use transform="matrix(0.009114583333333334,0,0,0.009114583333333334,40.50520833333334,0)" xlink:href="#al"/><use transform="matrix(0.009114583333333334,0,0,0.009114583333333334,50.97786458333334,0)" xlink:href="#T"/></g><g id="D"><use transform="matrix(0.009114583333333334,0,0,0.009114583333333334,0,0)" xlink:href="#aq"/><use transform="matrix(0.009114583333333334,0,0,0.009114583333333334,16.360677083333336,0)" xlink:href="#ab"/><use transform="matrix(0.009114583333333334,0,0,0.009114583333333334,26.51432291666667,0)" xlink:href="#ah"/><use transform="matrix(0.009114583333333334,0,0,0.009114583333333334,36.81380208333334,0)" xlink:href="#ab"/><use transform="matrix(0.009114583333333334,0,0,0.009114583333333334,46.96744791666668,0)" xlink:href="#al"/><use transform="matrix(0.009114583333333334,0,0,0.009114583333333334,57.44010416666668,0)" xlink:href="#T"/><use transform="matrix(0.009114583333333334,0,0,0.009114583333333334,67.32942708333334,0)" xlink:href="#aq"/><use transform="matrix(0.009114583333333334,0,0,0.009114583333333334,83.69010416666669,0)" xlink:href="#T"/><use transform="matrix(0.009114583333333334,0,0,0.009114583333333334,93.57942708333336,0)" xlink:href="#ah"/><use transform="matrix(0.009114583333333334,0,0,0.009114583333333334,103.87890625000003,0)" xlink:href="#Y"/></g><path fill="#172b4d" d="M1216-1011c-1 297-202 441-512 441H361V0H169v-1456h537c297-6 510 164 510 445zm-192 2c1-178-126-288-307-289H361v571h345c196 1 318-92 318-282" id="az"/><g id="E"><use transform="matrix(0.009114583333333334,0,0,0.009114583333333334,0,0)" xlink:href="#az"/><use transform="matrix(0.009114583333333334,0,0,0.009114583333333334,11.776041666666668,0)" xlink:href="#W"/><use transform="matrix(0.009114583333333334,0,0,0.009114583333333334,17.91015625,0)" xlink:href="#am"/><use transform="matrix(0.009114583333333334,0,0,0.009114583333333334,28.555989583333336,0)" xlink:href="#al"/><use transform="matrix(0.009114583333333334,0,0,0.009114583333333334,39.028645833333336,0)" xlink:href="#W"/><use transform="matrix(0.009114583333333334,0,0,0.009114583333333334,44.98046875,0)" xlink:href="#ab"/><use transform="matrix(0.009114583333333334,0,0,0.009114583333333334,55.134114583333336,0)" xlink:href="#aq"/></g><path fill="#172b4d" d="M177 125H18l608-1581h158" id="aA"/><g id="F"><use transform="matrix(0.009114583333333334,0,0,0.009114583333333334,0,0)" xlink:href="#aq"/><use transform="matrix(0.009114583333333334,0,0,0.009114583333333334,16.360677083333336,0)" xlink:href="#ab"/><use transform="matrix(0.009114583333333334,0,0,0.009114583333333334,26.51432291666667,0)" xlink:href="#ah"/><use transform="matrix(0.009114583333333334,0,0,0.009114583333333334,36.81380208333334,0)" xlink:href="#ab"/><use transform="matrix(0.009114583333333334,0,0,0.009114583333333334,46.96744791666668,0)" xlink:href="#al"/><use transform="matrix(0.009114583333333334,0,0,0.009114583333333334,57.44010416666668,0)" xlink:href="#T"/><use transform="matrix(0.009114583333333334,0,0,0.009114583333333334,67.32942708333334,0)" xlink:href="#W"/><use transform="matrix(0.009114583333333334,0,0,0.009114583333333334,73.64583333333334,0)" xlink:href="#aA"/><use transform="matrix(0.009114583333333334,0,0,0.009114583333333334,81.33854166666667,0)" xlink:href="#ac"/><use transform="matrix(0.009114583333333334,0,0,0.009114583333333334,91.86588541666667,0)" xlink:href="#X"/><use transform="matrix(0.009114583333333334,0,0,0.009114583333333334,96.39583333333334,0)" xlink:href="#W"/><use transform="matrix(0.009114583333333334,0,0,0.009114583333333334,102.5390625,0)" xlink:href="#T"/><use transform="matrix(0.009114583333333334,0,0,0.009114583333333334,112.42838541666669,0)" xlink:href="#U"/><use transform="matrix(0.009114583333333334,0,0,0.009114583333333334,122.19921875000001,0)" xlink:href="#Y"/><use transform="matrix(0.009114583333333334,0,0,0.009114583333333334,128.11458333333334,0)" xlink:href="#am"/><use transform="matrix(0.009114583333333334,0,0,0.009114583333333334,138.76041666666669,0)" xlink:href="#W"/></g><g id="G"><use transform="matrix(0.009114583333333334,0,0,0.009114583333333334,0,0)" xlink:href="#Y"/><use transform="matrix(0.009114583333333334,0,0,0.009114583333333334,6.09765625,0)" xlink:href="#ae"/><use transform="matrix(0.009114583333333334,0,0,0.009114583333333334,16.37890625,0)" xlink:href="#T"/></g><g id="H"><use transform="matrix(0.009114583333333334,0,0,0.009114583333333334,0,0)" xlink:href="#ab"/><use transform="matrix(0.009114583333333334,0,0,0.009114583333333334,10.153645833333334,0)" xlink:href="#Y"/><use transform="matrix(0.009114583333333334,0,0,0.009114583333333334,16.251302083333336,0)" xlink:href="#Y"/><use transform="matrix(0.009114583333333334,0,0,0.009114583333333334,22.348958333333336,0)" xlink:href="#ab"/><use transform="matrix(0.009114583333333334,0,0,0.009114583333333334,32.50260416666667,0)" xlink:href="#U"/><use transform="matrix(0.009114583333333334,0,0,0.009114583333333334,42.273437500000014,0)" xlink:href="#ai"/></g><g id="I"><use transform="matrix(0.009114583333333334,0,0,0.009114583333333334,0,0)" xlink:href="#U"/><use transform="matrix(0.009114583333333334,0,0,0.009114583333333334,9.770833333333334,0)" xlink:href="#ae"/><use transform="matrix(0.009114583333333334,0,0,0.009114583333333334,20.052083333333336,0)" xlink:href="#ab"/><use transform="matrix(0.009114583333333334,0,0,0.009114583333333334,30.20572916666667,0)" xlink:href="#X"/><use transform="matrix(0.009114583333333334,0,0,0.009114583333333334,34.735677083333336,0)" xlink:href="#ah"/></g><path fill="#172b4d" d="M1288 0h-193L362-1122V0H169v-1456h193l735 1127v-1127h191V0" id="aB"/><g id="J"><use transform="matrix(0.009114583333333334,0,0,0.009114583333333334,0,0)" xlink:href="#aB"/><use transform="matrix(0.009114583333333334,0,0,0.009114583333333334,13.307291666666668,0)" xlink:href="#ab"/><use transform="matrix(0.009114583333333334,0,0,0.009114583333333334,23.32421875,0)" xlink:href="#ak"/><use transform="matrix(0.009114583333333334,0,0,0.009114583333333334,32.36588541666667,0)" xlink:href="#X"/><use transform="matrix(0.009114583333333334,0,0,0.009114583333333334,36.895833333333336,0)" xlink:href="#al"/><use transform="matrix(0.009114583333333334,0,0,0.009114583333333334,47.368489583333336,0)" xlink:href="#ab"/><use transform="matrix(0.009114583333333334,0,0,0.009114583333333334,57.52213541666667,0)" xlink:href="#Y"/><use transform="matrix(0.009114583333333334,0,0,0.009114583333333334,63.61979166666667,0)" xlink:href="#T"/></g><g id="K"><use transform="matrix(0.009114583333333334,0,0,0.009114583333333334,0,0)" xlink:href="#ab"/><use transform="matrix(0.009114583333333334,0,0,0.009114583333333334,10.153645833333334,0)" xlink:href="#U"/><use transform="matrix(0.009114583333333334,0,0,0.009114583333333334,19.924479166666668,0)" xlink:href="#U"/><use transform="matrix(0.009114583333333334,0,0,0.009114583333333334,29.695312500000004,0)" xlink:href="#T"/><use transform="matrix(0.009114583333333334,0,0,0.009114583333333334,39.58463541666667,0)" xlink:href="#ad"/><use transform="matrix(0.009114583333333334,0,0,0.009114583333333334,49.20963541666667,0)" xlink:href="#ad"/></g><g id="L"><use transform="matrix(0.009114583333333334,0,0,0.009114583333333334,0,0)" xlink:href="#av"/><use transform="matrix(0.009114583333333334,0,0,0.009114583333333334,12.177083333333334,0)" xlink:href="#U"/><use transform="matrix(0.009114583333333334,0,0,0.009114583333333334,21.947916666666668,0)" xlink:href="#U"/><use transform="matrix(0.009114583333333334,0,0,0.009114583333333334,31.718750000000004,0)" xlink:href="#T"/><use transform="matrix(0.009114583333333334,0,0,0.009114583333333334,41.60807291666667,0)" xlink:href="#ad"/><use transform="matrix(0.009114583333333334,0,0,0.009114583333333334,51.23307291666667,0)" xlink:href="#ad"/></g><g id="M"><use transform="matrix(0.009114583333333334,0,0,0.009114583333333334,0,0)" xlink:href="#Z"/><use transform="matrix(0.009114583333333334,0,0,0.009114583333333334,8.6953125,0)" xlink:href="#am"/><use transform="matrix(0.009114583333333334,0,0,0.009114583333333334,19.341145833333336,0)" xlink:href="#V"/><use transform="matrix(0.009114583333333334,0,0,0.009114583333333334,29.63151041666667,0)" xlink:href="#W"/></g><g id="N"><use transform="matrix(0.009114583333333334,0,0,0.009114583333333334,0,0)" xlink:href="#ad"/><use transform="matrix(0.009114583333333334,0,0,0.009114583333333334,9.625,0)" xlink:href="#T"/><use transform="matrix(0.009114583333333334,0,0,0.009114583333333334,19.514322916666668,0)" xlink:href="#U"/><use transform="matrix(0.009114583333333334,0,0,0.009114583333333334,29.285156250000004,0)" xlink:href="#V"/><use transform="matrix(0.009114583333333334,0,0,0.009114583333333334,39.575520833333336,0)" xlink:href="#W"/><use transform="matrix(0.009114583333333334,0,0,0.009114583333333334,45.891927083333336,0)" xlink:href="#X"/><use transform="matrix(0.009114583333333334,0,0,0.009114583333333334,50.421875,0)" xlink:href="#Y"/><use transform="matrix(0.009114583333333334,0,0,0.009114583333333334,56.51953125000001,0)" xlink:href="#Z"/></g><g id="O"><use transform="matrix(0.009114583333333334,0,0,0.009114583333333334,0,0)" xlink:href="#af"/><use transform="matrix(0.009114583333333334,0,0,0.009114583333333334,10.47265625,0)" xlink:href="#am"/><use transform="matrix(0.009114583333333334,0,0,0.009114583333333334,21.118489583333336,0)" xlink:href="#ad"/><use transform="matrix(0.009114583333333334,0,0,0.009114583333333334,30.743489583333336,0)" xlink:href="#Y"/><use transform="matrix(0.009114583333333334,0,0,0.009114583333333334,36.841145833333336,0)" xlink:href="#V"/><use transform="matrix(0.009114583333333334,0,0,0.009114583333333334,47.13151041666667,0)" xlink:href="#W"/><use transform="matrix(0.009114583333333334,0,0,0.009114583333333334,53.274739583333336,0)" xlink:href="#T"/></g><path fill="#172b4d" d="M1160-420C1159-145 963 0 674 0H169v-1456h476c294-1 476 112 476 388 0 153-99 253-216 302 146 38 255 167 255 346zM678-157c171 2 289-95 289-261 0-175-95-263-286-263H361v524h317zm250-912c-2-172-104-229-283-229H361v463h290c157 3 278-84 277-234" id="aC"/><g id="P"><use transform="matrix(0.009114583333333334,0,0,0.009114583333333334,0,0)" xlink:href="#aC"/><use transform="matrix(0.009114583333333334,0,0,0.009114583333333334,11.62109375,0)" xlink:href="#V"/><use transform="matrix(0.009114583333333334,0,0,0.009114583333333334,21.911458333333336,0)" xlink:href="#X"/><use transform="matrix(0.009114583333333334,0,0,0.009114583333333334,26.44140625,0)" xlink:href="#aa"/><use transform="matrix(0.009114583333333334,0,0,0.009114583333333334,30.97135416666667,0)" xlink:href="#ac"/></g><g id="Q"><use transform="matrix(0.009114583333333334,0,0,0.009114583333333334,0,0)" xlink:href="#W"/><use transform="matrix(0.009114583333333334,0,0,0.009114583333333334,6.134114583333333,0)" xlink:href="#am"/><use transform="matrix(0.009114583333333334,0,0,0.009114583333333334,16.779947916666668,0)" xlink:href="#ab"/><use transform="matrix(0.009114583333333334,0,0,0.009114583333333334,26.93359375,0)" xlink:href="#ac"/><use transform="matrix(0.009114583333333334,0,0,0.009114583333333334,37.4609375,0)" xlink:href="#aq"/><use transform="matrix(0.009114583333333334,0,0,0.009114583333333334,53.821614583333336,0)" xlink:href="#ab"/><use transform="matrix(0.009114583333333334,0,0,0.009114583333333334,63.97526041666667,0)" xlink:href="#af"/></g><path fill="#172b4d" d="M417-1456L893-268l476-1188h249V0h-192c-4-403 4-794 18-1179L966 0H819L342-1176c15 384 23 773 19 1176H169v-1456h248" id="aD"/><g id="R"><use transform="matrix(0.009114583333333334,0,0,0.009114583333333334,0,0)" xlink:href="#aD"/><use transform="matrix(0.009114583333333334,0,0,0.009114583333333334,16.296875,0)" xlink:href="#ab"/><use transform="matrix(0.009114583333333334,0,0,0.009114583333333334,26.450520833333336,0)" xlink:href="#Y"/><use transform="matrix(0.009114583333333334,0,0,0.009114583333333334,32.548177083333336,0)" xlink:href="#V"/><use transform="matrix(0.009114583333333334,0,0,0.009114583333333334,42.83854166666667,0)" xlink:href="#W"/><use transform="matrix(0.009114583333333334,0,0,0.009114583333333334,48.981770833333336,0)" xlink:href="#T"/></g></defs></g></svg>