<svg xmlns="http://www.w3.org/2000/svg" xmlns:xlink="http://www.w3.org/1999/xlink" xmlns:lucid="lucid" width="1659" height="1113"><g transform="translate(-3688 -1090)" lucid:page-tab-id="0_0"><path d="M3740.33 1143a6 6 0 0 1 6-6h1551a6 6 0 0 1 6 6v222.85a6 6 0 0 1-6 6h-1551a6 6 0 0 1-6-6z" fill="#e0e8f5"/><path d="M3761.32 1137h14.98m7.5 0h14.98m7.5 0h14.98m7.5 0h14.98m7.5 0h14.98m7.5 0h14.97m7.5 0h14.97m7.5 0h14.98m7.5 0h14.98m7.5 0h14.98m7.5 0h15m7.48 0h14.98m7.5 0h14.98m7.5 0h14.98m7.5 0H4091m7.5 0h14.98m7.5 0h14.98m7.5 0h14.97m7.5 0h14.98m7.5 0h15m7.48 0h15m7.48 0h15m7.48 0h14.98m7.5 0h14.98m7.5 0h14.98m7.5 0h14.98m7.5 0h14.98m7.5 0h14.98m7.5 0h14.97m7.5 0h14.97m7.5 0h14.98m7.5 0h14.98m7.5 0h14.98m7.5 0h15m7.48 0h14.98m7.5 0h14.98m7.5 0h14.98m7.5 0H4608m7.5 0h14.98m7.5 0h14.98m7.5 0h14.97m7.5 0h14.98m7.5 0h15m7.48 0h15m7.48 0h15m7.48 0h14.98m7.5 0h14.98m7.5 0h14.98m7.5 0h14.98m7.5 0h14.98m7.5 0h14.98m7.5 0h14.97m7.5 0h14.97m7.5 0h14.98m7.5 0h14.98m7.5 0h14.98m7.5 0h14.98m7.5 0h14.98m7.5 0h14.98m7.5 0h14.98m7.5 0H5125m7.5 0h14.98m7.5 0h14.98m7.5 0h14.97m7.5 0h14.98m7.5 0h15m7.48 0h15m7.48 0h15m7.48 0h7.5l.93.07.92.22.86.35.8.5.7.6.63.72.48.8.36.87.22.9.07.95v7.42m0 7.43v14.86m0 7.44V1195m0 7.42v14.86m0 7.43v14.86m0 7.43v14.85m0 7.43v14.85m0 7.43v14.86m0 7.43v14.85m0 7.43V1351m0 7.42v7.43l-.07.93-.22.92-.36.87-.5.8-.6.72-.72.6-.8.5-.87.35-.93.22-.94.08h-7.5m-7.48 0h-15m-7.48 0h-15m-7.48 0h-15m-7.5 0h-14.97m-7.5 0h-14.98m-7.5 0h-14.98m-7.5 0h-14.98m-7.5 0h-15m-7.48 0h-15m-7.48 0h-14.98m-7.5 0h-14.98m-7.5 0h-14.98m-7.5 0h-14.98m-7.5 0h-14.98m-7.5 0h-14.98m-7.5 0h-14.97m-7.5 0h-15m-7.48 0h-15m-7.48 0h-15m-7.48 0h-15m-7.48 0h-14.98m-7.5 0h-14.98m-7.5 0h-14.98m-7.5 0h-14.98m-7.5 0h-14.98m-7.5 0h-14.98m-7.5 0h-14.97m-7.5 0h-14.98m-7.5 0h-14.98m-7.5 0h-14.98m-7.5 0h-15m-7.48 0h-15m-7.48 0h-14.98m-7.5 0h-14.98m-7.5 0h-14.98m-7.5 0h-14.98m-7.5 0h-14.98m-7.5 0h-14.98m-7.5 0h-14.97m-7.5 0h-15m-7.48 0h-15m-7.48 0h-15m-7.48 0h-15m-7.48 0h-14.98m-7.5 0h-14.98m-7.5 0h-14.98m-7.5 0h-14.98m-7.5 0h-14.98m-7.5 0h-14.98m-7.5 0h-14.97m-7.5 0h-14.98m-7.5 0h-14.98m-7.5 0h-14.98m-7.5 0h-15m-7.48 0h-15m-7.48 0h-14.98m-7.5 0h-14.98m-7.5 0h-14.98m-7.5 0h-14.98m-7.5 0h-14.98m-7.5 0h-14.97m-7.5 0h-14.98m-7.5 0h-15m-7.48 0h-15m-7.48 0h-15m-7.48 0h-15m-7.48 0h-14.98m-7.5 0h-14.98m-7.5 0h-7.5l-.93-.08-.92-.22-.87-.36-.8-.5-.7-.6-.62-.73-.5-.8-.35-.87-.22-.92-.07-.93v-7.43m0-7.43v-14.87m0-7.43v-14.85m0-7.43v-14.86m0-7.43v-14.85m0-7.43V1247m0-7.44v-14.85m0-7.42v-14.86m0-7.43v-14.86m0-7.43v-14.85m0-7.43V1143l.08-.94.23-.92.36-.87.48-.8.6-.72.73-.6.8-.5.88-.36.9-.23.95-.08h7.5" stroke="#2f3564" stroke-width="1.5" fill="none"/><path d="M3740.33 1669a6 6 0 0 1 6-6h1551a6 6 0 0 1 6 6v222.86a6 6 0 0 1-6 6h-1551a6 6 0 0 1-6-6z" fill="#e0e8f5"/><path d="M3761.32 1663h14.98m7.5 0h14.98m7.5 0h14.98m7.5 0h14.98m7.5 0h14.98m7.5 0h14.97m7.5 0h14.97m7.5 0h14.98m7.5 0h14.98m7.5 0h14.98m7.5 0h15m7.48 0h14.98m7.5 0h14.98m7.5 0h14.98m7.5 0H4091m7.5 0h14.98m7.5 0h14.98m7.5 0h14.97m7.5 0h14.98m7.5 0h15m7.48 0h15m7.48 0h15m7.48 0h14.98m7.5 0h14.98m7.5 0h14.98m7.5 0h14.98m7.5 0h14.98m7.5 0h14.98m7.5 0h14.97m7.5 0h14.97m7.5 0h14.98m7.5 0h14.98m7.5 0h14.98m7.5 0h15m7.48 0h14.98m7.5 0h14.98m7.5 0h14.98m7.5 0H4608m7.5 0h14.98m7.5 0h14.98m7.5 0h14.97m7.5 0h14.98m7.5 0h15m7.48 0h15m7.48 0h15m7.48 0h14.98m7.5 0h14.98m7.5 0h14.98m7.5 0h14.98m7.5 0h14.98m7.5 0h14.98m7.5 0h14.97m7.5 0h14.97m7.5 0h14.98m7.5 0h14.98m7.5 0h14.98m7.5 0h14.98m7.5 0h14.98m7.5 0h14.98m7.5 0h14.98m7.5 0H5125m7.5 0h14.98m7.5 0h14.98m7.5 0h14.97m7.5 0h14.98m7.5 0h15m7.48 0h15m7.48 0h15m7.48 0h7.5l.93.08.92.22.86.36.8.5.7.6.63.72.48.8.36.87.22.92.07.94v7.43m0 7.43v14.86m0 7.43V1721m0 7.43v14.86m0 7.42v14.86m0 7.42v14.86m0 7.43v14.85m0 7.42v14.86m0 7.43v14.86m0 7.42V1877m0 7.43v7.43l-.07.94-.22.9-.36.88-.5.8-.6.72-.72.6-.8.5-.87.36-.93.22-.94.08h-7.5m-7.48 0h-15m-7.48 0h-15m-7.48 0h-15m-7.5 0h-14.97m-7.5 0h-14.98m-7.5 0h-14.98m-7.5 0h-14.98m-7.5 0h-15m-7.48 0h-15m-7.48 0h-14.98m-7.5 0h-14.98m-7.5 0h-14.98m-7.5 0h-14.98m-7.5 0h-14.98m-7.5 0h-14.98m-7.5 0h-14.97m-7.5 0h-15m-7.48 0h-15m-7.48 0h-15m-7.48 0h-15m-7.48 0h-14.98m-7.5 0h-14.98m-7.5 0h-14.98m-7.5 0h-14.98m-7.5 0h-14.98m-7.5 0h-14.98m-7.5 0h-14.97m-7.5 0h-14.98m-7.5 0h-14.98m-7.5 0h-14.98m-7.5 0h-15m-7.48 0h-15m-7.48 0h-14.98m-7.5 0h-14.98m-7.5 0h-14.98m-7.5 0h-14.98m-7.5 0h-14.98m-7.5 0h-14.98m-7.5 0h-14.97m-7.5 0h-15m-7.48 0h-15m-7.48 0h-15m-7.48 0h-15m-7.48 0h-14.98m-7.5 0h-14.98m-7.5 0h-14.98m-7.5 0h-14.98m-7.5 0h-14.98m-7.5 0h-14.98m-7.5 0h-14.97m-7.5 0h-14.98m-7.5 0h-14.98m-7.5 0h-14.98m-7.5 0h-15m-7.48 0h-15m-7.48 0h-14.98m-7.5 0h-14.98m-7.5 0h-14.98m-7.5 0h-14.98m-7.5 0h-14.98m-7.5 0h-14.97m-7.5 0h-14.98m-7.5 0h-15m-7.48 0h-15m-7.48 0h-15m-7.48 0h-15m-7.48 0h-14.98m-7.5 0h-14.98m-7.5 0h-7.5l-.93-.08-.92-.22-.87-.36-.8-.5-.7-.6-.62-.7-.5-.82-.35-.87-.22-.9-.07-.94v-7.43m0-7.43v-14.86m0-7.42v-14.86m0-7.43v-14.86m0-7.42v-14.86m0-7.44V1773m0-7.42v-14.86m0-7.43v-14.87m0-7.42v-14.85m0-7.43v-14.86m0-7.43V1669l.08-.93.23-.92.36-.87.48-.8.6-.72.73-.6.8-.5.88-.36.9-.22.95-.07h7.5" stroke="#2f3564" stroke-width="1.5" fill="none"/><path d="M3740.33 1406a6 6 0 0 1 6-6h1551a6 6 0 0 1 6 6v222.85a6 6 0 0 1-6 6h-1551a6 6 0 0 1-6-6z" fill="#e0e8f5"/><path d="M3761.32 1400h14.98m7.5 0h14.98m7.5 0h14.98m7.5 0h14.98m7.5 0h14.98m7.5 0h14.97m7.5 0h14.97m7.5 0h14.98m7.5 0h14.98m7.5 0h14.98m7.5 0h15m7.48 0h14.98m7.5 0h14.98m7.5 0h14.98m7.5 0H4091m7.5 0h14.98m7.5 0h14.98m7.5 0h14.97m7.5 0h14.98m7.5 0h15m7.48 0h15m7.48 0h15m7.48 0h14.98m7.5 0h14.98m7.5 0h14.98m7.5 0h14.98m7.5 0h14.98m7.5 0h14.98m7.5 0h14.97m7.5 0h14.97m7.5 0h14.98m7.5 0h14.98m7.5 0h14.98m7.5 0h15m7.48 0h14.98m7.5 0h14.98m7.5 0h14.98m7.5 0H4608m7.5 0h14.98m7.5 0h14.98m7.5 0h14.97m7.5 0h14.98m7.5 0h15m7.48 0h15m7.48 0h15m7.48 0h14.98m7.5 0h14.98m7.5 0h14.98m7.5 0h14.98m7.5 0h14.98m7.5 0h14.98m7.5 0h14.97m7.5 0h14.97m7.5 0h14.98m7.5 0h14.98m7.5 0h14.98m7.5 0h14.98m7.5 0h14.98m7.5 0h14.98m7.5 0h14.98m7.5 0H5125m7.5 0h14.98m7.5 0h14.98m7.5 0h14.97m7.5 0h14.98m7.5 0h15m7.48 0h15m7.48 0h15m7.48 0h7.5l.93.07.92.22.86.35.8.5.7.6.63.72.48.8.36.88.22.9.07.95v7.43m0 7.43v14.85m0 7.44V1458m0 7.43v14.85m0 7.43v14.87m0 7.43v14.85m0 7.43v14.86m0 7.43v14.86m0 7.42v14.86m0 7.44V1614m0 7.42v7.43l-.07.94-.22.9-.36.88-.5.8-.6.7-.72.63-.8.5-.87.36-.93.22-.94.07h-7.5m-7.48 0h-15m-7.48 0h-15m-7.48 0h-15m-7.5 0h-14.97m-7.5 0h-14.98m-7.5 0h-14.98m-7.5 0h-14.98m-7.5 0h-15m-7.48 0h-15m-7.48 0h-14.98m-7.5 0h-14.98m-7.5 0h-14.98m-7.5 0h-14.98m-7.5 0h-14.98m-7.5 0h-14.98m-7.5 0h-14.97m-7.5 0h-15m-7.48 0h-15m-7.48 0h-15m-7.48 0h-15m-7.48 0h-14.98m-7.5 0h-14.98m-7.5 0h-14.98m-7.5 0h-14.98m-7.5 0h-14.98m-7.5 0h-14.98m-7.5 0h-14.97m-7.5 0h-14.98m-7.5 0h-14.98m-7.5 0h-14.98m-7.5 0h-15m-7.48 0h-15m-7.48 0h-14.98m-7.5 0h-14.98m-7.5 0h-14.98m-7.5 0h-14.98m-7.5 0h-14.98m-7.5 0h-14.98m-7.5 0h-14.97m-7.5 0h-15m-7.48 0h-15m-7.48 0h-15m-7.48 0h-15m-7.48 0h-14.98m-7.5 0h-14.98m-7.5 0h-14.98m-7.5 0h-14.98m-7.5 0h-14.98m-7.5 0h-14.98m-7.5 0h-14.97m-7.5 0h-14.98m-7.5 0h-14.98m-7.5 0h-14.98m-7.5 0h-15m-7.48 0h-15m-7.48 0h-14.98m-7.5 0h-14.98m-7.5 0h-14.98m-7.5 0h-14.98m-7.5 0h-14.98m-7.5 0h-14.97m-7.5 0h-14.98m-7.5 0h-15m-7.48 0h-15m-7.48 0h-15m-7.48 0h-15m-7.48 0h-14.98m-7.5 0h-14.98m-7.5 0h-7.5l-.93-.07-.92-.22-.87-.36-.8-.5-.7-.6-.62-.72-.5-.8-.35-.87-.22-.9-.07-.95v-7.43m0-7.43v-14.86m0-7.43v-14.85m0-7.42v-14.86m0-7.43v-14.86m0-7.43V1510m0-7.43v-14.86m0-7.42v-14.85m0-7.43v-14.86m0-7.43v-14.84m0-7.43V1406l.08-.94.23-.9.36-.88.48-.8.6-.72.73-.6.8-.5.88-.37.9-.23.95-.07h7.5" stroke="#2f3564" stroke-width="1.5" fill="none"/><path d="M4173 1502.32a6 6 0 0 1 6-6h295a6 6 0 0 1 6 6v38.3a6 6 0 0 1-6 6h-295a6 6 0 0 1-6-6z" stroke="#6c6e83" fill="#fff"/><path d="M4205.92 1508.5H4460v24.18h-254.08z" fill="none"/><use xlink:href="#a" transform="matrix(1,0,0,1,4205.91623498162,1508.5141829626482) translate(0 18.880208333333336)"/><use xlink:href="#b" transform="matrix(1,0,0,1,4205.91623498162,1508.5141829626482) translate(85.52213541666667 18.880208333333336)"/><use xlink:href="#c" transform="matrix(1,0,0,1,4205.91623498162,1508.5141829626482) translate(161.11848958333334 18.880208333333336)"/><path d="M3740.33 1932a6 6 0 0 1 6-6h1551a6 6 0 0 1 6 6v222.86a6 6 0 0 1-6 6h-1551a6 6 0 0 1-6-6z" fill="#e0e8f5"/><path d="M3761.32 1926h14.98m7.5 0h14.98m7.5 0h14.98m7.5 0h14.98m7.5 0h14.98m7.5 0h14.97m7.5 0h14.97m7.5 0h14.98m7.5 0h14.98m7.5 0h14.98m7.5 0h15m7.48 0h14.98m7.5 0h14.98m7.5 0h14.98m7.5 0H4091m7.5 0h14.98m7.5 0h14.98m7.5 0h14.97m7.5 0h14.98m7.5 0h15m7.48 0h15m7.48 0h15m7.48 0h14.98m7.5 0h14.98m7.5 0h14.98m7.5 0h14.98m7.5 0h14.98m7.5 0h14.98m7.5 0h14.97m7.5 0h14.97m7.5 0h14.98m7.5 0h14.98m7.5 0h14.98m7.5 0h15m7.48 0h14.98m7.5 0h14.98m7.5 0h14.98m7.5 0H4608m7.5 0h14.98m7.5 0h14.98m7.5 0h14.97m7.5 0h14.98m7.5 0h15m7.48 0h15m7.48 0h15m7.48 0h14.98m7.5 0h14.98m7.5 0h14.98m7.5 0h14.98m7.5 0h14.98m7.5 0h14.98m7.5 0h14.97m7.5 0h14.97m7.5 0h14.98m7.5 0h14.98m7.5 0h14.98m7.5 0h14.98m7.5 0h14.98m7.5 0h14.98m7.5 0h14.98m7.5 0H5125m7.5 0h14.98m7.5 0h14.98m7.5 0h14.97m7.5 0h14.98m7.5 0h15m7.48 0h15m7.48 0h15m7.48 0h7.5l.93.1.92.2.86.37.8.5.7.6.63.7.48.82.36.86.22.9.07.95v7.44m0 7.43v14.86m0 7.42V1984m0 7.44v14.86m0 7.42v14.86m0 7.43v14.87m0 7.43v14.85m0 7.43v14.86m0 7.42v14.86m0 7.43V2140m0 7.44v7.42l-.07.94-.22.92-.36.87-.5.8-.6.7-.72.62-.8.5-.87.35-.93.22-.94.06h-7.5m-7.48 0h-15m-7.48 0h-15m-7.48 0h-15m-7.5 0h-14.97m-7.5 0h-14.98m-7.5 0h-14.98m-7.5 0h-14.98m-7.5 0h-15m-7.48 0h-15m-7.48 0h-14.98m-7.5 0h-14.98m-7.5 0h-14.98m-7.5 0h-14.98m-7.5 0h-14.98m-7.5 0h-14.98m-7.5 0h-14.97m-7.5 0h-15m-7.48 0h-15m-7.48 0h-15m-7.48 0h-15m-7.48 0h-14.98m-7.5 0h-14.98m-7.5 0h-14.98m-7.5 0h-14.98m-7.5 0h-14.98m-7.5 0h-14.98m-7.5 0h-14.97m-7.5 0h-14.98m-7.5 0h-14.98m-7.5 0h-14.98m-7.5 0h-15m-7.48 0h-15m-7.48 0h-14.98m-7.5 0h-14.98m-7.5 0h-14.98m-7.5 0h-14.98m-7.5 0h-14.98m-7.5 0h-14.98m-7.5 0h-14.97m-7.5 0h-15m-7.48 0h-15m-7.48 0h-15m-7.48 0h-15m-7.48 0h-14.98m-7.5 0h-14.98m-7.5 0h-14.98m-7.5 0h-14.98m-7.5 0h-14.98m-7.5 0h-14.98m-7.5 0h-14.97m-7.5 0h-14.98m-7.5 0h-14.98m-7.5 0h-14.98m-7.5 0h-15m-7.48 0h-15m-7.48 0h-14.98m-7.5 0h-14.98m-7.5 0h-14.98m-7.5 0h-14.98m-7.5 0h-14.98m-7.5 0h-14.97m-7.5 0h-14.98m-7.5 0h-15m-7.48 0h-15m-7.48 0h-15m-7.48 0h-15m-7.48 0h-14.98m-7.5 0h-14.98m-7.5 0h-7.5l-.93-.07-.92-.23-.87-.36-.8-.48-.7-.6-.62-.73-.5-.8-.35-.88-.22-.92-.07-.94v-7.42m0-7.43v-14.85m0-7.43v-14.86m0-7.42v-14.86m0-7.43v-14.86m0-7.43V2036m0-7.42v-14.86m0-7.42v-14.86m0-7.43v-14.85m0-7.42v-14.86m0-7.43V1932l.08-.93.23-.9.36-.88.48-.82.6-.7.73-.62.8-.5.88-.35.9-.2.95-.1h7.5" stroke="#2f3564" stroke-width="1.5" fill="none"/><path d="M4173 2023a6 6 0 0 1 6-6h405.94a6 6 0 0 1 6 6v38.3a6 6 0 0 1-6 6H4179a6 6 0 0 1-6-6z" stroke="#6c6e83" fill="#fff"/><path d="M4192.9 2029.37h378.14v23H4192.9z" fill="none"/><use xlink:href="#d" transform="matrix(1,0,0,1,4192.904462420341,2029.3647225452085) translate(5.617838541666629 17.880208333333336)"/><use xlink:href="#e" transform="matrix(1,0,0,1,4192.904462420341,2029.3647225452085) translate(74.88867187499997 17.880208333333336)"/><use xlink:href="#f" transform="matrix(1,0,0,1,4192.904462420341,2029.3647225452085) translate(109.44205729166664 17.880208333333336)"/><use xlink:href="#g" transform="matrix(1,0,0,1,4192.904462420341,2029.3647225452085) translate(151.70638020833331 17.880208333333336)"/><use xlink:href="#h" transform="matrix(1,0,0,1,4192.904462420341,2029.3647225452085) translate(171.15690104166666 17.880208333333336)"/><use xlink:href="#i" transform="matrix(1,0,0,1,4192.904462420341,2029.3647225452085) translate(246.75325520833331 17.880208333333336)"/><use xlink:href="#j" transform="matrix(1,0,0,1,4192.904462420341,2029.3647225452085) translate(299.517578125 17.880208333333336)"/><path d="M3844.02 2043.44a19.5 19.5 0 0 1 19.5-19.5h101a19.5 19.5 0 0 1 19.5 19.5 19.5 19.5 0 0 1-19.5 19.5h-101a19.5 19.5 0 0 1-19.5-19.5z" stroke="#6c6e83" fill="#fff"/><path d="M3903.36 2031.23h63.66v22.4h-63.66z" fill="none"/><use xlink:href="#k" transform="matrix(1,0,0,1,3903.356686222287,2031.2306929999454) translate(0 17.57638888888889)"/><path d="M3828.02 2093.06c27.6 0 50-22.34 50-49.92 0-27.7-22.4-50.03-50-50.03s-50 22.36-50 50.04c0 27.58 22.4 49.92 50 49.92z" stroke="#6c6e83" fill="#a2c6f6"/><path d="M3827.92 1994.22c27 0 48.8 21.84 48.8 48.82 0 26.97-21.8 48.8-48.8 48.8-26.9 0-48.7-21.83-48.7-48.8 0-26.98 21.8-48.82 48.7-48.82z" stroke="#000" stroke-opacity="0" fill="#a2c6f6"/><path d="M3844.02 2074.54c.1.2.2.4.3.7.1.3.3.5.4.8 1.5 3.64 3 7.16 4.7 10.78.3.6.2.9.5 1.5 8.2-5.22 14.7-10.96 14.7-10.96s-.7-1.1-2.7-3.32c-1.6-1.9-3.5-3.63-5.5-5.14-4.2-2.9-9.1-5.03-14.2-5.13 0 0 0 .1-.1.2 0 .1-.1.3-.1.5 0 0 0 .1-.1.1 0 .2 0 .3-.1.5 0 .1-.1.3-.1.5v.1c.2 1.12.3 2.83.5 3.94.3 1.72 1.1 3.33 1.8 4.94z" stroke="#000" stroke-opacity="0" fill="#456664"/><path d="M3843.42 2065.08l-2.7.8-.7.2c-3.1 1-.9 5.04-3.3 5.74-.3.1-1.1 0-2.2-.3-2.6-.6-6.3-1.9-6.3-1.8 0 0-.4-.2-1.1-.4-1.6-.42-4.7-1.42-7.6-2.33l-3.6-1.22-.8-.2-1.7-.6 1.1-.5.5-.3h.1l1.5-.7 2.3-1.12s8.1 2.92 8.4 2.82c.2 0 7-3.32 7-3.32l6 2.1.1.1.5.2 1 .32.3.1 1.2.4z" stroke="#000" stroke-opacity="0" fill="#ffa894"/><path d="M3837.22 2011.73c-.1-1-.9-1.7-1.2-2.72-.3-1.1 0-2.3 0-3.4 0-.2.1-.4 0-.5 0-1.42-.4-2.73-1.7-3.53-1.1-.8-2.3-1.1-3.6-.9-.9.2-1.5.8-2.3 1.2-.4.2-.7.4-1 .7-.7.3-1.3.5-2 .7-1.1.2-2.1.6-2.8 1.62-.8 1.2-.9 3-1.2 4.4-.3 1.02-.4 2.03-.5 3.04v.3c-.1.7-.1 1.5.1 2.2.1.2.1.52.3.72.5 1.1 1.6 1.7 3 1.6.8 0 1.6-.2 2.4-.3 1.2-.1 2 .6 3.1.8h.1c.4.1.8.1 1.2.1.3 0 .5-.1.8-.1 0 0 .1-.1.2-.1 1.2-.3 2.4-1 3.4-1.9 1.1-1.1 1.9-2.52 1.7-3.93z" stroke="#000" stroke-opacity="0" fill="#db6e56"/><path d="M3837.22 2011.73c-.1-1-.9-1.7-1.2-2.72-.3-1.1 0-2.3 0-3.4 0-.2.1-.4 0-.5-.2.9-.5 1.8-.9 2.6-1 2.12-2.5 2.92-4.8 2.82-1.3-.1-2.1.1-3 1-1.4 1.22-4.6 2.12-6.4.82v.3c-.1.7-.1 1.5.1 2.2.1.2.1.52.3.72.5 1.1 1.6 1.7 3 1.6.8 0 1.6-.3 2.4-.3 1.2-.1 2 .5 3.1.8h1.3c.2 0 .5-.1.8-.1h.2c1.2-.3 2.4-1 3.4-1.9 1.1-1.1 1.9-2.52 1.7-3.93z" stroke="#000" stroke-opacity="0" fill="#c2563e"/><path d="M3844.32 2024.4c-.2-.9-.7-1.8-1.3-2.6-.2-.1-.3-.2-.4-.3-.5-.5-.6-.7-.8-1.4-.2-.42-.2-.72-.4-1.12-.5-.7-1.3-1.2-2.1-1.5-1.3-.62-2.6-1.12-3.8-1.82h-.1c-1.8-1-3.6-1.2-5.5-.7-.6-.3-1.2-.5-1.8-.5-1.3-.1-2.6.3-3.8.6-1 .2-2 .3-3 .5-.5.1-.9.1-1.4.3-4.8 1.3-6.8 6.24-7.5 10.77-.5.9-1 1.6-1.2 2.6-.1 1.02 0 2.03-.1 3.04-.2 1.3-.2 2.3.1 3.52.2.6.4 1.1.6 1.6.1.1.2.3.2.4.2 1 .7 1.8 1.3 2.42.3.5.5 1 .7 1.4 0 .2.1.4.2.6 0 .1 0 .1.1.2H3814.62c.1 0 .1-.1.2-.1v-.1-.1-.1l-.1-.1c0-.2-.1-.4-.2-.6l.2.2c.1 0 .2.1.2.2l.1.1c.4.2.7.5 1 .8 1.5 1.22 3 2.53 4.7 3.44 4.1 2.4 8.6 3.52 13.2 1.9 1.7-.5 3.3-1.4 4.8-2.5.4-.4.9-.8 1.3-1.22.2-.2.5-.4.7-.7.2-.2.4-.4.6-.7.7-.9 1.4-1.92 1.9-2.92.1-.3.2-.5.2-.7.7-2.02.2-4.04.9-6.05.5-1.5.5-3.02.2-4.53.3-1.4.2-2.82-.2-4.23z" stroke="#000" stroke-opacity="0" fill="#db6e56"/><path d="M3832.12 2052.7c-1.5.1-3 .1-4.6-.2-1.7-.3-3.3-.8-4.9-1.4-.7-.2-1.4-.5-1.9-1.02-.5-.4-.7-1.1-1.1-1.6-.2-.2-.5-.1-.5.2 0 1.9-.1 3.82-.1 5.73v.1c-.1 2.22-.1 4.44-.2 6.65V2062.35c0 1.12 0 2.13-.1 3.13v1.2c0 1.22 0 2.43-.1 3.53 0 .1.1.2.1.2 0 .1.1.1.1.1 3.8 1.42 7.5 14 11.4 13.9.9 0 3.3-8.05 4.2-8.15.5-.1 2.8-2.82 2.8-2.82l-1.8-5.93v-1.72l.2-3.42.3-7.35.2-2.9s-3 .5-4 .6z" stroke="#000" stroke-opacity="0" fill="#ffa894"/><path d="M3814.82 2026.43c1-.9 5.4-3.93 6.6-3.93 2.1-.1 6.3-1 8.3-.9 4.7.1 7.7 2 10.4 4.93.2.2.4.3.4.5 0 0 .1 0 .1.1v.1c.4 5.54.2 16.1-1.6 22.15-1 3.22-3.7 7.14-6.7 8.95-6.1 3.73-9.8.6-13.3-3.82-4.2-5.32-4.1-11.06-4.7-17.9-.1-1.72-.4-9.27.5-10.17z" stroke="#000" stroke-opacity="0" fill="#ffa894"/><path d="M3820.32 2039.1c-.1-.5-.1-1.1-.1-1.6.1-.3.2-.5.4-.7.5-.6 1.1 0 1.3.5.2.7.2 2.3-.5 2.62-.7.4-1-.1-1.1-.8zM3833.12 2039.1c-.1-.5-.1-1.1 0-1.6 0-.3.1-.5.3-.7.5-.6 1.2-.1 1.3.5.2.7.2 2.2-.4 2.62-.7.4-1-.1-1.2-.8z" stroke="#000" stroke-opacity="0" fill="#232c44"/><path d="M3816.02 2040.32c-.1-.8-.2-1.6-.5-2.32v-.1c-.2-.3-.4-.5-.6-.7 0-.1 0-.1-.1-.2 0 0-.1 0-.1-.1-.1 0-.1 0-.2.1l-.2-.2c-.1 0-.2-.1-.3-.2-.8-.4-1.7-.3-2.2.8 0 .1-.1.3-.1.4-.6 2.32-.2 5.24 1.4 7.05.2.2.4.5.7.8.3.3.7.6 1.1.9.1.1.3.2.5.2.4 0 .6-.3.6-1.3v-2.82-2.3z" stroke="#000" stroke-opacity="0" fill="#ffa894"/><path d="M3823.52 2049.48s1 1.1 1.7 1.4c.8.2 1.6.6 2.4.5.9 0 1.9-.3 2.7-.7.5-.3 1.6-1.3 1.6-1.3l-8.4.1z" stroke="#000" stroke-opacity="0" fill="#ad4444"/><path d="M3832.02 2057.93c-2.1 1.5-5.1 1.7-7.5.6-2.1-1-3.7-2.3-5.5-4.02-.1 2.22-.1 4.44-.2 6.65v.1c.9.2 1.7.5 2.6.6 1.5.1 2.7-.8 4.1-.8 1.3.1 2.5.4 3.7-.3 1-.5 1.9-1.3 2.6-2.1.1-.2.3-.4.4-.52.1-.1-.1-.3-.2-.2z" stroke="#000" stroke-opacity="0" fill="#f7886d"/><path d="M3824.92 2033.98c-.2-.7-1.1-.9-1.6-1-2.2-.5-4.8.2-6.4 1.7-.4.3.9.2 1 .2 1.4-.3 2.7-.3 4.1-.3h2c.4 0 1-.1.9-.6zM3838.42 2035.08c-1.6-1.6-4.2-2.3-6.4-1.9-.5.1-1.5.3-1.6.9-.2.5.4.6.8.7h2c1.4.1 2.8.2 4.1.5.1 0 1.4.2 1.1-.2z" stroke="#000" stroke-opacity="0" fill="#db6e56"/><path d="M3814.82 2043.94c-.5-.2-1.4-1.9-.1-1.9h.1s.1 0 .1-.1c0 0 0-.1.1-.1v-.1c-.3-1.32-.6-2.63-.8-3.84-.1-.4-.6-.3-.6.1.2 1.2.5 2.32.7 3.53-1.4.3-.9 2.5.3 3.02.4.1.5-.4.2-.6z" stroke="#000" stroke-opacity="0" fill="#f7886d"/><path d="M3843.42 2039.2c0-.3 0-.5-.1-.8-.4-1.6-1.6-1.7-2.6-1.1 0 .1 0 .1-.1.1l-.1.1c-.1-.1-.1-.1-.2 0h-.1c-.3.3-.5.6-.7.9v.1c-.4.7-.5 1.4-.6 2.22-.1 1.6-.2 3.22-.2 4.73 0 .2-.1.3-.1.5 0 1.1.4 1.4.9 1.2.2-.1.4-.2.5-.3.4-.2.7-.5 1-.8l.6-.6c1.5-1.6 2.1-4.13 1.8-6.24z" stroke="#000" stroke-opacity="0" fill="#ffa894"/><path d="M3839.92 2044.44c.5-.1 1.5-1.8.3-1.9h-.2s0-.1-.1-.1v-.1-.1l.9-3.84c.1-.4.6-.2.5.2-.2 1.1-.5 2.32-.8 3.43 1.4.4.8 2.62-.4 3.02-.4.1-.5-.4-.2-.6zM3827.82 2045.75c-1.8-.8-.9-2.4-.7-3.82l.6-3.93c0-.3-.6-.4-.6 0-.2 1.1-.3 2.12-.5 3.22-.1 1-.6 2.12-.7 3.12 0 1 .9 1.6 1.8 2.02.3.1.5-.4.1-.6z" stroke="#000" stroke-opacity="0" fill="#f7886d"/><path d="M3841.32 2031.06c-.1-1.82-.1-3.93-.9-5.64-1-2.4-3.5-3.72-6-4.23-.2-.1-.4-.1-.6-.1-.5-.1-1.1-.2-1.7-.3h-1.1c-2.4 0-4.7.3-7 .7-2.1.3-4.2.8-6.1 1.7-.4.2-.7.4-1.1.5-.2.2-.5.3-.8.5-.9.52-1.8 1.22-2.1 2.33-.6 1.8-.6 7.95.1 10.06.1.4.2.6.4.8H3814.72l.2-.2c.4-.5.4-1.5.5-2.12.1-1.7 0-3.22.6-4.83.5-1.5 1.3-2.92 2.2-4.23 1-1.5 1.9-2.8 3.8-3.12 1.4-.2 3-.1 4.4-.2 1.2-.1 2.5-.2 3.7-.1 1.2.2 2.2.7 3.4 1 1.9.6 4.2.6 5.3 2.63.9 1.5.7 3.62.8 5.23l.6 5.74v.2l.1.1H3840.62c.1 0 .1-.1.1-.1.8-1.9.6-4.33.6-6.34z" stroke="#000" stroke-opacity="0" fill="#db6e56"/><path d="M3832.42 2018.98c-.1-.6-.3-1.1-.7-1.6-.4-.52-1.6-1.22-1.5-1.93.1-.4-.5-.4-.6 0 0 .7.3 1.1.8 1.5 1.4 1.22 2 2.83.7 4.44-.2.3.2.7.4.4.7-.8 1-1.7.9-2.82zM3833.92 2018.88c-.2-.3-.7-.1-.5.3.2.3.3.7.4 1.1.1.3 0 .7 0 1.1-.1.42.4.62.5.2.1-.5.2-.9.1-1.4-.1-.5-.3-.9-.5-1.3zM3817.12 2026.73c-1.6-.7-.2-2.52-.2-3.52 0-.5-.2-.7-.3-1.1-.4-1.1-.4-2.12.2-3.22.1-.4-.4-.7-.5-.3-.4.7-.7 1.5-.6 2.3 0 1.12.7 1.92.4 3.03-.3 1.12-.7 2.73.7 3.33.3.2.6-.3.3-.5zM3828.72 2008.2c-1-1.3-.8-3.3-.4-4.92 0-.3-.5-.5-.6-.1-.4 1.8-.6 3.92.5 5.43.3.3.7-.1.5-.4z" stroke="#000" stroke-opacity="0" fill="#c2563e"/><path d="M3844.72 2067.4c-.1-.6-.9-3.83-2.1-2.93-.1.1-.3.1-.4.2-.1 0-.2.1-.2.1v-.2h-.1l-1-.3-.5-.2-.1-.1c-1.1.8-11 16.6-11 16.6s-12.6-17.1-12.7-17.1c-.3-.1-1.2.2-1.8.4-.2.1-.5.2-.5.2-.2.1-.4.2-.6.2l-1.1.4-.4.2c-.5.2-1 .4-1.1.9v.12c0 .2 0 .4.1.7 0 .2.1.3.2.5.1.5.2 1 .4 1.5.3 1 .7 2 1 3.02.4 1.1.9 2.32 1.3 3.42 1.1 2.92 2.3 5.74 3.4 8.56 5.6 9.56-.9 10.77 25.1 7.15 1.4-4.03.2 1.7.7-2.52.1-.6.1-1.2.2-1.8 0-1.12.1-2.33.1-3.53v-.8c.1-.82.1-1.62.1-2.42.1-1.72.1-3.43.3-5.14.1-.4.1-.7.1-1 .1-.8.3-1.5.4-2.32.1-.4.1-.7.2-1.1.1-.9.1-1.82 0-2.73z" stroke="#000" stroke-opacity="0" fill="#fff8f0"/><path d="M3821.92 2093.16c-1.2-4.83-.5-2.1-1.6-6.54-.6-2.62-1.5-5.13-2-7.75-.2-.7-.3-1.5-.4-2.32-1.2-3.12-2.7-6.74-3.5-7.95-.8-1.1-1.7-2.6-1.8-4.02-.3 0-.5 0-.7.1-.3.1-.6.2-.9.2-.2.1-.5.2-.7.2-1.4.4-2.9.8-4.4 1.3-.2 0-.5.1-.7.2-1.1.3-2.1.7-3.1 1.12-2 .8-4 1.7-5.9 2.9-1.2.82-8.8 8.17-5.7 5.95 0 0 18 16.9 31.4 16.6zM3859.22 2081.5c0-4.34-.2-8.87-4-11.7-3.8-2.9-8.4-4.72-13.1-5.83l-.3 1c-.5 1.92-.4 3.73-.7 5.64-.3 2.53-1.2 4.85-2 7.06-.4 4.83-.5 9.56-.8 14.3 12.9-2.42 20.9-9.77 20.9-10.47z" stroke="#000" stroke-opacity="0" fill="#456664"/><path d="M3839.22 2078.47c.1 3.52 2.2 6.54 5 8.55 1.6 1.2 2.7 1.8 4.5 2.52.5.2-.1-.4.4-.4-.3-.3 1 .3.7 0-3.4-3.63-7.2-7.05-10.6-10.67zM3854.02 2080.58c.3-2.82.6-6.04.2-8.86-1.5 1-2.7 4.94-3.1 6.55-1.1-3.43-2.9-7.86-5.5-10.47h-.1c.8 4.12 2 8.25 3.3 12.28.6 2.1 2.3 7.75 2.3 7.75l1.3-.3s1.3-5.04 1.6-6.95zM3854.72 2079.78c-.3 2.6-1.7 6.13.1 6.13 1.1-2 2.6-3.1 2.6-5.42.1-1.7-.2-3.42-.8-5.03-.1-.4-1.1-2.62-1.7-3.53.3 2.62.1 5.34-.2 7.86zM3848.02 2079.78c-1.1-3.73-2.2-7.45-3-11.28-1.2 4.33-.6 8.96 1.6 12.9-2.2-1.42-4.6-2.63-7-3.54-.1-.1-.1-.1-.2-.1 3.4 3.63 7.1 6.95 10.5 10.47.3.3-.3-.2 0 .1-.1-.4.7.1.5-.3-.8-2.72-1.5-5.54-2.4-8.26zM3812.12 2080.98c-.1 0-.1 0-.1-.1-2.2-2.92-3.3-7.55-3.8-11.17-.6 1.52-2.5 5.34-4.1 6.05.1-2.92.8-6.04 1.6-8.66.1-.3.2-.5.2-.7 1.5-.5 3-.92 4.4-1.32.2 1.1.3 2.1.5 3.22.6 4.23 1.1 8.46 1.3 12.68zM3805.22 2066.6c-.1.4-.3.8-.4 1.1-.6 2.4-1.2 5.13-1.3 7.75-.5-1-1.1-3.32-1.2-3.73-.3-1.3-.3-2.7-.2-4.02 1-.4 2-.8 3.1-1.1zM3814.12 2068.2c-.7-1.1-1.4-2.3-1.5-3.62-.3 0-.5 0-.7.1-.3.1-.6.2-.9.2.1 1.3.3 2.6.5 3.82.5 3.93 1 7.75 1.2 11.68 1.9-4.13 2-8.76.4-13 .4.32.7.52 1 .82z" stroke="#000" stroke-opacity="0" fill="#232c44"/><path d="M3841.02 2046.06c-.1 0-.2-.1-.3-.2 0-.1-.1-.1-.2-.1h-.2l-.2.2v.2l-.1.7-.2 6.95c0 .1 0 .1.1.2 0 .1 0 .1.1.1 0 .1.1.1.2.1h.2c.9-.4 2.7-1.5 2.7-4.02 0-1.7-1.2-3.22-2.1-4.12zM3814.92 2046.56l-.1-1s-.1-.1-.1-.2c-.1 0-.1-.1-.2-.1h-.2c-.1 0-.1.1-.2.1l-.3.3c-.8 1-1.9 2.5-1.8 4.12.2 2.52 2 3.52 3 3.92h.2c.1 0 .1-.1.2-.1 0 0 .1-.1.1-.2v-.1l-.6-6.74z" stroke="#000" stroke-opacity="0" fill="#f2e7e1"/><path d="M3813.62 2047.77c-.8.4-1 1.7-.8 2.5.2 1.02 1.5 1.52 1.8.32.1-.52.1-3.44-1-2.83zM3841.42 2048.37c-1.2-.4-1 2.42-.9 2.92.4 1.2 1.7.7 1.8-.3.2-.92-.1-2.23-.9-2.63z" stroke="#000" stroke-opacity="0" fill="#a2c6f6"/><path d="M3838.32 2063.27c0 .2 0 .4-.1.6 0 .4-.1.8-.2 1.1-.9 4.64-2.7 8.97-4.1 13.4-.9 2.5-1.5 5.13-1.9 7.85-.1.8-.2 1.6-.4 2.4l-.3-.1c-.3-.1-.4.4-.1.52l.3.1c-.2.5-.3 1.1-.6 1.6l-.6-.2h-.1c-.1 0-.1 0-.1.1h-.1v.1l-.1.1v.2c.1.3.2.7.4 1-.3.52-.5.92-.8 1.32h-.2s0 .1-.1.1c0 .1-.1.2-.1.3-.2-.6-.3-1.2-.5-1.9.2-.1.4-.3.6-.5.2-.2-.2-.6-.4-.3l-.3.3c-.1-.5-.2-1.02-.4-1.42l.6-.6c.3-.2-.1-.5-.3-.3-.1.1-.3.2-.4.3-.2-.9-.5-1.9-.8-2.82.3-.1.4-.3.6-.6.1-.2.1-.5.1-.7-.1-.3-.2-.5-.4-.7l-.6-.32h-.2-.2c-2.1-6.74-4.8-13.28-8.2-19.42-.2-.4-.6-1.1-.9-1.6-.2.1-.4.1-.4.2.2.3.5.9.6 1.2 3.5 6.24 6.3 12.88 8.5 19.83-.2.1-.4.3-.5.5-.1.2-.2.4-.2.7 0 .72.7 1.12 1.4 1.02.3 1.1.6 2.1.8 3.12-.3.3-.5.6-.8 1-.2.2.2.5.4.3.1-.3.4-.5.6-.7l.3 1.4c-.2.32-.3.52-.5.82-.2.2.3.4.4.2.1-.1.2-.3.3-.4.1.7.1.7.3 1.4 1.4 0 .4-.1 1.3-.1.2-.3.4-.7.6-1 0 .2.1.7.3.9.2.2.4.1.5 0 .4-.3.7-.7 1-1 .2-.3 1.1-1 .6-1.4-.3-.2-.8-.2-1.1-.3l-.5-.1.6-1.52.6.2c.3.1.4-.3.1-.4-.2-.1-.4-.2-.6-.2.2-.6.3-1.1.4-1.72.4-2.82 1-5.53 1.8-8.25 1.5-4.63 3.5-9.26 4.4-14.1 0-.3.1-.6.1-.9.1-.2.1-.3.1-.4l-.5-.2zm-12.4 22.34c0-.2 0-.3.1-.4 0-.2.1-.3.2-.4.2.5.3.9.4 1.42-.3 0-.7-.2-.7-.6zm1.2.42c-.1-.4-.3-.9-.4-1.3.7 0 .9.9.4 1.3zm3.4 5.03l.2.1c0 .1-.1.2-.1.3-.1-.1-.1-.2-.1-.4zm2 .5l-.7.7c-.1.1-.5.7-.7.9l-.3-1.1c.1-.3.2-.6.3-.8h.2c.2.1 1.2.2 1.2.3z" stroke="#000" stroke-opacity="0" fill="#fad3b1"/><path d="M3828.02 2093.06c27.6 0 50-22.34 50-49.92 0-27.7-22.4-50.03-50-50.03s-50 22.36-50 50.04c0 27.58 22.4 49.92 50 49.92z" stroke="#6c6e83" fill-opacity="0"/><path d="M4173 1235.27a6 6 0 0 1 6-6h160.17a6 6 0 0 1 6 6v38.3a6 6 0 0 1-6 6H4179a6 6 0 0 1-6-6z" stroke="#6c6e83" fill="#fff"/><path d="M4204.83 1242.92h140.34v23h-140.34z" fill="none"/><use xlink:href="#l" transform="matrix(1,0,0,1,4204.833875926062,1242.923806163496) translate(0 17.880208333333336)"/><use xlink:href="#m" transform="matrix(1,0,0,1,4204.833875926062,1242.923806163496) translate(31.682291666666668 17.880208333333336)"/><use xlink:href="#n" transform="matrix(1,0,0,1,4204.833875926062,1242.923806163496) translate(57.06640625 17.880208333333336)"/><use xlink:href="#o" transform="matrix(1,0,0,1,4204.833875926062,1242.923806163496) translate(82.91536458333334 17.880208333333336)"/><path d="M3840.33 1254.5a19.58 19.58 0 0 1 19.58-19.58h235.37a19.58 19.58 0 0 1 19.58 19.58 19.58 19.58 0 0 1-19.58 19.58H3859.9a19.58 19.58 0 0 1-19.57-19.58z" stroke="#6c6e83" fill="#fff"/><path d="M3896.66 1242.92h198.2v23h-198.2z" fill="none"/><use xlink:href="#p" transform="matrix(1,0,0,1,3896.665471903272,1242.9238061637366) translate(0 17.880208333333336)"/><use xlink:href="#q" transform="matrix(1,0,0,1,3896.665471903272,1242.9238061637366) translate(62.69010416666667 17.880208333333336)"/><use xlink:href="#r" transform="matrix(1,0,0,1,3896.665471903272,1242.9238061637366) translate(137.61197916666669 17.880208333333336)"/><path d="M3830.33 1303.9c27.6 0 50-22.32 50-50 0-27.55-22.4-49.96-50-49.96s-50 22.4-50 49.97c0 27.68 22.4 50 50 50z" stroke="#6c6e83" fill="#a2c6f6"/><path d="M3830.33 1302.78c26.9 0 48.8-21.8 48.8-48.76 0-26.96-21.9-48.77-48.8-48.77-27 0-48.8 21.8-48.8 48.77 0 26.95 21.8 48.76 48.8 48.76z" stroke="#000" stroke-opacity="0" fill="#a2c6f6"/><path d="M3851.23 1232.3c0-.2-.1-.4-.1-.6.2-.4.2-.8.2-1.2 0-1.02-.7-1.83-1.3-2.63-.7-1-1.4-2.02-2.2-2.83-.4-.4-.8-.8-1.2-1-.6-.32-1.1-.42-1.6-1.02-1-1.52-2.1-2.63-3.8-3.23-1.1-.42-2.3-.42-3.5-.32-.6-.7-1.7-1.1-2.8-1.1-.7-.1-1.5.2-2.3.1-.6-.1-1-.5-1.6-.6-1.2-.2-2.5.1-3.6.4-1.3.4-2.3 1-3.5 1.7-.7.4-1.4.2-2.2.3-.5 0-1 .2-1.5.42-1.8.8-2.9 2.42-3.4 4.24-1.2.1-2.2.6-3 1.4-1.4 1.42-1.4 3.04-1.3 4.86 0 .7 0 1.3-.2 1.9-.1.62-.3 1.13-.5 1.63-.3 1.1-.2 2.12 0 3.23l.9 5.76c-.4.9-.3 2.12.4 3.03.2.2.6.5.9.7.5.4 1 .9 1.4 1.52.5.8 1.1 1.6 1.8 2.32 3 2.92 7.3 3.83 11.4 3.52 2.5-.2 4.8-1 7.3-1.2 1.2-.1 2.4-.1 3.6-.3 1.1-.3 2.1-.72 3-1.22 3.6-1.72 6.9-4.85 7.3-9 0-.8 0-1.5.3-2.2.2-.52.5-1.02.7-1.52.3-1.12-.3-2.43 0-3.64.2-1.1.5-2.22.4-3.43z" stroke="#000" stroke-opacity="0" fill="#33261a"/><path d="M3851.83 1284.4c-3.6-2.2-8.8-3.12-10.6-7.36-.9-2.33-.5-5.15-.5-7.58v-7.37c0-.3-.4-.4-.5-.1-1 1.4-4 1.3-5.5 1.4-1.7.1-3.5.2-5.3.2-3.1 0-6.7.3-9.5-1.2 0-.4-.1-.7-.1-1.1 0-.32-.6-.32-.6 0 0 .4.1.7.1 1.1-.1 0-.1.1-.1.1 0 .1.1.2.1.2.1 1.1.1 2.22.2 3.33.2 2.93.3 5.86.3 8.8.1.9.1 1.9.1 2.8-.9 1.93-2.3 3.75-3.9 5.26-1.3 1.2-2.7 2.3-4.2 3.22-1.1.8-2.5 1.32-3.3 2.53v.2c0 .1.1.1.1.2 3.4 1.62 6.9 3.13 10.5 4.55 3.3 1.2 7.1 2.92 10.8 2.52 1.6-.2 2.9-.9 4.3-1.72 1.7-1 3.4-1.92 5.1-2.82.8-.5 1.6-.9 2.4-1.32 3.3-.2 6.5-1.1 9.5-2.52.6-.3 1.7-.6 2.1-1.2.8-1.02-.8-1.73-1.5-2.13z" stroke="#000" stroke-opacity="0" fill="#b86554"/><path d="M3844.63 1256.64c.2-.8.3-1.6.5-2.52 0-.2 0-.3.1-.5l.3-1.52c0-.3.1-.6.1-.9.1-.82.2-1.53.4-2.23l.3-2.33c.9-6.56 1.4-12.3 1.2-12.82-.8-2.22-2.3-3.23-4-4.54-.3-.3-.6-.5-.9-.7-.3-.2-.5-.4-.8-.6-1.7-1.53-4.2-1.93-6.4-2.03-5.2-.2-10.2 0-14.8 2.52-.7.3-1.3.7-1.9 1.2-.1.1-.3.2-.5.3-.6.62-1.2 1.23-1.7 2.04-.5.7-.8 1.52-.9 2.43-.2 1.2-.1 2.42-.4 3.73v.2c-.2 1.02-.2 3.74-.1 6.97v2.33c.1.8.1 1.6.1 2.42.1.7.1 1.5.2 2.22v.6c.1.5.1.9.1 1.42.1.4.1.9.2 1.3.2 1.73.4 3.04.7 4.05.6 2.22 1.6 4.34 3 6.26 1.9 2.52 4.4 4.54 7.4 5.25 1.2.4 2.5.5 3.8.4.8-.1 1.6-.2 2.3-.4.5-.1 1-.2 1.5-.4 1.6-.4 3.1-1.2 4.4-2.22 1.8-1.42 3.2-3.34 4.1-5.56.6-1.5 1.2-3.84 1.7-6.36z" stroke="#000" stroke-opacity="0" fill="#b86554"/><path d="M3849.13 1246.34c-.4-1.5-2.1-2.32-3.1-.8-.1.2.1.4.3.4-.8 1.4-1.3 3.03-1.8 4.64-.3 1.1-1.1 2.93-.8 4.14.5 2.12 3.3-.2 4-1 1.7-2.03 2-4.95 1.4-7.38zM3812.63 1251.6c.5.9 3 3.53 3.8 1.5.4-1.2-.1-3.02-.3-4.23-.2-1.72.1-2.83-.5-4.34.2 0-.2-.6-.3-.9-.8-1.63-2.6-1.02-3.2.4-.9 2.4-1 5.34.5 7.56z" stroke="#000" stroke-opacity="0" fill="#b86554"/><path d="M3839.63 1247.76c.1-.6.2-1.22.1-1.72 0-.3-.1-.6-.3-.8-.6-.6-1.3-.1-1.4.5-.3.8-.3 2.52.4 2.92.7.4 1-.1 1.2-.9zM3823.43 1246.95c.1-.5.2-1.1.1-1.72 0-.3-.2-.5-.3-.7-.6-.6-1.3-.1-1.4.5-.3.8-.3 2.42.4 2.83.8.4 1.1-.1 1.2-.9z" stroke="#000" stroke-opacity="0" fill="#33261a"/><path d="M3847.23 1247.15v-.1c0-.1 0-.1-.1-.2h-.2-.1c-.1 0-.1.1-.1.1-.1 0-.1.1-.1.1V1247.35l-.3 1.2c-.1.42-.5.92-.4 1.33 0 .2.1.3.2.4.2.4.3.7.3 1.1 0 .4-.4 1.73-1 1.42-.4-.1-.7.4-.3.5 1 .5 1.8-.9 1.9-1.8 0-.2 0-.5-.1-.7 0-.32-.4-.62-.4-.92-.1-.3.3-.9.4-1.22l.3-1.5zM3815.13 1251.1c-1-.92-1.2-1.63-.4-2.23l.4-.4c.1-.2.1-.3.1-.5.1-1.02-.4-2.23-.7-3.24-.1-.3-.7-.2-.6.2.2.7.9 2.52.7 3.13-.2.6-.8.8-1 1.4-.2 1.02.4 1.83 1.3 2.13.4.1.5-.4.2-.5zM3836.63 1270.78c-.3-.5-1.4-.2-3.1.5-2.6.9-6.2.1-8.6-1-1.9-.92-3.9-2.63-5.4-4.35.2 3.03.3 5.96.3 8.88.2.02.4.02.6.02 1.2 0 2.4.6 3.6.7 1 0 1.8-.5 2.7-.7 1.2-.4 2.4 0 3.7-.2.9-.1 1.8-.6 2.6-1.12 1-.6 4.2-1.3 3.6-2.72zM3833.33 1253.5c-.2-1.5-.4-3.12-.7-4.63-.1-.4-.7-.3-.6 0 .4 2.02.7 4.14.9 6.16 0 .7.3 1.2-.6 1.6-.6.3-1.5.2-2.1.1-.8-.1-1.4-.1-2.2-.1-.4.1-.4.72 0 .62 1.4-.1 4.6.9 5.4-.7.4-.82 0-2.23-.1-3.04z" stroke="#000" stroke-opacity="0" fill="#9c4736"/><path d="M3818.23 1241.7c.1.6.8.8 1.4.8 1.4.2 2.9 0 4.3 0 .8 0 2.6.3 3.3-.3 1.5-1.2-1.5-2.02-2.3-2.12-1.4-.2-2.8-.2-4.2.1-.5.1-2.7.9-2.5 1.52zM3842.23 1241.2c-1.3-.3-2.8-.4-4.2-.3-.7.1-3.8.7-2.3 2 .6.62 2.4.4 3.2.4 1.5.1 2.9.32 4.4.32.5 0 1.2-.2 1.4-.8.3-.62-1.9-1.53-2.5-1.63z" stroke="#000" stroke-opacity="0" fill="#33261a"/><path d="M3827.73 1260.38c-.6-.1-1.3-.3-1.9-.6-.1 0-1-.2-1.1-.4.2.6.9 1.3 1.3 1.8.9 1.22 1.7 1.62 3.1 1.72 1.6.1 3.5-.1 4.9-1 0 0 1.6-1.12 1.8-2.23-.1.2-2 .6-2.9.8-.8.1-3.4.2-5.2-.1z" stroke="#000" stroke-opacity="0" fill="#9c4736"/><path d="M3858.23 1289.96l-.3-4.14v-.1h-.1l-4.3-1.82c-1.4-.6-7.2-2.12-7.2-2.12s-13 11.1-14.5 11.4c-1.6.3-15.4-10.6-15.4-10.6s-5.7 1.83-7.3 2.94c-2.9 2.12-2.1 5.75-1.9 8.78 2.4 14.64 49.9 12.12 51-4.34z" stroke="#000" stroke-opacity="0" fill="#fff8f0"/><path d="M3810.83 1300.36s.3 1.3.7-1.2c.7-4.96 2.2-15.66 2.1-15.66-.2 0-.4 0-.5.1h-.1c-4.9 1.1-9.6 4.54-14.3 6.56-3.5 1.42-1.3 1.62-1.3 1.62l13.4 8.58zM3865.63 1287.54c-1.7-1.32-3.6-1.92-5.6-2.53-2.5-.7-4.5-.9-6.9-1.6-.6-.2-3.3-.7-3.3-.7 0 6.25-1.2 18.37 0 17.66 8.5-4.85 16.6-10.1 15.8-12.82z" stroke="#000" stroke-opacity="0" fill="#456664"/><path d="M3820.43 1301.67c-.5-1-1-2.02-1.3-3.13l-.1-.1c-.1 0-.1 0-.1-.1h-.2c0 .1-.1.1-.1.1-1 1-1.9 1.92-2.8 3.03-.2.3.2.7.5.4.7-.9 1.5-1.8 2.4-2.62.3.9.7 1.82 1.2 2.73.2.3.7 0 .5-.3zM3846.73 1294.4c-.5-.9-1-1.7-1.5-2.52-.2-.3-.4-.6-.8-.5-.5 0-1 .7-1.3 1-.6.6-1.2 1.32-1.7 2.02-.2.3.2.7.5.4.6-.9 1.3-1.7 2.1-2.52.4-.3.3-.3.7-.1.2.2.3.6.5.8.3.5.7 1.12 1 1.73.2.3.7 0 .5-.3zM3837.03 1304c-.5-.9-.9-1.92-1.4-2.73-.2-.2-.4-.5-.8-.4-.4 0-.9.8-1.1 1.1l-2 2.43c-.3.3.2.7.4.4.8-1 1.5-2.22 2.5-3.03.2-.2.1-.3.5-.1.1 0 .3.6.4.8l1 1.83c.2.3.7 0 .5-.3zM3819.33 1288.65c-.3-.7-.7-1.52-1.1-2.22-.2-.4-.6-1.22-1.1-1.22-.5-.1-1 .62-1.3.92-.7.6-1.4 1.32-2 2.12-.3.3.2.7.4.4.4-.5.7-.9 1.1-1.2.3-.4.9-1.1 1.3-1.32.7-.3.9.4 1.2.9.4.62.7 1.22.9 1.83.2.4.7.2.6-.2z" stroke="#000" stroke-opacity="0" fill="#aeb5c2"/><path d="M3848.43 1233.52c-.3-.7-.9-1.3-1.4-2.02-.7-.7-1.3-1.52-2-2.12-1.4-1.4-2.9-2.53-4.7-3.33-3.6-1.52-7.7-1.32-11.4-.6-2.1.5-4.2 1.1-6.3 1.8-1.7.62-3.5 1.12-4.9 2.23-3.5 3.03-2.5 8.18-3.4 12.12v.1h.1c.3 1.1.4 2.22.8 3.23.1.4.4.8.8.7.6-.3.6-1.5.7-2 .1-1.12 0-2.24.3-3.35.4-1 .4-1.9.6-2.92.2-1.32.7-2.22 1.5-3.23 1.3-1.52 2.4-3.24 3.1-5.15.4.1.7.1 1.1.1.9 0 1.8 0 2.6.1 1.8 0 3.7.1 5.5.1 3.6.2 7.1.6 10.7 1h.1c2.4 1.12 2.1 4.86 2.4 7.08.2 1.5.4 3.03.8 4.54.1.8 0 1.62 0 2.42-.1.7-.3 1.42-.4 2.12 0 .3 0 .6.3.7.5.5.8-.3.9-.7.2-.5.4-1.1.6-1.7.3-.52.5-1.12.6-1.73.2-1.1.3-2.2.5-3.32.2-1 .3-2.12.5-3.13.1-1 .3-2.02 0-3.03z" stroke="#000" stroke-opacity="0" fill="#33261a"/><path d="M3830.33 1303.9c27.6 0 50-22.32 50-50 0-27.55-22.4-49.96-50-49.96s-50 22.4-50 49.97c0 27.68 22.4 50 50 50z" stroke="#6c6e83" fill-opacity="0"/><path d="M3840.33 1780.6a19.5 19.5 0 0 1 19.5-19.5h141a19.5 19.5 0 0 1 19.5 19.5 19.5 19.5 0 0 1-19.5 19.5h-141a19.5 19.5 0 0 1-19.5-19.5z" stroke="#6c6e83" fill="#fff"/><path d="M3896.67 1769.12h100v23h-100z" fill="none"/><use xlink:href="#s" transform="matrix(1,0,0,1,3896.6657158053185,1769.1163155732306) translate(0 17.880208333333336)"/><use xlink:href="#t" transform="matrix(1,0,0,1,3896.6657158053185,1769.1163155732306) translate(40.67838541666667 17.880208333333336)"/><path d="M3830.33 1830.92c27.6 0 50-22.4 50-50s-22.4-50-50-50-50 22.4-50 50 22.4 50 50 50z" stroke="#6c6e83" fill="#a2c6f6"/><path d="M3830.23 1732.22c27 0 48.8 21.8 48.8 48.8 0 26.9-21.8 48.8-48.8 48.8-26.9 0-48.7-21.9-48.7-48.8 0-27 21.8-48.8 48.7-48.8z" stroke="#000" stroke-opacity="0" fill="#a2c6f6"/><path d="M3845.03 1810.52c-3-4.6-4.6-10.6-4.3-15.9.1-1.1.2-2.3.5-3.4.1-.3-.2-.6-.4-.3-2.2 2.9-5.5 2.8-8.7 2.2-3.3-.6-6.7-1-9.9-2.1.1-.5.1-.9.1-1.4 0-.3-.5-.4-.5-.1-.1.5-.1.9-.1 1.4-.2.1-.3.4-.1.5v2.1c-.1 1.8-.1 3.6-.2 5.4 0 1.2-.2 2.4-.5 3.5-.4 1.6-1.1 3-2 4.3-1.7 2.2-4.2 3.6-6.1 5.6-.2.2-.1.4.1.4 2.4 1.5 5 2.5 7.7 3.3 3 .9 5.7 1.8 8.8 1.2 1.4-.4 2.8-.8 4.3-1 1.4-.2 2.8-.3 4.2-.6 1.4-.3 2.8-.8 4.2-1.4.6 0 1.2 0 1.7-.1.7-.1 2-.3 2.3-1.1.3-.8-.7-1.8-1.1-2.5z" stroke="#000" stroke-opacity="0" fill="#fea689"/><path d="M3847.03 1774.92c-.1.4-.6.1-.5-.2.2-.4.3-.7.5-1.1-1 .7-2.7.7-3.6 1.2-1.1.5-1.4 1.5-2.2 2.3-.7.7-1.6 1.2-2.5 1.7-6 3.4-13.4 4.2-19.9 1.9-1.4-.4-2.8-1.1-3.8-2.2-.5-.6-.8-1.3-.9-2-.1-.7-.1-1.4-.1-2-.1-1.3-.4-2-1.3-2.9-.4-.3-.8-.6-1-1.1-.3-.8-.2-1.6-.1-2.4l-.9-.9c-1-1.3-1.4-2.8-.9-4.8.4-1.3.8-2.7 1.6-3.8.4-.7 1.2-1.1 1.4-1.9.3-1 .1-2.1 0-3.1-.1-2.9.6-5.4 3.3-6.9 1.3-.8 2.8-1.1 4.2-1.1 1.1-1.1 2.4-2.2 5.5-2.6 3.1-.4 10.5 2.3 10.5 2.3 3.1-1.1 6 2.2 6.9 5.3 1.7 0 3.3.9 4.6 1.8.7.6 1 1 1 1.8 0 1.5 1 2.3 1.2 3.7.2 1.2-.3 2.2-.6 3.3-.6 1.9-.1 3.5-.1 5.3 0 3-1.2 5.8-2.3 8.4z" stroke="#000" stroke-opacity="0" fill="#db6e56"/><path d="M3821.83 1765.62c-.5.2-.9.5-1.4.7-.2.1-.3.2-.4.2-.1 0-.1.1-.2.1-.1.1-.3.1-.4.1-.1.1-.1.1-.2.1-.2.1-.3.1-.5.2h-.2c-.1 0-.3.1-.4.1H3817.23c-.1 0-.2-.1-.3-.1h-.1-.1c-.6-.2-1.2-.6-1.8-.8-.2-.1-.5-.2-.8-.2-1 .1-1.5 1.2-2.5 1.3-.3 0-.6-.1-.9-.2.3.4.6.7.9 1-.1.8-.2 1.6.1 2.3.2.6.6.9 1 1.2.7.7 1.1 1.4 1.2 2.4 0 .1.1.3.1.5 0 .6 0 1.3.1 2 .2 0 .3-.1.4-.1.5-.1 1-.3 1.4-.5l.6-.3.1-.1c.7-.4 1.2-1 1.6-1.6.3-.5.5-1 .7-1.5.1-.2.2-.5.3-.8.2-.5.4-1.1.6-1.6.3-.5.6-1.1 1-1.6.6-.8 1.2-1.5 1.4-2.6v-.1c0-.1-.1-.1-.1-.1-.1-.1-.1-.1-.2-.1 0 0-.1 0-.1.1z" stroke="#000" stroke-opacity="0" fill="#c2563e"/><path d="M3829.53 1799.52c4.9 1.2 9.2-1.5 11.8-5.8 1.2-2 2.8-4.9 3.4-7.1.9-4 1.4-8.1 1.9-12.2.3-2.4.5-4.8.8-7.2.1-1.1.2-2.3-.1-3.4-.5-1.2-1.5-2.1-2.4-2.9-1.3-1-2.5-2.1-3.9-2.9-2.9-1.4-6.2-1.4-9.4-1.2-3.6.3-7.3.9-10.4 2.8-1.7 1-3.1 2.3-3.8 4.1-.6 1.4-.6 2.9-.7 4.3-.2 5.5-.3 11.1 1 16.5 1.4 5.6 4.6 12 10.2 14.5.5.2 1 .4 1.6.5z" stroke="#000" stroke-opacity="0" fill="#fea689"/><path d="M3849.13 1774.72c-.3-.6-.8-1.5-1.5-1.7H3846.93c-.3.1-.5.2-.7.4-.7.5-1.4 1.4-1.9 1.8-.2.3.3.6.5.4l.1-.1c-.3.6-.6 1.3-.8 2-.1.2-.2.4-.2.6-.6 1.7-.8 3.6-.8 5.4.1 1.9 1.5 1.4 2.7.5.6-.4 1.2-.9 1.8-1.5 1.6-1.8 2.7-5.6 1.5-7.8zM3818.73 1780.72c.2-1.9 0-3.8-.4-5.6v.1c.2.3.7.1.5-.2-.1-.3-.3-.7-.6-1.1-.3-.5-.6-1-1-1.4l-.6-.3h-.3-.2c-.7 0-1.4.7-1.8 1.2-.1.2-.3.4-.4.6-1.2 2.1-.9 5.5.3 7.4.5.9 2.4 3.5 3.5 2.9.3-.1.5-.4.6-.9.2-.9.3-1.8.4-2.7z" stroke="#000" stroke-opacity="0" fill="#fea689"/><path d="M3839.83 1776.42c.1-.6.2-1.2.1-1.7 0-.3-.1-.6-.3-.8-.5-.6-1.1-.1-1.3.5-.3.7-.4 2.3.3 2.8.7.4 1-.1 1.2-.8zM3825.13 1776.02c.1-.6.1-1.1 0-1.7 0-.2-.2-.5-.3-.7-.6-.5-1.2 0-1.4.6-.2.7-.1 2.3.6 2.7.7.3.9-.2 1.1-.9z" stroke="#000" stroke-opacity="0" fill="#232c44"/><path d="M3847.53 1779.62c0-.6-.5-1-.5-1.6-.1-.7.3-1.7.4-2.3.1-.4-.5-.5-.6-.1-.1.7-.5 1.8-.4 2.6 0 .1.1.2.1.4.1.2.3.4.4.6 0 .8-.3 1.2-.8 1.1-.4.1-.3.6.1.6.7-.1 1.3-.4 1.3-1.3zM3816.83 1780.72c-1.4-.9-.3-1.8-.1-2.9.1-.9-.3-1.8-.2-2.7 0-.3-.6-.4-.6-.1 0 .7.1 1.3.2 1.9.1 1-.3 1.4-.6 2.2-.2.8.2 1.6.9 2 .3.2.7-.2.4-.4zM3831.33 1785.82c-.8-.4-1.9-.9-2.4-1.7-.9-1.3.2-2.2.8-3.1.8-1.4 1.5-2.8 1.8-4.3.1-.4-.4-.5-.5-.1-.4 1.4-.9 2.7-1.6 3.9-.5.7-1.3 1.5-1.4 2.4-.3 1.7 1.7 2.8 3 3.4.4.2.6-.4.3-.5zM3831.33 1789.02c-1.8-.1-5.4-1.2-5.4-1.2s1.8 2 3.4 2.7c1.1.6 2.4.8 3.6.4 1.4-.6 3.5-3.1 3.5-3.1s-3.2 1.2-5.1 1.2z" stroke="#000" stroke-opacity="0" fill="#f2815c"/><path d="M3826.13 1768.82c-1.2-.2-2.5 0-3.7.4-.7.2-1.3.5-1.9.9h-.2c-.4.3-1.3.8-1.2 1.3 0 .1.2.2.3.2.1.1.2.1.3.1.7.2 1.3.2 2 .2 1.6-.2 3.1-.6 4.7-.5.7.1 2.4.2 2.5-.9.1-1.2-1.9-1.6-2.8-1.7zM3841.43 1769.02c-1.2-.4-2.5-.5-3.7-.4-.9.2-2.9.6-2.8 1.8.2 1.4 2.8.7 3.6.8 1.2 0 2.4.3 3.6.5.7 0 2 .2 2.5-.4.7-.8-2.6-2.1-3.2-2.3z" stroke="#000" stroke-opacity="0" fill="#db6e56"/><path d="M3848.13 1768.22c.1-2.2-.2-4.4-1.2-6.3-1.3-2.7-3.7-5.1-6.4-6.5-.3-.2-.6-.3-.9-.5-1.1-.5-2.3-.9-3.5-1-.8-.2-1.6-.2-2.4-.1-.4.1-.7.1-1.1.2-1.2.2-2.4.6-3.5 1-2.6.9-5.2 1.9-7.6 3.1-1 .6-2.2 1.1-3.1 1.9-.9.8-1.4 2-2 3-.5 1-1.3 2-1.5 3.2v.4c-.1 1.4 1.4 2.6 1.1 3.9 0 0-.1 0-.1.1-.1.1-.1.1-.1.2.1.3.1.9.3 1.4.1.1.1.2.2.3.1 0 .2.1.3.2h.3c.1 0 .2-.1.3-.2.2-.2.3-.6.4-.8.5-1.4.5-2.8.6-4.2v-.1c.8-.1 1.5-.4 2-1 .1 0 .1 0 .2-.1.2-.3.5-.6.7-.9.2-.4.4-1.4.8-1.8.1-.1 1.5-.3 1.7-.3.3 0 .7.2 1.1.2.5.1 1 .1 1.5 0 1-.3 1.5-.8 2-1.5.3-.3.7-.9 1.2-1.1.3-.1.8.1 1.2.1.6.1 1.1 0 1.7 0 1.5-.3 2.4-1.4 3-2.7 1.6.4 3.4 1.4 4.9 2 1.7.8 3.5 1.6 5.1 2.6.1 0 .1.1.1.1v8.7c0 .4-.1 1.7.3 2.4.1.2.2.3.3.3.1.1 1.5-1.7 1.6-2.2.3-1.3.5-2.6.5-4z" stroke="#000" stroke-opacity="0" fill="#db6e56"/><path d="M3819.53 1778.72h-.5c-.3.2-.1.7.2.6h.2c.1-.1.2-.1.2-.2v-.1-.1-.1c-.1 0-.1 0-.1-.1zM3820.93 1782.42c0-.1-.1-.1-.2-.1 0 0-.1 0-.1.1-.1-.1-.2-.1-.2 0-.1 0-.1 0-.2.1v.2c.1.1.1.2.2.2h.3c.1 0 .2-.1.3-.1v-.1-.1-.2h-.1zM3822.43 1780.92h-.2c-.4 0-.5.5-.1.6h.2c.3.1.4-.5.1-.6zM3825.23 1779.12l-.2-.1c-.3 0-.4.5-.1.6h.2c.4.1.5-.5.1-.5zM3825.23 1781.32l-.1-.1c-.3-.2-.6.2-.3.5.3.2.7-.2.4-.4zM3821.43 1778.62h-.1c-.4-.1-.5.5-.1.5h.1c.1.1.1 0 .2 0 .1-.1.1-.1.1-.2v-.2c-.1-.1-.1-.1-.2-.1zM3841.43 1779.52h-.4c-.1.1-.1.1-.1.2v.2c.1.1.1.1.2.1l.2.1c.1 0 .1 0 .2-.1.1 0 .1-.1.1-.2v-.2c-.1 0-.1-.1-.2-.1zM3843.73 1778.52h-.1c-.1 0-.2 0-.2.1-.1 0-.1.1-.2.1 0 .1 0 .2.1.2 0 .1.1.1.2.2h.1c.3 0 .4-.5.1-.6zM3838.63 1778.72c-.2-.1-.3-.1-.5-.1-.4 0-.3.6 0 .5h.1v.1c.3.2.7-.3.4-.5zM3839.13 1781.32l-.2-.1s-.1 0-.2.1c0 0-.1.1-.1.2 0 0 0 .1.1.2l.1.1h.2c.4.1.5-.5.1-.5zM3841.83 1782.62h-.1c-.1 0-.2 0-.2.1-.1 0-.1.1-.2.1 0 .1 0 .2.1.3 0 0 .1.1.2.1h.1c.4.1.5-.5.1-.6zM3843.33 1781.22h-.2c-.3-.1-.4.5 0 .6h.1c.1 0 .2 0 .2-.1.1 0 .2-.1.2-.1 0-.1 0-.2-.1-.3 0 0-.1-.1-.2-.1zM3836.93 1780.92h-.2c-.3-.1-.4.4-.1.5h.2c.3.1.4-.5.1-.5z" stroke="#000" stroke-opacity="0" fill="#f2815c"/><path d="M3820.03 1766.52l-.2.1c-.1.1-.3.1-.4.1l-.2.1c-.2.1-.3.1-.5.2h-.2c-.1 0-.3.1-.4.1H3817.23c-.1 0-.2-.1-.3-.1h-.1-.1c-.6-.2-1.2-.6-1.8-.8v.4c-.1 1.4 1.4 2.6 1.1 3.9 0 0-.1 0-.1.1-.1 0-.1.1-.1.2.1.3.1.9.3 1.3.1.2.1.3.2.3l.3.3h.3c.1 0 .2-.1.3-.2.2-.2.3-.6.4-.8.5-1.4.5-2.8.6-4.2v-.1c.8-.1 1.5-.4 2.1-1l.1-.1c-.2.1-.3.2-.4.2zM3842.63 1751.22c-.4.5-.5 1-.7 1.6-.2.6-.4 1.3-1 1.8-.5.3-1 .2-1.6.4-.4.1-.8.3-1.1.6-.9.9-.6 2.2-2.5 1.6-.4-.1-.5.5-.1.6.6.1 1.5.2 2-.2.4-.3.4-.9.7-1.3.5-.7 1.2-.7 2-.9 2.1-.5 1.6-2.4 2.8-3.9.2-.2-.2-.6-.5-.3zM3834.03 1754.02c-1.5-.7-3.1-1.4-4.8-1.3-1.7 0-2.7.8-4 1.7-1.1.8-2 .3-3.1.2-.7 0-1.5.1-2.1.4-1.3.5-2.6 1.3-3 2.7-.1.4.5.5.6.1.5-2 3.3-2.8 5.1-2.5 1 .1 1.6.4 2.5-.2 1.3-.8 2.1-1.7 3.6-1.9 1.8-.1 3.5.6 5 1.3.3.2.6-.3.2-.5zM3823.43 1752.22c-2-1.5-5.4-1-7.2.5-.3.3 0 .7.3.5 1.6-1.4 4.8-1.9 6.5-.5.3.2.7-.2.4-.5z" stroke="#000" stroke-opacity="0" fill="#c2563e"/><path d="M3837.63 1797.42c-.4-.1-1.2.3-1.6.4-.8.3-1.5.6-2.4.7-1.5.1-3.1.3-4.5 0-3-.5-5.3-2.6-7.3-4.7-.1-.1-.2-.2-.2-.3-.1 1.8-.1 3.6-.2 5.4 0 1.2-.2 2.4-.5 3.5h.5c1.1.1 1.9.4 2.9.8.9.4 1.6.3 2.5-.1.9-.5 1.4-.8 2.5-.7.5 0 1.1.2 1.6.2 1.3 0 2-1 3-1.7 1.2-.9 2.3-1.4 3.2-2.7.1-.2.7-.8.5-.8z" stroke="#000" stroke-opacity="0" fill="#f2815c"/><path d="M3816.53 1805.62s2.8-4.6 3.4-4.7c.5-.2 7.9 5.7 8.2 6.7.4 1 2.4 9 2.4 9s2.2-9.1 2.6-9.5c.4-.5 9.3-6.7 10.3-6.1 1 .6 3.4 6.6 3.4 6.6s-13.6 13.2-13.9 13.2c-.2 0-12.5-6.9-12.9-7.6-.4-.6-3.5-7.6-3.5-7.6z" stroke="#000" stroke-opacity="0" fill="#fff"/><path d="M3870.23 1810.72c-1.6-.7-3.4-1.4-5.1-1.9-1.8-.4-3.5-.5-5.2-.9-1.4-.4-2.6-1-3.9-1.5-4.1-1.9-8.2-3.1-12.5-.9-2.3 1.1-4 3-5.9 4.6-2.2 1.8-4.6 3.4-7.1 4.7l-7.2-5.6-3.7-2.8c-.9-.7-1.8-1.7-2.9-2-2-.5-4.7.8-6.4 1.5-2.5 1-4.9 2.2-7.6 2.7-2.6.4-5.3.4-7.9.9-1.4.4-2.8.8-4.1 1.3 33.5 38.5 75 11.6 79.5-.1z" stroke="#000" stroke-opacity="0" fill="#6b3939"/><path d="M3817.13 1804.62s4 12.5 5.4 12.6c1.3.2 5.4-5.5 5.4-5.5s-4-5.3-4.4-5.5c-.5-.1-6.4-1.6-6.4-1.6zM3832.73 1811.12s2.4 6.1 3.4 6.2c1.1.1 9.5-12.6 9.5-12.6s-2.9-.1-3.5.2c-.7.4-9.4 6.2-9.4 6.2z" stroke="#000" stroke-opacity="0" fill="#fff"/><path d="M3834.13 1816.22c-1.1 1.1-2.4 3-4.1 2.2-1.3-.6-3.2-1.4-3.9-2.6-.2-.3-.7 0-.5.3.5.8 1.3 1.3 2.1 1.7.9.6 2 1.4 3.1 1.5 1.4.3 2.9-1.8 3.8-2.7.3-.3-.2-.6-.5-.4z" stroke="#000" stroke-opacity="0" fill="#452222"/><path d="M3827.83 1810.02l-.6 2c-.1.4.5.5.6.1l.6-2c.1-.3-.5-.4-.6-.1zM3833.83 1811.72c-.2-.6-.4-1.3-.4-2 0-.4-.5-.3-.5.1 0 .7.1 1.4.3 2.1.2.4.7.2.6-.2z" stroke="#000" stroke-opacity="0" fill="#f2e7e1"/><path d="M3830.33 1830.92c27.6 0 50-22.4 50-50s-22.4-50-50-50-50 22.4-50 50 22.4 50 50 50z" stroke="#6c6e83" fill-opacity="0"/><path d="M3840.33 1521.47a19.5 19.5 0 0 1 19.5-19.5h161a19.5 19.5 0 0 1 19.5 19.5 19.5 19.5 0 0 1-19.5 19.5h-161a19.5 19.5 0 0 1-19.5-19.5z" stroke="#6c6e83" fill="#fff"/><path d="M3896.67 1510.26h123.66v22.42h-123.66z" fill="none"/><use xlink:href="#u" transform="matrix(1,0,0,1,3896.6657158051557,1510.261693467744) translate(0 17.880208333333336)"/><use xlink:href="#r" transform="matrix(1,0,0,1,3896.6657158051557,1510.261693467744) translate(71.421875 17.880208333333336)"/><path d="M3830.33 1567.45c27.6 0 50-22.4 50-50.02 0-27.62-22.4-50.03-50-50.03s-50 22.4-50 50.03c0 27.6 22.4 50.02 50 50.02z" stroke="#6c6e83" fill="#a2c6f6"/><path d="M3830.33 1468.5c26.9 0 48.7 21.9 48.7 48.83 0 26.9-21.8 48.82-48.7 48.82-26.9 0-48.7-21.9-48.7-48.82s21.8-48.83 48.7-48.83z" stroke="#000" stroke-opacity="0" fill="#a2c6f6"/><path d="M3851.03 1520.93c-.6-3.2-.4-6.4-.6-9.6-.3-2.6-.7-5.2-1.3-7.8-.5-2.4-.4-4.9-.9-7.3-.9-4.12-2.3-9.32-6.1-11.42-1.1-.6-2.3-.9-3.5-1-1.3 0-2.5.3-3.6.8 0 0-10.7-3.4-18.2 1.8-2.4 1.6-3.6 5.9-4.7 8.42-2.3 4.7-1.8 9.7-1.9 14.8-.2 3-.8 5.5-2.2 8.3-1 2-1.2 3.8-.6 6 .4 1.5.7 2.9.3 4.4-.4 1.2-1 2.3-.9 3.6 0 1.9 1.4 3.5 2.8 4.6.9.7 1.8 1.2 2.7 1.82-.5.7-.8 1.5-.1 1.9 1.7 1.1 3.7 1.7 5.7 2.3 2.3.7 4.6 1.4 7 1.9 4.4.9 12.7-.8 18.5-2.4h.1c1.9 0 4.2-.2 5.8-1.2 1.7-1 2.5-3.1 2.8-4.9.8-4.8-.2-10.3-1.1-15z" stroke="#000" stroke-opacity="0" fill="#b06d51"/><path d="M3849.23 1540.04c-.1-1.5-.3-3.1-.4-4.6-.2-1.2-.2-2.5-.7-3.6-.4-.8-.9-1.3-1.1-2.3-.2-.9-.2-1.7-.3-2.6-.1-1.8-.2-3.6-.4-5.4-.3-3.7-.5-7.42-.8-11.22 0 0 0-.1-.1-.1 0-.1-.1-.1-.1-.1-.1-.1-.1-.1-.2-.1 0 .1-.1.1-.1.1-1.9 1.8-4.2 3-6.5 4.1-2.9 1.4-5.4 2.3-8.6 1.3-2.7-.9-4.9-2.6-7.4-3.9-1.1-.5-3.6-2-4.7-.9-.6.6-.8 1.8-1.2 2.5-.5 1-1.1 2-1.7 2.9-1.2 1.7-2.2 3.4-2.5 5.5-.1 1.4 0 2.9-.7 4.3-.6 1.1-1.5 1.9-2 3.1-.8 1.6-1.1 3.5-.9 5.3v.2c0 .1 0 .1.1.2v.3c.1.2.3.3.5.1.4.8.6 2.62.8 3.12.5 1 1.1 1.9 1.9 2.7 1.8 2 4.3 3.2 6.8 4.3 2.4 1 4.8 2 7.5 2.3 3 .3 5.8 1.6 8.8 1.8 2.9.3 5.8.1 8.7.5 2.1.3 4.2 0 5.1-2.2.9-2.3.4-5.2.2-7.6z" stroke="#000" stroke-opacity="0" fill="#8f5238"/><path d="M3841.73 1517.83c0-.2-.3-.4-.5-.2-.4.5-.7 1.2-1.2 1.6-.5.5-1.2.8-1.8 1-1.6.6-3.3 1-5 1.3-1.5.2-3.1.2-4.6.1-1-.1-1.9-.1-2.8.2 0-.4-.1-.7-.1-1.1 0-.4-.6-.4-.5 0 0 .4 0 .9.1 1.3-.3.2-.2.5 0 .6.1.6.1 1.2.1 1.9.1.3.1.6.1.9l.3 6.9v.2c0 2 .1 4.1 0 6.1-.3.7-.6 1.5-.3 2 .3.4 1.1.4 1.6.5l2.8.3c3.9.2 7.9-.4 11.6-1.7.1 0 .1-.1.2-.1v-.2-21.6z" stroke="#000" stroke-opacity="0" fill="#ffa894"/><path d="M3842.03 1493.7c-1.1-.68-5-.18-6.2-.1-2.1.32-4.1.72-6.1 1.02-4.6.8-8.4 1.4-12.7 3.1-.1 0-.2.1-.3.2v.3l-.1.1v.1c.5 5.5 1.8 15.9 4.5 21.6 1.4 3.1 5.2 6.6 8.4 7.9 6.7 2.7 10.2-1.3 13.1-6.2 3.3-5.8 2.4-11.8 1.4-18-.2-1.7-1-9.2-2-10z" stroke="#000" stroke-opacity="0" fill="#ffa894"/><path d="M3838.83 1507.22c0-.5-.1-1.1-.2-1.6-.1-.3-.2-.5-.4-.7-.6-.4-1.2.2-1.3.8 0 .7.2 2.2.9 2.5.7.3.9-.3 1-1zM3825.13 1509.32c0-.6-.1-1.1-.3-1.6-.1-.3-.2-.5-.4-.7-.6-.4-1.1.2-1.2.8-.1.7.2 2.2.9 2.4.8.3.9-.2 1-.9z" stroke="#000" stroke-opacity="0" fill="#232c44"/><path d="M3846.83 1504.52c-.7-1.7-2-1.4-2.9-.4h-.2s-.1 0-.1.1c-.2.3-.4.6-.5 1v.1c-.2.7-.2 1.5-.1 2.3.1 1.7.4 3.4.7 5.1.4 2.7 2.1.1 2.8-1 1.3-2 1.3-5 .3-7.2zM3817.33 1515.63c1 .9 3.3 3 3 .3l-.6-5.1c-.1-.8-.3-1.6-.7-2.3h-.1c-.2-.4-.4-.6-.7-.9 0 0-.1 0-.2-.1l-.1.1c-1.1-.7-2.5-.7-2.7 1.1-.4 2.4.3 5.3 2.1 6.9z" stroke="#000" stroke-opacity="0" fill="#ffa894"/><path d="M3845.73 1508.82c-.1-.5-.3-.6-.6-1-.3-.6 0-1.5 0-2.1.1-.4-.5-.4-.6 0 0 .5-.3 1.6-.1 2.2.1.2.3.2.4.4.6.6.4 1.5-.3 2-.3.2 0 .7.3.5.7-.5 1.1-1.2.9-2zM3819.03 1513.82c-.3-.2-.7-.5-.8-.9-.1-.5.1-.8.3-1.2 0-.1.1-.2 0-.4 0-.3-.3-.7-.4-1-.3-.5-.5-1-.8-1.5-.1-.4-.6-.1-.5.3.3.6.9 1.3 1 2 .1.4.1.2 0 .6-.1.3-.2.4-.2.7-.1.8.4 1.5 1.1 1.9.4.2.7-.3.3-.5z" stroke="#000" stroke-opacity="0" fill="#f7886d"/><path d="M3826.83 1503.42c-1.1-.7-2.6-.4-3.7 0-1.2.3-2.5 1.3-2.8 2.4-.1.1-.1.2 0 .2 0 .1 0 .2.1.2.3.2.3.1.6.1.9-.2 1.7-.8 2.5-1 .8-.3 1.6-.4 2.4-.5.4 0 1 0 1.3-.3.4-.4 0-.9-.4-1.1zM3834.13 1503.22c.4.2.9 0 1.3-.1.8-.2 1.6-.3 2.4-.4.9 0 1.8.3 2.6.2.4-.1.4 0 .7-.3v-.2-.2c-.8-1-2.3-1.4-3.5-1.4-1.2.1-2.8.2-3.6 1.2-.3.4-.4.9.1 1.2z" stroke="#000" stroke-opacity="0" fill="#b06d51"/><path d="M3840.73 1524.53c-2.2 2.1-4.1 3.8-6.7 4.1-1.5.1-6.3-1.4-8.5-3.2l.3 6.9c.3 0 .6.1 1.5.2.5.1.9.2 1.5.1 1.3-.3 2.2-.9 3.7-.6.7.1 1.4.3 2.2 0 .5-.2.9-.5 1.3-.9.8-.8 1.5-1.5 2.4-2.2 1.3-.9 1.4-1.4 2-2.9.1-.3.5-1.6.3-1.5z" stroke="#000" stroke-opacity="0" fill="#f7886d"/><path d="M3836.83 1518.13c-.6 0-7.8 1.2-8 1.1-.1 0-.2.1-.2.2.2.6 1.2 1 1.8 1.2.9.3 1.9.3 2.8.2.8-.1 1.5-.4 2.2-.7.7-.4 1.3-1.1 1.5-1.9v-.1h-.1z" stroke="#000" stroke-opacity="0" fill="#fff"/><path d="M3860.83 1557.74c3.3-2.3 5.9-4.9 5.8-8.4v-.1c0-.2 0-.4-.1-.6-.4-2.6-.8-5.1-2.4-7.2-.8-1-1.7-1.9-2.8-2.6-.1-.1-.3-.1-.4-.2-.2-.1-.4-.2-.6-.4-.4-.2-.7-.3-1.1-.5-2.6-1.1-7.8-2.2-10.8-2.7-.3-.1-.6-.1-.9-.2h-.4c-.4-.1-.7-.1-.9-.1-.1-.1-.2-.1-.2 0-.6-2.6.9-6.6-2.7-6.3-1.7.1-2.8 1.6-4.4 2.1-1.2.4-6.9.1-8 .2-2.6.2-3.3-.2-5.8-1.2-1.1-.5-2.5-1-3.1.5-.2.6-.2 1.2 0 1.8.3 1 .5 1.8.5 2.7-.2 0-.4-.1-.6-.2h-.2l-.9-.3h-.1c-.3 0-.6-.1-.8-.1-1.2-.2-2.4-.2-3.6-.4-.5-.1-1.1-.3-1.6-.4-1.4 1.7-3 2.8-5.2 3.4-.5.1-1 .2-1.6.4h-.1l-.9.6c-.3.2-.5.4-.8.5l-.4.4c-.6.5-1.2 1-1.7 1.6-.2.2-.8.7-.8 1l.3-.4c-.1.1-.2.3-.4.5l-1.2 2.1-1.2 2.4c0 .1 0 .1-.1.2-.1.4-.3.7-.4 1.1-.5 1.3-1 2.7-1.6 4.1 0 1.6-.7 3.2.3 4.8 7.2 10.4 37.5 19 61.9 1.9z" stroke="#000" stroke-opacity="0" fill="#fad3b1"/><path d="M3833.43 1515.22c-.3.1-1.1.2-1.5.1-.8-.2-.7-1-.7-1.7-.1-.9-.1-1.8-.1-2.7.1-.4-.5-.4-.6 0 0 .9 0 1.8.1 2.7 0 .5 0 1.1.2 1.6.5 1.1 1.9.7 2.8.6.4-.1.2-.6-.2-.6z" stroke="#000" stroke-opacity="0" fill="#f7886d"/><path d="M3870.53 1547.04c.8-4.8-9.2-8.2-9.2-8.2-.8 1-13 17-13.8 17.9-.2.3.3 1.4 2.3 7.1.3.9 20.1-12.5 20.7-16.8zM3816.83 1565.85c2-5.6 3.3-9.7 3.1-10-.8-.8-13.1-16.9-13.8-17.8v-.12s-12.4 7.6-12.4 13.7c9.8 9.72 15.9 11.02 23.1 14.22z" stroke="#000" stroke-opacity="0" fill="#fad3b1"/><path d="M3860.33 1538.34c-.1.2-.2.4-.2.6-.6 1.7-.8 3.4-2.9 3.9-1.6.4-3.3-.1-4.9-.4-.9-.1-1.8-.3-2.7.1-1 .5-1.7 1.6-2.5 2.4-1.1 1.1-2.4 2.2-4.1 2.5-3.1.6-4.6-2.7-7.5-3.2-2.7-.3-5.3 1.1-8 1.1-1.7.1-4-.2-4.9-1.7-.5-.9-.2-1.2-.4-2.1 0-.4-.2-.7-.5-1-.6-.6-1.8-.7-2.6-.9-1.6-.4-3.2-.7-4.7-1.2-1.5-.4-2.3-1.5-2.7-2.7-.2.1-.5.1-.7.2.3.9.7 1.7 1.4 2.2 2.1 1.8 5.6 1.3 8 2.4 2 .8.7 2.4 1.6 3.7.5.8 1.6 1.1 2.5 1.3 2.6.8 5 .2 7.6-.4 1.7-.4 3.5-.6 5.2.4 1.1.7 1.9 1.7 3.1 2.2 2 .9 4.2.1 5.8-1.2 1.2-.9 2-2.2 3.1-3 1.5-1.2 3.5-.3 5.2-.1 2.1.3 4.7 0 5.6-2.3.3-.9.5-1.7.8-2.5l-.6-.3z" stroke="#000" stroke-opacity="0" fill="#fff"/><path d="M3863.33 1544.44c-1.7 3.1-3.2 6.3-4.6 9.5-.1.4.4.7.5.3 1.4-3.2 2.9-6.4 4.6-9.5.2-.3-.4-.6-.5-.3zM3842.63 1536.93c-6.2 3.8-13.7 3.3-19.1-1.5-.3-.2-.7.2-.5.5 5.7 4.9 13.5 5.5 19.9 1.5.3-.2 0-.7-.3-.5zM3843.53 1532.93c-5 1.1-10.1 2.1-15.2 1-.4-.1-.5.5-.1.5 5.2 1.2 10.4.1 15.5-.9.3-.1.2-.7-.2-.6z" stroke="#000" stroke-opacity="0" fill="#ebbd94"/><path d="M3843.33 1495.32c-.6-2.1-1.6-3.1-3.7-3.6-4.3-.9-8.9-.3-12.8 1.5-.1-.1-.1-.1-.2-.1h-.1c.1-.3.1-.7.1-1.1 0-.3-.5-.3-.6 0 0 .5 0 .9-.1 1.3-1.5.4-3.1.8-4.6 1.3-1.3.5-3.2.8-4.4 1.6-.8.5-.9 1.8-1.1 2.7-.3 1.5-.5 3.1-.6 4.6 0 .7 0 1.4.1 2-.8 2-1.4 4.2-1.6 6.3-.4 3.4 0 6.7.5 10 0 .1 0 .1.1.1-.1.8-.2 1.6-.4 2.4-.6 3.3-1.8 6.6-2 10-.2 3.4 1.6 7.52 0 10.72-.6 1.1-1.1 2.2-1.1 3.5-.1 1.6.3 3.1.6 4.6l.1.1c.1.1.1.1.2.1 1.8.1 3.7.1 5.5.1.1 0 .2 0 .2-.1.1 0 .1-.1.1-.2 0-1.7-.9-3.2-.9-5 .1-1.6.8-3.1 1.2-4.6-.4 2-.4 3.9-.2 5.8.1 1.5 0 3.3 1.1 4.4 0 .1.1.1.2.1h.1c.1 0 .1-.1.2-.1v-.2c.5-5.6 1.4-11.3 1.5-16.9 0-2.8-.3-5.7-.6-8.4-.1-1.8-.3-3.5-.4-5.2.3-3.9.6-7.5.6-8.62 0-2.6 2.3-7.5 3.3-9.9 1.2-2.8 2-5.7 2.5-8.7 4-.9 8.2-1.5 12.3-1.4 1.5 0 2.4.5 3.2 1.8.5.9.9 1.9 1.1 2.9.3 1.7.1 3.4 1 4.9.2.2.5.1.5-.2.4-2.9-.2-5.7-.9-8.5z" stroke="#000" stroke-opacity="0" fill="#b06d51"/><path d="M3835.03 1490.1c.2-.3.3-.6.3-1s-.2-.8-.3-1.2c-.1-.7-.1-1.5 0-2.3 0-.4-.5-.5-.6-.2-.1.7-.1 1.5 0 2.2.2 1.2.5 1.7-.4 2.8-.2.4-.5.8-.5 1.3 0 .32.4 1.12.4 1.2-.2.4.3.7.5.3.2-.38.1-.3 0-.68 0-.4-.3-.9-.2-1.4.2-.3.7-.7.8-1zM3824.73 1489.4c-2.3 1.2-4.7 2.3-6.4 4.2-1.5 1.72-2.4 3.72-2.9 5.82-.5 2.8.5 5.6-.6 8.3-1 2.5-2 4.7-1.8 7.5 0 .4.6.4.6 0-.2-2.8.8-4.8 1.8-7.3.9-2.4.3-4.6.4-7.1.2-2.4 1.2-4.7 2.8-6.6 1.7-2 4-3.1 6.4-4.2.3-.2 0-.7-.3-.6zM3828.83 1488c-2.7-.5-5.3-.2-7.7 1-.4.2-.1.7.3.5 2.3-1.2 4.7-1.4 7.2-1 .4.1.5-.5.2-.5z" stroke="#000" stroke-opacity="0" fill="#8f5238"/><path d="M3830.33 1567.45c27.6 0 50-22.4 50-50.02 0-27.62-22.4-50.03-50-50.03s-50 22.4-50 50.03c0 27.6 22.4 50.02 50 50.02z" stroke="#6c6e83" fill-opacity="0"/><path d="M4173 1761.77a6 6 0 0 1 6-6h395.1a6 6 0 0 1 6 6v38.3a6 6 0 0 1-6 6H4179a6 6 0 0 1-6-6z" stroke="#6c6e83" fill="#fff"/><path d="M4205.92 1767.96H4580v26.97h-374.08z" fill="none"/><g><use xlink:href="#v" transform="matrix(1,0,0,1,4205.916234981619,1767.9614907106416) translate(0 19.880208333333336)"/><use xlink:href="#w" transform="matrix(1,0,0,1,4205.916234981619,1767.9614907106416) translate(44.94401041666667 19.880208333333336)"/><use xlink:href="#x" transform="matrix(1,0,0,1,4205.916234981619,1767.9614907106416) translate(61.16796875000001 19.880208333333336)"/><use xlink:href="#b" transform="matrix(1,0,0,1,4205.916234981619,1767.9614907106416) translate(128.75260416666669 19.880208333333336)"/><use xlink:href="#y" transform="matrix(1,0,0,1,4205.916234981619,1767.9614907106416) translate(204.34895833333337 19.880208333333336)"/><use xlink:href="#z" transform="matrix(1,0,0,1,4205.916234981619,1767.9614907106416) translate(288.43098958333337 19.880208333333336)"/></g><defs><path fill="#172b4d" d="M688-137c238 0 323-102 359-325h193c-32 297-228 482-552 482-361 0-569-299-569-680 0-197 8-360 73-497 88-186 257-317 513-319 316-2 509 195 535 488h-193c-31-212-118-330-342-330-272 0-397 224-393 523v141c-3 282 115 517 376 517" id="A"/><path fill="#172b4d" d="M584 20C278 26 81-227 91-551c10-320 175-545 491-551 308-5 503 247 494 573-9 322-175 543-492 549zm-2-970c-208 0-305 185-305 421 0 216 106 398 307 398 211 0 307-186 307-420 0-214-109-399-309-399" id="B"/><path fill="#172b4d" d="M589-945c-131 0-219 81-264 174V0H140v-1082h175l6 136c83-104 191-156 324-156 229 0 346 129 346 387V0H806v-716c-2-153-65-229-217-229" id="C"/><path fill="#172b4d" d="M704-1390c-164-38-297 28-288 194v114h231v143H416V0H231v-939H60v-143h171v-111c-12-274 208-416 483-347" id="D"/><path fill="#172b4d" d="M341 0H156v-1082h185V0zm-91-1264c-68 0-108-42-109-105 0-62 41-107 109-107s110 44 110 107-42 105-110 105" id="E"/><path fill="#172b4d" d="M521 20C240 20 96-239 96-550c0-303 147-552 427-552 132 0 235 47 309 140l9-120h169V-26c4 277-183 454-459 452-165-1-334-81-400-187l96-111c79 98 176 147 291 147 180 1 288-109 286-290v-93C750-23 649 20 521 20zm48-965c-209 0-287 178-287 416 0 217 86 392 285 392 117 0 202-53 257-159v-494c-57-103-142-155-255-155" id="F"/><path fill="#172b4d" d="M491 20c-241-1-355-148-355-398v-704h185v699c0 164 67 246 200 246 141 0 235-53 282-158v-787h185V0H812l-4-107C736-22 630 20 491 20" id="G"/><path fill="#172b4d" d="M663-916c-163-27-288 18-338 148V0H140v-1082h180l3 125c61-97 147-145 258-145 36 0 63 5 82 14v172" id="H"/><path fill="#172b4d" d="M599-131c141 0 220-65 285-146l113 88C906-50 770 20 589 20 281 21 93-214 93-545c0-223 93-397 233-485 74-48 154-72 240-72 300 2 449 218 445 537v77H278c0 197 129 357 321 357zm227-509c-3-180-88-310-260-310-170 0-264 140-282 310h542" id="I"/><g id="a"><use transform="matrix(0.009114583333333334,0,0,0.009114583333333334,0,0)" xlink:href="#A"/><use transform="matrix(0.009114583333333334,0,0,0.009114583333333334,12.149739583333334,0)" xlink:href="#B"/><use transform="matrix(0.009114583333333334,0,0,0.009114583333333334,22.795572916666668,0)" xlink:href="#C"/><use transform="matrix(0.009114583333333334,0,0,0.009114583333333334,33.095052083333336,0)" xlink:href="#D"/><use transform="matrix(0.009114583333333334,0,0,0.009114583333333334,39.575520833333336,0)" xlink:href="#E"/><use transform="matrix(0.009114583333333334,0,0,0.009114583333333334,44.10546875,0)" xlink:href="#F"/><use transform="matrix(0.009114583333333334,0,0,0.009114583333333334,54.578125,0)" xlink:href="#G"/><use transform="matrix(0.009114583333333334,0,0,0.009114583333333334,64.86848958333333,0)" xlink:href="#H"/><use transform="matrix(0.009114583333333334,0,0,0.009114583333333334,71.01171875,0)" xlink:href="#I"/></g><path fill="#172b4d" d="M1216-1011c-1 297-202 441-512 441H361V0H169v-1456h537c297-6 510 164 510 445zm-192 2c1-178-126-288-307-289H361v571h345c196 1 318-92 318-282" id="J"/><path fill="#172b4d" d="M497-251l268-831h189L566 0H425L33-1082h189" id="K"/><path fill="#172b4d" d="M341 0H156v-1536h185V0" id="L"/><g id="b"><use transform="matrix(0.009114583333333334,0,0,0.009114583333333334,0,0)" xlink:href="#J"/><use transform="matrix(0.009114583333333334,0,0,0.009114583333333334,11.776041666666668,0)" xlink:href="#H"/><use transform="matrix(0.009114583333333334,0,0,0.009114583333333334,18.092447916666668,0)" xlink:href="#E"/><use transform="matrix(0.009114583333333334,0,0,0.009114583333333334,22.622395833333336,0)" xlink:href="#K"/><use transform="matrix(0.009114583333333334,0,0,0.009114583333333334,31.664062500000004,0)" xlink:href="#E"/><use transform="matrix(0.009114583333333334,0,0,0.009114583333333334,36.19401041666667,0)" xlink:href="#L"/><use transform="matrix(0.009114583333333334,0,0,0.009114583333333334,40.723958333333336,0)" xlink:href="#I"/><use transform="matrix(0.009114583333333334,0,0,0.009114583333333334,50.61328125,0)" xlink:href="#F"/><use transform="matrix(0.009114583333333334,0,0,0.009114583333333334,61.08593750000001,0)" xlink:href="#I"/></g><path fill="#172b4d" d="M1222-777c17 480-206 763-650 777H169v-1456h411c408 9 627 269 642 679zm-190 4c3-312-149-522-447-525H361v1141h202c308 0 473-209 469-531v-85" id="M"/><path fill="#172b4d" d="M456 20C285 20 205-92 206-268v-671H9v-143h197v-262h185v262h202v143H391v671c-9 125 92 149 207 118V0c-49 13-96 20-142 20" id="N"/><path fill="#172b4d" d="M277-555c0 244 77 420 297 424 127 2 249-93 255-210h175C980-127 805 20 574 20 258 20 81-222 92-562c11-319 164-533 481-540 237-5 426 165 431 392H829c-7-133-115-242-256-240-209 4-296 166-296 395" id="O"/><g id="c"><use transform="matrix(0.009114583333333334,0,0,0.009114583333333334,0,0)" xlink:href="#M"/><use transform="matrix(0.009114583333333334,0,0,0.009114583333333334,12.240885416666668,0)" xlink:href="#I"/><use transform="matrix(0.009114583333333334,0,0,0.009114583333333334,22.130208333333336,0)" xlink:href="#N"/><use transform="matrix(0.009114583333333334,0,0,0.009114583333333334,28.227864583333336,0)" xlink:href="#I"/><use transform="matrix(0.009114583333333334,0,0,0.009114583333333334,38.1171875,0)" xlink:href="#O"/><use transform="matrix(0.009114583333333334,0,0,0.009114583333333334,47.888020833333336,0)" xlink:href="#N"/><use transform="matrix(0.009114583333333334,0,0,0.009114583333333334,53.985677083333336,0)" xlink:href="#E"/><use transform="matrix(0.009114583333333334,0,0,0.009114583333333334,58.51562500000001,0)" xlink:href="#B"/><use transform="matrix(0.009114583333333334,0,0,0.009114583333333334,69.16145833333333,0)" xlink:href="#C"/></g><path fill="#172b4d" d="M417-1456L893-268l476-1188h249V0h-192c-4-403 4-794 18-1179L966 0H819L342-1176c15 384 23 773 19 1176H169v-1456h248" id="P"/><g id="d"><use transform="matrix(0.009114583333333334,0,0,0.009114583333333334,0,0)" xlink:href="#P"/><use transform="matrix(0.009114583333333334,0,0,0.009114583333333334,16.296875,0)" xlink:href="#B"/><use transform="matrix(0.009114583333333334,0,0,0.009114583333333334,26.942708333333336,0)" xlink:href="#C"/><use transform="matrix(0.009114583333333334,0,0,0.009114583333333334,37.2421875,0)" xlink:href="#E"/><use transform="matrix(0.009114583333333334,0,0,0.009114583333333334,41.772135416666664,0)" xlink:href="#N"/><use transform="matrix(0.009114583333333334,0,0,0.009114583333333334,47.6875,0)" xlink:href="#B"/><use transform="matrix(0.009114583333333334,0,0,0.009114583333333334,58.333333333333336,0)" xlink:href="#H"/></g><path fill="#172b4d" d="M538-131c121 0 232-49 232-156 0-50-20-88-56-117-73-60-334-92-420-143-92-55-162-110-162-238 0-190 192-317 400-317 223 0 414 129 413 338H759c0-108-110-186-227-186-119 0-215 53-215 159 0 45 18 78 53 101 76 52 331 90 416 139 98 57 169 115 169 251C955-92 760 20 538 20c-176 0-314-68-386-174-38-55-57-115-57-179h185c6 129 116 202 258 202" id="Q"/><path fill="#172b4d" d="M442-501L326-380V0H141v-1536h185v929c135-169 291-317 436-475h225L566-630 1036 0H819" id="R"/><g id="e"><use transform="matrix(0.009114583333333334,0,0,0.009114583333333334,0,0)" xlink:href="#H"/><use transform="matrix(0.009114583333333334,0,0,0.009114583333333334,6.31640625,0)" xlink:href="#E"/><use transform="matrix(0.009114583333333334,0,0,0.009114583333333334,10.846354166666668,0)" xlink:href="#Q"/><use transform="matrix(0.009114583333333334,0,0,0.009114583333333334,20.471354166666668,0)" xlink:href="#R"/></g><g id="f"><use transform="matrix(0.009114583333333334,0,0,0.009114583333333334,0,0)" xlink:href="#L"/><use transform="matrix(0.009114583333333334,0,0,0.009114583333333334,4.529947916666667,0)" xlink:href="#I"/><use transform="matrix(0.009114583333333334,0,0,0.009114583333333334,14.300781250000002,0)" xlink:href="#K"/><use transform="matrix(0.009114583333333334,0,0,0.009114583333333334,23.223958333333336,0)" xlink:href="#I"/><use transform="matrix(0.009114583333333334,0,0,0.009114583333333334,33.11328125,0)" xlink:href="#L"/></g><g id="g"><use transform="matrix(0.009114583333333334,0,0,0.009114583333333334,0,0)" xlink:href="#E"/><use transform="matrix(0.009114583333333334,0,0,0.009114583333333334,4.529947916666667,0)" xlink:href="#C"/></g><g id="h"><use transform="matrix(0.009114583333333334,0,0,0.009114583333333334,0,0)" xlink:href="#J"/><use transform="matrix(0.009114583333333334,0,0,0.009114583333333334,11.776041666666668,0)" xlink:href="#H"/><use transform="matrix(0.009114583333333334,0,0,0.009114583333333334,18.092447916666668,0)" xlink:href="#E"/><use transform="matrix(0.009114583333333334,0,0,0.009114583333333334,22.622395833333336,0)" xlink:href="#K"/><use transform="matrix(0.009114583333333334,0,0,0.009114583333333334,31.664062500000004,0)" xlink:href="#E"/><use transform="matrix(0.009114583333333334,0,0,0.009114583333333334,36.19401041666667,0)" xlink:href="#L"/><use transform="matrix(0.009114583333333334,0,0,0.009114583333333334,40.723958333333336,0)" xlink:href="#I"/><use transform="matrix(0.009114583333333334,0,0,0.009114583333333334,50.61328125,0)" xlink:href="#F"/><use transform="matrix(0.009114583333333334,0,0,0.009114583333333334,61.08593750000001,0)" xlink:href="#I"/></g><path fill="#172b4d" d="M520 20C244 20 95-247 95-550c0-298 151-550 427-552 127 0 227 43 301 130v-564h185V0H838l-9-116C755-25 652 20 520 20zm48-965c-210 0-288 177-288 416 0 218 87 392 286 392 117 0 203-53 257-158v-497c-55-102-140-153-255-153" id="S"/><g id="i"><use transform="matrix(0.009114583333333334,0,0,0.009114583333333334,0,0)" xlink:href="#A"/><use transform="matrix(0.009114583333333334,0,0,0.009114583333333334,12.149739583333334,0)" xlink:href="#L"/><use transform="matrix(0.009114583333333334,0,0,0.009114583333333334,16.6796875,0)" xlink:href="#B"/><use transform="matrix(0.009114583333333334,0,0,0.009114583333333334,27.325520833333336,0)" xlink:href="#G"/><use transform="matrix(0.009114583333333334,0,0,0.009114583333333334,37.61588541666667,0)" xlink:href="#S"/></g><g id="j"><use transform="matrix(0.009114583333333334,0,0,0.009114583333333334,0,0)" xlink:href="#Q"/><use transform="matrix(0.009114583333333334,0,0,0.009114583333333334,9.625,0)" xlink:href="#I"/><use transform="matrix(0.009114583333333334,0,0,0.009114583333333334,19.514322916666668,0)" xlink:href="#Q"/><use transform="matrix(0.009114583333333334,0,0,0.009114583333333334,29.139322916666668,0)" xlink:href="#Q"/><use transform="matrix(0.009114583333333334,0,0,0.009114583333333334,38.76432291666667,0)" xlink:href="#E"/><use transform="matrix(0.009114583333333334,0,0,0.009114583333333334,43.294270833333336,0)" xlink:href="#B"/><use transform="matrix(0.009114583333333334,0,0,0.009114583333333334,53.94010416666667,0)" xlink:href="#C"/><use transform="matrix(0.009114583333333334,0,0,0.009114583333333334,64.23958333333334,0)" xlink:href="#Q"/></g><path fill="#172b4d" d="M973-380H363L226 0H28l556-1456h168L1309 0h-197zM421-538h495l-248-681" id="T"/><g id="k"><use transform="matrix(0.008680555555555556,0,0,0.008680555555555556,0,0)" xlink:href="#T"/><use transform="matrix(0.008680555555555556,0,0,0.008680555555555556,11.597222222222223,0)" xlink:href="#G"/><use transform="matrix(0.008680555555555556,0,0,0.008680555555555556,21.397569444444446,0)" xlink:href="#S"/><use transform="matrix(0.008680555555555556,0,0,0.008680555555555556,31.423611111111114,0)" xlink:href="#E"/><use transform="matrix(0.008680555555555556,0,0,0.008680555555555556,35.73784722222223,0)" xlink:href="#N"/><use transform="matrix(0.008680555555555556,0,0,0.008680555555555556,41.37152777777778,0)" xlink:href="#B"/><use transform="matrix(0.008680555555555556,0,0,0.008680555555555556,51.51041666666667,0)" xlink:href="#H"/></g><path fill="#172b4d" d="M631-137c179 0 314-70 314-231 0-71-25-127-75-166s-141-77-272-115c-165-47-285-106-360-175s-112-154-112-255c0-245 231-397 495-397 206 0 369 89 449 218 43 68 65 142 65 223H942c0-184-129-283-321-283-172 0-299 76-301 236 0 59 26 109 76 150s135 78 256 113c205 59 345 116 436 256 35 53 50 119 50 193-2 256-231 398-507 390C333 12 90-129 80-422h193c0 187 160 285 358 285" id="U"/><g id="l"><use transform="matrix(0.009114583333333334,0,0,0.009114583333333334,0,0)" xlink:href="#U"/><use transform="matrix(0.009114583333333334,0,0,0.009114583333333334,11.07421875,0)" xlink:href="#I"/><use transform="matrix(0.009114583333333334,0,0,0.009114583333333334,20.963541666666668,0)" xlink:href="#N"/></g><path fill="#172b4d" d="M632-1102c291 0 422 251 422 573 0 297-141 548-419 549-131 0-235-42-310-125v521H140v-1498h169l9 120c75-93 180-140 314-140zm-53 971c207 0 290-180 290-419 0-218-92-395-292-395-112 0-196 50-252 149v517c55 99 140 148 254 148" id="V"/><g id="m"><use transform="matrix(0.009114583333333334,0,0,0.009114583333333334,0,0)" xlink:href="#G"/><use transform="matrix(0.009114583333333334,0,0,0.009114583333333334,10.290364583333334,0)" xlink:href="#V"/></g><path fill="#172b4d" d="M375 0H183v-1456h192V0" id="W"/><g id="n"><use transform="matrix(0.009114583333333334,0,0,0.009114583333333334,0,0)" xlink:href="#W"/><use transform="matrix(0.009114583333333334,0,0,0.009114583333333334,5.076822916666667,0)" xlink:href="#U"/><use transform="matrix(0.009114583333333334,0,0,0.009114583333333334,16.151041666666668,0)" xlink:href="#W"/></g><g id="o"><use transform="matrix(0.009114583333333334,0,0,0.009114583333333334,0,0)" xlink:href="#H"/><use transform="matrix(0.009114583333333334,0,0,0.009114583333333334,6.134114583333333,0)" xlink:href="#B"/><use transform="matrix(0.009114583333333334,0,0,0.009114583333333334,16.779947916666668,0)" xlink:href="#L"/><use transform="matrix(0.009114583333333334,0,0,0.009114583333333334,21.309895833333336,0)" xlink:href="#I"/></g><path fill="#172b4d" d="M589-945c-131 0-219 81-264 174V0H140v-1536h185v585c82-101 189-151 320-151 229 0 346 129 346 387V0H806v-716c-2-153-65-229-217-229" id="X"/><path fill="#172b4d" d="M561-1102c238-4 403 126 403 351v498c0 99 13 178 38 237V0H808c-11-21-19-59-26-114C696-25 593 20 474 20c-199 0-368-130-365-320 4-251 214-359 490-356h180v-85c-1-135-86-212-229-212-115 0-232 67-233 171H131c20-205 206-316 430-320zM294-326c0 117 90 185 207 185 122 0 239-75 278-162v-222H634c-227 0-340 66-340 199" id="Y"/><g id="p"><use transform="matrix(0.009114583333333334,0,0,0.009114583333333334,0,0)" xlink:href="#U"/><use transform="matrix(0.009114583333333334,0,0,0.009114583333333334,11.07421875,0)" xlink:href="#X"/><use transform="matrix(0.009114583333333334,0,0,0.009114583333333334,21.35546875,0)" xlink:href="#Y"/><use transform="matrix(0.009114583333333334,0,0,0.009114583333333334,31.509114583333336,0)" xlink:href="#H"/><use transform="matrix(0.009114583333333334,0,0,0.009114583333333334,37.65234375,0)" xlink:href="#I"/><use transform="matrix(0.009114583333333334,0,0,0.009114583333333334,47.54166666666667,0)" xlink:href="#S"/></g><g id="q"><use transform="matrix(0.009114583333333334,0,0,0.009114583333333334,0,0)" xlink:href="#U"/><use transform="matrix(0.009114583333333334,0,0,0.009114583333333334,11.07421875,0)" xlink:href="#I"/><use transform="matrix(0.009114583333333334,0,0,0.009114583333333334,20.963541666666668,0)" xlink:href="#H"/><use transform="matrix(0.009114583333333334,0,0,0.009114583333333334,27.444010416666668,0)" xlink:href="#K"/><use transform="matrix(0.009114583333333334,0,0,0.009114583333333334,36.485677083333336,0)" xlink:href="#E"/><use transform="matrix(0.009114583333333334,0,0,0.009114583333333334,41.015625,0)" xlink:href="#O"/><use transform="matrix(0.009114583333333334,0,0,0.009114583333333334,50.786458333333336,0)" xlink:href="#I"/><use transform="matrix(0.009114583333333334,0,0,0.009114583333333334,60.67578125000001,0)" xlink:href="#Q"/></g><path fill="#172b4d" d="M1240-945c-141 0-250 95-250 227V0H804v-709c0-157-77-236-231-236-121 0-204 52-249 155V0H139v-1082h175l5 120c79-93 186-140 321-140 151 0 254 58 309 174 69-98 181-174 345-174 237 0 362 126 362 377V0h-185v-714c-2-159-67-231-231-231" id="Z"/><g id="r"><use transform="matrix(0.009114583333333334,0,0,0.009114583333333334,0,0)" xlink:href="#Y"/><use transform="matrix(0.009114583333333334,0,0,0.009114583333333334,10.153645833333334,0)" xlink:href="#S"/><use transform="matrix(0.009114583333333334,0,0,0.009114583333333334,20.680989583333336,0)" xlink:href="#Z"/><use transform="matrix(0.009114583333333334,0,0,0.009114583333333334,37.04166666666667,0)" xlink:href="#E"/><use transform="matrix(0.009114583333333334,0,0,0.009114583333333334,41.571614583333336,0)" xlink:href="#C"/></g><path fill="#172b4d" d="M703-1476c426 0 599 333 586 795-11 408-187 701-584 701-422 0-587-333-587-793 0-282 106-507 280-617 89-56 190-86 305-86zm2 1333c312 0 393-279 393-632 0-308-116-536-395-536-269 0-394 232-394 523v107c-4 298 123 538 396 538" id="aa"/><g id="s"><use transform="matrix(0.009114583333333334,0,0,0.009114583333333334,0,0)" xlink:href="#U"/><use transform="matrix(0.009114583333333334,0,0,0.009114583333333334,11.07421875,0)" xlink:href="#aa"/><use transform="matrix(0.009114583333333334,0,0,0.009114583333333334,23.907552083333336,0)" xlink:href="#A"/></g><g id="t"><use transform="matrix(0.009114583333333334,0,0,0.009114583333333334,0,0)" xlink:href="#G"/><use transform="matrix(0.009114583333333334,0,0,0.009114583333333334,10.290364583333334,0)" xlink:href="#Q"/><use transform="matrix(0.009114583333333334,0,0,0.009114583333333334,19.915364583333336,0)" xlink:href="#I"/><use transform="matrix(0.009114583333333334,0,0,0.009114583333333334,29.804687500000004,0)" xlink:href="#H"/></g><path fill="#172b4d" d="M494-271l252-811h198L509 167C425 381 299 474 84 421V271c167 16 242-37 283-173l41-110L22-1082h202" id="ab"/><g id="u"><use transform="matrix(0.009114583333333334,0,0,0.009114583333333334,0,0)" xlink:href="#U"/><use transform="matrix(0.009114583333333334,0,0,0.009114583333333334,11.07421875,0)" xlink:href="#I"/><use transform="matrix(0.009114583333333334,0,0,0.009114583333333334,20.963541666666668,0)" xlink:href="#O"/><use transform="matrix(0.009114583333333334,0,0,0.009114583333333334,30.734375000000004,0)" xlink:href="#G"/><use transform="matrix(0.009114583333333334,0,0,0.009114583333333334,41.024739583333336,0)" xlink:href="#H"/><use transform="matrix(0.009114583333333334,0,0,0.009114583333333334,47.341145833333336,0)" xlink:href="#E"/><use transform="matrix(0.009114583333333334,0,0,0.009114583333333334,51.87109375,0)" xlink:href="#N"/><use transform="matrix(0.009114583333333334,0,0,0.009114583333333334,57.96875000000001,0)" xlink:href="#ab"/></g><path fill="#172b4d" d="M651-255l416-1201h210L737 0H567L28-1456h209" id="ac"/><path fill="#172b4d" d="M1098-255l208-827h185L1176 0h-150L763-820 507 0H357L43-1082h184l213 810 252-810h149" id="ad"/><g id="v"><use transform="matrix(0.009114583333333334,0,0,0.009114583333333334,0,0)" xlink:href="#ac"/><use transform="matrix(0.009114583333333334,0,0,0.009114583333333334,11.876302083333334,0)" xlink:href="#E"/><use transform="matrix(0.009114583333333334,0,0,0.009114583333333334,16.40625,0)" xlink:href="#I"/><use transform="matrix(0.009114583333333334,0,0,0.009114583333333334,26.295572916666668,0)" xlink:href="#ad"/></g><path fill="#172b4d" d="M572 20C306 25 99-136 101-391c0-70 20-134 59-193s113-127 223-205c-65-79-108-142-130-190s-33-96-33-143c-3-220 144-354 364-354 187 0 349 127 346 308-3 212-172 290-307 398l324 387c45-87 68-183 68-289h167c0 170-41 311-123 423L1267 0h-222l-97-115C862-36 726 17 572 20zM286-391c0 162 118 260 286 260 98 0 188-37 269-112L486-668c-110 72-200 183-200 277zm297-933c-109 0-180 87-178 196 0 64 39 144 118 240 93-79 236-119 236-280 0-91-82-156-176-156" id="ae"/><use transform="matrix(0.009114583333333334,0,0,0.009114583333333334,0,0)" xlink:href="#ae" id="w"/><path fill="#172b4d" d="M314-151h633V0H88v-136l597-793H97v-153h820v131" id="af"/><g id="x"><use transform="matrix(0.009114583333333334,0,0,0.009114583333333334,0,0)" xlink:href="#Y"/><use transform="matrix(0.009114583333333334,0,0,0.009114583333333334,10.153645833333334,0)" xlink:href="#C"/><use transform="matrix(0.009114583333333334,0,0,0.009114583333333334,20.453125,0)" xlink:href="#Y"/><use transform="matrix(0.009114583333333334,0,0,0.009114583333333334,30.606770833333336,0)" xlink:href="#L"/><use transform="matrix(0.009114583333333334,0,0,0.009114583333333334,35.13671875,0)" xlink:href="#ab"/><use transform="matrix(0.009114583333333334,0,0,0.009114583333333334,43.96875,0)" xlink:href="#af"/><use transform="matrix(0.009114583333333334,0,0,0.009114583333333334,53.07421875,0)" xlink:href="#I"/></g><g id="y"><use transform="matrix(0.009114583333333334,0,0,0.009114583333333334,0,0)" xlink:href="#M"/><use transform="matrix(0.009114583333333334,0,0,0.009114583333333334,12.240885416666668,0)" xlink:href="#I"/><use transform="matrix(0.009114583333333334,0,0,0.009114583333333334,22.130208333333336,0)" xlink:href="#N"/><use transform="matrix(0.009114583333333334,0,0,0.009114583333333334,28.227864583333336,0)" xlink:href="#I"/><use transform="matrix(0.009114583333333334,0,0,0.009114583333333334,38.1171875,0)" xlink:href="#O"/><use transform="matrix(0.009114583333333334,0,0,0.009114583333333334,47.888020833333336,0)" xlink:href="#N"/><use transform="matrix(0.009114583333333334,0,0,0.009114583333333334,53.985677083333336,0)" xlink:href="#E"/><use transform="matrix(0.009114583333333334,0,0,0.009114583333333334,58.51562500000001,0)" xlink:href="#B"/><use transform="matrix(0.009114583333333334,0,0,0.009114583333333334,69.16145833333333,0)" xlink:href="#C"/></g><g id="z"><use transform="matrix(0.009114583333333334,0,0,0.009114583333333334,0,0)" xlink:href="#I"/><use transform="matrix(0.009114583333333334,0,0,0.009114583333333334,9.770833333333334,0)" xlink:href="#K"/><use transform="matrix(0.009114583333333334,0,0,0.009114583333333334,18.694010416666668,0)" xlink:href="#I"/><use transform="matrix(0.009114583333333334,0,0,0.009114583333333334,28.583333333333336,0)" xlink:href="#C"/><use transform="matrix(0.009114583333333334,0,0,0.009114583333333334,38.8828125,0)" xlink:href="#N"/><use transform="matrix(0.009114583333333334,0,0,0.009114583333333334,44.98046875,0)" xlink:href="#Q"/></g></defs></g></svg>