<svg xmlns="http://www.w3.org/2000/svg" xmlns:xlink="http://www.w3.org/1999/xlink" xmlns:lucid="lucid" width="1645" height="845"><g transform="translate(-3702 -2413)" lucid:page-tab-id="0_0"><path d="M3743.2 2457.66a6 6 0 0 1 6-6h1551a6 6 0 0 1 6 6v222.85a6 6 0 0 1-6 6h-1551a6 6 0 0 1-6-6z" fill="#e0e8f5"/><path d="M3764.2 2451.66h14.97m7.5 0h14.98m7.5 0h14.98m7.5 0h14.98m7.5 0h14.98m7.5 0h14.98m7.5 0h14.98m7.5 0h14.98m7.5 0H3959m7.5 0h14.98m7.5 0h14.97m7.5 0h14.98m7.5 0h14.98m7.5 0h15m7.48 0h15m7.48 0h15m7.48 0h14.98m7.5 0h14.98m7.5 0h14.98m7.5 0h14.98m7.5 0h14.98m7.5 0h14.98m7.5 0h14.97m7.5 0h14.97m7.5 0h14.98m7.5 0h14.98m7.5 0h14.98m7.5 0h14.98m7.5 0h14.98m7.5 0h14.98m7.5 0h14.98m7.5 0H4476m7.5 0h14.98m7.5 0h14.97m7.5 0h14.98m7.5 0h14.98m7.5 0h15m7.48 0h15m7.48 0h15m7.48 0h14.98m7.5 0h14.98m7.5 0h14.98m7.5 0h14.98m7.5 0h14.98m7.5 0h14.97m7.5 0h15m7.5 0h14.97m7.5 0h14.98m7.5 0h14.98m7.5 0h14.98m7.5 0h14.98m7.5 0h14.98m7.5 0h14.98m7.5 0h14.98m7.5 0H4993m7.5 0h14.98m7.5 0h14.97m7.5 0h14.98m7.5 0h14.98m7.5 0h15m7.48 0h15m7.48 0h15m7.48 0h14.98m7.5 0h14.98m7.5 0h14.98m7.5 0h14.98m7.5 0h14.98m7.5 0h14.97m7.5 0h7.5l.94.07.9.22.88.37.8.5.72.6.6.7.5.82.37.87.23.92.07.94v7.43m0 7.42v14.85m0 7.43v14.86m0 7.43v14.85m0 7.42v14.86m0 7.43v14.86m0 7.42v14.86m0 7.43v14.86m0 7.4v14.87m0 7.43v14.86m0 7.42v7.43l-.07.95-.22.92-.35.87-.5.8-.6.72-.72.6-.8.5-.88.36-.9.22-.95.07h-7.5m-7.5 0h-14.97m-7.5 0h-14.98m-7.5 0h-14.98m-7.5 0h-14.98m-7.5 0h-14.98m-7.5 0h-14.98m-7.5 0h-14.98m-7.5 0h-14.98m-7.5 0h-14.98m-7.5 0h-14.98m-7.5 0h-14.97m-7.5 0h-14.98m-7.5 0h-14.98m-7.5 0h-15m-7.48 0h-15m-7.48 0h-14.98m-7.5 0h-14.98m-7.5 0h-14.98m-7.5 0h-14.98m-7.5 0h-14.98m-7.5 0h-14.98m-7.5 0h-14.97m-7.5 0h-15m-7.5 0h-14.97m-7.5 0h-14.98m-7.5 0h-14.98m-7.5 0h-14.98m-7.5 0h-14.98m-7.5 0h-14.98m-7.5 0h-14.98m-7.5 0h-14.98m-7.5 0h-14.98m-7.5 0h-14.97m-7.5 0h-14.98m-7.5 0h-14.98m-7.5 0h-14.98m-7.5 0h-15m-7.48 0h-15m-7.48 0h-14.98m-7.5 0h-14.98m-7.5 0h-14.98m-7.5 0h-14.98m-7.5 0h-14.98m-7.5 0h-14.98m-7.5 0h-14.97m-7.5 0h-15m-7.48 0h-15m-7.48 0h-15m-7.48 0h-15m-7.48 0h-15m-7.48 0h-14.98m-7.5 0h-14.98m-7.5 0h-14.98m-7.5 0h-14.98m-7.5 0h-14.98m-7.5 0h-14.97m-7.5 0h-14.98m-7.5 0h-14.98m-7.5 0h-14.98m-7.5 0h-15m-7.48 0h-15m-7.48 0h-15m-7.48 0h-14.98m-7.5 0h-14.98m-7.5 0h-14.98m-7.5 0h-14.98m-7.5 0h-14.98m-7.5 0h-14.97m-7.5 0h-7.5l-.94-.06-.9-.22-.88-.36-.8-.5-.72-.6-.6-.72-.5-.8-.37-.87-.23-.92-.07-.94v-7.42m0-7.42v-14.86m0-7.43v-14.86m0-7.4v-14.87m0-7.43v-14.86m0-7.43v-14.84m0-7.43v-14.86m0-7.42v-14.86m0-7.44v-14.86m0-7.43v-14.85m0-7.43v-7.44l.07-.94.22-.9.35-.88.5-.8.6-.72.72-.6.8-.5.88-.37.9-.2.95-.1h7.5" stroke="#2f3564" stroke-width="1.5" fill="none"/><path d="M3743.2 2983.67a6 6 0 0 1 6-6h1551a6 6 0 0 1 6 6v222.86a6 6 0 0 1-6 6h-1551a6 6 0 0 1-6-6z" fill="#e0e8f5"/><path d="M3764.2 2977.67h14.97m7.5 0h14.98m7.5 0h14.98m7.5 0h14.98m7.5 0h14.98m7.5 0h14.98m7.5 0h14.98m7.5 0h14.98m7.5 0H3959m7.5 0h14.98m7.5 0h14.97m7.5 0h14.98m7.5 0h14.98m7.5 0h15m7.48 0h15m7.48 0h15m7.48 0h14.98m7.5 0h14.98m7.5 0h14.98m7.5 0h14.98m7.5 0h14.98m7.5 0h14.98m7.5 0h14.97m7.5 0h14.97m7.5 0h14.98m7.5 0h14.98m7.5 0h14.98m7.5 0h14.98m7.5 0h14.98m7.5 0h14.98m7.5 0h14.98m7.5 0H4476m7.5 0h14.98m7.5 0h14.97m7.5 0h14.98m7.5 0h14.98m7.5 0h15m7.48 0h15m7.48 0h15m7.48 0h14.98m7.5 0h14.98m7.5 0h14.98m7.5 0h14.98m7.5 0h14.98m7.5 0h14.97m7.5 0h15m7.5 0h14.97m7.5 0h14.98m7.5 0h14.98m7.5 0h14.98m7.5 0h14.98m7.5 0h14.98m7.5 0h14.98m7.5 0h14.98m7.5 0H4993m7.5 0h14.98m7.5 0h14.97m7.5 0h14.98m7.5 0h14.98m7.5 0h15m7.48 0h15m7.48 0h15m7.48 0h14.98m7.5 0h14.98m7.5 0h14.98m7.5 0h14.98m7.5 0h14.98m7.5 0h14.97m7.5 0h7.5l.94.08.9.22.88.36.8.5.72.6.6.72.5.8.37.87.23.9.07.95v7.43m0 7.43v14.86m0 7.4v14.87m0 7.43v14.86m0 7.43v14.84m0 7.43v14.86m0 7.42v14.86m0 7.44v14.86m0 7.43v14.85m0 7.43v14.87m0 7.43v7.43l-.07.93-.22.92-.35.87-.5.8-.6.72-.72.6-.8.5-.88.36-.9.22-.95.07h-7.5m-7.5 0h-14.97m-7.5 0h-14.98m-7.5 0h-14.98m-7.5 0h-14.98m-7.5 0h-14.98m-7.5 0h-14.98m-7.5 0h-14.98m-7.5 0h-14.98m-7.5 0h-14.98m-7.5 0h-14.98m-7.5 0h-14.97m-7.5 0h-14.98m-7.5 0h-14.98m-7.5 0h-15m-7.48 0h-15m-7.48 0h-14.98m-7.5 0h-14.98m-7.5 0h-14.98m-7.5 0h-14.98m-7.5 0h-14.98m-7.5 0h-14.98m-7.5 0h-14.97m-7.5 0h-15m-7.5 0h-14.97m-7.5 0h-14.98m-7.5 0h-14.98m-7.5 0h-14.98m-7.5 0h-14.98m-7.5 0h-14.98m-7.5 0h-14.98m-7.5 0h-14.98m-7.5 0h-14.98m-7.5 0h-14.97m-7.5 0h-14.98m-7.5 0h-14.98m-7.5 0h-14.98m-7.5 0h-15m-7.48 0h-15m-7.48 0h-14.98m-7.5 0h-14.98m-7.5 0h-14.98m-7.5 0h-14.98m-7.5 0h-14.98m-7.5 0h-14.98m-7.5 0h-14.97m-7.5 0h-15m-7.48 0h-15m-7.48 0h-15m-7.48 0h-15m-7.48 0h-15m-7.48 0h-14.98m-7.5 0h-14.98m-7.5 0h-14.98m-7.5 0h-14.98m-7.5 0h-14.98m-7.5 0h-14.97m-7.5 0h-14.98m-7.5 0h-14.98m-7.5 0h-14.98m-7.5 0h-15m-7.48 0h-15m-7.48 0h-15m-7.48 0h-14.98m-7.5 0h-14.98m-7.5 0h-14.98m-7.5 0h-14.98m-7.5 0h-14.98m-7.5 0h-14.97m-7.5 0h-7.5l-.94-.07-.9-.22-.88-.36-.8-.5-.72-.6-.6-.72-.5-.8-.37-.87-.23-.92-.07-.93v-7.43m0-7.43v-14.86m0-7.42v-14.85m0-7.43v-14.86m0-7.43v-14.85m0-7.42v-14.86m0-7.43v-14.85m0-7.44v-14.86m0-7.43v-14.86m0-7.4v-14.87m0-7.43v-7.43l.07-.94.22-.9.35-.88.5-.8.6-.72.72-.6.8-.5.88-.36.9-.22.95-.08h7.5" stroke="#2f3564" stroke-width="1.5" fill="none"/><path d="M3743.2 2720.67a6 6 0 0 1 6-6h1551a6 6 0 0 1 6 6v222.85a6 6 0 0 1-6 6h-1551a6 6 0 0 1-6-6z" fill="#e0e8f5"/><path d="M3764.2 2714.67h14.97m7.5 0h14.98m7.5 0h14.98m7.5 0h14.98m7.5 0h14.98m7.5 0h14.98m7.5 0h14.98m7.5 0h14.98m7.5 0H3959m7.5 0h14.98m7.5 0h14.97m7.5 0h14.98m7.5 0h14.98m7.5 0h15m7.48 0h15m7.48 0h15m7.48 0h14.98m7.5 0h14.98m7.5 0h14.98m7.5 0h14.98m7.5 0h14.98m7.5 0h14.98m7.5 0h14.97m7.5 0h14.97m7.5 0h14.98m7.5 0h14.98m7.5 0h14.98m7.5 0h14.98m7.5 0h14.98m7.5 0h14.98m7.5 0h14.98m7.5 0H4476m7.5 0h14.98m7.5 0h14.97m7.5 0h14.98m7.5 0h14.98m7.5 0h15m7.48 0h15m7.48 0h15m7.48 0h14.98m7.5 0h14.98m7.5 0h14.98m7.5 0h14.98m7.5 0h14.98m7.5 0h14.97m7.5 0h15m7.5 0h14.97m7.5 0h14.98m7.5 0h14.98m7.5 0h14.98m7.5 0h14.98m7.5 0h14.98m7.5 0h14.98m7.5 0h14.98m7.5 0H4993m7.5 0h14.98m7.5 0h14.97m7.5 0h14.98m7.5 0h14.98m7.5 0h15m7.48 0h15m7.48 0h15m7.48 0h14.98m7.5 0h14.98m7.5 0h14.98m7.5 0h14.98m7.5 0h14.98m7.5 0h14.97m7.5 0h7.5l.94.07.9.22.88.36.8.5.72.6.6.72.5.8.37.87.23.93.07.94v7.42m0 7.42v14.86m0 7.43v14.86m0 7.43v14.85m0 7.43v14.86m0 7.42v14.86m0 7.43v14.86m0 7.43v14.86m0 7.42v14.86m0 7.42v14.86m0 7.43v7.42l-.07.94-.22.9-.35.88-.5.8-.6.72-.72.6-.8.5-.88.36-.9.22-.95.08h-7.5m-7.5 0h-14.97m-7.5 0h-14.98m-7.5 0h-14.98m-7.5 0h-14.98m-7.5 0h-14.98m-7.5 0h-14.98m-7.5 0h-14.98m-7.5 0h-14.98m-7.5 0h-14.98m-7.5 0h-14.98m-7.5 0h-14.97m-7.5 0h-14.98m-7.5 0h-14.98m-7.5 0h-15m-7.48 0h-15m-7.48 0h-14.98m-7.5 0h-14.98m-7.5 0h-14.98m-7.5 0h-14.98m-7.5 0h-14.98m-7.5 0h-14.98m-7.5 0h-14.97m-7.5 0h-15m-7.5 0h-14.97m-7.5 0h-14.98m-7.5 0h-14.98m-7.5 0h-14.98m-7.5 0h-14.98m-7.5 0h-14.98m-7.5 0h-14.98m-7.5 0h-14.98m-7.5 0h-14.98m-7.5 0h-14.97m-7.5 0h-14.98m-7.5 0h-14.98m-7.5 0h-14.98m-7.5 0h-15m-7.48 0h-15m-7.48 0h-14.98m-7.5 0h-14.98m-7.5 0h-14.98m-7.5 0h-14.98m-7.5 0h-14.98m-7.5 0h-14.98m-7.5 0h-14.97m-7.5 0h-15m-7.48 0h-15m-7.48 0h-15m-7.48 0h-15m-7.48 0h-15m-7.48 0h-14.98m-7.5 0h-14.98m-7.5 0h-14.98m-7.5 0h-14.98m-7.5 0h-14.98m-7.5 0h-14.97m-7.5 0h-14.98m-7.5 0h-14.98m-7.5 0h-14.98m-7.5 0h-15m-7.48 0h-15m-7.48 0h-15m-7.48 0h-14.98m-7.5 0h-14.98m-7.5 0h-14.98m-7.5 0h-14.98m-7.5 0h-14.98m-7.5 0h-14.97m-7.5 0h-7.5l-.94-.07-.9-.22-.88-.37-.8-.5-.72-.6-.6-.72-.5-.8-.37-.87-.23-.9-.07-.95v-7.43m0-7.44v-14.86m0-7.42v-14.86m0-7.43v-14.86m0-7.43v-14.85m0-7.43v-14.86m0-7.42v-14.86m0-7.43v-14.86m0-7.43v-14.86m0-7.42v-14.86m0-7.43v-7.43l.07-.94.22-.92.35-.86.5-.8.6-.72.72-.6.8-.5.88-.36.9-.22.95-.07h7.5" stroke="#2f3564" stroke-width="1.5" fill="none"/><path d="M4155.87 3075.66a6 6 0 0 1 6-6H4654a6 6 0 0 1 6 6v38.3a6 6 0 0 1-6 6h-492.13a6 6 0 0 1-6-6z" stroke="#6c6e83" fill="#fff"/><path d="M4189.46 3081.85H4640v24.36h-450.54z" fill="none"/><use xlink:href="#a" transform="matrix(1,0,0,1,4189.459990766649,3081.8511096253337) translate(0 18.880208333333336)"/><use xlink:href="#b" transform="matrix(1,0,0,1,4189.459990766649,3081.8511096253337) translate(46.11979166666667 18.880208333333336)"/><use xlink:href="#c" transform="matrix(1,0,0,1,4189.459990766649,3081.8511096253337) translate(152.02213541666669 18.880208333333336)"/><use xlink:href="#d" transform="matrix(1,0,0,1,4189.459990766649,3081.8511096253337) translate(201.86067708333337 18.880208333333336)"/><use xlink:href="#e" transform="matrix(1,0,0,1,4189.459990766649,3081.8511096253337) translate(267.83203125 18.880208333333336)"/><use xlink:href="#f" transform="matrix(1,0,0,1,4189.459990766649,3081.8511096253337) translate(394.2786458333333 18.880208333333336)"/><path d="M3843.2 2837.18a19.5 19.5 0 0 1 19.5-19.5h101a19.5 19.5 0 0 1 19.5 19.5 19.5 19.5 0 0 1-19.5 19.5h-101a19.5 19.5 0 0 1-19.5-19.5z" stroke="#6c6e83" fill="#fff"/><path d="M3899.53 2825.68h100v23h-100z" fill="none"/><use xlink:href="#g" transform="matrix(1,0,0,1,3899.533851168704,2825.682857129272) translate(0 17.880208333333336)"/><path d="M3833.2 2886.65c27.6 0 50-22.3 50-49.98 0-27.56-22.4-49.97-50-49.97s-50 22.4-50 49.97c0 27.67 22.4 49.98 50 49.98z" stroke="#6c6e83" fill="#a2c6f6"/><path d="M3833.2 2885.54c26.9 0 48.8-21.8 48.8-48.76 0-26.96-21.9-48.77-48.8-48.77-27 0-48.8 21.82-48.8 48.78 0 26.95 21.8 48.76 48.8 48.76z" stroke="#000" stroke-opacity="0" fill="#a2c6f6"/><path d="M3854.1 2815.07c0-.2-.1-.4-.1-.6.2-.4.2-.82.2-1.22 0-1-.7-1.82-1.3-2.63-.7-1-1.4-2-2.2-2.82-.4-.4-.8-.8-1.2-1-.6-.32-1.1-.42-1.6-1.02-1-1.52-2.1-2.63-3.8-3.23-1.1-.4-2.3-.4-3.5-.3-.6-.7-1.7-1.12-2.8-1.12-.7-.1-1.5.2-2.3.1-.6-.1-1-.5-1.6-.6-1.2-.2-2.5.1-3.6.4-1.3.4-2.3 1-3.5 1.72-.7.4-1.4.2-2.2.3-.5 0-1 .2-1.5.4-1.8.8-2.9 2.43-3.4 4.25-1.2.1-2.2.6-3 1.4-1.4 1.42-1.4 3.04-1.3 4.86 0 .7 0 1.3-.2 1.9-.1.62-.3 1.13-.5 1.63-.3 1.1-.2 2.1 0 3.22l.9 5.76c-.4.9-.3 2.12.4 3.03.2.2.6.5.9.7.5.42 1 .92 1.4 1.53.5.8 1.1 1.6 1.8 2.32 3 2.93 7.3 3.84 11.4 3.53 2.5-.2 4.8-1 7.3-1.2 1.2-.1 2.4-.1 3.6-.3 1.1-.32 2.1-.72 3-1.22 3.6-1.72 6.9-4.85 7.3-9 0-.8 0-1.5.3-2.2.2-.52.5-1.02.7-1.52.3-1.12-.3-2.43 0-3.64.2-1.1.5-2.22.4-3.43z" stroke="#000" stroke-opacity="0" fill="#33261a"/><path d="M3854.7 2867.17c-3.6-2.22-8.8-3.13-10.6-7.37-.9-2.33-.5-5.15-.5-7.58v-7.37c0-.3-.4-.4-.5-.1-1 1.4-4 1.3-5.5 1.4-1.7.12-3.5.22-5.3.22-3.1 0-6.7.3-9.5-1.2 0-.42-.1-.72-.1-1.13 0-.3-.6-.3-.6 0 0 .4.1.7.1 1.12-.1 0-.1.1-.1.1 0 .1.1.2.1.2.1 1.1.1 2.22.2 3.33.2 2.92.3 5.85.3 8.77.1.9.1 1.92.1 2.83-.9 1.92-2.3 3.74-3.9 5.25-1.3 1.2-2.7 2.32-4.2 3.23-1.1.8-2.5 1.32-3.3 2.53v.2c0 .1.1.1.1.2 3.4 1.63 6.9 3.14 10.5 4.55 3.3 1.22 7.1 2.93 10.8 2.53 1.6-.2 2.9-.9 4.3-1.72 1.7-1 3.4-1.92 5.1-2.82.8-.5 1.6-.9 2.4-1.32 3.3-.2 6.5-1.1 9.5-2.52.6-.3 1.7-.6 2.1-1.2.8-1.02-.8-1.73-1.5-2.13z" stroke="#000" stroke-opacity="0" fill="#b86554"/><path d="M3847.5 2839.4c.2-.8.3-1.62.5-2.52 0-.2 0-.3.1-.5l.3-1.52c0-.3.1-.6.1-.9.1-.82.2-1.53.4-2.23l.3-2.33c.9-6.56 1.4-12.3 1.2-12.82-.8-2.22-2.3-3.23-4-4.54-.3-.3-.6-.5-.9-.7-.3-.2-.5-.4-.8-.62-1.7-1.5-4.2-1.9-6.4-2-5.2-.22-10.2 0-14.8 2.5-.7.3-1.3.72-1.9 1.22-.1.1-.3.2-.5.3-.6.6-1.2 1.22-1.7 2.02-.5.7-.8 1.52-.9 2.43-.2 1.2-.1 2.4-.4 3.72v.2c-.2 1.02-.2 3.74-.1 6.97v2.3c.1.82.1 1.63.1 2.44.1.7.1 1.5.2 2.22v.6c.1.5.1.9.1 1.42.1.4.1.9.2 1.3.2 1.73.4 3.04.7 4.05.6 2.22 1.6 4.34 3 6.26 1.9 2.5 4.4 4.53 7.4 5.24 1.2.4 2.5.5 3.8.4.8-.1 1.6-.2 2.3-.4.5-.1 1-.2 1.5-.4 1.6-.4 3.1-1.22 4.4-2.23 1.8-1.4 3.2-3.32 4.1-5.54.6-1.5 1.2-3.84 1.7-6.36z" stroke="#000" stroke-opacity="0" fill="#b86554"/><path d="M3852 2829.1c-.4-1.5-2.1-2.32-3.1-.8-.1.2.1.4.3.4-.8 1.4-1.3 3.03-1.8 4.64-.3 1.1-1.1 2.93-.8 4.14.5 2.12 3.3-.2 4-1 1.7-2.03 2-4.95 1.4-7.38zM3815.5 2834.35c.5.9 3 3.54 3.8 1.52.4-1.2-.1-3.03-.3-4.24-.2-1.72.1-2.83-.5-4.35.2 0-.2-.6-.3-.9-.8-1.62-2.6-1-3.2.4-.9 2.42-1 5.35.5 7.57z" stroke="#000" stroke-opacity="0" fill="#b86554"/><path d="M3842.5 2830.5c.1-.6.2-1.2.1-1.7 0-.3-.1-.6-.3-.8-.6-.6-1.3-.1-1.4.5-.3.8-.3 2.52.4 2.92.7.4 1-.1 1.2-.9zM3826.3 2829.7c.1-.5.2-1.1.1-1.7 0-.3-.2-.5-.3-.72-.6-.6-1.3-.1-1.4.5-.3.82-.3 2.43.4 2.84.8.4 1.1-.1 1.2-.9z" stroke="#000" stroke-opacity="0" fill="#33261a"/><path d="M3850.1 2829.9v-.1c0-.1 0-.1-.1-.2h-.2-.1c-.1 0-.1.1-.1.1-.1 0-.1.1-.1.1V2830.1l-.3 1.22c-.1.4-.5.9-.4 1.32 0 .2.1.3.2.4.2.4.3.7.3 1.1 0 .4-.4 1.73-1 1.42-.4-.1-.7.4-.3.5 1 .5 1.8-.9 1.9-1.8 0-.2 0-.5-.1-.72 0-.3-.4-.6-.4-.9-.1-.3.3-.9.4-1.22l.3-1.5zM3818 2833.85c-1-.9-1.2-1.62-.4-2.22l.4-.4c.1-.2.1-.3.1-.5.1-1.02-.4-2.23-.7-3.24-.1-.32-.7-.22-.6.2.2.7.9 2.5.7 3.12-.2.6-.8.8-1 1.4-.2 1.02.4 1.83 1.3 2.13.4.1.5-.4.2-.5zM3839.5 2853.54c-.3-.5-1.4-.2-3.1.5-2.6.9-6.2.1-8.6-1-1.9-.92-3.9-2.63-5.4-4.35.2 3.02.3 5.95.3 8.87h.6c1.2 0 2.4.6 3.6.7 1 0 1.8-.5 2.7-.7 1.2-.4 2.4 0 3.7-.2.9-.1 1.8-.6 2.6-1.1 1-.6 4.2-1.32 3.6-2.73zM3836.2 2836.27c-.2-1.5-.4-3.13-.7-4.64-.1-.4-.7-.3-.6 0 .4 2 .7 4.13.9 6.15 0 .7.3 1.22-.6 1.62-.6.3-1.5.2-2.1.1-.8-.1-1.4-.1-2.2-.1-.4.1-.4.7 0 .6 1.4-.1 4.6.9 5.4-.7.4-.8 0-2.22-.1-3.03z" stroke="#000" stroke-opacity="0" fill="#9c4736"/><path d="M3821.1 2824.46c.1.6.8.8 1.4.8 1.4.2 2.9 0 4.3 0 .8 0 2.6.3 3.3-.3 1.5-1.2-1.5-2.02-2.3-2.12-1.4-.2-2.8-.2-4.2.1-.5.1-2.7.9-2.5 1.52zM3845.1 2823.95c-1.3-.3-2.8-.4-4.2-.3-.7.1-3.8.7-2.3 2.02.6.6 2.4.4 3.2.4 1.5.1 2.9.3 4.4.3.5 0 1.2-.2 1.4-.8.3-.6-1.9-1.52-2.5-1.62z" stroke="#000" stroke-opacity="0" fill="#33261a"/><path d="M3830.6 2843.14c-.6-.1-1.3-.3-1.9-.6-.1 0-1-.2-1.1-.4.2.6.9 1.3 1.3 1.8.9 1.22 1.7 1.62 3.1 1.72 1.6.1 3.5-.1 4.9-1 0 0 1.6-1.12 1.8-2.23-.1.2-2 .6-2.9.8-.8.1-3.4.2-5.2-.1z" stroke="#000" stroke-opacity="0" fill="#9c4736"/><path d="M3861.1 2872.72l-.3-4.14v-.1h-.1l-4.3-1.82c-1.4-.6-7.2-2.12-7.2-2.12s-13 11.1-14.5 11.4c-1.6.3-15.4-10.6-15.4-10.6s-5.7 1.83-7.3 2.94c-2.9 2.12-2.1 5.75-1.9 8.78 2.4 14.64 49.9 12.12 51-4.34z" stroke="#000" stroke-opacity="0" fill="#fff8f0"/><path d="M3813.7 2883.12s.3 1.3.7-1.2c.7-4.96 2.2-15.66 2.1-15.66-.2 0-.4 0-.5.1h-.1c-4.9 1.1-9.6 4.54-14.3 6.56-3.5 1.4-1.3 1.62-1.3 1.62l13.4 8.58zM3868.5 2870.3c-1.7-1.32-3.6-1.92-5.6-2.53-2.5-.7-4.5-.9-6.9-1.6-.6-.22-3.3-.72-3.3-.72 0 6.26-1.2 18.38 0 17.67 8.5-4.85 16.6-10.1 15.8-12.82z" stroke="#000" stroke-opacity="0" fill="#456664"/><path d="M3823.3 2884.43c-.5-1-1-2.02-1.3-3.13l-.1-.1c-.1 0-.1 0-.1-.1h-.2c0 .1-.1.1-.1.1-1 1-1.9 1.92-2.8 3.03-.2.3.2.7.5.4.7-.9 1.5-1.8 2.4-2.62.3.92.7 1.83 1.2 2.74.2.3.7 0 .5-.3zM3849.6 2877.16c-.5-.9-1-1.7-1.5-2.52-.2-.3-.4-.6-.8-.5-.5 0-1 .7-1.3 1-.6.6-1.2 1.32-1.7 2.02-.2.3.2.7.5.4.6-.9 1.3-1.7 2.1-2.52.4-.3.3-.3.7-.1.2.2.3.6.5.8.3.5.7 1.12 1 1.73.2.3.7 0 .5-.3zM3839.9 2886.75c-.5-.9-.9-1.9-1.4-2.72-.2-.2-.4-.5-.8-.4-.4 0-.9.8-1.1 1.1l-2 2.43c-.3.3.2.7.4.4.8-1 1.5-2.22 2.5-3.03.2-.2.1-.3.5-.1.1 0 .3.6.4.8l1 1.83c.2.3.7 0 .5-.3zM3822.2 2871.4c-.3-.7-.7-1.5-1.1-2.2-.2-.42-.6-1.23-1.1-1.23-.5-.1-1 .6-1.3.9-.7.62-1.4 1.33-2 2.13-.3.3.2.7.4.4.4-.5.7-.9 1.1-1.2.3-.4.9-1.1 1.3-1.32.7-.3.9.4 1.2.9.4.62.7 1.22.9 1.83.2.4.7.2.6-.2z" stroke="#000" stroke-opacity="0" fill="#aeb5c2"/><path d="M3851.3 2816.28c-.3-.7-.9-1.3-1.4-2.02-.7-.7-1.3-1.52-2-2.12-1.4-1.4-2.9-2.53-4.7-3.33-3.6-1.5-7.7-1.3-11.4-.6-2.1.5-4.2 1.1-6.3 1.82-1.7.6-3.5 1.1-4.9 2.22-3.5 3.03-2.5 8.18-3.4 12.12v.1h.1c.3 1.1.4 2.22.8 3.23.1.4.4.8.8.7.6-.3.6-1.52.7-2.03.1-1.1 0-2.22.3-3.33.4-1 .4-1.9.6-2.93.2-1.3.7-2.2 1.5-3.22 1.3-1.5 2.4-3.23 3.1-5.14.4.1.7.1 1.1.1.9 0 1.8 0 2.6.1 1.8 0 3.7.1 5.5.1 3.6.2 7.1.6 10.7 1h.1c2.4 1.12 2.1 4.85 2.4 7.07.2 1.53.4 3.04.8 4.56.1.8 0 1.6 0 2.42-.1.7-.3 1.42-.4 2.12 0 .3 0 .6.3.7.5.5.8-.3.9-.7.2-.5.4-1.1.6-1.7.3-.52.5-1.13.6-1.73.2-1.1.3-2.22.5-3.33.2-1 .3-2.12.5-3.13.1-1 .3-2 0-3.02z" stroke="#000" stroke-opacity="0" fill="#33261a"/><path d="M3833.2 2886.65c27.6 0 50-22.3 50-49.98 0-27.56-22.4-49.97-50-49.97s-50 22.4-50 49.97c0 27.67 22.4 49.98 50 49.98z" stroke="#6c6e83" fill-opacity="0"/><path d="M3843.2 3095.5a19.5 19.5 0 0 1 19.5-19.5h141a19.5 19.5 0 0 1 19.5 19.5 19.5 19.5 0 0 1-19.5 19.5h-141a19.5 19.5 0 0 1-19.5-19.5z" stroke="#6c6e83" fill="#fff"/><path d="M3899.53 3084h100v22.98h-100z" fill="none"/><use xlink:href="#h" transform="matrix(1,0,0,1,3899.534095070598,3083.991769247014) translate(0 17.880208333333336)"/><path d="M3833.2 3145.9c27.6 0 50-22.38 50-50 0-27.6-22.4-50-50-50s-50 22.4-50 50c0 27.62 22.4 50 50 50z" stroke="#6c6e83" fill="#a2c6f6"/><path d="M3849.9 3085.27c.3-2 .7-4.12.8-6.13.1-1.8-.1-3.7-.8-5.42-.8-1.9-2.1-3.3-3.5-4.72.8-.2 1.6-.6 2.3-1.2.7-.7 1.2-1.7 1.2-2.8 0-.62-.2-1.02-.4-1.52s-.2-.8-.1-1.3v-.7c-.4-.9-1.7-1.5-2.5-1.9-.8-.32-1.6-.52-2.5-.62-.3-.8-1.3-1.3-2.2-1.4-.7-.2-1.5-.2-2.2 0-.9.3-1.6.8-2.5 1.2-.8.4-1.8.5-2.6.8-.7.3-1.3.7-1.8 1.2-.7.6-1 1.3-1.3 2.12-1.6-.3-3.3-.4-4.9-.1-.9.2-1.6.6-2.3 1.1-1 .5-2 .7-2.9 1.2-.7.3-1.2.9-1.8 1.5-.7.82-1.6 1.32-2.4 2.02-.8.6-1.4 1.5-1.8 2.5-.7 1-1.1 2.12-1.5 3.32-.3 1.2-.6 2.4-.9 3.72-.3 1.2-.6 2.5-.7 3.7-.1 2.12.4 4.03 1.6 5.54v.1l.2.2c.1.1.2.1.2 0 2.1.9 4 1.9 5.9 3.2 1.8 1.32 3.6 2.82 5.4 4.33 3.5 2.92 6.3 6.63 9.9 9.45 1.3 1 2.9 2.4 4.7 2 1.7-.4 2.8-2 3.7-3.4 2.2-3.52 3.6-7.64 4.5-11.76.5-2 .9-4.12 1.2-6.23z" stroke="#000" stroke-opacity="0" fill="#5a3728"/><path d="M3844.6 3099.22c.6-3.7 2.8-20.18 1.6-23.1-1-2.1-2.5-3.1-4.3-4.3l-.9-.6c-.2-.2-.5-.4-.8-.6-1.8-1.52-4.3-1.72-6.5-1.72-5.1.1-10.2.4-14.7 3.2-.6.42-1.2.82-1.8 1.32-.1.1-.3.2-.4.4-.7.6-1.3 1.2-1.7 2-.5.8-.7 1.62-.8 2.42-1.1 6.23-.4 14.16.9 20.28 1.3 6.73 4.7 14.56 12 16.07 1.2.2 2.5.3 3.9.1 6.1-.72 10.3-4.83 12.3-10.56.5-1.6.9-3.3 1.2-4.92z" stroke="#000" stroke-opacity="0" fill="#fea689"/><path d="M3858.6 3123.22c-4.3-1.3-7.6.4-11.4-2.7-1.2-1-2.3-2.52-2.3-3.93l-.3-3.82c-.3-4.52-.5-9.04-.2-13.56h.1c.6-.5 1.3-1.1 1.9-1.8 1.2-1.5 1.8-3.32 1.8-5.22 0-1.6-.1-3.92-1.8-4.62-1.2-.4-2.7.6-3.4 1.6 0-.1-.1-.1-.2-.2.1-.2.2-.4.4-.6.1-.1-.1-.3-.2-.2-.5.6-.7 1.2-.7 1.9 0 1.1.1 2.12.1 3.12 0 1.7-.1 3.3-.2 4.92-.9 1-1.8 2-2.8 3-1.4 1.62-3 2.62-4.9 3.73-1.9 1.1-3.7 2.3-5.4 3.6-.9.6-4.6-.6-4.7-2.2-.1-.4-.6-.3-.6.1.5 5.22.8 10.44 1 15.66-.7.52-1.3 1.02-2 1.42-2 1.4-4.2 2.6-6.5 3.5-.2.1-.3.42-.1.52 3.3 2.6 7.9 5.22 11.5 7.43 1.4.9 2.1 1.3 3.7 1 2-.5 4-1.1 6-1.7 7.6-2.42 14.8-5.93 21.4-10.45.2-.1.1-.4-.2-.5z" stroke="#000" stroke-opacity="0" fill="#fea689"/><path d="M3821.3 3092.4c.1-.6 0-1.4-.1-1.6 0-.3-.1-.6-.3-.7-.6-.6-1.2 0-1.3.6-.2.7-.1 2.3.6 2.6.7.4 1-.2 1.1-.9zM3836.8 3091.4c.1-.6 0-1.4-.1-1.6 0-.32-.1-.62-.3-.72-.6-.6-1.2 0-1.3.6-.2.7-.1 2.32.6 2.62.7.4 1-.2 1.1-.9z" stroke="#000" stroke-opacity="0" fill="#232c44"/><path d="M3829.6 3100.63c-1 .4-3.1.9-3.8-.2-.4-.7.1-2.8.3-3.5.3-2.12.8-4.23 1-6.34.1-.4-.5-.5-.6-.1-.3 3.2-1.6 7.02-1.4 9.73.1 2 3.3 1.4 4.7 1 .4-.2.2-.7-.2-.6z" stroke="#000" stroke-opacity="0" fill="#b47a67"/><path d="M3823.7 3086.07c-.1 0-.2-.1-.3-.1-.7-.1-1.2-.2-2-.1-.9.1-2 .1-3 .4-1 .2-2.6.6-2.9 1.7 0 .1.1.3.2.3.9.4 1.6.1 2.6 0 1.3-.1 2.7-.1 4.1-.3.5 0 1.1-.3 1.4-.7.4-.4.3-.9-.1-1.2zM3831.7 3086.97c.4.3 1 .5 1.5.5 1.4-.1 2.8-.3 4.1-.5 1-.1 1.7.1 2.6-.5.1 0 .1-.2.1-.3-.6-1-2.1-1.1-3.2-1.2-1 0-2.1.2-3 .2-.8 0-1.3.2-2 .5-.1 0-.1.1-.2.1-.4.3-.3.9.1 1.2z" stroke="#000" stroke-opacity="0" fill="#b47a66"/><path d="M3842.8 3102.84c.1-1.6.1-3.32.1-5.02 0-.2.1-2.3-.7-1.5-.2.2-.2.7-.2 1l-.3 1.4c-.2 1-.4 2-.7 2.9-.1.82-.6 1.52-.8 2.32-.3.7-.7 1.3-1 2-.2.8-.5 1.52-1 2.22-.3.6-1 1-1.6 1.3-.6.4-1.9 1.2-2.5 1.6-2.9 1.52-3-3.5-3.5-5.4-.6-.1-1.2 0-1.8.2l-.1.1c-.1 0-.1 0-.2.1.1.3.2.7.3 1.1.1.3.1.5 0 .8 0 .9.3 1.7.1 2.5-.2 1.1-1.2 1.2-2.3 1.5-.6.1-1.1.1-1.7-.3-.6-.5-1.3-.4-1.9-.9-.3-.2-.6-.3-.9-.5-.5-.3-.8-1.1-1.2-1.5-.4-.5-.5-1.2-.7-1.8-.3-.7-.7-.9-1.2-1.2-.6-.4-.5-.7-.8-1.22-.2-.4-.7-1.3-.9-1.6-.1-.2-.2-.5-.2-.7-.3-.6-.7-1.2-1.1-1.7l-.5-.5s-.1.8-.1 1c.1.4.2.7.3 1 .3.5.3 1.3.5 1.9.2.6 0 1.5.3 2.1.3.6.5 3.22.7 3.83.3.7.3 1.3.6 1.9.4.6.3 1.4.6 2 .3.62.8.92 1.3 1.22l.1.1.1.1c.4.4.8.7 1.2 1.2.2.3.7 1.3 1 1.5.5.4 1.1.5 1.5.9.3.3.6.1 1 .4.7.5 1.6.4 2.4.4.6 0 1 .3 1.5.4.5.1 1 0 1.5-.1 1.1-.3 3.2.4 4.3.2.9-.1 1.4-.4 2.1-1 .5-.5.9-.5 1.5-.7.3-.2.5-.6.7-.9.4-.4 1.8-1.7 2.1-2.1.4-.5.6-1 .8-1.62.2-.6.4-2.1.5-2.7.2-.4.3-.8.4-1.2.5-1.62.2-5.34.4-7.04z" stroke="#000" stroke-opacity="0" fill="#5a3728"/><path d="M3834.3 3103.34c-.7 0-9.3.9-9.5.9-.1 0-.2.1-.1.1 4.2 1.4 5.1 1.2 9.7-.9 0-.1-.1-.1-.1-.1z" stroke="#000" stroke-opacity="0" fill="#b66f58"/><path d="M3845.6 3096.4c-.4-.7-.5-.7-.1-1.7 0-.1.2-.2.2-.4.1-.4.2-.7 0-1.2-.1-.4-.7-.9-.7-1.3-.1-.7.5-1.9.7-2.52.1-.4-.5-.5-.6-.1-.2.7-.8 1.8-.8 2.6.1.42.4.62.6.92.7 1.3-.1 1.4-.3 2.3-.2.6.1 1.1.4 1.6.2.32.7.1.5-.2h.1zM3845.6 3067.7c-.9-.7-1.7-1.5-2.6-2.1-1.1-.6-2.2-.5-3.3-1.1-1.9-1.12-3.2-2.12-5.6-1.72-.4.1-.3.7.1.6 1.2-.2 2.5-.1 3.6.6.8.4 1.5 1 2.3 1.3.9.5 1.9.4 2.8 1 .8.6 1.6 1.32 2.3 1.92.3.2.7-.2.4-.5z" stroke="#000" stroke-opacity="0" fill="#392e2a"/><path d="M3851 3125.53c-1.2-1.9-4.7-.9-6.4-.5-1.4.3-2.7.7-4 1.3-.6.3-1.3.6-2 .7-1.2.2-2.3-.3-3.5-.3-3.5-.2-7.1 1.4-10.4-.5-1.9-1-3.7-2.9-5.9-2.7l-.1-.1c-.1 0-.3 0-.3.1l-.1.1c-.3.1-.6.2-.9.4-.4.2 0 .6.3.5l.6-.3c.1.1.2.1.2.1H3818.8c.3 1.1 1.2 3.7 1.3 4 .6 1.52 1.2 2.92 1.9 4.33 1.4 2.8 3 5.62 5 7.93 1.8 2.3 4.2 1.7 6.6.6 2.9-1.5 5.7-3.02 8.5-4.63 2.5-1.5 5-3.1 6.9-5.32 1.2-1.3 3.1-3.8 2-5.72z" stroke="#000" stroke-opacity="0" fill="#93aebe"/><path d="M3873.4 3125.23s-5.9-6.13-10.4-8.84c-.1-.1-.1-.2-.2-.2-2.9-1.1-6.9-3.52-10-1.8-1.5.8-2.3 2.4-3.4 3.5-1.5 1.6-3.6 2.3-5.5 3-1.7.6-3.3 1.32-4.7 2.52-1.5 1.3-2.7 3-3.9 4.72-1.7 2.4-3.3 4.92-4.7 7.63-.1-.7-.2-1.4-.4-2.1-.6-2.32-1.9-4.22-3.5-6.03-1.7-2-3.2-4.02-4.2-6.53-.8-1.7-1.4-3.8-2.9-5.1-1.4-1.2-3.1-1.1-4.7-.6-1.1.4-2.1.8-3.2 1.1-1.1.3-2.3.5-3.3.8-2.7.7-4.6 2.9-4.7 5.52-2.8.3-5.6 1-8.2 2.3-1.5.7-2.6 1.3-2.6 1.3 25.1 24.2 57.9 26.62 80.5-1.2z" stroke="#000" stroke-opacity="0" fill="#485a7e"/><path d="M3864.9 3135.07s.3 0 .3-.4c-.9-1.9-1.3-1.7-2.1-3.72-1.6-4.32-1.5-9.14.2-13.45.1-.4-.4-.6-.6-.3-1.6 4.2-1.8 8.83-.5 13.05.7 2.1 1.6 2.9 2.7 4.82zM3858.9 3121.5c-1.4 2.72-3.9 4.53-6.5 6.14-2.9 1.7-5.9 3.4-8.8 5.12-2.8 1.6-5.7 3.1-8.5 4.72-2 1.1-3.9 2.5-4.8 4.5-1.6-1.8-3.4-3.4-5.3-4.8-2.4-1.7-5-2.82-6.9-5.13-1.4-1.9-2.9-3.4-4.9-4.7-2.3-1.32-4.9-2.22-7.4-3.03-.4-.1-.7.4-.3.5 2.3.8 4.7 1.5 6.8 2.72 2.6 1.4 4.1 3.4 6 5.52 1.5 1.8 3.7 2.8 5.7 4.12 2.3 1.6 4.3 3.4 6.1 5.52.1.2.4.2.5 0 1.1-2.8 3.9-4.22 6.4-5.62 3-1.6 6-3.32 8.9-5.03 2.8-1.6 5.6-3.1 8.2-4.8 2.2-1.52 4.2-3.13 5.4-5.54.2-.3-.4-.6-.5-.2h-.1z" stroke="#000" stroke-opacity="0" fill="#2c3b59"/><path d="M3825.7 3133.56c-5.2-4.62-7.8-11.34-12.8-16.16-.3-.3-.7.2-.4.4 5 4.82 7.6 11.64 12.8 16.26.3.2.7-.2.4-.5zM3847.1 3120.9c-1.2 2.12-3.1 3.73-4.8 5.33-1.8 1.7-3.6 3.32-5.4 5.02-.2.2.2.6.5.4l5.7-5.42c1.7-1.5 3.4-3 4.6-5.12.2-.3-.4-.5-.6-.2z" stroke="#000" stroke-opacity="0" fill="#2c3b59"/><path d="M3827.4 3140.9c.2-1.4.2-2.82.3-4.23-.6-.1-1.5-.2-2 .2-.6.5-.3 2.4-.4 3.12-.4 2.7-.6 4.8-.6 4.8s2.3 1.2 2.3-1.6c.2-.7.3-1.5.4-2.3zM3833.8 3142.9c-1.8 4.32 1.9 3.8 2 2.5.2-1.9.7-3.8.8-5.7 0-1.82-.1-3.73-.2-5.64-.7.2-1.5.4-2.2.5-.1 1 .1 1.9.3 3.02.3 1.8-.5 3.5-.7 5.32z" stroke="#000" stroke-opacity="0" fill="#232c44"/><path d="M3847.7 3080.25c0-1.7-.5-3.32-1.3-4.82-.8-1.5-1.8-2.8-2.9-4.02-1.1-1.3-2.2-2.5-4-3-1.9-.6-3.9-.4-5.9-.3-2.1.1-4.2.1-6.4.3-1 .1-2.1.2-3 .6-.9.4-1.6.9-2.4 1.4-1.6.8-3.3 1.3-4.9 2.32-1.7 1-2.4 2.6-3 4.52-.6 2.1-1 4.3-.8 6.52 0 .1 0 .1.1.1l-.1.1v.2c.2.2.3.3.5.4h.2c1.1-1.4 1.1-3.4 1.4-5.1.3-1.02.4-2.53 1.4-3.03.6-.4 1.5-.3 2.3-.5.6-.1 1.2-.3 1.7-.6.4-.2.7-.5 1.1-.6.6-.2 1.2.1 1.9.2 1.8.3 3.4-.2 5.2-.7 1.2-.3 2.2-.2 3.4 0 1 .2 2.1.3 3.1.5 1.1.2 2.1.3 3.2.5s2.3.3 2.9 1.5c.9 1.8 1.3 3.82 1.1 5.93-.1 1.9-.4 3.8-.2 5.72.1 1.1 1.1 1.6 1.7.6.3-.5.6-.6 1.2-.7.2 0 .4-.1.6-.2.5-.5.7-1.3.9-1.9.6-1.82 1-3.92 1-5.93z" stroke="#000" stroke-opacity="0" fill="#5a3728"/><path d="M3832.5 3063.08c-1.4-.1-2.7.3-3.8 1-1.5.9-2.1 2.6-3.8 3.22-2.4.8-4.1 2.4-3.9 5.12 0 .4.6.3.6-.1-.1-1.5.5-3.02 1.9-3.82.8-.6 1.9-.6 2.8-1.2 1-.7 1.5-1.8 2.4-2.5 1.1-.82 2.4-1.22 3.8-1.12.4 0 .4-.6 0-.6zM3846.2 3070.5c0-.4-.6-.3-.6 0 .1 2.92.2 5.63-2.3 7.54-.3.3.1.7.4.5 2.6-2.1 2.5-4.92 2.5-8.03zM3844.9 3068.4c0-.4-.6-.3-.6.1 0 1.9 0 3.82-1.1 5.52-.2.3.3.6.5.2 1.1-1.7 1.2-3.8 1.2-5.82z" stroke="#000" stroke-opacity="0" fill="#392e2a"/><path d="M3833.2 3145.9c27.6 0 50-22.38 50-50 0-27.6-22.4-50-50-50s-50 22.4-50 50c0 27.62 22.4 50 50 50z" stroke="#6c6e83" fill-opacity="0"/><path d="M3843.2 2566.14a21.87 21.87 0 0 1 21.87-21.87h170.73a21.87 21.87 0 0 1 21.86 21.87 21.87 21.87 0 0 1-21.86 21.86h-170.73a21.87 21.87 0 0 1-21.87-21.86z" stroke="#6c6e83" fill="#fff"/><path d="M3884.53 2555.67h142.67v21.5h-142.67z" fill="none"/><use xlink:href="#i" transform="matrix(1,0,0,1,3884.5338511684104,2555.6666239838014) translate(10.141493055555557 17.07638888888889)"/><use xlink:href="#j" transform="matrix(1,0,0,1,3884.5338511684104,2555.6666239838014) translate(83.45746527777777 17.07638888888889)"/><path d="M3833.2 2618.38c27.6 0 50-22.34 50-49.9 0-27.7-22.4-50.03-50-50.03s-50 22.34-50 50.02c0 27.57 22.4 49.9 50 49.9z" stroke="#6c6e83" fill="#a2c6f6"/><path d="M3832.5 2618.38c-18.8-1.2-32.2-10.97-37.1-18.2 1.2-1.92 4.8-6.96 6.5-8.37 1.5-1.2 3.2-2.2 5.1-2.8 1.8-.6 4.4-.4 4.4-.4h8.2c4.7 0 9.4.1 12.9.3 1.6 0 3.2.1 4.7.1 2.9.1 5.8.2 8.7.4.8.1 1.7.1 2.6.2.3 0 .6.1.9.1.3 0 .6 0 .9.1l.8.1c.5 0 1.1.1 1.7.1 1.3.2 2.6.3 3.8.5.4 0 .8.1 1.3.1s1.1.1 1.6.1c.2.1.5.1.8.2 1.9.3 3.7 1 5.4 2.02 1.9 1.2 5.3 7.25 5.3 7.25s-4.8 5.63-8.5 8.45c-9.8 7.55-17.7 10.57-30 9.76z" stroke="#000" stroke-opacity="0" fill="#ffa894"/><path d="M3853.2 2550.95c.2-1.9-.2-4.02-.5-5.93-.3-1.6-.3-3.83-1.2-5.34-.8-1.2-2.4-2.1-3.6-2.82-2.8-1.5-5.8-1.3-8.8-.6-2.1-2.42-6-2.52-8.9-.9-1.2.7-1.7 0-3.2.2-1 .1-3.3.3-4.1.8-1.7 1-3 2.82-3.8 4.63-2.2.2-3.7 1.1-4.3 3.4-.4 1.52 0 3.74-.3 5.24-.3 1.4-.8 2.72-.8 4.13 0 1.5.6 2.72 1 4.13.6 1.9.9 3.92.9 6.04-.1 1.2.1 2.5.8 3.62.2.4.5.8.9 1.2.7.6 4.2 4.64 4.2 4.64s1.3-2.42 2.4-2.32c2.6.4 5.4 0 8-.1 2.9 0 5.5-.2 8.1 1.3.4.2.7.5 1.1.7.4.22.8.42 1.3.62 1 .3 1.6 0 2.6-.1 2.1-.2.9.3 2 .9.4.2.9.1 1.3 0 .1-.1.3-.1.4-.2 1.2-.4 2.5-1.4 2.7-2.82.2-1.1-.4-2.1-.3-3.32.1-1.4 1-2.1 1.5-3.42.4-.9.2-1.7 0-2.62.9-1.3.9-3.82.4-5.03-.4-1.22-.8-2.02-.5-3.33.2-.9.6-1.8.7-2.72z" stroke="#000" stroke-opacity="0" fill="#fad3b1"/><path d="M3847.2 2568.67c-.9-1.2-1.6-2.22-2-3.73-.3-1.4-.6-2.92-.7-4.33 0-.4-.6-.3-.6.12.1 1.3.3 2.7.6 4.12-1.5 1.5-1.9 3.63-2.5 5.54-.3.8-.6 1.7-.9 2.6.4.22.8.42 1.3.62 1 .3 1.6 0 2.6-.1 2.1-.2.9.3 2 .9.4.2.9.1 1.3 0 .1-.1.3-.1.4-.2 0-.1 0-.2.1-.3.2-1.9-.4-3.72-1.6-5.23z" stroke="#000" stroke-opacity="0" fill="#ebbd94"/><path d="M3851.8 2591.5l-2.9-.8c-.3-.1-.6-.1-.8-.2l-1.5-.4c-1-.3-2.4-.5-3.6-1-.1-.1-.3-.2-.5-.3-.7-.4-1.2-1.1-1.2-2.12v-.1c-.1-2.82 0-5.53.1-8.35v-.1c.1-1 .1-2.02.2-3.02v-.1c-.1-.1-.1-.1-.1-.2h-.1c-.1 0-.1-.1-.2-.1-3 .5-6.1.4-9.2.8-2.7.3-5.4.82-8.1 1.62 0-1.7-.1-3.32-.2-5.03 0-.4-.6-.3-.6.1.2 4.52.3 9.05.4 13.58-.6.8-1.5 1.3-2.5 1.8-.2.1-.4.2-.5.2-.5.2-.9.4-1.4.5-.8.3-1.6.5-2.4.72-.4.1-.8.1-1.2.2h-.1l-.4.1c-.6.2-1.5.2-1.7.9-.2.9 1.3 2.72 1.8 3.53.4.8.9 1.7 1.4 2.5 1.4 2.33 2.9 4.54 4.6 6.76 2 2.7 4.2 5.32 6.5 7.84l.2.2c.1 0 .2 0 .2-.1l1.9-1.3.2-.2c1.3-.92 2.5-1.83 3.7-2.73l3.6-2.7c.1-.1.3-.2.4-.3 3.4-2.63 6.7-5.34 9.9-8.06 1.5-1.1 2.9-2.32 4.3-3.52 0-.1 0-.1.1-.2v-.1c0-.1-.1-.1-.1-.2-.1 0-.1-.1-.2-.1z" stroke="#000" stroke-opacity="0" fill="#ffa894"/><path d="M3845.8 2548.54c-.9-1-4.9-1.1-6.1-1.2-2.1-.1-4.1-.1-6.2-.1-4.6 0-9.2.3-13.8 1.3-.1 0-.2.1-.3.1 0 .1-.1.2 0 .4-.1 0-.1 0-.1.1-.1 0-.1 0-.1.1-.4 5.84-.8 16.3.9 22.75 1 3.4 3.8 7.64 6.6 9.75 5.4 4.13 11.6.6 15.2-4.03 4.2-5.43 4.6-12.78 4.7-19.42.1-1.9 0-3.72-.1-5.54 0-1.2.2-3.32-.7-4.22z" stroke="#000" stroke-opacity="0" fill="#ffa894"/><path d="M3840.6 2562.23c.1-.5.1-1.1 0-1.62 0-.3-.1-.6-.3-.8-.5-.5-1.2 0-1.3.6-.3.72-.3 2.33.4 2.73.7.4 1-.1 1.2-.9zM3826.1 2561.92c.2-.5.2-1.1.2-1.6-.1-.3-.2-.6-.3-.8-.5-.62-1.2-.1-1.4.5-.2.7-.3 2.3.4 2.7.6.4 1-.1 1.1-.8z" stroke="#000" stroke-opacity="0" fill="#232c44"/><path d="M3827.4 2583.16c.6.8 1.2 1 2.1 1.1 1.5.1 2.7.9 4.1 1.2 1 .1 1.9-.3 2.8-.3.8-.1 1.5.2 2.3.2 1 0 1.8-.4 2.6-.9 0-2.1 0-4.12.1-6.23-.6.5-3.9 3.72-7 4.63-2.7.8-5.7-.5-7.9-2.02.1.9.4 1.7.9 2.32z" stroke="#000" stroke-opacity="0" fill="#f7886d"/><path d="M3825.9 2555.78c-1.2.1-2.4.3-3.5.9-.2.1-.5.3-.7.4-.2.2-.2.62.1.62 1.7.1 3.4-.2 5.1-.3.6 0 2.2.3 2.5-.5.4-1.42-1.9-1.22-2.6-1.22-.3 0-.6 0-.9.1zM3839.1 2555.9c-.8-.12-3.1-.12-2.6 1.2.3.8 1.9.5 2.5.5 1.7.1 3.4.3 5.1.2.3 0 .3-.4.1-.6-.3-.1-.5-.3-.8-.4-1.1-.6-2.3-.8-3.5-.9h-.8z" stroke="#000" stroke-opacity="0" fill="#fad3b1"/><path d="M3827.1 2572.8s.5 1.6 3.9 2c4.1.5 5.4-1.6 5.4-1.6l-9.3-.4z" stroke="#000" stroke-opacity="0" fill="#fff"/><path d="M3832.4 2562.43c0-.4-.6-.5-.6-.1-.2 1.1-.4 2.3-.8 3.52-.2.7-.6 1.4-.7 2.2-.1 1.52 1 1.62 2.1 2.33.3.2.7-.3.4-.5-.3-.2-.8-.3-1.1-.5-1.3-1.02-.5-2.22-.2-3.33.4-1.2.7-2.4.9-3.62z" stroke="#000" stroke-opacity="0" fill="#f7886d"/><path d="M3848.5 2561.52c-.7-2.2-2.2-2-3.6-.4-.3.3.2.6.5.3.1 0 .2-.2.3-.4-.3 1.6-.7 3.12-1.3 4.63-.3.9-1.1 2.3-.8 3.32.6 1.4 3.2-1 3.8-1.5.6-.6 1.5-1.42 1.6-2.43.2-1-.1-2.5-.5-3.52zM3815.8 2563.43c0 1 .8 1.9 1.4 2.62.5.5 2.9 3.12 3.6 1.8.4-.9-.2-2.4-.4-3.3-.4-1.62-.7-3.13-.9-4.74.1.1.2.3.3.4.2.32.7 0 .5-.3-1.2-1.7-2.7-2.1-3.6.1-.5 1.02-.9 2.43-.9 3.43z" stroke="#000" stroke-opacity="0" fill="#ffa894"/><path d="M3819 2561.72v-1.4c-.1-.4-.7-.4-.6 0 0 .7.2 1.5-.1 2.1-.1.4-.4.6-.6 1-.2.82.4 1.52 1 1.92.3.3.7-.2.3-.4-.3-.2-.5-.5-.6-.9-.1-.4 0-.7.4-.9.1-.2.2-.2.2-.4.2-.3 0-.72 0-1.02zM3846.5 2561.12c-.1.8-.4 1.7-.3 2.52 0 .5 1 1.8-.3 1.9-.4.1-.4.7 0 .6.8 0 1.3-.7 1.2-1.5 0-.4-.2-.6-.3-.9-.1-.3.1-.8.1-1.1l.2-1.42c.1-.4-.5-.4-.6-.1z" stroke="#000" stroke-opacity="0" fill="#f7886d"/><path d="M3802.5 2608.42l4.2-12.78c.8-2.1 1.7-4.63 2.1-7.05h4c.6 2.7.8 6.03 1.7 7.14 0 .1 1.1 1.5 2.5 3.12 1.4 1.6 3.1 3.62 4.2 4.73.8.7 1.5 1.5 2.1 2.4.6.9 1.1 1.92 1.6 2.82 1.1 1.7 2.7 2.82 4 4.33.8.9 1.3 1.9 1.7 3.12.9 2.72.6 2.62 2.8 2.72 1.7-1.32 1.4-2.83 2.7-4.44.7-1.1 1.6-2 2.3-3.12.6-1.1 1.1-2.22 1.9-3.22 1.3-1.8 3.1-3.22 4.5-5.03 1-1.32 2-2.93 2.6-4.54.1-.4.3-.8.5-1.2.2-.7.4-1.62.5-2.63.1-1 .2-2 .4-2.9.1-.72.3-1.42.5-2.13l.1-.1c.3 0 .6 0 .8.1.3 0 .6 0 .9.1.5 0 1.1.1 1.7.1v.2c-.1 1.92.9 4.03 1.5 7.25.2 1.2.4 2.32.4 3.52.2 3.12 4 10.47 4 10.47s-3.4 1.8-5.7 2.92c-6.3 3.32-11.7 4.43-19.6 4.63-12.8.3-21.4-3.74-30.9-10.58z" stroke="#000" stroke-opacity="0" fill="#f2e7e1"/><path d="M3855 2609.53l-1.8-1.5c-.4-.42-.9-.82-1.2-1.32-.4-.4-.6-1.2-1-1.5-.2-.1-.3-.1-.6-.2-1.1-.2-2-.7-2.7-1.6 2.5-1.52 5-3.23 6.5-5.75 0 0 .1-.1.1-.2-.6-3.22-1.5-5.33-1.5-7.25-1.4.5-2.7 1-4 1.72-.2.9-.3 1.9-.4 2.9-.1 1.02-.3 1.93-.5 2.63-.2.4-.3.8-.5 1.2-.6 1.62-1.6 3.23-2.6 4.54-1.3 1.8-3.2 3.2-4.5 5.02-.8 1-1.2 2.1-1.9 3.22-.7 1.1-1.6 2-2.3 3.12-1.2 1.5-.7 2.72-2.2 4.03 3.7-1.02 8.5 1.4 8.2-7.86 1 .7 2.1 1.2 3.2 1.8 1 .5 1.6 1.2 2.4 1.82.6.6 1.3.8 2.1 1.1.9.2 9.7-1.8 5.2-5.93zM3824.2 2608.52c-.4-.9-.8-1.8-1.3-2.62-3.4 1.5-6.7 3.73-8 7.35-.1 0-.1.1-.1.1 0 .1.1.1.1.2l.1.1h.1c2.8.3 5.7 0 8.4-1.1.6-.3 1.1-.6 1.7-.8.7-.2 1.1 0 1.6 0-.9-1-1.9-2.02-2.6-3.23zM3811.5 2604.9c-2.2.1-4.3 1.3-6.1 2.4-1.2.82-1.7 1.22-3.2 1.52 1.9 1.1 3.2 1.9 6.1 3.63 1.1-1.7 3.4-3.63 4.1-5.54.3-.9.3-2-.9-2zM3842.5 2588.8c-.6 1.7-1.3 3.32-2.1 4.93-.4.8-.9 1.6-1.4 2.4-1.2 1.82-2.6 3.53-4.6 4.54-1.4.6-2.6.6-4 .2-1.2-.4-2.5-1-3.5-1.7-2.1-1.42-3.4-3.73-4.6-5.85h-.1c-.5-1.9-.9-3.72-1.2-5.63v-.1c-.2.1-.4.2-.5.2.2 1.8.5 3.6 1 5.32v.1c.2 2.82 1.1 5.44 2.4 8.06.6 1.3 1.3 2.6 2.1 3.82.7 1.1 1.6 2.1 2.4 3.12.5.6.9 1 1.5 1.4.3.2.7.4 1.1.4 1 .2 2 .1 2.8-.4 2.3-1.1 3.3-3.5 4-5.73v-.2l2.1-7.26c1.1-2.4 2.2-4.83 3.2-7.34l-.6-.3zm-5 14.9c0 .1-.1.2-.1.3-.7 2.2-1.8 4.62-4.1 5.53-1 .4-2.2.4-3.2-.1-.1-.1-.2-.1-.3-.2-1-.7-1.7-1.92-2.5-2.82-1.5-1.9-2.6-4.02-3.6-6.23-.9-1.8-1.5-3.63-1.8-5.64.5 1.6 1.2 3.02 2 4.43 1.5 2.62 4.2 6.04 7.3 7.05 3.1.9 5.1-2.6 6.3-4.83.5-1.1 1.1-2.2 1.6-3.32-.5 1.9-1 3.93-1.6 5.84zm.4-4.74c-1.4 2.72-3.6 8.15-7.4 6.04-4-2.22-6.5-6.24-7.9-10.57 1.1 1.9 2.3 3.73 4.1 5.03 1.1.7 2.4 1.2 3.6 1.7 1.3.42 2.4.42 3.6 0 2-.8 3.6-2.4 4.9-4.1l.3-.62c-.4.9-.8 1.72-1.2 2.52z" stroke="#000" stroke-opacity="0" fill="#fff"/><path d="M3821 2575.9c-.6-1.5-1.1-3-1.4-4.62-.2-1.2-.8-3.82-1.2-3.72-.3 0-.6 1.4-.6 2-.1.92-.1 1.93-.1 2.83l-.3 2.7c-.1.9-.5 1.82-.6 2.72 0 .1 0 .1.1.2h.1c.6.1 1.2 0 1.8-.2.7-.1 1.4.1 2-.1.3 0 .6 0 .6-.4.1-.4-.3-1-.4-1.4zM3849.1 2576.82c-.6-1.5-1-3.02-1.3-4.53-.3-1.32-.9-3.94-1.2-3.84-.4 0-.7 1.4-.7 2.02 0 1 0 1.9-.1 2.82 0 1-.1 1.9-.2 2.8-.1.92-.6 1.83-.6 2.73v.1h.1c.6.2 1.2 0 1.9-.1.6-.2 1.3 0 2-.1.3-.1.5-.1.5-.4.1-.5-.2-1.1-.4-1.5z" stroke="#000" stroke-opacity="0" fill="#3b2b2b"/><path d="M3818.8 2566.35v-.1-.1c-.1 0-.1-.1-.1-.1 0-.1-.1-.1-.1-.2-.1 0-.2-.1-.3-.1-.1 0-.2.1-.2.1-.1.1-.2.1-.2.2-.2.4-.3 1.2.1 1.5.1.1.2.1.3.1.1 0 .2 0 .3-.1.1 0 .2-.1.2-.1 0-.1.1-.2.1-.2v-.5c0-.2 0-.3-.1-.4zM3847 2567.46v-.1l-.1-.1v-.1c0-.1-.1-.1-.2-.2 0 0-.1-.1-.2-.1s-.2 0-.3.1c-.1 0-.1.1-.2.2-.2.4-.2 1.2.2 1.5.1.1.2.1.3.1.1 0 .2 0 .3-.1.1 0 .1-.1.2-.1 0-.1 0-.2.1-.3v-.4c-.1-.2-.1-.3-.1-.4z" stroke="#000" stroke-opacity="0" fill="#fff"/><path d="M3848.7 2552.36c-.2-1.6-.3-3.32-.7-4.83-.1-.5-.2-.8-.7-1.1-.9-.5-2.7-.5-3.8-.8-1.4-.2-2.8-.6-4.2-.72-1.4-.2-2.8-.1-4.2-.1-1.7 0-3.4-.2-5.1-.4-2.5-.2-5.2-.5-7.6.4-1.8.72-3.5 2.13-4.2 4.14-.7 2.22-.4 5.03-.4 7.45 0 0-.1 0-.1.1l-.1.1s0 .1.1.1v.1l.1.1v.2c0 .1 0 .1.1.1 0 0 0 .1.1.1h.1c.6.9 1 1.9 1.1 2.9 0 .1 0 .2.1.2 0 .1.1.1.2.1h.1c.1-.1.2-.1.2-.2.8-1.9.2-3.8.4-5.72.2-1.2.6-2.32.7-3.53.1-.7.1-1.5.3-2.2.4.2.8.4 1.3.6 1.4.4 2.5 0 3.9 0 1.1.1 1.8.7 2.9.5 1.3-.4 2.5-.8 3.5-1.7.4.2.8.4 1.1.5 1.9.7 3.9.4 5.1 2.3.6 1.1 1.2 2.22 2.5 2.62.6.2 1.3.4 1.9.5 1 1.82 2.6 3.43 2.5 5.64-.1 1.42-.2 2.53.2 3.93.4 1.4 1.1 2.82 1.3 4.23-.1.2.6 1.9.6 1.5 0-.4 1.2-.3 1.2-.8.8-2.1 1.2-2.9 1.1-5.33-.1-.7-1.2-3.52-1.3-4.22-.1-.9.1-1.8.1-2.7.1-1.32-.2-2.73-.4-4.04z" stroke="#000" stroke-opacity="0" fill="#fad3b1"/><path d="M3820.3 2545.42c-.1-.5-.5-.9-.6-1.4-.2-.6 0-1.22.2-1.82.1-.4-.5-.5-.6-.1-.3 1-.4 1.8 0 2.72.3.6.5 1.1.5 1.8-.1.6-.1 1 0 1.62 0 .4.6.3.6-.1-.2-.9.2-1.82-.1-2.72zM3846.8 2550.25c-.9-1.3-2.2-1.6-3.6-2.22-1-.3-1.7-.9-2.3-1.7-.4-.5-.7-.9-1.2-1.2-.7-.42-1.5-.62-2.3-.62-.8-.1-1.6 0-2.3.32-.4.1-.2.7.2.5.9-.3 1.8-.4 2.8-.1.9.2 1.7.7 2.3 1.4.5.7.9 1.3 1.7 1.72 1 .4 2 .6 3 1.1 1.7 1.1 2 3.12 1.8 5.04-.1.4.5.5.6.1.1-1.5.1-3.02-.7-4.33zM3848.6 2545.22c-.3-1-1-1.9-2-2.52-.9-.6-2-.9-3.1-.8-.4 0-.3.6.1.6 1 0 1.9.2 2.7.7.8.6 1.4 1.4 1.8 2.32.1.3.7.1.5-.3z" stroke="#000" stroke-opacity="0" fill="#ebbd94"/><path d="M3833.2 2618.38c27.6 0 50-22.44 50-50.02 0-27.67-22.4-50-50-50s-50 22.33-50 50c0 27.58 22.4 50.02 50 50.02z" stroke="#6c6e83" fill-opacity="0"/><path d="M4155.87 2550.27a6 6 0 0 1 6-6h243.5a6 6 0 0 1 6 6v38.3a6 6 0 0 1-6 6h-243.5a6 6 0 0 1-6-6z" stroke="#6c6e83" fill="#fff"/><path d="M4185.54 2557.92h206.83v23h-206.83z" fill="none"/><use xlink:href="#k" transform="matrix(1,0,0,1,4185.538775106423,2557.9186453251987) translate(0 17.880208333333336)"/><use xlink:href="#l" transform="matrix(1,0,0,1,4185.538775106423,2557.9186453251987) translate(69.08854166666667 17.880208333333336)"/><use xlink:href="#m" transform="matrix(1,0,0,1,4185.538775106423,2557.9186453251987) translate(99.97786458333334 17.880208333333336)"/><path d="M4412.62 2569.4h37.14" stroke="#6c6e83" stroke-width="1.5" fill="none"/><path d="M4412.64 2570.16h-.77v-1.5h.77z" stroke="#6c6e83" stroke-width=".05" fill="#6c6e83"/><path d="M4464.77 2569.4l-14.26 4.65v-9.27z" stroke="#6c6e83" stroke-width="1.5" fill="#6c6e83"/><path d="M4467.7 2550.27a6 6 0 0 1 6-6H4594a6 6 0 0 1 6 6v38.3a6 6 0 0 1-6 6h-120.3a6 6 0 0 1-6-6z" stroke="#6c6e83" fill="#fff"/><path d="M4493.7 2557.92h89.78v22.24h-89.77z" fill="none"/><use xlink:href="#n" transform="matrix(1,0,0,1,4493.704808415256,2557.918645325428) translate(0 17.880208333333336)"/><use xlink:href="#o" transform="matrix(1,0,0,1,4493.704808415256,2557.918645325428) translate(37.852864583333336 17.880208333333336)"/><path d="M4601.25 2569.4h38.8" stroke="#6c6e83" stroke-width="1.5" fill="none"/><path d="M4601.27 2570.16h-.77v-1.5h.77z" stroke="#6c6e83" stroke-width=".05" fill="#6c6e83"/><path d="M4655.07 2569.4l-14.26 4.65v-9.27z" stroke="#6c6e83" stroke-width="1.5" fill="#6c6e83"/><path d="M4658 2550.27a6 6 0 0 1 6-6h142.13a6 6 0 0 1 6 6v38.3a6 6 0 0 1-6 6H4664a6 6 0 0 1-6-6z" stroke="#6c6e83" fill="#fff"/><path d="M4685.97 2557.92h118.3v20.2h-118.3z" fill="none"/><use xlink:href="#p" transform="matrix(1,0,0,1,4685.965130808036,2557.9186453254733) translate(0 17.317708333333336)"/><use xlink:href="#q" transform="matrix(1,0,0,1,4685.965130808036,2557.9186453254733) translate(61.35026041666667 17.317708333333336)"/><path d="M4813.38 2568.6h41.34" stroke="#6c6e83" stroke-width="1.5" fill="none"/><path d="M4813.4 2569.34h-.77v-1.5h.77z" stroke="#6c6e83" stroke-width=".05" fill="#6c6e83"/><path d="M4869.74 2568.6l-14.27 4.62v-9.27z" stroke="#6c6e83" stroke-width="1.5" fill="#6c6e83"/><path d="M4872.66 2549.44a6 6 0 0 1 6-6h160.88a6 6 0 0 1 6 6v38.3a6 6 0 0 1-6 6h-160.88a6 6 0 0 1-6-6z" stroke="#6c6e83" fill="#fff"/><path d="M4900.57 2557.1h126.52v23.06h-126.53z" fill="none"/><use xlink:href="#r" transform="matrix(1,0,0,1,4900.56874591451,2557.089020748744) translate(0 18.380208333333336)"/><use xlink:href="#s" transform="matrix(1,0,0,1,4900.56874591451,2557.089020748744) translate(85.52213541666667 18.380208333333336)"/><path d="M5046.8 2568.6h41.32" stroke="#6c6e83" stroke-width="1.5" fill="none"/><path d="M5046.8 2569.34h-.76v-1.5h.77z" stroke="#6c6e83" stroke-width=".05" fill="#6c6e83"/><path d="M5103.14 2568.6l-14.27 4.62v-9.27z" stroke="#6c6e83" stroke-width="1.5" fill="#6c6e83"/><path d="M5106.07 2549.44a6 6 0 0 1 6-6h137a6 6 0 0 1 6 6v38.3a6 6 0 0 1-6 6h-137a6 6 0 0 1-6-6z" stroke="#6c6e83" fill="#fff"/><path d="M5135.03 2557.1h119.04v22.98h-119.04z" fill="none"/><use xlink:href="#t" transform="matrix(1,0,0,1,5135.032600981468,2557.0890207487446) translate(0 17.880208333333336)"/><use xlink:href="#o" transform="matrix(1,0,0,1,5135.032600981468,2557.0890207487446) translate(49.55598958333334 17.880208333333336)"/><path d="M4155.87 2817.87a6 6 0 0 1 6-6h232.3a6 6 0 0 1 6 6v38.3a6 6 0 0 1-6 6h-232.3a6 6 0 0 1-6-6z" stroke="#6c6e83" fill="#fff"/><path d="M4198.4 2825.52h197.77v23H4198.4z" fill="none"/><use xlink:href="#u" transform="matrix(1,0,0,1,4198.404600496378,2825.5184323390586) translate(0 17.880208333333336)"/><use xlink:href="#v" transform="matrix(1,0,0,1,4198.404600496378,2825.5184323390586) translate(71.88671875 17.880208333333336)"/><use xlink:href="#w" transform="matrix(1,0,0,1,4198.404600496378,2825.5184323390586) translate(125.2890625 17.880208333333336)"/><path d="M4460.16 2817.87a6 6 0 0 1 6-6h185.77a6 6 0 0 1 6 6v38.3a6 6 0 0 1-6 6h-185.77a6 6 0 0 1-6-6z" stroke="#6c6e83" fill="#fff"/><path d="M4500.8 2825.52h134.48v23H4500.8z" fill="none"/><use xlink:href="#u" transform="matrix(1,0,0,1,4500.808451017898,2825.518432339104) translate(0 17.880208333333336)"/><use xlink:href="#o" transform="matrix(1,0,0,1,4500.808451017898,2825.518432339104) translate(71.88671875 17.880208333333336)"/><path d="M4430.16 2859.7v-47.08M4430.16 2859.68v.77M4430.16 2812.64v-.77" stroke="#6c6e83" stroke-width="1.5" fill="none"/><path d="M4718.48 2817.87a6 6 0 0 1 6-6h185.76a6 6 0 0 1 6 6v38.3a6 6 0 0 1-6 6h-185.76a6 6 0 0 1-6-6z" stroke="#6c6e83" fill="#fff"/><path d="M4750.12 2825.52h134.48v23h-134.48z" fill="none"/><g><use xlink:href="#u" transform="matrix(1,0,0,1,4750.123053841136,2825.518432339059) translate(0 17.880208333333336)"/><use xlink:href="#x" transform="matrix(1,0,0,1,4750.123053841136,2825.518432339059) translate(71.88671875 17.880208333333336)"/></g><path d="M4687.48 2859.7v-47.08M4687.48 2859.68v.77M4687.48 2812.64v-.77" stroke="#6c6e83" stroke-width="1.5" fill="none"/><path d="M4975 2818.03a6 6 0 0 1 6-6h185.76a6 6 0 0 1 6 6v38.3a6 6 0 0 1-6 6H4981a6 6 0 0 1-6-6z" stroke="#6c6e83" fill="#fff"/><path d="M5021.64 2825.68h134.48v23h-134.48z" fill="none"/><g><use xlink:href="#u" transform="matrix(1,0,0,1,5021.643777163624,2825.6828571293395) translate(0 17.880208333333336)"/><use xlink:href="#w" transform="matrix(1,0,0,1,5021.643777163624,2825.6828571293395) translate(71.88671875 17.880208333333336)"/></g><path d="M4946 2859.87v-47.1M4946 2859.85v.77M4946 2812.8v-.77" stroke="#6c6e83" stroke-width="1.5" fill="none"/><defs><path fill="#172b4d" d="M1160-420C1159-145 963 0 674 0H169v-1456h476c294-1 476 112 476 388 0 153-99 253-216 302 146 38 255 167 255 346zM678-157c171 2 289-95 289-261 0-175-95-263-286-263H361v524h317zm250-912c-2-172-104-229-283-229H361v463h290c157 3 278-84 277-234" id="y"/><path fill="#172b4d" d="M491 20c-241-1-355-148-355-398v-704h185v699c0 164 67 246 200 246 141 0 235-53 282-158v-787h185V0H812l-4-107C736-22 630 20 491 20" id="z"/><path fill="#172b4d" d="M341 0H156v-1082h185V0zm-91-1264c-68 0-108-42-109-105 0-62 41-107 109-107s110 44 110 107-42 105-110 105" id="A"/><path fill="#172b4d" d="M341 0H156v-1536h185V0" id="B"/><path fill="#172b4d" d="M520 20C244 20 95-247 95-550c0-298 151-550 427-552 127 0 227 43 301 130v-564h185V0H838l-9-116C755-25 652 20 520 20zm48-965c-210 0-288 177-288 416 0 218 87 392 286 392 117 0 203-53 257-158v-497c-55-102-140-153-255-153" id="C"/><g id="a"><use transform="matrix(0.009114583333333334,0,0,0.009114583333333334,0,0)" xlink:href="#y"/><use transform="matrix(0.009114583333333334,0,0,0.009114583333333334,11.62109375,0)" xlink:href="#z"/><use transform="matrix(0.009114583333333334,0,0,0.009114583333333334,21.911458333333336,0)" xlink:href="#A"/><use transform="matrix(0.009114583333333334,0,0,0.009114583333333334,26.44140625,0)" xlink:href="#B"/><use transform="matrix(0.009114583333333334,0,0,0.009114583333333334,30.97135416666667,0)" xlink:href="#C"/></g><path fill="#172b4d" d="M561-1102c238-4 403 126 403 351v498c0 99 13 178 38 237V0H808c-11-21-19-59-26-114C696-25 593 20 474 20c-199 0-368-130-365-320 4-251 214-359 490-356h180v-85c-1-135-86-212-229-212-115 0-232 67-233 171H131c20-205 206-316 430-320zM294-326c0 117 90 185 207 185 122 0 239-75 278-162v-222H634c-227 0-340 66-340 199" id="D"/><path fill="#172b4d" d="M632-1102c291 0 422 251 422 573 0 297-141 548-419 549-131 0-235-42-310-125v521H140v-1498h169l9 120c75-93 180-140 314-140zm-53 971c207 0 290-180 290-419 0-218-92-395-292-395-112 0-196 50-252 149v517c55 99 140 148 254 148" id="E"/><path fill="#172b4d" d="M277-555c0 244 77 420 297 424 127 2 249-93 255-210h175C980-127 805 20 574 20 258 20 81-222 92-562c11-319 164-533 481-540 237-5 426 165 431 392H829c-7-133-115-242-256-240-209 4-296 166-296 395" id="F"/><path fill="#172b4d" d="M456 20C285 20 205-92 206-268v-671H9v-143h197v-262h185v262h202v143H391v671c-9 125 92 149 207 118V0c-49 13-96 20-142 20" id="G"/><path fill="#172b4d" d="M584 20C278 26 81-227 91-551c10-320 175-545 491-551 308-5 503 247 494 573-9 322-175 543-492 549zm-2-970c-208 0-305 185-305 421 0 216 106 398 307 398 211 0 307-186 307-420 0-214-109-399-309-399" id="H"/><path fill="#172b4d" d="M589-945c-131 0-219 81-264 174V0H140v-1082h175l6 136c83-104 191-156 324-156 229 0 346 129 346 387V0H806v-716c-2-153-65-229-217-229" id="I"/><path fill="#172b4d" d="M538-131c121 0 232-49 232-156 0-50-20-88-56-117-73-60-334-92-420-143-92-55-162-110-162-238 0-190 192-317 400-317 223 0 414 129 413 338H759c0-108-110-186-227-186-119 0-215 53-215 159 0 45 18 78 53 101 76 52 331 90 416 139 98 57 169 115 169 251C955-92 760 20 538 20c-176 0-314-68-386-174-38-55-57-115-57-179h185c6 129 116 202 258 202" id="J"/><g id="b"><use transform="matrix(0.009114583333333334,0,0,0.009114583333333334,0,0)" xlink:href="#D"/><use transform="matrix(0.009114583333333334,0,0,0.009114583333333334,10.153645833333334,0)" xlink:href="#E"/><use transform="matrix(0.009114583333333334,0,0,0.009114583333333334,20.626302083333336,0)" xlink:href="#E"/><use transform="matrix(0.009114583333333334,0,0,0.009114583333333334,31.098958333333336,0)" xlink:href="#B"/><use transform="matrix(0.009114583333333334,0,0,0.009114583333333334,35.62890625,0)" xlink:href="#A"/><use transform="matrix(0.009114583333333334,0,0,0.009114583333333334,40.158854166666664,0)" xlink:href="#F"/><use transform="matrix(0.009114583333333334,0,0,0.009114583333333334,49.9296875,0)" xlink:href="#D"/><use transform="matrix(0.009114583333333334,0,0,0.009114583333333334,60.083333333333336,0)" xlink:href="#G"/><use transform="matrix(0.009114583333333334,0,0,0.009114583333333334,66.18098958333334,0)" xlink:href="#A"/><use transform="matrix(0.009114583333333334,0,0,0.009114583333333334,70.71093750000001,0)" xlink:href="#H"/><use transform="matrix(0.009114583333333334,0,0,0.009114583333333334,81.35677083333334,0)" xlink:href="#I"/><use transform="matrix(0.009114583333333334,0,0,0.009114583333333334,91.65625000000003,0)" xlink:href="#J"/></g><path fill="#172b4d" d="M521 20C240 20 96-239 96-550c0-303 147-552 427-552 132 0 235 47 309 140l9-120h169V-26c4 277-183 454-459 452-165-1-334-81-400-187l96-111c79 98 176 147 291 147 180 1 288-109 286-290v-93C750-23 649 20 521 20zm48-965c-209 0-287 178-287 416 0 217 86 392 285 392 117 0 202-53 257-159v-494c-57-103-142-155-255-155" id="K"/><g id="c"><use transform="matrix(0.009114583333333334,0,0,0.009114583333333334,0,0)" xlink:href="#z"/><use transform="matrix(0.009114583333333334,0,0,0.009114583333333334,10.290364583333334,0)" xlink:href="#J"/><use transform="matrix(0.009114583333333334,0,0,0.009114583333333334,19.915364583333336,0)" xlink:href="#A"/><use transform="matrix(0.009114583333333334,0,0,0.009114583333333334,24.4453125,0)" xlink:href="#I"/><use transform="matrix(0.009114583333333334,0,0,0.009114583333333334,34.74479166666667,0)" xlink:href="#K"/></g><path fill="#172b4d" d="M375 0H183v-1456h192V0" id="L"/><path fill="#172b4d" d="M599-131c141 0 220-65 285-146l113 88C906-50 770 20 589 20 281 21 93-214 93-545c0-223 93-397 233-485 74-48 154-72 240-72 300 2 449 218 445 537v77H278c0 197 129 357 321 357zm227-509c-3-180-88-310-260-310-170 0-264 140-282 310h542" id="M"/><path fill="#172b4d" d="M494-271l252-811h198L509 167C425 381 299 474 84 421V271c167 16 242-37 283-173l41-110L22-1082h202" id="N"/><g id="d"><use transform="matrix(0.009114583333333334,0,0,0.009114583333333334,0,0)" xlink:href="#L"/><use transform="matrix(0.009114583333333334,0,0,0.009114583333333334,5.076822916666667,0)" xlink:href="#C"/><use transform="matrix(0.009114583333333334,0,0,0.009114583333333334,15.604166666666668,0)" xlink:href="#M"/><use transform="matrix(0.009114583333333334,0,0,0.009114583333333334,25.493489583333336,0)" xlink:href="#I"/><use transform="matrix(0.009114583333333334,0,0,0.009114583333333334,35.79296875,0)" xlink:href="#G"/><use transform="matrix(0.009114583333333334,0,0,0.009114583333333334,41.890625,0)" xlink:href="#A"/><use transform="matrix(0.009114583333333334,0,0,0.009114583333333334,46.420572916666664,0)" xlink:href="#G"/><use transform="matrix(0.009114583333333334,0,0,0.009114583333333334,52.518229166666664,0)" xlink:href="#N"/></g><path fill="#172b4d" d="M973-380H363L226 0H28l556-1456h168L1309 0h-197zM421-538h495l-248-681" id="O"/><path fill="#172b4d" d="M1240-945c-141 0-250 95-250 227V0H804v-709c0-157-77-236-231-236-121 0-204 52-249 155V0H139v-1082h175l5 120c79-93 186-140 321-140 151 0 254 58 309 174 69-98 181-174 345-174 237 0 362 126 362 377V0h-185v-714c-2-159-67-231-231-231" id="P"/><path fill="#172b4d" d="M663-916c-163-27-288 18-338 148V0H140v-1082h180l3 125c61-97 147-145 258-145 36 0 63 5 82 14v172" id="Q"/><g id="e"><use transform="matrix(0.009114583333333334,0,0,0.009114583333333334,0,0)" xlink:href="#O"/><use transform="matrix(0.009114583333333334,0,0,0.009114583333333334,12.177083333333334,0)" xlink:href="#C"/><use transform="matrix(0.009114583333333334,0,0,0.009114583333333334,22.704427083333336,0)" xlink:href="#P"/><use transform="matrix(0.009114583333333334,0,0,0.009114583333333334,39.06510416666667,0)" xlink:href="#A"/><use transform="matrix(0.009114583333333334,0,0,0.009114583333333334,43.595052083333336,0)" xlink:href="#I"/><use transform="matrix(0.009114583333333334,0,0,0.009114583333333334,53.89453125,0)" xlink:href="#A"/><use transform="matrix(0.009114583333333334,0,0,0.009114583333333334,58.424479166666664,0)" xlink:href="#J"/><use transform="matrix(0.009114583333333334,0,0,0.009114583333333334,68.04947916666666,0)" xlink:href="#G"/><use transform="matrix(0.009114583333333334,0,0,0.009114583333333334,74.14713541666666,0)" xlink:href="#Q"/><use transform="matrix(0.009114583333333334,0,0,0.009114583333333334,80.09895833333333,0)" xlink:href="#D"/><use transform="matrix(0.009114583333333334,0,0,0.009114583333333334,90.25260416666666,0)" xlink:href="#G"/><use transform="matrix(0.009114583333333334,0,0,0.009114583333333334,96.35026041666666,0)" xlink:href="#A"/><use transform="matrix(0.009114583333333334,0,0,0.009114583333333334,100.88020833333333,0)" xlink:href="#H"/><use transform="matrix(0.009114583333333334,0,0,0.009114583333333334,111.52604166666666,0)" xlink:href="#I"/></g><path fill="#172b4d" d="M1216-1011c-1 297-202 441-512 441H361V0H169v-1456h537c297-6 510 164 510 445zm-192 2c1-178-126-288-307-289H361v571h345c196 1 318-92 318-282" id="R"/><g id="f"><use transform="matrix(0.009114583333333334,0,0,0.009114583333333334,0,0)" xlink:href="#O"/><use transform="matrix(0.009114583333333334,0,0,0.009114583333333334,12.177083333333334,0)" xlink:href="#R"/><use transform="matrix(0.009114583333333334,0,0,0.009114583333333334,23.953125,0)" xlink:href="#L"/><use transform="matrix(0.009114583333333334,0,0,0.009114583333333334,29.029947916666668,0)" xlink:href="#J"/></g><g id="g"><use transform="matrix(0.009114583333333334,0,0,0.009114583333333334,0,0)" xlink:href="#O"/><use transform="matrix(0.009114583333333334,0,0,0.009114583333333334,12.177083333333334,0)" xlink:href="#C"/><use transform="matrix(0.009114583333333334,0,0,0.009114583333333334,22.704427083333336,0)" xlink:href="#P"/><use transform="matrix(0.009114583333333334,0,0,0.009114583333333334,39.06510416666667,0)" xlink:href="#A"/><use transform="matrix(0.009114583333333334,0,0,0.009114583333333334,43.595052083333336,0)" xlink:href="#I"/></g><path fill="#172b4d" d="M1222-777c17 480-206 763-650 777H169v-1456h411c408 9 627 269 642 679zm-190 4c3-312-149-522-447-525H361v1141h202c308 0 473-209 469-531v-85" id="S"/><path fill="#172b4d" d="M497-251l268-831h189L566 0H425L33-1082h189" id="T"/><g id="h"><use transform="matrix(0.009114583333333334,0,0,0.009114583333333334,0,0)" xlink:href="#S"/><use transform="matrix(0.009114583333333334,0,0,0.009114583333333334,12.240885416666668,0)" xlink:href="#M"/><use transform="matrix(0.009114583333333334,0,0,0.009114583333333334,22.01171875,0)" xlink:href="#T"/><use transform="matrix(0.009114583333333334,0,0,0.009114583333333334,30.934895833333336,0)" xlink:href="#M"/><use transform="matrix(0.009114583333333334,0,0,0.009114583333333334,40.82421875,0)" xlink:href="#B"/><use transform="matrix(0.009114583333333334,0,0,0.009114583333333334,45.354166666666664,0)" xlink:href="#H"/><use transform="matrix(0.009114583333333334,0,0,0.009114583333333334,56,0)" xlink:href="#E"/><use transform="matrix(0.009114583333333334,0,0,0.009114583333333334,66.47265625,0)" xlink:href="#M"/><use transform="matrix(0.009114583333333334,0,0,0.009114583333333334,76.36197916666667,0)" xlink:href="#Q"/></g><path fill="#2f3564" d="M1216-1011c-1 297-202 441-512 441H361V0H169v-1456h537c297-6 510 164 510 445zm-192 2c1-178-126-288-307-289H361v571h345c196 1 318-92 318-282" id="U"/><path fill="#2f3564" d="M341 0H156v-1536h185V0" id="V"/><path fill="#2f3564" d="M561-1102c238-4 403 126 403 351v498c0 99 13 178 38 237V0H808c-11-21-19-59-26-114C696-25 593 20 474 20c-199 0-368-130-365-320 4-251 214-359 490-356h180v-85c-1-135-86-212-229-212-115 0-232 67-233 171H131c20-205 206-316 430-320zM294-326c0 117 90 185 207 185 122 0 239-75 278-162v-222H634c-227 0-340 66-340 199" id="W"/><path fill="#2f3564" d="M456 20C285 20 205-92 206-268v-671H9v-143h197v-262h185v262h202v143H391v671c-9 125 92 149 207 118V0c-49 13-96 20-142 20" id="X"/><path fill="#2f3564" d="M704-1390c-164-38-297 28-288 194v114h231v143H416V0H231v-939H60v-143h171v-111c-12-274 208-416 483-347" id="Y"/><path fill="#2f3564" d="M584 20C278 26 81-227 91-551c10-320 175-545 491-551 308-5 503 247 494 573-9 322-175 543-492 549zm-2-970c-208 0-305 185-305 421 0 216 106 398 307 398 211 0 307-186 307-420 0-214-109-399-309-399" id="Z"/><path fill="#2f3564" d="M663-916c-163-27-288 18-338 148V0H140v-1082h180l3 125c61-97 147-145 258-145 36 0 63 5 82 14v172" id="aa"/><path fill="#2f3564" d="M1240-945c-141 0-250 95-250 227V0H804v-709c0-157-77-236-231-236-121 0-204 52-249 155V0H139v-1082h175l5 120c79-93 186-140 321-140 151 0 254 58 309 174 69-98 181-174 345-174 237 0 362 126 362 377V0h-185v-714c-2-159-67-231-231-231" id="ab"/><g id="i"><use transform="matrix(0.008680555555555554,0,0,0.008680555555555554,0,0)" xlink:href="#U"/><use transform="matrix(0.008680555555555554,0,0,0.008680555555555554,11.215277777777777,0)" xlink:href="#V"/><use transform="matrix(0.008680555555555554,0,0,0.008680555555555554,15.52951388888889,0)" xlink:href="#W"/><use transform="matrix(0.008680555555555554,0,0,0.008680555555555554,25.199652777777775,0)" xlink:href="#X"/><use transform="matrix(0.008680555555555554,0,0,0.008680555555555554,31.006944444444443,0)" xlink:href="#Y"/><use transform="matrix(0.008680555555555554,0,0,0.008680555555555554,37.17881944444445,0)" xlink:href="#Z"/><use transform="matrix(0.008680555555555554,0,0,0.008680555555555554,47.31770833333333,0)" xlink:href="#aa"/><use transform="matrix(0.008680555555555554,0,0,0.008680555555555554,53.33333333333333,0)" xlink:href="#ab"/></g><path fill="#2f3564" d="M520 20C244 20 95-247 95-550c0-298 151-550 427-552 127 0 227 43 301 130v-564h185V0H838l-9-116C755-25 652 20 520 20zm48-965c-210 0-288 177-288 416 0 218 87 392 286 392 117 0 203-53 257-158v-497c-55-102-140-153-255-153" id="ac"/><path fill="#2f3564" d="M341 0H156v-1082h185V0zm-91-1264c-68 0-108-42-109-105 0-62 41-107 109-107s110 44 110 107-42 105-110 105" id="ad"/><path fill="#2f3564" d="M589-945c-131 0-219 81-264 174V0H140v-1082h175l6 136c83-104 191-156 324-156 229 0 346 129 346 387V0H806v-716c-2-153-65-229-217-229" id="ae"/><g id="j"><use transform="matrix(0.008680555555555554,0,0,0.008680555555555554,0,0)" xlink:href="#W"/><use transform="matrix(0.008680555555555554,0,0,0.008680555555555554,9.670138888888888,0)" xlink:href="#ac"/><use transform="matrix(0.008680555555555554,0,0,0.008680555555555554,19.69618055555555,0)" xlink:href="#ab"/><use transform="matrix(0.008680555555555554,0,0,0.008680555555555554,35.27777777777777,0)" xlink:href="#ad"/><use transform="matrix(0.008680555555555554,0,0,0.008680555555555554,39.592013888888886,0)" xlink:href="#ae"/></g><g id="k"><use transform="matrix(0.009114583333333334,0,0,0.009114583333333334,0,0)" xlink:href="#R"/><use transform="matrix(0.009114583333333334,0,0,0.009114583333333334,11.776041666666668,0)" xlink:href="#Q"/><use transform="matrix(0.009114583333333334,0,0,0.009114583333333334,17.919270833333336,0)" xlink:href="#M"/><use transform="matrix(0.009114583333333334,0,0,0.009114583333333334,27.80859375,0)" xlink:href="#E"/><use transform="matrix(0.009114583333333334,0,0,0.009114583333333334,38.28125,0)" xlink:href="#D"/><use transform="matrix(0.009114583333333334,0,0,0.009114583333333334,48.434895833333336,0)" xlink:href="#Q"/><use transform="matrix(0.009114583333333334,0,0,0.009114583333333334,54.578125,0)" xlink:href="#M"/></g><path fill="#172b4d" d="M589-945c-131 0-219 81-264 174V0H140v-1536h185v585c82-101 189-151 320-151 229 0 346 129 346 387V0H806v-716c-2-153-65-229-217-229" id="af"/><g id="l"><use transform="matrix(0.009114583333333334,0,0,0.009114583333333334,0,0)" xlink:href="#G"/><use transform="matrix(0.009114583333333334,0,0,0.009114583333333334,6.09765625,0)" xlink:href="#af"/><use transform="matrix(0.009114583333333334,0,0,0.009114583333333334,16.37890625,0)" xlink:href="#M"/></g><g id="m"><use transform="matrix(0.009114583333333334,0,0,0.009114583333333334,0,0)" xlink:href="#M"/><use transform="matrix(0.009114583333333334,0,0,0.009114583333333334,9.889322916666668,0)" xlink:href="#I"/><use transform="matrix(0.009114583333333334,0,0,0.009114583333333334,20.188802083333336,0)" xlink:href="#T"/><use transform="matrix(0.009114583333333334,0,0,0.009114583333333334,29.230468750000004,0)" xlink:href="#A"/><use transform="matrix(0.009114583333333334,0,0,0.009114583333333334,33.76041666666667,0)" xlink:href="#Q"/><use transform="matrix(0.009114583333333334,0,0,0.009114583333333334,39.894531250000014,0)" xlink:href="#H"/><use transform="matrix(0.009114583333333334,0,0,0.009114583333333334,50.54036458333334,0)" xlink:href="#I"/><use transform="matrix(0.009114583333333334,0,0,0.009114583333333334,60.839843750000014,0)" xlink:href="#P"/><use transform="matrix(0.009114583333333334,0,0,0.009114583333333334,77.20052083333334,0)" xlink:href="#M"/><use transform="matrix(0.009114583333333334,0,0,0.009114583333333334,87.08984375000003,0)" xlink:href="#I"/><use transform="matrix(0.009114583333333334,0,0,0.009114583333333334,97.38932291666669,0)" xlink:href="#G"/></g><g id="n"><use transform="matrix(0.009114583333333334,0,0,0.009114583333333334,0,0)" xlink:href="#O"/><use transform="matrix(0.009114583333333334,0,0,0.009114583333333334,12.177083333333334,0)" xlink:href="#C"/><use transform="matrix(0.009114583333333334,0,0,0.009114583333333334,22.704427083333336,0)" xlink:href="#C"/></g><g id="o"><use transform="matrix(0.009114583333333334,0,0,0.009114583333333334,0,0)" xlink:href="#z"/><use transform="matrix(0.009114583333333334,0,0,0.009114583333333334,10.290364583333334,0)" xlink:href="#J"/><use transform="matrix(0.009114583333333334,0,0,0.009114583333333334,19.915364583333336,0)" xlink:href="#M"/><use transform="matrix(0.009114583333333334,0,0,0.009114583333333334,29.804687500000004,0)" xlink:href="#Q"/><use transform="matrix(0.009114583333333334,0,0,0.009114583333333334,36.12109375,0)" xlink:href="#J"/></g><g id="p"><use transform="matrix(0.009114583333333334,0,0,0.009114583333333334,0,0)" xlink:href="#O"/><use transform="matrix(0.009114583333333334,0,0,0.009114583333333334,12.177083333333334,0)" xlink:href="#J"/><use transform="matrix(0.009114583333333334,0,0,0.009114583333333334,21.802083333333336,0)" xlink:href="#J"/><use transform="matrix(0.009114583333333334,0,0,0.009114583333333334,31.427083333333336,0)" xlink:href="#A"/><use transform="matrix(0.009114583333333334,0,0,0.009114583333333334,35.95703125,0)" xlink:href="#K"/><use transform="matrix(0.009114583333333334,0,0,0.009114583333333334,46.4296875,0)" xlink:href="#I"/></g><g id="q"><use transform="matrix(0.009114583333333334,0,0,0.009114583333333334,0,0)" xlink:href="#Q"/><use transform="matrix(0.009114583333333334,0,0,0.009114583333333334,6.134114583333333,0)" xlink:href="#H"/><use transform="matrix(0.009114583333333334,0,0,0.009114583333333334,16.779947916666668,0)" xlink:href="#B"/><use transform="matrix(0.009114583333333334,0,0,0.009114583333333334,21.309895833333336,0)" xlink:href="#M"/><use transform="matrix(0.009114583333333334,0,0,0.009114583333333334,31.199218750000004,0)" xlink:href="#J"/></g><path fill="#172b4d" d="M688-137c238 0 323-102 359-325h193c-32 297-228 482-552 482-361 0-569-299-569-680 0-197 8-360 73-497 88-186 257-317 513-319 316-2 509 195 535 488h-193c-31-212-118-330-342-330-272 0-397 224-393 523v141c-3 282 115 517 376 517" id="ag"/><path fill="#172b4d" d="M704-1390c-164-38-297 28-288 194v114h231v143H416V0H231v-939H60v-143h171v-111c-12-274 208-416 483-347" id="ah"/><g id="r"><use transform="matrix(0.009114583333333334,0,0,0.009114583333333334,0,0)" xlink:href="#ag"/><use transform="matrix(0.009114583333333334,0,0,0.009114583333333334,12.149739583333334,0)" xlink:href="#H"/><use transform="matrix(0.009114583333333334,0,0,0.009114583333333334,22.795572916666668,0)" xlink:href="#I"/><use transform="matrix(0.009114583333333334,0,0,0.009114583333333334,33.095052083333336,0)" xlink:href="#ah"/><use transform="matrix(0.009114583333333334,0,0,0.009114583333333334,39.575520833333336,0)" xlink:href="#A"/><use transform="matrix(0.009114583333333334,0,0,0.009114583333333334,44.10546875,0)" xlink:href="#K"/><use transform="matrix(0.009114583333333334,0,0,0.009114583333333334,54.578125,0)" xlink:href="#z"/><use transform="matrix(0.009114583333333334,0,0,0.009114583333333334,64.86848958333333,0)" xlink:href="#Q"/><use transform="matrix(0.009114583333333334,0,0,0.009114583333333334,71.01171875,0)" xlink:href="#M"/></g><path fill="#172b4d" d="M417-1456L893-268l476-1188h249V0h-192c-4-403 4-794 18-1179L966 0H819L342-1176c15 384 23 773 19 1176H169v-1456h248" id="ai"/><path fill="#172b4d" d="M972-643H361V0H169v-1456h902v158H361v498h611v157" id="aj"/><g id="s"><use transform="matrix(0.009114583333333334,0,0,0.009114583333333334,0,0)" xlink:href="#ai"/><use transform="matrix(0.009114583333333334,0,0,0.009114583333333334,16.296875,0)" xlink:href="#aj"/><use transform="matrix(0.009114583333333334,0,0,0.009114583333333334,25.065104166666668,0)" xlink:href="#O"/></g><g id="t"><use transform="matrix(0.009114583333333334,0,0,0.009114583333333334,0,0)" xlink:href="#L"/><use transform="matrix(0.009114583333333334,0,0,0.009114583333333334,5.076822916666667,0)" xlink:href="#I"/><use transform="matrix(0.009114583333333334,0,0,0.009114583333333334,15.376302083333336,0)" xlink:href="#T"/><use transform="matrix(0.009114583333333334,0,0,0.009114583333333334,24.41796875,0)" xlink:href="#A"/><use transform="matrix(0.009114583333333334,0,0,0.009114583333333334,28.94791666666667,0)" xlink:href="#G"/><use transform="matrix(0.009114583333333334,0,0,0.009114583333333334,35.04557291666667,0)" xlink:href="#M"/></g><g id="u"><use transform="matrix(0.009114583333333334,0,0,0.009114583333333334,0,0)" xlink:href="#ai"/><use transform="matrix(0.009114583333333334,0,0,0.009114583333333334,16.296875,0)" xlink:href="#D"/><use transform="matrix(0.009114583333333334,0,0,0.009114583333333334,26.450520833333336,0)" xlink:href="#I"/><use transform="matrix(0.009114583333333334,0,0,0.009114583333333334,36.75,0)" xlink:href="#D"/><use transform="matrix(0.009114583333333334,0,0,0.009114583333333334,46.903645833333336,0)" xlink:href="#K"/><use transform="matrix(0.009114583333333334,0,0,0.009114583333333334,57.376302083333336,0)" xlink:href="#M"/></g><g id="v"><use transform="matrix(0.009114583333333334,0,0,0.009114583333333334,0,0)" xlink:href="#E"/><use transform="matrix(0.009114583333333334,0,0,0.009114583333333334,10.47265625,0)" xlink:href="#H"/><use transform="matrix(0.009114583333333334,0,0,0.009114583333333334,21.118489583333336,0)" xlink:href="#B"/><use transform="matrix(0.009114583333333334,0,0,0.009114583333333334,25.6484375,0)" xlink:href="#A"/><use transform="matrix(0.009114583333333334,0,0,0.009114583333333334,30.17838541666667,0)" xlink:href="#F"/><use transform="matrix(0.009114583333333334,0,0,0.009114583333333334,39.949218750000014,0)" xlink:href="#N"/></g><g id="w"><use transform="matrix(0.009114583333333334,0,0,0.009114583333333334,0,0)" xlink:href="#J"/><use transform="matrix(0.009114583333333334,0,0,0.009114583333333334,9.625,0)" xlink:href="#M"/><use transform="matrix(0.009114583333333334,0,0,0.009114583333333334,19.514322916666668,0)" xlink:href="#G"/><use transform="matrix(0.009114583333333334,0,0,0.009114583333333334,25.611979166666668,0)" xlink:href="#J"/></g><g id="x"><use transform="matrix(0.009114583333333334,0,0,0.009114583333333334,0,0)" xlink:href="#Q"/><use transform="matrix(0.009114583333333334,0,0,0.009114583333333334,6.143229166666667,0)" xlink:href="#M"/><use transform="matrix(0.009114583333333334,0,0,0.009114583333333334,16.032552083333336,0)" xlink:href="#E"/><use transform="matrix(0.009114583333333334,0,0,0.009114583333333334,26.505208333333336,0)" xlink:href="#H"/><use transform="matrix(0.009114583333333334,0,0,0.009114583333333334,37.15104166666667,0)" xlink:href="#Q"/><use transform="matrix(0.009114583333333334,0,0,0.009114583333333334,43.923177083333336,0)" xlink:href="#G"/><use transform="matrix(0.009114583333333334,0,0,0.009114583333333334,50.020833333333336,0)" xlink:href="#J"/></g></defs></g></svg>