<svg xmlns="http://www.w3.org/2000/svg" xmlns:xlink="http://www.w3.org/1999/xlink" xmlns:lucid="lucid" width="1659" height="603"><g transform="translate(-1837 -2626)" lucid:page-tab-id="0_0"><path d="M1886.43 2685.66a6 6 0 0 1 6-6h1551a6 6 0 0 1 6 6v222.86a6 6 0 0 1-6 6h-1551a6 6 0 0 1-6-6z" fill="#e0e8f5"/><path d="M1907.42 2679.66h14.98m7.5 0h14.98m7.5 0h14.98m7.5 0h14.98m7.5 0h14.98m7.5 0h14.98m7.5 0h14.97m7.5 0h14.98m7.5 0h14.98m7.5 0h14.98m7.5 0h15m7.48 0h15m7.48 0h14.98m7.5 0h14.98m7.5 0h14.98m7.5 0h14.98m7.5 0h14.98m7.5 0h14.97m7.5 0H2327m7.5 0h15m7.48 0h15m7.48 0h15m7.48 0h15m7.48 0h15m7.48 0h14.98m7.5 0h14.98m7.5 0h14.98m7.5 0h14.98m7.5 0h14.98m7.5 0h14.97m7.5 0h14.98m7.5 0h14.98m7.5 0h14.98m7.5 0h15m7.48 0h15m7.48 0h14.98m7.5 0h14.98m7.5 0h14.98m7.5 0h14.98m7.5 0h14.98m7.5 0h14.97m7.5 0H2844m7.5 0h15m7.48 0h15m7.48 0h15m7.48 0h15m7.48 0h14.98m7.5 0h14.98m7.5 0h14.98m7.5 0h14.98m7.5 0h14.98m7.5 0h14.98m7.5 0h14.97m7.5 0h14.98m7.5 0h14.98m7.5 0h14.98m7.5 0h15m7.48 0h15m7.48 0h14.98m7.5 0h14.98m7.5 0h14.98m7.5 0h14.98m7.5 0h14.98m7.5 0h14.97m7.5 0H3361m7.5 0h15m7.48 0h15m7.48 0h15m7.48 0h7.5l.93.08.92.22.86.36.8.5.72.6.6.72.5.8.36.87.22.92.07.94v7.43m0 7.42v14.86m0 7.43v14.86m0 7.43v14.85m0 7.43v14.85m0 7.43v14.86m0 7.43v14.85m0 7.43v14.86m0 7.42v14.85m0 7.43v14.86m0 7.43v7.42l-.07.93-.22.92-.36.87-.5.8-.6.72-.72.6-.8.5-.87.36-.93.22-.94.08h-7.5m-7.48 0h-15m-7.48 0h-15m-7.48 0h-15m-7.5 0h-14.97m-7.5 0h-14.98m-7.5 0h-14.98m-7.5 0h-14.98m-7.5 0h-15m-7.48 0h-14.98m-7.5 0h-14.98m-7.5 0h-14.98m-7.5 0h-14.98m-7.5 0h-14.98m-7.5 0h-14.97m-7.5 0h-14.98m-7.5 0h-14.98m-7.5 0h-15m-7.48 0h-15m-7.48 0h-15m-7.48 0h-15m-7.48 0h-14.98m-7.5 0h-14.98m-7.5 0h-14.98m-7.5 0h-14.98m-7.5 0H2874m-7.5 0h-14.97m-7.5 0h-14.97m-7.5 0h-14.98m-7.5 0h-14.98m-7.5 0h-14.98m-7.5 0h-15m-7.48 0h-14.98m-7.5 0h-14.98m-7.5 0h-14.98m-7.5 0h-14.98m-7.5 0h-14.98m-7.5 0h-14.97m-7.5 0h-14.98m-7.5 0h-14.98m-7.5 0h-15m-7.48 0h-15m-7.48 0h-15m-7.48 0h-14.98m-7.5 0h-14.98m-7.5 0h-14.98m-7.5 0h-14.98m-7.5 0h-14.98m-7.5 0H2357m-7.5 0h-14.97m-7.5 0h-14.97m-7.5 0h-14.98m-7.5 0h-14.98m-7.5 0h-14.98m-7.5 0h-15m-7.48 0h-14.98m-7.5 0h-14.98m-7.5 0h-14.98m-7.5 0h-14.98m-7.5 0h-14.98m-7.5 0h-14.97m-7.5 0h-14.98m-7.5 0h-14.98m-7.5 0h-15m-7.48 0h-15m-7.48 0h-15m-7.48 0h-14.98m-7.5 0h-14.98m-7.5 0h-14.98m-7.5 0h-7.5l-.93-.08-.92-.22-.87-.36-.8-.5-.7-.6-.62-.72-.5-.8-.35-.87-.22-.92-.07-.93v-7.43m0-7.44v-14.86m0-7.43v-14.85m0-7.43v-14.87m0-7.43v-14.85m0-7.43v-14.86m0-7.43v-14.85m0-7.43v-14.86m0-7.44v-14.85m0-7.42v-14.86m0-7.43v-7.44l.08-.93.23-.92.36-.86.48-.8.6-.72.73-.6.8-.5.88-.36.9-.22.95-.08h7.5" stroke="#2f3564" stroke-width="1.5" fill="none"/><path d="M1987.3 2796.67a19.58 19.58 0 0 1 19.58-19.58h235.36a19.58 19.58 0 0 1 19.58 19.57 19.58 19.58 0 0 1-19.58 19.58h-235.36a19.58 19.58 0 0 1-19.58-19.58z" stroke="#6c6e83" fill="#fff"/><path d="M2043.63 2785.1H2249v23.07h-205.37z" fill="none"/><use xlink:href="#a" transform="matrix(1,0,0,1,2043.6343711901459,2785.092410579548) translate(0 18.380208333333336)"/><use xlink:href="#b" transform="matrix(1,0,0,1,2043.6343711901459,2785.092410579548) translate(62.69010416666667 18.380208333333336)"/><use xlink:href="#c" transform="matrix(1,0,0,1,2043.6343711901459,2785.092410579548) translate(137.61197916666669 18.380208333333336)"/><path d="M1977.3 2846.06c27.6 0 50-22.3 50-49.98 0-27.56-22.4-49.98-50-49.98s-50 22.42-50 49.98c0 27.67 22.4 49.98 50 49.98z" stroke="#6c6e83" fill="#a2c6f6"/><path d="M1977.3 2844.95c26.9 0 48.8-21.8 48.8-48.76 0-26.97-21.9-48.78-48.8-48.78-27 0-48.8 21.8-48.8 48.76 0 26.96 21.8 48.77 48.8 48.77z" stroke="#000" stroke-opacity="0" fill="#a2c6f6"/><path d="M1998.2 2774.48c0-.2-.1-.4-.1-.6.2-.4.2-.82.2-1.22 0-1-.7-1.82-1.3-2.63-.7-1-1.4-2.02-2.2-2.82-.4-.4-.8-.8-1.2-1-.6-.3-1.1-.4-1.6-1-1-1.53-2.1-2.64-3.8-3.24-1.1-.4-2.3-.4-3.5-.3-.6-.7-1.7-1.12-2.8-1.12-.7-.1-1.5.2-2.3.1-.6-.1-1-.5-1.6-.6-1.2-.2-2.5.1-3.6.4-1.3.4-2.3 1-3.5 1.72-.7.4-1.4.2-2.2.3-.5 0-1 .2-1.5.4-1.8.8-2.9 2.43-3.4 4.25-1.2.1-2.2.6-3 1.42-1.4 1.4-1.4 3.03-1.3 4.85 0 .7 0 1.3-.2 1.9-.1.62-.3 1.13-.5 1.63-.3 1.1-.2 2.12 0 3.23l.9 5.76c-.4.9-.3 2.1.4 3 .2.22.6.52.9.72.5.4 1 .9 1.4 1.52.5.8 1.1 1.6 1.8 2.32 3 2.93 7.3 3.84 11.4 3.53 2.5-.2 4.8-1.02 7.3-1.22 1.2-.1 2.4-.1 3.6-.3 1.1-.3 2.1-.7 3-1.2 3.6-1.73 6.9-4.86 7.3-9 0-.8 0-1.52.3-2.22.2-.5.5-1 .7-1.52.3-1.1-.3-2.42 0-3.63.2-1.1.5-2.2.4-3.42z" stroke="#000" stroke-opacity="0" fill="#33261a"/><path d="M1998.8 2826.58c-3.6-2.22-8.8-3.13-10.6-7.38-.9-2.32-.5-5.14-.5-7.57v-7.37c0-.3-.4-.4-.5-.1-1 1.4-4 1.3-5.5 1.4-1.7.12-3.5.22-5.3.22-3.1 0-6.7.3-9.5-1.22 0-.4-.1-.7-.1-1.1 0-.3-.6-.3-.6 0 0 .4.1.7.1 1.1-.1 0-.1.1-.1.1 0 .1.1.2.1.2.1 1.12.1 2.23.2 3.34.2 2.93.3 5.86.3 8.78.1.9.1 1.92.1 2.83-.9 1.93-2.3 3.75-3.9 5.26-1.3 1.2-2.7 2.32-4.2 3.23-1.1.8-2.5 1.3-3.3 2.52v.2c0 .1.1.1.1.2 3.4 1.62 6.9 3.13 10.5 4.54 3.3 1.22 7.1 2.93 10.8 2.53 1.6-.2 2.9-.92 4.3-1.73 1.7-1 3.4-1.92 5.1-2.83.8-.5 1.6-.9 2.4-1.3 3.3-.2 6.5-1.12 9.5-2.53.6-.3 1.7-.6 2.1-1.2.8-1-.8-1.72-1.5-2.12z" stroke="#000" stroke-opacity="0" fill="#b86554"/><path d="M1991.6 2798.8c.2-.8.3-1.6.5-2.5 0-.22 0-.32.1-.52l.3-1.5c0-.32.1-.62.1-.92.1-.8.2-1.52.4-2.22l.3-2.33c.9-6.55 1.4-12.3 1.2-12.8-.8-2.23-2.3-3.24-4-4.55-.3-.3-.6-.5-.9-.7-.3-.2-.5-.4-.8-.6-1.7-1.53-4.2-1.93-6.4-2.04-5.2-.2-10.2 0-14.8 2.54-.7.3-1.3.7-1.9 1.2-.1.1-.3.2-.5.3-.6.62-1.2 1.23-1.7 2.03-.5.7-.8 1.52-.9 2.43-.2 1.2-.1 2.42-.4 3.73v.2c-.2 1-.2 3.74-.1 6.97V2789.82c.1.8.1 1.62.1 2.43.1.7.1 1.5.2 2.22v.6c.1.5.1.9.1 1.42.1.4.1.9.2 1.3.2 1.72.4 3.03.7 4.04.6 2.22 1.6 4.34 3 6.26 1.9 2.52 4.4 4.54 7.4 5.25 1.2.4 2.5.5 3.8.4.8-.1 1.6-.2 2.3-.4.5-.1 1-.2 1.5-.4 1.6-.4 3.1-1.22 4.4-2.23 1.8-1.4 3.2-3.33 4.1-5.55.6-1.5 1.2-3.84 1.7-6.36z" stroke="#000" stroke-opacity="0" fill="#b86554"/><path d="M1996.1 2788.5c-.4-1.5-2.1-2.3-3.1-.8-.1.2.1.4.3.4-.8 1.42-1.3 3.04-1.8 4.65-.3 1.1-1.1 2.93-.8 4.14.5 2.1 3.3-.2 4-1.02 1.7-2.02 2-4.95 1.4-7.37zM1959.6 2793.76c.5.9 3 3.53 3.8 1.52.4-1.22-.1-3.03-.3-4.25-.2-1.7.1-2.82-.5-4.34.2 0-.2-.6-.3-.9-.8-1.63-2.6-1.03-3.2.4-.9 2.4-1 5.34.5 7.56z" stroke="#000" stroke-opacity="0" fill="#b86554"/><path d="M1986.6 2789.92c.1-.6.2-1.2.1-1.7 0-.3-.1-.62-.3-.82-.6-.6-1.3-.1-1.4.5-.3.8-.3 2.53.4 2.93.7.4 1-.1 1.2-.9zM1970.4 2789.12c.1-.5.2-1.1.1-1.72 0-.3-.2-.5-.3-.7-.6-.6-1.3-.1-1.4.5-.3.8-.3 2.42.4 2.83.8.4 1.1-.1 1.2-.9z" stroke="#000" stroke-opacity="0" fill="#33261a"/><path d="M1994.2 2789.32v-.1c0-.1 0-.1-.1-.2h-.2-.1c-.1 0-.1.1-.1.1-.1 0-.1.1-.1.1V2789.52l-.3 1.2c-.1.42-.5.92-.4 1.33 0 .2.1.3.2.4.2.4.3.7.3 1.1 0 .4-.4 1.73-1 1.42-.4-.1-.7.4-.3.5 1 .5 1.8-.9 1.9-1.8 0-.2 0-.5-.1-.72 0-.3-.4-.6-.4-.9-.1-.3.3-.9.4-1.22l.3-1.5zM1962.1 2793.26c-1-.9-1.2-1.62-.4-2.23l.4-.4c.1-.2.1-.3.1-.5.1-1-.4-2.22-.7-3.24-.1-.3-.7-.2-.6.2.2.7.9 2.52.7 3.13-.2.6-.8.8-1 1.4-.2 1.02.4 1.83 1.3 2.13.4.1.5-.4.2-.5zM1983.6 2812.95c-.3-.5-1.4-.2-3.1.5-2.6.9-6.2.1-8.6-1-1.9-.92-3.9-2.63-5.4-4.35.2 3.03.3 5.96.3 8.88h.6c1.2 0 2.4.6 3.6.7 1 0 1.8-.5 2.7-.7 1.2-.4 2.4 0 3.7-.2.9-.1 1.8-.6 2.6-1.1 1-.6 4.2-1.32 3.6-2.73zM1980.3 2795.68c-.2-1.5-.4-3.13-.7-4.64-.1-.4-.7-.3-.6 0 .4 2 .7 4.14.9 6.15 0 .7.3 1.2-.6 1.6-.6.3-1.5.2-2.1.1-.8-.1-1.4-.1-2.2-.1-.4.1-.4.72 0 .62 1.4-.1 4.6.9 5.4-.7.4-.82 0-2.23-.1-3.04z" stroke="#000" stroke-opacity="0" fill="#9c4736"/><path d="M1965.2 2783.87c.1.6.8.8 1.4.8 1.4.2 2.9 0 4.3 0 .8 0 2.6.3 3.3-.3 1.5-1.2-1.5-2.02-2.3-2.12-1.4-.2-2.8-.2-4.2.1-.5.1-2.7.9-2.5 1.52zM1989.2 2783.36c-1.3-.3-2.8-.4-4.2-.3-.7.1-3.8.7-2.3 2.02.6.6 2.4.4 3.2.4 1.5.1 2.9.3 4.4.3.5 0 1.2-.2 1.4-.8.3-.6-1.9-1.52-2.5-1.62z" stroke="#000" stroke-opacity="0" fill="#33261a"/><path d="M1974.7 2802.55c-.6-.1-1.3-.3-1.9-.6-.1 0-1-.2-1.1-.4.2.6.9 1.3 1.3 1.8.9 1.22 1.7 1.62 3.1 1.72 1.6.1 3.5-.1 4.9-1 0 0 1.6-1.12 1.8-2.23-.1.2-2 .6-2.9.8-.8.1-3.4.2-5.2-.1z" stroke="#000" stroke-opacity="0" fill="#9c4736"/><path d="M2005.2 2832.13l-.3-4.14v-.1h-.1l-4.3-1.83c-1.4-.6-7.2-2.12-7.2-2.12s-13 11.1-14.5 11.4c-1.6.3-15.4-10.6-15.4-10.6s-5.7 1.83-7.3 2.94c-2.9 2.1-2.1 5.74-1.9 8.77 2.4 14.64 49.9 12.12 51-4.34z" stroke="#000" stroke-opacity="0" fill="#fff8f0"/><path d="M1957.8 2842.53s.3 1.3.7-1.2c.7-4.96 2.2-15.66 2.1-15.66-.2 0-.4 0-.5.1h-.1c-4.9 1.1-9.6 4.54-14.3 6.56-3.5 1.4-1.3 1.62-1.3 1.62l13.4 8.58zM2012.6 2829.7c-1.7-1.3-3.6-1.9-5.6-2.52-2.5-.7-4.5-.9-6.9-1.6-.6-.22-3.3-.72-3.3-.72 0 6.26-1.2 18.38 0 17.67 8.5-4.85 16.6-10.1 15.8-12.82z" stroke="#000" stroke-opacity="0" fill="#456664"/><path d="M1967.4 2843.84c-.5-1-1-2.02-1.3-3.13l-.1-.1c-.1 0-.1 0-.1-.1h-.2c0 .1-.1.1-.1.1-1 1.02-1.9 1.93-2.8 3.04-.2.3.2.7.5.4.7-.9 1.5-1.8 2.4-2.62.3.9.7 1.82 1.2 2.72.2.3.7 0 .5-.3zM1993.7 2836.57c-.5-.9-1-1.72-1.5-2.52-.2-.3-.4-.6-.8-.5-.5 0-1 .7-1.3 1-.6.6-1.2 1.3-1.7 2.02-.2.3.2.7.5.4.6-.9 1.3-1.7 2.1-2.52.4-.3.3-.3.7-.1.2.2.3.6.5.8.3.5.7 1.12 1 1.72.2.3.7 0 .5-.3zM1984 2846.16c-.5-.9-.9-1.9-1.4-2.72-.2-.2-.4-.5-.8-.4-.4 0-.9.8-1.1 1.1l-2 2.43c-.3.3.2.7.4.4.8-1 1.5-2.22 2.5-3.03.2-.2.1-.3.5-.1.1 0 .3.6.4.8l1 1.83c.2.3.7 0 .5-.3zM1966.3 2830.82c-.3-.7-.7-1.52-1.1-2.23-.2-.4-.6-1.22-1.1-1.22-.5-.1-1 .6-1.3.9-.7.62-1.4 1.32-2 2.13-.3.32.2.72.4.42.4-.5.7-.9 1.1-1.22.3-.4.9-1.1 1.3-1.3.7-.3.9.4 1.2.9.4.6.7 1.2.9 1.82.2.4.7.2.6-.2z" stroke="#000" stroke-opacity="0" fill="#aeb5c2"/><path d="M1995.4 2775.7c-.3-.72-.9-1.32-1.4-2.03-.7-.7-1.3-1.52-2-2.12-1.4-1.4-2.9-2.53-4.7-3.33-3.6-1.52-7.7-1.32-11.4-.6-2.1.5-4.2 1.1-6.3 1.8-1.7.6-3.5 1.12-4.9 2.23-3.5 3.03-2.5 8.18-3.4 12.1v.12h.1c.3 1.1.4 2.22.8 3.23.1.4.4.8.8.7.6-.3.6-1.5.7-2.02.1-1.1 0-2.22.3-3.33.4-1 .4-1.92.6-2.92.2-1.32.7-2.23 1.5-3.24 1.3-1.52 2.4-3.24 3.1-5.16.4.1.7.1 1.1.1.9 0 1.8 0 2.6.1 1.8 0 3.7.1 5.5.1 3.6.2 7.1.6 10.7 1.02h.1c2.4 1.1 2.1 4.84 2.4 7.07.2 1.5.4 3.02.8 4.54.1.8 0 1.6 0 2.42-.1.7-.3 1.4-.4 2.1 0 .32 0 .62.3.72.5.5.8-.3.9-.7.2-.5.4-1.12.6-1.72.3-.5.5-1.12.6-1.72.2-1.1.3-2.22.5-3.33.2-1 .3-2.12.5-3.13.1-1 .3-2.02 0-3.03z" stroke="#000" stroke-opacity="0" fill="#33261a"/><path d="M1977.3 2846.06c27.6 0 50-22.3 50-49.98 0-27.56-22.4-49.98-50-49.98s-50 22.42-50 49.98c0 27.67 22.4 49.98 50 49.98z" stroke="#6c6e83" fill-opacity="0"/><path d="M2306.1 2777.44a6 6 0 0 1 6-6h321.67a6 6 0 0 1 6 6v38.3a6 6 0 0 1-6 6H2312.1a6 6 0 0 1-6-6z" stroke="#6c6e83" fill="#fff"/><path d="M2334.73 2785.1h282.36v22.98h-282.37z" fill="none"/><use xlink:href="#d" transform="matrix(1,0,0,1,2334.732894110497,2785.0924105794766) translate(0 17.880208333333336)"/><use xlink:href="#e" transform="matrix(1,0,0,1,2334.732894110497,2785.0924105794766) translate(85.52213541666667 17.880208333333336)"/><use xlink:href="#f" transform="matrix(1,0,0,1,2334.732894110497,2785.0924105794766) translate(188.73567708333334 17.880208333333336)"/><path d="M1886.43 2949.36a6 6 0 0 1 6-6h1551a6 6 0 0 1 6 6v222.85a6 6 0 0 1-6 6h-1551a6 6 0 0 1-6-6z" fill="#e0e8f5"/><path d="M1907.42 2943.36h14.98m7.5 0h14.98m7.5 0h14.98m7.5 0h14.98m7.5 0h14.98m7.5 0h14.98m7.5 0h14.97m7.5 0h14.98m7.5 0h14.98m7.5 0h14.98m7.5 0h15m7.48 0h15m7.48 0h14.98m7.5 0h14.98m7.5 0h14.98m7.5 0h14.98m7.5 0h14.98m7.5 0h14.97m7.5 0H2327m7.5 0h15m7.48 0h15m7.48 0h15m7.48 0h15m7.48 0h15m7.48 0h14.98m7.5 0h14.98m7.5 0h14.98m7.5 0h14.98m7.5 0h14.98m7.5 0h14.97m7.5 0h14.98m7.5 0h14.98m7.5 0h14.98m7.5 0h15m7.48 0h15m7.48 0h14.98m7.5 0h14.98m7.5 0h14.98m7.5 0h14.98m7.5 0h14.98m7.5 0h14.97m7.5 0H2844m7.5 0h15m7.48 0h15m7.48 0h15m7.48 0h15m7.48 0h14.98m7.5 0h14.98m7.5 0h14.98m7.5 0h14.98m7.5 0h14.98m7.5 0h14.98m7.5 0h14.97m7.5 0h14.98m7.5 0h14.98m7.5 0h14.98m7.5 0h15m7.48 0h15m7.48 0h14.98m7.5 0h14.98m7.5 0h14.98m7.5 0h14.98m7.5 0h14.98m7.5 0h14.97m7.5 0H3361m7.5 0h15m7.48 0h15m7.48 0h15m7.48 0h7.5l.93.07.92.22.86.36.8.5.72.6.6.73.5.8.36.87.22.92.07.93v7.43m0 7.43v14.87m0 7.43v14.85m0 7.43v14.86m0 7.43v14.85m0 7.43v14.86m0 7.44v14.86m0 7.42v14.86m0 7.43v14.87m0 7.42v14.85m0 7.43v7.43l-.07.95-.22.9-.36.88-.5.8-.6.72-.72.6-.8.5-.87.36-.93.23-.94.08h-7.5m-7.48 0h-15m-7.48 0h-15m-7.48 0h-15m-7.5 0h-14.97m-7.5 0h-14.98m-7.5 0h-14.98m-7.5 0h-14.98m-7.5 0h-15m-7.48 0h-14.98m-7.5 0h-14.98m-7.5 0h-14.98m-7.5 0h-14.98m-7.5 0h-14.98m-7.5 0h-14.97m-7.5 0h-14.98m-7.5 0h-14.98m-7.5 0h-15m-7.48 0h-15m-7.48 0h-15m-7.48 0h-15m-7.48 0h-14.98m-7.5 0h-14.98m-7.5 0h-14.98m-7.5 0h-14.98m-7.5 0H2874m-7.5 0h-14.97m-7.5 0h-14.97m-7.5 0h-14.98m-7.5 0h-14.98m-7.5 0h-14.98m-7.5 0h-15m-7.48 0h-14.98m-7.5 0h-14.98m-7.5 0h-14.98m-7.5 0h-14.98m-7.5 0h-14.98m-7.5 0h-14.97m-7.5 0h-14.98m-7.5 0h-14.98m-7.5 0h-15m-7.48 0h-15m-7.48 0h-15m-7.48 0h-14.98m-7.5 0h-14.98m-7.5 0h-14.98m-7.5 0h-14.98m-7.5 0h-14.98m-7.5 0H2357m-7.5 0h-14.97m-7.5 0h-14.97m-7.5 0h-14.98m-7.5 0h-14.98m-7.5 0h-14.98m-7.5 0h-15m-7.48 0h-14.98m-7.5 0h-14.98m-7.5 0h-14.98m-7.5 0h-14.98m-7.5 0h-14.98m-7.5 0h-14.97m-7.5 0h-14.98m-7.5 0h-14.98m-7.5 0h-15m-7.48 0h-15m-7.48 0h-15m-7.48 0h-14.98m-7.5 0h-14.98m-7.5 0h-14.98m-7.5 0h-7.5l-.93-.07-.92-.22-.87-.35-.8-.5-.7-.6-.62-.72-.5-.8-.35-.87-.22-.9-.07-.95v-7.42m0-7.43v-14.86m0-7.43v-14.86m0-7.42v-14.86m0-7.43v-14.86m0-7.43v-14.85m0-7.43v-14.85m0-7.43v-14.86m0-7.43v-14.85m0-7.43v-14.86m0-7.42v-7.43l.08-.93.23-.92.36-.87.48-.8.6-.72.73-.6.8-.5.88-.35.9-.22.95-.07h7.5" stroke="#2f3564" stroke-width="1.5" fill="none"/><path d="M2309.57 3040.63a6 6 0 0 1 6-6h403.86a6 6 0 0 1 6 6v38.3a6 6 0 0 1-6 6h-403.86a6 6 0 0 1-6-6z" stroke="#6c6e83" fill="#fff"/><path d="M2334.73 3048.28h380.66v21.38h-380.67z" fill="none"/><use xlink:href="#g" transform="matrix(1,0,0,1,2334.732894110497,3048.2852406604866) translate(0 17.380208333333336)"/><use xlink:href="#h" transform="matrix(1,0,0,1,2334.732894110497,3048.2852406604866) translate(44.94401041666667 17.380208333333336)"/><use xlink:href="#i" transform="matrix(1,0,0,1,2334.732894110497,3048.2852406604866) translate(109.99479166666667 17.380208333333336)"/><use xlink:href="#j" transform="matrix(1,0,0,1,2334.732894110497,3048.2852406604866) translate(188.88151041666669 17.380208333333336)"/><use xlink:href="#k" transform="matrix(1,0,0,1,2334.732894110497,3048.2852406604866) translate(224.48307291666669 17.380208333333336)"/><use xlink:href="#l" transform="matrix(1,0,0,1,2334.732894110497,3048.2852406604866) translate(301.74739583333337 17.380208333333336)"/><path d="M1990.13 3060.78a19.5 19.5 0 0 1 19.5-19.5h101a19.5 19.5 0 0 1 19.5 19.5 19.5 19.5 0 0 1-19.5 19.5h-101a19.5 19.5 0 0 1-19.5-19.5z" stroke="#6c6e83" fill="#fff"/><path d="M2049.46 3048.57h63.66V3071h-63.66z" fill="none"/><use xlink:href="#m" transform="matrix(1,0,0,1,2049.4582591313892,3048.573897478712) translate(0 17.57638888888889)"/><path d="M1974.13 3110.4c27.6 0 50-22.34 50-49.92 0-27.68-22.4-50.03-50-50.03s-50 22.35-50 50.03c0 27.58 22.4 49.93 50 49.93z" stroke="#6c6e83" fill="#a2c6f6"/><path d="M1974.03 3011.56c27 0 48.8 21.84 48.8 48.82 0 26.97-21.8 48.82-48.8 48.82-26.9 0-48.7-21.84-48.7-48.82s21.8-48.82 48.7-48.82z" stroke="#000" stroke-opacity="0" fill="#a2c6f6"/><path d="M1990.13 3091.88c.1.2.2.4.3.7.1.3.3.5.4.8 1.5 3.64 3 7.16 4.7 10.78.3.6.2.9.5 1.5 8.2-5.22 14.7-10.96 14.7-10.96s-.7-1.1-2.7-3.32c-1.6-1.9-3.5-3.62-5.5-5.13-4.2-2.92-9.1-5.03-14.2-5.14 0 0 0 .12-.1.22 0 .1-.1.3-.1.5 0 0 0 .1-.1.1 0 .2 0 .3-.1.5 0 .1-.1.3-.1.5v.1c.2 1.1.3 2.82.5 3.93.3 1.7 1.1 3.32 1.8 4.93z" stroke="#000" stroke-opacity="0" fill="#456664"/><path d="M1989.53 3082.42l-2.7.8-.7.2c-3.1 1.02-.9 5.04-3.3 5.75-.3.1-1.1 0-2.2-.3-2.6-.6-6.3-1.92-6.3-1.82 0 0-.4-.2-1.1-.4-1.6-.4-4.7-1.4-7.6-2.32l-3.6-1.2-.8-.2-1.7-.6 1.1-.5.5-.3h.1l1.5-.72 2.3-1.1s8.1 2.92 8.4 2.82c.2 0 7-3.32 7-3.32l6 2.12.1.1.5.2 1 .3.3.1 1.2.4z" stroke="#000" stroke-opacity="0" fill="#ffa894"/><path d="M1983.33 3029.07c-.1-1-.9-1.7-1.2-2.7-.3-1.12 0-2.33 0-3.44 0-.2.1-.4 0-.5 0-1.4-.4-2.72-1.7-3.52-1.1-.8-2.3-1.1-3.6-.9-.9.2-1.5.8-2.3 1.2-.4.2-.7.4-1 .7-.7.32-1.3.52-2 .72-1.1.2-2.1.6-2.8 1.6-.8 1.22-.9 3.03-1.2 4.44-.3 1-.4 2-.5 3.02v.3c-.1.7-.1 1.5.1 2.22.1.2.1.5.3.7.5 1.1 1.6 1.7 3 1.6.8 0 1.6-.2 2.4-.3 1.2-.1 2 .6 3.1.8h.1c.4.1.8.1 1.2.1.3 0 .5-.1.8-.1 0 0 .1-.1.2-.1 1.2-.3 2.4-1 3.4-1.9 1.1-1.1 1.9-2.52 1.7-3.93z" stroke="#000" stroke-opacity="0" fill="#db6e56"/><path d="M1983.33 3029.07c-.1-1-.9-1.7-1.2-2.7-.3-1.12 0-2.33 0-3.44 0-.2.1-.4 0-.5-.2.9-.5 1.8-.9 2.62-1 2.1-2.5 2.92-4.8 2.82-1.3-.1-2.1.1-3 1-1.4 1.2-4.6 2.12-6.4.8v.3c-.1.72-.1 1.52.1 2.23.1.2.1.5.3.7.5 1.1 1.6 1.7 3 1.6.8 0 1.6-.3 2.4-.3 1.2-.1 2 .5 3.1.8h1.3c.2 0 .5-.1.8-.1h.2c1.2-.3 2.4-1 3.4-1.9 1.1-1.1 1.9-2.52 1.7-3.93z" stroke="#000" stroke-opacity="0" fill="#c2563e"/><path d="M1990.42 3041.76c-.2-.9-.7-1.82-1.3-2.62-.2-.1-.3-.2-.4-.3-.5-.5-.6-.7-.8-1.4-.2-.4-.2-.72-.4-1.12-.5-.7-1.3-1.2-2.1-1.5-1.3-.6-2.6-1.12-3.8-1.82h-.1c-1.8-1-3.6-1.2-5.5-.7-.6-.3-1.2-.5-1.8-.5-1.3-.1-2.6.3-3.8.6-1 .2-2 .3-3 .5-.5.1-.9.1-1.4.3-4.8 1.3-6.8 6.24-7.5 10.77-.5.9-1 1.6-1.2 2.62-.1 1 0 2-.1 3-.2 1.32-.2 2.32.1 3.53.2.6.4 1.1.6 1.6.1.1.2.3.2.4.2 1.02.7 1.83 1.3 2.43.3.5.5 1 .7 1.4 0 .2.1.4.2.6 0 .1 0 .1.1.22H1960.72c.1 0 .1-.1.2-.1v-.1-.1-.1l-.1-.1c0-.2-.1-.4-.2-.6l.2.2c.1 0 .2.1.2.2l.1.1c.4.2.7.5 1 .8 1.5 1.2 3 2.5 4.7 3.42 4.1 2.4 8.6 3.52 13.2 1.9 1.7-.5 3.3-1.4 4.8-2.5.4-.4.9-.8 1.3-1.2.2-.2.5-.42.7-.72.2-.2.4-.4.6-.7.7-.9 1.4-1.9 1.9-2.92.1-.3.2-.5.2-.7.7-2.02.2-4.03.9-6.05.5-1.5.5-3 .2-4.5.3-1.43.2-2.83-.2-4.24z" stroke="#000" stroke-opacity="0" fill="#db6e56"/><path d="M1978.22 3070.04c-1.5.1-3 .1-4.6-.2-1.7-.3-3.3-.8-4.9-1.4-.7-.2-1.4-.5-1.9-1-.5-.42-.7-1.12-1.1-1.63-.2-.2-.5-.1-.5.2 0 1.93-.1 3.84-.1 5.75v.1c-.1 2.22-.1 4.43-.2 6.65V3079.7c0 1.1 0 2.12-.1 3.13v1.2c0 1.2 0 2.42-.1 3.53 0 .1.1.2.1.2 0 .1.1.1.1.1 3.8 1.4 7.5 14 11.4 13.9.9 0 3.3-8.06 4.2-8.17.5-.1 2.8-2.82 2.8-2.82l-1.8-5.94v-1.7l.2-3.43.3-7.34.2-2.92s-3 .5-4 .6z" stroke="#000" stroke-opacity="0" fill="#ffa894"/><path d="M1960.92 3043.77c1-.9 5.4-3.93 6.6-3.93 2.1-.1 6.3-1 8.3-.9 4.7.1 7.7 2 10.4 4.93.2.2.4.3.4.5 0 0 .1 0 .1.1v.1c.4 5.54.2 16.1-1.6 22.15-1 3.22-3.7 7.15-6.7 8.96-6.1 3.72-9.8.6-13.3-3.83-4.2-5.33-4.1-11.07-4.7-17.9-.1-1.72-.4-9.27.5-10.18z" stroke="#000" stroke-opacity="0" fill="#ffa894"/><path d="M1966.42 3056.45c-.1-.5-.1-1.1-.1-1.6.1-.3.2-.5.4-.7.5-.62 1.1 0 1.3.5.2.7.2 2.3-.5 2.6-.7.4-1-.1-1.1-.8zM1979.22 3056.45c-.1-.5-.1-1.1 0-1.6 0-.3.1-.5.3-.7.5-.62 1.2-.1 1.3.5.2.7.2 2.2-.4 2.6-.7.4-1-.1-1.2-.8z" stroke="#000" stroke-opacity="0" fill="#232c44"/><path d="M1962.13 3057.66c-.1-.8-.2-1.6-.5-2.3v-.12c-.2-.3-.4-.5-.6-.7 0-.1 0-.1-.1-.2 0 0-.1 0-.1-.1-.1 0-.1 0-.2.1l-.2-.2c-.1 0-.2-.1-.3-.2-.8-.4-1.7-.3-2.2.8 0 .1-.1.3-.1.4-.6 2.32-.2 5.24 1.4 7.05.2.2.4.5.7.8.3.3.7.6 1.1.9.1.1.3.2.5.2.4 0 .6-.3.6-1.3v-2.82-2.32z" stroke="#000" stroke-opacity="0" fill="#ffa894"/><path d="M1969.63 3066.82s1 1.1 1.7 1.4c.8.2 1.6.6 2.4.5.9 0 1.9-.3 2.7-.7.5-.3 1.6-1.3 1.6-1.3l-8.4.1z" stroke="#000" stroke-opacity="0" fill="#ad4444"/><path d="M1978.13 3075.28c-2.1 1.5-5.1 1.7-7.5.6-2.1-1-3.7-2.32-5.5-4.03-.1 2.22-.1 4.43-.2 6.65v.1c.9.2 1.7.5 2.6.6 1.5.1 2.7-.8 4.1-.8 1.3.1 2.5.4 3.7-.3 1-.5 1.9-1.3 2.6-2.12.1-.2.3-.4.4-.5.1-.1-.1-.3-.2-.2z" stroke="#000" stroke-opacity="0" fill="#f7886d"/><path d="M1971.03 3051.32c-.2-.7-1.1-.9-1.6-1-2.2-.5-4.8.2-6.4 1.7-.4.3.9.2 1 .2 1.4-.3 2.7-.3 4.1-.3h2c.4 0 1-.1.9-.6zM1984.53 3052.43c-1.6-1.6-4.2-2.32-6.4-1.92-.5.1-1.5.32-1.6.92-.2.5.4.6.8.7h2c1.4.1 2.8.2 4.1.5.1 0 1.4.2 1.1-.2z" stroke="#000" stroke-opacity="0" fill="#db6e56"/><path d="M1960.92 3061.28c-.5-.2-1.4-1.9-.1-1.9h.1s.1 0 .1-.1c0 0 0-.1.1-.1v-.1c-.3-1.32-.6-2.63-.8-3.84-.1-.4-.6-.3-.6.1.2 1.2.5 2.32.7 3.53-1.4.3-.9 2.52.3 3.02.4.1.5-.4.2-.62z" stroke="#000" stroke-opacity="0" fill="#f7886d"/><path d="M1989.53 3056.55c0-.3 0-.5-.1-.8-.4-1.6-1.6-1.7-2.6-1.1 0 .1 0 .1-.1.1l-.1.1c-.1-.1-.1-.1-.2 0h-.1c-.3.3-.5.6-.7.9v.1c-.4.7-.5 1.4-.6 2.2-.1 1.62-.2 3.23-.2 4.74 0 .2-.1.3-.1.5 0 1.1.4 1.4.9 1.2.2-.1.4-.2.5-.3.4-.2.7-.5 1-.8l.6-.6c1.5-1.62 2.1-4.13 1.8-6.25z" stroke="#000" stroke-opacity="0" fill="#ffa894"/><path d="M1986.03 3061.8c.5-.1 1.5-1.82.3-1.93h-.2s0-.1-.1-.1v-.1-.1c.3-1.3.6-2.5.9-3.82.1-.4.6-.2.5.2-.2 1.1-.5 2.32-.8 3.42 1.4.4.8 2.62-.4 3.02-.4.1-.5-.4-.2-.6zM1973.92 3063.1c-1.8-.8-.9-2.42-.7-3.83l.6-3.92c0-.3-.6-.4-.6 0-.2 1.1-.3 2.1-.5 3.22-.1 1-.6 2.1-.7 3.12 0 1 .9 1.6 1.8 2 .3.1.5-.4.1-.6z" stroke="#000" stroke-opacity="0" fill="#f7886d"/><path d="M1987.42 3048.4c-.1-1.8-.1-3.93-.9-5.64-1-2.4-3.5-3.72-6-4.22-.2-.1-.4-.1-.6-.1-.5-.1-1.1-.2-1.7-.3h-1.1c-2.4 0-4.7.3-7 .7-2.1.3-4.2.8-6.1 1.7-.4.2-.7.4-1.1.5-.2.2-.5.3-.8.52-.9.5-1.8 1.2-2.1 2.3-.6 1.82-.6 7.96.1 10.08.1.4.2.6.4.8H1960.83l.2-.2c.4-.5.4-1.5.5-2.1.1-1.72 0-3.23.6-4.85.5-1.5 1.3-2.92 2.2-4.23 1-1.5 1.9-2.82 3.8-3.12 1.4-.2 3-.1 4.4-.2 1.2-.1 2.5-.2 3.7-.1 1.2.2 2.2.7 3.4 1 1.9.6 4.2.6 5.3 2.62.9 1.5.7 3.62.8 5.23l.6 5.74v.2l.1.1H1986.72c.1 0 .1-.1.1-.1.8-1.9.6-4.33.6-6.34z" stroke="#000" stroke-opacity="0" fill="#db6e56"/><path d="M1978.53 3036.32c-.1-.6-.3-1.1-.7-1.6-.4-.5-1.6-1.22-1.5-1.92.1-.4-.5-.4-.6 0 0 .7.3 1.1.8 1.5 1.4 1.22 2 2.83.7 4.44-.2.3.2.7.4.4.7-.8 1-1.7.9-2.82zM1980.03 3036.22c-.2-.3-.7-.1-.5.3.2.3.3.7.4 1.1.1.3 0 .72 0 1.12-.1.4.4.6.5.2.1-.5.2-.9.1-1.4-.1-.5-.3-.92-.5-1.32zM1963.22 3044.07c-1.6-.7-.2-2.5-.2-3.52 0-.5-.2-.7-.3-1.1-.4-1.1-.4-2.12.2-3.23.1-.4-.4-.7-.5-.3-.4.7-.7 1.5-.6 2.3 0 1.12.7 1.93.4 3.03-.3 1.1-.7 2.72.7 3.32.3.2.6-.3.3-.5zM1974.83 3025.55c-1-1.3-.8-3.32-.4-4.93 0-.3-.5-.5-.6-.1-.4 1.8-.6 3.92.5 5.43.3.3.7-.1.5-.4z" stroke="#000" stroke-opacity="0" fill="#c2563e"/><path d="M1990.83 3084.74c-.1-.6-.9-3.83-2.1-2.92-.1.1-.3.1-.4.2-.1 0-.2.1-.2.1v-.2h-.1l-1-.3-.5-.2-.1-.1c-1.1.8-11 16.6-11 16.6s-12.6-17.1-12.7-17.1c-.3-.1-1.2.2-1.8.4-.2.1-.5.2-.5.2-.2.1-.4.2-.6.2l-1.1.4-.4.2c-.5.2-1 .4-1.1.9v.1c0 .2 0 .4.1.7 0 .2.1.3.2.52.1.5.2 1 .4 1.5.3 1 .7 2.02 1 3.03.4 1.1.9 2.3 1.3 3.42 1.1 2.9 2.3 5.72 3.4 8.54 5.6 9.57-.9 10.77 25.1 7.15 1.4-4.04.2 1.7.7-2.53.1-.6.1-1.2.2-1.8 0-1.1.1-2.32.1-3.53v-.8c.1-.8.1-1.62.1-2.42.1-1.7.1-3.43.3-5.14.1-.4.1-.7.1-1 .1-.8.3-1.5.4-2.32.1-.4.1-.7.2-1.1.1-.9.1-1.82 0-2.72z" stroke="#000" stroke-opacity="0" fill="#fff8f0"/><path d="M1968.03 3110.5c-1.2-4.83-.5-2.1-1.6-6.54-.6-2.6-1.5-5.13-2-7.75-.2-.7-.3-1.5-.4-2.3-1.2-3.12-2.7-6.75-3.5-7.95-.8-1.1-1.7-2.62-1.8-4.03-.3 0-.5 0-.7.1-.3.1-.6.2-.9.2-.2.1-.5.2-.7.2-1.4.4-2.9.8-4.4 1.3-.2 0-.5.1-.7.2-1.1.3-2.1.72-3.1 1.12-2 .8-4 1.7-5.9 2.92-1.2.8-8.8 8.15-5.7 5.94 0 0 18 16.9 31.4 16.6zM2005.33 3098.83c0-4.33-.2-8.86-4-11.68-3.8-2.92-8.4-4.73-13.1-5.84-.1.32-.2.72-.3 1.02-.5 1.9-.4 3.73-.7 5.64-.3 2.5-1.2 4.83-2 7.05-.4 4.84-.5 9.57-.8 14.3 12.9-2.42 20.9-9.77 20.9-10.47z" stroke="#000" stroke-opacity="0" fill="#456664"/><path d="M1985.33 3095.8c.1 3.53 2.2 6.55 5 8.57 1.6 1.2 2.7 1.8 4.5 2.5.5.2-.1-.4.4-.4-.3-.3 1 .3.7 0-3.4-3.6-7.2-7.04-10.6-10.66zM2000.13 3097.92c.3-2.82.6-6.04.2-8.85-1.5 1-2.7 4.93-3.1 6.54-1.1-3.4-2.9-7.84-5.5-10.46h-.1c.8 4.13 2 8.25 3.3 12.28.6 2.1 2.3 7.75 2.3 7.75l1.3-.3s1.3-5.03 1.6-6.95zM2000.83 3097.12c-.3 2.62-1.7 6.14.1 6.14 1.1-2.02 2.6-3.12 2.6-5.44.1-1.7-.2-3.42-.8-5.03-.1-.4-1.1-2.63-1.7-3.53.3 2.6.1 5.33-.2 7.85zM1994.13 3097.12c-1.1-3.73-2.2-7.45-3-11.28-1.2 4.33-.6 8.96 1.6 12.9-2.2-1.42-4.6-2.63-7-3.53-.1-.1-.1-.1-.2-.1 3.4 3.63 7.1 6.95 10.5 10.47.3.3-.3-.2 0 .1-.1-.4.7.1.5-.3-.8-2.7-1.5-5.53-2.4-8.25zM1958.22 3098.33c-.1 0-.1 0-.1-.1-2.2-2.92-3.3-7.55-3.8-11.18-.6 1.5-2.5 5.34-4.1 6.04.1-2.93.8-6.05 1.6-8.66.1-.3.2-.5.2-.7 1.5-.5 3-.9 4.4-1.32.2 1.1.3 2.12.5 3.22.6 4.23 1.1 8.46 1.3 12.7zM1951.33 3083.93c-.1.4-.3.8-.4 1.1-.6 2.42-1.2 5.14-1.3 7.76-.5-1.02-1.1-3.33-1.2-3.73-.3-1.3-.3-2.72-.2-4.03 1-.4 2-.8 3.1-1.1zM1960.22 3085.54c-.7-1.1-1.4-2.3-1.5-3.62-.3 0-.5 0-.7.1-.3.1-.6.2-.9.2.1 1.3.3 2.62.5 3.83.5 3.92 1 7.75 1.2 11.67 1.9-4.13 2-8.75.4-12.98.4.3.7.5 1 .8z" stroke="#000" stroke-opacity="0" fill="#232c44"/><path d="M1987.13 3063.4c-.1 0-.2-.1-.3-.2 0-.1-.1-.1-.2-.1h-.2l-.2.2v.2l-.1.7-.2 6.95c0 .1 0 .1.1.2 0 .1 0 .1.1.1 0 .1.1.1.2.1h.2c.9-.4 2.7-1.5 2.7-4.03 0-1.7-1.2-3.22-2.1-4.12zM1961.03 3063.9l-.1-1s-.1-.1-.1-.2c-.1 0-.1-.1-.2-.1h-.2c-.1 0-.1.1-.2.1l-.3.3c-.8 1-1.9 2.5-1.8 4.12.2 2.52 2 3.53 3 3.93h.2c.1 0 .1-.1.2-.1 0 0 .1-.1.1-.2v-.1l-.6-6.75z" stroke="#000" stroke-opacity="0" fill="#f2e7e1"/><path d="M1959.72 3065.1c-.8.4-1 1.72-.8 2.53.2 1 1.5 1.5 1.8.3.1-.5.1-3.42-1-2.82zM1987.53 3065.7c-1.2-.4-1 2.43-.9 2.93.4 1.2 1.7.7 1.8-.3.2-.9-.1-2.2-.9-2.62z" stroke="#000" stroke-opacity="0" fill="#a2c6f6"/><path d="M1984.42 3080.6c0 .2 0 .4-.1.62 0 .4-.1.8-.2 1.1-.9 4.63-2.7 8.96-4.1 13.4-.9 2.5-1.5 5.12-1.9 7.84-.1.8-.2 1.6-.4 2.42l-.3-.1c-.3-.1-.4.4-.1.5l.3.1c-.2.5-.3 1.1-.6 1.6l-.6-.2h-.1c-.1 0-.1 0-.1.1h-.1v.1l-.1.1v.2c.1.3.2.72.4 1.02-.3.5-.5.9-.8 1.3h-.2s0 .1-.1.1c0 .1-.1.2-.1.3-.2-.6-.3-1.2-.5-1.9.2-.1.4-.3.6-.5.2-.2-.2-.6-.4-.3l-.3.3c-.1-.5-.2-1-.4-1.4l.6-.62c.3-.2-.1-.5-.3-.3-.1.1-.3.2-.4.3-.2-.9-.5-1.9-.8-2.82.3-.1.4-.3.6-.6.1-.2.1-.5.1-.7-.1-.3-.2-.5-.4-.7l-.6-.3h-.2-.2c-2.1-6.76-4.8-13.3-8.2-19.44-.2-.4-.6-1.1-.9-1.6-.2.1-.4.1-.4.2.2.3.5.9.6 1.2 3.5 6.24 6.3 12.88 8.5 19.83-.2.1-.4.3-.5.5-.1.2-.2.4-.2.7 0 .7.7 1.1 1.4 1 .3 1.12.6 2.13.8 3.13-.3.3-.5.6-.8 1-.2.2.2.5.4.3.1-.3.4-.5.6-.7l.3 1.42c-.2.3-.3.5-.5.8-.2.2.3.4.4.2.1-.1.2-.3.3-.4.1.7.1.7.3 1.4 1.4 0 .4-.1 1.3-.1.2-.3.4-.7.6-1 0 .2.1.7.3.9.2.2.4.1.5 0 .4-.3.7-.7 1-1 .2-.3 1.1-1 .6-1.4-.3-.2-.8-.2-1.1-.3l-.5-.1.6-1.52.6.2c.3.1.4-.3.1-.4-.2-.1-.4-.2-.6-.2.2-.6.3-1.1.4-1.7.4-2.83 1-5.55 1.8-8.27 1.5-4.62 3.5-9.25 4.4-14.08 0-.3.1-.6.1-.9.1-.2.1-.3.1-.4l-.5-.2zm-12.4 22.36c0-.2 0-.3.1-.4 0-.2.1-.3.2-.4.2.5.3.9.4 1.4-.3 0-.7-.2-.7-.6zm1.2.4c-.1-.4-.3-.9-.4-1.3.7 0 .9.9.4 1.3zm3.4 5.03l.2.1c0 .1-.1.2-.1.3-.1-.1-.1-.2-.1-.4zm2 .5l-.7.7c-.1.1-.5.7-.7.9l-.3-1.1c.1-.3.2-.6.3-.8h.2c.2.1 1.2.2 1.2.3z" stroke="#000" stroke-opacity="0" fill="#fad3b1"/><path d="M1974.13 3110.4c27.6 0 50-22.34 50-49.92 0-27.68-22.4-50.03-50-50.03s-50 22.35-50 50.03c0 27.58 22.4 49.93 50 49.93z" stroke="#6c6e83" fill-opacity="0"/><path d="M1889.58 3246a6 6 0 0 1 6-6H2172a6 6 0 0 1 6 6v97.33a6 6 0 0 1-6 6H1895.6a6 6 0 0 1-6-6z" stroke="#3a414a" fill="#fff"/><use xlink:href="#n" transform="matrix(1,0,0,1,1901.5757030158995,3252) translate(0 49.944444444444436)"/><use xlink:href="#o" transform="matrix(1,0,0,1,1901.5757030158995,3252) translate(177.38271604938265 49.944444444444436)"/><path d="M2785.87 3041.63a6 6 0 0 1 6-6h247a6 6 0 0 1 6 6v38.3a6 6 0 0 1-6 6h-247a6 6 0 0 1-6-6z" stroke="#6c6e83" fill="#fff"/><path d="M2826.4 3049.28h197.76v23H2826.4z" fill="none"/><g><use xlink:href="#p" transform="matrix(1,0,0,1,2826.405169906974,3049.285240660489) translate(0 17.880208333333336)"/><use xlink:href="#q" transform="matrix(1,0,0,1,2826.405169906974,3049.285240660489) translate(69.27083333333334 17.880208333333336)"/><use xlink:href="#r" transform="matrix(1,0,0,1,2826.405169906974,3049.285240660489) translate(110.01302083333334 17.880208333333336)"/></g><path d="M2754.66 3082.84v-47.1M2754.66 3082.82v.77M2754.66 3035.77v-.77" stroke="#6c6e83" stroke-width="1.5" fill="none"/><path d="M96.73 2887.66h1741.03M96.74 2887.66h-.26M1837.75 2887.66h.26" stroke="#3a414a" stroke-width=".5" fill="none"/><defs><path fill="#172b4d" d="M631-137c179 0 314-70 314-231 0-71-25-127-75-166s-141-77-272-115c-165-47-285-106-360-175s-112-154-112-255c0-245 231-397 495-397 206 0 369 89 449 218 43 68 65 142 65 223H942c0-184-129-283-321-283-172 0-299 76-301 236 0 59 26 109 76 150s135 78 256 113c205 59 345 116 436 256 35 53 50 119 50 193-2 256-231 398-507 390C333 12 90-129 80-422h193c0 187 160 285 358 285" id="s"/><path fill="#172b4d" d="M589-945c-131 0-219 81-264 174V0H140v-1536h185v585c82-101 189-151 320-151 229 0 346 129 346 387V0H806v-716c-2-153-65-229-217-229" id="t"/><path fill="#172b4d" d="M561-1102c238-4 403 126 403 351v498c0 99 13 178 38 237V0H808c-11-21-19-59-26-114C696-25 593 20 474 20c-199 0-368-130-365-320 4-251 214-359 490-356h180v-85c-1-135-86-212-229-212-115 0-232 67-233 171H131c20-205 206-316 430-320zM294-326c0 117 90 185 207 185 122 0 239-75 278-162v-222H634c-227 0-340 66-340 199" id="u"/><path fill="#172b4d" d="M663-916c-163-27-288 18-338 148V0H140v-1082h180l3 125c61-97 147-145 258-145 36 0 63 5 82 14v172" id="v"/><path fill="#172b4d" d="M599-131c141 0 220-65 285-146l113 88C906-50 770 20 589 20 281 21 93-214 93-545c0-223 93-397 233-485 74-48 154-72 240-72 300 2 449 218 445 537v77H278c0 197 129 357 321 357zm227-509c-3-180-88-310-260-310-170 0-264 140-282 310h542" id="w"/><path fill="#172b4d" d="M520 20C244 20 95-247 95-550c0-298 151-550 427-552 127 0 227 43 301 130v-564h185V0H838l-9-116C755-25 652 20 520 20zm48-965c-210 0-288 177-288 416 0 218 87 392 286 392 117 0 203-53 257-158v-497c-55-102-140-153-255-153" id="x"/><g id="a"><use transform="matrix(0.009114583333333334,0,0,0.009114583333333334,0,0)" xlink:href="#s"/><use transform="matrix(0.009114583333333334,0,0,0.009114583333333334,11.07421875,0)" xlink:href="#t"/><use transform="matrix(0.009114583333333334,0,0,0.009114583333333334,21.35546875,0)" xlink:href="#u"/><use transform="matrix(0.009114583333333334,0,0,0.009114583333333334,31.509114583333336,0)" xlink:href="#v"/><use transform="matrix(0.009114583333333334,0,0,0.009114583333333334,37.65234375,0)" xlink:href="#w"/><use transform="matrix(0.009114583333333334,0,0,0.009114583333333334,47.54166666666667,0)" xlink:href="#x"/></g><path fill="#172b4d" d="M497-251l268-831h189L566 0H425L33-1082h189" id="y"/><path fill="#172b4d" d="M341 0H156v-1082h185V0zm-91-1264c-68 0-108-42-109-105 0-62 41-107 109-107s110 44 110 107-42 105-110 105" id="z"/><path fill="#172b4d" d="M277-555c0 244 77 420 297 424 127 2 249-93 255-210h175C980-127 805 20 574 20 258 20 81-222 92-562c11-319 164-533 481-540 237-5 426 165 431 392H829c-7-133-115-242-256-240-209 4-296 166-296 395" id="A"/><path fill="#172b4d" d="M538-131c121 0 232-49 232-156 0-50-20-88-56-117-73-60-334-92-420-143-92-55-162-110-162-238 0-190 192-317 400-317 223 0 414 129 413 338H759c0-108-110-186-227-186-119 0-215 53-215 159 0 45 18 78 53 101 76 52 331 90 416 139 98 57 169 115 169 251C955-92 760 20 538 20c-176 0-314-68-386-174-38-55-57-115-57-179h185c6 129 116 202 258 202" id="B"/><g id="b"><use transform="matrix(0.009114583333333334,0,0,0.009114583333333334,0,0)" xlink:href="#s"/><use transform="matrix(0.009114583333333334,0,0,0.009114583333333334,11.07421875,0)" xlink:href="#w"/><use transform="matrix(0.009114583333333334,0,0,0.009114583333333334,20.963541666666668,0)" xlink:href="#v"/><use transform="matrix(0.009114583333333334,0,0,0.009114583333333334,27.444010416666668,0)" xlink:href="#y"/><use transform="matrix(0.009114583333333334,0,0,0.009114583333333334,36.485677083333336,0)" xlink:href="#z"/><use transform="matrix(0.009114583333333334,0,0,0.009114583333333334,41.015625,0)" xlink:href="#A"/><use transform="matrix(0.009114583333333334,0,0,0.009114583333333334,50.786458333333336,0)" xlink:href="#w"/><use transform="matrix(0.009114583333333334,0,0,0.009114583333333334,60.67578125000001,0)" xlink:href="#B"/></g><path fill="#172b4d" d="M1240-945c-141 0-250 95-250 227V0H804v-709c0-157-77-236-231-236-121 0-204 52-249 155V0H139v-1082h175l5 120c79-93 186-140 321-140 151 0 254 58 309 174 69-98 181-174 345-174 237 0 362 126 362 377V0h-185v-714c-2-159-67-231-231-231" id="C"/><path fill="#172b4d" d="M589-945c-131 0-219 81-264 174V0H140v-1082h175l6 136c83-104 191-156 324-156 229 0 346 129 346 387V0H806v-716c-2-153-65-229-217-229" id="D"/><g id="c"><use transform="matrix(0.009114583333333334,0,0,0.009114583333333334,0,0)" xlink:href="#u"/><use transform="matrix(0.009114583333333334,0,0,0.009114583333333334,10.153645833333334,0)" xlink:href="#x"/><use transform="matrix(0.009114583333333334,0,0,0.009114583333333334,20.680989583333336,0)" xlink:href="#C"/><use transform="matrix(0.009114583333333334,0,0,0.009114583333333334,37.04166666666667,0)" xlink:href="#z"/><use transform="matrix(0.009114583333333334,0,0,0.009114583333333334,41.571614583333336,0)" xlink:href="#D"/></g><path fill="#172b4d" d="M688-137c238 0 323-102 359-325h193c-32 297-228 482-552 482-361 0-569-299-569-680 0-197 8-360 73-497 88-186 257-317 513-319 316-2 509 195 535 488h-193c-31-212-118-330-342-330-272 0-397 224-393 523v141c-3 282 115 517 376 517" id="E"/><path fill="#172b4d" d="M584 20C278 26 81-227 91-551c10-320 175-545 491-551 308-5 503 247 494 573-9 322-175 543-492 549zm-2-970c-208 0-305 185-305 421 0 216 106 398 307 398 211 0 307-186 307-420 0-214-109-399-309-399" id="F"/><path fill="#172b4d" d="M704-1390c-164-38-297 28-288 194v114h231v143H416V0H231v-939H60v-143h171v-111c-12-274 208-416 483-347" id="G"/><path fill="#172b4d" d="M521 20C240 20 96-239 96-550c0-303 147-552 427-552 132 0 235 47 309 140l9-120h169V-26c4 277-183 454-459 452-165-1-334-81-400-187l96-111c79 98 176 147 291 147 180 1 288-109 286-290v-93C750-23 649 20 521 20zm48-965c-209 0-287 178-287 416 0 217 86 392 285 392 117 0 202-53 257-159v-494c-57-103-142-155-255-155" id="H"/><path fill="#172b4d" d="M491 20c-241-1-355-148-355-398v-704h185v699c0 164 67 246 200 246 141 0 235-53 282-158v-787h185V0H812l-4-107C736-22 630 20 491 20" id="I"/><g id="d"><use transform="matrix(0.009114583333333334,0,0,0.009114583333333334,0,0)" xlink:href="#E"/><use transform="matrix(0.009114583333333334,0,0,0.009114583333333334,12.149739583333334,0)" xlink:href="#F"/><use transform="matrix(0.009114583333333334,0,0,0.009114583333333334,22.795572916666668,0)" xlink:href="#D"/><use transform="matrix(0.009114583333333334,0,0,0.009114583333333334,33.095052083333336,0)" xlink:href="#G"/><use transform="matrix(0.009114583333333334,0,0,0.009114583333333334,39.575520833333336,0)" xlink:href="#z"/><use transform="matrix(0.009114583333333334,0,0,0.009114583333333334,44.10546875,0)" xlink:href="#H"/><use transform="matrix(0.009114583333333334,0,0,0.009114583333333334,54.578125,0)" xlink:href="#I"/><use transform="matrix(0.009114583333333334,0,0,0.009114583333333334,64.86848958333333,0)" xlink:href="#v"/><use transform="matrix(0.009114583333333334,0,0,0.009114583333333334,71.01171875,0)" xlink:href="#w"/></g><path fill="#172b4d" d="M456 20C285 20 205-92 206-268v-671H9v-143h197v-262h185v262h202v143H391v671c-9 125 92 149 207 118V0c-49 13-96 20-142 20" id="J"/><g id="e"><use transform="matrix(0.009114583333333334,0,0,0.009114583333333334,0,0)" xlink:href="#z"/><use transform="matrix(0.009114583333333334,0,0,0.009114583333333334,4.529947916666667,0)" xlink:href="#D"/><use transform="matrix(0.009114583333333334,0,0,0.009114583333333334,14.829427083333336,0)" xlink:href="#J"/><use transform="matrix(0.009114583333333334,0,0,0.009114583333333334,20.927083333333336,0)" xlink:href="#w"/><use transform="matrix(0.009114583333333334,0,0,0.009114583333333334,30.816406250000004,0)" xlink:href="#H"/><use transform="matrix(0.009114583333333334,0,0,0.009114583333333334,41.2890625,0)" xlink:href="#v"/><use transform="matrix(0.009114583333333334,0,0,0.009114583333333334,47.240885416666664,0)" xlink:href="#u"/><use transform="matrix(0.009114583333333334,0,0,0.009114583333333334,57.39453125000001,0)" xlink:href="#J"/><use transform="matrix(0.009114583333333334,0,0,0.009114583333333334,63.49218750000001,0)" xlink:href="#z"/><use transform="matrix(0.009114583333333334,0,0,0.009114583333333334,68.02213541666667,0)" xlink:href="#F"/><use transform="matrix(0.009114583333333334,0,0,0.009114583333333334,78.66796875,0)" xlink:href="#D"/><use transform="matrix(0.009114583333333334,0,0,0.009114583333333334,88.96744791666667,0)" xlink:href="#B"/></g><path fill="#172b4d" d="M319-664C304-226 428 158 661 357l-38 113c-89-49-172-133-254-248C142-97 71-578 194-1025c67-244 240-513 429-618l38 122c-201 153-330 502-342 857" id="K"/><path fill="#172b4d" d="M632-1102c291 0 422 251 422 573 0 297-141 548-419 549-131 0-235-42-310-125v521H140v-1498h169l9 120c75-93 180-140 314-140zm-53 971c207 0 290-180 290-419 0-218-92-395-292-395-112 0-196 50-252 149v517c55 99 140 148 254 148" id="L"/><path fill="#172b4d" d="M341 0H156v-1536h185V0" id="M"/><path fill="#172b4d" d="M38 357C331 141 457-487 337-984c-53-219-157-429-299-546l39-113c190 106 362 378 431 621 75 268 76 597 0 868C440 88 266 365 77 470" id="N"/><g id="f"><use transform="matrix(0.009114583333333334,0,0,0.009114583333333334,0,0)" xlink:href="#K"/><use transform="matrix(0.009114583333333334,0,0,0.009114583333333334,6.380208333333334,0)" xlink:href="#F"/><use transform="matrix(0.009114583333333334,0,0,0.009114583333333334,17.026041666666668,0)" xlink:href="#L"/><use transform="matrix(0.009114583333333334,0,0,0.009114583333333334,27.498697916666668,0)" xlink:href="#J"/><use transform="matrix(0.009114583333333334,0,0,0.009114583333333334,33.59635416666667,0)" xlink:href="#z"/><use transform="matrix(0.009114583333333334,0,0,0.009114583333333334,38.126302083333336,0)" xlink:href="#F"/><use transform="matrix(0.009114583333333334,0,0,0.009114583333333334,48.77213541666667,0)" xlink:href="#D"/><use transform="matrix(0.009114583333333334,0,0,0.009114583333333334,59.07161458333334,0)" xlink:href="#u"/><use transform="matrix(0.009114583333333334,0,0,0.009114583333333334,69.22526041666667,0)" xlink:href="#M"/><use transform="matrix(0.009114583333333334,0,0,0.009114583333333334,73.75520833333334,0)" xlink:href="#N"/></g><path fill="#172b4d" d="M651-255l416-1201h210L737 0H567L28-1456h209" id="O"/><path fill="#172b4d" d="M1098-255l208-827h185L1176 0h-150L763-820 507 0H357L43-1082h184l213 810 252-810h149" id="P"/><g id="g"><use transform="matrix(0.009114583333333334,0,0,0.009114583333333334,0,0)" xlink:href="#O"/><use transform="matrix(0.009114583333333334,0,0,0.009114583333333334,11.876302083333334,0)" xlink:href="#z"/><use transform="matrix(0.009114583333333334,0,0,0.009114583333333334,16.40625,0)" xlink:href="#w"/><use transform="matrix(0.009114583333333334,0,0,0.009114583333333334,26.295572916666668,0)" xlink:href="#P"/></g><path fill="#172b4d" d="M494-271l252-811h198L509 167C425 381 299 474 84 421V271c167 16 242-37 283-173l41-110L22-1082h202" id="Q"/><g id="h"><use transform="matrix(0.009114583333333334,0,0,0.009114583333333334,0,0)" xlink:href="#B"/><use transform="matrix(0.009114583333333334,0,0,0.009114583333333334,9.625,0)" xlink:href="#Q"/><use transform="matrix(0.009114583333333334,0,0,0.009114583333333334,18.45703125,0)" xlink:href="#B"/><use transform="matrix(0.009114583333333334,0,0,0.009114583333333334,28.082031250000004,0)" xlink:href="#J"/><use transform="matrix(0.009114583333333334,0,0,0.009114583333333334,34.1796875,0)" xlink:href="#w"/><use transform="matrix(0.009114583333333334,0,0,0.009114583333333334,44.06901041666667,0)" xlink:href="#C"/></g><g id="i"><use transform="matrix(0.009114583333333334,0,0,0.009114583333333334,0,0)" xlink:href="#u"/><use transform="matrix(0.009114583333333334,0,0,0.009114583333333334,10.153645833333334,0)" xlink:href="#A"/><use transform="matrix(0.009114583333333334,0,0,0.009114583333333334,19.924479166666668,0)" xlink:href="#J"/><use transform="matrix(0.009114583333333334,0,0,0.009114583333333334,26.022135416666668,0)" xlink:href="#z"/><use transform="matrix(0.009114583333333334,0,0,0.009114583333333334,30.552083333333336,0)" xlink:href="#y"/><use transform="matrix(0.009114583333333334,0,0,0.009114583333333334,39.59375,0)" xlink:href="#z"/><use transform="matrix(0.009114583333333334,0,0,0.009114583333333334,44.123697916666664,0)" xlink:href="#J"/><use transform="matrix(0.009114583333333334,0,0,0.009114583333333334,50.221354166666664,0)" xlink:href="#z"/><use transform="matrix(0.009114583333333334,0,0,0.009114583333333334,54.75130208333333,0)" xlink:href="#w"/><use transform="matrix(0.009114583333333334,0,0,0.009114583333333334,64.640625,0)" xlink:href="#B"/></g><g id="j"><use transform="matrix(0.009114583333333334,0,0,0.009114583333333334,0,0)" xlink:href="#u"/><use transform="matrix(0.009114583333333334,0,0,0.009114583333333334,10.153645833333334,0)" xlink:href="#D"/><use transform="matrix(0.009114583333333334,0,0,0.009114583333333334,20.453125,0)" xlink:href="#x"/></g><g id="k"><use transform="matrix(0.009114583333333334,0,0,0.009114583333333334,0,0)" xlink:href="#H"/><use transform="matrix(0.009114583333333334,0,0,0.009114583333333334,10.47265625,0)" xlink:href="#w"/><use transform="matrix(0.009114583333333334,0,0,0.009114583333333334,20.361979166666668,0)" xlink:href="#D"/><use transform="matrix(0.009114583333333334,0,0,0.009114583333333334,30.661458333333336,0)" xlink:href="#w"/><use transform="matrix(0.009114583333333334,0,0,0.009114583333333334,40.55078125,0)" xlink:href="#v"/><use transform="matrix(0.009114583333333334,0,0,0.009114583333333334,46.502604166666664,0)" xlink:href="#u"/><use transform="matrix(0.009114583333333334,0,0,0.009114583333333334,56.65625000000001,0)" xlink:href="#J"/><use transform="matrix(0.009114583333333334,0,0,0.009114583333333334,62.75390625000001,0)" xlink:href="#w"/></g><g id="l"><use transform="matrix(0.009114583333333334,0,0,0.009114583333333334,0,0)" xlink:href="#v"/><use transform="matrix(0.009114583333333334,0,0,0.009114583333333334,6.143229166666667,0)" xlink:href="#w"/><use transform="matrix(0.009114583333333334,0,0,0.009114583333333334,16.032552083333336,0)" xlink:href="#L"/><use transform="matrix(0.009114583333333334,0,0,0.009114583333333334,26.505208333333336,0)" xlink:href="#F"/><use transform="matrix(0.009114583333333334,0,0,0.009114583333333334,37.15104166666667,0)" xlink:href="#v"/><use transform="matrix(0.009114583333333334,0,0,0.009114583333333334,43.923177083333336,0)" xlink:href="#J"/><use transform="matrix(0.009114583333333334,0,0,0.009114583333333334,50.020833333333336,0)" xlink:href="#B"/></g><path fill="#172b4d" d="M973-380H363L226 0H28l556-1456h168L1309 0h-197zM421-538h495l-248-681" id="R"/><g id="m"><use transform="matrix(0.008680555555555556,0,0,0.008680555555555556,0,0)" xlink:href="#R"/><use transform="matrix(0.008680555555555556,0,0,0.008680555555555556,11.597222222222223,0)" xlink:href="#I"/><use transform="matrix(0.008680555555555556,0,0,0.008680555555555556,21.397569444444446,0)" xlink:href="#x"/><use transform="matrix(0.008680555555555556,0,0,0.008680555555555556,31.423611111111114,0)" xlink:href="#z"/><use transform="matrix(0.008680555555555556,0,0,0.008680555555555556,35.73784722222223,0)" xlink:href="#J"/><use transform="matrix(0.008680555555555556,0,0,0.008680555555555556,41.37152777777778,0)" xlink:href="#F"/><use transform="matrix(0.008680555555555556,0,0,0.008680555555555556,51.51041666666667,0)" xlink:href="#v"/></g><path fill="#3a414a" d="M24-248c93 1 206-16 204 79-1 75-69 88-152 82V0H24v-248zm52 121c47 0 100 7 100-41 0-47-54-39-100-39v80" id="S"/><path fill="#3a414a" d="M135-150c-39-12-60 13-60 57V0H25l-1-190h47c2 13-1 29 3 40 6-28 27-53 61-41v41" id="T"/><path fill="#3a414a" d="M25-224v-37h50v37H25zM25 0v-190h50V0H25" id="U"/><path fill="#3a414a" d="M128 0H69L1-190h53L99-40l48-150h52" id="V"/><path fill="#3a414a" d="M67-125c0 53 21 87 73 88 37 1 54-22 65-47l45 17C233-25 199 4 140 4 58 4 20-42 15-125 8-235 124-281 211-232c18 10 29 29 36 50l-46 12c-8-25-30-41-62-41-52 0-71 34-72 86" id="W"/><path fill="#3a414a" d="M25 0v-261h50V0H25" id="X"/><path fill="#3a414a" d="M110-194c64 0 96 36 96 99 0 64-35 99-97 99-61 0-95-36-95-99 0-62 34-99 96-99zm-1 164c35 0 45-28 45-65 0-40-10-65-43-65-34 0-45 26-45 65 0 36 10 65 43 65" id="Y"/><path fill="#3a414a" d="M85 4C-2 5 27-109 22-190h50c7 57-23 150 33 157 60-5 35-97 40-157h50l1 190h-47c-2-12 1-28-3-38-12 25-28 42-61 42" id="Z"/><path fill="#3a414a" d="M88-194c31-1 46 15 58 34l-1-101h50l1 261h-48c-2-10 0-23-3-31C134-8 116 4 84 4 32 4 16-41 15-95c0-56 19-97 73-99zm17 164c33 0 40-30 41-66 1-37-9-64-41-64s-38 30-39 65c0 43 13 65 39 65" id="aa"/><g id="n"><use transform="matrix(0.0987654320987654,0,0,0.0987654320987654,0,0)" xlink:href="#S"/><use transform="matrix(0.0987654320987654,0,0,0.0987654320987654,23.703703703703695,0)" xlink:href="#T"/><use transform="matrix(0.0987654320987654,0,0,0.0987654320987654,37.53086419753085,0)" xlink:href="#U"/><use transform="matrix(0.0987654320987654,0,0,0.0987654320987654,47.40740740740739,0)" xlink:href="#V"/><use transform="matrix(0.0987654320987654,0,0,0.0987654320987654,67.16049382716047,0)" xlink:href="#W"/><use transform="matrix(0.0987654320987654,0,0,0.0987654320987654,92.7407407407407,0)" xlink:href="#X"/><use transform="matrix(0.0987654320987654,0,0,0.0987654320987654,102.61728395061725,0)" xlink:href="#Y"/><use transform="matrix(0.0987654320987654,0,0,0.0987654320987654,124.24691358024687,0)" xlink:href="#Z"/><use transform="matrix(0.0987654320987654,0,0,0.0987654320987654,145.8765432098765,0)" xlink:href="#aa"/></g><path fill="#3a414a" d="M14-72v-43h91v43H14" id="ab"/><path fill="#3a414a" d="M169-182c-1-43-94-46-97-3 18 66 151 10 154 114 3 95-165 93-204 36-6-8-10-19-12-30l50-8c3 46 112 56 116 5-17-69-150-10-154-114-4-87 153-88 188-35 5 8 8 18 10 28" id="ac"/><g id="o"><use transform="matrix(0.0987654320987654,0,0,0.0987654320987654,0,0)" xlink:href="#ab"/><use transform="matrix(0.0987654320987654,0,0,0.0987654320987654,11.753086419753082,0)" xlink:href="#ac"/><use transform="matrix(0.0987654320987654,0,0,0.0987654320987654,35.45679012345678,0)" xlink:href="#ac"/></g><path fill="#172b4d" d="M417-1456L893-268l476-1188h249V0h-192c-4-403 4-794 18-1179L966 0H819L342-1176c15 384 23 773 19 1176H169v-1456h248" id="ad"/><g id="p"><use transform="matrix(0.009114583333333334,0,0,0.009114583333333334,0,0)" xlink:href="#ad"/><use transform="matrix(0.009114583333333334,0,0,0.009114583333333334,16.296875,0)" xlink:href="#F"/><use transform="matrix(0.009114583333333334,0,0,0.009114583333333334,26.942708333333336,0)" xlink:href="#D"/><use transform="matrix(0.009114583333333334,0,0,0.009114583333333334,37.2421875,0)" xlink:href="#z"/><use transform="matrix(0.009114583333333334,0,0,0.009114583333333334,41.772135416666664,0)" xlink:href="#J"/><use transform="matrix(0.009114583333333334,0,0,0.009114583333333334,47.6875,0)" xlink:href="#F"/><use transform="matrix(0.009114583333333334,0,0,0.009114583333333334,58.333333333333336,0)" xlink:href="#v"/></g><g id="q"><use transform="matrix(0.009114583333333334,0,0,0.009114583333333334,0,0)" xlink:href="#I"/><use transform="matrix(0.009114583333333334,0,0,0.009114583333333334,10.290364583333334,0)" xlink:href="#B"/><use transform="matrix(0.009114583333333334,0,0,0.009114583333333334,19.915364583333336,0)" xlink:href="#w"/><use transform="matrix(0.009114583333333334,0,0,0.009114583333333334,29.804687500000004,0)" xlink:href="#v"/></g><g id="r"><use transform="matrix(0.009114583333333334,0,0,0.009114583333333334,0,0)" xlink:href="#B"/><use transform="matrix(0.009114583333333334,0,0,0.009114583333333334,9.625,0)" xlink:href="#w"/><use transform="matrix(0.009114583333333334,0,0,0.009114583333333334,19.514322916666668,0)" xlink:href="#B"/><use transform="matrix(0.009114583333333334,0,0,0.009114583333333334,29.139322916666668,0)" xlink:href="#B"/><use transform="matrix(0.009114583333333334,0,0,0.009114583333333334,38.76432291666667,0)" xlink:href="#z"/><use transform="matrix(0.009114583333333334,0,0,0.009114583333333334,43.294270833333336,0)" xlink:href="#F"/><use transform="matrix(0.009114583333333334,0,0,0.009114583333333334,53.94010416666667,0)" xlink:href="#D"/><use transform="matrix(0.009114583333333334,0,0,0.009114583333333334,64.23958333333334,0)" xlink:href="#B"/></g></defs></g></svg>