<svg xmlns="http://www.w3.org/2000/svg" xmlns:xlink="http://www.w3.org/1999/xlink" xmlns:lucid="lucid" width="1659" height="1387"><g transform="translate(-144 -5992)" lucid:page-tab-id="0_0"><path d="M191.8 6046.85a6 6 0 0 1 6-6h1551a6 6 0 0 1 6 6v222.85a6 6 0 0 1-6 6h-1551a6 6 0 0 1-6-6z" fill="#e0e8f5"/><path d="M212.8 6040.85h14.97m7.5 0h14.98m7.5 0h14.98m7.5 0h14.98m7.5 0h15m7.48 0h14.98m7.5 0h14.98m7.5 0h14.98m7.5 0h14.98m7.5 0h14.98m7.5 0h14.98m7.5 0h14.97m7.5 0h14.98m7.5 0h15m7.48 0h15m7.48 0h15m7.48 0h14.98m7.5 0h14.98m7.5 0h14.98m7.5 0h14.98m7.5 0h14.98m7.5 0h14.98m7.5 0h14.97m7.5 0h14.97m7.5 0h14.98m7.5 0h14.98m7.5 0h14.98m7.5 0h14.98m7.5 0h14.98m7.5 0h14.98m7.5 0h14.98m7.5 0h14.98m7.5 0h14.98m7.5 0h14.97m7.5 0h14.98m7.5 0h14.98m7.5 0h15m7.48 0h15m7.48 0h15m7.48 0h14.98m7.5 0h14.98m7.5 0h14.98m7.5 0h14.98m7.5 0h14.98m7.5 0h14.98m7.5 0h14.97m7.5 0h14.97m7.5 0h14.98m7.5 0h14.98m7.5 0h14.98m7.5 0h14.98m7.5 0h14.98m7.5 0h14.98m7.5 0h14.98m7.5 0h14.98m7.5 0h14.98m7.5 0h14.98m7.5 0h14.97m7.5 0h14.98m7.5 0h15m7.48 0h15m7.48 0h15m7.48 0h14.98m7.5 0h14.98m7.5 0h14.98m7.5 0h14.98m7.5 0h14.98m7.5 0h14.98m7.5 0h7.48l.94.07.9.22.88.36.8.5.72.6.62.72.5.8.35.87.23.9.07.95v7.42m0 7.43v14.86m0 7.43v14.85m0 7.42v14.86m0 7.43v14.85m0 7.44v14.86m0 7.43V6188m0 7.4v14.87m0 7.43v14.86m0 7.42v14.86m0 7.43v7.43l-.07.94-.22.9-.35.88-.5.8-.6.72-.72.6-.8.5-.88.36-.9.22-.95.08h-7.5m-7.48 0h-15m-7.48 0h-15m-7.48 0h-15m-7.48 0h-15m-7.48 0h-14.98m-7.5 0h-14.98m-7.5 0h-14.98m-7.5 0h-14.98m-7.5 0H1539m-7.5 0h-14.97m-7.5 0h-14.98m-7.5 0h-14.98m-7.5 0h-14.98m-7.5 0h-15m-7.48 0h-15m-7.48 0h-14.98m-7.5 0h-14.98m-7.5 0h-14.98m-7.5 0h-14.98m-7.5 0h-14.98m-7.5 0h-14.97m-7.5 0h-14.98m-7.5 0h-15m-7.48 0h-15m-7.48 0h-15m-7.48 0h-15m-7.48 0h-15m-7.48 0h-14.98m-7.5 0h-14.98m-7.5 0h-14.98m-7.5 0h-14.98m-7.5 0H1022m-7.5 0h-14.97m-7.5 0h-14.98m-7.5 0h-14.98m-7.5 0H932.1m-7.5 0h-15m-7.48 0h-15m-7.48 0h-14.98m-7.5 0h-14.98m-7.5 0H819.7m-7.5 0h-14.98m-7.5 0h-14.98m-7.5 0h-14.98m-7.5 0H729.8m-7.5 0h-15m-7.48 0h-15m-7.48 0h-15m-7.48 0h-15m-7.48 0h-15m-7.48 0h-14.98m-7.5 0h-14.98m-7.5 0h-14.98m-7.5 0H527.5m-7.5 0H505m-7.5 0h-14.97m-7.5 0h-14.98m-7.5 0h-14.98m-7.5 0H415.1m-7.5 0h-15m-7.48 0h-15m-7.48 0h-14.98m-7.5 0h-14.98m-7.5 0H302.7m-7.5 0h-14.98m-7.5 0h-14.98m-7.5 0h-14.98m-7.5 0H212.8m-7.5 0h-7.5l-.94-.08-.9-.22-.88-.36-.8-.5-.72-.6-.6-.7-.5-.82-.37-.87-.22-.9-.08-.95v-7.43m0-7.43v-14.86m0-7.42v-14.86m0-7.43v-14.86m0-7.4v-14.87m0-7.43v-14.86m0-7.43v-14.84m0-7.43v-14.86m0-7.43V6084m0-7.44v-14.86m0-7.43v-7.42l.07-.94.22-.9.36-.88.5-.8.6-.72.72-.6.8-.5.87-.36.9-.22.95-.07h7.5" stroke="#2f3564" stroke-width="1.5" fill="none"/><path d="M191.8 6573.16a6 6 0 0 1 6-6h1551a6 6 0 0 1 6 6V6796a6 6 0 0 1-6 6h-1551a6 6 0 0 1-6-6z" fill="#e0e8f5"/><path d="M212.8 6567.16h14.97m7.5 0h14.98m7.5 0h14.98m7.5 0h14.98m7.5 0h15m7.48 0h14.98m7.5 0h14.98m7.5 0h14.98m7.5 0h14.98m7.5 0h14.98m7.5 0h14.98m7.5 0h14.97m7.5 0h14.98m7.5 0h15m7.48 0h15m7.48 0h15m7.48 0h14.98m7.5 0h14.98m7.5 0h14.98m7.5 0h14.98m7.5 0h14.98m7.5 0h14.98m7.5 0h14.97m7.5 0h14.97m7.5 0h14.98m7.5 0h14.98m7.5 0h14.98m7.5 0h14.98m7.5 0h14.98m7.5 0h14.98m7.5 0h14.98m7.5 0h14.98m7.5 0h14.98m7.5 0h14.97m7.5 0h14.98m7.5 0h14.98m7.5 0h15m7.48 0h15m7.48 0h15m7.48 0h14.98m7.5 0h14.98m7.5 0h14.98m7.5 0h14.98m7.5 0h14.98m7.5 0h14.98m7.5 0h14.97m7.5 0h14.97m7.5 0h14.98m7.5 0h14.98m7.5 0h14.98m7.5 0h14.98m7.5 0h14.98m7.5 0h14.98m7.5 0h14.98m7.5 0h14.98m7.5 0h14.98m7.5 0h14.98m7.5 0h14.97m7.5 0h14.98m7.5 0h15m7.48 0h15m7.48 0h15m7.48 0h14.98m7.5 0h14.98m7.5 0h14.98m7.5 0h14.98m7.5 0h14.98m7.5 0h14.98m7.5 0h7.48l.94.07.9.22.88.36.8.5.72.6.62.73.5.8.35.87.23.92.07.94v7.42m0 7.43v14.87m0 7.43v14.85m0 7.43v14.86m0 7.43v14.86m0 7.42V6692m0 7.44v14.86m0 7.42v14.86m0 7.43v14.86m0 7.43v14.85m0 7.43v7.43l-.07.95-.22.9-.35.88-.5.8-.6.72-.72.6-.8.5-.88.36-.9.23-.95.08h-7.5m-7.48 0h-15m-7.48 0h-15m-7.48 0h-15m-7.48 0h-15m-7.48 0h-14.98m-7.5 0h-14.98m-7.5 0h-14.98m-7.5 0h-14.98m-7.5 0H1539m-7.5 0h-14.97m-7.5 0h-14.98m-7.5 0h-14.98m-7.5 0h-14.98m-7.5 0h-15m-7.48 0h-15m-7.48 0h-14.98m-7.5 0h-14.98m-7.5 0h-14.98m-7.5 0h-14.98m-7.5 0h-14.98m-7.5 0h-14.97m-7.5 0h-14.98m-7.5 0h-15m-7.48 0h-15m-7.48 0h-15m-7.48 0h-15m-7.48 0h-15m-7.48 0h-14.98m-7.5 0h-14.98m-7.5 0h-14.98m-7.5 0h-14.98m-7.5 0H1022m-7.5 0h-14.97m-7.5 0h-14.98m-7.5 0h-14.98m-7.5 0H932.1m-7.5 0h-15m-7.48 0h-15m-7.48 0h-14.98m-7.5 0h-14.98m-7.5 0H819.7m-7.5 0h-14.98m-7.5 0h-14.98m-7.5 0h-14.98m-7.5 0H729.8m-7.5 0h-15m-7.48 0h-15m-7.48 0h-15m-7.48 0h-15m-7.48 0h-15m-7.48 0h-14.98m-7.5 0h-14.98m-7.5 0h-14.98m-7.5 0H527.5m-7.5 0H505m-7.5 0h-14.97m-7.5 0h-14.98m-7.5 0h-14.98m-7.5 0H415.1m-7.5 0h-15m-7.48 0h-15m-7.48 0h-14.98m-7.5 0h-14.98m-7.5 0H302.7m-7.5 0h-14.98m-7.5 0h-14.98m-7.5 0h-14.98m-7.5 0H212.8m-7.5 0h-7.5l-.94-.07-.9-.22-.88-.35-.8-.5-.72-.6-.6-.72-.5-.8-.37-.87-.22-.9-.08-.95v-7.42m0-7.43v-14.86m0-7.44V6744m0-7.42v-14.86m0-7.43v-14.86m0-7.43v-14.85m0-7.42v-14.86m0-7.43v-14.86m0-7.43v-14.85m0-7.43V6588m0-7.42v-7.42l.07-.94.22-.92.36-.87.5-.8.6-.72.72-.6.8-.5.87-.35.9-.22.95-.07h7.5" stroke="#2f3564" stroke-width="1.5" fill="none"/><path d="M191.8 6835.86a6 6 0 0 1 6-6h1551a6 6 0 0 1 6 6v222.86a6 6 0 0 1-6 6h-1551a6 6 0 0 1-6-6z" fill="#e0e8f5"/><path d="M212.8 6829.86h14.97m7.5 0h14.98m7.5 0h14.98m7.5 0h14.98m7.5 0h15m7.48 0h14.98m7.5 0h14.98m7.5 0h14.98m7.5 0h14.98m7.5 0h14.98m7.5 0h14.98m7.5 0h14.97m7.5 0h14.98m7.5 0h15m7.48 0h15m7.48 0h15m7.48 0h14.98m7.5 0h14.98m7.5 0h14.98m7.5 0h14.98m7.5 0h14.98m7.5 0h14.98m7.5 0h14.97m7.5 0h14.97m7.5 0h14.98m7.5 0h14.98m7.5 0h14.98m7.5 0h14.98m7.5 0h14.98m7.5 0h14.98m7.5 0h14.98m7.5 0h14.98m7.5 0h14.98m7.5 0h14.97m7.5 0h14.98m7.5 0h14.98m7.5 0h15m7.48 0h15m7.48 0h15m7.48 0h14.98m7.5 0h14.98m7.5 0h14.98m7.5 0h14.98m7.5 0h14.98m7.5 0h14.98m7.5 0h14.97m7.5 0h14.97m7.5 0h14.98m7.5 0h14.98m7.5 0h14.98m7.5 0h14.98m7.5 0h14.98m7.5 0h14.98m7.5 0h14.98m7.5 0h14.98m7.5 0h14.98m7.5 0h14.98m7.5 0h14.97m7.5 0h14.98m7.5 0h15m7.48 0h15m7.48 0h15m7.48 0h14.98m7.5 0h14.98m7.5 0h14.98m7.5 0h14.98m7.5 0h14.98m7.5 0h14.98m7.5 0h7.48l.94.08.9.22.88.36.8.5.72.6.62.72.5.8.35.87.23.93.07.93v7.43m0 7.42v14.86m0 7.43v14.86m0 7.43v14.85m0 7.43v14.85m0 7.43v14.86m0 7.43V6977m0 7.43v14.86m0 7.42v14.85m0 7.43v14.86m0 7.43v7.42l-.07.93-.22.92-.35.87-.5.8-.6.72-.72.6-.8.5-.88.36-.9.22-.95.08h-7.5m-7.48 0h-15m-7.48 0h-15m-7.48 0h-15m-7.48 0h-15m-7.48 0h-14.98m-7.5 0h-14.98m-7.5 0h-14.98m-7.5 0h-14.98m-7.5 0H1539m-7.5 0h-14.97m-7.5 0h-14.98m-7.5 0h-14.98m-7.5 0h-14.98m-7.5 0h-15m-7.48 0h-15m-7.48 0h-14.98m-7.5 0h-14.98m-7.5 0h-14.98m-7.5 0h-14.98m-7.5 0h-14.98m-7.5 0h-14.97m-7.5 0h-14.98m-7.5 0h-15m-7.48 0h-15m-7.48 0h-15m-7.48 0h-15m-7.48 0h-15m-7.48 0h-14.98m-7.5 0h-14.98m-7.5 0h-14.98m-7.5 0h-14.98m-7.5 0H1022m-7.5 0h-14.97m-7.5 0h-14.98m-7.5 0h-14.98m-7.5 0H932.1m-7.5 0h-15m-7.48 0h-15m-7.48 0h-14.98m-7.5 0h-14.98m-7.5 0H819.7m-7.5 0h-14.98m-7.5 0h-14.98m-7.5 0h-14.98m-7.5 0H729.8m-7.5 0h-15m-7.48 0h-15m-7.48 0h-15m-7.48 0h-15m-7.48 0h-15m-7.48 0h-14.98m-7.5 0h-14.98m-7.5 0h-14.98m-7.5 0H527.5m-7.5 0H505m-7.5 0h-14.97m-7.5 0h-14.98m-7.5 0h-14.98m-7.5 0H415.1m-7.5 0h-15m-7.48 0h-15m-7.48 0h-14.98m-7.5 0h-14.98m-7.5 0H302.7m-7.5 0h-14.98m-7.5 0h-14.98m-7.5 0h-14.98m-7.5 0H212.8m-7.5 0h-7.5l-.94-.08-.9-.22-.88-.36-.8-.5-.72-.6-.6-.72-.5-.8-.37-.87-.22-.9-.08-.95v-7.43m0-7.44V7029m0-7.43v-14.85m0-7.43v-14.87m0-7.43v-14.85m0-7.43v-14.86m0-7.43v-14.85m0-7.43v-14.86m0-7.44V6873m0-7.42v-14.86m0-7.43v-7.44l.07-.93.22-.92.36-.86.5-.8.6-.72.72-.6.8-.5.87-.36.9-.22.95-.08h7.5" stroke="#2f3564" stroke-width="1.5" fill="none"/><path d="M289.5 6946.67a19.5 19.5 0 0 1 19.5-19.5h141a19.5 19.5 0 0 1 19.5 19.5 19.5 19.5 0 0 1-19.5 19.5H309a19.5 19.5 0 0 1-19.5-19.5z" stroke="#6c6e83" fill="#fff"/><path d="M353.83 6934.17h100v23h-100z" fill="none"/><use xlink:href="#a" transform="matrix(1,0,0,1,353.8259328770493,6934.170594494866) translate(0 17.880208333333332)"/><path d="M279.5 6997.1c27.6 0 50-22.4 50-50 0-27.62-22.4-50-50-50s-50 22.38-50 50c0 27.6 22.4 50 50 50z" stroke="#6c6e83" fill="#a2c6f6"/><path d="M296.2 6936.45c.3-2 .7-4.12.8-6.13.1-1.8-.1-3.7-.8-5.42-.8-1.9-2.1-3.3-3.5-4.72.8-.2 1.6-.6 2.3-1.2.7-.7 1.2-1.7 1.2-2.8 0-.62-.2-1.02-.4-1.52s-.2-.8-.1-1.3v-.7c-.4-.9-1.7-1.5-2.5-1.92-.8-.3-1.6-.5-2.5-.6-.3-.8-1.3-1.3-2.2-1.4-.7-.2-1.5-.2-2.2 0-.9.3-1.6.8-2.5 1.2-.8.4-1.8.5-2.6.8-.7.3-1.3.7-1.8 1.2-.7.6-1 1.3-1.3 2.12-1.6-.3-3.3-.4-4.9-.1-.9.2-1.6.6-2.3 1.1-1 .5-2 .7-2.9 1.2-.7.3-1.2.9-1.8 1.5-.7.8-1.6 1.32-2.4 2.02-.8.6-1.4 1.5-1.8 2.5-.7 1-1.1 2.12-1.5 3.32-.3 1.2-.6 2.4-.9 3.72-.3 1.2-.6 2.5-.7 3.7-.1 2.12.4 4.03 1.6 5.53v.1l.2.2c.1.1.2.1.2 0 2.1.9 4 1.9 5.9 3.22 1.8 1.3 3.6 2.8 5.4 4.32 3.5 2.9 6.3 6.6 9.9 9.42 1.3 1 2.9 2.4 4.7 2 1.7-.4 2.8-2 3.7-3.4 2.2-3.52 3.6-7.63 4.5-11.75.5-2 .9-4.1 1.2-6.22z" stroke="#000" stroke-opacity="0" fill="#5a3728"/><path d="M290.9 6950.4c.6-3.7 2.8-20.18 1.6-23.1-1-2.1-2.5-3.1-4.3-4.3l-.9-.6c-.2-.2-.5-.4-.8-.6-1.8-1.52-4.3-1.72-6.5-1.72-5.1.1-10.2.4-14.7 3.2-.6.42-1.2.82-1.8 1.32-.1.1-.3.2-.4.4-.7.6-1.3 1.2-1.7 2-.5.8-.7 1.6-.8 2.42-1.1 6.22-.4 14.15.9 20.28 1.3 6.73 4.7 14.56 12 16.06 1.2.2 2.5.3 3.9.1 6.1-.7 10.3-4.8 12.3-10.54.5-1.6.9-3.3 1.2-4.92z" stroke="#000" stroke-opacity="0" fill="#fea689"/><path d="M304.9 6974.4c-4.3-1.3-7.6.4-11.4-2.7-1.2-1.02-2.3-2.52-2.3-3.93l-.3-3.8c-.3-4.53-.5-9.05-.2-13.57h.1c.6-.5 1.3-1.1 1.9-1.8 1.2-1.5 1.8-3.32 1.8-5.23 0-1.6-.1-3.9-1.8-4.6-1.2-.42-2.7.6-3.4 1.6 0-.1-.1-.1-.2-.2.1-.2.2-.4.4-.6.1-.1-.1-.3-.2-.2-.5.6-.7 1.2-.7 1.9 0 1.1.1 2.1.1 3.1 0 1.72-.1 3.32-.2 4.93-.9 1-1.8 2-2.8 3-1.4 1.62-3 2.62-4.9 3.72-1.9 1.1-3.7 2.3-5.4 3.62-.9.6-4.6-.6-4.7-2.2-.1-.4-.6-.3-.6.1.5 5.2.8 10.43 1 15.65-.7.5-1.3 1-2 1.4-2 1.4-4.2 2.6-6.5 3.5-.2.1-.3.4-.1.52 3.3 2.6 7.9 5.22 11.5 7.43 1.4.9 2.1 1.3 3.7 1 2-.5 4-1.1 6-1.7 7.6-2.42 14.8-5.93 21.4-10.45.2-.1.1-.4-.2-.5z" stroke="#000" stroke-opacity="0" fill="#fea689"/><path d="M267.6 6943.57c.1-.6 0-1.4-.1-1.6 0-.3-.1-.6-.3-.7-.6-.6-1.2 0-1.3.6-.2.7-.1 2.3.6 2.6.7.4 1-.2 1.1-.9zM283.1 6942.57c.1-.6 0-1.4-.1-1.6 0-.3-.1-.6-.3-.7-.6-.6-1.2 0-1.3.6-.2.7-.1 2.3.6 2.6.7.4 1-.2 1.1-.9z" stroke="#000" stroke-opacity="0" fill="#232c44"/><path d="M275.9 6951.8c-1 .4-3.1.9-3.8-.2-.4-.7.1-2.8.3-3.5.3-2.12.8-4.22 1-6.33.1-.4-.5-.5-.6-.1-.3 3.2-1.6 7.03-1.4 9.74.1 2.02 3.3 1.4 4.7 1 .4-.2.2-.7-.2-.6z" stroke="#000" stroke-opacity="0" fill="#b47a67"/><path d="M270 6937.25c-.1 0-.2-.1-.3-.1-.7-.1-1.2-.2-2-.1-.9.1-2 .1-3 .4-1 .2-2.6.6-2.9 1.7 0 .1.1.3.2.3.9.4 1.6.1 2.6 0 1.3-.1 2.7-.1 4.1-.3.5 0 1.1-.3 1.4-.7.4-.4.3-.9-.1-1.2zM278 6938.15c.4.3 1 .5 1.5.5 1.4-.1 2.8-.3 4.1-.5 1-.1 1.7.1 2.6-.5.1 0 .1-.2.1-.3-.6-1-2.1-1.1-3.2-1.2-1 0-2.1.2-3 .2-.8 0-1.3.2-2 .5-.1 0-.1.1-.2.1-.4.3-.3.9.1 1.2z" stroke="#000" stroke-opacity="0" fill="#b47a66"/><path d="M289.1 6954.02c.1-1.6.1-3.32.1-5.02 0-.2.1-2.3-.7-1.5-.2.2-.2.7-.2 1l-.3 1.4c-.2 1-.4 2-.7 2.9-.1.82-.6 1.52-.8 2.32-.3.7-.7 1.3-1 2-.2.8-.5 1.52-1 2.22-.3.6-1 1-1.6 1.3-.6.4-1.9 1.2-2.5 1.6-2.9 1.52-3-3.5-3.5-5.4-.6-.1-1.2 0-1.8.2l-.1.1c-.1 0-.1 0-.2.1.1.3.2.7.3 1.1.1.3.1.5 0 .8 0 .9.3 1.7.1 2.5-.2 1.1-1.2 1.2-2.3 1.5-.6.1-1.1.1-1.7-.3-.6-.5-1.3-.4-1.9-.9-.3-.2-.6-.3-.9-.5-.5-.3-.8-1.1-1.2-1.5-.4-.5-.5-1.2-.7-1.8-.3-.7-.7-.9-1.2-1.2-.6-.4-.5-.7-.8-1.22-.2-.4-.7-1.3-.9-1.6-.1-.2-.2-.5-.2-.7-.3-.6-.7-1.2-1.1-1.7l-.5-.5s-.1.8-.1 1c.1.4.2.7.3 1 .3.5.3 1.3.5 1.9.2.6 0 1.5.3 2.1.3.6.5 3.22.7 3.82.3.7.3 1.3.6 1.9.4.62.3 1.42.6 2.02.3.6.8.9 1.3 1.2l.1.1.1.1c.4.4.8.7 1.2 1.2.2.3.7 1.32 1 1.52.5.4 1.1.5 1.5.9.3.3.6.1 1 .4.7.5 1.6.4 2.4.4.6 0 1 .3 1.5.4.5.1 1 0 1.5-.1 1.1-.3 3.2.4 4.3.2.9-.1 1.4-.4 2.1-1 .5-.5.9-.5 1.5-.7.3-.2.5-.6.7-.9.4-.4 1.8-1.7 2.1-2.1.4-.52.6-1.02.8-1.62.2-.6.4-2.1.5-2.7.2-.4.3-.8.4-1.22.5-1.6.2-5.32.4-7.02z" stroke="#000" stroke-opacity="0" fill="#5a3728"/><path d="M280.6 6954.52c-.7 0-9.3.9-9.5.9-.1 0-.2.1-.1.1 4.2 1.4 5.1 1.2 9.7-.9 0-.1-.1-.1-.1-.1z" stroke="#000" stroke-opacity="0" fill="#b66f58"/><path d="M291.9 6947.6c-.4-.7-.5-.7-.1-1.72 0-.1.2-.2.2-.4.1-.4.2-.7 0-1.2-.1-.4-.7-.9-.7-1.3-.1-.7.5-1.9.7-2.52.1-.4-.5-.5-.6-.1-.2.7-.8 1.8-.8 2.6.1.4.4.6.6.92.7 1.3-.1 1.4-.3 2.3-.2.6.1 1.1.4 1.6.2.3.7.1.5-.2h.1zM291.9 6918.88c-.9-.7-1.7-1.5-2.6-2.1-1.1-.6-2.2-.5-3.3-1.12-1.9-1.1-3.2-2.1-5.6-1.7-.4.1-.3.7.1.6 1.2-.2 2.5-.1 3.6.6.8.4 1.5 1 2.3 1.3.9.5 1.9.4 2.8 1 .8.6 1.6 1.32 2.3 1.92.3.2.7-.2.4-.5z" stroke="#000" stroke-opacity="0" fill="#392e2a"/><path d="M297.3 6976.7c-1.2-1.9-4.7-.9-6.4-.5-1.4.3-2.7.7-4 1.3-.6.3-1.3.6-2 .7-1.2.22-2.3-.3-3.5-.3-3.5-.2-7.1 1.42-10.4-.5-1.9-1-3.7-2.9-5.9-2.7l-.1-.1c-.1 0-.3 0-.3.1l-.1.1c-.3.1-.6.2-.9.4-.4.2 0 .6.3.5l.6-.3c.1.1.2.1.2.1H265.1c.3 1.1 1.2 3.72 1.3 4.02.6 1.5 1.2 2.9 1.9 4.32 1.4 2.8 3 5.62 5 7.93 1.8 2.3 4.2 1.7 6.6.6 2.9-1.5 5.7-3 8.5-4.62 2.5-1.5 5-3.1 6.9-5.32 1.2-1.3 3.1-3.8 2-5.72z" stroke="#000" stroke-opacity="0" fill="#93aebe"/><path d="M319.7 6976.4s-5.9-6.12-10.4-8.83c-.1-.1-.1-.2-.2-.2-2.9-1.1-6.9-3.5-10-1.8-1.5.8-2.3 2.4-3.4 3.5-1.5 1.6-3.6 2.32-5.5 3.02-1.7.6-3.3 1.3-4.7 2.5-1.5 1.3-2.7 3-3.9 4.72-1.7 2.4-3.3 4.92-4.7 7.63-.1-.7-.2-1.4-.4-2.1-.6-2.32-1.9-4.23-3.5-6.03-1.7-2-3.2-4.02-4.2-6.53-.8-1.72-1.4-3.82-2.9-5.13-1.4-1.2-3.1-1.1-4.7-.6-1.1.4-2.1.8-3.2 1.1-1.1.3-2.3.5-3.3.8-2.7.7-4.6 2.92-4.7 5.53-2.8.3-5.6 1-8.2 2.3-1.5.7-2.6 1.3-2.6 1.3 25.1 24.2 57.9 26.62 80.5-1.2z" stroke="#000" stroke-opacity="0" fill="#485a7e"/><path d="M311.2 6986.25s.3 0 .3-.4c-.9-1.9-1.3-1.7-2.1-3.72-1.6-4.32-1.5-9.14.2-13.45.1-.4-.4-.6-.6-.3-1.6 4.2-1.8 8.83-.5 13.05.7 2.1 1.6 2.9 2.7 4.82zM305.2 6972.7c-1.4 2.7-3.9 4.5-6.5 6.12-2.9 1.7-5.9 3.4-8.8 5.12-2.8 1.6-5.7 3.1-8.5 4.72-2 1.1-3.9 2.5-4.8 4.5-1.6-1.8-3.4-3.4-5.3-4.8-2.4-1.7-5-2.82-6.9-5.13-1.4-1.9-2.9-3.4-4.9-4.7-2.3-1.32-4.9-2.22-7.4-3.03-.4-.1-.7.4-.3.5 2.3.8 4.7 1.5 6.8 2.72 2.6 1.4 4.1 3.4 6 5.52 1.5 1.8 3.7 2.8 5.7 4.1 2.3 1.62 4.3 3.43 6.1 5.54.1.2.4.2.5 0 1.1-2.8 3.9-4.22 6.4-5.63 3-1.6 6-3.3 8.9-5.02 2.8-1.6 5.6-3.1 8.2-4.8 2.2-1.52 4.2-3.13 5.4-5.54.2-.3-.4-.6-.5-.2h-.1z" stroke="#000" stroke-opacity="0" fill="#2c3b59"/><path d="M272 6984.74c-5.2-4.62-7.8-11.34-12.8-16.16-.3-.3-.7.2-.4.4 5 4.82 7.6 11.64 12.8 16.26.3.2.7-.2.4-.5zM293.4 6972.1c-1.2 2.1-3.1 3.7-4.8 5.3-1.8 1.72-3.6 3.32-5.4 5.03-.2.2.2.6.5.4l5.7-5.42c1.7-1.5 3.4-3 4.6-5.1.2-.3-.4-.5-.6-.2z" stroke="#000" stroke-opacity="0" fill="#2c3b59"/><path d="M273.7 6992.07c.2-1.4.2-2.8.3-4.22-.6-.1-1.5-.2-2 .2-.6.5-.3 2.4-.4 3.12-.4 2.7-.6 4.8-.6 4.8s2.3 1.22 2.3-1.6c.2-.7.3-1.5.4-2.3zM280.1 6994.08c-1.8 4.32 1.9 3.8 2 2.5.2-1.9.7-3.8.8-5.72 0-1.8-.1-3.7-.2-5.62-.7.2-1.5.4-2.2.5-.1 1 .1 1.9.3 3.02.3 1.8-.5 3.5-.7 5.32z" stroke="#000" stroke-opacity="0" fill="#232c44"/><path d="M294 6931.43c0-1.7-.5-3.32-1.3-4.82-.8-1.5-1.8-2.8-2.9-4-1.1-1.3-2.2-2.52-4-3.02-1.9-.6-3.9-.4-5.9-.3-2.1.1-4.2.1-6.4.3-1 .1-2.1.2-3 .6-.9.4-1.6.9-2.4 1.4-1.6.8-3.3 1.3-4.9 2.32-1.7 1-2.4 2.6-3 4.52-.6 2.1-1 4.3-.8 6.52 0 .1 0 .1.1.1l-.1.1v.2c.2.2.3.3.5.4h.2c1.1-1.4 1.1-3.4 1.4-5.12.3-1 .4-2.5 1.4-3 .6-.4 1.5-.3 2.3-.5.6-.1 1.2-.3 1.7-.6.4-.2.7-.52 1.1-.62.6-.2 1.2.1 1.9.2 1.8.3 3.4-.2 5.2-.7 1.2-.3 2.2-.2 3.4 0 1 .2 2.1.3 3.1.5 1.1.2 2.1.3 3.2.5s2.3.3 2.9 1.5c.9 1.82 1.3 3.83 1.1 5.94-.1 1.9-.4 3.8-.2 5.72.1 1.1 1.1 1.6 1.7.6.3-.5.6-.6 1.2-.7.2 0 .4-.1.6-.2.5-.5.7-1.3.9-1.9.6-1.82 1-3.92 1-5.93z" stroke="#000" stroke-opacity="0" fill="#5a3728"/><path d="M278.8 6914.26c-1.4-.1-2.7.3-3.8 1-1.5.9-2.1 2.6-3.8 3.22-2.4.8-4.1 2.4-3.9 5.12 0 .4.6.3.6-.1-.1-1.5.5-3.02 1.9-3.82.8-.6 1.9-.6 2.8-1.2 1-.7 1.5-1.8 2.4-2.5 1.1-.82 2.4-1.22 3.8-1.12.4 0 .4-.6 0-.6zM292.5 6921.7c0-.4-.6-.3-.6 0 .1 2.9.2 5.6-2.3 7.52-.3.3.1.7.4.5 2.6-2.1 2.5-4.92 2.5-8.03zM291.2 6919.58c0-.4-.6-.3-.6.1 0 1.9 0 3.8-1.1 5.52-.2.3.3.6.5.2 1.1-1.7 1.2-3.8 1.2-5.82z" stroke="#000" stroke-opacity="0" fill="#392e2a"/><path d="M279.5 6997.1c27.6 0 50-22.4 50-50 0-27.62-22.4-50-50-50s-50 22.38-50 50c0 27.6 22.4 50 50 50z" stroke="#6c6e83" fill-opacity="0"/><path d="M191.8 7098.87a6 6 0 0 1 6-6h1551a6 6 0 0 1 6 6v222.85a6 6 0 0 1-6 6h-1551a6 6 0 0 1-6-6z" fill="#e0e8f5"/><path d="M212.8 7092.87h14.97m7.5 0h14.98m7.5 0h14.98m7.5 0h14.98m7.5 0h15m7.48 0h14.98m7.5 0h14.98m7.5 0h14.98m7.5 0h14.98m7.5 0h14.98m7.5 0h14.98m7.5 0h14.97m7.5 0h14.98m7.5 0h15m7.48 0h15m7.48 0h15m7.48 0h14.98m7.5 0h14.98m7.5 0h14.98m7.5 0h14.98m7.5 0h14.98m7.5 0h14.98m7.5 0h14.97m7.5 0h14.97m7.5 0h14.98m7.5 0h14.98m7.5 0h14.98m7.5 0h14.98m7.5 0h14.98m7.5 0h14.98m7.5 0h14.98m7.5 0h14.98m7.5 0h14.98m7.5 0h14.97m7.5 0h14.98m7.5 0h14.98m7.5 0h15m7.48 0h15m7.48 0h15m7.48 0h14.98m7.5 0h14.98m7.5 0h14.98m7.5 0h14.98m7.5 0h14.98m7.5 0h14.98m7.5 0h14.97m7.5 0h14.97m7.5 0h14.98m7.5 0h14.98m7.5 0h14.98m7.5 0h14.98m7.5 0h14.98m7.5 0h14.98m7.5 0h14.98m7.5 0h14.98m7.5 0h14.98m7.5 0h14.98m7.5 0h14.97m7.5 0h14.98m7.5 0h15m7.48 0h15m7.48 0h15m7.48 0h14.98m7.5 0h14.98m7.5 0h14.98m7.5 0h14.98m7.5 0h14.98m7.5 0h14.98m7.5 0h7.48l.94.07.9.22.88.36.8.5.72.6.62.72.5.8.35.88.23.9.07.95v7.43m0 7.43v14.85m0 7.43v14.87m0 7.43v14.85m0 7.43v14.86m0 7.43v14.86m0 7.42V7240m0 7.44v14.86m0 7.42v14.86m0 7.43v14.86m0 7.43v7.42l-.07.94-.22.92-.35.87-.5.8-.6.72-.72.6-.8.5-.88.36-.9.22-.95.07h-7.5m-7.48 0h-15m-7.48 0h-15m-7.48 0h-15m-7.48 0h-15m-7.48 0h-14.98m-7.5 0h-14.98m-7.5 0h-14.98m-7.5 0h-14.98m-7.5 0H1539m-7.5 0h-14.97m-7.5 0h-14.98m-7.5 0h-14.98m-7.5 0h-14.98m-7.5 0h-15m-7.48 0h-15m-7.48 0h-14.98m-7.5 0h-14.98m-7.5 0h-14.98m-7.5 0h-14.98m-7.5 0h-14.98m-7.5 0h-14.97m-7.5 0h-14.98m-7.5 0h-15m-7.48 0h-15m-7.48 0h-15m-7.48 0h-15m-7.48 0h-15m-7.48 0h-14.98m-7.5 0h-14.98m-7.5 0h-14.98m-7.5 0h-14.98m-7.5 0H1022m-7.5 0h-14.97m-7.5 0h-14.98m-7.5 0h-14.98m-7.5 0H932.1m-7.5 0h-15m-7.48 0h-15m-7.48 0h-14.98m-7.5 0h-14.98m-7.5 0H819.7m-7.5 0h-14.98m-7.5 0h-14.98m-7.5 0h-14.98m-7.5 0H729.8m-7.5 0h-15m-7.48 0h-15m-7.48 0h-15m-7.48 0h-15m-7.48 0h-15m-7.48 0h-14.98m-7.5 0h-14.98m-7.5 0h-14.98m-7.5 0H527.5m-7.5 0H505m-7.5 0h-14.97m-7.5 0h-14.98m-7.5 0h-14.98m-7.5 0H415.1m-7.5 0h-15m-7.48 0h-15m-7.48 0h-14.98m-7.5 0h-14.98m-7.5 0H302.7m-7.5 0h-14.98m-7.5 0h-14.98m-7.5 0h-14.98m-7.5 0H212.8m-7.5 0h-7.5l-.94-.07-.9-.22-.88-.36-.8-.5-.72-.6-.6-.72-.5-.8-.37-.87-.22-.92-.08-.94v-7.43m0-7.44V7292m0-7.42v-14.86m0-7.43v-14.86m0-7.43v-14.85m0-7.42v-14.86m0-7.43v-14.86m0-7.43v-14.85m0-7.43V7136m0-7.42v-14.85m0-7.43v-7.43l.07-.94.22-.9.36-.88.5-.8.6-.72.72-.6.8-.5.87-.37.9-.22.95-.07h7.5" stroke="#2f3564" stroke-width="1.5" fill="none"/><path d="M582.6 7191.15a6 6 0 0 1 6-6H834a6 6 0 0 1 6 6v38.3a6 6 0 0 1-6 6H588.6a6 6 0 0 1-6-6z" stroke="#6c6e83" fill="#fff"/><path d="M617.13 7198.8H819.7v22.56H617.14z" fill="none"/><use xlink:href="#b" transform="matrix(1,0,0,1,617.1259596813302,7198.800293697085) translate(0 17.880208333333336)"/><use xlink:href="#c" transform="matrix(1,0,0,1,617.1259596813302,7198.800293697085) translate(85.52213541666667 17.880208333333336)"/><use xlink:href="#d" transform="matrix(1,0,0,1,617.1259596813302,7198.800293697085) translate(141.3671875 17.880208333333336)"/><use xlink:href="#e" transform="matrix(1,0,0,1,617.1259596813302,7198.800293697085) translate(157.59114583333334 17.880208333333336)"/><path d="M273.03 6685.78a21.7 21.7 0 0 1 21.7-21.7h147.6a21.7 21.7 0 0 1 21.7 21.7 21.7 21.7 0 0 1-21.7 21.7h-147.6a21.7 21.7 0 0 1-21.7-21.7z" stroke="#6c6e83" fill="#fff"/><path d="M352.7 6673.22h118.78v24.86h-118.8z" fill="none"/><use xlink:href="#f" transform="matrix(1,0,0,1,352.6862430110665,6673.2146526664255) translate(0 18.880208333333336)"/><use xlink:href="#g" transform="matrix(1,0,0,1,352.6862430110665,6673.2146526664255) translate(28.546875 18.880208333333336)"/><path d="M279.67 6733.87c27.6 0 50-22.3 50-49.98 0-27.57-22.4-50-50-50s-50 22.43-50 50c0 27.66 22.4 49.97 50 49.97z" stroke="#6c6e83" fill="#a2c6f6"/><path d="M279.67 6732.76c26.9 0 48.8-21.8 48.8-48.77 0-26.96-21.9-48.77-48.8-48.77-27 0-48.8 21.8-48.8 48.76 0 26.95 21.8 48.76 48.8 48.76z" stroke="#000" stroke-opacity="0" fill="#a2c6f6"/><path d="M300.57 6662.3c0-.22-.1-.42-.1-.62.2-.4.2-.8.2-1.2 0-1.02-.7-1.83-1.3-2.64-.7-1-1.4-2.02-2.2-2.82-.4-.4-.8-.8-1.2-1-.6-.32-1.1-.42-1.6-1.02-1-1.52-2.1-2.63-3.8-3.23-1.1-.4-2.3-.4-3.5-.3-.6-.7-1.7-1.12-2.8-1.12-.7-.1-1.5.2-2.3.1-.6-.1-1-.5-1.6-.6-1.2-.2-2.5.1-3.6.4-1.3.4-2.3 1-3.5 1.72-.7.4-1.4.2-2.2.3-.5 0-1 .2-1.5.4-1.8.8-2.9 2.43-3.4 4.24-1.2.12-2.2.62-3 1.43-1.4 1.4-1.4 3.03-1.3 4.85 0 .7 0 1.3-.2 1.9-.1.62-.3 1.12-.5 1.63-.3 1.12-.2 2.13 0 3.24l.9 5.76c-.4.9-.3 2.12.4 3.02.2.2.6.5.9.7.5.4 1 .92 1.4 1.53.5.8 1.1 1.6 1.8 2.32 3 2.93 7.3 3.83 11.4 3.53 2.5-.2 4.8-1 7.3-1.2 1.2-.1 2.4-.1 3.6-.3 1.1-.32 2.1-.72 3-1.22 3.6-1.72 6.9-4.85 7.3-9 0-.8 0-1.5.3-2.2.2-.52.5-1.02.7-1.53.3-1.1-.3-2.42 0-3.63.2-1.1.5-2.22.4-3.43z" stroke="#000" stroke-opacity="0" fill="#33261a"/><path d="M301.17 6714.4c-3.6-2.24-8.8-3.14-10.6-7.38-.9-2.33-.5-5.16-.5-7.58v-7.37c0-.3-.4-.4-.5-.1-1 1.4-4 1.3-5.5 1.4-1.7.1-3.5.22-5.3.22-3.1 0-6.7.3-9.5-1.23 0-.4-.1-.7-.1-1.1 0-.3-.6-.3-.6 0 0 .4.1.7.1 1.1-.1 0-.1.1-.1.1 0 .1.1.2.1.2.1 1.12.1 2.23.2 3.34.2 2.94.3 5.86.3 8.8.1.9.1 1.9.1 2.82-.9 1.92-2.3 3.74-3.9 5.25-1.3 1.2-2.7 2.32-4.2 3.23-1.1.8-2.5 1.3-3.3 2.53v.2c0 .1.1.1.1.2 3.4 1.62 6.9 3.13 10.5 4.54 3.3 1.22 7.1 2.93 10.8 2.53 1.6-.2 2.9-.9 4.3-1.72 1.7-1 3.4-1.92 5.1-2.83.8-.5 1.6-.9 2.4-1.3 3.3-.2 6.5-1.12 9.5-2.53.6-.3 1.7-.6 2.1-1.2.8-1.02-.8-1.73-1.5-2.13z" stroke="#000" stroke-opacity="0" fill="#b86554"/><path d="M293.97 6686.62c.2-.8.3-1.62.5-2.52 0-.2 0-.3.1-.5l.3-1.52c0-.3.1-.6.1-.9.1-.82.2-1.53.4-2.23l.3-2.33c.9-6.56 1.4-12.3 1.2-12.82-.8-2.22-2.3-3.23-4-4.54-.3-.3-.6-.5-.9-.7-.3-.2-.5-.4-.8-.62-1.7-1.5-4.2-1.9-6.4-2-5.2-.22-10.2 0-14.8 2.5-.7.3-1.3.72-1.9 1.22-.1.1-.3.2-.5.3-.6.6-1.2 1.22-1.7 2.02-.5.7-.8 1.52-.9 2.43-.2 1.22-.1 2.43-.4 3.74v.2c-.2 1-.2 3.74-.1 6.97V6677.63c.1.82.1 1.63.1 2.44.1.7.1 1.5.2 2.22v.6c.1.5.1.9.1 1.42.1.4.1.9.2 1.3.2 1.73.4 3.04.7 4.05.6 2.22 1.6 4.34 3 6.26 1.9 2.53 4.4 4.55 7.4 5.26 1.2.4 2.5.5 3.8.4.8-.1 1.6-.2 2.3-.4.5-.1 1-.2 1.5-.4 1.6-.4 3.1-1.22 4.4-2.23 1.8-1.4 3.2-3.33 4.1-5.55.6-1.5 1.2-3.84 1.7-6.36z" stroke="#000" stroke-opacity="0" fill="#b86554"/><path d="M298.47 6676.32c-.4-1.5-2.1-2.32-3.1-.8-.1.2.1.4.3.4-.8 1.4-1.3 3.03-1.8 4.64-.3 1.1-1.1 2.93-.8 4.14.5 2.12 3.3-.2 4-1 1.7-2.03 2-4.96 1.4-7.38zM261.97 6681.57c.5.9 3 3.53 3.8 1.52.4-1.23-.1-3.04-.3-4.26-.2-1.7.1-2.82-.5-4.34.2 0-.2-.6-.3-.9-.8-1.62-2.6-1.02-3.2.4-.9 2.42-1 5.35.5 7.57z" stroke="#000" stroke-opacity="0" fill="#b86554"/><path d="M288.97 6677.73c.1-.6.2-1.2.1-1.7 0-.3-.1-.62-.3-.82-.6-.6-1.3-.1-1.4.52-.3.8-.3 2.52.4 2.92.7.4 1-.1 1.2-.9zM272.77 6676.93c.1-.5.2-1.1.1-1.72 0-.3-.2-.5-.3-.7-.6-.6-1.3-.1-1.4.5-.3.82-.3 2.43.4 2.84.8.4 1.1-.1 1.2-.9z" stroke="#000" stroke-opacity="0" fill="#33261a"/><path d="M296.57 6677.13v-.1c0-.1 0-.1-.1-.2h-.2-.1c-.1 0-.1.1-.1.1-.1 0-.1.1-.1.1V6677.33l-.3 1.2c-.1.42-.5.92-.4 1.32 0 .2.1.3.2.4.2.4.3.72.3 1.12 0 .4-.4 1.72-1 1.4-.4-.1-.7.42-.3.52 1 .5 1.8-.92 1.9-1.83 0-.2 0-.5-.1-.7 0-.3-.4-.6-.4-.92-.1-.3.3-.9.4-1.2l.3-1.52zM264.47 6681.07c-1-.9-1.2-1.62-.4-2.22l.4-.4c.1-.2.1-.3.1-.5.1-1.02-.4-2.23-.7-3.24-.1-.3-.7-.2-.6.2.2.7.9 2.53.7 3.14-.2.6-.8.8-1 1.4-.2 1.02.4 1.83 1.3 2.13.4.1.5-.4.2-.5zM285.97 6700.76c-.3-.5-1.4-.2-3.1.5-2.6.9-6.2.1-8.6-1-1.9-.92-3.9-2.64-5.4-4.35.2 3.04.3 5.97.3 8.9h.6c1.2 0 2.4.6 3.6.7 1 0 1.8-.5 2.7-.7 1.2-.4 2.4 0 3.7-.2.9-.1 1.8-.6 2.6-1.12 1-.6 4.2-1.3 3.6-2.72zM282.67 6683.5c-.2-1.52-.4-3.14-.7-4.65-.1-.4-.7-.3-.6 0 .4 2 .7 4.13.9 6.15 0 .7.3 1.22-.6 1.62-.6.3-1.5.2-2.1.1-.8-.1-1.4-.1-2.2-.1-.4.1-.4.7 0 .6 1.4-.1 4.6.9 5.4-.7.4-.8 0-2.22-.1-3.03z" stroke="#000" stroke-opacity="0" fill="#9c4736"/><path d="M267.57 6671.68c.1.6.8.8 1.4.8 1.4.2 2.9 0 4.3 0 .8 0 2.6.3 3.3-.3 1.5-1.2-1.5-2.02-2.3-2.12-1.4-.2-2.8-.2-4.2.1-.5.1-2.7.9-2.5 1.52zM291.57 6671.17c-1.3-.3-2.8-.4-4.2-.3-.7.1-3.8.7-2.3 2.02.6.6 2.4.4 3.2.4 1.5.1 2.9.3 4.4.3.5 0 1.2-.2 1.4-.8.3-.62-1.9-1.53-2.5-1.63z" stroke="#000" stroke-opacity="0" fill="#33261a"/><path d="M277.07 6690.35c-.6-.1-1.3-.3-1.9-.6-.1 0-1-.2-1.1-.4.2.6.9 1.3 1.3 1.8.9 1.22 1.7 1.63 3.1 1.73 1.6.1 3.5-.1 4.9-1 0 0 1.6-1.12 1.8-2.23-.1.2-2 .6-2.9.8-.8.1-3.4.2-5.2-.1z" stroke="#000" stroke-opacity="0" fill="#9c4736"/><path d="M307.57 6719.94l-.3-4.14v-.1h-.1l-4.3-1.82c-1.4-.6-7.2-2.12-7.2-2.12s-13 11.1-14.5 11.4c-1.6.3-15.4-10.6-15.4-10.6s-5.7 1.83-7.3 2.94c-2.9 2.12-2.1 5.75-1.9 8.78 2.4 14.64 49.9 12.12 51-4.34z" stroke="#000" stroke-opacity="0" fill="#fff8f0"/><path d="M260.17 6730.34s.3 1.3.7-1.2c.7-4.96 2.2-15.66 2.1-15.66-.2 0-.4 0-.5.1h-.1c-4.9 1.1-9.6 4.54-14.3 6.56-3.5 1.4-1.3 1.62-1.3 1.62l13.4 8.58zM314.97 6717.52c-1.7-1.32-3.6-1.92-5.6-2.53-2.5-.72-4.5-.92-6.9-1.62-.6-.2-3.3-.7-3.3-.7 0 6.25-1.2 18.36 0 17.66 8.5-4.85 16.6-10.1 15.8-12.82z" stroke="#000" stroke-opacity="0" fill="#456664"/><path d="M269.77 6731.65c-.5-1-1-2.02-1.3-3.13l-.1-.1c-.1 0-.1 0-.1-.1h-.2c0 .1-.1.1-.1.1-1 1-1.9 1.92-2.8 3.03-.2.3.2.7.5.4.7-.9 1.5-1.8 2.4-2.62.3.9.7 1.82 1.2 2.72.2.3.7 0 .5-.3zM296.07 6724.38c-.5-.9-1-1.72-1.5-2.52-.2-.3-.4-.6-.8-.5-.5 0-1 .7-1.3 1-.6.6-1.2 1.32-1.7 2.02-.2.3.2.7.5.4.6-.9 1.3-1.7 2.1-2.52.4-.3.3-.3.7-.1.2.2.3.6.5.8.3.5.7 1.12 1 1.72.2.3.7 0 .5-.3zM286.37 6733.97c-.5-.9-.9-1.9-1.4-2.72-.2-.2-.4-.5-.8-.4-.4 0-.9.8-1.1 1.1l-2 2.43c-.3.3.2.7.4.4.8-1 1.5-2.22 2.5-3.03.2-.2.1-.3.5-.1.1 0 .3.6.4.8l1 1.83c.2.3.7 0 .5-.3zM268.67 6718.63c-.3-.7-.7-1.52-1.1-2.23-.2-.4-.6-1.2-1.1-1.2-.5-.1-1 .6-1.3.9-.7.6-1.4 1.3-2 2.12-.3.3.2.7.4.4.4-.5.7-.9 1.1-1.2.3-.4.9-1.12 1.3-1.32.7-.3.9.4 1.2.9.4.62.7 1.22.9 1.83.2.4.7.2.6-.2z" stroke="#000" stroke-opacity="0" fill="#aeb5c2"/><path d="M297.77 6663.5c-.3-.7-.9-1.3-1.4-2.02-.7-.7-1.3-1.52-2-2.12-1.4-1.42-2.9-2.53-4.7-3.33-3.6-1.52-7.7-1.32-11.4-.6-2.1.5-4.2 1.1-6.3 1.8-1.7.6-3.5 1.12-4.9 2.23-3.5 3.03-2.5 8.18-3.4 12.1v.12h.1c.3 1.1.4 2.22.8 3.23.1.4.4.82.8.7.6-.3.6-1.5.7-2 .1-1.12 0-2.23.3-3.34.4-1 .4-1.92.6-2.93.2-1.3.7-2.22 1.5-3.23 1.3-1.5 2.4-3.23 3.1-5.15.4.1.7.1 1.1.1.9 0 1.8 0 2.6.1 1.8 0 3.7.1 5.5.1 3.6.2 7.1.6 10.7 1.02h.1c2.4 1.1 2.1 4.84 2.4 7.06.2 1.52.4 3.03.8 4.55.1.8 0 1.6 0 2.42-.1.7-.3 1.4-.4 2.12 0 .3 0 .6.3.7.5.5.8-.3.9-.7.2-.5.4-1.1.6-1.72.3-.5.5-1.1.6-1.7.2-1.12.3-2.23.5-3.34.2-1 .3-2.12.5-3.13.1-1 .3-2.02 0-3.03z" stroke="#000" stroke-opacity="0" fill="#33261a"/><path d="M279.67 6733.87c27.6 0 50-22.3 50-49.98 0-27.57-22.4-50-50-50s-50 22.43-50 50c0 27.66 22.4 49.97 50 49.97z" stroke="#6c6e83" fill-opacity="0"/><path d="M581.83 6666.8a6 6 0 0 1 6-6h227.5a6 6 0 0 1 6 6v38.3a6 6 0 0 1-6 6h-227.5a6 6 0 0 1-6-6z" stroke="#6c6e83" fill="#fff"/><path d="M618 6674.46h177.5v23.62H618z" fill="none"/><use xlink:href="#h" transform="matrix(1,0,0,1,618,6674.459483728566) translate(0 18.380208333333336)"/><use xlink:href="#d" transform="matrix(1,0,0,1,618,6674.459483728566) translate(37.852864583333336 18.380208333333336)"/><use xlink:href="#i" transform="matrix(1,0,0,1,618,6674.459483728566) translate(54.07682291666667 18.380208333333336)"/><use xlink:href="#j" transform="matrix(1,0,0,1,618,6674.459483728566) translate(126.02734375000001 18.380208333333336)"/><path d="M876.56 6667.12a6 6 0 0 1 6-6h298.04a6 6 0 0 1 6 6v38.3a6 6 0 0 1-6 6H882.56a6 6 0 0 1-6-6z" stroke="#6c6e83" fill="#fff"/><path d="M909 6673.77h260.5v25.36H909z" fill="none"/><use xlink:href="#b" transform="matrix(1,0,0,1,909,6673.772499021116) translate(0 19.380208333333336)"/><use xlink:href="#k" transform="matrix(1,0,0,1,909,6673.772499021116) translate(85.52213541666667 19.380208333333336)"/><use xlink:href="#l" transform="matrix(1,0,0,1,909,6673.772499021116) translate(121.2421875 19.380208333333336)"/><path d="M295.5 7210.3a19.5 19.5 0 0 1 19.5-19.5h101a19.5 19.5 0 0 1 19.5 19.5 19.5 19.5 0 0 1-19.5 19.5H315a19.5 19.5 0 0 1-19.5-19.5z" stroke="#6c6e83" fill="#fff"/><path d="M348.13 7199.1h63.67v22.4h-63.67z" fill="none"/><use xlink:href="#m" transform="matrix(1,0,0,1,348.1347185579301,7199.088950515312) translate(0 17.57638888888889)"/><path d="M279.5 7259.92c27.6 0 50-22.35 50-49.93 0-27.7-22.4-50.03-50-50.03s-50 22.34-50 50.02c0 27.57 22.4 49.92 50 49.92z" stroke="#6c6e83" fill="#a2c6f6"/><path d="M279.4 7161.07c27 0 48.8 21.85 48.8 48.82s-21.8 48.8-48.8 48.8c-26.9 0-48.7-21.83-48.7-48.8 0-26.98 21.8-48.82 48.7-48.82z" stroke="#000" stroke-opacity="0" fill="#a2c6f6"/><path d="M295.5 7241.4c.1.2.2.4.3.7.1.3.3.5.4.8 1.5 3.63 3 7.16 4.7 10.78.3.6.2.9.5 1.5 8.2-5.23 14.7-10.96 14.7-10.96s-.7-1.1-2.7-3.32c-1.6-1.92-3.5-3.63-5.5-5.14-4.2-2.92-9.1-5.03-14.2-5.13 0 0 0 .1-.1.2 0 .1-.1.3-.1.5 0 0 0 .1-.1.1 0 .2 0 .3-.1.5 0 .1-.1.3-.1.5v.1c.2 1.12.3 2.83.5 3.94.3 1.7 1.1 3.32 1.8 4.93z" stroke="#000" stroke-opacity="0" fill="#456664"/><path d="M294.9 7231.94l-2.7.8-.7.2c-3.1 1-.9 5.04-3.3 5.74-.3.1-1.1 0-2.2-.3-2.6-.6-6.3-1.9-6.3-1.8 0 0-.4-.2-1.1-.4-1.6-.42-4.7-1.42-7.6-2.33l-3.6-1.2-.8-.2-1.7-.6 1.1-.52.5-.3h.1l1.5-.7 2.3-1.1s8.1 2.9 8.4 2.8c.2 0 7-3.3 7-3.3l6 2.1.1.1.5.2 1 .3.3.1 1.2.4z" stroke="#000" stroke-opacity="0" fill="#ffa894"/><path d="M288.7 7178.6c-.1-1.02-.9-1.72-1.2-2.73-.3-1.1 0-2.3 0-3.42 0-.2.1-.4 0-.5 0-1.4-.4-2.72-1.7-3.53-1.1-.8-2.3-1.1-3.6-.9-.9.2-1.5.8-2.3 1.2-.4.2-.7.4-1 .7-.7.3-1.3.5-2 .7-1.1.22-2.1.62-2.8 1.63-.8 1.2-.9 3-1.2 4.42-.3 1-.4 2.02-.5 3.02v.3c-.1.7-.1 1.5.1 2.2.1.2.1.5.3.7.5 1.12 1.6 1.73 3 1.63.8 0 1.6-.2 2.4-.3 1.2-.1 2 .6 3.1.8h.1c.4.1.8.1 1.2.1.3 0 .5-.1.8-.1 0 0 .1-.1.2-.1 1.2-.3 2.4-1 3.4-1.9 1.1-1.12 1.9-2.53 1.7-3.94z" stroke="#000" stroke-opacity="0" fill="#db6e56"/><path d="M288.7 7178.6c-.1-1.02-.9-1.72-1.2-2.73-.3-1.1 0-2.3 0-3.42 0-.2.1-.4 0-.5-.2.9-.5 1.8-.9 2.6-1 2.13-2.5 2.93-4.8 2.83-1.3-.1-2.1.1-3 1-1.4 1.22-4.6 2.12-6.4.8v.3c-.1.72-.1 1.53.1 2.23.1.2.1.5.3.7.5 1.12 1.6 1.73 3 1.63.8 0 1.6-.3 2.4-.3 1.2-.1 2 .5 3.1.8h1.3c.2 0 .5-.1.8-.1h.2c1.2-.3 2.4-1 3.4-1.9 1.1-1.12 1.9-2.53 1.7-3.94z" stroke="#000" stroke-opacity="0" fill="#c2563e"/><path d="M295.8 7191.27c-.2-.9-.7-1.8-1.3-2.62-.2-.1-.3-.2-.4-.3-.5-.5-.6-.7-.8-1.4-.2-.4-.2-.7-.4-1.1-.5-.72-1.3-1.22-2.1-1.52-1.3-.6-2.6-1.1-3.8-1.8h-.1c-1.8-1.02-3.6-1.22-5.5-.72-.6-.3-1.2-.5-1.8-.5-1.3-.1-2.6.3-3.8.6-1 .2-2 .3-3 .5-.5.12-.9.12-1.4.32-4.8 1.3-6.8 6.24-7.5 10.77-.5.9-1 1.6-1.2 2.6-.1 1 0 2.02-.1 3.02-.2 1.3-.2 2.32.1 3.53.2.6.4 1.1.6 1.6.1.1.2.3.2.4.2 1.02.7 1.82 1.3 2.43.3.5.5 1 .7 1.4 0 .2.1.4.2.6 0 .1 0 .1.1.2H266.1c.1 0 .1-.1.2-.1v-.1-.1-.1l-.1-.1c0-.2-.1-.4-.2-.6l.2.2c.1 0 .2.1.2.2l.1.1c.4.2.7.5 1 .8 1.5 1.22 3 2.53 4.7 3.43 4.1 2.43 8.6 3.54 13.2 1.93 1.7-.5 3.3-1.4 4.8-2.52.4-.4.9-.8 1.3-1.2.2-.2.5-.4.7-.7.2-.2.4-.4.6-.7.7-.9 1.4-1.92 1.9-2.93.1-.3.2-.5.2-.7.7-2 .2-4.03.9-6.04.5-1.5.5-3.02.2-4.53.3-1.4.2-2.82-.2-4.23z" stroke="#000" stroke-opacity="0" fill="#db6e56"/><path d="M283.6 7219.56c-1.5.1-3 .1-4.6-.2-1.7-.3-3.3-.8-4.9-1.4-.7-.22-1.4-.52-1.9-1.02-.5-.4-.7-1.1-1.1-1.6-.2-.2-.5-.1-.5.2 0 1.9-.1 3.8-.1 5.73v.1c-.1 2.2-.1 4.43-.2 6.64V7229.23c0 1.1 0 2.1-.1 3.12v1.2c0 1.22 0 2.42-.1 3.53 0 .1.1.2.1.2 0 .1.1.1.1.1 3.8 1.4 7.5 14 11.4 13.9.9 0 3.3-8.06 4.2-8.16.5-.1 2.8-2.8 2.8-2.8l-1.8-5.95v-1.7l.2-3.43.3-7.35.2-2.92s-3 .5-4 .6z" stroke="#000" stroke-opacity="0" fill="#ffa894"/><path d="M266.3 7193.28c1-.9 5.4-3.92 6.6-3.92 2.1-.1 6.3-1 8.3-.9 4.7.1 7.7 2 10.4 4.93.2.2.4.3.4.5 0 0 .1 0 .1.1v.1c.4 5.53.2 16.1-1.6 22.13-1 3.23-3.7 7.15-6.7 8.96-6.1 3.72-9.8.6-13.3-3.83-4.2-5.34-4.1-11.07-4.7-17.92-.1-1.7-.4-9.26.5-10.16z" stroke="#000" stroke-opacity="0" fill="#ffa894"/><path d="M271.8 7205.97c-.1-.5-.1-1.1-.1-1.6.1-.3.2-.52.4-.72.5-.6 1.1 0 1.3.5.2.7.2 2.32-.5 2.62-.7.4-1-.1-1.1-.8zM284.6 7205.97c-.1-.5-.1-1.1 0-1.6 0-.3.1-.52.3-.72.5-.6 1.2-.1 1.3.5.2.7.2 2.22-.4 2.62-.7.4-1-.1-1.2-.8z" stroke="#000" stroke-opacity="0" fill="#232c44"/><path d="M267.5 7207.18c-.1-.8-.2-1.62-.5-2.32v-.1c-.2-.3-.4-.5-.6-.7 0-.1 0-.1-.1-.2 0 0-.1 0-.1-.1-.1 0-.1 0-.2.1l-.2-.2c-.1 0-.2-.1-.3-.2-.8-.4-1.7-.3-2.2.8 0 .1-.1.3-.1.4-.6 2.32-.2 5.23 1.4 7.05.2.2.4.5.7.8.3.3.7.6 1.1.92.1.1.3.2.5.2.4 0 .6-.3.6-1.3v-2.83-2.32z" stroke="#000" stroke-opacity="0" fill="#ffa894"/><path d="M275 7216.34s1 1.1 1.7 1.4c.8.2 1.6.6 2.4.5.9 0 1.9-.3 2.7-.7.5-.3 1.6-1.3 1.6-1.3l-8.4.1z" stroke="#000" stroke-opacity="0" fill="#ad4444"/><path d="M283.5 7224.8c-2.1 1.5-5.1 1.7-7.5.6-2.1-1-3.7-2.32-5.5-4.03-.1 2.2-.1 4.43-.2 6.64v.1c.9.2 1.7.52 2.6.62 1.5.1 2.7-.8 4.1-.8 1.3.1 2.5.4 3.7-.3 1-.5 1.9-1.32 2.6-2.12.1-.2.3-.4.4-.5.1-.1-.1-.3-.2-.2z" stroke="#000" stroke-opacity="0" fill="#f7886d"/><path d="M276.4 7200.84c-.2-.7-1.1-.9-1.6-1-2.2-.52-4.8.2-6.4 1.7-.4.3.9.2 1 .2 1.4-.3 2.7-.3 4.1-.3h2c.4 0 1-.1.9-.6zM289.9 7201.94c-1.6-1.6-4.2-2.3-6.4-1.9-.5.1-1.5.3-1.6.9-.2.5.4.6.8.7h2c1.4.1 2.8.2 4.1.5.1 0 1.4.2 1.1-.2z" stroke="#000" stroke-opacity="0" fill="#db6e56"/><path d="M266.3 7210.8c-.5-.2-1.4-1.9-.1-1.9h.1s.1 0 .1-.1c0 0 0-.1.1-.1v-.1c-.3-1.32-.6-2.63-.8-3.84-.1-.4-.6-.3-.6.1.2 1.2.5 2.32.7 3.52-1.4.3-.9 2.52.3 3.02.4.1.5-.4.2-.6z" stroke="#000" stroke-opacity="0" fill="#f7886d"/><path d="M294.9 7206.07c0-.3 0-.5-.1-.8-.4-1.62-1.6-1.72-2.6-1.1 0 .1 0 .1-.1.1l-.1.1c-.1-.1-.1-.1-.2 0h-.1c-.3.3-.5.6-.7.9v.1c-.4.7-.5 1.4-.6 2.2-.1 1.62-.2 3.23-.2 4.74 0 .2-.1.3-.1.5 0 1.12.4 1.42.9 1.22.2-.1.4-.2.5-.3.4-.2.7-.5 1-.8l.6-.6c1.5-1.62 2.1-4.14 1.8-6.25z" stroke="#000" stroke-opacity="0" fill="#ffa894"/><path d="M291.4 7211.3c.5-.1 1.5-1.8.3-1.9h-.2s0-.1-.1-.1v-.1-.1l.9-3.84c.1-.4.6-.2.5.2-.2 1.1-.5 2.32-.8 3.43 1.4.4.8 2.6-.4 3-.4.1-.5-.4-.2-.6zM279.3 7212.6c-1.8-.8-.9-2.4-.7-3.8l.6-3.94c0-.3-.6-.4-.6 0-.2 1.1-.3 2.12-.5 3.22-.1 1-.6 2.12-.7 3.12 0 1 .9 1.6 1.8 2.02.3.1.5-.4.1-.6z" stroke="#000" stroke-opacity="0" fill="#f7886d"/><path d="M292.8 7197.91c-.1-1.8-.1-3.9-.9-5.62-1-2.42-3.5-3.73-6-4.23-.2-.1-.4-.1-.6-.1-.5-.1-1.1-.2-1.7-.3h-1.1c-2.4 0-4.7.3-7 .7-2.1.3-4.2.8-6.1 1.7-.4.22-.7.42-1.1.52-.2.2-.5.3-.8.5-.9.5-1.8 1.2-2.1 2.32-.6 1.8-.6 7.94.1 10.05.1.4.2.6.4.8H266.2l.2-.2c.4-.5.4-1.5.5-2.1.1-1.72 0-3.23.6-4.84.5-1.5 1.3-2.9 2.2-4.22 1-1.5 1.9-2.82 3.8-3.12 1.4-.2 3-.1 4.4-.2 1.2-.1 2.5-.2 3.7-.1 1.2.2 2.2.7 3.4 1 1.9.6 4.2.6 5.3 2.62.9 1.5.7 3.63.8 5.24l.6 5.74v.2l.1.1H292.1c.1 0 .1-.1.1-.1.8-1.92.6-4.33.6-6.35z" stroke="#000" stroke-opacity="0" fill="#db6e56"/><path d="M283.9 7185.84c-.1-.6-.3-1.1-.7-1.6-.4-.52-1.6-1.22-1.5-1.93.1-.4-.5-.4-.6 0 0 .72.3 1.12.8 1.52 1.4 1.2 2 2.82.7 4.43-.2.3.2.7.4.4.7-.8 1-1.7.9-2.8zM285.4 7185.74c-.2-.3-.7-.1-.5.3.2.3.3.7.4 1.1.1.3 0 .7 0 1.1-.1.4.4.62.5.2.1-.5.2-.9.1-1.4-.1-.5-.3-.9-.5-1.3zM268.6 7193.6c-1.6-.72-.2-2.53-.2-3.54 0-.5-.2-.7-.3-1.1-.4-1.1-.4-2.12.2-3.22.1-.4-.4-.7-.5-.3-.4.7-.7 1.5-.6 2.3 0 1.12.7 1.92.4 3.03-.3 1.1-.7 2.72.7 3.32.3.2.6-.3.3-.5zM280.2 7175.07c-1-1.3-.8-3.32-.4-4.94 0-.3-.5-.5-.6-.1-.4 1.82-.6 3.93.5 5.44.3.3.7-.1.5-.4z" stroke="#000" stroke-opacity="0" fill="#c2563e"/><path d="M296.2 7234.25c-.1-.6-.9-3.82-2.1-2.92-.1.1-.3.1-.4.2-.1 0-.2.1-.2.1v-.2h-.1l-1-.3-.5-.2-.1-.1c-1.1.8-11 16.6-11 16.6s-12.6-17.1-12.7-17.1c-.3-.1-1.2.2-1.8.4-.2.1-.5.2-.5.2-.2.1-.4.2-.6.2l-1.1.4-.4.2c-.5.2-1 .4-1.1.9v.1c0 .2 0 .42.1.72 0 .2.1.3.2.5.1.5.2 1 .4 1.5.3 1.02.7 2.02 1 3.03.4 1.1.9 2.32 1.3 3.42 1.1 2.92 2.3 5.74 3.4 8.56 5.6 9.56-.9 10.77 25.1 7.14 1.4-4.02.2 1.72.7-2.5.1-.62.1-1.22.2-1.82 0-1.1.1-2.32.1-3.53v-.8c.1-.8.1-1.6.1-2.42.1-1.7.1-3.42.3-5.13.1-.4.1-.7.1-1 .1-.8.3-1.52.4-2.32.1-.4.1-.7.2-1.1.1-.9.1-1.82 0-2.73z" stroke="#000" stroke-opacity="0" fill="#fff8f0"/><path d="M273.4 7260.02c-1.2-4.83-.5-2.1-1.6-6.54-.6-2.62-1.5-5.13-2-7.75-.2-.7-.3-1.5-.4-2.32-1.2-3.1-2.7-6.73-3.5-7.94-.8-1.1-1.7-2.62-1.8-4.03-.3 0-.5 0-.7.1-.3.1-.6.2-.9.2-.2.1-.5.2-.7.2-1.4.4-2.9.8-4.4 1.32-.2 0-.5.1-.7.2-1.1.3-2.1.7-3.1 1.1-2 .8-4 1.72-5.9 2.92-1.2.8-8.8 8.16-5.7 5.94 0 0 18 16.92 31.4 16.62zM310.7 7248.35c0-4.33-.2-8.86-4-11.68-3.8-2.92-8.4-4.73-13.1-5.84l-.3 1c-.5 1.92-.4 3.73-.7 5.64-.3 2.52-1.2 4.84-2 7.05-.4 4.83-.5 9.56-.8 14.3 12.9-2.42 20.9-9.77 20.9-10.47z" stroke="#000" stroke-opacity="0" fill="#456664"/><path d="M290.7 7245.32c.1 3.53 2.2 6.55 5 8.56 1.6 1.2 2.7 1.8 4.5 2.52.5.2-.1-.4.4-.4-.3-.3 1 .3.7 0-3.4-3.63-7.2-7.05-10.6-10.68zM305.5 7247.44c.3-2.82.6-6.04.2-8.86-1.5 1-2.7 4.93-3.1 6.54-1.1-3.42-2.9-7.85-5.5-10.47h-.1c.8 4.13 2 8.26 3.3 12.3.6 2.1 2.3 7.74 2.3 7.74l1.3-.32s1.3-5.03 1.6-6.94zM306.2 7246.63c-.3 2.62-1.7 6.14.1 6.14 1.1-2 2.6-3.12 2.6-5.43.1-1.7-.2-3.42-.8-5.03-.1-.4-1.1-2.6-1.7-3.52.3 2.62.1 5.34-.2 7.85zM299.5 7246.63c-1.1-3.72-2.2-7.44-3-11.27-1.2 4.33-.6 8.96 1.6 12.88-2.2-1.4-4.6-2.6-7-3.52-.1-.1-.1-.1-.2-.1 3.4 3.62 7.1 6.95 10.5 10.47.3.3-.3-.2 0 .1-.1-.4.7.1.5-.3-.8-2.73-1.5-5.55-2.4-8.27zM263.6 7247.84c-.1 0-.1 0-.1-.1-2.2-2.92-3.3-7.55-3.8-11.17-.6 1.5-2.5 5.33-4.1 6.04.1-2.9.8-6.03 1.6-8.65.1-.3.2-.5.2-.7 1.5-.5 3-.9 4.4-1.3.2 1.1.3 2.1.5 3.2.6 4.24 1.1 8.46 1.3 12.7zM256.7 7233.45c-.1.4-.3.8-.4 1.1-.6 2.42-1.2 5.14-1.3 7.76-.5-1-1.1-3.32-1.2-3.72-.3-1.3-.3-2.72-.2-4.02 1-.4 2-.8 3.1-1.1zM265.6 7235.06c-.7-1.1-1.4-2.32-1.5-3.63-.3 0-.5 0-.7.1-.3.1-.6.2-.9.2.1 1.32.3 2.62.5 3.83.5 3.93 1 7.75 1.2 11.68 1.9-4.13 2-8.76.4-13 .4.32.7.52 1 .82z" stroke="#000" stroke-opacity="0" fill="#232c44"/><path d="M292.5 7212.9c-.1 0-.2-.1-.3-.2 0-.1-.1-.1-.2-.1h-.2l-.2.2v.2l-.1.72-.2 6.94c0 .1 0 .1.1.2 0 .1 0 .1.1.1 0 .1.1.1.2.1h.2c.9-.4 2.7-1.5 2.7-4.02 0-1.7-1.2-3.22-2.1-4.13zM266.4 7213.42l-.1-1s-.1-.1-.1-.2c-.1 0-.1-.1-.2-.1h-.2c-.1 0-.1.1-.2.1l-.3.3c-.8 1-1.9 2.5-1.8 4.12.2 2.5 2 3.52 3 3.92h.2c.1 0 .1-.1.2-.1 0 0 .1-.1.1-.2v-.1l-.6-6.74z" stroke="#000" stroke-opacity="0" fill="#f2e7e1"/><path d="M265.1 7214.63c-.8.4-1 1.7-.8 2.5.2 1.02 1.5 1.52 1.8.3.1-.5.1-3.4-1-2.8zM292.9 7215.23c-1.2-.4-1 2.4-.9 2.92.4 1.2 1.7.7 1.8-.3.2-.9-.1-2.22-.9-2.62z" stroke="#000" stroke-opacity="0" fill="#a2c6f6"/><path d="M289.8 7230.13c0 .2 0 .4-.1.6 0 .4-.1.8-.2 1.1-.9 4.64-2.7 8.97-4.1 13.4-.9 2.5-1.5 5.13-1.9 7.85-.1.8-.2 1.6-.4 2.4l-.3-.1c-.3-.1-.4.4-.1.5l.3.1c-.2.52-.3 1.12-.6 1.63l-.6-.2h-.1c-.1 0-.1 0-.1.1h-.1v.1l-.1.1v.2c.1.3.2.7.4 1-.3.52-.5.92-.8 1.32h-.2s0 .1-.1.1c0 .1-.1.2-.1.3-.2-.6-.3-1.2-.5-1.9.2-.1.4-.3.6-.5.2-.2-.2-.62-.4-.3l-.3.3c-.1-.5-.2-1.02-.4-1.42l.6-.6c.3-.2-.1-.5-.3-.3-.1.1-.3.2-.4.3-.2-.9-.5-1.92-.8-2.82.3-.1.4-.3.6-.6.1-.2.1-.5.1-.7-.1-.3-.2-.5-.4-.72l-.6-.3h-.2-.2c-2.1-6.74-4.8-13.28-8.2-19.42-.2-.4-.6-1.1-.9-1.62-.2.1-.4.1-.4.2.2.3.5.9.6 1.2 3.5 6.26 6.3 12.9 8.5 19.84-.2.1-.4.3-.5.5-.1.2-.2.4-.2.7 0 .72.7 1.12 1.4 1.02.3 1.1.6 2.1.8 3.12-.3.3-.5.6-.8 1-.2.2.2.5.4.3.1-.3.4-.5.6-.7l.3 1.4c-.2.3-.3.5-.5.82-.2.2.3.4.4.2.1-.1.2-.3.3-.4.1.7.1.7.3 1.4 1.4 0 .4-.1 1.3-.1.2-.3.4-.7.6-1 0 .2.1.7.3.9.2.2.4.1.5 0 .4-.3.7-.7 1-1 .2-.3 1.1-1 .6-1.4-.3-.2-.8-.2-1.1-.3l-.5-.12.6-1.5.6.2c.3.1.4-.3.1-.4-.2-.1-.4-.2-.6-.2.2-.6.3-1.1.4-1.72.4-2.82 1-5.53 1.8-8.25 1.5-4.63 3.5-9.26 4.4-14.1 0-.3.1-.6.1-.9.1-.2.1-.3.1-.4l-.5-.2zm-12.4 22.34c0-.2 0-.3.1-.4 0-.2.1-.3.2-.4.2.5.3.9.4 1.4-.3 0-.7-.2-.7-.6zm1.2.4c-.1-.4-.3-.9-.4-1.3.7 0 .9.9.4 1.3zm3.4 5.04l.2.1c0 .1-.1.2-.1.3-.1-.1-.1-.2-.1-.4zm2 .5s-.6.6-.7.72c-.1.1-.5.7-.7.9l-.3-1.1c.1-.3.2-.6.3-.8h.2c.2.1 1.2.2 1.2.3z" stroke="#000" stroke-opacity="0" fill="#fad3b1"/><path d="M279.5 7259.92c27.6 0 50-22.35 50-49.93 0-27.7-22.4-50.03-50-50.03s-50 22.34-50 50.02c0 27.57 22.4 49.92 50 49.92z" stroke="#6c6e83" fill-opacity="0"/><path d="M873.4 7233.93v-47.1M873.4 7233.9v.78M873.4 7186.86v-.77" stroke="#6c6e83" stroke-width="1.5" fill="none"/><path d="M903.4 7190.86a6 6 0 0 1 6-6h154.8a6 6 0 0 1 6 6v38.3a6 6 0 0 1-6 6H909.4a6 6 0 0 1-6-6z" stroke="#6c6e83" fill="#fff"/><path d="M937 7199.5h106.62v18.65H937z" fill="none"/><use xlink:href="#n" transform="matrix(1,0,0,1,936.999526351475,7199.51163687886) translate(0 17.317708333333336)"/><use xlink:href="#o" transform="matrix(1,0,0,1,936.999526351475,7199.51163687886) translate(69.27083333333334 17.317708333333336)"/><path d="M872 6139.12a6 6 0 0 1 6-6h129.24a6 6 0 0 1 6 6v38.3a6 6 0 0 1-6 6H878a6 6 0 0 1-6-6z" stroke="#6c6e83" fill="#fff"/><path d="M902.46 6146.28h94.56v23.98h-94.56z" fill="none"/><use xlink:href="#p" transform="matrix(1,0,0,1,902.4587033474596,6146.281737393321) translate(0 18.380208333333336)"/><use xlink:href="#q" transform="matrix(1,0,0,1,902.4587033474596,6146.281737393321) translate(54.93359375 18.380208333333336)"/><path d="M1270.2 6139.12a6 6 0 0 1 6-6h154.93a6 6 0 0 1 6 6v38.3a6 6 0 0 1-6 6H1276.2a6 6 0 0 1-6-6z" stroke="#6c6e83" fill="#fff"/><path d="M1303.75 6146.26h114.9v20.5h-114.9z" fill="none"/><use xlink:href="#p" transform="matrix(1,0,0,1,1303.7529601002989,6146.25873584635) translate(0 17.317708333333336)"/><use xlink:href="#r" transform="matrix(1,0,0,1,1303.7529601002989,6146.25873584635) translate(54.93359375 17.317708333333336)"/><path d="M1038.5 6181.04v-47.08M1038.5 6181.02v.77M1038.5 6133.98v-.77" stroke="#6c6e83" stroke-width="1.5" fill="none"/><path d="M1063.73 6139.63a6 6 0 0 1 6-6h143.98a6 6 0 0 1 6 6v38.3a6 6 0 0 1-6 6h-143.97a6 6 0 0 1-6-6z" stroke="#6c6e83" fill="#fff"/><path d="M1100.44 6147.28h98.27v23.98h-98.26z" fill="none"/><use xlink:href="#p" transform="matrix(1,0,0,1,1100.4418227094338,6147.281737393365) translate(0 18.380208333333336)"/><use xlink:href="#s" transform="matrix(1,0,0,1,1100.4418227094338,6147.281737393365) translate(54.93359375 18.380208333333336)"/><path d="M1245.14 6180.76v-47.08M1245.14 6180.74v.77M1245.14 6133.7v-.77" stroke="#6c6e83" stroke-width="1.5" fill="none"/><path d="M581.83 6927.52a6 6 0 0 1 6-6h205.45a6 6 0 0 1 6 6v38.3a6 6 0 0 1-6 6H587.83a6 6 0 0 1-6-6z" stroke="#6c6e83" fill="#fff"/><path d="M625.03 6935.3h157.45v21.37H625.03z" fill="none"/><use xlink:href="#t" transform="matrix(1,0,0,1,625.032937623947,6935.298145241198) translate(0 17.380208333333336)"/><use xlink:href="#u" transform="matrix(1,0,0,1,625.032937623947,6935.298145241198) translate(71.53125 17.380208333333336)"/><path d="M191.8 6310a6 6 0 0 1 6-6h1551a6 6 0 0 1 6 6v222.85a6 6 0 0 1-6 6h-1551a6 6 0 0 1-6-6z" fill="#e0e8f5"/><path d="M212.8 6304h14.97m7.5 0h14.98m7.5 0h14.98m7.5 0h14.98m7.5 0h15m7.48 0h14.98m7.5 0h14.98m7.5 0h14.98m7.5 0h14.98m7.5 0h14.98m7.5 0h14.98m7.5 0h14.97m7.5 0h14.98m7.5 0h15m7.48 0h15m7.48 0h15m7.48 0h14.98m7.5 0h14.98m7.5 0h14.98m7.5 0h14.98m7.5 0h14.98m7.5 0h14.98m7.5 0h14.97m7.5 0h14.97m7.5 0h14.98m7.5 0h14.98m7.5 0h14.98m7.5 0h14.98m7.5 0h14.98m7.5 0h14.98m7.5 0h14.98m7.5 0h14.98m7.5 0h14.98m7.5 0h14.97m7.5 0h14.98m7.5 0h14.98m7.5 0h15m7.48 0h15m7.48 0h15m7.48 0h14.98m7.5 0h14.98m7.5 0h14.98m7.5 0h14.98m7.5 0h14.98m7.5 0h14.98m7.5 0h14.97m7.5 0h14.97m7.5 0h14.98m7.5 0h14.98m7.5 0h14.98m7.5 0h14.98m7.5 0h14.98m7.5 0h14.98m7.5 0h14.98m7.5 0h14.98m7.5 0h14.98m7.5 0h14.98m7.5 0h14.97m7.5 0h14.98m7.5 0h15m7.48 0h15m7.48 0h15m7.48 0h14.98m7.5 0h14.98m7.5 0h14.98m7.5 0h14.98m7.5 0h14.98m7.5 0h14.98m7.5 0h7.48l.94.07.9.23.88.35.8.5.72.6.62.72.5.8.35.88.23.9.07.95v7.43m0 7.43v14.85m0 7.44V6362m0 7.43v14.85m0 7.43v14.87m0 7.43v14.85m0 7.43v14.86m0 7.43v14.86m0 7.42v14.86m0 7.44V6518m0 7.42v7.43l-.07.94-.22.9-.35.88-.5.8-.6.72-.72.6-.8.5-.88.36-.9.22-.95.07h-7.5m-7.48 0h-15m-7.48 0h-15m-7.48 0h-15m-7.48 0h-15m-7.48 0h-14.98m-7.5 0h-14.98m-7.5 0h-14.98m-7.5 0h-14.98m-7.5 0H1539m-7.5 0h-14.97m-7.5 0h-14.98m-7.5 0h-14.98m-7.5 0h-14.98m-7.5 0h-15m-7.48 0h-15m-7.48 0h-14.98m-7.5 0h-14.98m-7.5 0h-14.98m-7.5 0h-14.98m-7.5 0h-14.98m-7.5 0h-14.97m-7.5 0h-14.98m-7.5 0h-15m-7.48 0h-15m-7.48 0h-15m-7.48 0h-15m-7.48 0h-15m-7.48 0h-14.98m-7.5 0h-14.98m-7.5 0h-14.98m-7.5 0h-14.98m-7.5 0H1022m-7.5 0h-14.97m-7.5 0h-14.98m-7.5 0h-14.98m-7.5 0H932.1m-7.5 0h-15m-7.48 0h-15m-7.48 0h-14.98m-7.5 0h-14.98m-7.5 0H819.7m-7.5 0h-14.98m-7.5 0h-14.98m-7.5 0h-14.98m-7.5 0H729.8m-7.5 0h-15m-7.48 0h-15m-7.48 0h-15m-7.48 0h-15m-7.48 0h-15m-7.48 0h-14.98m-7.5 0h-14.98m-7.5 0h-14.98m-7.5 0H527.5m-7.5 0H505m-7.5 0h-14.97m-7.5 0h-14.98m-7.5 0h-14.98m-7.5 0H415.1m-7.5 0h-15m-7.48 0h-15m-7.48 0h-14.98m-7.5 0h-14.98m-7.5 0H302.7m-7.5 0h-14.98m-7.5 0h-14.98m-7.5 0h-14.98m-7.5 0H212.8m-7.5 0h-7.5l-.94-.07-.9-.22-.88-.36-.8-.5-.72-.6-.6-.72-.5-.8-.37-.87-.22-.9-.08-.95v-7.43m0-7.42v-14.86m0-7.43v-14.85m0-7.43v-14.85m0-7.43v-14.86m0-7.43V6414m0-7.43v-14.86m0-7.4v-14.87m0-7.43v-14.86m0-7.43v-14.84m0-7.43V6310l.07-.94.22-.9.36-.88.5-.8.6-.72.72-.6.8-.5.87-.36.9-.23.95-.07h7.5" stroke="#2f3564" stroke-width="1.5" fill="none"/><path d="M294.8 6425.47a19.5 19.5 0 0 1 19.5-19.5h162.1a19.5 19.5 0 0 1 19.5 19.5 19.5 19.5 0 0 1-19.5 19.5H314.3a19.5 19.5 0 0 1-19.5-19.5z" stroke="#6c6e83" fill="#fff"/><path d="M348.8 6412.26h241.13v23.66H348.8z" fill="none"/><use xlink:href="#v" transform="matrix(1,0,0,1,348.8014948025858,6412.262561291059) translate(0 18.380208333333332)"/><use xlink:href="#w" transform="matrix(1,0,0,1,348.8014948025858,6412.262561291059) translate(41.99999999999999 18.380208333333332)"/><path d="M279.54 6471.45c27.6 0 50-22.4 50-50.02 0-27.62-22.4-50.03-50-50.03s-50 22.4-50 50.03c0 27.6 22.4 50.02 50 50.02z" stroke="#6c6e83" fill="#a2c6f6"/><path d="M279.54 6372.5c26.9 0 48.7 21.9 48.7 48.83 0 26.9-21.8 48.82-48.7 48.82-26.9 0-48.7-21.9-48.7-48.82 0-26.9 21.8-48.82 48.7-48.82z" stroke="#000" stroke-opacity="0" fill="#a2c6f6"/><path d="M300.24 6424.93c-.6-3.2-.4-6.4-.6-9.6-.3-2.6-.7-5.2-1.3-7.8-.5-2.4-.4-4.9-.9-7.3-.9-4.1-2.3-9.32-6.1-11.42-1.1-.6-2.3-.9-3.5-1-1.3 0-2.5.3-3.6.8 0 0-10.7-3.4-18.2 1.8-2.4 1.6-3.6 5.92-4.7 8.42-2.3 4.7-1.8 9.7-1.9 14.8-.2 3-.8 5.5-2.2 8.3-1 2-1.2 3.8-.6 6 .4 1.5.7 2.9.3 4.4-.4 1.2-1 2.3-.9 3.6 0 1.9 1.4 3.52 2.8 4.6.9.72 1.8 1.22 2.7 1.82-.5.7-.8 1.5-.1 1.9 1.7 1.1 3.7 1.7 5.7 2.3 2.3.7 4.6 1.4 7 1.9 4.4.9 12.7-.8 18.5-2.4h.1c1.9 0 4.2-.2 5.8-1.2 1.7-1 2.5-3.1 2.8-4.9.8-4.8-.2-10.3-1.1-15z" stroke="#000" stroke-opacity="0" fill="#b06d51"/><path d="M298.44 6444.04c-.1-1.5-.3-3.1-.4-4.6-.2-1.2-.2-2.5-.7-3.6-.4-.8-.9-1.3-1.1-2.3-.2-.9-.2-1.7-.3-2.6-.1-1.8-.2-3.6-.4-5.4-.3-3.7-.5-7.4-.8-11.22 0 0 0-.1-.1-.1 0-.1-.1-.1-.1-.1-.1-.1-.1-.1-.2-.1 0 .1-.1.1-.1.1-1.9 1.8-4.2 3-6.5 4.1-2.9 1.4-5.4 2.3-8.6 1.3-2.7-.9-4.9-2.6-7.4-3.9-1.1-.5-3.6-2-4.7-.9-.6.6-.8 1.8-1.2 2.5-.5 1-1.1 2-1.7 2.9-1.2 1.7-2.2 3.4-2.5 5.5-.1 1.4 0 2.9-.7 4.3-.6 1.1-1.5 1.9-2 3.1-.8 1.6-1.1 3.5-.9 5.3v.2c0 .1 0 .1.1.2v.3c.1.2.3.3.5.1.4.82.6 2.62.8 3.12.5 1 1.1 1.9 1.9 2.7 1.8 2 4.3 3.2 6.8 4.3 2.4 1 4.8 2 7.5 2.3 3 .3 5.8 1.6 8.8 1.8 2.9.3 5.8.1 8.7.5 2.1.3 4.2 0 5.1-2.2.9-2.3.4-5.2.2-7.6z" stroke="#000" stroke-opacity="0" fill="#8f5238"/><path d="M290.94 6421.83c0-.2-.3-.4-.5-.2-.4.5-.7 1.2-1.2 1.6-.5.5-1.2.8-1.8 1-1.6.6-3.3 1-5 1.3-1.5.2-3.1.2-4.6.1-1-.1-1.9-.1-2.8.2 0-.4-.1-.7-.1-1.1 0-.4-.6-.4-.5 0 0 .4 0 .9.1 1.3-.3.2-.2.5 0 .6.1.6.1 1.2.1 1.9.1.3.1.6.1.9l.3 6.9v.2c0 2 .1 4.1 0 6.1-.3.7-.6 1.5-.3 2 .3.4 1.1.4 1.6.5l2.8.3c3.9.2 7.9-.4 11.6-1.7.1 0 .1-.1.2-.1v-.2-21.6z" stroke="#000" stroke-opacity="0" fill="#ffa894"/><path d="M291.24 6397.72c-1.1-.7-5-.2-6.2-.1-2.1.3-4.1.7-6.1 1-4.6.8-8.4 1.4-12.7 3.1-.1 0-.2.1-.3.2v.3l-.1.1v.1c.5 5.5 1.8 15.9 4.5 21.6 1.4 3.1 5.2 6.6 8.4 7.9 6.7 2.7 10.2-1.3 13.1-6.2 3.3-5.8 2.4-11.8 1.4-18-.2-1.7-1-9.2-2-10z" stroke="#000" stroke-opacity="0" fill="#ffa894"/><path d="M288.04 6411.22c0-.5-.1-1.1-.2-1.6-.1-.3-.2-.5-.4-.7-.6-.4-1.2.2-1.3.8 0 .7.2 2.2.9 2.5.7.3.9-.3 1-1zM274.34 6413.32c0-.6-.1-1.1-.3-1.6-.1-.3-.2-.5-.4-.7-.6-.4-1.1.2-1.2.8-.1.7.2 2.2.9 2.4.8.3.9-.2 1-.9z" stroke="#000" stroke-opacity="0" fill="#232c44"/><path d="M296.04 6408.52c-.7-1.7-2-1.4-2.9-.4h-.2s-.1 0-.1.1c-.2.3-.4.6-.5 1v.1c-.2.7-.2 1.5-.1 2.3.1 1.7.4 3.4.7 5.1.4 2.7 2.1.1 2.8-1 1.3-2 1.3-5 .3-7.2zM266.54 6419.63c1 .9 3.3 3 3 .3l-.6-5.1c-.1-.8-.3-1.6-.7-2.3h-.1c-.2-.4-.4-.6-.7-.9 0 0-.1 0-.2-.1l-.1.1c-1.1-.7-2.5-.7-2.7 1.1-.4 2.4.3 5.3 2.1 6.9z" stroke="#000" stroke-opacity="0" fill="#ffa894"/><path d="M294.94 6412.82c-.1-.5-.3-.6-.6-1-.3-.6 0-1.5 0-2.1.1-.4-.5-.4-.6 0 0 .5-.3 1.6-.1 2.2.1.2.3.2.4.4.6.6.4 1.5-.3 2-.3.2 0 .7.3.5.7-.5 1.1-1.2.9-2zM268.24 6417.82c-.3-.2-.7-.5-.8-.9-.1-.5.1-.8.3-1.2 0-.1.1-.2 0-.4 0-.3-.3-.7-.4-1-.3-.5-.5-1-.8-1.5-.1-.4-.6-.1-.5.3.3.6.9 1.3 1 2 .1.4.1.2 0 .6-.1.3-.2.4-.2.7-.1.8.4 1.5 1.1 1.9.4.2.7-.3.3-.5z" stroke="#000" stroke-opacity="0" fill="#f7886d"/><path d="M276.04 6407.42c-1.1-.7-2.6-.4-3.7 0-1.2.3-2.5 1.3-2.8 2.4-.1.1-.1.2 0 .2 0 .1 0 .2.1.2.3.2.3.1.6.1.9-.2 1.7-.8 2.5-1 .8-.3 1.6-.4 2.4-.5.4 0 1 0 1.3-.3.4-.4 0-.9-.4-1.1zM283.34 6407.22c.4.2.9 0 1.3-.1.8-.2 1.6-.3 2.4-.4.9 0 1.8.3 2.6.2.4-.1.4 0 .7-.3v-.2-.2c-.8-1-2.3-1.4-3.5-1.4-1.2.1-2.8.2-3.6 1.2-.3.4-.4.9.1 1.2z" stroke="#000" stroke-opacity="0" fill="#b06d51"/><path d="M289.94 6428.53c-2.2 2.1-4.1 3.8-6.7 4.1-1.5.1-6.3-1.4-8.5-3.2l.3 6.9c.3 0 .6.1 1.5.2.5.1.9.2 1.5.1 1.3-.3 2.2-.9 3.7-.6.7.1 1.4.3 2.2 0 .5-.2.9-.5 1.3-.9.8-.8 1.5-1.5 2.4-2.2 1.3-.9 1.4-1.4 2-2.9.1-.3.5-1.6.3-1.5z" stroke="#000" stroke-opacity="0" fill="#f7886d"/><path d="M286.04 6422.13c-.6 0-7.8 1.2-8 1.1-.1 0-.2.1-.2.2.2.6 1.2 1 1.8 1.2.9.3 1.9.3 2.8.2.8-.1 1.5-.4 2.2-.7.7-.4 1.3-1.1 1.5-1.9v-.1h-.1z" stroke="#000" stroke-opacity="0" fill="#fff"/><path d="M310.04 6461.74c3.3-2.3 5.9-4.9 5.8-8.4v-.1c0-.2 0-.4-.1-.6-.4-2.6-.8-5.1-2.4-7.2-.8-1-1.7-1.9-2.8-2.6-.1-.1-.3-.1-.4-.2-.2-.1-.4-.2-.6-.4-.4-.2-.7-.3-1.1-.5-2.6-1.1-7.8-2.2-10.8-2.7-.3-.1-.6-.1-.9-.2h-.4c-.4-.1-.7-.1-.9-.1-.1-.1-.2-.1-.2 0-.6-2.6.9-6.6-2.7-6.3-1.7.1-2.8 1.6-4.4 2.1-1.2.4-6.9.1-8 .2-2.6.2-3.3-.2-5.8-1.2-1.1-.5-2.5-1-3.1.5-.2.6-.2 1.2 0 1.8.3 1 .5 1.8.5 2.7-.2 0-.4-.1-.6-.2h-.2l-.9-.3h-.1c-.3 0-.6-.1-.8-.1-1.2-.2-2.4-.2-3.6-.4-.5-.1-1.1-.3-1.6-.4-1.4 1.7-3 2.8-5.2 3.4-.5.1-1 .2-1.6.4h-.1l-.9.6c-.3.2-.5.4-.8.5l-.4.4c-.6.5-1.2 1-1.7 1.6-.2.2-.8.7-.8 1l.3-.4c-.1.1-.2.3-.4.5l-1.2 2.1-1.2 2.4c0 .1 0 .1-.1.2-.1.4-.3.7-.4 1.1-.5 1.3-1 2.7-1.6 4.1 0 1.6-.7 3.2.3 4.8 7.2 10.4 37.5 19 61.9 1.9z" stroke="#000" stroke-opacity="0" fill="#fad3b1"/><path d="M282.64 6419.23c-.3.1-1.1.2-1.5.1-.8-.2-.7-1-.7-1.7-.1-.9-.1-1.8-.1-2.7.1-.4-.5-.4-.6 0 0 .9 0 1.8.1 2.7 0 .5 0 1.1.2 1.6.5 1.1 1.9.7 2.8.6.4-.1.2-.6-.2-.6z" stroke="#000" stroke-opacity="0" fill="#f7886d"/><path d="M319.74 6451.04c.8-4.8-9.2-8.2-9.2-8.2-.8 1-13 17-13.8 17.9-.2.3.3 1.4 2.3 7.1.3.9 20.1-12.5 20.7-16.8zM266.04 6469.85c2-5.6 3.3-9.7 3.1-10-.8-.8-13.1-16.9-13.8-17.8v-.1s-12.4 7.6-12.4 13.7c9.8 9.7 15.9 11 23.1 14.2z" stroke="#000" stroke-opacity="0" fill="#fad3b1"/><path d="M309.54 6442.34c-.1.2-.2.4-.2.6-.6 1.7-.8 3.4-2.9 3.9-1.6.4-3.3-.1-4.9-.4-.9-.1-1.8-.3-2.7.1-1 .5-1.7 1.6-2.5 2.4-1.1 1.1-2.4 2.2-4.1 2.5-3.1.6-4.6-2.7-7.5-3.2-2.7-.3-5.3 1.1-8 1.1-1.7.1-4-.2-4.9-1.7-.5-.9-.2-1.2-.4-2.1 0-.4-.2-.7-.5-1-.6-.6-1.8-.7-2.6-.9-1.6-.4-3.2-.7-4.7-1.2-1.5-.4-2.3-1.5-2.7-2.7-.2.1-.5.1-.7.2.3.9.7 1.7 1.4 2.2 2.1 1.8 5.6 1.3 8 2.4 2 .8.7 2.4 1.6 3.7.5.8 1.6 1.1 2.5 1.3 2.6.8 5 .2 7.6-.4 1.7-.4 3.5-.6 5.2.4 1.1.7 1.9 1.7 3.1 2.2 2 .9 4.2.1 5.8-1.2 1.2-.9 2-2.2 3.1-3 1.5-1.2 3.5-.3 5.2-.1 2.1.3 4.7 0 5.6-2.3.3-.9.5-1.7.8-2.5l-.6-.3z" stroke="#000" stroke-opacity="0" fill="#fff"/><path d="M312.54 6448.44c-1.7 3.1-3.2 6.3-4.6 9.5-.1.4.4.7.5.3 1.4-3.2 2.9-6.4 4.6-9.5.2-.3-.4-.6-.5-.3zM291.84 6440.94c-6.2 3.8-13.7 3.3-19.1-1.5-.3-.2-.7.2-.5.5 5.7 4.9 13.5 5.5 19.9 1.5.3-.2 0-.7-.3-.5zM292.74 6436.93c-5 1.1-10.1 2.1-15.2 1-.4-.1-.5.5-.1.5 5.2 1.2 10.4.1 15.5-.9.3-.1.2-.7-.2-.6z" stroke="#000" stroke-opacity="0" fill="#ebbd94"/><path d="M292.54 6399.32c-.6-2.1-1.6-3.1-3.7-3.6-4.3-.9-8.9-.3-12.8 1.5-.1-.1-.1-.1-.2-.1h-.1c.1-.3.1-.7.1-1.1 0-.3-.5-.3-.6 0 0 .5 0 .9-.1 1.3-1.5.4-3.1.8-4.6 1.3-1.3.5-3.2.8-4.4 1.6-.8.5-.9 1.8-1.1 2.7-.3 1.5-.5 3.1-.6 4.6 0 .7 0 1.4.1 2-.8 2-1.4 4.2-1.6 6.3-.4 3.4 0 6.7.5 10 0 .1 0 .1.1.1-.1.8-.2 1.6-.4 2.4-.6 3.3-1.8 6.6-2 10-.2 3.42 1.6 7.52 0 10.72-.6 1.1-1.1 2.2-1.1 3.5-.1 1.6.3 3.1.6 4.6l.1.1c.1.1.1.1.2.1 1.8.1 3.7.1 5.5.1.1 0 .2 0 .2-.1.1 0 .1-.1.1-.2 0-1.7-.9-3.2-.9-5 .1-1.6.8-3.1 1.2-4.6-.4 2-.4 3.9-.2 5.8.1 1.5 0 3.3 1.1 4.4 0 .1.1.1.2.1h.1c.1 0 .1-.1.2-.1v-.2c.5-5.6 1.4-11.3 1.5-16.9 0-2.8-.3-5.7-.6-8.4-.1-1.8-.3-3.5-.4-5.2.3-3.9.6-7.5.6-8.6 0-2.62 2.3-7.52 3.3-9.92 1.2-2.8 2-5.7 2.5-8.7 4-.9 8.2-1.5 12.3-1.4 1.5 0 2.4.5 3.2 1.8.5.9.9 1.9 1.1 2.9.3 1.7.1 3.4 1 4.9.2.2.5.1.5-.2.4-2.9-.2-5.7-.9-8.5z" stroke="#000" stroke-opacity="0" fill="#b06d51"/><path d="M284.24 6394.1c.2-.3.3-.6.3-1s-.2-.8-.3-1.2c-.1-.7-.1-1.5 0-2.3 0-.4-.5-.5-.6-.2-.1.7-.1 1.5 0 2.2.2 1.2.5 1.7-.4 2.8-.2.4-.5.82-.5 1.32 0 .3.4 1.1.4 1.2-.2.4.3.7.5.3.2-.4.1-.3 0-.7 0-.4-.3-.9-.2-1.4.2-.3.7-.7.8-1zM273.94 6393.4c-2.3 1.22-4.7 2.32-6.4 4.22-1.5 1.7-2.4 3.7-2.9 5.8-.5 2.8.5 5.6-.6 8.3-1 2.5-2 4.7-1.8 7.5 0 .4.6.4.6 0-.2-2.8.8-4.8 1.8-7.3.9-2.4.3-4.6.4-7.1.2-2.4 1.2-4.7 2.8-6.6 1.7-2 4-3.1 6.4-4.2.3-.2 0-.7-.3-.6zM278.04 6392c-2.7-.5-5.3-.2-7.7 1-.4.2-.1.7.3.5 2.3-1.2 4.7-1.4 7.2-1 .4.1.5-.5.2-.5z" stroke="#000" stroke-opacity="0" fill="#8f5238"/><path d="M279.54 6471.45c27.6 0 50-22.4 50-50.02 0-27.62-22.4-50.03-50-50.03s-50 22.4-50 50.03c0 27.6 22.4 50.02 50 50.02z" stroke="#6c6e83" fill-opacity="0"/><path d="M582.7 6404.94a6 6 0 0 1 6-6h347.12a6 6 0 0 1 6 6v38.3a6 6 0 0 1-6 6h-347.1a6 6 0 0 1-6-6z" stroke="#6c6e83" fill="#fff"/><path d="M617.55 6410.6H911.6v28.02H617.55z" fill="none"/><use xlink:href="#h" transform="matrix(1,0,0,1,617.5470338413222,6410.596655975656) translate(0 20.880208333333336)"/><use xlink:href="#x" transform="matrix(1,0,0,1,617.5470338413222,6410.596655975656) translate(37.852864583333336 20.880208333333336)"/><use xlink:href="#i" transform="matrix(1,0,0,1,617.5470338413222,6410.596655975656) translate(73.45442708333334 20.880208333333336)"/><use xlink:href="#y" transform="matrix(1,0,0,1,617.5470338413222,6410.596655975656) translate(145.40494791666669 20.880208333333336)"/><use xlink:href="#d" transform="matrix(1,0,0,1,617.5470338413222,6410.596655975656) translate(197.02994791666669 20.880208333333336)"/><use xlink:href="#z" transform="matrix(1,0,0,1,617.5470338413222,6410.596655975656) translate(213.25390625000003 20.880208333333336)"/><path d="M581.83 6139.63a6 6 0 0 1 6-6H813.7a6 6 0 0 1 6 6v38.3a6 6 0 0 1-6 6H587.84a6 6 0 0 1-6-6z" stroke="#6c6e83" fill="#fff"/><path d="M614.7 6147.28h172.1v19.04H614.7z" fill="none"/><use xlink:href="#A" transform="matrix(1,0,0,1,614.6990460640004,6147.281737393365) translate(0 17.317708333333336)"/><use xlink:href="#B" transform="matrix(1,0,0,1,614.6990460640004,6147.281737393365) translate(69.08854166666667 17.317708333333336)"/><path d="M820.96 6158.28h33.1" stroke="#6c6e83" stroke-width="1.5" fill="none"/><path d="M820.98 6159.03h-.77v-1.5h.78z" stroke="#6c6e83" stroke-width=".05" fill="#6c6e83"/><path d="M869.1 6158.27l-14.28 4.64v-9.26z" stroke="#6c6e83" stroke-width="1.5" fill="#6c6e83"/><path d="M1438.38 6158.27h31.13" stroke="#6c6e83" stroke-width="1.5" fill="none"/><path d="M1438.4 6159.02h-.77v-1.5h.77z" stroke="#6c6e83" stroke-width=".05" fill="#6c6e83"/><path d="M1484.53 6158.26l-14.26 4.64v-9.27z" stroke="#6c6e83" stroke-width="1.5" fill="#6c6e83"/><path d="M1487.46 6139.12a6 6 0 0 1 6-6h194.8a6 6 0 0 1 6 6v38.3a6 6 0 0 1-6 6h-194.8a6 6 0 0 1-6-6z" stroke="#6c6e83" fill="#fff"/><path d="M1503.25 6138.5h184.46v35.07h-184.45z" fill="none"/><use xlink:href="#b" transform="matrix(1,0,0,1,1503.252279808833,6138.494249613233) translate(0 24.380208333333336)"/><use xlink:href="#C" transform="matrix(1,0,0,1,1503.252279808833,6138.494249613233) translate(85.52213541666667 24.380208333333336)"/><use xlink:href="#D" transform="matrix(1,0,0,1,1503.252279808833,6138.494249613233) translate(114.06901041666667 24.380208333333336)"/><path d="M275.05 6160.16a21.7 21.7 0 0 1 21.7-21.7h147.6a21.7 21.7 0 0 1 21.7 21.7 21.7 21.7 0 0 1-21.7 21.7h-147.6a21.7 21.7 0 0 1-21.7-21.7z" stroke="#6c6e83" fill="#fff"/><path d="M354.7 6147.6h118.8v24.86H354.7z" fill="none"/><use xlink:href="#f" transform="matrix(1,0,0,1,354.70649400146755,6147.59443128057) translate(0 18.880208333333336)"/><use xlink:href="#g" transform="matrix(1,0,0,1,354.70649400146755,6147.59443128057) translate(28.546875 18.880208333333336)"/><path d="M281.7 6208.25c27.6 0 50-22.3 50-49.98 0-27.56-22.4-49.98-50-49.98s-50 22.4-50 49.97c0 27.67 22.4 49.98 50 49.98z" stroke="#6c6e83" fill="#a2c6f6"/><path d="M281.7 6207.14c26.9 0 48.8-21.8 48.8-48.77 0-26.95-21.9-48.76-48.8-48.76-27 0-48.8 21.8-48.8 48.77 0 26.96 21.8 48.77 48.8 48.77z" stroke="#000" stroke-opacity="0" fill="#a2c6f6"/><path d="M302.6 6136.67c0-.2-.1-.4-.1-.6.2-.4.2-.82.2-1.22 0-1-.7-1.82-1.3-2.63-.7-1-1.4-2.02-2.2-2.82-.4-.4-.8-.8-1.2-1-.6-.32-1.1-.42-1.6-1.02-1-1.52-2.1-2.63-3.8-3.23-1.1-.4-2.3-.4-3.5-.3-.6-.7-1.7-1.12-2.8-1.12-.7-.1-1.5.2-2.3.1-.6-.1-1-.5-1.6-.6-1.2-.2-2.5.1-3.6.4-1.3.4-2.3 1-3.5 1.72-.7.4-1.4.2-2.2.3-.5 0-1 .2-1.5.4-1.8.8-2.9 2.43-3.4 4.24-1.2.1-2.2.6-3 1.4-1.4 1.42-1.4 3.04-1.3 4.86 0 .7 0 1.3-.2 1.9-.1.62-.3 1.12-.5 1.63-.3 1.1-.2 2.1 0 3.22l.9 5.76c-.4.9-.3 2.1.4 3.02.2.2.6.5.9.7.5.4 1 .92 1.4 1.52.5.8 1.1 1.62 1.8 2.33 3 2.93 7.3 3.84 11.4 3.53 2.5-.2 4.8-1 7.3-1.2 1.2-.1 2.4-.1 3.6-.3 1.1-.32 2.1-.72 3-1.23 3.6-1.7 6.9-4.84 7.3-8.98 0-.8 0-1.52.3-2.22.2-.5.5-1 .7-1.52.3-1.1-.3-2.42 0-3.63.2-1.1.5-2.22.4-3.43z" stroke="#000" stroke-opacity="0" fill="#33261a"/><path d="M303.2 6188.77c-3.6-2.23-8.8-3.14-10.6-7.38-.9-2.33-.5-5.15-.5-7.58v-7.37c0-.3-.4-.4-.5-.1-1 1.4-4 1.3-5.5 1.4-1.7.1-3.5.22-5.3.22-3.1 0-6.7.3-9.5-1.22 0-.4-.1-.7-.1-1.1 0-.3-.6-.3-.6 0 0 .4.1.7.1 1.1-.1 0-.1.1-.1.1 0 .1.1.2.1.2.1 1.12.1 2.23.2 3.34.2 2.92.3 5.85.3 8.77.1.9.1 1.92.1 2.83-.9 1.92-2.3 3.74-3.9 5.25-1.3 1.2-2.7 2.32-4.2 3.23-1.1.8-2.5 1.3-3.3 2.53v.2c0 .1.1.1.1.2 3.4 1.63 6.9 3.14 10.5 4.55 3.3 1.22 7.1 2.93 10.8 2.53 1.6-.2 2.9-.9 4.3-1.72 1.7-1 3.4-1.92 5.1-2.83.8-.5 1.6-.9 2.4-1.3 3.3-.2 6.5-1.12 9.5-2.53.6-.3 1.7-.6 2.1-1.2.8-1.02-.8-1.73-1.5-2.13z" stroke="#000" stroke-opacity="0" fill="#b86554"/><path d="M296 6161c.2-.8.3-1.62.5-2.52 0-.2 0-.3.1-.5l.3-1.52c0-.3.1-.6.1-.9.1-.82.2-1.53.4-2.24l.3-2.32c.9-6.56 1.4-12.3 1.2-12.82-.8-2.22-2.3-3.23-4-4.54-.3-.3-.6-.5-.9-.7-.3-.2-.5-.4-.8-.62-1.7-1.5-4.2-1.9-6.4-2-5.2-.22-10.2 0-14.8 2.5-.7.3-1.3.72-1.9 1.22-.1.1-.3.2-.5.3-.6.6-1.2 1.22-1.7 2.02-.5.7-.8 1.52-.9 2.43-.2 1.2-.1 2.4-.4 3.72v.2c-.2 1-.2 3.74-.1 6.97v2.3c.1.82.1 1.63.1 2.44.1.7.1 1.5.2 2.22v.6c.1.5.1.9.1 1.42.1.4.1.9.2 1.3.2 1.73.4 3.04.7 4.05.6 2.22 1.6 4.34 3 6.26 1.9 2.5 4.4 4.53 7.4 5.24 1.2.4 2.5.5 3.8.4.8-.1 1.6-.2 2.3-.4.5-.1 1-.2 1.5-.4 1.6-.4 3.1-1.22 4.4-2.23 1.8-1.4 3.2-3.32 4.1-5.54.6-1.5 1.2-3.84 1.7-6.36z" stroke="#000" stroke-opacity="0" fill="#b86554"/><path d="M300.5 6150.7c-.4-1.5-2.1-2.32-3.1-.8-.1.2.1.4.3.4-.8 1.4-1.3 3.02-1.8 4.64-.3 1.1-1.1 2.93-.8 4.14.5 2.12 3.3-.2 4-1 1.7-2.03 2-4.96 1.4-7.38zM264 6155.95c.5.9 3 3.53 3.8 1.52.4-1.22-.1-3.03-.3-4.25-.2-1.7.1-2.82-.5-4.34.2 0-.2-.6-.3-.9-.8-1.62-2.6-1.02-3.2.4-.9 2.42-1 5.35.5 7.57z" stroke="#000" stroke-opacity="0" fill="#b86554"/><path d="M291 6152.1c.1-.6.2-1.2.1-1.7 0-.3-.1-.6-.3-.8-.6-.62-1.3-.1-1.4.5-.3.8-.3 2.52.4 2.92.7.4 1-.1 1.2-.9zM274.8 6151.3c.1-.5.2-1.1.1-1.7 0-.3-.2-.52-.3-.72-.6-.6-1.3-.1-1.4.5-.3.8-.3 2.43.4 2.84.8.4 1.1-.1 1.2-.9z" stroke="#000" stroke-opacity="0" fill="#33261a"/><path d="M298.6 6151.5v-.1c0-.1 0-.1-.1-.2h-.2-.1c-.1 0-.1.1-.1.1-.1 0-.1.1-.1.1V6151.7l-.3 1.22c-.1.4-.5.9-.4 1.3 0 .22.1.32.2.42.2.4.3.7.3 1.1 0 .4-.4 1.73-1 1.42-.4-.1-.7.4-.3.5 1 .5 1.8-.9 1.9-1.8 0-.2 0-.5-.1-.72 0-.3-.4-.6-.4-.9-.1-.3.3-.9.4-1.22l.3-1.5zM266.5 6155.45c-1-.9-1.2-1.62-.4-2.23l.4-.4c.1-.2.1-.3.1-.5.1-1-.4-2.23-.7-3.23-.1-.32-.7-.22-.6.2.2.7.9 2.5.7 3.12-.2.6-.8.8-1 1.4-.2 1.02.4 1.83 1.3 2.13.4.1.5-.4.2-.5zM288 6175.14c-.3-.5-1.4-.2-3.1.5-2.6.9-6.2.1-8.6-1-1.9-.92-3.9-2.64-5.4-4.35.2 3.02.3 5.94.3 8.87h.6c1.2 0 2.4.6 3.6.7 1 0 1.8-.5 2.7-.7 1.2-.4 2.4 0 3.7-.2.9-.1 1.8-.6 2.6-1.1 1-.6 4.2-1.32 3.6-2.73zM284.7 6157.87c-.2-1.52-.4-3.13-.7-4.65-.1-.4-.7-.3-.6 0 .4 2.02.7 4.14.9 6.16 0 .7.3 1.22-.6 1.62-.6.3-1.5.2-2.1.1-.8-.1-1.4-.1-2.2-.1-.4.1-.4.7 0 .6 1.4-.1 4.6.9 5.4-.7.4-.8 0-2.22-.1-3.03z" stroke="#000" stroke-opacity="0" fill="#9c4736"/><path d="M269.6 6146.06c.1.6.8.8 1.4.8 1.4.2 2.9 0 4.3 0 .8 0 2.6.3 3.3-.3 1.5-1.2-1.5-2.02-2.3-2.12-1.4-.2-2.8-.2-4.2.1-.5.1-2.7.9-2.5 1.52zM293.6 6145.55c-1.3-.3-2.8-.4-4.2-.3-.7.1-3.8.7-2.3 2.02.6.6 2.4.4 3.2.4 1.5.1 2.9.3 4.4.3.5 0 1.2-.2 1.4-.8.3-.6-1.9-1.52-2.5-1.62z" stroke="#000" stroke-opacity="0" fill="#33261a"/><path d="M279.1 6164.73c-.6-.1-1.3-.3-1.9-.6-.1 0-1-.2-1.1-.4.2.6.9 1.3 1.3 1.8.9 1.22 1.7 1.63 3.1 1.73 1.6.1 3.5-.1 4.9-1 0 0 1.6-1.12 1.8-2.23-.1.2-2 .6-2.9.8-.8.1-3.4.2-5.2-.1z" stroke="#000" stroke-opacity="0" fill="#9c4736"/><path d="M309.6 6194.32l-.3-4.14v-.1h-.1l-4.3-1.82c-1.4-.6-7.2-2.12-7.2-2.12s-13 11.1-14.5 11.4c-1.6.3-15.4-10.6-15.4-10.6s-5.7 1.83-7.3 2.94c-2.9 2.12-2.1 5.75-1.9 8.78 2.4 14.64 49.9 12.12 51-4.34z" stroke="#000" stroke-opacity="0" fill="#fff8f0"/><path d="M262.2 6204.72s.3 1.3.7-1.2c.7-4.96 2.2-15.66 2.1-15.66-.2 0-.4 0-.5.1h-.1c-4.9 1.1-9.6 4.54-14.3 6.56-3.5 1.4-1.3 1.62-1.3 1.62l13.4 8.58zM317 6191.9c-1.7-1.32-3.6-1.92-5.6-2.53-2.5-.7-4.5-.9-6.9-1.6-.6-.22-3.3-.72-3.3-.72 0 6.26-1.2 18.38 0 17.67 8.5-4.85 16.6-10.1 15.8-12.82z" stroke="#000" stroke-opacity="0" fill="#456664"/><path d="M271.8 6206.03c-.5-1-1-2.02-1.3-3.13l-.1-.1c-.1 0-.1 0-.1-.1h-.2c0 .1-.1.1-.1.1-1 1-1.9 1.92-2.8 3.03-.2.3.2.7.5.4.7-.9 1.5-1.8 2.4-2.62.3.92.7 1.82 1.2 2.73.2.3.7 0 .5-.3zM298.1 6198.76c-.5-.9-1-1.72-1.5-2.52-.2-.3-.4-.6-.8-.5-.5 0-1 .7-1.3 1-.6.6-1.2 1.3-1.7 2.02-.2.3.2.7.5.4.6-.9 1.3-1.7 2.1-2.52.4-.3.3-.3.7-.1.2.2.3.6.5.8.3.5.7 1.12 1 1.72.2.3.7 0 .5-.3zM288.4 6208.35c-.5-.9-.9-1.9-1.4-2.72-.2-.2-.4-.5-.8-.4-.4 0-.9.8-1.1 1.1l-2 2.43c-.3.3.2.7.4.4.8-1 1.5-2.22 2.5-3.03.2-.2.1-.3.5-.1.1 0 .3.6.4.8l1 1.83c.2.3.7 0 .5-.3zM270.7 6193c-.3-.7-.7-1.5-1.1-2.22-.2-.4-.6-1.2-1.1-1.2-.5-.1-1 .6-1.3.9-.7.6-1.4 1.3-2 2.12-.3.3.2.7.4.4.4-.5.7-.9 1.1-1.2.3-.4.9-1.12 1.3-1.32.7-.3.9.4 1.2.9.4.62.7 1.22.9 1.83.2.4.7.2.6-.2z" stroke="#000" stroke-opacity="0" fill="#aeb5c2"/><path d="M299.8 6137.88c-.3-.7-.9-1.32-1.4-2.02-.7-.7-1.3-1.52-2-2.12-1.4-1.42-2.9-2.53-4.7-3.33-3.6-1.5-7.7-1.3-11.4-.6-2.1.5-4.2 1.1-6.3 1.82-1.7.6-3.5 1.1-4.9 2.22-3.5 3.03-2.5 8.18-3.4 12.1V6146.07h.1c.3 1.1.4 2.22.8 3.23.1.4.4.8.8.7.6-.3.6-1.52.7-2.03.1-1.1 0-2.22.3-3.33.4-1 .4-1.92.6-2.93.2-1.3.7-2.2 1.5-3.22 1.3-1.5 2.4-3.23 3.1-5.15.4.1.7.1 1.1.1.9 0 1.8 0 2.6.1 1.8 0 3.7.1 5.5.1 3.6.2 7.1.6 10.7 1.02h.1c2.4 1.1 2.1 4.84 2.4 7.06.2 1.53.4 3.04.8 4.56.1.8 0 1.6 0 2.42-.1.7-.3 1.4-.4 2.12 0 .3 0 .6.3.7.5.5.8-.3.9-.7.2-.5.4-1.1.6-1.72.3-.5.5-1.1.6-1.7.2-1.12.3-2.23.5-3.34.2-1 .3-2.12.5-3.13.1-1 .3-2 0-3.02z" stroke="#000" stroke-opacity="0" fill="#33261a"/><path d="M281.7 6208.25c27.6 0 50-22.3 50-49.98 0-27.56-22.4-49.98-50-49.98s-50 22.4-50 49.97c0 27.67 22.4 49.98 50 49.98z" stroke="#6c6e83" fill-opacity="0"/><path d="M822.6 6685.95h36.02" stroke="#6c6e83" stroke-width="1.5" fill="none"/><path d="M822.6 6685.2v1.5h-.76v-1.5z" stroke="#6c6e83" stroke-width=".05" fill="#6c6e83"/><path d="M873.64 6685.95l-14.27 4.64v-9.3z" stroke="#6c6e83" stroke-width="1.5" fill="#6c6e83"/><defs><path fill="#172b4d" d="M1222-777c17 480-206 763-650 777H169v-1456h411c408 9 627 269 642 679zm-190 4c3-312-149-522-447-525H361v1141h202c308 0 473-209 469-531v-85" id="E"/><path fill="#172b4d" d="M599-131c141 0 220-65 285-146l113 88C906-50 770 20 589 20 281 21 93-214 93-545c0-223 93-397 233-485 74-48 154-72 240-72 300 2 449 218 445 537v77H278c0 197 129 357 321 357zm227-509c-3-180-88-310-260-310-170 0-264 140-282 310h542" id="F"/><path fill="#172b4d" d="M497-251l268-831h189L566 0H425L33-1082h189" id="G"/><path fill="#172b4d" d="M341 0H156v-1536h185V0" id="H"/><path fill="#172b4d" d="M584 20C278 26 81-227 91-551c10-320 175-545 491-551 308-5 503 247 494 573-9 322-175 543-492 549zm-2-970c-208 0-305 185-305 421 0 216 106 398 307 398 211 0 307-186 307-420 0-214-109-399-309-399" id="I"/><path fill="#172b4d" d="M632-1102c291 0 422 251 422 573 0 297-141 548-419 549-131 0-235-42-310-125v521H140v-1498h169l9 120c75-93 180-140 314-140zm-53 971c207 0 290-180 290-419 0-218-92-395-292-395-112 0-196 50-252 149v517c55 99 140 148 254 148" id="J"/><path fill="#172b4d" d="M663-916c-163-27-288 18-338 148V0H140v-1082h180l3 125c61-97 147-145 258-145 36 0 63 5 82 14v172" id="K"/><g id="a"><use transform="matrix(0.00911458333333333,0,0,0.00911458333333333,0,0)" xlink:href="#E"/><use transform="matrix(0.00911458333333333,0,0,0.00911458333333333,12.240885416666663,0)" xlink:href="#F"/><use transform="matrix(0.00911458333333333,0,0,0.00911458333333333,22.011718749999993,0)" xlink:href="#G"/><use transform="matrix(0.00911458333333333,0,0,0.00911458333333333,30.934895833333325,0)" xlink:href="#F"/><use transform="matrix(0.00911458333333333,0,0,0.00911458333333333,40.824218749999986,0)" xlink:href="#H"/><use transform="matrix(0.00911458333333333,0,0,0.00911458333333333,45.35416666666665,0)" xlink:href="#I"/><use transform="matrix(0.00911458333333333,0,0,0.00911458333333333,55.999999999999986,0)" xlink:href="#J"/><use transform="matrix(0.00911458333333333,0,0,0.00911458333333333,66.47265624999997,0)" xlink:href="#F"/><use transform="matrix(0.00911458333333333,0,0,0.00911458333333333,76.36197916666663,0)" xlink:href="#K"/></g><path fill="#172b4d" d="M688-137c238 0 323-102 359-325h193c-32 297-228 482-552 482-361 0-569-299-569-680 0-197 8-360 73-497 88-186 257-317 513-319 316-2 509 195 535 488h-193c-31-212-118-330-342-330-272 0-397 224-393 523v141c-3 282 115 517 376 517" id="L"/><path fill="#172b4d" d="M589-945c-131 0-219 81-264 174V0H140v-1082h175l6 136c83-104 191-156 324-156 229 0 346 129 346 387V0H806v-716c-2-153-65-229-217-229" id="M"/><path fill="#172b4d" d="M704-1390c-164-38-297 28-288 194v114h231v143H416V0H231v-939H60v-143h171v-111c-12-274 208-416 483-347" id="N"/><path fill="#172b4d" d="M341 0H156v-1082h185V0zm-91-1264c-68 0-108-42-109-105 0-62 41-107 109-107s110 44 110 107-42 105-110 105" id="O"/><path fill="#172b4d" d="M521 20C240 20 96-239 96-550c0-303 147-552 427-552 132 0 235 47 309 140l9-120h169V-26c4 277-183 454-459 452-165-1-334-81-400-187l96-111c79 98 176 147 291 147 180 1 288-109 286-290v-93C750-23 649 20 521 20zm48-965c-209 0-287 178-287 416 0 217 86 392 285 392 117 0 202-53 257-159v-494c-57-103-142-155-255-155" id="P"/><path fill="#172b4d" d="M491 20c-241-1-355-148-355-398v-704h185v699c0 164 67 246 200 246 141 0 235-53 282-158v-787h185V0H812l-4-107C736-22 630 20 491 20" id="Q"/><g id="b"><use transform="matrix(0.009114583333333334,0,0,0.009114583333333334,0,0)" xlink:href="#L"/><use transform="matrix(0.009114583333333334,0,0,0.009114583333333334,12.149739583333334,0)" xlink:href="#I"/><use transform="matrix(0.009114583333333334,0,0,0.009114583333333334,22.795572916666668,0)" xlink:href="#M"/><use transform="matrix(0.009114583333333334,0,0,0.009114583333333334,33.095052083333336,0)" xlink:href="#N"/><use transform="matrix(0.009114583333333334,0,0,0.009114583333333334,39.575520833333336,0)" xlink:href="#O"/><use transform="matrix(0.009114583333333334,0,0,0.009114583333333334,44.10546875,0)" xlink:href="#P"/><use transform="matrix(0.009114583333333334,0,0,0.009114583333333334,54.578125,0)" xlink:href="#Q"/><use transform="matrix(0.009114583333333334,0,0,0.009114583333333334,64.86848958333333,0)" xlink:href="#K"/><use transform="matrix(0.009114583333333334,0,0,0.009114583333333334,71.01171875,0)" xlink:href="#F"/></g><path fill="#172b4d" d="M561-1102c238-4 403 126 403 351v498c0 99 13 178 38 237V0H808c-11-21-19-59-26-114C696-25 593 20 474 20c-199 0-368-130-365-320 4-251 214-359 490-356h180v-85c-1-135-86-212-229-212-115 0-232 67-233 171H131c20-205 206-316 430-320zM294-326c0 117 90 185 207 185 122 0 239-75 278-162v-222H634c-227 0-340 66-340 199" id="R"/><path fill="#172b4d" d="M520 20C244 20 95-247 95-550c0-298 151-550 427-552 127 0 227 43 301 130v-564h185V0H838l-9-116C755-25 652 20 520 20zm48-965c-210 0-288 177-288 416 0 218 87 392 286 392 117 0 203-53 257-158v-497c-55-102-140-153-255-153" id="S"/><path fill="#172b4d" d="M456 20C285 20 205-92 206-268v-671H9v-143h197v-262h185v262h202v143H391v671c-9 125 92 149 207 118V0c-49 13-96 20-142 20" id="T"/><path fill="#172b4d" d="M538-131c121 0 232-49 232-156 0-50-20-88-56-117-73-60-334-92-420-143-92-55-162-110-162-238 0-190 192-317 400-317 223 0 414 129 413 338H759c0-108-110-186-227-186-119 0-215 53-215 159 0 45 18 78 53 101 76 52 331 90 416 139 98 57 169 115 169 251C955-92 760 20 538 20c-176 0-314-68-386-174-38-55-57-115-57-179h185c6 129 116 202 258 202" id="U"/><g id="c"><use transform="matrix(0.009114583333333334,0,0,0.009114583333333334,0,0)" xlink:href="#R"/><use transform="matrix(0.009114583333333334,0,0,0.009114583333333334,10.153645833333334,0)" xlink:href="#Q"/><use transform="matrix(0.009114583333333334,0,0,0.009114583333333334,20.444010416666668,0)" xlink:href="#S"/><use transform="matrix(0.009114583333333334,0,0,0.009114583333333334,30.971354166666668,0)" xlink:href="#O"/><use transform="matrix(0.009114583333333334,0,0,0.009114583333333334,35.501302083333336,0)" xlink:href="#T"/><use transform="matrix(0.009114583333333334,0,0,0.009114583333333334,41.598958333333336,0)" xlink:href="#U"/></g><path fill="#172b4d" d="M572 20C306 25 99-136 101-391c0-70 20-134 59-193s113-127 223-205c-65-79-108-142-130-190s-33-96-33-143c-3-220 144-354 364-354 187 0 349 127 346 308-3 212-172 290-307 398l324 387c45-87 68-183 68-289h167c0 170-41 311-123 423L1267 0h-222l-97-115C862-36 726 17 572 20zM286-391c0 162 118 260 286 260 98 0 188-37 269-112L486-668c-110 72-200 183-200 277zm297-933c-109 0-180 87-178 196 0 64 39 144 118 240 93-79 236-119 236-280 0-91-82-156-176-156" id="V"/><use transform="matrix(0.009114583333333334,0,0,0.009114583333333334,0,0)" xlink:href="#V" id="d"/><g id="e"><use transform="matrix(0.009114583333333334,0,0,0.009114583333333334,0,0)" xlink:href="#H"/><use transform="matrix(0.009114583333333334,0,0,0.009114583333333334,4.529947916666667,0)" xlink:href="#I"/><use transform="matrix(0.009114583333333334,0,0,0.009114583333333334,15.175781250000002,0)" xlink:href="#P"/><use transform="matrix(0.009114583333333334,0,0,0.009114583333333334,25.6484375,0)" xlink:href="#U"/></g><path fill="#172b4d" d="M1216-1011c-1 297-202 441-512 441H361V0H169v-1456h537c297-6 510 164 510 445zm-192 2c1-178-126-288-307-289H361v571h345c196 1 318-92 318-282" id="W"/><g id="f"><use transform="matrix(0.009114583333333334,0,0,0.009114583333333334,0,0)" xlink:href="#L"/><use transform="matrix(0.009114583333333334,0,0,0.009114583333333334,12.149739583333334,0)" xlink:href="#W"/></g><path fill="#172b4d" d="M1240-945c-141 0-250 95-250 227V0H804v-709c0-157-77-236-231-236-121 0-204 52-249 155V0H139v-1082h175l5 120c79-93 186-140 321-140 151 0 254 58 309 174 69-98 181-174 345-174 237 0 362 126 362 377V0h-185v-714c-2-159-67-231-231-231" id="X"/><g id="g"><use transform="matrix(0.009114583333333334,0,0,0.009114583333333334,0,0)" xlink:href="#R"/><use transform="matrix(0.009114583333333334,0,0,0.009114583333333334,10.153645833333334,0)" xlink:href="#S"/><use transform="matrix(0.009114583333333334,0,0,0.009114583333333334,20.680989583333336,0)" xlink:href="#X"/><use transform="matrix(0.009114583333333334,0,0,0.009114583333333334,37.04166666666667,0)" xlink:href="#O"/><use transform="matrix(0.009114583333333334,0,0,0.009114583333333334,41.571614583333336,0)" xlink:href="#M"/></g><path fill="#172b4d" d="M973-380H363L226 0H28l556-1456h168L1309 0h-197zM421-538h495l-248-681" id="Y"/><g id="h"><use transform="matrix(0.009114583333333334,0,0,0.009114583333333334,0,0)" xlink:href="#Y"/><use transform="matrix(0.009114583333333334,0,0,0.009114583333333334,12.177083333333334,0)" xlink:href="#S"/><use transform="matrix(0.009114583333333334,0,0,0.009114583333333334,22.704427083333336,0)" xlink:href="#S"/></g><g id="i"><use transform="matrix(0.009114583333333334,0,0,0.009114583333333334,0,0)" xlink:href="#X"/><use transform="matrix(0.009114583333333334,0,0,0.009114583333333334,16.360677083333336,0)" xlink:href="#R"/><use transform="matrix(0.009114583333333334,0,0,0.009114583333333334,26.51432291666667,0)" xlink:href="#M"/><use transform="matrix(0.009114583333333334,0,0,0.009114583333333334,36.81380208333334,0)" xlink:href="#R"/><use transform="matrix(0.009114583333333334,0,0,0.009114583333333334,46.96744791666668,0)" xlink:href="#P"/><use transform="matrix(0.009114583333333334,0,0,0.009114583333333334,57.44010416666668,0)" xlink:href="#F"/></g><g id="j"><use transform="matrix(0.009114583333333334,0,0,0.009114583333333334,0,0)" xlink:href="#R"/><use transform="matrix(0.009114583333333334,0,0,0.009114583333333334,10.153645833333334,0)" xlink:href="#J"/><use transform="matrix(0.009114583333333334,0,0,0.009114583333333334,20.626302083333336,0)" xlink:href="#J"/><use transform="matrix(0.009114583333333334,0,0,0.009114583333333334,31.098958333333336,0)" xlink:href="#U"/></g><g id="k"><use transform="matrix(0.009114583333333334,0,0,0.009114583333333334,0,0)" xlink:href="#R"/><use transform="matrix(0.009114583333333334,0,0,0.009114583333333334,10.153645833333334,0)" xlink:href="#J"/><use transform="matrix(0.009114583333333334,0,0,0.009114583333333334,20.626302083333336,0)" xlink:href="#J"/></g><path fill="#172b4d" d="M589-945c-131 0-219 81-264 174V0H140v-1536h185v585c82-101 189-151 320-151 229 0 346 129 346 387V0H806v-716c-2-153-65-229-217-229" id="Z"/><path fill="#172b4d" d="M277-555c0 244 77 420 297 424 127 2 249-93 255-210h175C980-127 805 20 574 20 258 20 81-222 92-562c11-319 164-533 481-540 237-5 426 165 431 392H829c-7-133-115-242-256-240-209 4-296 166-296 395" id="aa"/><g id="l"><use transform="matrix(0.009114583333333334,0,0,0.009114583333333334,0,0)" xlink:href="#R"/><use transform="matrix(0.009114583333333334,0,0,0.009114583333333334,10.153645833333334,0)" xlink:href="#Q"/><use transform="matrix(0.009114583333333334,0,0,0.009114583333333334,20.444010416666668,0)" xlink:href="#T"/><use transform="matrix(0.009114583333333334,0,0,0.009114583333333334,26.541666666666668,0)" xlink:href="#Z"/><use transform="matrix(0.009114583333333334,0,0,0.009114583333333334,36.82291666666667,0)" xlink:href="#F"/><use transform="matrix(0.009114583333333334,0,0,0.009114583333333334,46.71223958333334,0)" xlink:href="#M"/><use transform="matrix(0.009114583333333334,0,0,0.009114583333333334,57.011718750000014,0)" xlink:href="#T"/><use transform="matrix(0.009114583333333334,0,0,0.009114583333333334,63.109375000000014,0)" xlink:href="#O"/><use transform="matrix(0.009114583333333334,0,0,0.009114583333333334,67.63932291666669,0)" xlink:href="#aa"/><use transform="matrix(0.009114583333333334,0,0,0.009114583333333334,77.41015625000003,0)" xlink:href="#R"/><use transform="matrix(0.009114583333333334,0,0,0.009114583333333334,87.56380208333334,0)" xlink:href="#T"/><use transform="matrix(0.009114583333333334,0,0,0.009114583333333334,93.66145833333334,0)" xlink:href="#O"/><use transform="matrix(0.009114583333333334,0,0,0.009114583333333334,98.19140625,0)" xlink:href="#I"/><use transform="matrix(0.009114583333333334,0,0,0.009114583333333334,108.83723958333334,0)" xlink:href="#M"/></g><g id="m"><use transform="matrix(0.008680555555555556,0,0,0.008680555555555556,0,0)" xlink:href="#Y"/><use transform="matrix(0.008680555555555556,0,0,0.008680555555555556,11.597222222222223,0)" xlink:href="#Q"/><use transform="matrix(0.008680555555555556,0,0,0.008680555555555556,21.397569444444446,0)" xlink:href="#S"/><use transform="matrix(0.008680555555555556,0,0,0.008680555555555556,31.423611111111114,0)" xlink:href="#O"/><use transform="matrix(0.008680555555555556,0,0,0.008680555555555556,35.73784722222223,0)" xlink:href="#T"/><use transform="matrix(0.008680555555555556,0,0,0.008680555555555556,41.37152777777778,0)" xlink:href="#I"/><use transform="matrix(0.008680555555555556,0,0,0.008680555555555556,51.51041666666667,0)" xlink:href="#K"/></g><path fill="#172b4d" d="M417-1456L893-268l476-1188h249V0h-192c-4-403 4-794 18-1179L966 0H819L342-1176c15 384 23 773 19 1176H169v-1456h248" id="ab"/><g id="n"><use transform="matrix(0.009114583333333334,0,0,0.009114583333333334,0,0)" xlink:href="#ab"/><use transform="matrix(0.009114583333333334,0,0,0.009114583333333334,16.296875,0)" xlink:href="#I"/><use transform="matrix(0.009114583333333334,0,0,0.009114583333333334,26.942708333333336,0)" xlink:href="#M"/><use transform="matrix(0.009114583333333334,0,0,0.009114583333333334,37.2421875,0)" xlink:href="#O"/><use transform="matrix(0.009114583333333334,0,0,0.009114583333333334,41.772135416666664,0)" xlink:href="#T"/><use transform="matrix(0.009114583333333334,0,0,0.009114583333333334,47.6875,0)" xlink:href="#I"/><use transform="matrix(0.009114583333333334,0,0,0.009114583333333334,58.333333333333336,0)" xlink:href="#K"/></g><g id="o"><use transform="matrix(0.009114583333333334,0,0,0.009114583333333334,0,0)" xlink:href="#L"/><use transform="matrix(0.009114583333333334,0,0,0.009114583333333334,12.149739583333334,0)" xlink:href="#W"/><use transform="matrix(0.009114583333333334,0,0,0.009114583333333334,23.92578125,0)" xlink:href="#U"/></g><path fill="#172b4d" d="M375 0H183v-1456h192V0" id="ac"/><g id="p"><use transform="matrix(0.009114583333333334,0,0,0.009114583333333334,0,0)" xlink:href="#ac"/><use transform="matrix(0.009114583333333334,0,0,0.009114583333333334,5.076822916666667,0)" xlink:href="#M"/><use transform="matrix(0.009114583333333334,0,0,0.009114583333333334,15.376302083333336,0)" xlink:href="#U"/><use transform="matrix(0.009114583333333334,0,0,0.009114583333333334,25.001302083333336,0)" xlink:href="#T"/><use transform="matrix(0.009114583333333334,0,0,0.009114583333333334,31.098958333333336,0)" xlink:href="#R"/><use transform="matrix(0.009114583333333334,0,0,0.009114583333333334,41.25260416666667,0)" xlink:href="#H"/><use transform="matrix(0.009114583333333334,0,0,0.009114583333333334,45.782552083333336,0)" xlink:href="#H"/></g><g id="q"><use transform="matrix(0.009114583333333334,0,0,0.009114583333333334,0,0)" xlink:href="#L"/><use transform="matrix(0.009114583333333334,0,0,0.009114583333333334,12.149739583333334,0)" xlink:href="#W"/></g><path fill="#172b4d" d="M631-137c179 0 314-70 314-231 0-71-25-127-75-166s-141-77-272-115c-165-47-285-106-360-175s-112-154-112-255c0-245 231-397 495-397 206 0 369 89 449 218 43 68 65 142 65 223H942c0-184-129-283-321-283-172 0-299 76-301 236 0 59 26 109 76 150s135 78 256 113c205 59 345 116 436 256 35 53 50 119 50 193-2 256-231 398-507 390C333 12 90-129 80-422h193c0 187 160 285 358 285" id="ad"/><g id="r"><use transform="matrix(0.009114583333333334,0,0,0.009114583333333334,0,0)" xlink:href="#Y"/><use transform="matrix(0.009114583333333334,0,0,0.009114583333333334,12.177083333333334,0)" xlink:href="#ad"/><use transform="matrix(0.009114583333333334,0,0,0.009114583333333334,23.251302083333336,0)" xlink:href="#L"/><use transform="matrix(0.009114583333333334,0,0,0.009114583333333334,35.40104166666667,0)" xlink:href="#W"/></g><g id="s"><use transform="matrix(0.009114583333333334,0,0,0.009114583333333334,0,0)" xlink:href="#L"/><use transform="matrix(0.009114583333333334,0,0,0.009114583333333334,12.149739583333334,0)" xlink:href="#L"/><use transform="matrix(0.009114583333333334,0,0,0.009114583333333334,24.299479166666668,0)" xlink:href="#W"/></g><path fill="#172b4d" d="M1161-1018c0 201-122 330-278 388l342 618V0h-206L703-589H361V0H168v-1456h482c310-2 511 139 511 438zm-193 0c0-187-120-280-313-280H361v552h295c179 3 313-101 312-272" id="ae"/><g id="t"><use transform="matrix(0.009114583333333334,0,0,0.009114583333333334,0,0)" xlink:href="#ae"/><use transform="matrix(0.009114583333333334,0,0,0.009114583333333334,11.493489583333334,0)" xlink:href="#F"/><use transform="matrix(0.009114583333333334,0,0,0.009114583333333334,21.3828125,0)" xlink:href="#T"/><use transform="matrix(0.009114583333333334,0,0,0.009114583333333334,27.48046875,0)" xlink:href="#K"/><use transform="matrix(0.009114583333333334,0,0,0.009114583333333334,33.796875,0)" xlink:href="#O"/><use transform="matrix(0.009114583333333334,0,0,0.009114583333333334,38.326822916666664,0)" xlink:href="#F"/><use transform="matrix(0.009114583333333334,0,0,0.009114583333333334,48.09765625,0)" xlink:href="#G"/><use transform="matrix(0.009114583333333334,0,0,0.009114583333333334,57.02083333333333,0)" xlink:href="#F"/></g><g id="u"><use transform="matrix(0.009114583333333334,0,0,0.009114583333333334,0,0)" xlink:href="#ad"/><use transform="matrix(0.009114583333333334,0,0,0.009114583333333334,11.07421875,0)" xlink:href="#F"/><use transform="matrix(0.009114583333333334,0,0,0.009114583333333334,20.963541666666668,0)" xlink:href="#aa"/><use transform="matrix(0.009114583333333334,0,0,0.009114583333333334,30.734375000000004,0)" xlink:href="#K"/><use transform="matrix(0.009114583333333334,0,0,0.009114583333333334,36.87760416666667,0)" xlink:href="#F"/><use transform="matrix(0.009114583333333334,0,0,0.009114583333333334,46.76692708333334,0)" xlink:href="#T"/><use transform="matrix(0.009114583333333334,0,0,0.009114583333333334,52.86458333333334,0)" xlink:href="#U"/></g><g id="v"><use transform="matrix(0.00911458333333333,0,0,0.00911458333333333,0,0)" xlink:href="#ad"/><use transform="matrix(0.00911458333333333,0,0,0.00911458333333333,11.074218749999996,0)" xlink:href="#R"/><use transform="matrix(0.00911458333333333,0,0,0.00911458333333333,21.227864583333325,0)" xlink:href="#N"/><use transform="matrix(0.00911458333333333,0,0,0.00911458333333333,27.48958333333333,0)" xlink:href="#F"/></g><g id="w"><use transform="matrix(0.00911458333333333,0,0,0.00911458333333333,0,0)" xlink:href="#X"/><use transform="matrix(0.00911458333333333,0,0,0.00911458333333333,16.36067708333333,0)" xlink:href="#R"/><use transform="matrix(0.00911458333333333,0,0,0.00911458333333333,26.514322916666657,0)" xlink:href="#M"/><use transform="matrix(0.00911458333333333,0,0,0.00911458333333333,36.81380208333332,0)" xlink:href="#R"/><use transform="matrix(0.00911458333333333,0,0,0.00911458333333333,46.96744791666665,0)" xlink:href="#P"/><use transform="matrix(0.00911458333333333,0,0,0.00911458333333333,57.44010416666664,0)" xlink:href="#F"/><use transform="matrix(0.00911458333333333,0,0,0.00911458333333333,67.32942708333331,0)" xlink:href="#K"/></g><g id="x"><use transform="matrix(0.009114583333333334,0,0,0.009114583333333334,0,0)" xlink:href="#R"/><use transform="matrix(0.009114583333333334,0,0,0.009114583333333334,10.153645833333334,0)" xlink:href="#M"/><use transform="matrix(0.009114583333333334,0,0,0.009114583333333334,20.453125,0)" xlink:href="#S"/></g><g id="y"><use transform="matrix(0.009114583333333334,0,0,0.009114583333333334,0,0)" xlink:href="#ad"/><use transform="matrix(0.009114583333333334,0,0,0.009114583333333334,11.07421875,0)" xlink:href="#R"/><use transform="matrix(0.009114583333333334,0,0,0.009114583333333334,21.227864583333336,0)" xlink:href="#N"/><use transform="matrix(0.009114583333333334,0,0,0.009114583333333334,27.489583333333336,0)" xlink:href="#F"/><use transform="matrix(0.009114583333333334,0,0,0.009114583333333334,37.37890625,0)" xlink:href="#U"/></g><g id="z"><use transform="matrix(0.009114583333333334,0,0,0.009114583333333334,0,0)" xlink:href="#R"/><use transform="matrix(0.009114583333333334,0,0,0.009114583333333334,10.153645833333334,0)" xlink:href="#aa"/><use transform="matrix(0.009114583333333334,0,0,0.009114583333333334,19.924479166666668,0)" xlink:href="#aa"/><use transform="matrix(0.009114583333333334,0,0,0.009114583333333334,29.695312500000004,0)" xlink:href="#I"/><use transform="matrix(0.009114583333333334,0,0,0.009114583333333334,40.341145833333336,0)" xlink:href="#Q"/><use transform="matrix(0.009114583333333334,0,0,0.009114583333333334,50.63151041666667,0)" xlink:href="#M"/><use transform="matrix(0.009114583333333334,0,0,0.009114583333333334,60.93098958333334,0)" xlink:href="#T"/><use transform="matrix(0.009114583333333334,0,0,0.009114583333333334,67.02864583333334,0)" xlink:href="#U"/></g><g id="A"><use transform="matrix(0.009114583333333334,0,0,0.009114583333333334,0,0)" xlink:href="#W"/><use transform="matrix(0.009114583333333334,0,0,0.009114583333333334,11.776041666666668,0)" xlink:href="#K"/><use transform="matrix(0.009114583333333334,0,0,0.009114583333333334,17.919270833333336,0)" xlink:href="#F"/><use transform="matrix(0.009114583333333334,0,0,0.009114583333333334,27.80859375,0)" xlink:href="#J"/><use transform="matrix(0.009114583333333334,0,0,0.009114583333333334,38.28125,0)" xlink:href="#R"/><use transform="matrix(0.009114583333333334,0,0,0.009114583333333334,48.434895833333336,0)" xlink:href="#K"/><use transform="matrix(0.009114583333333334,0,0,0.009114583333333334,54.578125,0)" xlink:href="#F"/></g><g id="B"><use transform="matrix(0.009114583333333334,0,0,0.009114583333333334,0,0)" xlink:href="#F"/><use transform="matrix(0.009114583333333334,0,0,0.009114583333333334,9.889322916666668,0)" xlink:href="#M"/><use transform="matrix(0.009114583333333334,0,0,0.009114583333333334,20.188802083333336,0)" xlink:href="#G"/><use transform="matrix(0.009114583333333334,0,0,0.009114583333333334,29.230468750000004,0)" xlink:href="#O"/><use transform="matrix(0.009114583333333334,0,0,0.009114583333333334,33.76041666666667,0)" xlink:href="#K"/><use transform="matrix(0.009114583333333334,0,0,0.009114583333333334,39.894531250000014,0)" xlink:href="#I"/><use transform="matrix(0.009114583333333334,0,0,0.009114583333333334,50.54036458333334,0)" xlink:href="#M"/><use transform="matrix(0.009114583333333334,0,0,0.009114583333333334,60.839843750000014,0)" xlink:href="#X"/><use transform="matrix(0.009114583333333334,0,0,0.009114583333333334,77.20052083333334,0)" xlink:href="#F"/><use transform="matrix(0.009114583333333334,0,0,0.009114583333333334,87.08984375000003,0)" xlink:href="#M"/><use transform="matrix(0.009114583333333334,0,0,0.009114583333333334,97.38932291666669,0)" xlink:href="#T"/></g><g id="C"><use transform="matrix(0.009114583333333334,0,0,0.009114583333333334,0,0)" xlink:href="#L"/><use transform="matrix(0.009114583333333334,0,0,0.009114583333333334,12.149739583333334,0)" xlink:href="#W"/></g><g id="D"><use transform="matrix(0.009114583333333334,0,0,0.009114583333333334,0,0)" xlink:href="#U"/><use transform="matrix(0.009114583333333334,0,0,0.009114583333333334,9.625,0)" xlink:href="#F"/><use transform="matrix(0.009114583333333334,0,0,0.009114583333333334,19.514322916666668,0)" xlink:href="#T"/><use transform="matrix(0.009114583333333334,0,0,0.009114583333333334,25.611979166666668,0)" xlink:href="#T"/><use transform="matrix(0.009114583333333334,0,0,0.009114583333333334,31.709635416666668,0)" xlink:href="#O"/><use transform="matrix(0.009114583333333334,0,0,0.009114583333333334,36.239583333333336,0)" xlink:href="#M"/><use transform="matrix(0.009114583333333334,0,0,0.009114583333333334,46.5390625,0)" xlink:href="#P"/><use transform="matrix(0.009114583333333334,0,0,0.009114583333333334,57.01171875000001,0)" xlink:href="#U"/></g></defs></g></svg>