<svg xmlns="http://www.w3.org/2000/svg" xmlns:xlink="http://www.w3.org/1999/xlink" xmlns:lucid="lucid" width="1673" height="1375"><g transform="translate(-1885 -9769)" lucid:page-tab-id="0_0"><path d="M1940.1 10607.77a6 6 0 0 1 6-6h1551a6 6 0 0 1 6 6v222.85a6 6 0 0 1-6 6h-1551a6 6 0 0 1-6-6z" fill="#e0e8f5"/><path d="M1961.07 10601.77h15m7.48 0h15m7.48 0h15m7.48 0h15m7.5 0h14.97m7.5 0h14.98m7.5 0h14.98m7.5 0h14.98m7.5 0h14.98m7.5 0h14.98m7.5 0h14.98m7.5 0h14.98m7.5 0h14.98m7.5 0h14.97m7.5 0h14.98m7.5 0h14.98m7.5 0h14.98m7.5 0h15m7.48 0h15m7.48 0h15m7.48 0h14.98m7.5 0h14.98m7.5 0h14.98m7.5 0h14.98m7.5 0h14.98m7.5 0H2538m7.5 0h15m7.5 0h14.97m7.5 0h14.98m7.5 0h14.98m7.5 0h14.98m7.5 0h14.98m7.5 0h14.98m7.5 0h14.98m7.5 0h14.98m7.5 0h14.98m7.5 0h14.97m7.5 0h14.98m7.5 0h14.98m7.5 0h14.98m7.5 0h15m7.48 0h15m7.48 0h15m7.48 0h14.98m7.5 0h14.98m7.5 0h14.98m7.5 0h14.98m7.5 0h14.98m7.5 0H3055m7.5 0h15m7.5 0h14.97m7.5 0h14.98m7.5 0h14.98m7.5 0h14.98m7.5 0h14.98m7.5 0h14.98m7.5 0h14.98m7.5 0h14.98m7.5 0h14.98m7.5 0h14.97m7.5 0h14.98m7.5 0h14.98m7.5 0h14.98m7.5 0h15m7.48 0h15m7.48 0h14.98m7.5 0h14.98m7.5 0h14.98m7.5 0h7.5l.93.07.9.22.88.36.8.5.73.6.6.72.5.8.36.88.2.9.1.95v7.43m0 7.43v14.85m0 7.43v14.87m0 7.43v14.85m0 7.43v14.86m0 7.43v14.85m0 7.43v14.86m0 7.44v14.85m0 7.42v14.86m0 7.43v14.86m0 7.43v7.42l-.1.94-.2.92-.37.86-.5.8-.6.72-.72.6-.8.5-.86.37-.9.22-.95.07h-7.5m-7.5 0h-15m-7.48 0h-14.98m-7.5 0h-14.98m-7.5 0h-14.98m-7.5 0h-14.98m-7.5 0h-14.98m-7.5 0h-14.97m-7.5 0h-14.98m-7.5 0h-14.98m-7.5 0h-15m-7.48 0h-15m-7.48 0h-15m-7.48 0h-14.98m-7.5 0h-14.98m-7.5 0h-14.98m-7.5 0h-14.98m-7.5 0h-14.98m-7.5 0H3085m-7.5 0h-15m-7.5 0h-14.97m-7.5 0h-14.98m-7.5 0h-14.98m-7.5 0h-14.98m-7.5 0h-14.98m-7.5 0h-14.98m-7.5 0h-14.98m-7.5 0h-14.98m-7.5 0h-14.98m-7.5 0h-14.98m-7.5 0h-14.97m-7.5 0h-14.98m-7.5 0h-14.98m-7.5 0h-15m-7.48 0h-15m-7.48 0h-15m-7.48 0h-14.98m-7.5 0h-14.98m-7.5 0h-14.98m-7.5 0h-14.98m-7.5 0h-14.98m-7.5 0H2568m-7.5 0h-15m-7.5 0h-14.97m-7.5 0h-14.98m-7.5 0h-14.98m-7.5 0h-14.98m-7.5 0h-14.98m-7.5 0h-14.98m-7.5 0h-14.98m-7.5 0h-14.98m-7.5 0h-14.98m-7.5 0h-14.97m-7.5 0h-14.98m-7.5 0h-14.98m-7.5 0h-14.98m-7.5 0h-15m-7.48 0h-15m-7.48 0h-15m-7.48 0h-14.98m-7.5 0h-14.98m-7.5 0h-14.98m-7.5 0h-14.98m-7.5 0h-14.98m-7.5 0H2051m-7.5 0h-15m-7.48 0h-15m-7.48 0h-15m-7.48 0h-15m-7.48 0h-7.5l-.93-.07-.92-.22-.87-.36-.8-.5-.7-.6-.63-.72-.5-.8-.35-.88-.22-.9-.07-.95v-7.43m0-7.44v-14.85m0-7.42v-14.86m0-7.43v-14.86m0-7.43v-14.85m0-7.43v-14.85m0-7.43v-14.86m0-7.43v-14.85m0-7.43v-14.86m0-7.42v-14.85m0-7.43v-7.43l.06-.94.22-.9.36-.9.5-.8.6-.7.72-.6.8-.5.87-.37.92-.22.94-.07h7.48" stroke="#2f3564" stroke-width="1.5" fill="none"/><path d="M1940.1 10870.77a6 6 0 0 1 6-6h1551a6 6 0 0 1 6 6v222.86a6 6 0 0 1-6 6h-1551a6 6 0 0 1-6-6z" fill="#e0e8f5"/><path d="M1961.07 10864.77h15m7.48 0h15m7.48 0h15m7.48 0h15m7.5 0h14.97m7.5 0h14.98m7.5 0h14.98m7.5 0h14.98m7.5 0h14.98m7.5 0h14.98m7.5 0h14.98m7.5 0h14.98m7.5 0h14.98m7.5 0h14.97m7.5 0h14.98m7.5 0h14.98m7.5 0h14.98m7.5 0h15m7.48 0h15m7.48 0h15m7.48 0h14.98m7.5 0h14.98m7.5 0h14.98m7.5 0h14.98m7.5 0h14.98m7.5 0H2538m7.5 0h15m7.5 0h14.97m7.5 0h14.98m7.5 0h14.98m7.5 0h14.98m7.5 0h14.98m7.5 0h14.98m7.5 0h14.98m7.5 0h14.98m7.5 0h14.98m7.5 0h14.97m7.5 0h14.98m7.5 0h14.98m7.5 0h14.98m7.5 0h15m7.48 0h15m7.48 0h15m7.48 0h14.98m7.5 0h14.98m7.5 0h14.98m7.5 0h14.98m7.5 0h14.98m7.5 0H3055m7.5 0h15m7.5 0h14.97m7.5 0h14.98m7.5 0h14.98m7.5 0h14.98m7.5 0h14.98m7.5 0h14.98m7.5 0h14.98m7.5 0h14.98m7.5 0h14.98m7.5 0h14.97m7.5 0h14.98m7.5 0h14.98m7.5 0h14.98m7.5 0h15m7.48 0h15m7.48 0h14.98m7.5 0h14.98m7.5 0h14.98m7.5 0h7.5l.93.08.9.22.88.36.8.5.73.6.6.72.5.8.36.87.2.92.1.93v7.43m0 7.43v14.86m0 7.42v14.85m0 7.43v14.86m0 7.43v14.84m0 7.43v14.86m0 7.43v14.85m0 7.44v14.86m0 7.43v14.86m0 7.4v14.87m0 7.43v7.43l-.1.94-.2.9-.37.88-.5.8-.6.72-.72.6-.8.5-.86.36-.9.22-.95.08h-7.5m-7.5 0h-15m-7.48 0h-14.98m-7.5 0h-14.98m-7.5 0h-14.98m-7.5 0h-14.98m-7.5 0h-14.98m-7.5 0h-14.97m-7.5 0h-14.98m-7.5 0h-14.98m-7.5 0h-15m-7.48 0h-15m-7.48 0h-15m-7.48 0h-14.98m-7.5 0h-14.98m-7.5 0h-14.98m-7.5 0h-14.98m-7.5 0h-14.98m-7.5 0H3085m-7.5 0h-15m-7.5 0h-14.97m-7.5 0h-14.98m-7.5 0h-14.98m-7.5 0h-14.98m-7.5 0h-14.98m-7.5 0h-14.98m-7.5 0h-14.98m-7.5 0h-14.98m-7.5 0h-14.98m-7.5 0h-14.98m-7.5 0h-14.97m-7.5 0h-14.98m-7.5 0h-14.98m-7.5 0h-15m-7.48 0h-15m-7.48 0h-15m-7.48 0h-14.98m-7.5 0h-14.98m-7.5 0h-14.98m-7.5 0h-14.98m-7.5 0h-14.98m-7.5 0H2568m-7.5 0h-15m-7.5 0h-14.97m-7.5 0h-14.98m-7.5 0h-14.98m-7.5 0h-14.98m-7.5 0h-14.98m-7.5 0h-14.98m-7.5 0h-14.98m-7.5 0h-14.98m-7.5 0h-14.98m-7.5 0h-14.97m-7.5 0h-14.98m-7.5 0h-14.98m-7.5 0h-14.98m-7.5 0h-15m-7.48 0h-15m-7.48 0h-15m-7.48 0h-14.98m-7.5 0h-14.98m-7.5 0h-14.98m-7.5 0h-14.98m-7.5 0h-14.98m-7.5 0H2051m-7.5 0h-15m-7.48 0h-15m-7.48 0h-15m-7.48 0h-15m-7.48 0h-7.5l-.93-.08-.92-.22-.87-.36-.8-.5-.7-.6-.63-.72-.5-.8-.35-.87-.22-.9-.07-.95v-7.43m0-7.43v-14.86m0-7.4v-14.87m0-7.43v-14.86m0-7.43v-14.84m0-7.43v-14.86m0-7.43v-14.85m0-7.44v-14.86m0-7.43v-14.85m0-7.43v-14.87m0-7.43v-7.43l.06-.93.22-.92.36-.87.5-.8.6-.72.72-.6.8-.5.87-.36.92-.22.94-.08h7.48" stroke="#2f3564" stroke-width="1.5" fill="none"/><path d="M2451.95 10961.43a6 6 0 0 1 6-6h505.8a6 6 0 0 1 6 6v38.3a6 6 0 0 1-6 6h-505.8a6 6 0 0 1-6-6z" stroke="#6c6e83" fill="#fff"/><path d="M2483 10969.08h481.46v23H2483z" fill="none"/><use xlink:href="#a" transform="matrix(1,0,0,1,2483,10969.081059168519) translate(0 17.880208333333336)"/><use xlink:href="#b" transform="matrix(1,0,0,1,2483,10969.081059168519) translate(65.47916666666667 17.880208333333336)"/><use xlink:href="#c" transform="matrix(1,0,0,1,2483,10969.081059168519) translate(155.73177083333334 17.880208333333336)"/><use xlink:href="#d" transform="matrix(1,0,0,1,2483,10969.081059168519) translate(242.77604166666669 17.880208333333336)"/><use xlink:href="#e" transform="matrix(1,0,0,1,2483,10969.081059168519) translate(357.30989583333337 17.880208333333336)"/><use xlink:href="#f" transform="matrix(1,0,0,1,2483,10969.081059168519) translate(426.13411458333337 17.880208333333336)"/><path d="M2037.78 10981.58a19.5 19.5 0 0 1 19.5-19.5h128.9a19.5 19.5 0 0 1 19.5 19.5 19.5 19.5 0 0 1-19.5 19.5h-128.9a19.5 19.5 0 0 1-19.5-19.5z" stroke="#6c6e83" fill="#fff"/><path d="M2096.95 10970.08h100v23h-100z" fill="none"/><use xlink:href="#g" transform="matrix(1,0,0,1,2096.954256379659,10970.081059168473) translate(0 17.880208333333332)"/><path d="M2027.78 11032c27.6 0 50-22.4 50-50s-22.4-50-50-50-50 22.4-50 50 22.4 50 50 50z" stroke="#6c6e83" fill="#a2c6f6"/><path d="M2044.48 10971.36c.3-2 .7-4.12.8-6.13.1-1.8-.1-3.7-.8-5.42-.8-1.9-2.1-3.3-3.5-4.7.8-.2 1.6-.6 2.3-1.2.7-.72 1.2-1.72 1.2-2.82 0-.6-.2-1-.4-1.5s-.2-.8-.1-1.32v-.7c-.4-.9-1.7-1.5-2.5-1.9-.8-.3-1.6-.5-2.5-.6-.3-.8-1.3-1.3-2.2-1.4-.7-.22-1.5-.22-2.2 0-.9.3-1.6.8-2.5 1.2-.8.4-1.8.5-2.6.8-.7.3-1.3.7-1.8 1.2-.7.6-1 1.3-1.3 2.1-1.6-.3-3.3-.4-4.9-.1-.9.2-1.6.6-2.3 1.1-1 .5-2 .7-2.9 1.22-.7.3-1.2.9-1.8 1.5-.7.8-1.6 1.3-2.4 2-.8.6-1.4 1.52-1.8 2.52-.7 1-1.1 2.1-1.5 3.3-.3 1.22-.6 2.42-.9 3.73-.3 1.2-.6 2.5-.7 3.7-.1 2.12.4 4.03 1.6 5.54v.1l.2.2c.1.1.2.1.2 0 2.1.9 4 1.9 5.9 3.2 1.8 1.32 3.6 2.82 5.4 4.33 3.5 2.9 6.3 6.62 9.9 9.44 1.3 1 2.9 2.4 4.7 2 1.7-.4 2.8-2 3.7-3.4 2.2-3.52 3.6-7.64 4.5-11.76.5-2 .9-4.1 1.2-6.22z" stroke="#000" stroke-opacity="0" fill="#5a3728"/><path d="M2039.18 10985.3c.6-3.7 2.8-20.17 1.6-23.08-1-2.1-2.5-3.1-4.3-4.32l-.9-.6c-.2-.2-.5-.4-.8-.6-1.8-1.5-4.3-1.7-6.5-1.7-5.1.1-10.2.4-14.7 3.2-.6.4-1.2.8-1.8 1.3-.1.1-.3.2-.4.4-.7.6-1.3 1.22-1.7 2.02-.5.8-.7 1.6-.8 2.4-1.1 6.23-.4 14.17.9 20.3 1.3 6.72 4.7 14.55 12 16.05 1.2.2 2.5.3 3.9.1 6.1-.7 10.3-4.8 12.3-10.54.5-1.6.9-3.3 1.2-4.92z" stroke="#000" stroke-opacity="0" fill="#fea689"/><path d="M2053.18 11009.3c-4.3-1.3-7.6.4-11.4-2.7-1.2-1-2.3-2.5-2.3-3.92l-.3-3.8c-.3-4.53-.5-9.05-.2-13.57h.1c.6-.5 1.3-1.1 1.9-1.8 1.2-1.5 1.8-3.3 1.8-5.22 0-1.6-.1-3.9-1.8-4.6-1.2-.42-2.7.6-3.4 1.6 0-.1-.1-.1-.2-.2.1-.2.2-.4.4-.6.1-.1-.1-.3-.2-.2-.5.6-.7 1.2-.7 1.9 0 1.1.1 2.1.1 3.1 0 1.72-.1 3.32-.2 4.93-.9 1-1.8 2.02-2.8 3.02-1.4 1.6-3 2.6-4.9 3.72-1.9 1.1-3.7 2.3-5.4 3.6-.9.6-4.6-.6-4.7-2.2-.1-.4-.6-.3-.6.1.5 5.22.8 10.44 1 15.66-.7.5-1.3 1-2 1.4-2 1.42-4.2 2.62-6.5 3.52-.2.1-.3.4-.1.5 3.3 2.62 7.9 5.23 11.5 7.44 1.4.9 2.1 1.3 3.7 1 2-.5 4-1.1 6-1.7 7.6-2.42 14.8-5.93 21.4-10.45.2-.1.1-.4-.2-.5z" stroke="#000" stroke-opacity="0" fill="#fea689"/><path d="M2015.88 10978.5c.1-.62 0-1.42-.1-1.62 0-.3-.1-.6-.3-.7-.6-.6-1.2 0-1.3.6-.2.7-.1 2.3.6 2.6.7.4 1-.2 1.1-.9zM2031.38 10977.48c.1-.6 0-1.4-.1-1.6 0-.3-.1-.6-.3-.7-.6-.6-1.2 0-1.3.6-.2.7-.1 2.3.6 2.6.7.4 1-.2 1.1-.9z" stroke="#000" stroke-opacity="0" fill="#232c44"/><path d="M2024.18 10986.72c-1 .4-3.1.9-3.8-.2-.4-.7.1-2.8.3-3.52.3-2.1.8-4.2 1-6.32.1-.4-.5-.5-.6-.1-.3 3.2-1.6 7.03-1.4 9.74.1 2 3.3 1.4 4.7 1 .4-.2.2-.7-.2-.6z" stroke="#000" stroke-opacity="0" fill="#b47a67"/><path d="M2018.28 10972.16c-.1 0-.2-.1-.3-.1-.7-.1-1.2-.2-2-.1-.9.1-2 .1-3 .4-1 .2-2.6.6-2.9 1.7 0 .1.1.3.2.3.9.4 1.6.1 2.6 0 1.3-.1 2.7-.1 4.1-.3.5 0 1.1-.3 1.4-.7.4-.4.3-.9-.1-1.2zM2026.28 10973.06c.4.3 1 .5 1.5.5 1.4-.1 2.8-.3 4.1-.5 1-.1 1.7.1 2.6-.5.1 0 .1-.2.1-.3-.6-1-2.1-1.1-3.2-1.2-1 0-2.1.2-3 .2-.8 0-1.3.2-2 .5-.1 0-.1.1-.2.1-.4.3-.3.9.1 1.2z" stroke="#000" stroke-opacity="0" fill="#b47a66"/><path d="M2037.38 10988.93c.1-1.6.1-3.32.1-5.02 0-.2.1-2.3-.7-1.5-.2.2-.2.7-.2 1l-.3 1.4c-.2 1.02-.4 2.02-.7 2.92-.1.8-.6 1.5-.8 2.3-.3.72-.7 1.32-1 2.02-.2.8-.5 1.5-1 2.2-.3.6-1 1-1.6 1.3-.6.42-1.9 1.22-2.5 1.62-2.9 1.5-3-3.5-3.5-5.42-.6-.1-1.2 0-1.8.2l-.1.1c-.1 0-.1 0-.2.1.1.3.2.7.3 1.1.1.3.1.5 0 .8 0 .9.3 1.7.1 2.52-.2 1.1-1.2 1.2-2.3 1.5-.6.1-1.1.1-1.7-.3-.6-.5-1.3-.4-1.9-.9-.3-.2-.6-.3-.9-.5-.5-.3-.8-1.1-1.2-1.5-.4-.5-.5-1.2-.7-1.82-.3-.7-.7-.9-1.2-1.2-.6-.4-.5-.7-.8-1.2-.2-.4-.7-1.3-.9-1.6-.1-.2-.2-.5-.2-.72-.3-.6-.7-1.2-1.1-1.7l-.5-.5s-.1.8-.1 1c.1.4.2.7.3 1 .3.5.3 1.3.5 1.9.2.6 0 1.52.3 2.12.3.6.5 3.2.7 3.82.3.7.3 1.3.6 1.9.4.6.3 1.4.6 2 .3.6.8.9 1.3 1.22l.1.1.1.1c.4.4.8.7 1.2 1.2.2.3.7 1.3 1 1.5.5.4 1.1.5 1.5.9.3.3.6.1 1 .4.7.5 1.6.4 2.4.4.6 0 1 .32 1.5.42.5.1 1 0 1.5-.1 1.1-.3 3.2.4 4.3.2.9-.1 1.4-.4 2.1-1 .5-.5.9-.5 1.5-.7.3-.2.5-.6.7-.9.4-.42 1.8-1.72 2.1-2.12.4-.5.6-1 .8-1.6.2-.6.4-2.12.5-2.72.2-.4.3-.8.4-1.2.5-1.6.2-5.33.4-7.03z" stroke="#000" stroke-opacity="0" fill="#5a3728"/><path d="M2028.88 10989.43c-.7 0-9.3.9-9.5.9-.1 0-.2.1-.1.1 4.2 1.4 5.1 1.2 9.7-.9 0-.1-.1-.1-.1-.1z" stroke="#000" stroke-opacity="0" fill="#b66f58"/><path d="M2040.18 10982.5c-.4-.7-.5-.7-.1-1.7 0-.1.2-.2.2-.4.1-.4.2-.7 0-1.2-.1-.4-.7-.92-.7-1.32-.1-.7.5-1.9.7-2.5.1-.4-.5-.5-.6-.1-.2.7-.8 1.8-.8 2.6.1.4.4.6.6.9.7 1.3-.1 1.4-.3 2.32-.2.6.1 1.1.4 1.6.2.3.7.1.5-.2h.1zM2040.18 10953.8c-.9-.72-1.7-1.52-2.6-2.12-1.1-.6-2.2-.5-3.3-1.1-1.9-1.1-3.2-2.1-5.6-1.7-.4.1-.3.7.1.6 1.2-.2 2.5-.1 3.6.6.8.4 1.5 1 2.3 1.3.9.5 1.9.4 2.8 1 .8.6 1.6 1.3 2.3 1.9.3.2.7-.2.4-.5z" stroke="#000" stroke-opacity="0" fill="#392e2a"/><path d="M2045.58 11011.62c-1.2-1.9-4.7-.9-6.4-.5-1.4.3-2.7.7-4 1.3-.6.3-1.3.6-2 .7-1.2.2-2.3-.3-3.5-.3-3.5-.2-7.1 1.4-10.4-.5-1.9-1-3.7-2.9-5.9-2.7l-.1-.1c-.1 0-.3 0-.3.1l-.1.1c-.3.1-.6.2-.9.4-.4.2 0 .6.3.5l.6-.3c.1.1.2.1.2.1H2013.38c.3 1.1 1.2 3.7 1.3 4 .6 1.52 1.2 2.92 1.9 4.33 1.4 2.8 3 5.62 5 7.93 1.8 2.3 4.2 1.7 6.6.6 2.9-1.5 5.7-3 8.5-4.62 2.5-1.5 5-3.1 6.9-5.32 1.2-1.3 3.1-3.8 2-5.72z" stroke="#000" stroke-opacity="0" fill="#93aebe"/><path d="M2067.98 11011.32s-5.9-6.13-10.4-8.84c-.1-.1-.1-.2-.2-.2-2.9-1.1-6.9-3.5-10-1.8-1.5.8-2.3 2.4-3.4 3.5-1.5 1.6-3.6 2.32-5.5 3.02-1.7.6-3.3 1.3-4.7 2.5-1.5 1.32-2.7 3.02-3.9 4.73-1.7 2.4-3.3 4.92-4.7 7.63-.1-.7-.2-1.4-.4-2.1-.6-2.32-1.9-4.23-3.5-6.03-1.7-2-3.2-4.02-4.2-6.53-.8-1.7-1.4-3.8-2.9-5.12-1.4-1.2-3.1-1.1-4.7-.6-1.1.4-2.1.8-3.2 1.1-1.1.3-2.3.5-3.3.8-2.7.7-4.6 2.92-4.7 5.53-2.8.3-5.6 1-8.2 2.32-1.5.7-2.6 1.3-2.6 1.3 25.1 24.2 57.9 26.6 80.5-1.2z" stroke="#000" stroke-opacity="0" fill="#485a7e"/><path d="M2059.48 11021.16s.3 0 .3-.4c-.9-1.9-1.3-1.7-2.1-3.72-1.6-4.32-1.5-9.14.2-13.45.1-.42-.4-.62-.6-.32-1.6 4.22-1.8 8.84-.5 13.06.7 2.1 1.6 2.9 2.7 4.82zM2053.48 11007.6c-1.4 2.7-3.9 4.52-6.5 6.13-2.9 1.7-5.9 3.4-8.8 5.12-2.8 1.6-5.7 3.1-8.5 4.72-2 1.1-3.9 2.5-4.8 4.5-1.6-1.8-3.4-3.4-5.3-4.8-2.4-1.7-5-2.82-6.9-5.13-1.4-1.9-2.9-3.4-4.9-4.7-2.3-1.32-4.9-2.22-7.4-3.03-.4-.1-.7.42-.3.52 2.3.8 4.7 1.5 6.8 2.7 2.6 1.4 4.1 3.42 6 5.53 1.5 1.8 3.7 2.8 5.7 4.1 2.3 1.62 4.3 3.43 6.1 5.54.1.2.4.2.5 0 1.1-2.82 3.9-4.23 6.4-5.63 3-1.6 6-3.32 8.9-5.02 2.8-1.6 5.6-3.12 8.2-4.82 2.2-1.5 4.2-3.12 5.4-5.53.2-.3-.4-.6-.5-.2h-.1z" stroke="#000" stroke-opacity="0" fill="#2c3b59"/><path d="M2020.28 11019.65c-5.2-4.62-7.8-11.34-12.8-16.16-.3-.32-.7.2-.4.4 5 4.8 7.6 11.63 12.8 16.25.3.2.7-.2.4-.5zM2041.68 11007c-1.2 2.1-3.1 3.72-4.8 5.32-1.8 1.7-3.6 3.32-5.4 5.02-.2.2.2.6.5.4l5.7-5.42c1.7-1.5 3.4-3 4.6-5.12.2-.3-.4-.5-.6-.2z" stroke="#000" stroke-opacity="0" fill="#2c3b59"/><path d="M2021.98 11026.98c.2-1.4.2-2.8.3-4.22-.6-.1-1.5-.2-2 .2-.6.5-.3 2.4-.4 3.12-.4 2.7-.6 4.82-.6 4.82s2.3 1.2 2.3-1.6c.2-.7.3-1.52.4-2.32zM2028.38 11029c-1.8 4.3 1.9 3.8 2 2.5.2-1.9.7-3.82.8-5.73 0-1.8-.1-3.7-.2-5.62-.7.2-1.5.4-2.2.5-.1 1 .1 1.9.3 3.02.3 1.8-.5 3.5-.7 5.32z" stroke="#000" stroke-opacity="0" fill="#232c44"/><path d="M2042.28 10966.34c0-1.7-.5-3.32-1.3-4.82-.8-1.5-1.8-2.8-2.9-4.02-1.1-1.3-2.2-2.5-4-3-1.9-.6-3.9-.4-5.9-.3-2.1.1-4.2.1-6.4.3-1 .1-2.1.2-3 .6-.9.4-1.6.9-2.4 1.4-1.6.8-3.3 1.3-4.9 2.3-1.7 1-2.4 2.62-3 4.53-.6 2.1-1 4.3-.8 6.52 0 .1 0 .1.1.1l-.1.1v.2c.2.2.3.3.5.4h.2c1.1-1.4 1.1-3.4 1.4-5.12.3-1 .4-2.5 1.4-3 .6-.4 1.5-.3 2.3-.5.6-.1 1.2-.3 1.7-.6.4-.2.7-.5 1.1-.6.6-.22 1.2.1 1.9.2 1.8.3 3.4-.22 5.2-.72 1.2-.3 2.2-.2 3.4 0 1 .2 2.1.3 3.1.52 1.1.2 2.1.3 3.2.5s2.3.3 2.9 1.5c.9 1.8 1.3 3.82 1.1 5.93-.1 1.9-.4 3.8-.2 5.72.1 1.1 1.1 1.6 1.7.6.3-.5.6-.6 1.2-.7.2 0 .4-.1.6-.2.5-.5.7-1.3.9-1.9.6-1.82 1-3.93 1-5.93z" stroke="#000" stroke-opacity="0" fill="#5a3728"/><path d="M2027.08 10949.17c-1.4-.1-2.7.3-3.8 1-1.5.9-2.1 2.6-3.8 3.22-2.4.8-4.1 2.4-3.9 5.1 0 .4.6.3.6-.1-.1-1.5.5-3 1.9-3.8.8-.6 1.9-.6 2.8-1.22 1-.7 1.5-1.8 2.4-2.5 1.1-.8 2.4-1.2 3.8-1.1.4 0 .4-.6 0-.6zM2040.78 10956.6c0-.4-.6-.3-.6 0 .1 2.9.2 5.62-2.3 7.53-.3.3.1.7.4.5 2.6-2.1 2.5-4.92 2.5-8.03zM2039.48 10954.5c0-.4-.6-.3-.6.1 0 1.9 0 3.8-1.1 5.5-.2.3.3.6.5.2 1.1-1.7 1.2-3.8 1.2-5.8z" stroke="#000" stroke-opacity="0" fill="#392e2a"/><path d="M2027.78 11032c27.6 0 50-22.4 50-50s-22.4-50-50-50-50 22.4-50 50 22.4 50 50 50z" stroke="#6c6e83" fill-opacity="0"/><path d="M1940.1 10081.8a6 6 0 0 1 6-6h1551a6 6 0 0 1 6 6v222.86a6 6 0 0 1-6 6h-1551a6 6 0 0 1-6-6z" fill="#e0e8f5"/><path d="M1961.07 10075.8h15m7.48 0h15m7.48 0h15m7.48 0h15m7.5 0h14.97m7.5 0h14.98m7.5 0h14.98m7.5 0h14.98m7.5 0h14.98m7.5 0h14.98m7.5 0h14.98m7.5 0h14.98m7.5 0h14.98m7.5 0h14.97m7.5 0h14.98m7.5 0h14.98m7.5 0h14.98m7.5 0h15m7.48 0h15m7.48 0h15m7.48 0h14.98m7.5 0h14.98m7.5 0h14.98m7.5 0h14.98m7.5 0h14.98m7.5 0H2538m7.5 0h15m7.5 0h14.97m7.5 0h14.98m7.5 0h14.98m7.5 0h14.98m7.5 0h14.98m7.5 0h14.98m7.5 0h14.98m7.5 0h14.98m7.5 0h14.98m7.5 0h14.97m7.5 0h14.98m7.5 0h14.98m7.5 0h14.98m7.5 0h15m7.48 0h15m7.48 0h15m7.48 0h14.98m7.5 0h14.98m7.5 0h14.98m7.5 0h14.98m7.5 0h14.98m7.5 0H3055m7.5 0h15m7.5 0h14.97m7.5 0h14.98m7.5 0h14.98m7.5 0h14.98m7.5 0h14.98m7.5 0h14.98m7.5 0h14.98m7.5 0h14.98m7.5 0h14.98m7.5 0h14.97m7.5 0h14.98m7.5 0h14.98m7.5 0h14.98m7.5 0h15m7.48 0h15m7.48 0h14.98m7.5 0h14.98m7.5 0h14.98m7.5 0h7.5l.93.08.9.22.88.36.8.5.73.6.6.72.5.8.36.87.2.92.1.94v7.44m0 7.43v14.85m0 7.43v14.86m0 7.44v14.85m0 7.42v14.86m0 7.43v14.86m0 7.43v14.85m0 7.43v14.85m0 7.43v14.86m0 7.43v14.85m0 7.43v7.43l-.1.94-.2.9-.37.88-.5.8-.6.72-.72.6-.8.5-.86.37-.9.22-.95.06h-7.5m-7.5 0h-15m-7.48 0h-14.98m-7.5 0h-14.98m-7.5 0h-14.98m-7.5 0h-14.98m-7.5 0h-14.98m-7.5 0h-14.97m-7.5 0h-14.98m-7.5 0h-14.98m-7.5 0h-15m-7.48 0h-15m-7.48 0h-15m-7.48 0h-14.98m-7.5 0h-14.98m-7.5 0h-14.98m-7.5 0h-14.98m-7.5 0h-14.98m-7.5 0H3085m-7.5 0h-15m-7.5 0h-14.97m-7.5 0h-14.98m-7.5 0h-14.98m-7.5 0h-14.98m-7.5 0h-14.98m-7.5 0h-14.98m-7.5 0h-14.98m-7.5 0h-14.98m-7.5 0h-14.98m-7.5 0h-14.98m-7.5 0h-14.97m-7.5 0h-14.98m-7.5 0h-14.98m-7.5 0h-15m-7.48 0h-15m-7.48 0h-15m-7.48 0h-14.98m-7.5 0h-14.98m-7.5 0h-14.98m-7.5 0h-14.98m-7.5 0h-14.98m-7.5 0H2568m-7.5 0h-15m-7.5 0h-14.97m-7.5 0h-14.98m-7.5 0h-14.98m-7.5 0h-14.98m-7.5 0h-14.98m-7.5 0h-14.98m-7.5 0h-14.98m-7.5 0h-14.98m-7.5 0h-14.98m-7.5 0h-14.97m-7.5 0h-14.98m-7.5 0h-14.98m-7.5 0h-14.98m-7.5 0h-15m-7.48 0h-15m-7.48 0h-15m-7.48 0h-14.98m-7.5 0h-14.98m-7.5 0h-14.98m-7.5 0h-14.98m-7.5 0h-14.98m-7.5 0H2051m-7.5 0h-15m-7.48 0h-15m-7.48 0h-15m-7.48 0h-15m-7.48 0h-7.5l-.93-.07-.92-.23-.87-.36-.8-.5-.7-.6-.63-.7-.5-.82-.35-.87-.22-.9-.07-.94v-7.43m0-7.43v-14.85m0-7.43v-14.86m0-7.43v-14.85m0-7.43v-14.86m0-7.44v-14.85m0-7.42v-14.86m0-7.43v-14.86m0-7.43v-14.85m0-7.43v-14.85m0-7.43v-7.43l.06-.93.22-.92.36-.87.5-.8.6-.72.72-.6.8-.5.87-.36.92-.22.94-.07h7.48" stroke="#2f3564" stroke-width="1.5" fill="none"/><path d="M2024.3 10194.12a21.7 21.7 0 0 1 21.72-21.7h279.93a21.7 21.7 0 0 1 21.7 21.7 21.7 21.7 0 0 1-21.7 21.7h-279.93a21.7 21.7 0 0 1-21.7-21.7z" stroke="#6c6e83" fill="#fff"/><path d="M2098.8 10181.55H2323v25.46H2098.8z" fill="none"/><use xlink:href="#h" transform="matrix(1,0,0,1,2098.808431495403,10181.54885996333) translate(0 19.380208333333336)"/><use xlink:href="#i" transform="matrix(1,0,0,1,2098.808431495403,10181.54885996333) translate(49.255208333333336 19.380208333333336)"/><use xlink:href="#j" transform="matrix(1,0,0,1,2098.808431495403,10181.54885996333) translate(105.74739583333334 19.380208333333336)"/><use xlink:href="#k" transform="matrix(1,0,0,1,2098.808431495403,10181.54885996333) translate(177.734375 19.380208333333336)"/><path d="M2030.95 10242.2c27.6 0 50-22.3 50-49.97 0-27.57-22.4-49.98-50-49.98s-50 22.4-50 49.98c0 27.66 22.4 49.98 50 49.98z" stroke="#6c6e83" fill="#a2c6f6"/><path d="M2030.95 10241.1c26.9 0 48.8-21.8 48.8-48.77 0-26.96-21.9-48.77-48.8-48.77-27 0-48.8 21.8-48.8 48.77 0 26.96 21.8 48.77 48.8 48.77z" stroke="#000" stroke-opacity="0" fill="#a2c6f6"/><path d="M2051.85 10170.62c0-.2-.1-.4-.1-.6.2-.4.2-.8.2-1.22 0-1-.7-1.8-1.3-2.62-.7-1-1.4-2.02-2.2-2.83-.4-.4-.8-.8-1.2-1-.6-.3-1.1-.4-1.6-1.02-1-1.5-2.1-2.62-3.8-3.23-1.1-.4-2.3-.4-3.5-.3-.6-.7-1.7-1.1-2.8-1.1-.7-.12-1.5.2-2.3.1-.6-.1-1-.52-1.6-.62-1.2-.2-2.5.1-3.6.4-1.3.4-2.3 1-3.5 1.72-.7.4-1.4.2-2.2.3-.5 0-1 .2-1.5.4-1.8.82-2.9 2.43-3.4 4.25-1.2.1-2.2.6-3 1.4-1.4 1.43-1.4 3.04-1.3 4.86 0 .72 0 1.32-.2 1.93-.1.6-.3 1.1-.5 1.6-.3 1.12-.2 2.13 0 3.24l.9 5.76c-.4.9-.3 2.12.4 3.03.2.2.6.5.9.7.5.4 1 .9 1.4 1.52.5.8 1.1 1.6 1.8 2.32 3 2.93 7.3 3.84 11.4 3.54 2.5-.2 4.8-1 7.3-1.22 1.2-.1 2.4-.1 3.6-.3 1.1-.3 2.1-.7 3-1.2 3.6-1.73 6.9-4.86 7.3-9 0-.8 0-1.5.3-2.22.2-.5.5-1 .7-1.5.3-1.12-.3-2.44 0-3.65.2-1.1.5-2.22.4-3.43z" stroke="#000" stroke-opacity="0" fill="#33261a"/><path d="M2052.45 10222.72c-3.6-2.22-8.8-3.13-10.6-7.37-.9-2.32-.5-5.15-.5-7.57v-7.37c0-.3-.4-.4-.5-.1-1 1.42-4 1.32-5.5 1.42-1.7.1-3.5.2-5.3.2-3.1 0-6.7.3-9.5-1.2 0-.4-.1-.72-.1-1.12 0-.3-.6-.3-.6 0 0 .4.1.7.1 1.1-.1 0-.1.1-.1.1 0 .1.1.2.1.2.1 1.12.1 2.23.2 3.34.2 2.93.3 5.86.3 8.8.1.9.1 1.9.1 2.82-.9 1.9-2.3 3.73-3.9 5.25-1.3 1.22-2.7 2.33-4.2 3.24-1.1.8-2.5 1.3-3.3 2.52v.2c0 .1.1.1.1.2 3.4 1.62 6.9 3.13 10.5 4.55 3.3 1.22 7.1 2.94 10.8 2.53 1.6-.2 2.9-.9 4.3-1.7 1.7-1.02 3.4-1.93 5.1-2.84.8-.52 1.6-.92 2.4-1.32 3.3-.2 6.5-1.1 9.5-2.53.6-.3 1.7-.6 2.1-1.2.8-1.02-.8-1.73-1.5-2.13z" stroke="#000" stroke-opacity="0" fill="#b86554"/><path d="M2045.25 10194.95c.2-.8.3-1.6.5-2.52 0-.2 0-.3.1-.5l.3-1.52c0-.3.1-.6.1-.9.1-.8.2-1.5.4-2.22l.3-2.32c.9-6.56 1.4-12.32 1.2-12.82-.8-2.23-2.3-3.24-4-4.55-.3-.3-.6-.5-.9-.72-.3-.2-.5-.4-.8-.6-1.7-1.52-4.2-1.92-6.4-2.02-5.2-.2-10.2 0-14.8 2.52-.7.3-1.3.7-1.9 1.22-.1.1-.3.2-.5.3-.6.6-1.2 1.2-1.7 2.02-.5.7-.8 1.5-.9 2.42-.2 1.2-.1 2.42-.4 3.74v.2c-.2 1-.2 3.73-.1 6.97V10185.97c.1.8.1 1.6.1 2.42.1.7.1 1.5.2 2.2v.62c.1.5.1.9.1 1.4.1.4.1.92.2 1.32.2 1.72.4 3.03.7 4.04.6 2.22 1.6 4.34 3 6.26 1.9 2.53 4.4 4.55 7.4 5.25 1.2.4 2.5.5 3.8.4.8-.1 1.6-.2 2.3-.4.5-.1 1-.2 1.5-.4 1.6-.42 3.1-1.22 4.4-2.23 1.8-1.42 3.2-3.33 4.1-5.56.6-1.5 1.2-3.82 1.7-6.35z" stroke="#000" stroke-opacity="0" fill="#b86554"/><path d="M2049.75 10184.66c-.4-1.52-2.1-2.33-3.1-.8-.1.2.1.4.3.4-.8 1.4-1.3 3.02-1.8 4.64-.3 1.1-1.1 2.92-.8 4.14.5 2.1 3.3-.2 4-1.02 1.7-2 2-4.94 1.4-7.36zM2013.25 10189.9c.5.9 3 3.54 3.8 1.52.4-1.2-.1-3.03-.3-4.24-.2-1.72.1-2.83-.5-4.34.2 0-.2-.6-.3-.9-.8-1.63-2.6-1.02-3.2.4-.9 2.42-1 5.34.5 7.57z" stroke="#000" stroke-opacity="0" fill="#b86554"/><path d="M2040.25 10186.07c.1-.6.2-1.2.1-1.72 0-.3-.1-.6-.3-.8-.6-.6-1.3-.1-1.4.5-.3.8-.3 2.52.4 2.93.7.4 1-.1 1.2-.9zM2024.05 10185.26c.1-.5.2-1.1.1-1.72 0-.3-.2-.5-.3-.7-.6-.6-1.3-.1-1.4.5-.3.8-.3 2.42.4 2.83.8.4 1.1-.1 1.2-.9z" stroke="#000" stroke-opacity="0" fill="#33261a"/><path d="M2047.85 10185.46v-.1c0-.1 0-.1-.1-.2h-.2-.1c-.1 0-.1.1-.1.1-.1 0-.1.1-.1.1V10185.66l-.3 1.22c-.1.4-.5.9-.4 1.3 0 .2.1.3.2.4.2.42.3.72.3 1.12 0 .4-.4 1.72-1 1.42-.4-.1-.7.4-.3.5 1 .5 1.8-.9 1.9-1.82 0-.2 0-.5-.1-.7 0-.3-.4-.6-.4-.9-.1-.3.3-.92.4-1.22l.3-1.52zM2015.75 10189.4c-1-.9-1.2-1.6-.4-2.22l.4-.4c.1-.2.1-.3.1-.5.1-1.02-.4-2.23-.7-3.24-.1-.3-.7-.2-.6.2.2.7.9 2.52.7 3.13-.2.6-.8.8-1 1.4-.2 1.02.4 1.83 1.3 2.14.4.1.5-.4.2-.5zM2037.25 10209.1c-.3-.52-1.4-.2-3.1.5-2.6.9-6.2.1-8.6-1.02-1.9-.9-3.9-2.62-5.4-4.34.2 3.03.3 5.96.3 8.9h.6c1.2 0 2.4.6 3.6.7 1 0 1.8-.5 2.7-.7 1.2-.42 2.4 0 3.7-.2.9-.1 1.8-.62 2.6-1.13 1-.6 4.2-1.3 3.6-2.7zM2033.95 10191.82c-.2-1.5-.4-3.13-.7-4.64-.1-.4-.7-.3-.6 0 .4 2.02.7 4.14.9 6.16 0 .7.3 1.2-.6 1.6-.6.32-1.5.22-2.1.1-.8-.1-1.4-.1-2.2-.1-.4.1-.4.72 0 .62 1.4-.1 4.6.9 5.4-.7.4-.82 0-2.23-.1-3.04z" stroke="#000" stroke-opacity="0" fill="#9c4736"/><path d="M2018.85 10180c.1.62.8.82 1.4.82 1.4.2 2.9 0 4.3 0 .8 0 2.6.3 3.3-.3 1.5-1.22-1.5-2.02-2.3-2.13-1.4-.2-2.8-.2-4.2.1-.5.1-2.7.9-2.5 1.5zM2042.85 10179.5c-1.3-.3-2.8-.4-4.2-.3-.7.1-3.8.7-2.3 2.02.6.6 2.4.4 3.2.4 1.5.1 2.9.3 4.4.3.5 0 1.2-.2 1.4-.8.3-.6-1.9-1.5-2.5-1.62z" stroke="#000" stroke-opacity="0" fill="#33261a"/><path d="M2028.35 10198.7c-.6-.1-1.3-.3-1.9-.62-.1 0-1-.2-1.1-.4.2.6.9 1.3 1.3 1.82.9 1.2 1.7 1.6 3.1 1.7 1.6.1 3.5-.1 4.9-1 0 0 1.6-1.1 1.8-2.22-.1.2-2 .6-2.9.8-.8.1-3.4.2-5.2-.1z" stroke="#000" stroke-opacity="0" fill="#9c4736"/><path d="M2058.85 10228.27l-.3-4.14v-.1h-.1l-4.3-1.82c-1.4-.6-7.2-2.1-7.2-2.1s-13 11.1-14.5 11.4c-1.6.3-15.4-10.6-15.4-10.6s-5.7 1.82-7.3 2.93c-2.9 2.12-2.1 5.76-1.9 8.78 2.4 14.65 49.9 12.13 51-4.33z" stroke="#000" stroke-opacity="0" fill="#fff8f0"/><path d="M2011.45 10238.67s.3 1.32.7-1.2c.7-4.96 2.2-15.66 2.1-15.66-.2 0-.4 0-.5.1h-.1c-4.9 1.12-9.6 4.56-14.3 6.58-3.5 1.4-1.3 1.6-1.3 1.6l13.4 8.6zM2066.25 10225.85c-1.7-1.3-3.6-1.92-5.6-2.52-2.5-.7-4.5-.9-6.9-1.62-.6-.2-3.3-.7-3.3-.7 0 6.26-1.2 18.38 0 17.67 8.5-4.84 16.6-10.1 15.8-12.82z" stroke="#000" stroke-opacity="0" fill="#456664"/><path d="M2021.05 10240c-.5-1.02-1-2.03-1.3-3.15l-.1-.1c-.1 0-.1 0-.1-.1h-.2c0 .1-.1.1-.1.1-1 1-1.9 1.92-2.8 3.03-.2.3.2.7.5.4.7-.9 1.5-1.8 2.4-2.62.3.9.7 1.82 1.2 2.73.2.3.7 0 .5-.3zM2047.35 10232.72c-.5-.9-1-1.72-1.5-2.53-.2-.3-.4-.6-.8-.5-.5 0-1 .7-1.3 1-.6.6-1.2 1.3-1.7 2.02-.2.3.2.7.5.4.6-.9 1.3-1.72 2.1-2.53.4-.3.3-.3.7-.1.2.2.3.6.5.8.3.5.7 1.1 1 1.72.2.3.7 0 .5-.3zM2037.65 10242.3c-.5-.9-.9-1.9-1.4-2.72-.2-.2-.4-.5-.8-.4-.4 0-.9.8-1.1 1.1l-2 2.43c-.3.3.2.72.4.4.8-1 1.5-2.2 2.5-3 .2-.22.1-.32.5-.1.1 0 .3.6.4.8l1 1.8c.2.3.7 0 .5-.3zM2019.95 10226.96c-.3-.7-.7-1.5-1.1-2.22-.2-.4-.6-1.2-1.1-1.2-.5-.1-1 .6-1.3.9-.7.6-1.4 1.3-2 2.12-.3.3.2.7.4.4.4-.5.7-.9 1.1-1.2.3-.42.9-1.12 1.3-1.32.7-.3.9.4 1.2.9.4.6.7 1.22.9 1.82.2.4.7.2.6-.2z" stroke="#000" stroke-opacity="0" fill="#aeb5c2"/><path d="M2049.05 10171.83c-.3-.7-.9-1.3-1.4-2.02-.7-.7-1.3-1.5-2-2.1-1.4-1.42-2.9-2.53-4.7-3.34-3.6-1.5-7.7-1.3-11.4-.6-2.1.5-4.2 1.1-6.3 1.8-1.7.62-3.5 1.12-4.9 2.23-3.5 3.02-2.5 8.17-3.4 12.1v.1h.1c.3 1.12.4 2.23.8 3.24.1.4.4.8.8.7.6-.3.6-1.5.7-2 .1-1.12 0-2.23.3-3.34.4-1 .4-1.92.6-2.93.2-1.3.7-2.22 1.5-3.23 1.3-1.52 2.4-3.23 3.1-5.15.4.1.7.1 1.1.1.9 0 1.8 0 2.6.1 1.8 0 3.7.1 5.5.1 3.6.2 7.1.6 10.7 1h.1c2.4 1.1 2.1 4.85 2.4 7.07.2 1.5.4 3.03.8 4.54.1.82 0 1.63 0 2.43-.1.7-.3 1.42-.4 2.13 0 .3 0 .6.3.7.5.5.8-.3.9-.7.2-.5.4-1.1.6-1.72.3-.5.5-1.1.6-1.72.2-1.1.3-2.22.5-3.33.2-1.02.3-2.13.5-3.14.1-1 .3-2.02 0-3.03z" stroke="#000" stroke-opacity="0" fill="#33261a"/><path d="M2030.95 10242.2c27.6 0 50-22.3 50-49.97 0-27.57-22.4-49.98-50-49.98s-50 22.4-50 49.98c0 27.66 22.4 49.98 50 49.98z" stroke="#6c6e83" fill-opacity="0"/><path d="M1940.1 9818.8a6 6 0 0 1 6-6h1551a6 6 0 0 1 6 6v222.85a6 6 0 0 1-6 6h-1551a6 6 0 0 1-6-6z" fill="#e0e8f5"/><path d="M1961.07 9812.8h15m7.48 0h15m7.48 0h15m7.48 0h15m7.5 0h14.97m7.5 0h14.98m7.5 0h14.98m7.5 0h14.98m7.5 0h14.98m7.5 0h14.98m7.5 0h14.98m7.5 0h14.98m7.5 0h14.98m7.5 0h14.97m7.5 0h14.98m7.5 0h14.98m7.5 0h14.98m7.5 0h15m7.48 0h15m7.48 0h15m7.48 0h14.98m7.5 0h14.98m7.5 0h14.98m7.5 0h14.98m7.5 0h14.98m7.5 0H2538m7.5 0h15m7.5 0h14.97m7.5 0h14.98m7.5 0h14.98m7.5 0h14.98m7.5 0h14.98m7.5 0h14.98m7.5 0h14.98m7.5 0h14.98m7.5 0h14.98m7.5 0h14.97m7.5 0h14.98m7.5 0h14.98m7.5 0h14.98m7.5 0h15m7.48 0h15m7.48 0h15m7.48 0h14.98m7.5 0h14.98m7.5 0h14.98m7.5 0h14.98m7.5 0h14.98m7.5 0H3055m7.5 0h15m7.5 0h14.97m7.5 0h14.98m7.5 0h14.98m7.5 0h14.98m7.5 0h14.98m7.5 0h14.98m7.5 0h14.98m7.5 0h14.98m7.5 0h14.98m7.5 0h14.97m7.5 0h14.98m7.5 0h14.98m7.5 0h14.98m7.5 0h15m7.48 0h15m7.48 0h14.98m7.5 0h14.98m7.5 0h14.98m7.5 0h7.5l.93.08.9.22.88.36.8.5.73.6.6.72.5.8.36.87.2.9.1.95v7.43m0 7.43v14.85m0 7.44v14.86m0 7.43v14.86m0 7.4v14.87m0 7.43v14.86m0 7.42v14.86m0 7.43v14.86m0 7.43v14.85m0 7.44v14.86m0 7.43v7.42l-.1.94-.2.9-.37.88-.5.8-.6.72-.72.6-.8.5-.86.36-.9.22-.95.07h-7.5m-7.5 0h-15m-7.48 0h-14.98m-7.5 0h-14.98m-7.5 0h-14.98m-7.5 0h-14.98m-7.5 0h-14.98m-7.5 0h-14.97m-7.5 0h-14.98m-7.5 0h-14.98m-7.5 0h-15m-7.48 0h-15m-7.48 0h-15m-7.48 0h-14.98m-7.5 0h-14.98m-7.5 0h-14.98m-7.5 0h-14.98m-7.5 0h-14.98m-7.5 0H3085m-7.5 0h-15m-7.5 0h-14.97m-7.5 0h-14.98m-7.5 0h-14.98m-7.5 0h-14.98m-7.5 0h-14.98m-7.5 0h-14.98m-7.5 0h-14.98m-7.5 0h-14.98m-7.5 0h-14.98m-7.5 0h-14.98m-7.5 0h-14.97m-7.5 0h-14.98m-7.5 0h-14.98m-7.5 0h-15m-7.48 0h-15m-7.48 0h-15m-7.48 0h-14.98m-7.5 0h-14.98m-7.5 0h-14.98m-7.5 0h-14.98m-7.5 0h-14.98m-7.5 0H2568m-7.5 0h-15m-7.5 0h-14.97m-7.5 0h-14.98m-7.5 0h-14.98m-7.5 0h-14.98m-7.5 0h-14.98m-7.5 0h-14.98m-7.5 0h-14.98m-7.5 0h-14.98m-7.5 0h-14.98m-7.5 0h-14.97m-7.5 0h-14.98m-7.5 0h-14.98m-7.5 0h-14.98m-7.5 0h-15m-7.48 0h-15m-7.48 0h-15m-7.48 0h-14.98m-7.5 0h-14.98m-7.5 0h-14.98m-7.5 0h-14.98m-7.5 0h-14.98m-7.5 0H2051m-7.5 0h-15m-7.48 0h-15m-7.48 0h-15m-7.48 0h-15m-7.48 0h-7.5l-.93-.07-.92-.22-.87-.36-.8-.5-.7-.6-.63-.72-.5-.8-.35-.87-.22-.9-.07-.95v-7.42m0-7.43v-14.86m0-7.43v-14.84m0-7.43v-14.86m0-7.43v-14.86m0-7.42v-14.86m0-7.43v-14.86m0-7.4v-14.87m0-7.43v-14.86m0-7.43v-14.84m0-7.43v-7.43l.06-.94.22-.9.36-.88.5-.8.6-.72.72-.6.8-.5.87-.36.92-.22.94-.08h7.48" stroke="#2f3564" stroke-width="1.5" fill="none"/><path d="M2794 10174.08a6 6 0 0 1 6-6h177.34a6 6 0 0 1 6 6v38.3a6 6 0 0 1-6 6H2800a6 6 0 0 1-6-6z" stroke="#6c6e83" fill="#fff"/><path d="M2818.36 10179.34h150.15v26.67h-150.14z" fill="none"/><use xlink:href="#l" transform="matrix(1,0,0,1,2818.36082411563,10179.343718009524) translate(0 19.880208333333336)"/><use xlink:href="#m" transform="matrix(1,0,0,1,2818.36082411563,10179.343718009524) translate(71.88671875 19.880208333333336)"/><path d="M2450.95 9912.46a6 6 0 0 1 6-6h218.3a6 6 0 0 1 6 6v38.3a6 6 0 0 1-6 6h-218.3a6 6 0 0 1-6-6z" stroke="#6c6e83" fill="#fff"/><path d="M2478.14 9919.12h183.67v23.6h-183.66z" fill="none"/><use xlink:href="#n" transform="matrix(1,0,0,1,2478.1434392382625,9919.116130967548) translate(0 18.380208333333336)"/><use xlink:href="#o" transform="matrix(1,0,0,1,2478.1434392382625,9919.116130967548) translate(77.99348958333333 18.380208333333336)"/><use xlink:href="#p" transform="matrix(1,0,0,1,2478.1434392382625,9919.116130967548) translate(128.98958333333331 18.380208333333336)"/><path d="M2722 10700a6 6 0 0 1 6-6h224.85a6 6 0 0 1 6 6v38.3a6 6 0 0 1-6 6H2728a6 6 0 0 1-6-6z" stroke="#6c6e83" fill="#fff"/><path d="M2746.57 10707.66h209.67v21.9h-209.67z" fill="none"/><use xlink:href="#l" transform="matrix(1,0,0,1,2746.571335297953,10707.660917075622) translate(0 17.380208333333336)"/><use xlink:href="#q" transform="matrix(1,0,0,1,2746.571335297953,10707.660917075622) translate(71.88671875 17.380208333333336)"/><use xlink:href="#r" transform="matrix(1,0,0,1,2746.571335297953,10707.660917075622) translate(144.09244791666669 17.380208333333336)"/><path d="M3019 10700.07a6 6 0 0 1 6-6h169.85a6 6 0 0 1 6 6v38.3a6 6 0 0 1-6 6H3025a6 6 0 0 1-6-6z" stroke="#6c6e83" fill="#fff"/><path d="M3047.9 10708h146.95v21.57H3047.9z" fill="none"/><use xlink:href="#l" transform="matrix(1,0,0,1,3047.9050231939655,10708) translate(0 17.380208333333336)"/><use xlink:href="#s" transform="matrix(1,0,0,1,3047.9050231939655,10708) translate(71.88671875 17.380208333333336)"/><path d="M2024.3 9931.6a21.7 21.7 0 0 1 21.72-21.7H2332a21.7 21.7 0 0 1 21.7 21.7 21.7 21.7 0 0 1-21.7 21.72H2046a21.7 21.7 0 0 1-21.7-21.7z" stroke="#6c6e83" fill="#fff"/><path d="M2101 9913.1h263.54v36.26H2101z" fill="none"/><use xlink:href="#t" transform="matrix(1,0,0,1,2101,9913.090752097267) translate(0 24.880208333333336)"/><use xlink:href="#u" transform="matrix(1,0,0,1,2101,9913.090752097267) translate(49.255208333333336 24.880208333333336)"/><use xlink:href="#v" transform="matrix(1,0,0,1,2101,9913.090752097267) translate(105.74739583333334 24.880208333333336)"/><use xlink:href="#w" transform="matrix(1,0,0,1,2101,9913.090752097267) translate(183.23046875 24.880208333333336)"/><path d="M2030.95 9979.7c27.6 0 50-22.3 50-49.98 0-27.56-22.4-49.98-50-49.98s-50 22.42-50 49.98c0 27.67 22.4 49.98 50 49.98z" stroke="#6c6e83" fill="#a2c6f6"/><path d="M2030.95 9978.6c26.9 0 48.8-21.82 48.8-48.78 0-26.95-21.9-48.76-48.8-48.76-27 0-48.8 21.8-48.8 48.76 0 26.96 21.8 48.77 48.8 48.77z" stroke="#000" stroke-opacity="0" fill="#a2c6f6"/><path d="M2051.85 9908.1c0-.2-.1-.4-.1-.6.2-.4.2-.8.2-1.2 0-1-.7-1.82-1.3-2.63-.7-1-1.4-2.02-2.2-2.82-.4-.4-.8-.8-1.2-1-.6-.32-1.1-.42-1.6-1.02-1-1.52-2.1-2.63-3.8-3.24-1.1-.4-2.3-.4-3.5-.3-.6-.7-1.7-1.12-2.8-1.12-.7-.1-1.5.2-2.3.1-.6-.1-1-.5-1.6-.6-1.2-.2-2.5.1-3.6.4-1.3.4-2.3 1-3.5 1.72-.7.4-1.4.2-2.2.3-.5 0-1 .2-1.5.4-1.8.8-2.9 2.43-3.4 4.25-1.2.1-2.2.6-3 1.4-1.4 1.42-1.4 3.04-1.3 4.85 0 .7 0 1.32-.2 1.92-.1.6-.3 1.1-.5 1.62-.3 1.1-.2 2.12 0 3.23l.9 5.75c-.4.9-.3 2.13.4 3.03.2.2.6.5.9.7.5.42 1 .92 1.4 1.52.5.8 1.1 1.62 1.8 2.33 3 2.93 7.3 3.83 11.4 3.53 2.5-.2 4.8-1 7.3-1.2 1.2-.1 2.4-.1 3.6-.3 1.1-.32 2.1-.72 3-1.22 3.6-1.7 6.9-4.84 7.3-8.98 0-.8 0-1.5.3-2.22.2-.5.5-1 .7-1.52.3-1.1-.3-2.42 0-3.63.2-1.1.5-2.22.4-3.43z" stroke="#000" stroke-opacity="0" fill="#33261a"/><path d="M2052.45 9960.2c-3.6-2.2-8.8-3.12-10.6-7.36-.9-2.32-.5-5.15-.5-7.57v-7.37c0-.3-.4-.4-.5-.1-1 1.4-4 1.3-5.5 1.4-1.7.1-3.5.22-5.3.22-3.1 0-6.7.3-9.5-1.22 0-.4-.1-.7-.1-1.1 0-.3-.6-.3-.6 0 0 .4.1.7.1 1.1-.1 0-.1.1-.1.1 0 .1.1.2.1.2.1 1.12.1 2.23.2 3.34.2 2.93.3 5.85.3 8.78.1.9.1 1.92.1 2.83-.9 1.92-2.3 3.74-3.9 5.25-1.3 1.2-2.7 2.32-4.2 3.23-1.1.8-2.5 1.3-3.3 2.53v.2c0 .1.1.1.1.2 3.4 1.6 6.9 3.13 10.5 4.54 3.3 1.22 7.1 2.93 10.8 2.53 1.6-.2 2.9-.9 4.3-1.72 1.7-1 3.4-1.9 5.1-2.82.8-.5 1.6-.9 2.4-1.3 3.3-.2 6.5-1.12 9.5-2.53.6-.3 1.7-.6 2.1-1.2.8-1.02-.8-1.73-1.5-2.14z" stroke="#000" stroke-opacity="0" fill="#b86554"/><path d="M2045.25 9932.45c.2-.8.3-1.62.5-2.53 0-.2 0-.3.1-.5l.3-1.5c0-.32.1-.62.1-.92.1-.8.2-1.52.4-2.23l.3-2.32c.9-6.56 1.4-12.32 1.2-12.82-.8-2.22-2.3-3.23-4-4.54-.3-.32-.6-.52-.9-.72-.3-.2-.5-.4-.8-.6-1.7-1.52-4.2-1.93-6.4-2.03-5.2-.2-10.2 0-14.8 2.53-.7.3-1.3.7-1.9 1.2-.1.1-.3.2-.5.3-.6.62-1.2 1.22-1.7 2.03-.5.72-.8 1.53-.9 2.44-.2 1.2-.1 2.42-.4 3.73v.2c-.2 1-.2 3.74-.1 6.97V9923.46c.1.8.1 1.62.1 2.43.1.7.1 1.5.2 2.2v.6c.1.52.1.92.1 1.43.1.4.1.9.2 1.3.2 1.73.4 3.04.7 4.05.6 2.22 1.6 4.34 3 6.26 1.9 2.52 4.4 4.54 7.4 5.25 1.2.4 2.5.5 3.8.4.8-.1 1.6-.2 2.3-.4.5-.1 1-.2 1.5-.42 1.6-.4 3.1-1.2 4.4-2.22 1.8-1.4 3.2-3.33 4.1-5.55.6-1.5 1.2-3.83 1.7-6.35z" stroke="#000" stroke-opacity="0" fill="#b86554"/><path d="M2049.75 9922.15c-.4-1.5-2.1-2.32-3.1-.8-.1.2.1.4.3.4-.8 1.4-1.3 3.02-1.8 4.64-.3 1.1-1.1 2.92-.8 4.13.5 2.12 3.3-.2 4-1 1.7-2.03 2-4.96 1.4-7.38zM2013.25 9927.4c.5.9 3 3.53 3.8 1.52.4-1.22-.1-3.03-.3-4.25-.2-1.7.1-2.82-.5-4.34.2 0-.2-.6-.3-.9-.8-1.62-2.6-1.02-3.2.4-.9 2.42-1 5.35.5 7.57z" stroke="#000" stroke-opacity="0" fill="#b86554"/><path d="M2040.25 9923.56c.1-.6.2-1.2.1-1.7 0-.32-.1-.62-.3-.82-.6-.6-1.3-.1-1.4.5-.3.8-.3 2.53.4 2.93.7.4 1-.1 1.2-.9zM2024.05 9922.76c.1-.5.2-1.1.1-1.72 0-.3-.2-.5-.3-.7-.6-.6-1.3-.1-1.4.5-.3.8-.3 2.42.4 2.83.8.4 1.1-.1 1.2-.9z" stroke="#000" stroke-opacity="0" fill="#33261a"/><path d="M2047.85 9922.96v-.1c0-.1 0-.1-.1-.2h-.2-.1c-.1 0-.1.1-.1.1-.1 0-.1.1-.1.1V9923.16l-.3 1.2c-.1.4-.5.92-.4 1.32 0 .2.1.3.2.4.2.4.3.72.3 1.12 0 .4-.4 1.72-1 1.4-.4-.1-.7.42-.3.52 1 .5 1.8-.9 1.9-1.82 0-.2 0-.5-.1-.7 0-.3-.4-.6-.4-.92-.1-.3.3-.9.4-1.2l.3-1.52zM2015.75 9926.9c-1-.9-1.2-1.62-.4-2.23l.4-.4c.1-.2.1-.3.1-.5.1-1-.4-2.23-.7-3.24-.1-.3-.7-.2-.6.2.2.7.9 2.53.7 3.14-.2.6-.8.8-1 1.4-.2 1.02.4 1.83 1.3 2.13.4.1.5-.4.2-.5zM2037.25 9946.58c-.3-.5-1.4-.2-3.1.5-2.6.92-6.2.1-8.6-1-1.9-.9-3.9-2.63-5.4-4.34.2 3.03.3 5.95.3 8.88h.6c1.2 0 2.4.6 3.6.7 1 0 1.8-.5 2.7-.7 1.2-.4 2.4 0 3.7-.2.9-.1 1.8-.6 2.6-1.1 1-.6 4.2-1.32 3.6-2.74zM2033.95 9929.32c-.2-1.52-.4-3.13-.7-4.65-.1-.4-.7-.3-.6 0 .4 2.02.7 4.14.9 6.16 0 .7.3 1.22-.6 1.62-.6.3-1.5.2-2.1.1-.8-.1-1.4-.1-2.2-.1-.4.1-.4.7 0 .6 1.4-.1 4.6.9 5.4-.7.4-.8 0-2.22-.1-3.03z" stroke="#000" stroke-opacity="0" fill="#9c4736"/><path d="M2018.85 9917.5c.1.6.8.8 1.4.8 1.4.22 2.9 0 4.3 0 .8 0 2.6.32 3.3-.3 1.5-1.2-1.5-2-2.3-2.1-1.4-.2-2.8-.2-4.2.1-.5.1-2.7.9-2.5 1.5zM2042.85 9917c-1.3-.3-2.8-.4-4.2-.3-.7.1-3.8.7-2.3 2.02.6.6 2.4.4 3.2.4 1.5.1 2.9.3 4.4.3.5 0 1.2-.2 1.4-.8.3-.6-1.9-1.52-2.5-1.62z" stroke="#000" stroke-opacity="0" fill="#33261a"/><path d="M2028.35 9936.18c-.6-.1-1.3-.3-1.9-.6-.1 0-1-.2-1.1-.4.2.6.9 1.3 1.3 1.8.9 1.22 1.7 1.63 3.1 1.73 1.6.1 3.5-.1 4.9-1 0 0 1.6-1.1 1.8-2.22-.1.2-2 .6-2.9.8-.8.1-3.4.2-5.2-.1z" stroke="#000" stroke-opacity="0" fill="#9c4736"/><path d="M2058.85 9965.77l-.3-4.14v-.1h-.1l-4.3-1.82c-1.4-.6-7.2-2.1-7.2-2.1s-13 11.1-14.5 11.4c-1.6.3-15.4-10.6-15.4-10.6s-5.7 1.82-7.3 2.93c-2.9 2.12-2.1 5.75-1.9 8.78 2.4 14.65 49.9 12.13 51-4.33z" stroke="#000" stroke-opacity="0" fill="#fff8f0"/><path d="M2011.45 9976.17s.3 1.3.7-1.2c.7-4.96 2.2-15.66 2.1-15.66-.2 0-.4 0-.5.1h-.1c-4.9 1.12-9.6 4.55-14.3 6.57-3.5 1.4-1.3 1.62-1.3 1.62l13.4 8.57zM2066.25 9963.34c-1.7-1.3-3.6-1.9-5.6-2.52-2.5-.7-4.5-.9-6.9-1.6-.6-.22-3.3-.72-3.3-.72 0 6.26-1.2 18.38 0 17.67 8.5-4.85 16.6-10.1 15.8-12.83z" stroke="#000" stroke-opacity="0" fill="#456664"/><path d="M2021.05 9977.48c-.5-1-1-2.02-1.3-3.13l-.1-.1c-.1 0-.1 0-.1-.1h-.2c0 .1-.1.1-.1.1-1 1-1.9 1.92-2.8 3.03-.2.3.2.7.5.4.7-.9 1.5-1.82 2.4-2.62.3.9.7 1.82 1.2 2.72.2.3.7 0 .5-.3zM2047.35 9970.2c-.5-.9-1-1.7-1.5-2.5-.2-.32-.4-.62-.8-.52-.5 0-1 .7-1.3 1-.6.62-1.2 1.32-1.7 2.03-.2.3.2.72.5.4.6-.9 1.3-1.7 2.1-2.5.4-.3.3-.3.7-.1.2.2.3.6.5.8.3.5.7 1.1 1 1.7.2.32.7 0 .5-.3zM2037.65 9979.8c-.5-.9-.9-1.9-1.4-2.72-.2-.2-.4-.5-.8-.4-.4 0-.9.8-1.1 1.1l-2 2.43c-.3.3.2.7.4.4.8-1 1.5-2.2 2.5-3.02.2-.2.1-.3.5-.1.1 0 .3.6.4.8l1 1.83c.2.3.7 0 .5-.3zM2019.95 9964.46c-.3-.7-.7-1.52-1.1-2.22-.2-.4-.6-1.22-1.1-1.22-.5-.1-1 .6-1.3.9-.7.62-1.4 1.32-2 2.13-.3.3.2.7.4.4.4-.5.7-.9 1.1-1.2.3-.4.9-1.12 1.3-1.32.7-.3.9.4 1.2.9.4.62.7 1.22.9 1.83.2.4.7.2.6-.2z" stroke="#000" stroke-opacity="0" fill="#aeb5c2"/><path d="M2049.05 9909.33c-.3-.7-.9-1.32-1.4-2.02-.7-.7-1.3-1.5-2-2.1-1.4-1.43-2.9-2.54-4.7-3.35-3.6-1.5-7.7-1.3-11.4-.6-2.1.5-4.2 1.1-6.3 1.82-1.7.6-3.5 1.1-4.9 2.22-3.5 3.02-2.5 8.17-3.4 12.1v.1h.1c.3 1.12.4 2.23.8 3.24.1.4.4.8.8.7.6-.3.6-1.5.7-2.02.1-1.1 0-2.22.3-3.33.4-1.02.4-1.93.6-2.94.2-1.3.7-2.22 1.5-3.23 1.3-1.5 2.4-3.23 3.1-5.15.4.1.7.1 1.1.1.9 0 1.8 0 2.6.1 1.8 0 3.7.1 5.5.1 3.6.2 7.1.6 10.7 1.02h.1c2.4 1.1 2.1 4.84 2.4 7.06.2 1.52.4 3.03.8 4.55.1.8 0 1.62 0 2.43-.1.7-.3 1.4-.4 2.12 0 .3 0 .6.3.7.5.5.8-.3.9-.7.2-.5.4-1.1.6-1.72.3-.5.5-1.1.6-1.7.2-1.12.3-2.23.5-3.34.2-1.02.3-2.13.5-3.14.1-1 .3-2.02 0-3.03z" stroke="#000" stroke-opacity="0" fill="#33261a"/><path d="M2030.95 9979.7c27.6 0 50-22.3 50-49.98 0-27.56-22.4-49.98-50-49.98s-50 22.42-50 49.98c0 27.67 22.4 49.98 50 49.98z" stroke="#6c6e83" fill-opacity="0"/><path d="M2451.33 10173.43a6 6 0 0 1 6-6H2728a6 6 0 0 1 6 6v38.3a6 6 0 0 1-6 6h-270.67a6 6 0 0 1-6-6z" stroke="#6c6e83" fill="#fff"/><path d="M2475.92 10181.55h230.6v23.46h-230.6z" fill="none"/><use xlink:href="#x" transform="matrix(1,0,0,1,2475.9208020676288,10181.546947333538) translate(0 18.380208333333336)"/><use xlink:href="#o" transform="matrix(1,0,0,1,2475.9208020676288,10181.546947333538) translate(130.27473958333337 18.380208333333336)"/><use xlink:href="#p" transform="matrix(1,0,0,1,2475.9208020676288,10181.546947333538) translate(181.27083333333337 18.380208333333336)"/><path d="M2451.33 10699.98a6 6 0 0 1 6-6h198.48a6 6 0 0 1 6 6v38.3a6 6 0 0 1-6 6h-198.47a6 6 0 0 1-6-6z" stroke="#6c6e83" fill="#fff"/><path d="M2475.8 10707.63h180.88v23.03H2475.8z" fill="none"/><use xlink:href="#l" transform="matrix(1,0,0,1,2475.8071906127207,10707.630299856324) translate(0 18.380208333333336)"/><use xlink:href="#y" transform="matrix(1,0,0,1,2475.8071906127207,10707.630299856324) translate(71.88671875 18.380208333333336)"/><path d="M1940.06 10603.9h-33.5a6 6 0 0 0-6 6v260.72a6 6 0 0 0 6 6h1628.98a6 6 0 0 0 6-6v-62.85a6 6 0 0 1 6-6h16.08" stroke="#000" stroke-opacity="0" fill="none"/><path d="M3578.38 10801.77l-14.26 4.63v-9.27z" stroke="#000" stroke-opacity="0" fill-opacity="0"/><path d="M1939.53 10344.9a6 6 0 0 1 6-6h1551a6 6 0 0 1 6 6v222.84a6 6 0 0 1-6 6h-1551a6 6 0 0 1-6-6z" fill="#e0e8f5"/><path d="M1960.52 10338.9h14.98m7.5 0h14.98m7.5 0h14.98m7.5 0h14.98m7.5 0h14.98m7.5 0h14.97m7.5 0h14.97m7.5 0h14.98m7.5 0h14.98m7.5 0h14.98m7.5 0h15m7.48 0h14.98m7.5 0h14.98m7.5 0h14.98m7.5 0h14.98m7.5 0h14.98m7.5 0h14.98m7.5 0h14.97m7.5 0h14.98m7.5 0h15m7.48 0h15m7.48 0h15m7.48 0h15m7.48 0h14.98m7.5 0h14.98m7.5 0h14.98m7.5 0h14.98m7.5 0h14.98m7.5 0h14.97m7.5 0h14.97m7.5 0h14.98m7.5 0h14.98m7.5 0h14.98m7.5 0h15m7.48 0h14.98m7.5 0h14.98m7.5 0h14.98m7.5 0h14.98m7.5 0h14.98m7.5 0h14.98m7.5 0h14.97m7.5 0h14.98m7.5 0h15m7.48 0h15m7.48 0h15m7.48 0h15m7.48 0h14.98m7.5 0h14.98m7.5 0h14.98m7.5 0h14.98m7.5 0h14.98m7.5 0h14.97m7.5 0h14.97m7.5 0h14.98m7.5 0h14.98m7.5 0h14.98m7.5 0h14.98m7.5 0h14.98m7.5 0h14.98m7.5 0h14.98m7.5 0h14.98m7.5 0h14.98m7.5 0h14.98m7.5 0h14.97m7.5 0h14.98m7.5 0h15m7.48 0h15m7.48 0h15m7.48 0h7.5l.93.06.92.22.86.36.8.5.7.6.63.72.48.8.36.88.22.9.07.95v7.42m0 7.43v14.85m0 7.43v14.86m0 7.42v14.85m0 7.43v14.86m0 7.43v14.85m0 7.42v14.86m0 7.43v14.86m0 7.42v14.86m0 7.43v14.85m0 7.43v7.44l-.07.94-.22.92-.36.87-.5.8-.6.72-.72.6-.8.5-.87.35-.93.22-.94.07h-7.5m-7.48 0h-15m-7.48 0h-15m-7.48 0h-15m-7.5 0h-14.97m-7.5 0h-14.98m-7.5 0h-14.98m-7.5 0h-14.98m-7.5 0h-15m-7.48 0h-14.98m-7.5 0h-14.98m-7.5 0h-14.98m-7.5 0h-14.98m-7.5 0h-14.98m-7.5 0h-14.98m-7.5 0h-14.98m-7.5 0h-14.97m-7.5 0h-15m-7.48 0h-15m-7.48 0h-15m-7.48 0h-15m-7.48 0H3017m-7.5 0h-14.98m-7.5 0h-14.98m-7.5 0h-14.98m-7.5 0h-14.98m-7.5 0h-14.98m-7.5 0h-14.97m-7.5 0h-14.98m-7.5 0h-14.98m-7.5 0h-14.98m-7.5 0h-15m-7.48 0h-14.98m-7.5 0h-14.98m-7.5 0h-14.98m-7.5 0h-14.98m-7.5 0h-14.98m-7.5 0h-14.98m-7.5 0h-14.98m-7.5 0h-14.97m-7.5 0h-15m-7.48 0h-15m-7.48 0h-15m-7.48 0h-15m-7.48 0H2500m-7.5 0h-14.98m-7.5 0h-14.98m-7.5 0h-14.98m-7.5 0h-14.98m-7.5 0h-14.97m-7.5 0h-14.97m-7.5 0h-14.98m-7.5 0h-14.98m-7.5 0h-14.98m-7.5 0h-15m-7.48 0h-14.98m-7.5 0h-14.98m-7.5 0h-14.98m-7.5 0h-14.98m-7.5 0h-14.98m-7.5 0h-14.98m-7.5 0h-14.97m-7.5 0h-14.98m-7.5 0h-15m-7.48 0h-15m-7.48 0h-15m-7.48 0h-15m-7.48 0H1983m-7.5 0h-14.98m-7.5 0h-7.5l-.93-.07-.92-.22-.87-.36-.8-.5-.7-.6-.62-.73-.5-.8-.35-.87-.22-.92-.07-.94v-7.43m0-7.4V10538m0-7.43v-14.86m0-7.42v-14.86m0-7.43v-14.86m0-7.42v-14.86m0-7.44v-14.86m0-7.43v-14.85m0-7.43v-14.87m0-7.43v-14.85m0-7.43v-7.43l.08-.95.23-.9.36-.88.48-.8.6-.72.73-.6.8-.5.88-.37.9-.22.95-.07h7.5" stroke="#2f3564" stroke-width="1.5" fill="none"/><path d="M2037.22 10458.26a21.74 21.74 0 0 1 21.75-21.75h241.8a21.74 21.74 0 0 1 21.75 21.76 21.74 21.74 0 0 1-21.74 21.74h-241.8a21.74 21.74 0 0 1-21.76-21.74z" stroke="#6c6e83" fill="#fff"/><path d="M2093.56 10446.52h212.53v23.26h-212.54z" fill="none"/><use xlink:href="#z" transform="matrix(1,0,0,1,2093.556628527804,10446.516185393279) translate(0 18.380208333333336)"/><use xlink:href="#A" transform="matrix(1,0,0,1,2093.556628527804,10446.516185393279) translate(36.05729166666667 18.380208333333336)"/><use xlink:href="#v" transform="matrix(1,0,0,1,2093.556628527804,10446.516185393279) translate(76.79947916666667 18.380208333333336)"/><use xlink:href="#p" transform="matrix(1,0,0,1,2093.556628527804,10446.516185393279) translate(154.28255208333334 18.380208333333336)"/><path d="M2027.22 10506.32c27.6 0 50-22.4 50-50s-22.4-50-50-50-50 22.4-50 50 22.4 50 50 50z" stroke="#6c6e83" fill="#a2c6f6"/><path d="M2027.12 10407.62c27 0 48.8 21.8 48.8 48.8 0 26.9-21.8 48.8-48.8 48.8-26.9 0-48.7-21.9-48.7-48.8 0-27 21.8-48.8 48.7-48.8z" stroke="#000" stroke-opacity="0" fill="#a2c6f6"/><path d="M2041.92 10485.92c-3-4.6-4.6-10.6-4.3-15.9.1-1.1.2-2.3.5-3.4.1-.3-.2-.6-.4-.3-2.2 2.9-5.5 2.8-8.7 2.2-3.3-.6-6.7-1-9.9-2.1.1-.5.1-.9.1-1.4 0-.3-.5-.4-.5-.1-.1.5-.1.9-.1 1.4-.2.1-.3.4-.1.5v2.1c-.1 1.8-.1 3.6-.2 5.4 0 1.2-.2 2.4-.5 3.5-.4 1.6-1.1 3-2 4.3-1.7 2.2-4.2 3.6-6.1 5.6-.2.2-.1.4.1.4 2.4 1.5 5 2.5 7.7 3.3 3 .9 5.7 1.8 8.8 1.2 1.4-.4 2.8-.8 4.3-1 1.4-.2 2.8-.3 4.2-.6 1.4-.3 2.8-.8 4.2-1.4.6 0 1.2 0 1.7-.1.7-.1 2-.3 2.3-1.1.3-.8-.7-1.8-1.1-2.5z" stroke="#000" stroke-opacity="0" fill="#fea689"/><path d="M2043.92 10450.32c-.1.4-.6.1-.5-.2.2-.4.3-.7.5-1.1-1 .7-2.7.7-3.6 1.2-1.1.5-1.4 1.5-2.2 2.3-.7.7-1.6 1.2-2.5 1.7-6 3.4-13.4 4.2-19.9 1.9-1.4-.4-2.8-1.1-3.8-2.2-.5-.6-.8-1.3-.9-2-.1-.7-.1-1.4-.1-2-.1-1.3-.4-2-1.3-2.9-.4-.3-.8-.6-1-1.1-.3-.8-.2-1.6-.1-2.4l-.9-.9c-1-1.3-1.4-2.8-.9-4.8.4-1.3.8-2.7 1.6-3.8.4-.7 1.2-1.1 1.4-1.9.3-1 .1-2.1 0-3.1-.1-2.9.6-5.4 3.3-6.9 1.3-.8 2.8-1.1 4.2-1.1 1.1-1.1 2.4-2.2 5.5-2.6 3.1-.4 10.5 2.3 10.5 2.3 3.1-1.1 6 2.2 6.9 5.3 1.7 0 3.3.9 4.6 1.8.7.6 1 1 1 1.8 0 1.5 1 2.3 1.2 3.7.2 1.2-.3 2.2-.6 3.3-.6 1.9-.1 3.5-.1 5.3 0 3-1.2 5.8-2.3 8.4z" stroke="#000" stroke-opacity="0" fill="#db6e56"/><path d="M2018.72 10441.02c-.5.2-.9.5-1.4.7-.2.1-.3.2-.4.2-.1 0-.1.1-.2.1-.1.1-.3.1-.4.1-.1.1-.1.1-.2.1-.2.1-.3.1-.5.2h-.2c-.1 0-.3.1-.4.1H2014.12c-.1 0-.2-.1-.3-.1h-.1-.1c-.6-.2-1.2-.6-1.8-.8-.2-.1-.5-.2-.8-.2-1 .1-1.5 1.2-2.5 1.3-.3 0-.6-.1-.9-.2.3.4.6.7.9 1-.1.8-.2 1.6.1 2.3.2.6.6.9 1 1.2.7.7 1.1 1.4 1.2 2.4 0 .1.1.3.1.5 0 .6 0 1.3.1 2 .2 0 .3-.1.4-.1.5-.1 1-.3 1.4-.5l.6-.3.1-.1c.7-.4 1.2-1 1.6-1.6.3-.5.5-1 .7-1.5.1-.2.2-.5.3-.8.2-.5.4-1.1.6-1.6.3-.5.6-1.1 1-1.6.6-.8 1.2-1.5 1.4-2.6v-.1c0-.1-.1-.1-.1-.1-.1-.1-.1-.1-.2-.1 0 0-.1 0-.1.1z" stroke="#000" stroke-opacity="0" fill="#c2563e"/><path d="M2026.42 10474.92c4.9 1.2 9.2-1.5 11.8-5.8 1.2-2 2.8-4.9 3.4-7.1.9-4 1.4-8.1 1.9-12.2.3-2.4.5-4.8.8-7.2.1-1.1.2-2.3-.1-3.4-.5-1.2-1.5-2.1-2.4-2.9-1.3-1-2.5-2.1-3.9-2.9-2.9-1.4-6.2-1.4-9.4-1.2-3.6.3-7.3.9-10.4 2.8-1.7 1-3.1 2.3-3.8 4.1-.6 1.4-.6 2.9-.7 4.3-.2 5.5-.3 11.1 1 16.5 1.4 5.6 4.6 12 10.2 14.5.5.2 1 .4 1.6.5z" stroke="#000" stroke-opacity="0" fill="#fea689"/><path d="M2046.02 10450.12c-.3-.6-.8-1.5-1.5-1.7H2043.82c-.3.1-.5.2-.7.4-.7.5-1.4 1.4-1.9 1.8-.2.3.3.6.5.4l.1-.1c-.3.6-.6 1.3-.8 2-.1.2-.2.4-.2.6-.6 1.7-.8 3.6-.8 5.4.1 1.9 1.5 1.4 2.7.5.6-.4 1.2-.9 1.8-1.5 1.6-1.8 2.7-5.6 1.5-7.8zM2015.62 10456.12c.2-1.9 0-3.8-.4-5.6v.1c.2.3.7.1.5-.2-.1-.3-.3-.7-.6-1.1-.3-.5-.6-1-1-1.4l-.6-.3h-.3-.2c-.7 0-1.4.7-1.8 1.2-.1.2-.3.4-.4.6-1.2 2.1-.9 5.5.3 7.4.5.9 2.4 3.5 3.5 2.9.3-.1.5-.4.6-.9.2-.9.3-1.8.4-2.7z" stroke="#000" stroke-opacity="0" fill="#fea689"/><path d="M2036.72 10451.82c.1-.6.2-1.2.1-1.7 0-.3-.1-.6-.3-.8-.5-.6-1.1-.1-1.3.5-.3.7-.4 2.3.3 2.8.7.4 1-.1 1.2-.8zM2022.02 10451.42c.1-.6.1-1.1 0-1.7 0-.2-.2-.5-.3-.7-.6-.5-1.2 0-1.4.6-.2.7-.1 2.3.6 2.7.7.3.9-.2 1.1-.9z" stroke="#000" stroke-opacity="0" fill="#232c44"/><path d="M2044.42 10455.02c0-.6-.5-1-.5-1.6-.1-.7.3-1.7.4-2.3.1-.4-.5-.5-.6-.1-.1.7-.5 1.8-.4 2.6 0 .1.1.2.1.4.1.2.3.4.4.6 0 .8-.3 1.2-.8 1.1-.4.1-.3.6.1.6.7-.1 1.3-.4 1.3-1.3zM2013.72 10456.12c-1.4-.9-.3-1.8-.1-2.9.1-.9-.3-1.8-.2-2.7 0-.3-.6-.4-.6-.1 0 .7.1 1.3.2 1.9.1 1-.3 1.4-.6 2.2-.2.8.2 1.6.9 2 .3.2.7-.2.4-.4zM2028.22 10461.22c-.8-.4-1.9-.9-2.4-1.7-.9-1.3.2-2.2.8-3.1.8-1.4 1.5-2.8 1.8-4.3.1-.4-.4-.5-.5-.1-.4 1.4-.9 2.7-1.6 3.9-.5.7-1.3 1.5-1.4 2.4-.3 1.7 1.7 2.8 3 3.4.4.2.6-.4.3-.5zM2028.22 10464.42c-1.8-.1-5.4-1.2-5.4-1.2s1.8 2 3.4 2.7c1.1.6 2.4.8 3.6.4 1.4-.6 3.5-3.1 3.5-3.1s-3.2 1.2-5.1 1.2z" stroke="#000" stroke-opacity="0" fill="#f2815c"/><path d="M2023.02 10444.22c-1.2-.2-2.5 0-3.7.4-.7.2-1.3.5-1.9.9h-.2c-.4.3-1.3.8-1.2 1.3 0 .1.2.2.3.2.1.1.2.1.3.1.7.2 1.3.2 2 .2 1.6-.2 3.1-.6 4.7-.5.7.1 2.4.2 2.5-.9.1-1.2-1.9-1.6-2.8-1.7zM2038.32 10444.42c-1.2-.4-2.5-.5-3.7-.4-.9.2-2.9.6-2.8 1.8.2 1.4 2.8.7 3.6.8 1.2 0 2.4.3 3.6.5.7 0 2 .2 2.5-.4.7-.8-2.6-2.1-3.2-2.3z" stroke="#000" stroke-opacity="0" fill="#db6e56"/><path d="M2045.02 10443.62c.1-2.2-.2-4.4-1.2-6.3-1.3-2.7-3.7-5.1-6.4-6.5-.3-.2-.6-.3-.9-.5-1.1-.5-2.3-.9-3.5-1-.8-.2-1.6-.2-2.4-.1-.4.1-.7.1-1.1.2-1.2.2-2.4.6-3.5 1-2.6.9-5.2 1.9-7.6 3.1-1 .6-2.2 1.1-3.1 1.9-.9.8-1.4 2-2 3-.5 1-1.3 2-1.5 3.2v.4c-.1 1.4 1.4 2.6 1.1 3.9 0 0-.1 0-.1.1-.1.1-.1.1-.1.2.1.3.1.9.3 1.4.1.1.1.2.2.3.1 0 .2.1.3.2h.3c.1 0 .2-.1.3-.2.2-.2.3-.6.4-.8.5-1.4.5-2.8.6-4.2v-.1c.8-.1 1.5-.4 2-1 .1 0 .1 0 .2-.1.2-.3.5-.6.7-.9.2-.4.4-1.4.8-1.8.1-.1 1.5-.3 1.7-.3.3 0 .7.2 1.1.2.5.1 1 .1 1.5 0 1-.3 1.5-.8 2-1.5.3-.3.7-.9 1.2-1.1.3-.1.8.1 1.2.1.6.1 1.1 0 1.7 0 1.5-.3 2.4-1.4 3-2.7 1.6.4 3.4 1.4 4.9 2 1.7.8 3.5 1.6 5.1 2.6.1 0 .1.1.1.1v8.7c0 .4-.1 1.7.3 2.4.1.2.2.3.3.3.1.1 1.5-1.7 1.6-2.2.3-1.3.5-2.6.5-4z" stroke="#000" stroke-opacity="0" fill="#db6e56"/><path d="M2016.42 10454.12h-.5c-.3.2-.1.7.2.6h.2c.1-.1.2-.1.2-.2v-.1-.1-.1c-.1 0-.1 0-.1-.1zM2017.82 10457.82c0-.1-.1-.1-.2-.1 0 0-.1 0-.1.1-.1-.1-.2-.1-.2 0-.1 0-.1 0-.2.1v.2c.1.1.1.2.2.2h.3c.1 0 .2-.1.3-.1v-.1-.1-.2h-.1zM2019.32 10456.32h-.2c-.4 0-.5.5-.1.6h.2c.3.1.4-.5.1-.6zM2022.12 10454.52l-.2-.1c-.3 0-.4.5-.1.6h.2c.4.1.5-.5.1-.5zM2022.12 10456.72l-.1-.1c-.3-.2-.6.2-.3.5.3.2.7-.2.4-.4zM2018.32 10454.02h-.1c-.4-.1-.5.5-.1.5h.1c.1.1.1 0 .2 0 .1-.1.1-.1.1-.2v-.2c-.1-.1-.1-.1-.2-.1zM2038.32 10454.92h-.4c-.1.1-.1.1-.1.2v.2c.1.1.1.1.2.1l.2.1c.1 0 .1 0 .2-.1.1 0 .1-.1.1-.2v-.2c-.1 0-.1-.1-.2-.1zM2040.62 10453.92h-.1c-.1 0-.2 0-.2.1-.1 0-.1.1-.2.1 0 .1 0 .2.1.2 0 .1.1.1.2.2h.1c.3 0 .4-.5.1-.6zM2035.52 10454.12c-.2-.1-.3-.1-.5-.1-.4 0-.3.6 0 .5h.1v.1c.3.2.7-.3.4-.5zM2036.02 10456.72l-.2-.1s-.1 0-.2.1c0 0-.1.1-.1.2 0 0 0 .1.1.2l.1.1h.2c.4.1.5-.5.1-.5zM2038.72 10458.02h-.1c-.1 0-.2 0-.2.1-.1 0-.1.1-.2.1 0 .1 0 .2.1.3 0 0 .1.1.2.1h.1c.4.1.5-.5.1-.6zM2040.22 10456.62h-.2c-.3-.1-.4.5 0 .6h.1c.1 0 .2 0 .2-.1.1 0 .2-.1.2-.1 0-.1 0-.2-.1-.3 0 0-.1-.1-.2-.1zM2033.82 10456.32h-.2c-.3-.1-.4.4-.1.5h.2c.3.1.4-.5.1-.5z" stroke="#000" stroke-opacity="0" fill="#f2815c"/><path d="M2016.92 10441.92l-.2.1c-.1.1-.3.1-.4.1l-.2.1c-.2.1-.3.1-.5.2h-.2c-.1 0-.3.1-.4.1H2014.12c-.1 0-.2-.1-.3-.1h-.1-.1c-.6-.2-1.2-.6-1.8-.8v.4c-.1 1.4 1.4 2.6 1.1 3.9 0 0-.1 0-.1.1-.1 0-.1.1-.1.2.1.3.1.9.3 1.3.1.2.1.3.2.3l.3.3h.3c.1 0 .2-.1.3-.2.2-.2.3-.6.4-.8.5-1.4.5-2.8.6-4.2v-.1c.8-.1 1.5-.4 2.1-1l.1-.1c-.2.1-.3.2-.4.2zM2039.52 10426.62c-.4.5-.5 1-.7 1.6-.2.6-.4 1.3-1 1.8-.5.3-1 .2-1.6.4-.4.1-.8.3-1.1.6-.9.9-.6 2.2-2.5 1.6-.4-.1-.5.5-.1.6.6.1 1.5.2 2-.2.4-.3.4-.9.7-1.3.5-.7 1.2-.7 2-.9 2.1-.5 1.6-2.4 2.8-3.9.2-.2-.2-.6-.5-.3zM2030.92 10429.42c-1.5-.7-3.1-1.4-4.8-1.3-1.7 0-2.7.8-4 1.7-1.1.8-2 .3-3.1.2-.7 0-1.5.1-2.1.4-1.3.5-2.6 1.3-3 2.7-.1.4.5.5.6.1.5-2 3.3-2.8 5.1-2.5 1 .1 1.6.4 2.5-.2 1.3-.8 2.1-1.7 3.6-1.9 1.8-.1 3.5.6 5 1.3.3.2.6-.3.2-.5zM2020.32 10427.62c-2-1.5-5.4-1-7.2.5-.3.3 0 .7.3.5 1.6-1.4 4.8-1.9 6.5-.5.3.2.7-.2.4-.5z" stroke="#000" stroke-opacity="0" fill="#c2563e"/><path d="M2034.52 10472.82c-.4-.1-1.2.3-1.6.4-.8.3-1.5.6-2.4.7-1.5.1-3.1.3-4.5 0-3-.5-5.3-2.6-7.3-4.7-.1-.1-.2-.2-.2-.3-.1 1.8-.1 3.6-.2 5.4 0 1.2-.2 2.4-.5 3.5h.5c1.1.1 1.9.4 2.9.8.9.4 1.6.3 2.5-.1.9-.5 1.4-.8 2.5-.7.5 0 1.1.2 1.6.2 1.3 0 2-1 3-1.7 1.2-.9 2.3-1.4 3.2-2.7.1-.2.7-.8.5-.8z" stroke="#000" stroke-opacity="0" fill="#f2815c"/><path d="M2013.42 10481.02s2.8-4.6 3.4-4.7c.5-.2 7.9 5.7 8.2 6.7.4 1 2.4 9 2.4 9s2.2-9.1 2.6-9.5c.4-.5 9.3-6.7 10.3-6.1 1 .6 3.4 6.6 3.4 6.6s-13.6 13.2-13.9 13.2c-.2 0-12.5-6.9-12.9-7.6-.4-.6-3.5-7.6-3.5-7.6z" stroke="#000" stroke-opacity="0" fill="#fff"/><path d="M2067.12 10486.12c-1.6-.7-3.4-1.4-5.1-1.9-1.8-.4-3.5-.5-5.2-.9-1.4-.4-2.6-1-3.9-1.5-4.1-1.9-8.2-3.1-12.5-.9-2.3 1.1-4 3-5.9 4.6-2.2 1.8-4.6 3.4-7.1 4.7l-7.2-5.6-3.7-2.8c-.9-.7-1.8-1.7-2.9-2-2-.5-4.7.8-6.4 1.5-2.5 1-4.9 2.2-7.6 2.7-2.6.4-5.3.4-7.9.9-1.4.4-2.8.8-4.1 1.3 33.5 38.5 75 11.6 79.5-.1z" stroke="#000" stroke-opacity="0" fill="#6b3939"/><path d="M2014.02 10480.02s4 12.5 5.4 12.6c1.3.2 5.4-5.5 5.4-5.5s-4-5.3-4.4-5.5c-.5-.1-6.4-1.6-6.4-1.6zM2029.62 10486.52s2.4 6.1 3.4 6.2c1.1.1 9.5-12.6 9.5-12.6s-2.9-.1-3.5.2c-.7.4-9.4 6.2-9.4 6.2z" stroke="#000" stroke-opacity="0" fill="#fff"/><path d="M2031.02 10491.62c-1.1 1.1-2.4 3-4.1 2.2-1.3-.6-3.2-1.4-3.9-2.6-.2-.3-.7 0-.5.3.5.8 1.3 1.3 2.1 1.7.9.6 2 1.4 3.1 1.5 1.4.3 2.9-1.8 3.8-2.7.3-.3-.2-.6-.5-.4z" stroke="#000" stroke-opacity="0" fill="#452222"/><path d="M2024.72 10485.42l-.6 2c-.1.4.5.5.6.1l.6-2c.1-.3-.5-.4-.6-.1zM2030.72 10487.12c-.2-.6-.4-1.3-.4-2 0-.4-.5-.3-.5.1 0 .7.1 1.4.3 2.1.2.4.7.2.6-.2z" stroke="#000" stroke-opacity="0" fill="#f2e7e1"/><path d="M2027.22 10506.32c27.6 0 50-22.4 50-50s-22.4-50-50-50-50 22.4-50 50 22.4 50 50 50z" stroke="#6c6e83" fill-opacity="0"/><path d="M2778.37 10437.13a6 6 0 0 1 6-6H3058a6 6 0 0 1 6 6v38.3a6 6 0 0 1-6 6h-273.63a6 6 0 0 1-6-6z" stroke="#6c6e83" fill="#fff"/><path d="M2805.15 10444.78h245.65v23h-245.65z" fill="none"/><use xlink:href="#B" transform="matrix(1,0,0,1,2805.1492137330265,10444.782526267756) translate(0 18.380208333333336)"/><use xlink:href="#C" transform="matrix(1,0,0,1,2805.1492137330265,10444.782526267756) translate(51.369791666666664 18.380208333333336)"/><use xlink:href="#D" transform="matrix(1,0,0,1,2805.1492137330265,10444.782526267756) translate(84.42838541666666 18.380208333333336)"/><use xlink:href="#E" transform="matrix(1,0,0,1,2805.1492137330265,10444.782526267756) translate(106.01171875 18.380208333333336)"/><use xlink:href="#F" transform="matrix(1,0,0,1,2805.1492137330265,10444.782526267756) translate(175.47395833333334 18.380208333333336)"/><path d="M2450.77 10437.1a6 6 0 0 1 6-6h256.65a6 6 0 0 1 6 6v38.3a6 6 0 0 1-6 6h-256.65a6 6 0 0 1-6-6z" stroke="#6c6e83" fill="#fff"/><path d="M2480 10444.75h220.67v23.03H2480z" fill="none"/><use xlink:href="#G" transform="matrix(1,0,0,1,2480,10444.751909048458) translate(0 18.380208333333336)"/><use xlink:href="#H" transform="matrix(1,0,0,1,2480,10444.751909048458) translate(54.93359375 18.380208333333336)"/><use xlink:href="#I" transform="matrix(1,0,0,1,2480,10444.751909048458) translate(127.81380208333334 18.380208333333336)"/><path d="M2720.67 10456.25h39.76" stroke="#6c6e83" stroke-width="1.5" fill="none"/><path d="M2720.7 10457h-.78v-1.5h.77z" stroke="#6c6e83" stroke-width=".05" fill="#6c6e83"/><path d="M2775.44 10456.25l-14.26 4.63v-9.27z" stroke="#6c6e83" stroke-width="1.5" fill="#6c6e83"/><path d="M1939.5 10341.03H1906a6 6 0 0 0-6 6v260.7a6 6 0 0 0 6 6h1629a6 6 0 0 0 6-6v-101.07a6 6 0 0 1 6-6h16.06" stroke="#000" stroke-opacity="0" fill="none"/><path d="M3577.83 10500.66l-14.27 4.63v-9.28z" stroke="#000" stroke-opacity="0" fill-opacity="0"/><path d="M2037.92 10721.2a21.74 21.74 0 0 1 21.74-21.75h230.78a21.74 21.74 0 0 1 21.74 21.75 21.74 21.74 0 0 1-21.74 21.74h-230.78a21.74 21.74 0 0 1-21.74-21.74z" stroke="#6c6e83" fill="#fff"/><path d="M2095.07 10709.46h204.32v23.27h-204.33z" fill="none"/><use xlink:href="#J" transform="matrix(1,0,0,1,2095.0731389350703,10709.458419133516) translate(0 18.380208333333336)"/><use xlink:href="#K" transform="matrix(1,0,0,1,2095.0731389350703,10709.458419133516) translate(36.05729166666667 18.380208333333336)"/><use xlink:href="#j" transform="matrix(1,0,0,1,2095.0731389350703,10709.458419133516) translate(76.79947916666667 18.380208333333336)"/><use xlink:href="#k" transform="matrix(1,0,0,1,2095.0731389350703,10709.458419133516) translate(148.78645833333334 18.380208333333336)"/><path d="M2027.92 10769.26c27.6 0 50-22.4 50-50s-22.4-50-50-50-50 22.4-50 50 22.4 50 50 50z" stroke="#6c6e83" fill="#a2c6f6"/><path d="M2027.82 10670.56c27 0 48.8 21.8 48.8 48.8 0 26.9-21.8 48.8-48.8 48.8-26.9 0-48.7-21.9-48.7-48.8 0-27 21.8-48.8 48.7-48.8z" stroke="#000" stroke-opacity="0" fill="#a2c6f6"/><path d="M2042.62 10748.86c-3-4.6-4.6-10.6-4.3-15.9.1-1.1.2-2.3.5-3.4.1-.3-.2-.6-.4-.3-2.2 2.9-5.5 2.8-8.7 2.2-3.3-.6-6.7-1-9.9-2.1.1-.5.1-.9.1-1.4 0-.3-.5-.4-.5-.1-.1.5-.1.9-.1 1.4-.2.1-.3.4-.1.5v2.1c-.1 1.8-.1 3.6-.2 5.4 0 1.2-.2 2.4-.5 3.5-.4 1.6-1.1 3-2 4.3-1.7 2.2-4.2 3.6-6.1 5.6-.2.2-.1.4.1.4 2.4 1.5 5 2.5 7.7 3.3 3 .9 5.7 1.8 8.8 1.2 1.4-.4 2.8-.8 4.3-1 1.4-.2 2.8-.3 4.2-.6 1.4-.3 2.8-.8 4.2-1.4.6 0 1.2 0 1.7-.1.7-.1 2-.3 2.3-1.1.3-.8-.7-1.8-1.1-2.5z" stroke="#000" stroke-opacity="0" fill="#fea689"/><path d="M2044.62 10713.26c-.1.4-.6.1-.5-.2.2-.4.3-.7.5-1.1-1 .7-2.7.7-3.6 1.2-1.1.5-1.4 1.5-2.2 2.3-.7.7-1.6 1.2-2.5 1.7-6 3.4-13.4 4.2-19.9 1.9-1.4-.4-2.8-1.1-3.8-2.2-.5-.6-.8-1.3-.9-2-.1-.7-.1-1.4-.1-2-.1-1.3-.4-2-1.3-2.9-.4-.3-.8-.6-1-1.1-.3-.8-.2-1.6-.1-2.4l-.9-.9c-1-1.3-1.4-2.8-.9-4.8.4-1.3.8-2.7 1.6-3.8.4-.7 1.2-1.1 1.4-1.9.3-1 .1-2.1 0-3.1-.1-2.9.6-5.4 3.3-6.9 1.3-.8 2.8-1.1 4.2-1.1 1.1-1.1 2.4-2.2 5.5-2.6 3.1-.4 10.5 2.3 10.5 2.3 3.1-1.1 6 2.2 6.9 5.3 1.7 0 3.3.9 4.6 1.8.7.6 1 1 1 1.8 0 1.5 1 2.3 1.2 3.7.2 1.2-.3 2.2-.6 3.3-.6 1.9-.1 3.5-.1 5.3 0 3-1.2 5.8-2.3 8.4z" stroke="#000" stroke-opacity="0" fill="#db6e56"/><path d="M2019.42 10703.96c-.5.2-.9.5-1.4.7-.2.1-.3.2-.4.2-.1 0-.1.1-.2.1-.1.1-.3.1-.4.1-.1.1-.1.1-.2.1-.2.1-.3.1-.5.2h-.2c-.1 0-.3.1-.4.1H2014.82c-.1 0-.2-.1-.3-.1h-.1-.1c-.6-.2-1.2-.6-1.8-.8-.2-.1-.5-.2-.8-.2-1 .1-1.5 1.2-2.5 1.3-.3 0-.6-.1-.9-.2.3.4.6.7.9 1-.1.8-.2 1.6.1 2.3.2.6.6.9 1 1.2.7.7 1.1 1.4 1.2 2.4 0 .1.1.3.1.5 0 .6 0 1.3.1 2 .2 0 .3-.1.4-.1.5-.1 1-.3 1.4-.5l.6-.3.1-.1c.7-.4 1.2-1 1.6-1.6.3-.5.5-1 .7-1.5.1-.2.2-.5.3-.8.2-.5.4-1.1.6-1.6.3-.5.6-1.1 1-1.6.6-.8 1.2-1.5 1.4-2.6v-.1c0-.1-.1-.1-.1-.1-.1-.1-.1-.1-.2-.1 0 0-.1 0-.1.1z" stroke="#000" stroke-opacity="0" fill="#c2563e"/><path d="M2027.12 10737.86c4.9 1.2 9.2-1.5 11.8-5.8 1.2-2 2.8-4.9 3.4-7.1.9-4 1.4-8.1 1.9-12.2.3-2.4.5-4.8.8-7.2.1-1.1.2-2.3-.1-3.4-.5-1.2-1.5-2.1-2.4-2.9-1.3-1-2.5-2.1-3.9-2.9-2.9-1.4-6.2-1.4-9.4-1.2-3.6.3-7.3.9-10.4 2.8-1.7 1-3.1 2.3-3.8 4.1-.6 1.4-.6 2.9-.7 4.3-.2 5.5-.3 11.1 1 16.5 1.4 5.6 4.6 12 10.2 14.5.5.2 1 .4 1.6.5z" stroke="#000" stroke-opacity="0" fill="#fea689"/><path d="M2046.72 10713.06c-.3-.6-.8-1.5-1.5-1.7H2044.52c-.3.1-.5.2-.7.4-.7.5-1.4 1.4-1.9 1.8-.2.3.3.6.5.4l.1-.1c-.3.6-.6 1.3-.8 2-.1.2-.2.4-.2.6-.6 1.7-.8 3.6-.8 5.4.1 1.9 1.5 1.4 2.7.5.6-.4 1.2-.9 1.8-1.5 1.6-1.8 2.7-5.6 1.5-7.8zM2016.32 10719.06c.2-1.9 0-3.8-.4-5.6v.1c.2.3.7.1.5-.2-.1-.3-.3-.7-.6-1.1-.3-.5-.6-1-1-1.4l-.6-.3h-.3-.2c-.7 0-1.4.7-1.8 1.2-.1.2-.3.4-.4.6-1.2 2.1-.9 5.5.3 7.4.5.9 2.4 3.5 3.5 2.9.3-.1.5-.4.6-.9.2-.9.3-1.8.4-2.7z" stroke="#000" stroke-opacity="0" fill="#fea689"/><path d="M2037.42 10714.76c.1-.6.2-1.2.1-1.7 0-.3-.1-.6-.3-.8-.5-.6-1.1-.1-1.3.5-.3.7-.4 2.3.3 2.8.7.4 1-.1 1.2-.8zM2022.72 10714.36c.1-.6.1-1.1 0-1.7 0-.2-.2-.5-.3-.7-.6-.5-1.2 0-1.4.6-.2.7-.1 2.3.6 2.7.7.3.9-.2 1.1-.9z" stroke="#000" stroke-opacity="0" fill="#232c44"/><path d="M2045.12 10717.96c0-.6-.5-1-.5-1.6-.1-.7.3-1.7.4-2.3.1-.4-.5-.5-.6-.1-.1.7-.5 1.8-.4 2.6 0 .1.1.2.1.4.1.2.3.4.4.6 0 .8-.3 1.2-.8 1.1-.4.1-.3.6.1.6.7-.1 1.3-.4 1.3-1.3zM2014.42 10719.06c-1.4-.9-.3-1.8-.1-2.9.1-.9-.3-1.8-.2-2.7 0-.3-.6-.4-.6-.1 0 .7.1 1.3.2 1.9.1 1-.3 1.4-.6 2.2-.2.8.2 1.6.9 2 .3.2.7-.2.4-.4zM2028.92 10724.16c-.8-.4-1.9-.9-2.4-1.7-.9-1.3.2-2.2.8-3.1.8-1.4 1.5-2.8 1.8-4.3.1-.4-.4-.5-.5-.1-.4 1.4-.9 2.7-1.6 3.9-.5.7-1.3 1.5-1.4 2.4-.3 1.7 1.7 2.8 3 3.4.4.2.6-.4.3-.5zM2028.92 10727.36c-1.8-.1-5.4-1.2-5.4-1.2s1.8 2 3.4 2.7c1.1.6 2.4.8 3.6.4 1.4-.6 3.5-3.1 3.5-3.1s-3.2 1.2-5.1 1.2z" stroke="#000" stroke-opacity="0" fill="#f2815c"/><path d="M2023.72 10707.16c-1.2-.2-2.5 0-3.7.4-.7.2-1.3.5-1.9.9h-.2c-.4.3-1.3.8-1.2 1.3 0 .1.2.2.3.2.1.1.2.1.3.1.7.2 1.3.2 2 .2 1.6-.2 3.1-.6 4.7-.5.7.1 2.4.2 2.5-.9.1-1.2-1.9-1.6-2.8-1.7zM2039.02 10707.36c-1.2-.4-2.5-.5-3.7-.4-.9.2-2.9.6-2.8 1.8.2 1.4 2.8.7 3.6.8 1.2 0 2.4.3 3.6.5.7 0 2 .2 2.5-.4.7-.8-2.6-2.1-3.2-2.3z" stroke="#000" stroke-opacity="0" fill="#db6e56"/><path d="M2045.72 10706.56c.1-2.2-.2-4.4-1.2-6.3-1.3-2.7-3.7-5.1-6.4-6.5-.3-.2-.6-.3-.9-.5-1.1-.5-2.3-.9-3.5-1-.8-.2-1.6-.2-2.4-.1-.4.1-.7.1-1.1.2-1.2.2-2.4.6-3.5 1-2.6.9-5.2 1.9-7.6 3.1-1 .6-2.2 1.1-3.1 1.9-.9.8-1.4 2-2 3-.5 1-1.3 2-1.5 3.2v.4c-.1 1.4 1.4 2.6 1.1 3.9 0 0-.1 0-.1.1-.1.1-.1.1-.1.2.1.3.1.9.3 1.4.1.1.1.2.2.3.1 0 .2.1.3.2h.3c.1 0 .2-.1.3-.2.2-.2.3-.6.4-.8.5-1.4.5-2.8.6-4.2v-.1c.8-.1 1.5-.4 2-1 .1 0 .1 0 .2-.1.2-.3.5-.6.7-.9.2-.4.4-1.4.8-1.8.1-.1 1.5-.3 1.7-.3.3 0 .7.2 1.1.2.5.1 1 .1 1.5 0 1-.3 1.5-.8 2-1.5.3-.3.7-.9 1.2-1.1.3-.1.8.1 1.2.1.6.1 1.1 0 1.7 0 1.5-.3 2.4-1.4 3-2.7 1.6.4 3.4 1.4 4.9 2 1.7.8 3.5 1.6 5.1 2.6.1 0 .1.1.1.1v8.7c0 .4-.1 1.7.3 2.4.1.2.2.3.3.3.1.1 1.5-1.7 1.6-2.2.3-1.3.5-2.6.5-4z" stroke="#000" stroke-opacity="0" fill="#db6e56"/><path d="M2017.12 10717.06h-.5c-.3.2-.1.7.2.6h.2c.1-.1.2-.1.2-.2v-.1-.1-.1c-.1 0-.1 0-.1-.1zM2018.52 10720.76c0-.1-.1-.1-.2-.1 0 0-.1 0-.1.1-.1-.1-.2-.1-.2 0-.1 0-.1 0-.2.1v.2c.1.1.1.2.2.2h.3c.1 0 .2-.1.3-.1v-.1-.1-.2h-.1zM2020.02 10719.26h-.2c-.4 0-.5.5-.1.6h.2c.3.1.4-.5.1-.6zM2022.82 10717.46l-.2-.1c-.3 0-.4.5-.1.6h.2c.4.1.5-.5.1-.5zM2022.82 10719.66l-.1-.1c-.3-.2-.6.2-.3.5.3.2.7-.2.4-.4zM2019.02 10716.96h-.1c-.4-.1-.5.5-.1.5h.1c.1.1.1 0 .2 0 .1-.1.1-.1.1-.2v-.2c-.1-.1-.1-.1-.2-.1zM2039.02 10717.86h-.4c-.1.1-.1.1-.1.2v.2c.1.1.1.1.2.1l.2.1c.1 0 .1 0 .2-.1.1 0 .1-.1.1-.2v-.2c-.1 0-.1-.1-.2-.1zM2041.32 10716.86h-.1c-.1 0-.2 0-.2.1-.1 0-.1.1-.2.1 0 .1 0 .2.1.2 0 .1.1.1.2.2h.1c.3 0 .4-.5.1-.6zM2036.22 10717.06c-.2-.1-.3-.1-.5-.1-.4 0-.3.6 0 .5h.1v.1c.3.2.7-.3.4-.5zM2036.72 10719.66l-.2-.1s-.1 0-.2.1c0 0-.1.1-.1.2 0 0 0 .1.1.2l.1.1h.2c.4.1.5-.5.1-.5zM2039.42 10720.96h-.1c-.1 0-.2 0-.2.1-.1 0-.1.1-.2.1 0 .1 0 .2.1.3 0 0 .1.1.2.1h.1c.4.1.5-.5.1-.6zM2040.92 10719.56h-.2c-.3-.1-.4.5 0 .6h.1c.1 0 .2 0 .2-.1.1 0 .2-.1.2-.1 0-.1 0-.2-.1-.3 0 0-.1-.1-.2-.1zM2034.52 10719.26h-.2c-.3-.1-.4.4-.1.5h.2c.3.1.4-.5.1-.5z" stroke="#000" stroke-opacity="0" fill="#f2815c"/><path d="M2017.62 10704.86l-.2.1c-.1.1-.3.1-.4.1l-.2.1c-.2.1-.3.1-.5.2h-.2c-.1 0-.3.1-.4.1H2014.82c-.1 0-.2-.1-.3-.1h-.1-.1c-.6-.2-1.2-.6-1.8-.8v.4c-.1 1.4 1.4 2.6 1.1 3.9 0 0-.1 0-.1.1-.1 0-.1.1-.1.2.1.3.1.9.3 1.3.1.2.1.3.2.3l.3.3h.3c.1 0 .2-.1.3-.2.2-.2.3-.6.4-.8.5-1.4.5-2.8.6-4.2v-.1c.8-.1 1.5-.4 2.1-1l.1-.1c-.2.1-.3.2-.4.2zM2040.22 10689.56c-.4.5-.5 1-.7 1.6-.2.6-.4 1.3-1 1.8-.5.3-1 .2-1.6.4-.4.1-.8.3-1.1.6-.9.9-.6 2.2-2.5 1.6-.4-.1-.5.5-.1.6.6.1 1.5.2 2-.2.4-.3.4-.9.7-1.3.5-.7 1.2-.7 2-.9 2.1-.5 1.6-2.4 2.8-3.9.2-.2-.2-.6-.5-.3zM2031.62 10692.36c-1.5-.7-3.1-1.4-4.8-1.3-1.7 0-2.7.8-4 1.7-1.1.8-2 .3-3.1.2-.7 0-1.5.1-2.1.4-1.3.5-2.6 1.3-3 2.7-.1.4.5.5.6.1.5-2 3.3-2.8 5.1-2.5 1 .1 1.6.4 2.5-.2 1.3-.8 2.1-1.7 3.6-1.9 1.8-.1 3.5.6 5 1.3.3.2.6-.3.2-.5zM2021.02 10690.56c-2-1.5-5.4-1-7.2.5-.3.3 0 .7.3.5 1.6-1.4 4.8-1.9 6.5-.5.3.2.7-.2.4-.5z" stroke="#000" stroke-opacity="0" fill="#c2563e"/><path d="M2035.22 10735.76c-.4-.1-1.2.3-1.6.4-.8.3-1.5.6-2.4.7-1.5.1-3.1.3-4.5 0-3-.5-5.3-2.6-7.3-4.7-.1-.1-.2-.2-.2-.3-.1 1.8-.1 3.6-.2 5.4 0 1.2-.2 2.4-.5 3.5h.5c1.1.1 1.9.4 2.9.8.9.4 1.6.3 2.5-.1.9-.5 1.4-.8 2.5-.7.5 0 1.1.2 1.6.2 1.3 0 2-1 3-1.7 1.2-.9 2.3-1.4 3.2-2.7.1-.2.7-.8.5-.8z" stroke="#000" stroke-opacity="0" fill="#f2815c"/><path d="M2014.12 10743.96s2.8-4.6 3.4-4.7c.5-.2 7.9 5.7 8.2 6.7.4 1 2.4 9 2.4 9s2.2-9.1 2.6-9.5c.4-.5 9.3-6.7 10.3-6.1 1 .6 3.4 6.6 3.4 6.6s-13.6 13.2-13.9 13.2c-.2 0-12.5-6.9-12.9-7.6-.4-.6-3.5-7.6-3.5-7.6z" stroke="#000" stroke-opacity="0" fill="#fff"/><path d="M2067.82 10749.06c-1.6-.7-3.4-1.4-5.1-1.9-1.8-.4-3.5-.5-5.2-.9-1.4-.4-2.6-1-3.9-1.5-4.1-1.9-8.2-3.1-12.5-.9-2.3 1.1-4 3-5.9 4.6-2.2 1.8-4.6 3.4-7.1 4.7l-7.2-5.6-3.7-2.8c-.9-.7-1.8-1.7-2.9-2-2-.5-4.7.8-6.4 1.5-2.5 1-4.9 2.2-7.6 2.7-2.6.4-5.3.4-7.9.9-1.4.4-2.8.8-4.1 1.3 33.5 38.5 75 11.6 79.5-.1z" stroke="#000" stroke-opacity="0" fill="#6b3939"/><path d="M2014.72 10742.96s4 12.5 5.4 12.6c1.3.2 5.4-5.5 5.4-5.5s-4-5.3-4.4-5.5c-.5-.1-6.4-1.6-6.4-1.6zM2030.32 10749.46s2.4 6.1 3.4 6.2c1.1.1 9.5-12.6 9.5-12.6s-2.9-.1-3.5.2c-.7.4-9.4 6.2-9.4 6.2z" stroke="#000" stroke-opacity="0" fill="#fff"/><path d="M2031.72 10754.56c-1.1 1.1-2.4 3-4.1 2.2-1.3-.6-3.2-1.4-3.9-2.6-.2-.3-.7 0-.5.3.5.8 1.3 1.3 2.1 1.7.9.6 2 1.4 3.1 1.5 1.4.3 2.9-1.8 3.8-2.7.3-.3-.2-.6-.5-.4z" stroke="#000" stroke-opacity="0" fill="#452222"/><path d="M2025.42 10748.36l-.6 2c-.1.4.5.5.6.1l.6-2c.1-.3-.5-.4-.6-.1zM2031.42 10750.06c-.2-.6-.4-1.3-.4-2 0-.4-.5-.3-.5.1 0 .7.1 1.4.3 2.1.2.4.7.2.6-.2z" stroke="#000" stroke-opacity="0" fill="#f2e7e1"/><path d="M2027.92 10769.26c27.6 0 50-22.4 50-50s-22.4-50-50-50-50 22.4-50 50 22.4 50 50 50z" stroke="#6c6e83" fill-opacity="0"/><path d="M2764 10215.07v-47.1M2764 10215.05v.77M2764 10168v-.77M2691.9 10742.2v-47.1M2691.9 10742.17v.77M2691.9 10695.13v-.77M2989.93 10742.2v-47.1M2989.93 10742.17v.77M2989.93 10695.13v-.77" stroke="#6c6e83" stroke-width="1.5" fill="none"/><defs><path fill="#172b4d" d="M973-380H363L226 0H28l556-1456h168L1309 0h-197zM421-538h495l-248-681" id="L"/><path fill="#172b4d" d="M277-555c0 244 77 420 297 424 127 2 249-93 255-210h175C980-127 805 20 574 20 258 20 81-222 92-562c11-319 164-533 481-540 237-5 426 165 431 392H829c-7-133-115-242-256-240-209 4-296 166-296 395" id="M"/><path fill="#172b4d" d="M599-131c141 0 220-65 285-146l113 88C906-50 770 20 589 20 281 21 93-214 93-545c0-223 93-397 233-485 74-48 154-72 240-72 300 2 449 218 445 537v77H278c0 197 129 357 321 357zm227-509c-3-180-88-310-260-310-170 0-264 140-282 310h542" id="N"/><path fill="#172b4d" d="M538-131c121 0 232-49 232-156 0-50-20-88-56-117-73-60-334-92-420-143-92-55-162-110-162-238 0-190 192-317 400-317 223 0 414 129 413 338H759c0-108-110-186-227-186-119 0-215 53-215 159 0 45 18 78 53 101 76 52 331 90 416 139 98 57 169 115 169 251C955-92 760 20 538 20c-176 0-314-68-386-174-38-55-57-115-57-179h185c6 129 116 202 258 202" id="O"/><g id="a"><use transform="matrix(0.009114583333333334,0,0,0.009114583333333334,0,0)" xlink:href="#L"/><use transform="matrix(0.009114583333333334,0,0,0.009114583333333334,12.177083333333334,0)" xlink:href="#M"/><use transform="matrix(0.009114583333333334,0,0,0.009114583333333334,21.947916666666668,0)" xlink:href="#M"/><use transform="matrix(0.009114583333333334,0,0,0.009114583333333334,31.718750000000004,0)" xlink:href="#N"/><use transform="matrix(0.009114583333333334,0,0,0.009114583333333334,41.60807291666667,0)" xlink:href="#O"/><use transform="matrix(0.009114583333333334,0,0,0.009114583333333334,51.23307291666667,0)" xlink:href="#O"/></g><path fill="#172b4d" d="M483-459l28 192 41-173 288-1016h162l281 1016 40 176 31-196 226-996h193L1420 0h-175L945-1061l-23-111-23 111L588 0H413L61-1456h192" id="P"/><path fill="#172b4d" d="M584 20C278 26 81-227 91-551c10-320 175-545 491-551 308-5 503 247 494 573-9 322-175 543-492 549zm-2-970c-208 0-305 185-305 421 0 216 106 398 307 398 211 0 307-186 307-420 0-214-109-399-309-399" id="Q"/><path fill="#172b4d" d="M663-916c-163-27-288 18-338 148V0H140v-1082h180l3 125c61-97 147-145 258-145 36 0 63 5 82 14v172" id="R"/><path fill="#172b4d" d="M442-501L326-380V0H141v-1536h185v929c135-169 291-317 436-475h225L566-630 1036 0H819" id="S"/><path fill="#172b4d" d="M704-1390c-164-38-297 28-288 194v114h231v143H416V0H231v-939H60v-143h171v-111c-12-274 208-416 483-347" id="T"/><g id="b"><use transform="matrix(0.009114583333333334,0,0,0.009114583333333334,0,0)" xlink:href="#P"/><use transform="matrix(0.009114583333333334,0,0,0.009114583333333334,16.278645833333336,0)" xlink:href="#Q"/><use transform="matrix(0.009114583333333334,0,0,0.009114583333333334,26.92447916666667,0)" xlink:href="#R"/><use transform="matrix(0.009114583333333334,0,0,0.009114583333333334,33.24088541666667,0)" xlink:href="#S"/><use transform="matrix(0.009114583333333334,0,0,0.009114583333333334,42.70182291666667,0)" xlink:href="#T"/><use transform="matrix(0.009114583333333334,0,0,0.009114583333333334,49.18229166666667,0)" xlink:href="#Q"/><use transform="matrix(0.009114583333333334,0,0,0.009114583333333334,59.82812500000001,0)" xlink:href="#R"/><use transform="matrix(0.009114583333333334,0,0,0.009114583333333334,65.97135416666667,0)" xlink:href="#M"/><use transform="matrix(0.009114583333333334,0,0,0.009114583333333334,75.7421875,0)" xlink:href="#N"/></g><path fill="#172b4d" d="M1216-1011c-1 297-202 441-512 441H361V0H169v-1456h537c297-6 510 164 510 445zm-192 2c1-178-126-288-307-289H361v571h345c196 1 318-92 318-282" id="U"/><path fill="#172b4d" d="M561-1102c238-4 403 126 403 351v498c0 99 13 178 38 237V0H808c-11-21-19-59-26-114C696-25 593 20 474 20c-199 0-368-130-365-320 4-251 214-359 490-356h180v-85c-1-135-86-212-229-212-115 0-232 67-233 171H131c20-205 206-316 430-320zM294-326c0 117 90 185 207 185 122 0 239-75 278-162v-222H634c-227 0-340 66-340 199" id="V"/><path fill="#172b4d" d="M1098-255l208-827h185L1176 0h-150L763-820 507 0H357L43-1082h184l213 810 252-810h149" id="W"/><path fill="#172b4d" d="M520 20C244 20 95-247 95-550c0-298 151-550 427-552 127 0 227 43 301 130v-564h185V0H838l-9-116C755-25 652 20 520 20zm48-965c-210 0-288 177-288 416 0 218 87 392 286 392 117 0 203-53 257-158v-497c-55-102-140-153-255-153" id="X"/><g id="c"><use transform="matrix(0.009114583333333334,0,0,0.009114583333333334,0,0)" xlink:href="#U"/><use transform="matrix(0.009114583333333334,0,0,0.009114583333333334,11.67578125,0)" xlink:href="#V"/><use transform="matrix(0.009114583333333334,0,0,0.009114583333333334,21.829427083333336,0)" xlink:href="#O"/><use transform="matrix(0.009114583333333334,0,0,0.009114583333333334,31.454427083333336,0)" xlink:href="#O"/><use transform="matrix(0.009114583333333334,0,0,0.009114583333333334,41.079427083333336,0)" xlink:href="#W"/><use transform="matrix(0.009114583333333334,0,0,0.009114583333333334,55.106770833333336,0)" xlink:href="#Q"/><use transform="matrix(0.009114583333333334,0,0,0.009114583333333334,65.75260416666667,0)" xlink:href="#R"/><use transform="matrix(0.009114583333333334,0,0,0.009114583333333334,71.89583333333334,0)" xlink:href="#X"/></g><path fill="#172b4d" d="M417-1456L893-268l476-1188h249V0h-192c-4-403 4-794 18-1179L966 0H819L342-1176c15 384 23 773 19 1176H169v-1456h248" id="Y"/><path fill="#172b4d" d="M589-945c-131 0-219 81-264 174V0H140v-1082h175l6 136c83-104 191-156 324-156 229 0 346 129 346 387V0H806v-716c-2-153-65-229-217-229" id="Z"/><path fill="#172b4d" d="M521 20C240 20 96-239 96-550c0-303 147-552 427-552 132 0 235 47 309 140l9-120h169V-26c4 277-183 454-459 452-165-1-334-81-400-187l96-111c79 98 176 147 291 147 180 1 288-109 286-290v-93C750-23 649 20 521 20zm48-965c-209 0-287 178-287 416 0 217 86 392 285 392 117 0 202-53 257-159v-494c-57-103-142-155-255-155" id="aa"/><path fill="#172b4d" d="M1240-945c-141 0-250 95-250 227V0H804v-709c0-157-77-236-231-236-121 0-204 52-249 155V0H139v-1082h175l5 120c79-93 186-140 321-140 151 0 254 58 309 174 69-98 181-174 345-174 237 0 362 126 362 377V0h-185v-714c-2-159-67-231-231-231" id="ab"/><path fill="#172b4d" d="M456 20C285 20 205-92 206-268v-671H9v-143h197v-262h185v262h202v143H391v671c-9 125 92 149 207 118V0c-49 13-96 20-142 20" id="ac"/><g id="d"><use transform="matrix(0.009114583333333334,0,0,0.009114583333333334,0,0)" xlink:href="#Y"/><use transform="matrix(0.009114583333333334,0,0,0.009114583333333334,16.296875,0)" xlink:href="#V"/><use transform="matrix(0.009114583333333334,0,0,0.009114583333333334,26.450520833333336,0)" xlink:href="#Z"/><use transform="matrix(0.009114583333333334,0,0,0.009114583333333334,36.75,0)" xlink:href="#V"/><use transform="matrix(0.009114583333333334,0,0,0.009114583333333334,46.903645833333336,0)" xlink:href="#aa"/><use transform="matrix(0.009114583333333334,0,0,0.009114583333333334,57.376302083333336,0)" xlink:href="#N"/><use transform="matrix(0.009114583333333334,0,0,0.009114583333333334,67.265625,0)" xlink:href="#ab"/><use transform="matrix(0.009114583333333334,0,0,0.009114583333333334,83.62630208333334,0)" xlink:href="#N"/><use transform="matrix(0.009114583333333334,0,0,0.009114583333333334,93.515625,0)" xlink:href="#Z"/><use transform="matrix(0.009114583333333334,0,0,0.009114583333333334,103.81510416666669,0)" xlink:href="#ac"/></g><path fill="#172b4d" d="M589-945c-131 0-219 81-264 174V0H140v-1536h185v585c82-101 189-151 320-151 229 0 346 129 346 387V0H806v-716c-2-153-65-229-217-229" id="ad"/><path fill="#172b4d" d="M491 20c-241-1-355-148-355-398v-704h185v699c0 164 67 246 200 246 141 0 235-53 282-158v-787h185V0H812l-4-107C736-22 630 20 491 20" id="ae"/><g id="e"><use transform="matrix(0.009114583333333334,0,0,0.009114583333333334,0,0)" xlink:href="#ac"/><use transform="matrix(0.009114583333333334,0,0,0.009114583333333334,6.09765625,0)" xlink:href="#ad"/><use transform="matrix(0.009114583333333334,0,0,0.009114583333333334,16.37890625,0)" xlink:href="#R"/><use transform="matrix(0.009114583333333334,0,0,0.009114583333333334,22.513020833333332,0)" xlink:href="#Q"/><use transform="matrix(0.009114583333333334,0,0,0.009114583333333334,33.158854166666664,0)" xlink:href="#ae"/><use transform="matrix(0.009114583333333334,0,0,0.009114583333333334,43.44921875,0)" xlink:href="#aa"/><use transform="matrix(0.009114583333333334,0,0,0.009114583333333334,53.921875,0)" xlink:href="#ad"/></g><path fill="#172b4d" d="M375 0H183v-1456h192V0" id="af"/><g id="f"><use transform="matrix(0.009114583333333334,0,0,0.009114583333333334,0,0)" xlink:href="#L"/><use transform="matrix(0.009114583333333334,0,0,0.009114583333333334,12.177083333333334,0)" xlink:href="#U"/><use transform="matrix(0.009114583333333334,0,0,0.009114583333333334,23.953125,0)" xlink:href="#af"/><use transform="matrix(0.009114583333333334,0,0,0.009114583333333334,29.029947916666668,0)" xlink:href="#O"/></g><path fill="#172b4d" d="M1222-777c17 480-206 763-650 777H169v-1456h411c408 9 627 269 642 679zm-190 4c3-312-149-522-447-525H361v1141h202c308 0 473-209 469-531v-85" id="ag"/><path fill="#172b4d" d="M497-251l268-831h189L566 0H425L33-1082h189" id="ah"/><path fill="#172b4d" d="M341 0H156v-1536h185V0" id="ai"/><path fill="#172b4d" d="M632-1102c291 0 422 251 422 573 0 297-141 548-419 549-131 0-235-42-310-125v521H140v-1498h169l9 120c75-93 180-140 314-140zm-53 971c207 0 290-180 290-419 0-218-92-395-292-395-112 0-196 50-252 149v517c55 99 140 148 254 148" id="aj"/><g id="g"><use transform="matrix(0.00911458333333333,0,0,0.00911458333333333,0,0)" xlink:href="#ag"/><use transform="matrix(0.00911458333333333,0,0,0.00911458333333333,12.240885416666663,0)" xlink:href="#N"/><use transform="matrix(0.00911458333333333,0,0,0.00911458333333333,22.011718749999993,0)" xlink:href="#ah"/><use transform="matrix(0.00911458333333333,0,0,0.00911458333333333,30.934895833333325,0)" xlink:href="#N"/><use transform="matrix(0.00911458333333333,0,0,0.00911458333333333,40.824218749999986,0)" xlink:href="#ai"/><use transform="matrix(0.00911458333333333,0,0,0.00911458333333333,45.35416666666665,0)" xlink:href="#Q"/><use transform="matrix(0.00911458333333333,0,0,0.00911458333333333,55.999999999999986,0)" xlink:href="#aj"/><use transform="matrix(0.00911458333333333,0,0,0.00911458333333333,66.47265624999997,0)" xlink:href="#N"/><use transform="matrix(0.00911458333333333,0,0,0.00911458333333333,76.36197916666663,0)" xlink:href="#R"/></g><g id="h"><use transform="matrix(0.009114583333333334,0,0,0.009114583333333334,0,0)" xlink:href="#P"/><use transform="matrix(0.009114583333333334,0,0,0.009114583333333334,16.561197916666668,0)" xlink:href="#U"/><use transform="matrix(0.009114583333333334,0,0,0.009114583333333334,28.337239583333336,0)" xlink:href="#Y"/></g><path fill="#172b4d" d="M341 0H156v-1082h185V0zm-91-1264c-68 0-108-42-109-105 0-62 41-107 109-107s110 44 110 107-42 105-110 105" id="ak"/><g id="i"><use transform="matrix(0.009114583333333334,0,0,0.009114583333333334,0,0)" xlink:href="#V"/><use transform="matrix(0.009114583333333334,0,0,0.009114583333333334,10.153645833333334,0)" xlink:href="#X"/><use transform="matrix(0.009114583333333334,0,0,0.009114583333333334,20.680989583333336,0)" xlink:href="#ab"/><use transform="matrix(0.009114583333333334,0,0,0.009114583333333334,37.04166666666667,0)" xlink:href="#ak"/><use transform="matrix(0.009114583333333334,0,0,0.009114583333333334,41.571614583333336,0)" xlink:href="#Z"/></g><g id="j"><use transform="matrix(0.009114583333333334,0,0,0.009114583333333334,0,0)" xlink:href="#Q"/><use transform="matrix(0.009114583333333334,0,0,0.009114583333333334,10.645833333333334,0)" xlink:href="#Z"/><use transform="matrix(0.009114583333333334,0,0,0.009114583333333334,20.9453125,0)" xlink:href="#aa"/><use transform="matrix(0.009114583333333334,0,0,0.009114583333333334,31.417968750000004,0)" xlink:href="#Q"/><use transform="matrix(0.009114583333333334,0,0,0.009114583333333334,42.063802083333336,0)" xlink:href="#ak"/><use transform="matrix(0.009114583333333334,0,0,0.009114583333333334,46.59375,0)" xlink:href="#Z"/><use transform="matrix(0.009114583333333334,0,0,0.009114583333333334,56.89322916666667,0)" xlink:href="#aa"/></g><g id="k"><use transform="matrix(0.009114583333333334,0,0,0.009114583333333334,0,0)" xlink:href="#ac"/><use transform="matrix(0.009114583333333334,0,0,0.009114583333333334,6.09765625,0)" xlink:href="#V"/><use transform="matrix(0.009114583333333334,0,0,0.009114583333333334,16.251302083333336,0)" xlink:href="#O"/><use transform="matrix(0.009114583333333334,0,0,0.009114583333333334,25.876302083333336,0)" xlink:href="#S"/><use transform="matrix(0.009114583333333334,0,0,0.009114583333333334,35.337239583333336,0)" xlink:href="#O"/></g><g id="l"><use transform="matrix(0.009114583333333334,0,0,0.009114583333333334,0,0)" xlink:href="#Y"/><use transform="matrix(0.009114583333333334,0,0,0.009114583333333334,16.296875,0)" xlink:href="#V"/><use transform="matrix(0.009114583333333334,0,0,0.009114583333333334,26.450520833333336,0)" xlink:href="#Z"/><use transform="matrix(0.009114583333333334,0,0,0.009114583333333334,36.75,0)" xlink:href="#V"/><use transform="matrix(0.009114583333333334,0,0,0.009114583333333334,46.903645833333336,0)" xlink:href="#aa"/><use transform="matrix(0.009114583333333334,0,0,0.009114583333333334,57.376302083333336,0)" xlink:href="#N"/></g><g id="m"><use transform="matrix(0.009114583333333334,0,0,0.009114583333333334,0,0)" xlink:href="#R"/><use transform="matrix(0.009114583333333334,0,0,0.009114583333333334,6.143229166666667,0)" xlink:href="#N"/><use transform="matrix(0.009114583333333334,0,0,0.009114583333333334,16.032552083333336,0)" xlink:href="#aj"/><use transform="matrix(0.009114583333333334,0,0,0.009114583333333334,26.505208333333336,0)" xlink:href="#Q"/><use transform="matrix(0.009114583333333334,0,0,0.009114583333333334,37.15104166666667,0)" xlink:href="#R"/><use transform="matrix(0.009114583333333334,0,0,0.009114583333333334,43.923177083333336,0)" xlink:href="#ac"/><use transform="matrix(0.009114583333333334,0,0,0.009114583333333334,50.020833333333336,0)" xlink:href="#O"/></g><path fill="#172b4d" d="M1161-1018c0 201-122 330-278 388l342 618V0h-206L703-589H361V0H168v-1456h482c310-2 511 139 511 438zm-193 0c0-187-120-280-313-280H361v552h295c179 3 313-101 312-272" id="al"/><path fill="#172b4d" d="M524 20C238 18 95-240 95-550c0-307 146-552 431-552 128 0 229 43 303 129l8-109h170V416H822v-516C747-20 648 20 524 20zm48-970c-208 0-292 182-292 421 0 219 92 398 290 398 110 0 194-49 252-146v-530c-59-95-142-143-250-143" id="am"/><g id="n"><use transform="matrix(0.009114583333333334,0,0,0.009114583333333334,0,0)" xlink:href="#al"/><use transform="matrix(0.009114583333333334,0,0,0.009114583333333334,11.493489583333334,0)" xlink:href="#N"/><use transform="matrix(0.009114583333333334,0,0,0.009114583333333334,21.3828125,0)" xlink:href="#am"/><use transform="matrix(0.009114583333333334,0,0,0.009114583333333334,31.992187500000004,0)" xlink:href="#ae"/><use transform="matrix(0.009114583333333334,0,0,0.009114583333333334,42.282552083333336,0)" xlink:href="#ak"/><use transform="matrix(0.009114583333333334,0,0,0.009114583333333334,46.8125,0)" xlink:href="#R"/><use transform="matrix(0.009114583333333334,0,0,0.009114583333333334,52.955729166666664,0)" xlink:href="#N"/><use transform="matrix(0.009114583333333334,0,0,0.009114583333333334,62.84505208333333,0)" xlink:href="#X"/></g><g id="o"><use transform="matrix(0.009114583333333334,0,0,0.009114583333333334,0,0)" xlink:href="#O"/><use transform="matrix(0.009114583333333334,0,0,0.009114583333333334,9.625,0)" xlink:href="#N"/><use transform="matrix(0.009114583333333334,0,0,0.009114583333333334,19.514322916666668,0)" xlink:href="#ac"/><use transform="matrix(0.009114583333333334,0,0,0.009114583333333334,25.611979166666668,0)" xlink:href="#ae"/><use transform="matrix(0.009114583333333334,0,0,0.009114583333333334,35.90234375,0)" xlink:href="#aj"/></g><g id="p"><use transform="matrix(0.009114583333333334,0,0,0.009114583333333334,0,0)" xlink:href="#ac"/><use transform="matrix(0.009114583333333334,0,0,0.009114583333333334,6.09765625,0)" xlink:href="#V"/><use transform="matrix(0.009114583333333334,0,0,0.009114583333333334,16.251302083333336,0)" xlink:href="#O"/><use transform="matrix(0.009114583333333334,0,0,0.009114583333333334,25.876302083333336,0)" xlink:href="#S"/><use transform="matrix(0.009114583333333334,0,0,0.009114583333333334,35.337239583333336,0)" xlink:href="#O"/></g><path fill="#172b4d" d="M631-137c179 0 314-70 314-231 0-71-25-127-75-166s-141-77-272-115c-165-47-285-106-360-175s-112-154-112-255c0-245 231-397 495-397 206 0 369 89 449 218 43 68 65 142 65 223H942c0-184-129-283-321-283-172 0-299 76-301 236 0 59 26 109 76 150s135 78 256 113c205 59 345 116 436 256 35 53 50 119 50 193-2 256-231 398-507 390C333 12 90-129 80-422h193c0 187 160 285 358 285" id="an"/><g id="q"><use transform="matrix(0.009114583333333334,0,0,0.009114583333333334,0,0)" xlink:href="#an"/><use transform="matrix(0.009114583333333334,0,0,0.009114583333333334,11.07421875,0)" xlink:href="#N"/><use transform="matrix(0.009114583333333334,0,0,0.009114583333333334,20.963541666666668,0)" xlink:href="#M"/><use transform="matrix(0.009114583333333334,0,0,0.009114583333333334,30.734375000000004,0)" xlink:href="#ae"/><use transform="matrix(0.009114583333333334,0,0,0.009114583333333334,41.024739583333336,0)" xlink:href="#R"/><use transform="matrix(0.009114583333333334,0,0,0.009114583333333334,47.16796875,0)" xlink:href="#N"/><use transform="matrix(0.009114583333333334,0,0,0.009114583333333334,57.05729166666667,0)" xlink:href="#X"/></g><g id="r"><use transform="matrix(0.009114583333333334,0,0,0.009114583333333334,0,0)" xlink:href="#af"/><use transform="matrix(0.009114583333333334,0,0,0.009114583333333334,5.076822916666667,0)" xlink:href="#ac"/><use transform="matrix(0.009114583333333334,0,0,0.009114583333333334,11.174479166666668,0)" xlink:href="#N"/><use transform="matrix(0.009114583333333334,0,0,0.009114583333333334,21.063802083333336,0)" xlink:href="#ab"/><use transform="matrix(0.009114583333333334,0,0,0.009114583333333334,37.42447916666667,0)" xlink:href="#O"/></g><g id="s"><use transform="matrix(0.009114583333333334,0,0,0.009114583333333334,0,0)" xlink:href="#T"/><use transform="matrix(0.009114583333333334,0,0,0.009114583333333334,6.48046875,0)" xlink:href="#Q"/><use transform="matrix(0.009114583333333334,0,0,0.009114583333333334,17.126302083333336,0)" xlink:href="#ai"/><use transform="matrix(0.009114583333333334,0,0,0.009114583333333334,21.656250000000007,0)" xlink:href="#X"/><use transform="matrix(0.009114583333333334,0,0,0.009114583333333334,32.18359375,0)" xlink:href="#N"/><use transform="matrix(0.009114583333333334,0,0,0.009114583333333334,42.07291666666667,0)" xlink:href="#R"/><use transform="matrix(0.009114583333333334,0,0,0.009114583333333334,48.38932291666667,0)" xlink:href="#O"/></g><g id="t"><use transform="matrix(0.009114583333333334,0,0,0.009114583333333334,0,0)" xlink:href="#P"/><use transform="matrix(0.009114583333333334,0,0,0.009114583333333334,16.561197916666668,0)" xlink:href="#U"/><use transform="matrix(0.009114583333333334,0,0,0.009114583333333334,28.337239583333336,0)" xlink:href="#Y"/></g><g id="u"><use transform="matrix(0.009114583333333334,0,0,0.009114583333333334,0,0)" xlink:href="#V"/><use transform="matrix(0.009114583333333334,0,0,0.009114583333333334,10.153645833333334,0)" xlink:href="#X"/><use transform="matrix(0.009114583333333334,0,0,0.009114583333333334,20.680989583333336,0)" xlink:href="#ab"/><use transform="matrix(0.009114583333333334,0,0,0.009114583333333334,37.04166666666667,0)" xlink:href="#ak"/><use transform="matrix(0.009114583333333334,0,0,0.009114583333333334,41.571614583333336,0)" xlink:href="#Z"/></g><path fill="#172b4d" d="M525-543H37v-151h488v151" id="ao"/><g id="v"><use transform="matrix(0.009114583333333334,0,0,0.009114583333333334,0,0)" xlink:href="#Q"/><use transform="matrix(0.009114583333333334,0,0,0.009114583333333334,10.645833333333334,0)" xlink:href="#Z"/><use transform="matrix(0.009114583333333334,0,0,0.009114583333333334,20.9453125,0)" xlink:href="#N"/><use transform="matrix(0.009114583333333334,0,0,0.009114583333333334,30.834635416666668,0)" xlink:href="#ao"/><use transform="matrix(0.009114583333333334,0,0,0.009114583333333334,35.984375,0)" xlink:href="#ac"/><use transform="matrix(0.009114583333333334,0,0,0.009114583333333334,42.08203125,0)" xlink:href="#ak"/><use transform="matrix(0.009114583333333334,0,0,0.009114583333333334,46.611979166666664,0)" xlink:href="#ab"/><use transform="matrix(0.009114583333333334,0,0,0.009114583333333334,62.97265625000001,0)" xlink:href="#N"/></g><g id="w"><use transform="matrix(0.009114583333333334,0,0,0.009114583333333334,0,0)" xlink:href="#O"/><use transform="matrix(0.009114583333333334,0,0,0.009114583333333334,9.625,0)" xlink:href="#N"/><use transform="matrix(0.009114583333333334,0,0,0.009114583333333334,19.514322916666668,0)" xlink:href="#ac"/><use transform="matrix(0.009114583333333334,0,0,0.009114583333333334,25.611979166666668,0)" xlink:href="#ae"/><use transform="matrix(0.009114583333333334,0,0,0.009114583333333334,35.90234375,0)" xlink:href="#aj"/></g><g id="x"><use transform="matrix(0.009114583333333334,0,0,0.009114583333333334,0,0)" xlink:href="#al"/><use transform="matrix(0.009114583333333334,0,0,0.009114583333333334,11.493489583333334,0)" xlink:href="#N"/><use transform="matrix(0.009114583333333334,0,0,0.009114583333333334,21.3828125,0)" xlink:href="#M"/><use transform="matrix(0.009114583333333334,0,0,0.009114583333333334,31.153645833333336,0)" xlink:href="#Q"/><use transform="matrix(0.009114583333333334,0,0,0.009114583333333334,41.79947916666667,0)" xlink:href="#ab"/><use transform="matrix(0.009114583333333334,0,0,0.009114583333333334,58.16015625000001,0)" xlink:href="#ab"/><use transform="matrix(0.009114583333333334,0,0,0.009114583333333334,74.52083333333334,0)" xlink:href="#N"/><use transform="matrix(0.009114583333333334,0,0,0.009114583333333334,84.41015625000003,0)" xlink:href="#Z"/><use transform="matrix(0.009114583333333334,0,0,0.009114583333333334,94.70963541666669,0)" xlink:href="#X"/><use transform="matrix(0.009114583333333334,0,0,0.009114583333333334,105.23697916666669,0)" xlink:href="#N"/><use transform="matrix(0.009114583333333334,0,0,0.009114583333333334,115.12630208333336,0)" xlink:href="#X"/></g><g id="y"><use transform="matrix(0.009114583333333334,0,0,0.009114583333333334,0,0)" xlink:href="#M"/><use transform="matrix(0.009114583333333334,0,0,0.009114583333333334,9.770833333333334,0)" xlink:href="#R"/><use transform="matrix(0.009114583333333334,0,0,0.009114583333333334,15.914062500000002,0)" xlink:href="#N"/><use transform="matrix(0.009114583333333334,0,0,0.009114583333333334,25.803385416666668,0)" xlink:href="#X"/><use transform="matrix(0.009114583333333334,0,0,0.009114583333333334,36.33072916666667,0)" xlink:href="#N"/><use transform="matrix(0.009114583333333334,0,0,0.009114583333333334,46.22005208333334,0)" xlink:href="#Z"/><use transform="matrix(0.009114583333333334,0,0,0.009114583333333334,56.519531250000014,0)" xlink:href="#ac"/><use transform="matrix(0.009114583333333334,0,0,0.009114583333333334,62.617187500000014,0)" xlink:href="#ak"/><use transform="matrix(0.009114583333333334,0,0,0.009114583333333334,67.14713541666669,0)" xlink:href="#V"/><use transform="matrix(0.009114583333333334,0,0,0.009114583333333334,77.30078125000003,0)" xlink:href="#ai"/><use transform="matrix(0.009114583333333334,0,0,0.009114583333333334,81.83072916666669,0)" xlink:href="#O"/></g><path fill="#172b4d" d="M992-673H361v516h733V0H169v-1456h915v158H361v468h631v157" id="ap"/><g id="z"><use transform="matrix(0.009114583333333334,0,0,0.009114583333333334,0,0)" xlink:href="#ap"/><use transform="matrix(0.009114583333333334,0,0,0.009114583333333334,10.609375,0)" xlink:href="#Z"/><use transform="matrix(0.009114583333333334,0,0,0.009114583333333334,20.908854166666668,0)" xlink:href="#X"/></g><g id="A"><use transform="matrix(0.009114583333333334,0,0,0.009114583333333334,0,0)" xlink:href="#ae"/><use transform="matrix(0.009114583333333334,0,0,0.009114583333333334,10.290364583333334,0)" xlink:href="#O"/><use transform="matrix(0.009114583333333334,0,0,0.009114583333333334,19.915364583333336,0)" xlink:href="#N"/><use transform="matrix(0.009114583333333334,0,0,0.009114583333333334,29.804687500000004,0)" xlink:href="#R"/></g><g id="B"><use transform="matrix(0.009114583333333334,0,0,0.009114583333333334,0,0)" xlink:href="#ap"/><use transform="matrix(0.009114583333333334,0,0,0.009114583333333334,10.609375,0)" xlink:href="#Z"/><use transform="matrix(0.009114583333333334,0,0,0.009114583333333334,20.908854166666668,0)" xlink:href="#R"/><use transform="matrix(0.009114583333333334,0,0,0.009114583333333334,27.04296875,0)" xlink:href="#Q"/><use transform="matrix(0.009114583333333334,0,0,0.009114583333333334,37.688802083333336,0)" xlink:href="#ai"/><use transform="matrix(0.009114583333333334,0,0,0.009114583333333334,42.21875,0)" xlink:href="#ai"/></g><path fill="#172b4d" d="M703-1476c426 0 599 333 586 795-11 408-187 701-584 701-422 0-587-333-587-793 0-282 106-507 280-617 89-56 190-86 305-86zm2 1333c312 0 393-279 393-632 0-308-116-536-395-536-269 0-394 232-394 523v107c-4 298 123 538 396 538" id="aq"/><g id="C"><use transform="matrix(0.009114583333333334,0,0,0.009114583333333334,0,0)" xlink:href="#ak"/><use transform="matrix(0.009114583333333334,0,0,0.009114583333333334,4.529947916666667,0)" xlink:href="#aq"/><use transform="matrix(0.009114583333333334,0,0,0.009114583333333334,17.36328125,0)" xlink:href="#an"/></g><g id="D"><use transform="matrix(0.009114583333333334,0,0,0.009114583333333334,0,0)" xlink:href="#Q"/><use transform="matrix(0.009114583333333334,0,0,0.009114583333333334,10.645833333333334,0)" xlink:href="#R"/></g><g id="E"><use transform="matrix(0.009114583333333334,0,0,0.009114583333333334,0,0)" xlink:href="#L"/><use transform="matrix(0.009114583333333334,0,0,0.009114583333333334,12.177083333333334,0)" xlink:href="#Z"/><use transform="matrix(0.009114583333333334,0,0,0.009114583333333334,22.4765625,0)" xlink:href="#X"/><use transform="matrix(0.009114583333333334,0,0,0.009114583333333334,33.00390625,0)" xlink:href="#R"/><use transform="matrix(0.009114583333333334,0,0,0.009114583333333334,39.138020833333336,0)" xlink:href="#Q"/><use transform="matrix(0.009114583333333334,0,0,0.009114583333333334,49.78385416666667,0)" xlink:href="#ak"/><use transform="matrix(0.009114583333333334,0,0,0.009114583333333334,54.313802083333336,0)" xlink:href="#X"/></g><g id="F"><use transform="matrix(0.009114583333333334,0,0,0.009114583333333334,0,0)" xlink:href="#X"/><use transform="matrix(0.009114583333333334,0,0,0.009114583333333334,10.52734375,0)" xlink:href="#N"/><use transform="matrix(0.009114583333333334,0,0,0.009114583333333334,20.298177083333336,0)" xlink:href="#ah"/><use transform="matrix(0.009114583333333334,0,0,0.009114583333333334,29.339843750000004,0)" xlink:href="#ak"/><use transform="matrix(0.009114583333333334,0,0,0.009114583333333334,33.86979166666667,0)" xlink:href="#M"/><use transform="matrix(0.009114583333333334,0,0,0.009114583333333334,43.640625000000014,0)" xlink:href="#N"/></g><g id="G"><use transform="matrix(0.009114583333333334,0,0,0.009114583333333334,0,0)" xlink:href="#af"/><use transform="matrix(0.009114583333333334,0,0,0.009114583333333334,5.076822916666667,0)" xlink:href="#Z"/><use transform="matrix(0.009114583333333334,0,0,0.009114583333333334,15.376302083333336,0)" xlink:href="#O"/><use transform="matrix(0.009114583333333334,0,0,0.009114583333333334,25.001302083333336,0)" xlink:href="#ac"/><use transform="matrix(0.009114583333333334,0,0,0.009114583333333334,31.098958333333336,0)" xlink:href="#V"/><use transform="matrix(0.009114583333333334,0,0,0.009114583333333334,41.25260416666667,0)" xlink:href="#ai"/><use transform="matrix(0.009114583333333334,0,0,0.009114583333333334,45.782552083333336,0)" xlink:href="#ai"/></g><path fill="#172b4d" d="M1160-420C1159-145 963 0 674 0H169v-1456h476c294-1 476 112 476 388 0 153-99 253-216 302 146 38 255 167 255 346zM678-157c171 2 289-95 289-261 0-175-95-263-286-263H361v524h317zm250-912c-2-172-104-229-283-229H361v463h290c157 3 278-84 277-234" id="ar"/><g id="H"><use transform="matrix(0.009114583333333334,0,0,0.009114583333333334,0,0)" xlink:href="#ar"/><use transform="matrix(0.009114583333333334,0,0,0.009114583333333334,11.62109375,0)" xlink:href="#R"/><use transform="matrix(0.009114583333333334,0,0,0.009114583333333334,17.755208333333336,0)" xlink:href="#Q"/><use transform="matrix(0.009114583333333334,0,0,0.009114583333333334,28.40104166666667,0)" xlink:href="#W"/><use transform="matrix(0.009114583333333334,0,0,0.009114583333333334,42.42838541666667,0)" xlink:href="#O"/><use transform="matrix(0.009114583333333334,0,0,0.009114583333333334,52.05338541666667,0)" xlink:href="#N"/><use transform="matrix(0.009114583333333334,0,0,0.009114583333333334,61.94270833333334,0)" xlink:href="#R"/></g><path fill="#172b4d" d="M503-687l240-395h216L605-547 970 0H756L506-405 256 0H41l365-547-354-535h214" id="as"/><g id="I"><use transform="matrix(0.009114583333333334,0,0,0.009114583333333334,0,0)" xlink:href="#ap"/><use transform="matrix(0.009114583333333334,0,0,0.009114583333333334,10.609375,0)" xlink:href="#as"/><use transform="matrix(0.009114583333333334,0,0,0.009114583333333334,19.860677083333336,0)" xlink:href="#ac"/><use transform="matrix(0.009114583333333334,0,0,0.009114583333333334,25.958333333333336,0)" xlink:href="#N"/><use transform="matrix(0.009114583333333334,0,0,0.009114583333333334,35.84765625,0)" xlink:href="#Z"/><use transform="matrix(0.009114583333333334,0,0,0.009114583333333334,46.14713541666667,0)" xlink:href="#O"/><use transform="matrix(0.009114583333333334,0,0,0.009114583333333334,55.77213541666667,0)" xlink:href="#ak"/><use transform="matrix(0.009114583333333334,0,0,0.009114583333333334,60.302083333333336,0)" xlink:href="#Q"/><use transform="matrix(0.009114583333333334,0,0,0.009114583333333334,70.94791666666667,0)" xlink:href="#Z"/></g><g id="J"><use transform="matrix(0.009114583333333334,0,0,0.009114583333333334,0,0)" xlink:href="#ap"/><use transform="matrix(0.009114583333333334,0,0,0.009114583333333334,10.609375,0)" xlink:href="#Z"/><use transform="matrix(0.009114583333333334,0,0,0.009114583333333334,20.908854166666668,0)" xlink:href="#X"/></g><g id="K"><use transform="matrix(0.009114583333333334,0,0,0.009114583333333334,0,0)" xlink:href="#ae"/><use transform="matrix(0.009114583333333334,0,0,0.009114583333333334,10.290364583333334,0)" xlink:href="#O"/><use transform="matrix(0.009114583333333334,0,0,0.009114583333333334,19.915364583333336,0)" xlink:href="#N"/><use transform="matrix(0.009114583333333334,0,0,0.009114583333333334,29.804687500000004,0)" xlink:href="#R"/></g></defs></g></svg>