<svg xmlns="http://www.w3.org/2000/svg" xmlns:xlink="http://www.w3.org/1999/xlink" xmlns:lucid="lucid" width="1652" height="1373"><g transform="translate(-158 -3003)" lucid:page-tab-id="0_0"><path d="M202.86 3315.46a6 6 0 0 1 6-6h1551a6 6 0 0 1 6 6v222.85a6 6 0 0 1-6 6h-1551a6 6 0 0 1-6-6z" fill="#e0e8f5"/><path d="M223.84 3309.46h15m7.48 0h15m7.48 0h15m7.48 0h14.98m7.5 0h14.98m7.5 0h14.98m7.5 0h14.98m7.5 0h14.98m7.5 0h14.97m7.5 0h14.98m7.5 0h14.98m7.5 0h15m7.48 0h15m7.48 0h15m7.48 0h14.98m7.5 0H576m7.5 0h14.98m7.5 0h14.98m7.5 0h14.98m7.5 0h14.97m7.5 0h15m7.5 0h14.97m7.5 0h14.98m7.5 0h14.98m7.5 0h14.98m7.5 0h14.98m7.5 0h14.98m7.5 0h14.98m7.5 0h14.98m7.5 0h14.98m7.5 0h14.98m7.5 0h14.97m7.5 0h14.98m7.5 0h14.98m7.5 0h15m7.48 0h15m7.48 0h15m7.48 0h14.98m7.5 0H1093m7.5 0h14.98m7.5 0h14.98m7.5 0h14.98m7.5 0h14.97m7.5 0h15m7.5 0h14.97m7.5 0h14.98m7.5 0h14.98m7.5 0h14.98m7.5 0h14.98m7.5 0h14.98m7.5 0h14.98m7.5 0h14.98m7.5 0h14.98m7.5 0h14.97m7.5 0h14.98m7.5 0h14.98m7.5 0h14.98m7.5 0h15m7.48 0h15m7.48 0h15m7.48 0h14.98m7.5 0H1610m7.5 0h14.98m7.5 0h14.98m7.5 0h14.98m7.5 0h14.97m7.5 0h15m7.48 0h15m7.48 0h7.5l.94.07.9.22.88.36.8.5.72.62.6.7.5.82.36.87.22.92.08.94v7.43m0 7.42v14.85m0 7.43v14.86m0 7.43v14.84m0 7.43v14.86m0 7.43v14.85m0 7.44v14.86m0 7.43v14.85m0 7.43v14.87m0 7.43v14.85m0 7.43v7.43l-.08.95-.22.9-.36.88-.5.8-.6.72-.72.6-.8.5-.87.37-.9.22-.94.07h-7.5m-7.5 0h-14.97m-7.5 0h-15m-7.5 0h-14.97m-7.5 0h-14.98m-7.5 0h-14.98m-7.5 0h-14.98m-7.5 0h-14.98m-7.5 0h-14.98m-7.5 0h-14.98m-7.5 0h-14.98m-7.5 0h-14.98m-7.5 0h-14.97m-7.5 0h-14.98m-7.5 0h-14.98m-7.5 0h-14.98m-7.5 0h-15m-7.48 0h-15m-7.48 0h-14.98m-7.5 0h-14.98m-7.5 0h-14.98m-7.5 0h-14.98m-7.5 0h-14.98m-7.5 0h-14.98m-7.5 0h-14.97m-7.5 0h-15m-7.5 0h-14.97m-7.5 0h-14.98m-7.5 0h-14.98m-7.5 0h-14.98m-7.5 0h-14.98m-7.5 0h-14.98m-7.5 0h-14.98m-7.5 0h-14.98m-7.5 0H988.1m-7.5 0h-14.98m-7.5 0h-14.97m-7.5 0h-14.98m-7.5 0H898.2m-7.5 0h-15m-7.48 0h-15m-7.48 0h-15m-7.48 0h-14.98m-7.5 0H785.8m-7.5 0h-14.98m-7.5 0h-14.98m-7.5 0h-14.98m-7.5 0H695.9m-7.5 0h-15m-7.5 0h-14.97m-7.5 0h-14.98m-7.5 0h-14.98m-7.5 0H583.5m-7.5 0h-14.98m-7.5 0h-14.98m-7.5 0h-14.98m-7.5 0H493.6m-7.5 0H471.1m-7.5 0h-14.98m-7.5 0h-14.97m-7.5 0h-14.98m-7.5 0H381.2m-7.5 0h-15m-7.48 0h-15m-7.48 0h-14.98m-7.5 0h-14.98m-7.5 0H268.8m-7.5 0h-14.98m-7.5 0h-14.98m-7.5 0h-7.48l-.94-.06-.92-.22-.87-.36-.8-.5-.72-.6-.6-.72-.5-.8-.35-.88-.22-.9-.07-.95v-7.42m0-7.43v-14.85m0-7.43v-14.86m0-7.42v-14.85m0-7.43v-14.86m0-7.43v-14.84m0-7.43v-14.86m0-7.43v-14.85m0-7.44v-14.86m0-7.43v-14.85m0-7.43v-7.44l.07-.94.22-.9.36-.88.5-.8.62-.72.7-.6.8-.5.88-.37.92-.22.94-.07h7.5" stroke="#2f3564" stroke-width="1.5" fill="none"/><path d="M626 3407.74a6 6 0 0 1 6-6h320.93a6 6 0 0 1 6 6v38.3a6 6 0 0 1-6 6H632a6 6 0 0 1-6-6z" stroke="#6c6e83" fill="#fff"/><path d="M669.3 3415.4h246v22.98h-246z" fill="none"/><use xlink:href="#a" transform="matrix(1,0,0,1,669.2865580577787,3415.389286841926) translate(0 17.880208333333336)"/><use xlink:href="#b" transform="matrix(1,0,0,1,669.2865580577787,3415.389286841926) translate(73.7734375 17.880208333333336)"/><use xlink:href="#c" transform="matrix(1,0,0,1,669.2865580577787,3415.389286841926) translate(89.99739583333334 17.880208333333336)"/><use xlink:href="#d" transform="matrix(1,0,0,1,669.2865580577787,3415.389286841926) translate(161.94791666666669 17.880208333333336)"/><path d="M202.86 3578.47a6 6 0 0 1 6-6h1551a6 6 0 0 1 6 6v222.85a6 6 0 0 1-6 6h-1551a6 6 0 0 1-6-6z" fill="#e0e8f5"/><path d="M223.84 3572.47h15m7.48 0h15m7.48 0h15m7.48 0h14.98m7.5 0h14.98m7.5 0h14.98m7.5 0h14.98m7.5 0h14.98m7.5 0h14.97m7.5 0h14.98m7.5 0h14.98m7.5 0h15m7.48 0h15m7.48 0h15m7.48 0h14.98m7.5 0H576m7.5 0h14.98m7.5 0h14.98m7.5 0h14.98m7.5 0h14.97m7.5 0h15m7.5 0h14.97m7.5 0h14.98m7.5 0h14.98m7.5 0h14.98m7.5 0h14.98m7.5 0h14.98m7.5 0h14.98m7.5 0h14.98m7.5 0h14.98m7.5 0h14.98m7.5 0h14.97m7.5 0h14.98m7.5 0h14.98m7.5 0h15m7.48 0h15m7.48 0h15m7.48 0h14.98m7.5 0H1093m7.5 0h14.98m7.5 0h14.98m7.5 0h14.98m7.5 0h14.97m7.5 0h15m7.5 0h14.97m7.5 0h14.98m7.5 0h14.98m7.5 0h14.98m7.5 0h14.98m7.5 0h14.98m7.5 0h14.98m7.5 0h14.98m7.5 0h14.98m7.5 0h14.97m7.5 0h14.98m7.5 0h14.98m7.5 0h14.98m7.5 0h15m7.48 0h15m7.48 0h15m7.48 0h14.98m7.5 0H1610m7.5 0h14.98m7.5 0h14.98m7.5 0h14.98m7.5 0h14.97m7.5 0h15m7.48 0h15m7.48 0h7.5l.94.07.9.22.88.36.8.5.72.6.6.72.5.8.36.87.22.93.08.93v7.43m0 7.42v14.86m0 7.43v14.86m0 7.43v14.85m0 7.43v14.86m0 7.42v14.86m0 7.43v14.86m0 7.43v14.86m0 7.42v14.86m0 7.42v14.86m0 7.43v7.42l-.08.94-.22.9-.36.88-.5.8-.6.72-.72.6-.8.5-.87.36-.9.22-.94.08h-7.5m-7.5 0h-14.97m-7.5 0h-15m-7.5 0h-14.97m-7.5 0h-14.98m-7.5 0h-14.98m-7.5 0h-14.98m-7.5 0h-14.98m-7.5 0h-14.98m-7.5 0h-14.98m-7.5 0h-14.98m-7.5 0h-14.98m-7.5 0h-14.97m-7.5 0h-14.98m-7.5 0h-14.98m-7.5 0h-14.98m-7.5 0h-15m-7.48 0h-15m-7.48 0h-14.98m-7.5 0h-14.98m-7.5 0h-14.98m-7.5 0h-14.98m-7.5 0h-14.98m-7.5 0h-14.98m-7.5 0h-14.97m-7.5 0h-15m-7.5 0h-14.97m-7.5 0h-14.98m-7.5 0h-14.98m-7.5 0h-14.98m-7.5 0h-14.98m-7.5 0h-14.98m-7.5 0h-14.98m-7.5 0h-14.98m-7.5 0H988.1m-7.5 0h-14.98m-7.5 0h-14.97m-7.5 0h-14.98m-7.5 0H898.2m-7.5 0h-15m-7.48 0h-15m-7.48 0h-15m-7.48 0h-14.98m-7.5 0H785.8m-7.5 0h-14.98m-7.5 0h-14.98m-7.5 0h-14.98m-7.5 0H695.9m-7.5 0h-15m-7.5 0h-14.97m-7.5 0h-14.98m-7.5 0h-14.98m-7.5 0H583.5m-7.5 0h-14.98m-7.5 0h-14.98m-7.5 0h-14.98m-7.5 0H493.6m-7.5 0H471.1m-7.5 0h-14.98m-7.5 0h-14.97m-7.5 0h-14.98m-7.5 0H381.2m-7.5 0h-15m-7.48 0h-15m-7.48 0h-14.98m-7.5 0h-14.98m-7.5 0H268.8m-7.5 0h-14.98m-7.5 0h-14.98m-7.5 0h-7.48l-.94-.08-.92-.22-.87-.36-.8-.5-.72-.6-.6-.72-.5-.8-.35-.87-.22-.9-.07-.95v-7.43m0-7.44v-14.86m0-7.42v-14.86m0-7.43v-14.87m0-7.43v-14.85m0-7.43v-14.86m0-7.43v-14.85m0-7.43v-14.86m0-7.44v-14.85m0-7.42v-14.86m0-7.43v-7.43l.07-.94.22-.92.36-.86.5-.8.62-.72.7-.6.8-.5.88-.36.92-.22.94-.07h7.5" stroke="#2f3564" stroke-width="1.5" fill="none"/><path d="M622.77 3670.74a6 6 0 0 1 6-6h551.83a6 6 0 0 1 6 6v38.3a6 6 0 0 1-6 6H628.77a6 6 0 0 1-6-6z" stroke="#6c6e83" fill="#fff"/><path d="M667.07 3676.05h493.18v27.7H667.07z" fill="none"/><use xlink:href="#e" transform="matrix(1,0,0,1,667.0678975314215,3676.045370426702) translate(0 20.380208333333336)"/><use xlink:href="#f" transform="matrix(1,0,0,1,667.0678975314215,3676.045370426702) translate(93.59765625000001 20.380208333333336)"/><use xlink:href="#g" transform="matrix(1,0,0,1,667.0678975314215,3676.045370426702) translate(249.45703125000006 20.380208333333336)"/><use xlink:href="#h" transform="matrix(1,0,0,1,667.0678975314215,3676.045370426702) translate(293.01562500000006 20.380208333333336)"/><use xlink:href="#i" transform="matrix(1,0,0,1,667.0678975314215,3676.045370426702) translate(336.69270833333337 20.380208333333336)"/><use xlink:href="#b" transform="matrix(1,0,0,1,667.0678975314215,3676.045370426702) translate(390.78776041666674 20.380208333333336)"/><use xlink:href="#j" transform="matrix(1,0,0,1,667.0678975314215,3676.045370426702) translate(407.01171875000006 20.380208333333336)"/><path d="M202.86 3841.47a6 6 0 0 1 6-6h1551a6 6 0 0 1 6 6v222.85a6 6 0 0 1-6 6h-1551a6 6 0 0 1-6-6z" fill="#e0e8f5"/><path d="M223.84 3835.47h15m7.48 0h15m7.48 0h15m7.48 0h14.98m7.5 0h14.98m7.5 0h14.98m7.5 0h14.98m7.5 0h14.98m7.5 0h14.97m7.5 0h14.98m7.5 0h14.98m7.5 0h15m7.48 0h15m7.48 0h15m7.48 0h14.98m7.5 0H576m7.5 0h14.98m7.5 0h14.98m7.5 0h14.98m7.5 0h14.97m7.5 0h15m7.5 0h14.97m7.5 0h14.98m7.5 0h14.98m7.5 0h14.98m7.5 0h14.98m7.5 0h14.98m7.5 0h14.98m7.5 0h14.98m7.5 0h14.98m7.5 0h14.98m7.5 0h14.97m7.5 0h14.98m7.5 0h14.98m7.5 0h15m7.48 0h15m7.48 0h15m7.48 0h14.98m7.5 0H1093m7.5 0h14.98m7.5 0h14.98m7.5 0h14.98m7.5 0h14.97m7.5 0h15m7.5 0h14.97m7.5 0h14.98m7.5 0h14.98m7.5 0h14.98m7.5 0h14.98m7.5 0h14.98m7.5 0h14.98m7.5 0h14.98m7.5 0h14.98m7.5 0h14.97m7.5 0h14.98m7.5 0h14.98m7.5 0h14.98m7.5 0h15m7.48 0h15m7.48 0h15m7.48 0h14.98m7.5 0H1610m7.5 0h14.98m7.5 0h14.98m7.5 0h14.98m7.5 0h14.97m7.5 0h15m7.48 0h15m7.48 0h7.5l.94.08.9.2.88.38.8.5.72.6.6.72.5.8.36.87.22.9.08.95v7.43m0 7.43v14.86m0 7.4v14.87m0 7.43v14.86m0 7.42v14.86m0 7.43v14.86m0 7.42v14.86m0 7.44v14.86m0 7.42v14.86m0 7.43v14.87m0 7.43v7.42l-.08.94-.22.92-.36.87-.5.8-.6.72-.72.6-.8.5-.87.36-.9.22-.94.07h-7.5m-7.5 0h-14.97m-7.5 0h-15m-7.5 0h-14.97m-7.5 0h-14.98m-7.5 0h-14.98m-7.5 0h-14.98m-7.5 0h-14.98m-7.5 0h-14.98m-7.5 0h-14.98m-7.5 0h-14.98m-7.5 0h-14.98m-7.5 0h-14.97m-7.5 0h-14.98m-7.5 0h-14.98m-7.5 0h-14.98m-7.5 0h-15m-7.48 0h-15m-7.48 0h-14.98m-7.5 0h-14.98m-7.5 0h-14.98m-7.5 0h-14.98m-7.5 0h-14.98m-7.5 0h-14.98m-7.5 0h-14.97m-7.5 0h-15m-7.5 0h-14.97m-7.5 0h-14.98m-7.5 0h-14.98m-7.5 0h-14.98m-7.5 0h-14.98m-7.5 0h-14.98m-7.5 0h-14.98m-7.5 0h-14.98m-7.5 0H988.1m-7.5 0h-14.98m-7.5 0h-14.97m-7.5 0h-14.98m-7.5 0H898.2m-7.5 0h-15m-7.48 0h-15m-7.48 0h-15m-7.48 0h-14.98m-7.5 0H785.8m-7.5 0h-14.98m-7.5 0h-14.98m-7.5 0h-14.98m-7.5 0H695.9m-7.5 0h-15m-7.5 0h-14.97m-7.5 0h-14.98m-7.5 0h-14.98m-7.5 0H583.5m-7.5 0h-14.98m-7.5 0h-14.98m-7.5 0h-14.98m-7.5 0H493.6m-7.5 0H471.1m-7.5 0h-14.98m-7.5 0h-14.97m-7.5 0h-14.98m-7.5 0H381.2m-7.5 0h-15m-7.48 0h-15m-7.48 0h-14.98m-7.5 0h-14.98m-7.5 0H268.8m-7.5 0h-14.98m-7.5 0h-14.98m-7.5 0h-7.48l-.94-.07-.92-.22-.87-.36-.8-.5-.72-.6-.6-.72-.5-.8-.35-.87-.22-.92-.07-.94v-7.43m0-7.43v-14.86m0-7.42v-14.86m0-7.42v-14.86m0-7.43v-14.85m0-7.42v-14.86m0-7.43v-14.86m0-7.42v-14.86m0-7.43v-14.86m0-7.4v-14.87m0-7.43v-7.43l.07-.94.22-.9.36-.88.5-.8.62-.72.7-.6.8-.5.88-.37.92-.2.94-.1h7.5" stroke="#2f3564" stroke-width="1.5" fill="none"/><path d="M622.77 3932.13a6 6 0 0 1 6-6h243.8a6 6 0 0 1 6 6v38.3a6 6 0 0 1-6 6h-243.8a6 6 0 0 1-6-6z" stroke="#6c6e83" fill="#fff"/><path d="M661.7 3939.78H854v23H661.7z" fill="none"/><use xlink:href="#e" transform="matrix(1,0,0,1,661.6881558113876,3939.777817657536) translate(0 17.880208333333336)"/><use xlink:href="#k" transform="matrix(1,0,0,1,661.6881558113876,3939.777817657536) translate(93.59765625000001 17.880208333333336)"/><path d="M909.27 3975.67v-47.08M909.27 3975.65v.77M909.27 3928.6v-.76" stroke="#6c6e83" stroke-width="1.5" fill="none"/><path d="M939.98 3932.13a6 6 0 0 1 6-6h237.16a6 6 0 0 1 6 6v38.3a6 6 0 0 1-6 6H945.98a6 6 0 0 1-6-6z" stroke="#6c6e83" fill="#fff"/><path d="M976.8 3939.78h194.03v23H976.8z" fill="none"/><use xlink:href="#l" transform="matrix(1,0,0,1,976.8105705767355,3939.7778176575375) translate(0 17.880208333333336)"/><use xlink:href="#m" transform="matrix(1,0,0,1,976.8105705767355,3939.7778176575375) translate(86.15104166666667 17.880208333333336)"/><use xlink:href="#n" transform="matrix(1,0,0,1,976.8105705767355,3939.7778176575375) translate(135.98958333333334 17.880208333333336)"/><path d="M300.55 3952.27a19.5 19.5 0 0 1 19.5-19.5h141a19.5 19.5 0 0 1 19.5 19.5 19.5 19.5 0 0 1-19.5 19.5h-141a19.5 19.5 0 0 1-19.5-19.5z" stroke="#6c6e83" fill="#fff"/><path d="M359.72 3939.78h100v23h-100z" fill="none"/><use xlink:href="#o" transform="matrix(1,0,0,1,359.7242542470123,3939.7778176576066) translate(0 17.880208333333332)"/><path d="M290.55 4002.7c27.6 0 50-22.4 50-50s-22.4-50-50-50-50 22.4-50 50 22.4 50 50 50z" stroke="#6c6e83" fill="#a2c6f6"/><path d="M307.25 3942.05c.3-2 .7-4.1.8-6.12.1-1.8-.1-3.7-.8-5.42-.8-1.9-2.1-3.3-3.5-4.7.8-.2 1.6-.6 2.3-1.22.7-.7 1.2-1.7 1.2-2.8 0-.6-.2-1-.4-1.5-.2-.52-.2-.82-.1-1.32v-.7c-.4-.9-1.7-1.5-2.5-1.9-.8-.3-1.6-.5-2.5-.6-.3-.82-1.3-1.32-2.2-1.42-.7-.2-1.5-.2-2.2 0-.9.3-1.6.8-2.5 1.2-.8.4-1.8.5-2.6.8-.7.3-1.3.7-1.8 1.22-.7.6-1 1.3-1.3 2.1-1.6-.3-3.3-.4-4.9-.1-.9.2-1.6.6-2.3 1.1-1 .5-2 .7-2.9 1.2-.7.3-1.2.92-1.8 1.52-.7.8-1.6 1.3-2.4 2-.8.6-1.4 1.5-1.8 2.52-.7 1-1.1 2.1-1.5 3.3-.3 1.22-.6 2.42-.9 3.73-.3 1.2-.6 2.5-.7 3.7-.1 2.12.4 4.03 1.6 5.53v.1l.2.2c.1.1.2.1.2 0 2.1.9 4 1.9 5.9 3.22 1.8 1.3 3.6 2.8 5.4 4.3 3.5 2.93 6.3 6.64 9.9 9.45 1.3 1 2.9 2.4 4.7 2 1.7-.4 2.8-2 3.7-3.4 2.2-3.52 3.6-7.64 4.5-11.75.5-2 .9-4.12 1.2-6.23z" stroke="#000" stroke-opacity="0" fill="#5a3728"/><path d="M301.95 3956c.6-3.7 2.8-20.17 1.6-23.08-1-2.1-2.5-3.12-4.3-4.32l-.9-.6c-.2-.2-.5-.4-.8-.6-1.8-1.5-4.3-1.7-6.5-1.7-5.1.1-10.2.4-14.7 3.2-.6.4-1.2.8-1.8 1.3-.1.1-.3.2-.4.4-.7.6-1.3 1.2-1.7 2.02-.5.8-.7 1.6-.8 2.4-1.1 6.23-.4 14.16.9 20.3 1.3 6.7 4.7 14.54 12 16.05 1.2.2 2.5.3 3.9.1 6.1-.7 10.3-4.82 12.3-10.54.5-1.6.9-3.3 1.2-4.92z" stroke="#000" stroke-opacity="0" fill="#fea689"/><path d="M315.95 3980c-4.3-1.3-7.6.4-11.4-2.7-1.2-1-2.3-2.52-2.3-3.92l-.3-3.82c-.3-4.5-.5-9.03-.2-13.55h.1c.6-.5 1.3-1.1 1.9-1.8 1.2-1.5 1.8-3.3 1.8-5.22 0-1.6-.1-3.9-1.8-4.62-1.2-.4-2.7.6-3.4 1.6 0-.1-.1-.1-.2-.2.1-.2.2-.4.4-.6.1-.1-.1-.3-.2-.2-.5.6-.7 1.2-.7 1.9 0 1.12.1 2.12.1 3.13 0 1.7-.1 3.3-.2 4.9-.9 1-1.8 2-2.8 3.02-1.4 1.6-3 2.6-4.9 3.7-1.9 1.12-3.7 2.32-5.4 3.63-.9.6-4.6-.6-4.7-2.2-.1-.4-.6-.3-.6.1.5 5.2.8 10.43 1 15.65-.7.5-1.3 1-2 1.4-2 1.4-4.2 2.62-6.5 3.52-.2.1-.3.4-.1.5 3.3 2.6 7.9 5.22 11.5 7.43 1.4.9 2.1 1.3 3.7 1 2-.5 4-1.1 6-1.7 7.6-2.4 14.8-5.92 21.4-10.44.2-.1.1-.4-.2-.5z" stroke="#000" stroke-opacity="0" fill="#fea689"/><path d="M278.65 3949.18c.1-.6 0-1.4-.1-1.6 0-.3-.1-.6-.3-.7-.6-.6-1.2 0-1.3.6-.2.7-.1 2.3.6 2.6.7.4 1-.2 1.1-.9zM294.15 3948.18c.1-.6 0-1.4-.1-1.6 0-.3-.1-.6-.3-.7-.6-.6-1.2 0-1.3.6-.2.7-.1 2.3.6 2.6.7.4 1-.2 1.1-.9z" stroke="#000" stroke-opacity="0" fill="#232c44"/><path d="M286.95 3957.42c-1 .4-3.1.9-3.8-.2-.4-.7.1-2.82.3-3.52.3-2.1.8-4.22 1-6.32.1-.4-.5-.5-.6-.1-.3 3.2-1.6 7.02-1.4 9.73.1 2.02 3.3 1.42 4.7 1.02.4-.2.2-.7-.2-.6z" stroke="#000" stroke-opacity="0" fill="#b47a67"/><path d="M281.05 3942.86c-.1 0-.2-.1-.3-.1-.7-.1-1.2-.2-2-.1-.9.1-2 .1-3 .4-1 .2-2.6.6-2.9 1.7 0 .1.1.3.2.3.9.4 1.6.1 2.6 0 1.3-.1 2.7-.1 4.1-.3.5 0 1.1-.3 1.4-.7.4-.4.3-.9-.1-1.2zM289.05 3943.76c.4.3 1 .5 1.5.5 1.4-.1 2.8-.3 4.1-.5 1-.1 1.7.1 2.6-.5.1 0 .1-.2.1-.3-.6-1-2.1-1.1-3.2-1.2-1 0-2.1.2-3 .2-.8 0-1.3.2-2 .5-.1 0-.1.1-.2.1-.4.3-.3.9.1 1.2z" stroke="#000" stroke-opacity="0" fill="#b47a66"/><path d="M300.15 3959.62c.1-1.6.1-3.3.1-5.02 0-.2.1-2.3-.7-1.5-.2.2-.2.7-.2 1l-.3 1.4c-.2 1-.4 2.02-.7 2.92-.1.8-.6 1.5-.8 2.3-.3.7-.7 1.3-1 2.02-.2.8-.5 1.5-1 2.2-.3.6-1 1-1.6 1.3l-2.5 1.62c-2.9 1.5-3-3.52-3.5-5.42-.6-.1-1.2 0-1.8.2l-.1.1c-.1 0-.1 0-.2.1.1.3.2.7.3 1.1.1.3.1.5 0 .8 0 .9.3 1.7.1 2.52-.2 1.1-1.2 1.2-2.3 1.5-.6.1-1.1.1-1.7-.3-.6-.5-1.3-.4-1.9-.9-.3-.2-.6-.3-.9-.5-.5-.3-.8-1.1-1.2-1.5-.4-.5-.5-1.22-.7-1.82-.3-.7-.7-.9-1.2-1.2-.6-.4-.5-.7-.8-1.2-.2-.4-.7-1.3-.9-1.62-.1-.2-.2-.5-.2-.7-.3-.6-.7-1.2-1.1-1.7l-.5-.5s-.1.8-.1 1c.1.4.2.7.3 1 .3.5.3 1.3.5 1.9.2.6 0 1.52.3 2.12.3.6.5 3.2.7 3.8.3.72.3 1.32.6 1.92.4.6.3 1.4.6 2 .3.6.8.9 1.3 1.2l.1.1.1.1c.4.42.8.72 1.2 1.22.2.3.7 1.3 1 1.5.5.4 1.1.5 1.5.9.3.3.6.1 1 .4.7.5 1.6.4 2.4.4.6 0 1 .3 1.5.4.5.1 1 0 1.5-.1 1.1-.3 3.2.4 4.3.2.9-.1 1.4-.4 2.1-1 .5-.5.9-.5 1.5-.7.3-.2.5-.6.7-.9.4-.4 1.8-1.7 2.1-2.1.4-.5.6-1 .8-1.6.2-.6.4-2.12.5-2.72.2-.4.3-.8.4-1.2.5-1.6.2-5.33.4-7.04z" stroke="#000" stroke-opacity="0" fill="#5a3728"/><path d="M291.65 3960.13c-.7 0-9.3.9-9.5.9-.1 0-.2.1-.1.1 4.2 1.4 5.1 1.2 9.7-.9 0-.1-.1-.1-.1-.1z" stroke="#000" stroke-opacity="0" fill="#b66f58"/><path d="M302.95 3953.2c-.4-.7-.5-.7-.1-1.7 0-.1.2-.2.2-.4.1-.4.2-.7 0-1.2-.1-.42-.7-.92-.7-1.32-.1-.7.5-1.9.7-2.5.1-.4-.5-.5-.6-.1-.2.7-.8 1.8-.8 2.6.1.4.4.6.6.9.7 1.3-.1 1.4-.3 2.3-.2.6.1 1.12.4 1.62.2.3.7.1.5-.2h.1zM302.95 3924.48c-.9-.7-1.7-1.5-2.6-2.1-1.1-.6-2.2-.5-3.3-1.1-1.9-1.1-3.2-2.12-5.6-1.72-.4.1-.3.7.1.6 1.2-.2 2.5-.1 3.6.6.8.4 1.5 1 2.3 1.3.9.52 1.9.4 2.8 1.02.8.6 1.6 1.3 2.3 1.9.3.2.7-.2.4-.5z" stroke="#000" stroke-opacity="0" fill="#392e2a"/><path d="M308.35 3982.3c-1.2-1.9-4.7-.9-6.4-.5-1.4.3-2.7.72-4 1.32-.6.3-1.3.6-2 .7-1.2.2-2.3-.3-3.5-.3-3.5-.2-7.1 1.4-10.4-.5-1.9-1-3.7-2.9-5.9-2.7l-.1-.1c-.1 0-.3 0-.3.1l-.1.1c-.3.1-.6.2-.9.4-.4.2 0 .6.3.5l.6-.3c.1.1.2.1.2.1H276.15c.3 1.1 1.2 3.7 1.3 4 .6 1.5 1.2 2.92 1.9 4.32 1.4 2.82 3 5.63 5 7.94 1.8 2.3 4.2 1.7 6.6.6 2.9-1.5 5.7-3 8.5-4.62 2.5-1.5 5-3.1 6.9-5.32 1.2-1.3 3.1-3.82 2-5.72z" stroke="#000" stroke-opacity="0" fill="#93aebe"/><path d="M330.75 3982s-5.9-6.1-10.4-8.82c-.1-.1-.1-.2-.2-.2-2.9-1.1-6.9-3.52-10-1.8-1.5.8-2.3 2.4-3.4 3.5-1.5 1.6-3.6 2.3-5.5 3.02-1.7.6-3.3 1.3-4.7 2.5-1.5 1.3-2.7 3.02-3.9 4.73-1.7 2.4-3.3 4.92-4.7 7.63-.1-.7-.2-1.4-.4-2.1-.6-2.32-1.9-4.23-3.5-6.04-1.7-2-3.2-4-4.2-6.52-.8-1.7-1.4-3.82-2.9-5.12-1.4-1.2-3.1-1.1-4.7-.6-1.1.4-2.1.8-3.2 1.1-1.1.3-2.3.5-3.3.8-2.7.7-4.6 2.9-4.7 5.53-2.8.3-5.6 1-8.2 2.3-1.5.72-2.6 1.32-2.6 1.32 25.1 24.2 57.9 26.6 80.5-1.2z" stroke="#000" stroke-opacity="0" fill="#485a7e"/><path d="M322.25 3991.85s.3 0 .3-.4c-.9-1.9-1.3-1.7-2.1-3.7-1.6-4.33-1.5-9.15.2-13.47.1-.4-.4-.6-.6-.3-1.6 4.22-1.8 8.84-.5 13.05.7 2.1 1.6 2.92 2.7 4.82zM316.25 3978.3c-1.4 2.7-3.9 4.52-6.5 6.12-2.9 1.7-5.9 3.42-8.8 5.12-2.8 1.6-5.7 3.12-8.5 4.72-2 1.1-3.9 2.5-4.8 4.52-1.6-1.8-3.4-3.4-5.3-4.82-2.4-1.7-5-2.8-6.9-5.12-1.4-1.9-2.9-3.4-4.9-4.72-2.3-1.3-4.9-2.2-7.4-3-.4-.1-.7.4-.3.5 2.3.8 4.7 1.5 6.8 2.7 2.6 1.4 4.1 3.42 6 5.53 1.5 1.8 3.7 2.8 5.7 4.1 2.3 1.62 4.3 3.43 6.1 5.53.1.2.4.2.5 0 1.1-2.8 3.9-4.2 6.4-5.62 3-1.6 6-3.3 8.9-5.02 2.8-1.6 5.6-3.1 8.2-4.82 2.2-1.5 4.2-3.1 5.4-5.52.2-.3-.4-.6-.5-.2h-.1z" stroke="#000" stroke-opacity="0" fill="#2c3b59"/><path d="M283.05 3990.35c-5.2-4.62-7.8-11.35-12.8-16.17-.3-.3-.7.2-.4.4 5 4.82 7.6 11.65 12.8 16.27.3.2.7-.2.4-.5zM304.45 3977.7c-1.2 2.1-3.1 3.7-4.8 5.32-1.8 1.7-3.6 3.3-5.4 5.02-.2.2.2.6.5.4l5.7-5.42c1.7-1.5 3.4-3 4.6-5.12.2-.3-.4-.5-.6-.2z" stroke="#000" stroke-opacity="0" fill="#2c3b59"/><path d="M284.75 3997.68c.2-1.4.2-2.8.3-4.22-.6-.1-1.5-.2-2 .2-.6.5-.3 2.4-.4 3.1-.4 2.72-.6 4.83-.6 4.83s2.3 1.2 2.3-1.6c.2-.72.3-1.52.4-2.32zM291.15 3999.7c-1.8 4.3 1.9 3.8 2 2.5.2-1.9.7-3.82.8-5.73 0-1.8-.1-3.7-.2-5.62-.7.2-1.5.4-2.2.5-.1 1 .1 1.9.3 3 .3 1.82-.5 3.53-.7 5.34z" stroke="#000" stroke-opacity="0" fill="#232c44"/><path d="M305.05 3937.03c0-1.7-.5-3.3-1.3-4.82-.8-1.5-1.8-2.8-2.9-4-1.1-1.3-2.2-2.5-4-3-1.9-.62-3.9-.4-5.9-.3-2.1.1-4.2.1-6.4.3-1 .1-2.1.2-3 .6-.9.4-1.6.9-2.4 1.4-1.6.8-3.3 1.3-4.9 2.3-1.7 1-2.4 2.6-3 4.52-.6 2.1-1 4.32-.8 6.53 0 .1 0 .1.1.1l-.1.1v.2c.2.2.3.3.5.4h.2c1.1-1.4 1.1-3.4 1.4-5.12.3-1 .4-2.5 1.4-3 .6-.4 1.5-.3 2.3-.5.6-.1 1.2-.32 1.7-.62.4-.2.7-.5 1.1-.6.6-.2 1.2.1 1.9.2 1.8.3 3.4-.2 5.2-.7 1.2-.3 2.2-.2 3.4 0 1 .2 2.1.3 3.1.5 1.1.2 2.1.3 3.2.5 1.1.22 2.3.32 2.9 1.52.9 1.8 1.3 3.82 1.1 5.92-.1 1.9-.4 3.82-.2 5.73.1 1.1 1.1 1.6 1.7.6.3-.5.6-.6 1.2-.7.2 0 .4-.1.6-.2.5-.5.7-1.3.9-1.9.6-1.82 1-3.93 1-5.94z" stroke="#000" stroke-opacity="0" fill="#5a3728"/><path d="M289.85 3919.86c-1.4-.1-2.7.3-3.8 1-1.5.9-2.1 2.62-3.8 3.22-2.4.8-4.1 2.4-3.9 5.12 0 .4.6.3.6-.1-.1-1.5.5-3 1.9-3.8.8-.62 1.9-.62 2.8-1.22 1-.7 1.5-1.8 2.4-2.5 1.1-.8 2.4-1.2 3.8-1.1.4 0 .4-.62 0-.62zM303.55 3927.3c0-.4-.6-.3-.6 0 .1 2.9.2 5.62-2.3 7.52-.3.3.1.7.4.5 2.6-2.1 2.5-4.9 2.5-8.03zM302.25 3925.2c0-.4-.6-.3-.6.1 0 1.9 0 3.8-1.1 5.5-.2.3.3.6.5.2 1.1-1.7 1.2-3.8 1.2-5.8z" stroke="#000" stroke-opacity="0" fill="#392e2a"/><path d="M290.55 4002.7c27.6 0 50-22.4 50-50s-22.4-50-50-50-50 22.4-50 50 22.4 50 50 50z" stroke="#6c6e83" fill-opacity="0"/><path d="M202.86 4104.48a6 6 0 0 1 6-6h1551a6 6 0 0 1 6 6v222.85a6 6 0 0 1-6 6h-1551a6 6 0 0 1-6-6z" fill="#e0e8f5"/><path d="M223.84 4098.48h15m7.48 0h15m7.48 0h15m7.48 0h14.98m7.5 0h14.98m7.5 0h14.98m7.5 0h14.98m7.5 0h14.98m7.5 0h14.97m7.5 0h14.98m7.5 0h14.98m7.5 0h15m7.48 0h15m7.48 0h15m7.48 0h14.98m7.5 0H576m7.5 0h14.98m7.5 0h14.98m7.5 0h14.98m7.5 0h14.97m7.5 0h15m7.5 0h14.97m7.5 0h14.98m7.5 0h14.98m7.5 0h14.98m7.5 0h14.98m7.5 0h14.98m7.5 0h14.98m7.5 0h14.98m7.5 0h14.98m7.5 0h14.98m7.5 0h14.97m7.5 0h14.98m7.5 0h14.98m7.5 0h15m7.48 0h15m7.48 0h15m7.48 0h14.98m7.5 0H1093m7.5 0h14.98m7.5 0h14.98m7.5 0h14.98m7.5 0h14.97m7.5 0h15m7.5 0h14.97m7.5 0h14.98m7.5 0h14.98m7.5 0h14.98m7.5 0h14.98m7.5 0h14.98m7.5 0h14.98m7.5 0h14.98m7.5 0h14.98m7.5 0h14.97m7.5 0h14.98m7.5 0h14.98m7.5 0h14.98m7.5 0h15m7.48 0h15m7.48 0h15m7.48 0h14.98m7.5 0H1610m7.5 0h14.98m7.5 0h14.98m7.5 0h14.98m7.5 0h14.97m7.5 0h15m7.48 0h15m7.48 0h7.5l.94.07.9.22.88.36.8.5.72.6.6.72.5.8.36.87.22.92.08.94v7.43m0 7.43v14.86m0 7.42v14.86m0 7.43v14.86m0 7.43v14.85m0 7.43v14.85m0 7.43v14.86m0 7.43v14.85m0 7.43v14.86m0 7.42v14.85m0 7.43v7.43l-.08.94-.22.9-.36.88-.5.8-.6.72-.72.6-.8.5-.87.37-.9.22-.94.07h-7.5m-7.5 0h-14.97m-7.5 0h-15m-7.5 0h-14.97m-7.5 0h-14.98m-7.5 0h-14.98m-7.5 0h-14.98m-7.5 0h-14.98m-7.5 0h-14.98m-7.5 0h-14.98m-7.5 0h-14.98m-7.5 0h-14.98m-7.5 0h-14.97m-7.5 0h-14.98m-7.5 0h-14.98m-7.5 0h-14.98m-7.5 0h-15m-7.48 0h-15m-7.48 0h-14.98m-7.5 0h-14.98m-7.5 0h-14.98m-7.5 0h-14.98m-7.5 0h-14.98m-7.5 0h-14.98m-7.5 0h-14.97m-7.5 0h-15m-7.5 0h-14.97m-7.5 0h-14.98m-7.5 0h-14.98m-7.5 0h-14.98m-7.5 0h-14.98m-7.5 0h-14.98m-7.5 0h-14.98m-7.5 0h-14.98m-7.5 0H988.1m-7.5 0h-14.98m-7.5 0h-14.97m-7.5 0h-14.98m-7.5 0H898.2m-7.5 0h-15m-7.48 0h-15m-7.48 0h-15m-7.48 0h-14.98m-7.5 0H785.8m-7.5 0h-14.98m-7.5 0h-14.98m-7.5 0h-14.98m-7.5 0H695.9m-7.5 0h-15m-7.5 0h-14.97m-7.5 0h-14.98m-7.5 0h-14.98m-7.5 0H583.5m-7.5 0h-14.98m-7.5 0h-14.98m-7.5 0h-14.98m-7.5 0H493.6m-7.5 0H471.1m-7.5 0h-14.98m-7.5 0h-14.97m-7.5 0h-14.98m-7.5 0H381.2m-7.5 0h-15m-7.48 0h-15m-7.48 0h-14.98m-7.5 0h-14.98m-7.5 0H268.8m-7.5 0h-14.98m-7.5 0h-14.98m-7.5 0h-7.48l-.94-.07-.92-.22-.87-.36-.8-.5-.72-.6-.6-.72-.5-.8-.35-.88-.22-.9-.07-.95v-7.43m0-7.43v-14.85m0-7.43v-14.87m0-7.43v-14.85m0-7.43v-14.86m0-7.43v-14.85m0-7.43v-14.86m0-7.44v-14.86m0-7.42v-14.86m0-7.43v-14.87m0-7.42v-7.42l.07-.94.22-.92.36-.87.5-.8.62-.72.7-.6.8-.5.88-.36.92-.22.94-.07h7.5" stroke="#2f3564" stroke-width="1.5" fill="none"/><path d="M622.77 4195.76a6 6 0 0 1 6-6h232.3a6 6 0 0 1 6 6v38.3a6 6 0 0 1-6 6h-232.3a6 6 0 0 1-6-6z" stroke="#6c6e83" fill="#fff"/><path d="M669.3 4203.4h197.77v23H669.3z" fill="none"/><use xlink:href="#p" transform="matrix(1,0,0,1,669.307824173527,4203.407516859799) translate(0 17.880208333333336)"/><use xlink:href="#q" transform="matrix(1,0,0,1,669.307824173527,4203.407516859799) translate(69.27083333333334 17.880208333333336)"/><path d="M306.55 4215.9a19.5 19.5 0 0 1 19.5-19.5h101a19.5 19.5 0 0 1 19.5 19.5 19.5 19.5 0 0 1-19.5 19.5h-101a19.5 19.5 0 0 1-19.5-19.5z" stroke="#6c6e83" fill="#fff"/><path d="M359.2 4204.7h63.66v22.4H359.2z" fill="none"/><use xlink:href="#r" transform="matrix(1,0,0,1,359.1906045640952,4204.696173678026) translate(0 17.57638888888889)"/><path d="M290.55 4265.53c27.6 0 50-22.35 50-49.93 0-27.68-22.4-50.03-50-50.03s-50 22.35-50 50.03c0 27.58 22.4 49.93 50 49.93z" stroke="#6c6e83" fill="#a2c6f6"/><path d="M290.45 4166.68c27 0 48.8 21.84 48.8 48.82s-21.8 48.82-48.8 48.82c-26.9 0-48.7-21.84-48.7-48.82s21.8-48.82 48.7-48.82z" stroke="#000" stroke-opacity="0" fill="#a2c6f6"/><path d="M306.55 4247c.1.2.2.4.3.7.1.3.3.5.4.82 1.5 3.62 3 7.14 4.7 10.77.3.6.2.9.5 1.5 8.2-5.24 14.7-10.98 14.7-10.98s-.7-1.1-2.7-3.32c-1.6-1.9-3.5-3.62-5.5-5.13-4.2-2.92-9.1-5.03-14.2-5.13 0 0 0 .1-.1.2 0 .1-.1.3-.1.5 0 0 0 .1-.1.1 0 .2 0 .3-.1.5 0 .1-.1.3-.1.5v.1c.2 1.12.3 2.83.5 3.93.3 1.72 1.1 3.33 1.8 4.94z" stroke="#000" stroke-opacity="0" fill="#456664"/><path d="M305.95 4237.55l-2.7.8-.7.2c-3.1 1-.9 5.03-3.3 5.74-.3.1-1.1 0-2.2-.3-2.6-.62-6.3-1.93-6.3-1.82 0 0-.4-.2-1.1-.4-1.6-.4-4.7-1.42-7.6-2.32l-3.6-1.2-.8-.2-1.7-.62 1.1-.5.5-.3h.1l1.5-.7 2.3-1.1s8.1 2.9 8.4 2.8c.2 0 7-3.32 7-3.32l6 2.12.1.1.5.2 1 .3.3.1 1.2.4z" stroke="#000" stroke-opacity="0" fill="#ffa894"/><path d="M299.75 4184.2c-.1-1-.9-1.72-1.2-2.72-.3-1.1 0-2.32 0-3.42 0-.2.1-.4 0-.5 0-1.42-.4-2.73-1.7-3.53-1.1-.8-2.3-1.1-3.6-.9-.9.2-1.5.8-2.3 1.2-.4.2-.7.4-1 .7-.7.3-1.3.5-2 .7-1.1.2-2.1.62-2.8 1.62-.8 1.2-.9 3.02-1.2 4.43-.3 1-.4 2-.5 3.02v.3c-.1.7-.1 1.5.1 2.22.1.2.1.5.3.7.5 1.1 1.6 1.7 3 1.6.8 0 1.6-.2 2.4-.3 1.2-.1 2 .6 3.1.82h.1c.4.1.8.1 1.2.1.3 0 .5-.1.8-.1 0 0 .1-.1.2-.1 1.2-.3 2.4-1 3.4-1.92 1.1-1.1 1.9-2.5 1.7-3.92z" stroke="#000" stroke-opacity="0" fill="#db6e56"/><path d="M299.75 4184.2c-.1-1-.9-1.72-1.2-2.72-.3-1.1 0-2.32 0-3.42 0-.2.1-.4 0-.5-.2.9-.5 1.8-.9 2.6-1 2.12-2.5 2.93-4.8 2.83-1.3-.1-2.1.1-3 1-1.4 1.2-4.6 2.1-6.4.8v.3c-.1.7-.1 1.5.1 2.22.1.2.1.5.3.7.5 1.1 1.6 1.7 3 1.6.8 0 1.6-.3 2.4-.3 1.2-.1 2 .5 3.1.82h1.3c.2 0 .5-.1.8-.1h.2c1.2-.3 2.4-1 3.4-1.92 1.1-1.1 1.9-2.5 1.7-3.92z" stroke="#000" stroke-opacity="0" fill="#c2563e"/><path d="M306.85 4196.88c-.2-.9-.7-1.8-1.3-2.62-.2-.1-.3-.2-.4-.3-.5-.5-.6-.7-.8-1.4-.2-.4-.2-.7-.4-1.12-.5-.7-1.3-1.2-2.1-1.5-1.3-.6-2.6-1.1-3.8-1.82h-.1c-1.8-1-3.6-1.2-5.5-.7-.6-.3-1.2-.5-1.8-.5-1.3-.1-2.6.3-3.8.6-1 .2-2 .3-3 .5-.5.1-.9.1-1.4.3-4.8 1.3-6.8 6.24-7.5 10.77-.5.9-1 1.6-1.2 2.6-.1 1.02 0 2.02-.1 3.03-.2 1.3-.2 2.32.1 3.52.2.6.4 1.1.6 1.6.1.1.2.32.2.42.2 1 .7 1.8 1.3 2.4.3.52.5 1.02.7 1.42 0 .2.1.4.2.6 0 .1 0 .1.1.2H277.15c.1 0 .1-.1.2-.1v-.1-.1-.1l-.1-.1c0-.2-.1-.4-.2-.6l.2.2c.1 0 .2.1.2.2l.1.1c.4.2.7.5 1 .8 1.5 1.2 3 2.5 4.7 3.42 4.1 2.42 8.6 3.52 13.2 1.9 1.7-.5 3.3-1.4 4.8-2.5.4-.4.9-.8 1.3-1.2.2-.2.5-.4.7-.72.2-.2.4-.4.6-.7.7-.9 1.4-1.9 1.9-2.92.1-.3.2-.5.2-.7.7-2.02.2-4.03.9-6.04.5-1.5.5-3.02.2-4.53.3-1.4.2-2.8-.2-4.22z" stroke="#000" stroke-opacity="0" fill="#db6e56"/><path d="M294.65 4225.16c-1.5.1-3 .1-4.6-.2-1.7-.3-3.3-.8-4.9-1.4-.7-.2-1.4-.5-1.9-1-.5-.42-.7-1.12-1.1-1.62-.2-.2-.5-.1-.5.2 0 1.9-.1 3.82-.1 5.73v.1c-.1 2.22-.1 4.43-.2 6.65V4234.82c0 1.1 0 2.12-.1 3.13v1.2c0 1.2 0 2.42-.1 3.53 0 .1.1.2.1.2 0 .1.1.1.1.1 3.8 1.4 7.5 14 11.4 13.9.9 0 3.3-8.06 4.2-8.16.5-.1 2.8-2.82 2.8-2.82l-1.8-5.94v-1.7l.2-3.43.3-7.35.2-2.92s-3 .5-4 .6z" stroke="#000" stroke-opacity="0" fill="#ffa894"/><path d="M277.35 4198.9c1-.9 5.4-3.93 6.6-3.93 2.1-.1 6.3-1 8.3-.9 4.7.1 7.7 2 10.4 4.92.2.2.4.3.4.5 0 0 .1 0 .1.1v.1c.4 5.53.2 16.1-1.6 22.14-1 3.22-3.7 7.15-6.7 8.96-6.1 3.72-9.8.6-13.3-3.82-4.2-5.34-4.1-11.08-4.7-17.92-.1-1.7-.4-9.26.5-10.17z" stroke="#000" stroke-opacity="0" fill="#ffa894"/><path d="M282.85 4211.57c-.1-.5-.1-1.1-.1-1.6.1-.3.2-.5.4-.7.5-.6 1.1 0 1.3.5.2.7.2 2.3-.5 2.6-.7.4-1-.1-1.1-.8zM295.65 4211.57c-.1-.5-.1-1.1 0-1.6 0-.3.1-.5.3-.7.5-.6 1.2-.1 1.3.5.2.7.2 2.2-.4 2.6-.7.4-1-.1-1.2-.8z" stroke="#000" stroke-opacity="0" fill="#232c44"/><path d="M278.55 4212.78c-.1-.8-.2-1.6-.5-2.3v-.1c-.2-.32-.4-.52-.6-.72 0-.1 0-.1-.1-.2 0 0-.1 0-.1-.1-.1 0-.1 0-.2.1l-.2-.2c-.1 0-.2-.1-.3-.2-.8-.4-1.7-.3-2.2.8 0 .1-.1.3-.1.4-.6 2.32-.2 5.24 1.4 7.05.2.2.4.52.7.82.3.3.7.6 1.1.9.1.1.3.2.5.2.4 0 .6-.3.6-1.3v-2.82-2.32z" stroke="#000" stroke-opacity="0" fill="#ffa894"/><path d="M286.05 4221.94s1 1.1 1.7 1.4c.8.2 1.6.62 2.4.5.9 0 1.9-.3 2.7-.7.5-.3 1.6-1.3 1.6-1.3l-8.4.1z" stroke="#000" stroke-opacity="0" fill="#ad4444"/><path d="M294.55 4230.4c-2.1 1.5-5.1 1.7-7.5.6-2.1-1-3.7-2.3-5.5-4.02-.1 2.2-.1 4.43-.2 6.64v.1c.9.2 1.7.5 2.6.6 1.5.1 2.7-.8 4.1-.8 1.3.1 2.5.4 3.7-.3 1-.5 1.9-1.3 2.6-2.12.1-.2.3-.4.4-.5.1-.1-.1-.3-.2-.2z" stroke="#000" stroke-opacity="0" fill="#f7886d"/><path d="M287.45 4206.44c-.2-.7-1.1-.9-1.6-1-2.2-.5-4.8.2-6.4 1.7-.4.3.9.2 1 .2 1.4-.3 2.7-.3 4.1-.3h2c.4 0 1-.1.9-.6zM300.95 4207.55c-1.6-1.6-4.2-2.32-6.4-1.9-.5.1-1.5.3-1.6.9-.2.5.4.6.8.7h2c1.4.1 2.8.2 4.1.5.1 0 1.4.2 1.1-.2z" stroke="#000" stroke-opacity="0" fill="#db6e56"/><path d="M277.35 4216.4c-.5-.2-1.4-1.9-.1-1.9h.1s.1 0 .1-.1c0 0 0-.1.1-.1v-.1c-.3-1.32-.6-2.63-.8-3.83-.1-.4-.6-.3-.6.1.2 1.2.5 2.3.7 3.52-1.4.3-.9 2.5.3 3 .4.1.5-.4.2-.6z" stroke="#000" stroke-opacity="0" fill="#f7886d"/><path d="M305.95 4211.68c0-.3 0-.5-.1-.8-.4-1.62-1.6-1.72-2.6-1.12 0 .1 0 .1-.1.1l-.1.1c-.1-.1-.1-.1-.2 0h-.1c-.3.3-.5.6-.7.9v.1c-.4.72-.5 1.42-.6 2.23-.1 1.6-.2 3.2-.2 4.72 0 .2-.1.3-.1.5 0 1.1.4 1.4.9 1.2.2-.1.4-.2.5-.3.4-.2.7-.5 1-.8l.6-.6c1.5-1.6 2.1-4.13 1.8-6.24z" stroke="#000" stroke-opacity="0" fill="#ffa894"/><path d="M302.45 4216.9c.5-.1 1.5-1.8.3-1.9h-.2s0-.1-.1-.1v-.1-.1l.9-3.83c.1-.4.6-.2.5.2-.2 1.1-.5 2.32-.8 3.42 1.4.4.8 2.6-.4 3-.4.1-.5-.4-.2-.6zM290.35 4218.22c-1.8-.8-.9-2.42-.7-3.83l.6-3.93c0-.3-.6-.4-.6 0-.2 1.1-.3 2.1-.5 3.22-.1 1-.6 2.1-.7 3.1 0 1.02.9 1.62 1.8 2.02.3.1.5-.4.1-.6z" stroke="#000" stroke-opacity="0" fill="#f7886d"/><path d="M303.85 4203.52c-.1-1.8-.1-3.92-.9-5.63-1-2.43-3.5-3.74-6-4.24-.2-.1-.4-.1-.6-.1-.5-.1-1.1-.2-1.7-.3h-1.1c-2.4 0-4.7.3-7 .7-2.1.3-4.2.8-6.1 1.7-.4.2-.7.4-1.1.52-.2.2-.5.3-.8.5-.9.5-1.8 1.2-2.1 2.3-.6 1.83-.6 7.97.1 10.08.1.4.2.6.4.8H277.25l.2-.2c.4-.5.4-1.5.5-2.1.1-1.72 0-3.23.6-4.84.5-1.5 1.3-2.92 2.2-4.23 1-1.52 1.9-2.83 3.8-3.13 1.4-.2 3-.1 4.4-.2 1.2-.1 2.5-.2 3.7-.1 1.2.2 2.2.7 3.4 1 1.9.6 4.2.6 5.3 2.62.9 1.5.7 3.6.8 5.23l.6 5.73v.2l.1.1H303.15c.1 0 .1-.1.1-.1.8-1.9.6-4.32.6-6.34z" stroke="#000" stroke-opacity="0" fill="#db6e56"/><path d="M294.95 4191.44c-.1-.6-.3-1.1-.7-1.6-.4-.5-1.6-1.22-1.5-1.92.1-.4-.5-.4-.6 0 0 .7.3 1.1.8 1.5 1.4 1.22 2 2.83.7 4.44-.2.3.2.7.4.4.7-.8 1-1.7.9-2.82zM296.45 4191.34c-.2-.3-.7-.1-.5.3.2.3.3.7.4 1.1.1.3 0 .72 0 1.12-.1.4.4.6.5.2.1-.5.2-.9.1-1.4-.1-.5-.3-.9-.5-1.32zM279.65 4199.2c-1.6-.7-.2-2.52-.2-3.53 0-.5-.2-.7-.3-1.1-.4-1.1-.4-2.12.2-3.23.1-.4-.4-.7-.5-.3-.4.7-.7 1.5-.6 2.32 0 1.1.7 1.9.4 3.02-.3 1.1-.7 2.7.7 3.32.3.2.6-.3.3-.5zM291.25 4180.67c-1-1.3-.8-3.32-.4-4.93 0-.3-.5-.5-.6-.1-.4 1.8-.6 3.93.5 5.44.3.3.7-.1.5-.4z" stroke="#000" stroke-opacity="0" fill="#c2563e"/><path d="M307.25 4239.86c-.1-.6-.9-3.82-2.1-2.92-.1.1-.3.1-.4.2-.1 0-.2.1-.2.1v-.2h-.1l-1-.3-.5-.2-.1-.1c-1.1.8-11 16.6-11 16.6s-12.6-17.1-12.7-17.1c-.3-.1-1.2.2-1.8.4-.2.1-.5.2-.5.2-.2.1-.4.2-.6.2l-1.1.4-.4.2c-.5.2-1 .4-1.1.9v.1c0 .2 0 .4.1.72 0 .2.1.3.2.5.1.5.2 1 .4 1.5.3 1 .7 2.02 1 3.03.4 1.1.9 2.3 1.3 3.4 1.1 2.93 2.3 5.75 3.4 8.57 5.6 9.56-.9 10.77 25.1 7.14 1.4-4 .2 1.72.7-2.5.1-.6.1-1.2.2-1.82 0-1.1.1-2.3.1-3.52v-.8c.1-.8.1-1.62.1-2.42.1-1.7.1-3.42.3-5.13.1-.4.1-.7.1-1 .1-.8.3-1.5.4-2.3.1-.42.1-.72.2-1.12.1-.9.1-1.8 0-2.72z" stroke="#000" stroke-opacity="0" fill="#fff8f0"/><path d="M284.45 4265.63c-1.2-4.83-.5-2.12-1.6-6.55-.6-2.6-1.5-5.13-2-7.74-.2-.7-.3-1.52-.4-2.32-1.2-3.12-2.7-6.74-3.5-7.95-.8-1.1-1.7-2.62-1.8-4.03-.3 0-.5 0-.7.1-.3.1-.6.2-.9.2-.2.1-.5.2-.7.2-1.4.4-2.9.8-4.4 1.3-.2 0-.5.1-.7.22-1.1.3-2.1.7-3.1 1.1-2 .8-4 1.7-5.9 2.92-1.2.8-8.8 8.15-5.7 5.94 0 0 18 16.9 31.4 16.6zM321.75 4253.95c0-4.33-.2-8.86-4-11.67-3.8-2.92-8.4-4.73-13.1-5.84l-.3 1c-.5 1.92-.4 3.73-.7 5.64-.3 2.52-1.2 4.83-2 7.05-.4 4.83-.5 9.56-.8 14.3 12.9-2.43 20.9-9.77 20.9-10.48z" stroke="#000" stroke-opacity="0" fill="#456664"/><path d="M301.75 4250.93c.1 3.52 2.2 6.55 5 8.56 1.6 1.2 2.7 1.8 4.5 2.5.5.2-.1-.4.4-.4-.3-.3 1 .3.7 0-3.4-3.62-7.2-7.04-10.6-10.67zM316.55 4253.05c.3-2.82.6-6.04.2-8.86-1.5 1-2.7 4.92-3.1 6.53-1.1-3.42-2.9-7.85-5.5-10.47h-.1c.8 4.13 2 8.26 3.3 12.28.6 2.12 2.3 7.75 2.3 7.75l1.3-.3s1.3-5.04 1.6-6.95zM317.25 4252.24c-.3 2.62-1.7 6.14.1 6.14 1.1-2 2.6-3.12 2.6-5.44.1-1.7-.2-3.42-.8-5.03-.1-.4-1.1-2.6-1.7-3.5.3 2.6.1 5.32-.2 7.84zM310.55 4252.24c-1.1-3.72-2.2-7.45-3-11.27-1.2 4.32-.6 8.96 1.6 12.88-2.2-1.4-4.6-2.62-7-3.52-.1-.1-.1-.1-.2-.1 3.4 3.62 7.1 6.94 10.5 10.47.3.3-.3-.2 0 .1-.1-.4.7.1.5-.3-.8-2.72-1.5-5.54-2.4-8.26zM274.65 4253.45c-.1 0-.1 0-.1-.1-2.2-2.92-3.3-7.55-3.8-11.18-.6 1.52-2.5 5.34-4.1 6.04.1-2.9.8-6.02 1.6-8.64.1-.3.2-.5.2-.7 1.5-.5 3-.9 4.4-1.3.2 1.1.3 2.1.5 3.2.6 4.23 1.1 8.46 1.3 12.7zM267.75 4239.06c-.1.4-.3.8-.4 1.1-.6 2.42-1.2 5.14-1.3 7.75-.5-1-1.1-3.3-1.2-3.7-.3-1.32-.3-2.73-.2-4.04 1-.4 2-.8 3.1-1.1zM276.65 4240.66c-.7-1.1-1.4-2.3-1.5-3.62-.3 0-.5 0-.7.1-.3.1-.6.2-.9.2.1 1.3.3 2.62.5 3.83.5 3.92 1 7.75 1.2 11.68 1.9-4.13 2-8.76.4-13 .4.3.7.5 1 .8z" stroke="#000" stroke-opacity="0" fill="#232c44"/><path d="M303.55 4218.52c-.1 0-.2-.1-.3-.2 0-.1-.1-.1-.2-.1h-.2l-.2.2v.2l-.1.7-.2 6.95c0 .1 0 .1.1.2 0 .1 0 .1.1.1 0 .1.1.1.2.1h.2c.9-.4 2.7-1.5 2.7-4.02 0-1.7-1.2-3.22-2.1-4.13zM277.45 4219.02l-.1-1s-.1-.1-.1-.2c-.1 0-.1-.1-.2-.1h-.2c-.1 0-.1.1-.2.1l-.3.3c-.8 1-1.9 2.5-1.8 4.13.2 2.5 2 3.52 3 3.92h.2c.1 0 .1-.1.2-.1 0 0 .1-.1.1-.2v-.1l-.6-6.75z" stroke="#000" stroke-opacity="0" fill="#f2e7e1"/><path d="M276.15 4220.23c-.8.4-1 1.7-.8 2.52.2 1 1.5 1.5 1.8.3.1-.5.1-3.42-1-2.82zM303.95 4220.84c-1.2-.4-1 2.4-.9 2.9.4 1.22 1.7.72 1.8-.3.2-.9-.1-2.2-.9-2.6z" stroke="#000" stroke-opacity="0" fill="#a2c6f6"/><path d="M300.85 4235.73c0 .2 0 .4-.1.6 0 .4-.1.8-.2 1.1-.9 4.64-2.7 8.97-4.1 13.4-.9 2.52-1.5 5.14-1.9 7.85-.1.8-.2 1.6-.4 2.42l-.3-.1c-.3-.1-.4.4-.1.5l.3.1c-.2.5-.3 1.1-.6 1.6l-.6-.2h-.1c-.1 0-.1 0-.1.1h-.1v.1l-.1.1v.2c.1.32.2.72.4 1.02-.3.5-.5.9-.8 1.3h-.2s0 .1-.1.1c0 .1-.1.2-.1.3-.2-.6-.3-1.2-.5-1.9.2-.1.4-.3.6-.5.2-.2-.2-.6-.4-.3l-.3.3c-.1-.5-.2-1-.4-1.4l.6-.62c.3-.2-.1-.5-.3-.3-.1.1-.3.2-.4.3-.2-.9-.5-1.9-.8-2.82.3-.1.4-.3.6-.6.1-.2.1-.5.1-.7-.1-.3-.2-.5-.4-.7l-.6-.3h-.2-.2c-2.1-6.75-4.8-13.3-8.2-19.44-.2-.4-.6-1.1-.9-1.6-.2.1-.4.1-.4.2.2.3.5.9.6 1.2 3.5 6.24 6.3 12.9 8.5 19.83-.2.1-.4.3-.5.5-.1.2-.2.4-.2.7 0 .7.7 1.12 1.4 1.02.3 1.1.6 2.1.8 3.1-.3.3-.5.6-.8 1-.2.2.2.52.4.3.1-.3.4-.5.6-.7l.3 1.42c-.2.3-.3.5-.5.8-.2.2.3.4.4.2.1-.1.2-.3.3-.4.1.7.1.7.3 1.4 1.4 0 .4-.1 1.3-.1.2-.3.4-.7.6-1 0 .2.1.7.3.9.2.2.4.1.5 0 .4-.3.7-.7 1-1 .2-.3 1.1-1 .6-1.4-.3-.2-.8-.2-1.1-.3l-.5-.1.6-1.52.6.2c.3.1.4-.3.1-.4-.2-.1-.4-.2-.6-.2.2-.6.3-1.1.4-1.7.4-2.83 1-5.55 1.8-8.27 1.5-4.63 3.5-9.26 4.4-14.1 0-.3.1-.6.1-.9.1-.2.1-.3.1-.4l-.5-.2zm-12.4 22.35c0-.2 0-.3.1-.4 0-.2.1-.3.2-.4.2.5.3.9.4 1.4-.3 0-.7-.2-.7-.6zm1.2.4c-.1-.4-.3-.9-.4-1.3.7 0 .9.9.4 1.3zm3.4 5.03l.2.1c0 .12-.1.22-.1.32-.1-.1-.1-.2-.1-.4zm2 .52l-.7.7c-.1.1-.5.7-.7.9l-.3-1.1c.1-.3.2-.6.3-.8h.2c.2.1 1.2.2 1.2.3z" stroke="#000" stroke-opacity="0" fill="#fad3b1"/><path d="M290.55 4265.53c27.6 0 50-22.35 50-49.93 0-27.68-22.4-50.03-50-50.03s-50 22.35-50 50.03c0 27.58 22.4 49.93 50 49.93z" stroke="#6c6e83" fill-opacity="0"/><path d="M199.72 2919.9a6 6 0 0 1 6-6h148a6 6 0 0 1 6 6v68a6 6 0 0 1-6 6h-148a6 6 0 0 1-6-6z" stroke="#3a414a" fill="#fff"/><use xlink:href="#s" transform="matrix(1,0,0,1,211.72425424701225,2925.8913635142626) translate(0 35.444444444444436)"/><path d="M202.86 3052.45a6 6 0 0 1 6-6h1551a6 6 0 0 1 6 6v222.86a6 6 0 0 1-6 6h-1551a6 6 0 0 1-6-6z" fill="#e0e8f5"/><path d="M223.84 3046.45h15m7.48 0h15m7.48 0h15m7.48 0h14.98m7.5 0h14.98m7.5 0h14.98m7.5 0h14.98m7.5 0h14.98m7.5 0h14.97m7.5 0h14.98m7.5 0h14.98m7.5 0h15m7.48 0h15m7.48 0h15m7.48 0h14.98m7.5 0H576m7.5 0h14.98m7.5 0h14.98m7.5 0h14.98m7.5 0h14.97m7.5 0h15m7.5 0h14.97m7.5 0h14.98m7.5 0h14.98m7.5 0h14.98m7.5 0h14.98m7.5 0h14.98m7.5 0h14.98m7.5 0h14.98m7.5 0h14.98m7.5 0h14.98m7.5 0h14.97m7.5 0h14.98m7.5 0h14.98m7.5 0h15m7.48 0h15m7.48 0h15m7.48 0h14.98m7.5 0H1093m7.5 0h14.98m7.5 0h14.98m7.5 0h14.98m7.5 0h14.97m7.5 0h15m7.5 0h14.97m7.5 0h14.98m7.5 0h14.98m7.5 0h14.98m7.5 0h14.98m7.5 0h14.98m7.5 0h14.98m7.5 0h14.98m7.5 0h14.98m7.5 0h14.97m7.5 0h14.98m7.5 0h14.98m7.5 0h14.98m7.5 0h15m7.48 0h15m7.48 0h15m7.48 0h14.98m7.5 0H1610m7.5 0h14.98m7.5 0h14.98m7.5 0h14.98m7.5 0h14.97m7.5 0h15m7.48 0h15m7.48 0h7.5l.94.08.9.22.88.36.8.5.72.6.6.73.5.8.36.87.22.9.08.95v7.43m0 7.43v14.87m0 7.42v14.85m0 7.43v14.86m0 7.43v14.85m0 7.43v14.86m0 7.44v14.85m0 7.42v14.86m0 7.43v14.86m0 7.43v14.85m0 7.43v7.42l-.08.94-.22.92-.36.87-.5.8-.6.72-.72.6-.8.5-.87.36-.9.23-.94.07h-7.5m-7.5 0h-14.97m-7.5 0h-15m-7.5 0h-14.97m-7.5 0h-14.98m-7.5 0h-14.98m-7.5 0h-14.98m-7.5 0h-14.98m-7.5 0h-14.98m-7.5 0h-14.98m-7.5 0h-14.98m-7.5 0h-14.98m-7.5 0h-14.97m-7.5 0h-14.98m-7.5 0h-14.98m-7.5 0h-14.98m-7.5 0h-15m-7.48 0h-15m-7.48 0h-14.98m-7.5 0h-14.98m-7.5 0h-14.98m-7.5 0h-14.98m-7.5 0h-14.98m-7.5 0h-14.98m-7.5 0h-14.97m-7.5 0h-15m-7.5 0h-14.97m-7.5 0h-14.98m-7.5 0h-14.98m-7.5 0h-14.98m-7.5 0h-14.98m-7.5 0h-14.98m-7.5 0h-14.98m-7.5 0h-14.98m-7.5 0H988.1m-7.5 0h-14.98m-7.5 0h-14.97m-7.5 0h-14.98m-7.5 0H898.2m-7.5 0h-15m-7.48 0h-15m-7.48 0h-15m-7.48 0h-14.98m-7.5 0H785.8m-7.5 0h-14.98m-7.5 0h-14.98m-7.5 0h-14.98m-7.5 0H695.9m-7.5 0h-15m-7.5 0h-14.97m-7.5 0h-14.98m-7.5 0h-14.98m-7.5 0H583.5m-7.5 0h-14.98m-7.5 0h-14.98m-7.5 0h-14.98m-7.5 0H493.6m-7.5 0H471.1m-7.5 0h-14.98m-7.5 0h-14.97m-7.5 0h-14.98m-7.5 0H381.2m-7.5 0h-15m-7.48 0h-15m-7.48 0h-14.98m-7.5 0h-14.98m-7.5 0H268.8m-7.5 0h-14.98m-7.5 0h-14.98m-7.5 0h-7.48l-.94-.07-.92-.22-.87-.35-.8-.5-.72-.6-.6-.72-.5-.8-.35-.87-.22-.92-.07-.93v-7.42m0-7.43v-14.86m0-7.44v-14.85m0-7.42v-14.86m0-7.43v-14.86m0-7.43v-14.85m0-7.43v-14.85m0-7.43v-14.86m0-7.43v-14.86m0-7.43v-14.86m0-7.42v-7.43l.07-.93.22-.92.36-.87.5-.8.62-.72.7-.6.8-.5.88-.35.92-.22.94-.08h7.5" stroke="#2f3564" stroke-width="1.5" fill="none"/><path d="M626 3145.06a6 6 0 0 1 6-6h235.4a6 6 0 0 1 6 6v38.3a6 6 0 0 1-6 6H632a6 6 0 0 1-6-6z" stroke="#6c6e83" fill="#fff"/><path d="M666 3152.7h187.25v22.17H666z" fill="none"/><use xlink:href="#t" transform="matrix(1,0,0,1,666,3152.711382664502) translate(0 17.880208333333336)"/><use xlink:href="#u" transform="matrix(1,0,0,1,666,3152.711382664502) translate(37.852864583333336 17.880208333333336)"/><use xlink:href="#v" transform="matrix(1,0,0,1,666,3152.711382664502) translate(54.07682291666667 17.880208333333336)"/><use xlink:href="#w" transform="matrix(1,0,0,1,666,3152.711382664502) translate(126.02734375000001 17.880208333333336)"/><path d="M303.72 3163.46a19.58 19.58 0 0 1 19.6-19.58h235.34a19.58 19.58 0 0 1 19.6 19.58 19.58 19.58 0 0 1-19.6 19.58H323.3a19.58 19.58 0 0 1-19.58-19.58z" stroke="#6c6e83" fill="#fff"/><path d="M360.06 3151.88h198.2v23h-198.2z" fill="none"/><use xlink:href="#x" transform="matrix(1,0,0,1,360.0576870401785,3151.8817580878895) translate(0 17.880208333333336)"/><use xlink:href="#y" transform="matrix(1,0,0,1,360.0576870401785,3151.8817580878895) translate(62.69010416666667 17.880208333333336)"/><use xlink:href="#z" transform="matrix(1,0,0,1,360.0576870401785,3151.8817580878895) translate(137.61197916666669 17.880208333333336)"/><path d="M293.72 3212.85c27.6 0 50-22.3 50-49.98 0-27.56-22.4-49.98-50-49.98s-50 22.4-50 49.97c0 27.67 22.4 49.98 50 49.98z" stroke="#6c6e83" fill="#a2c6f6"/><path d="M293.72 3211.74c26.9 0 48.8-21.8 48.8-48.77 0-26.95-21.9-48.76-48.8-48.76-27 0-48.8 21.82-48.8 48.77 0 26.96 21.8 48.77 48.8 48.77z" stroke="#000" stroke-opacity="0" fill="#a2c6f6"/><path d="M314.62 3141.27c0-.2-.1-.4-.1-.6.2-.4.2-.82.2-1.22 0-1-.7-1.82-1.3-2.63-.7-1-1.4-2.02-2.2-2.82-.4-.4-.8-.8-1.2-1-.6-.32-1.1-.42-1.6-1.02-1-1.52-2.1-2.63-3.8-3.23-1.1-.4-2.3-.4-3.5-.3-.6-.7-1.7-1.12-2.8-1.12-.7-.1-1.5.2-2.3.1-.6-.1-1-.5-1.6-.6-1.2-.2-2.5.1-3.6.4-1.3.4-2.3 1-3.5 1.72-.7.4-1.4.2-2.2.3-.5 0-1 .2-1.5.4-1.8.8-2.9 2.43-3.4 4.24-1.2.1-2.2.6-3 1.4-1.4 1.42-1.4 3.04-1.3 4.86 0 .7 0 1.3-.2 1.9-.1.62-.3 1.12-.5 1.63-.3 1.1-.2 2.1 0 3.22l.9 5.76c-.4.9-.3 2.12.4 3.02.2.2.6.5.9.7.5.4 1 .92 1.4 1.53.5.8 1.1 1.6 1.8 2.32 3 2.93 7.3 3.84 11.4 3.53 2.5-.2 4.8-1 7.3-1.2 1.2-.1 2.4-.1 3.6-.3 1.1-.32 2.1-.72 3-1.23 3.6-1.7 6.9-4.84 7.3-8.98 0-.8 0-1.52.3-2.22.2-.5.5-1 .7-1.52.3-1.1-.3-2.42 0-3.63.2-1.1.5-2.22.4-3.43z" stroke="#000" stroke-opacity="0" fill="#33261a"/><path d="M315.22 3193.36c-3.6-2.22-8.8-3.13-10.6-7.37-.9-2.33-.5-5.16-.5-7.58v-7.37c0-.3-.4-.4-.5-.1-1 1.4-4 1.3-5.5 1.4-1.7.12-3.5.22-5.3.22-3.1 0-6.7.3-9.5-1.22 0-.4-.1-.7-.1-1.1 0-.3-.6-.3-.6 0 0 .4.1.7.1 1.1-.1 0-.1.1-.1.1 0 .1.1.2.1.2.1 1.12.1 2.23.2 3.34.2 2.92.3 5.84.3 8.77.1.9.1 1.92.1 2.83-.9 1.92-2.3 3.74-3.9 5.25-1.3 1.2-2.7 2.32-4.2 3.23-1.1.8-2.5 1.3-3.3 2.53v.2c0 .1.1.1.1.2 3.4 1.63 6.9 3.14 10.5 4.55 3.3 1.2 7.1 2.93 10.8 2.53 1.6-.2 2.9-.9 4.3-1.72 1.7-1 3.4-1.92 5.1-2.83.8-.5 1.6-.9 2.4-1.3 3.3-.2 6.5-1.12 9.5-2.53.6-.3 1.7-.6 2.1-1.2.8-1.02-.8-1.73-1.5-2.14z" stroke="#000" stroke-opacity="0" fill="#b86554"/><path d="M308.02 3165.6c.2-.8.3-1.62.5-2.53 0-.2 0-.3.1-.5l.3-1.52c0-.3.1-.6.1-.9.1-.8.2-1.52.4-2.22l.3-2.33c.9-6.56 1.4-12.32 1.2-12.82-.8-2.22-2.3-3.23-4-4.54-.3-.3-.6-.5-.9-.7-.3-.2-.5-.4-.8-.62-1.7-1.5-4.2-1.9-6.4-2-5.2-.22-10.2 0-14.8 2.5-.7.3-1.3.72-1.9 1.22-.1.1-.3.2-.5.3-.6.6-1.2 1.22-1.7 2.02-.5.7-.8 1.52-.9 2.43-.2 1.2-.1 2.4-.4 3.72v.2c-.2 1-.2 3.74-.1 6.97v2.3c.1.82.1 1.63.1 2.44.1.7.1 1.5.2 2.22v.6c.1.5.1.9.1 1.42.1.4.1.9.2 1.3.2 1.73.4 3.04.7 4.05.6 2.22 1.6 4.34 3 6.26 1.9 2.5 4.4 4.53 7.4 5.24 1.2.4 2.5.5 3.8.4.8-.1 1.6-.2 2.3-.4.5-.1 1-.2 1.5-.4 1.6-.4 3.1-1.22 4.4-2.23 1.8-1.4 3.2-3.32 4.1-5.54.6-1.5 1.2-3.84 1.7-6.36z" stroke="#000" stroke-opacity="0" fill="#b86554"/><path d="M312.52 3155.3c-.4-1.5-2.1-2.32-3.1-.8-.1.2.1.4.3.4-.8 1.4-1.3 3.03-1.8 4.64-.3 1.1-1.1 2.93-.8 4.14.5 2.12 3.3-.2 4-1 1.7-2.03 2-4.96 1.4-7.38zM276.02 3160.55c.5.9 3 3.53 3.8 1.5.4-1.2-.1-3-.3-4.23-.2-1.7.1-2.82-.5-4.34.2 0-.2-.6-.3-.9-.8-1.62-2.6-1.02-3.2.4-.9 2.42-1 5.35.5 7.57z" stroke="#000" stroke-opacity="0" fill="#b86554"/><path d="M303.02 3156.7c.1-.6.2-1.2.1-1.7 0-.3-.1-.6-.3-.8-.6-.62-1.3-.1-1.4.5-.3.8-.3 2.52.4 2.92.7.4 1-.1 1.2-.9zM286.82 3155.9c.1-.5.2-1.1.1-1.7 0-.3-.2-.5-.3-.72-.6-.6-1.3-.1-1.4.5-.3.82-.3 2.43.4 2.84.8.4 1.1-.1 1.2-.9z" stroke="#000" stroke-opacity="0" fill="#33261a"/><path d="M310.62 3156.1v-.1c0-.1 0-.1-.1-.2h-.2-.1c-.1 0-.1.1-.1.1-.1 0-.1.1-.1.1V3156.3l-.3 1.22c-.1.4-.5.9-.4 1.3 0 .22.1.32.2.42.2.4.3.7.3 1.1 0 .4-.4 1.72-1 1.42-.4-.1-.7.4-.3.5 1 .5 1.8-.9 1.9-1.8 0-.2 0-.5-.1-.72 0-.3-.4-.6-.4-.9-.1-.3.3-.9.4-1.22l.3-1.5zM278.52 3160.05c-1-.9-1.2-1.62-.4-2.23l.4-.4c.1-.2.1-.3.1-.5.1-1-.4-2.23-.7-3.24-.1-.3-.7-.2-.6.2.2.7.9 2.53.7 3.14-.2.6-.8.8-1 1.4-.2 1.02.4 1.83 1.3 2.13.4.1.5-.4.2-.5zM300.02 3179.74c-.3-.5-1.4-.2-3.1.5-2.6.9-6.2.1-8.6-1-1.9-.92-3.9-2.63-5.4-4.35.2 3.02.3 5.94.3 8.87h.6c1.2 0 2.4.6 3.6.7 1 0 1.8-.5 2.7-.7 1.2-.4 2.4 0 3.7-.2.9-.1 1.8-.6 2.6-1.1 1-.6 4.2-1.32 3.6-2.73zM296.72 3162.47c-.2-1.5-.4-3.13-.7-4.65-.1-.4-.7-.3-.6 0 .4 2.02.7 4.14.9 6.16 0 .7.3 1.22-.6 1.62-.6.3-1.5.2-2.1.1-.8-.1-1.4-.1-2.2-.1-.4.1-.4.7 0 .6 1.4-.1 4.6.9 5.4-.7.4-.8 0-2.22-.1-3.03z" stroke="#000" stroke-opacity="0" fill="#9c4736"/><path d="M281.62 3150.66c.1.6.8.8 1.4.8 1.4.2 2.9 0 4.3 0 .8 0 2.6.3 3.3-.3 1.5-1.2-1.5-2.02-2.3-2.12-1.4-.2-2.8-.2-4.2.1-.5.1-2.7.9-2.5 1.52zM305.62 3150.15c-1.3-.3-2.8-.4-4.2-.3-.7.1-3.8.7-2.3 2.02.6.6 2.4.4 3.2.4 1.5.1 2.9.3 4.4.3.5 0 1.2-.2 1.4-.8.3-.6-1.9-1.52-2.5-1.62z" stroke="#000" stroke-opacity="0" fill="#33261a"/><path d="M291.12 3169.34c-.6-.1-1.3-.3-1.9-.6-.1 0-1-.2-1.1-.4.2.6.9 1.3 1.3 1.8.9 1.2 1.7 1.62 3.1 1.72 1.6.1 3.5-.1 4.9-1 0 0 1.6-1.12 1.8-2.23-.1.2-2 .6-2.9.8-.8.1-3.4.2-5.2-.1z" stroke="#000" stroke-opacity="0" fill="#9c4736"/><path d="M321.62 3198.92l-.3-4.14v-.1h-.1l-4.3-1.82c-1.4-.6-7.2-2.12-7.2-2.12s-13 11.1-14.5 11.4c-1.6.3-15.4-10.6-15.4-10.6s-5.7 1.82-7.3 2.94c-2.9 2.12-2.1 5.75-1.9 8.78 2.4 14.64 49.9 12.12 51-4.34z" stroke="#000" stroke-opacity="0" fill="#fff8f0"/><path d="M274.22 3209.32s.3 1.3.7-1.2c.7-4.96 2.2-15.66 2.1-15.66-.2 0-.4 0-.5.1h-.1c-4.9 1.1-9.6 4.54-14.3 6.56-3.5 1.4-1.3 1.62-1.3 1.62l13.4 8.58zM329.02 3196.5c-1.7-1.32-3.6-1.92-5.6-2.53-2.5-.7-4.5-.9-6.9-1.6-.6-.22-3.3-.72-3.3-.72 0 6.26-1.2 18.38 0 17.67 8.5-4.85 16.6-10.1 15.8-12.83z" stroke="#000" stroke-opacity="0" fill="#456664"/><path d="M283.82 3210.63c-.5-1-1-2.02-1.3-3.13l-.1-.1c-.1 0-.1 0-.1-.1h-.2c0 .1-.1.1-.1.1-1 1-1.9 1.92-2.8 3.03-.2.3.2.7.5.4.7-.9 1.5-1.82 2.4-2.62.3.92.7 1.83 1.2 2.73.2.3.7 0 .5-.3zM310.12 3203.36c-.5-.9-1-1.72-1.5-2.52-.2-.3-.4-.6-.8-.5-.5 0-1 .7-1.3 1-.6.6-1.2 1.3-1.7 2.02-.2.3.2.7.5.4.6-.9 1.3-1.7 2.1-2.52.4-.3.3-.3.7-.1.2.2.3.6.5.8.3.5.7 1.12 1 1.72.2.3.7 0 .5-.3zM300.42 3212.95c-.5-.9-.9-1.9-1.4-2.72-.2-.2-.4-.5-.8-.4-.4 0-.9.8-1.1 1.1l-2 2.43c-.3.3.2.7.4.4.8-1 1.5-2.22 2.5-3.03.2-.2.1-.3.5-.1.1 0 .3.6.4.8l1 1.83c.2.3.7 0 .5-.3zM282.72 3197.6c-.3-.7-.7-1.5-1.1-2.2-.2-.42-.6-1.23-1.1-1.23-.5-.1-1 .6-1.3.9-.7.62-1.4 1.32-2 2.13-.3.3.2.7.4.4.4-.5.7-.9 1.1-1.2.3-.4.9-1.12 1.3-1.32.7-.3.9.4 1.2.9.4.62.7 1.22.9 1.83.2.4.7.2.6-.2z" stroke="#000" stroke-opacity="0" fill="#aeb5c2"/><path d="M311.82 3142.48c-.3-.7-.9-1.32-1.4-2.02-.7-.7-1.3-1.52-2-2.12-1.4-1.42-2.9-2.53-4.7-3.33-3.6-1.5-7.7-1.3-11.4-.6-2.1.5-4.2 1.1-6.3 1.82-1.7.6-3.5 1.1-4.9 2.22-3.5 3.03-2.5 8.18-3.4 12.1v.12h.1c.3 1.1.4 2.22.8 3.23.1.4.4.8.8.7.6-.3.6-1.52.7-2.03.1-1.1 0-2.22.3-3.33.4-1 .4-1.92.6-2.93.2-1.3.7-2.2 1.5-3.22 1.3-1.5 2.4-3.23 3.1-5.15.4.1.7.1 1.1.1.9 0 1.8 0 2.6.1 1.8 0 3.7.1 5.5.1 3.6.2 7.1.6 10.7 1.02h.1c2.4 1.1 2.1 4.84 2.4 7.06.2 1.53.4 3.04.8 4.56.1.8 0 1.6 0 2.42-.1.7-.3 1.4-.4 2.12 0 .3 0 .6.3.7.5.5.8-.3.9-.7.2-.5.4-1.1.6-1.72.3-.5.5-1.1.6-1.7.2-1.12.3-2.23.5-3.34.2-1 .3-2.12.5-3.13.1-1 .3-2 0-3.02z" stroke="#000" stroke-opacity="0" fill="#33261a"/><path d="M293.72 3212.85c27.6 0 50-22.3 50-49.98 0-27.56-22.4-49.98-50-49.98s-50 22.4-50 49.97c0 27.67 22.4 49.98 50 49.98z" stroke="#6c6e83" fill-opacity="0"/><path d="M300.55 3689.6a19.5 19.5 0 0 1 19.5-19.5h141a19.5 19.5 0 0 1 19.5 19.5 19.5 19.5 0 0 1-19.5 19.5h-141a19.5 19.5 0 0 1-19.5-19.5z" stroke="#6c6e83" fill="#fff"/><path d="M356.88 3678.1h100v22.98h-100z" fill="none"/><use xlink:href="#A" transform="matrix(1,0,0,1,356.8813310795451,3678.091334690278) translate(0 17.880208333333336)"/><use xlink:href="#B" transform="matrix(1,0,0,1,356.8813310795451,3678.091334690278) translate(43.677083333333336 17.880208333333336)"/><path d="M290.55 3739.9c27.6 0 50-22.4 50-50s-22.4-50-50-50-50 22.4-50 50 22.4 50 50 50z" stroke="#6c6e83" fill="#a2c6f6"/><path d="M290.45 3641.2c27 0 48.8 21.8 48.8 48.8 0 26.9-21.8 48.8-48.8 48.8-26.9 0-48.7-21.9-48.7-48.8 0-27 21.8-48.8 48.7-48.8z" stroke="#000" stroke-opacity="0" fill="#a2c6f6"/><path d="M305.25 3719.5c-3-4.6-4.6-10.6-4.3-15.9.1-1.1.2-2.3.5-3.4.1-.3-.2-.6-.4-.3-2.2 2.9-5.5 2.8-8.7 2.2-3.3-.6-6.7-1-9.9-2.1.1-.5.1-.9.1-1.4 0-.3-.5-.4-.5-.1-.1.5-.1.9-.1 1.4-.2.1-.3.4-.1.5v2.1c-.1 1.8-.1 3.6-.2 5.4 0 1.2-.2 2.4-.5 3.5-.4 1.6-1.1 3-2 4.3-1.7 2.2-4.2 3.6-6.1 5.6-.2.2-.1.4.1.4 2.4 1.5 5 2.5 7.7 3.3 3 .9 5.7 1.8 8.8 1.2 1.4-.4 2.8-.8 4.3-1 1.4-.2 2.8-.3 4.2-.6 1.4-.3 2.8-.8 4.2-1.4.6 0 1.2 0 1.7-.1.7-.1 2-.3 2.3-1.1.3-.8-.7-1.8-1.1-2.5z" stroke="#000" stroke-opacity="0" fill="#fea689"/><path d="M307.25 3683.9c-.1.4-.6.1-.5-.2.2-.4.3-.7.5-1.1-1 .7-2.7.7-3.6 1.2-1.1.5-1.4 1.5-2.2 2.3-.7.7-1.6 1.2-2.5 1.7-6 3.4-13.4 4.2-19.9 1.9-1.4-.4-2.8-1.1-3.8-2.2-.5-.6-.8-1.3-.9-2-.1-.7-.1-1.4-.1-2-.1-1.3-.4-2-1.3-2.9-.4-.3-.8-.6-1-1.1-.3-.8-.2-1.6-.1-2.4l-.9-.9c-1-1.3-1.4-2.8-.9-4.8.4-1.3.8-2.7 1.6-3.8.4-.7 1.2-1.1 1.4-1.9.3-1 .1-2.1 0-3.1-.1-2.9.6-5.4 3.3-6.9 1.3-.8 2.8-1.1 4.2-1.1 1.1-1.1 2.4-2.2 5.5-2.6 3.1-.4 10.5 2.3 10.5 2.3 3.1-1.1 6 2.2 6.9 5.3 1.7 0 3.3.9 4.6 1.8.7.6 1 1 1 1.8 0 1.5 1 2.3 1.2 3.7.2 1.2-.3 2.2-.6 3.3-.6 1.9-.1 3.5-.1 5.3 0 3-1.2 5.8-2.3 8.4z" stroke="#000" stroke-opacity="0" fill="#db6e56"/><path d="M282.05 3674.6c-.5.2-.9.5-1.4.7-.2.1-.3.2-.4.2-.1 0-.1.1-.2.1-.1.1-.3.1-.4.1-.1.1-.1.1-.2.1-.2.1-.3.1-.5.2h-.2c-.1 0-.3.1-.4.1H277.45c-.1 0-.2-.1-.3-.1h-.1-.1c-.6-.2-1.2-.6-1.8-.8-.2-.1-.5-.2-.8-.2-1 .1-1.5 1.2-2.5 1.3-.3 0-.6-.1-.9-.2.3.4.6.7.9 1-.1.8-.2 1.6.1 2.3.2.6.6.9 1 1.2.7.7 1.1 1.4 1.2 2.4 0 .1.1.3.1.5 0 .6 0 1.3.1 2 .2 0 .3-.1.4-.1.5-.1 1-.3 1.4-.5l.6-.3.1-.1c.7-.4 1.2-1 1.6-1.6.3-.5.5-1 .7-1.5.1-.2.2-.5.3-.8.2-.5.4-1.1.6-1.6.3-.5.6-1.1 1-1.6.6-.8 1.2-1.5 1.4-2.6v-.1c0-.1-.1-.1-.1-.1-.1-.1-.1-.1-.2-.1 0 0-.1 0-.1.1z" stroke="#000" stroke-opacity="0" fill="#c2563e"/><path d="M289.75 3708.5c4.9 1.2 9.2-1.5 11.8-5.8 1.2-2 2.8-4.9 3.4-7.1.9-4 1.4-8.1 1.9-12.2.3-2.4.5-4.8.8-7.2.1-1.1.2-2.3-.1-3.4-.5-1.2-1.5-2.1-2.4-2.9-1.3-1-2.5-2.1-3.9-2.9-2.9-1.4-6.2-1.4-9.4-1.2-3.6.3-7.3.9-10.4 2.8-1.7 1-3.1 2.3-3.8 4.1-.6 1.4-.6 2.9-.7 4.3-.2 5.5-.3 11.1 1 16.5 1.4 5.6 4.6 12 10.2 14.5.5.2 1 .4 1.6.5z" stroke="#000" stroke-opacity="0" fill="#fea689"/><path d="M309.35 3683.7c-.3-.6-.8-1.5-1.5-1.7H307.15c-.3.1-.5.2-.7.4-.7.5-1.4 1.4-1.9 1.8-.2.3.3.6.5.4l.1-.1c-.3.6-.6 1.3-.8 2-.1.2-.2.4-.2.6-.6 1.7-.8 3.6-.8 5.4.1 1.9 1.5 1.4 2.7.5.6-.4 1.2-.9 1.8-1.5 1.6-1.8 2.7-5.6 1.5-7.8zM278.95 3689.7c.2-1.9 0-3.8-.4-5.6v.1c.2.3.7.1.5-.2-.1-.3-.3-.7-.6-1.1-.3-.5-.6-1-1-1.4l-.6-.3h-.3-.2c-.7 0-1.4.7-1.8 1.2-.1.2-.3.4-.4.6-1.2 2.1-.9 5.5.3 7.4.5.9 2.4 3.5 3.5 2.9.3-.1.5-.4.6-.9.2-.9.3-1.8.4-2.7z" stroke="#000" stroke-opacity="0" fill="#fea689"/><path d="M300.05 3685.4c.1-.6.2-1.2.1-1.7 0-.3-.1-.6-.3-.8-.5-.6-1.1-.1-1.3.5-.3.7-.4 2.3.3 2.8.7.4 1-.1 1.2-.8zM285.35 3685c.1-.6.1-1.1 0-1.7 0-.2-.2-.5-.3-.7-.6-.5-1.2 0-1.4.6-.2.7-.1 2.3.6 2.7.7.3.9-.2 1.1-.9z" stroke="#000" stroke-opacity="0" fill="#232c44"/><path d="M307.75 3688.6c0-.6-.5-1-.5-1.6-.1-.7.3-1.7.4-2.3.1-.4-.5-.5-.6-.1-.1.7-.5 1.8-.4 2.6 0 .1.1.2.1.4.1.2.3.4.4.6 0 .8-.3 1.2-.8 1.1-.4.1-.3.6.1.6.7-.1 1.3-.4 1.3-1.3zM277.05 3689.7c-1.4-.9-.3-1.8-.1-2.9.1-.9-.3-1.8-.2-2.7 0-.3-.6-.4-.6-.1 0 .7.1 1.3.2 1.9.1 1-.3 1.4-.6 2.2-.2.8.2 1.6.9 2 .3.2.7-.2.4-.4zM291.55 3694.8c-.8-.4-1.9-.9-2.4-1.7-.9-1.3.2-2.2.8-3.1.8-1.4 1.5-2.8 1.8-4.3.1-.4-.4-.5-.5-.1-.4 1.4-.9 2.7-1.6 3.9-.5.7-1.3 1.5-1.4 2.4-.3 1.7 1.7 2.8 3 3.4.4.2.6-.4.3-.5zM291.55 3698c-1.8-.1-5.4-1.2-5.4-1.2s1.8 2 3.4 2.7c1.1.6 2.4.8 3.6.4 1.4-.6 3.5-3.1 3.5-3.1s-3.2 1.2-5.1 1.2z" stroke="#000" stroke-opacity="0" fill="#f2815c"/><path d="M286.35 3677.8c-1.2-.2-2.5 0-3.7.4-.7.2-1.3.5-1.9.9h-.2c-.4.3-1.3.8-1.2 1.3 0 .1.2.2.3.2.1.1.2.1.3.1.7.2 1.3.2 2 .2 1.6-.2 3.1-.6 4.7-.5.7.1 2.4.2 2.5-.9.1-1.2-1.9-1.6-2.8-1.7zM301.65 3678c-1.2-.4-2.5-.5-3.7-.4-.9.2-2.9.6-2.8 1.8.2 1.4 2.8.7 3.6.8 1.2 0 2.4.3 3.6.5.7 0 2 .2 2.5-.4.7-.8-2.6-2.1-3.2-2.3z" stroke="#000" stroke-opacity="0" fill="#db6e56"/><path d="M308.35 3677.2c.1-2.2-.2-4.4-1.2-6.3-1.3-2.7-3.7-5.1-6.4-6.5-.3-.2-.6-.3-.9-.5-1.1-.5-2.3-.9-3.5-1-.8-.2-1.6-.2-2.4-.1-.4.1-.7.1-1.1.2-1.2.2-2.4.6-3.5 1-2.6.9-5.2 1.9-7.6 3.1-1 .6-2.2 1.1-3.1 1.9-.9.8-1.4 2-2 3-.5 1-1.3 2-1.5 3.2v.4c-.1 1.4 1.4 2.6 1.1 3.9 0 0-.1 0-.1.1-.1.1-.1.1-.1.2.1.3.1.9.3 1.4.1.1.1.2.2.3.1 0 .2.1.3.2h.3c.1 0 .2-.1.3-.2.2-.2.3-.6.4-.8.5-1.4.5-2.8.6-4.2v-.1c.8-.1 1.5-.4 2-1 .1 0 .1 0 .2-.1.2-.3.5-.6.7-.9.2-.4.4-1.4.8-1.8.1-.1 1.5-.3 1.7-.3.3 0 .7.2 1.1.2.5.1 1 .1 1.5 0 1-.3 1.5-.8 2-1.5.3-.3.7-.9 1.2-1.1.3-.1.8.1 1.2.1.6.1 1.1 0 1.7 0 1.5-.3 2.4-1.4 3-2.7 1.6.4 3.4 1.4 4.9 2 1.7.8 3.5 1.6 5.1 2.6.1 0 .1.1.1.1v8.7c0 .4-.1 1.7.3 2.4.1.2.2.3.3.3.1.1 1.5-1.7 1.6-2.2.3-1.3.5-2.6.5-4z" stroke="#000" stroke-opacity="0" fill="#db6e56"/><path d="M279.75 3687.7h-.5c-.3.2-.1.7.2.6h.2c.1-.1.2-.1.2-.2v-.1-.1-.1c-.1 0-.1 0-.1-.1zM281.15 3691.4c0-.1-.1-.1-.2-.1 0 0-.1 0-.1.1-.1-.1-.2-.1-.2 0-.1 0-.1 0-.2.1v.2c.1.1.1.2.2.2h.3c.1 0 .2-.1.3-.1v-.1-.1-.2h-.1zM282.65 3689.9h-.2c-.4 0-.5.5-.1.6h.2c.3.1.4-.5.1-.6zM285.45 3688.1l-.2-.1c-.3 0-.4.5-.1.6h.2c.4.1.5-.5.1-.5zM285.45 3690.3l-.1-.1c-.3-.2-.6.2-.3.5.3.2.7-.2.4-.4zM281.65 3687.6h-.1c-.4-.1-.5.5-.1.5h.1c.1.1.1 0 .2 0 .1-.1.1-.1.1-.2v-.2c-.1-.1-.1-.1-.2-.1zM301.65 3688.5h-.4c-.1.1-.1.1-.1.2v.2c.1.1.1.1.2.1l.2.1c.1 0 .1 0 .2-.1.1 0 .1-.1.1-.2v-.2c-.1 0-.1-.1-.2-.1zM303.95 3687.5h-.1c-.1 0-.2 0-.2.1-.1 0-.1.1-.2.1 0 .1 0 .2.1.2 0 .1.1.1.2.2h.1c.3 0 .4-.5.1-.6zM298.85 3687.7c-.2-.1-.3-.1-.5-.1-.4 0-.3.6 0 .5h.1v.1c.3.2.7-.3.4-.5zM299.35 3690.3l-.2-.1s-.1 0-.2.1c0 0-.1.1-.1.2 0 0 0 .1.1.2l.1.1h.2c.4.1.5-.5.1-.5zM302.05 3691.6h-.1c-.1 0-.2 0-.2.1-.1 0-.1.1-.2.1 0 .1 0 .2.1.3 0 0 .1.1.2.1h.1c.4.1.5-.5.1-.6zM303.55 3690.2h-.2c-.3-.1-.4.5 0 .6h.1c.1 0 .2 0 .2-.1.1 0 .2-.1.2-.1 0-.1 0-.2-.1-.3 0 0-.1-.1-.2-.1zM297.15 3689.9h-.2c-.3-.1-.4.4-.1.5h.2c.3.1.4-.5.1-.5z" stroke="#000" stroke-opacity="0" fill="#f2815c"/><path d="M280.25 3675.5l-.2.1c-.1.1-.3.1-.4.1l-.2.1c-.2.1-.3.1-.5.2h-.2c-.1 0-.3.1-.4.1H277.45c-.1 0-.2-.1-.3-.1h-.1-.1c-.6-.2-1.2-.6-1.8-.8v.4c-.1 1.4 1.4 2.6 1.1 3.9 0 0-.1 0-.1.1-.1 0-.1.1-.1.2.1.3.1.9.3 1.3.1.2.1.3.2.3l.3.3h.3c.1 0 .2-.1.3-.2.2-.2.3-.6.4-.8.5-1.4.5-2.8.6-4.2v-.1c.8-.1 1.5-.4 2.1-1l.1-.1c-.2.1-.3.2-.4.2zM302.85 3660.2c-.4.5-.5 1-.7 1.6-.2.6-.4 1.3-1 1.8-.5.3-1 .2-1.6.4-.4.1-.8.3-1.1.6-.9.9-.6 2.2-2.5 1.6-.4-.1-.5.5-.1.6.6.1 1.5.2 2-.2.4-.3.4-.9.7-1.3.5-.7 1.2-.7 2-.9 2.1-.5 1.6-2.4 2.8-3.9.2-.2-.2-.6-.5-.3zM294.25 3663c-1.5-.7-3.1-1.4-4.8-1.3-1.7 0-2.7.8-4 1.7-1.1.8-2 .3-3.1.2-.7 0-1.5.1-2.1.4-1.3.5-2.6 1.3-3 2.7-.1.4.5.5.6.1.5-2 3.3-2.8 5.1-2.5 1 .1 1.6.4 2.5-.2 1.3-.8 2.1-1.7 3.6-1.9 1.8-.1 3.5.6 5 1.3.3.2.6-.3.2-.5zM283.65 3661.2c-2-1.5-5.4-1-7.2.5-.3.3 0 .7.3.5 1.6-1.4 4.8-1.9 6.5-.5.3.2.7-.2.4-.5z" stroke="#000" stroke-opacity="0" fill="#c2563e"/><path d="M297.85 3706.4c-.4-.1-1.2.3-1.6.4-.8.3-1.5.6-2.4.7-1.5.1-3.1.3-4.5 0-3-.5-5.3-2.6-7.3-4.7-.1-.1-.2-.2-.2-.3-.1 1.8-.1 3.6-.2 5.4 0 1.2-.2 2.4-.5 3.5h.5c1.1.1 1.9.4 2.9.8.9.4 1.6.3 2.5-.1.9-.5 1.4-.8 2.5-.7.5 0 1.1.2 1.6.2 1.3 0 2-1 3-1.7 1.2-.9 2.3-1.4 3.2-2.7.1-.2.7-.8.5-.8z" stroke="#000" stroke-opacity="0" fill="#f2815c"/><path d="M276.75 3714.6s2.8-4.6 3.4-4.7c.5-.2 7.9 5.7 8.2 6.7.4 1 2.4 9 2.4 9s2.2-9.1 2.6-9.5c.4-.5 9.3-6.7 10.3-6.1 1 .6 3.4 6.6 3.4 6.6s-13.6 13.2-13.9 13.2c-.2 0-12.5-6.9-12.9-7.6-.4-.6-3.5-7.6-3.5-7.6z" stroke="#000" stroke-opacity="0" fill="#fff"/><path d="M330.45 3719.7c-1.6-.7-3.4-1.4-5.1-1.9-1.8-.4-3.5-.5-5.2-.9-1.4-.4-2.6-1-3.9-1.5-4.1-1.9-8.2-3.1-12.5-.9-2.3 1.1-4 3-5.9 4.6-2.2 1.8-4.6 3.4-7.1 4.7l-7.2-5.6-3.7-2.8c-.9-.7-1.8-1.7-2.9-2-2-.5-4.7.8-6.4 1.5-2.5 1-4.9 2.2-7.6 2.7-2.6.4-5.3.4-7.9.9-1.4.4-2.8.8-4.1 1.3 33.5 38.5 75 11.6 79.5-.1z" stroke="#000" stroke-opacity="0" fill="#6b3939"/><path d="M277.35 3713.6s4 12.5 5.4 12.6c1.3.2 5.4-5.5 5.4-5.5s-4-5.3-4.4-5.5c-.5-.1-6.4-1.6-6.4-1.6zM292.95 3720.1s2.4 6.1 3.4 6.2c1.1.1 9.5-12.6 9.5-12.6s-2.9-.1-3.5.2c-.7.4-9.4 6.2-9.4 6.2z" stroke="#000" stroke-opacity="0" fill="#fff"/><path d="M294.35 3725.2c-1.1 1.1-2.4 3-4.1 2.2-1.3-.6-3.2-1.4-3.9-2.6-.2-.3-.7 0-.5.3.5.8 1.3 1.3 2.1 1.7.9.6 2 1.4 3.1 1.5 1.4.3 2.9-1.8 3.8-2.7.3-.3-.2-.6-.5-.4z" stroke="#000" stroke-opacity="0" fill="#452222"/><path d="M288.05 3719l-.6 2c-.1.4.5.5.6.1l.6-2c.1-.3-.5-.4-.6-.1zM294.05 3720.7c-.2-.6-.4-1.3-.4-2 0-.4-.5-.3-.5.1 0 .7.1 1.4.3 2.1.2.4.7.2.6-.2z" stroke="#000" stroke-opacity="0" fill="#f2e7e1"/><path d="M290.55 3739.9c27.6 0 50-22.4 50-50s-22.4-50-50-50-50 22.4-50 50 22.4 50 50 50z" stroke="#6c6e83" fill-opacity="0"/><path d="M990.3 3452.27v-47.1M990.3 3452.25v.77M990.3 3405.2v-.77" stroke="#6c6e83" stroke-width="1.5" fill="none"/><path d="M1022.2 3408.72a6 6 0 0 1 6-6h336.1a6 6 0 0 1 6 6v38.3a6 6 0 0 1-6 6h-336.1a6 6 0 0 1-6-6z" stroke="#6c6e83" fill="#fff"/><path d="M1054.08 3416.37h294.54v23h-294.54z" fill="none"/><use xlink:href="#C" transform="matrix(1,0,0,1,1054.0765128724843,3416.3729311753596) translate(0 17.880208333333336)"/><use xlink:href="#D" transform="matrix(1,0,0,1,1054.0765128724843,3416.3729311753596) translate(85.52213541666667 17.880208333333336)"/><use xlink:href="#E" transform="matrix(1,0,0,1,1054.0765128724843,3416.3729311753596) translate(188.73567708333334 17.880208333333336)"/><path d="M300.6 3430.93a19.5 19.5 0 0 1 19.5-19.5h141a19.5 19.5 0 0 1 19.5 19.5 19.5 19.5 0 0 1-19.5 19.5h-141a19.5 19.5 0 0 1-19.5-19.5z" stroke="#6c6e83" fill="#fff"/><path d="M356.3 3419.72h111.3v22.42H356.3z" fill="none"/><use xlink:href="#A" transform="matrix(1,0,0,1,356.2917015163602,3419.7210974731433) translate(0 17.880208333333336)"/><use xlink:href="#z" transform="matrix(1,0,0,1,356.2917015163602,3419.7210974731433) translate(43.677083333333336 17.880208333333336)"/><path d="M290.6 3476.9c27.6 0 50-22.4 50-50 0-27.63-22.4-50.04-50-50.04s-50 22.4-50 50.03c0 27.6 22.4 50 50 50z" stroke="#6c6e83" fill="#a2c6f6"/><path d="M290.6 3377.96c26.9 0 48.7 21.9 48.7 48.82s-21.8 48.83-48.7 48.83c-26.9 0-48.7-21.9-48.7-48.82 0-26.9 21.8-48.82 48.7-48.82z" stroke="#000" stroke-opacity="0" fill="#a2c6f6"/><path d="M311.3 3430.4c-.6-3.22-.4-6.42-.6-9.62-.3-2.6-.7-5.2-1.3-7.8-.5-2.4-.4-4.9-.9-7.3-.9-4.1-2.3-9.3-6.1-11.4-1.1-.6-2.3-.9-3.5-1-1.3 0-2.5.3-3.6.8 0 0-10.7-3.4-18.2 1.8-2.4 1.6-3.6 5.9-4.7 8.4-2.3 4.7-1.8 9.7-1.9 14.8-.2 3-.8 5.5-2.2 8.3-1 2-1.2 3.8-.6 6 .4 1.5.7 2.9.3 4.4-.4 1.2-1 2.3-.9 3.6 0 1.9 1.4 3.5 2.8 4.6.9.7 1.8 1.2 2.7 1.82-.5.7-.8 1.5-.1 1.9 1.7 1.1 3.7 1.7 5.7 2.3 2.3.7 4.6 1.4 7 1.9 4.4.9 12.7-.8 18.5-2.4h.1c1.9 0 4.2-.2 5.8-1.2 1.7-1 2.5-3.1 2.8-4.9.8-4.8-.2-10.3-1.1-15z" stroke="#000" stroke-opacity="0" fill="#b06d51"/><path d="M309.5 3449.5c-.1-1.5-.3-3.1-.4-4.6-.2-1.2-.2-2.5-.7-3.6-.4-.8-.9-1.3-1.1-2.3-.2-.9-.2-1.7-.3-2.6-.1-1.8-.2-3.6-.4-5.4-.3-3.72-.5-7.42-.8-11.22 0 0 0-.1-.1-.1 0-.1-.1-.1-.1-.1-.1-.1-.1-.1-.2-.1 0 .1-.1.1-.1.1-1.9 1.8-4.2 3-6.5 4.1-2.9 1.4-5.4 2.3-8.6 1.3-2.7-.9-4.9-2.6-7.4-3.9-1.1-.5-3.6-2-4.7-.9-.6.6-.8 1.8-1.2 2.5-.5 1-1.1 2-1.7 2.9-1.2 1.7-2.2 3.4-2.5 5.5-.1 1.4 0 2.9-.7 4.3-.6 1.1-1.5 1.9-2 3.1-.8 1.6-1.1 3.5-.9 5.3v.2c0 .1 0 .1.1.2v.3c.1.2.3.3.5.1.4.8.6 2.6.8 3.12.5 1 1.1 1.9 1.9 2.7 1.8 2 4.3 3.2 6.8 4.3 2.4 1 4.8 2 7.5 2.3 3 .3 5.8 1.6 8.8 1.8 2.9.3 5.8.1 8.7.5 2.1.3 4.2 0 5.1-2.2.9-2.3.4-5.2.2-7.6z" stroke="#000" stroke-opacity="0" fill="#8f5238"/><path d="M302 3427.28c0-.2-.3-.4-.5-.2-.4.5-.7 1.2-1.2 1.6-.5.5-1.2.8-1.8 1-1.6.6-3.3 1-5 1.3-1.5.2-3.1.2-4.6.1-1-.1-1.9-.1-2.8.2 0-.4-.1-.7-.1-1.1 0-.4-.6-.4-.5 0 0 .4 0 .9.1 1.3-.3.2-.2.5 0 .6.1.6.1 1.2.1 1.9.1.3.1.6.1.9l.3 6.9v.2c0 2 .1 4.1 0 6.1-.3.72-.6 1.5-.3 2.02.3.4 1.1.4 1.6.5l2.8.3c3.9.2 7.9-.4 11.6-1.7.1 0 .1-.1.2-.1v-.2-21.62z" stroke="#000" stroke-opacity="0" fill="#ffa894"/><path d="M302.3 3403.18c-1.1-.7-5-.2-6.2-.1-2.1.3-4.1.7-6.1 1-4.6.8-8.4 1.4-12.7 3.1-.1 0-.2.1-.3.2v.3l-.1.1v.1c.5 5.5 1.8 15.9 4.5 21.6 1.4 3.1 5.2 6.6 8.4 7.9 6.7 2.7 10.2-1.3 13.1-6.2 3.3-5.8 2.4-11.8 1.4-18-.2-1.7-1-9.2-2-10z" stroke="#000" stroke-opacity="0" fill="#ffa894"/><path d="M299.1 3416.68c0-.5-.1-1.1-.2-1.6-.1-.3-.2-.5-.4-.7-.6-.4-1.2.2-1.3.8 0 .7.2 2.2.9 2.5.7.3.9-.3 1-1zM285.4 3418.78c0-.6-.1-1.1-.3-1.6-.1-.3-.2-.5-.4-.7-.6-.4-1.1.2-1.2.8-.1.7.2 2.2.9 2.4.8.3.9-.2 1-.9z" stroke="#000" stroke-opacity="0" fill="#232c44"/><path d="M307.1 3413.98c-.7-1.7-2-1.4-2.9-.4h-.2s-.1 0-.1.1c-.2.3-.4.6-.5 1v.1c-.2.7-.2 1.5-.1 2.3.1 1.7.4 3.4.7 5.1.4 2.7 2.1.1 2.8-1 1.3-2 1.3-5 .3-7.2zM277.6 3425.08c1 .9 3.3 3 3 .3l-.6-5.1c-.1-.8-.3-1.6-.7-2.3h-.1c-.2-.4-.4-.6-.7-.9 0 0-.1 0-.2-.1l-.1.1c-1.1-.7-2.5-.7-2.7 1.1-.4 2.4.3 5.3 2.1 6.9z" stroke="#000" stroke-opacity="0" fill="#ffa894"/><path d="M306 3418.28c-.1-.5-.3-.6-.6-1-.3-.6 0-1.5 0-2.1.1-.4-.5-.4-.6 0 0 .5-.3 1.6-.1 2.2.1.2.3.2.4.4.6.6.4 1.5-.3 2-.3.2 0 .7.3.5.7-.5 1.1-1.2.9-2zM279.3 3423.28c-.3-.2-.7-.5-.8-.9-.1-.5.1-.8.3-1.2 0-.1.1-.2 0-.4 0-.3-.3-.7-.4-1-.3-.5-.5-1-.8-1.5-.1-.4-.6-.1-.5.3.3.6.9 1.3 1 2 .1.4.1.2 0 .6-.1.3-.2.4-.2.7-.1.8.4 1.5 1.1 1.9.4.2.7-.3.3-.5z" stroke="#000" stroke-opacity="0" fill="#f7886d"/><path d="M287.1 3412.88c-1.1-.7-2.6-.4-3.7 0-1.2.3-2.5 1.3-2.8 2.4-.1.1-.1.2 0 .2 0 .1 0 .2.1.2.3.2.3.1.6.1.9-.2 1.7-.8 2.5-1 .8-.3 1.6-.4 2.4-.5.4 0 1 0 1.3-.3.4-.4 0-.9-.4-1.1zM294.4 3412.68c.4.2.9 0 1.3-.1.8-.2 1.6-.3 2.4-.4.9 0 1.8.3 2.6.2.4-.1.4 0 .7-.3v-.2-.2c-.8-1-2.3-1.4-3.5-1.4-1.2.1-2.8.2-3.6 1.2-.3.4-.4.9.1 1.2z" stroke="#000" stroke-opacity="0" fill="#b06d51"/><path d="M301 3434c-2.2 2.1-4.1 3.8-6.7 4.1-1.5.1-6.3-1.4-8.5-3.2l.3 6.9c.3 0 .6.1 1.5.2.5.1.9.2 1.5.1 1.3-.3 2.2-.9 3.7-.6.7.1 1.4.3 2.2 0 .5-.2.9-.5 1.3-.9.8-.8 1.5-1.5 2.4-2.2 1.3-.9 1.4-1.4 2-2.9.1-.3.5-1.6.3-1.5z" stroke="#000" stroke-opacity="0" fill="#f7886d"/><path d="M297.1 3427.6c-.6 0-7.8 1.2-8 1.1-.1 0-.2.1-.2.2.2.6 1.2 1 1.8 1.2.9.3 1.9.3 2.8.2.8-.1 1.5-.4 2.2-.7.7-.4 1.3-1.1 1.5-1.9v-.1h-.1z" stroke="#000" stroke-opacity="0" fill="#fff"/><path d="M321.1 3467.2c3.3-2.3 5.9-4.9 5.8-8.4v-.1c0-.2 0-.4-.1-.6-.4-2.6-.8-5.1-2.4-7.2-.8-1-1.7-1.9-2.8-2.6-.1-.1-.3-.1-.4-.2-.2-.1-.4-.2-.6-.4-.4-.2-.7-.3-1.1-.5-2.6-1.1-7.8-2.2-10.8-2.7-.3-.1-.6-.1-.9-.2h-.4c-.4-.1-.7-.1-.9-.1-.1-.1-.2-.1-.2 0-.6-2.6.9-6.6-2.7-6.3-1.7.1-2.8 1.6-4.4 2.1-1.2.4-6.9.1-8 .2-2.6.2-3.3-.2-5.8-1.2-1.1-.5-2.5-1-3.1.5-.2.6-.2 1.2 0 1.8.3 1 .5 1.8.5 2.7-.2 0-.4-.1-.6-.2h-.2l-.9-.3h-.1c-.3 0-.6-.1-.8-.1-1.2-.2-2.4-.2-3.6-.4-.5-.1-1.1-.3-1.6-.4-1.4 1.7-3 2.8-5.2 3.4-.5.1-1 .2-1.6.4h-.1l-.9.6c-.3.2-.5.4-.8.5l-.4.4c-.6.5-1.2 1-1.7 1.6-.2.2-.8.7-.8 1l.3-.4c-.1.1-.2.3-.4.5l-1.2 2.1-1.2 2.4c0 .1 0 .1-.1.2-.1.4-.3.7-.4 1.1-.5 1.3-1 2.7-1.6 4.1 0 1.6-.7 3.2.3 4.8 7.2 10.4 37.5 19 61.9 1.9z" stroke="#000" stroke-opacity="0" fill="#fad3b1"/><path d="M293.7 3424.68c-.3.1-1.1.2-1.5.1-.8-.2-.7-1-.7-1.7-.1-.9-.1-1.8-.1-2.7.1-.4-.5-.4-.6 0 0 .9 0 1.8.1 2.7 0 .5 0 1.1.2 1.6.5 1.1 1.9.7 2.8.6.4-.1.2-.6-.2-.6z" stroke="#000" stroke-opacity="0" fill="#f7886d"/><path d="M330.8 3456.5c.8-4.8-9.2-8.2-9.2-8.2-.8 1-13 17-13.8 17.9-.2.3.3 1.4 2.3 7.1.3.9 20.1-12.5 20.7-16.8zM277.1 3475.3c2-5.6 3.3-9.7 3.1-10-.8-.8-13.1-16.9-13.8-17.8v-.1s-12.4 7.6-12.4 13.7c9.8 9.7 15.9 11 23.1 14.2z" stroke="#000" stroke-opacity="0" fill="#fad3b1"/><path d="M320.6 3447.8c-.1.2-.2.4-.2.6-.6 1.7-.8 3.4-2.9 3.9-1.6.4-3.3-.1-4.9-.4-.9-.1-1.8-.3-2.7.1-1 .5-1.7 1.6-2.5 2.4-1.1 1.1-2.4 2.2-4.1 2.5-3.1.6-4.6-2.7-7.5-3.2-2.7-.3-5.3 1.1-8 1.1-1.7.1-4-.2-4.9-1.7-.5-.9-.2-1.2-.4-2.1 0-.4-.2-.7-.5-1-.6-.6-1.8-.7-2.6-.9-1.6-.4-3.2-.7-4.7-1.2-1.5-.4-2.3-1.5-2.7-2.7-.2.1-.5.1-.7.2.3.9.7 1.7 1.4 2.2 2.1 1.8 5.6 1.3 8 2.4 2 .8.7 2.4 1.6 3.7.5.8 1.6 1.1 2.5 1.3 2.6.8 5 .2 7.6-.4 1.7-.4 3.5-.6 5.2.4 1.1.7 1.9 1.7 3.1 2.2 2 .9 4.2.1 5.8-1.2 1.2-.9 2-2.2 3.1-3 1.5-1.2 3.5-.3 5.2-.1 2.1.3 4.7 0 5.6-2.3.3-.9.5-1.7.8-2.5l-.6-.3z" stroke="#000" stroke-opacity="0" fill="#fff"/><path d="M323.6 3453.9c-1.7 3.1-3.2 6.3-4.6 9.5-.1.4.4.7.5.3 1.4-3.2 2.9-6.4 4.6-9.5.2-.3-.4-.6-.5-.3zM302.9 3446.4c-6.2 3.8-13.7 3.3-19.1-1.5-.3-.2-.7.2-.5.5 5.7 4.9 13.5 5.5 19.9 1.5.3-.2 0-.7-.3-.5zM303.8 3442.4c-5 1.1-10.1 2.1-15.2 1-.4-.1-.5.5-.1.5 5.2 1.2 10.4.1 15.5-.9.3-.1.2-.7-.2-.6z" stroke="#000" stroke-opacity="0" fill="#ebbd94"/><path d="M303.6 3404.78c-.6-2.1-1.6-3.1-3.7-3.6-4.3-.9-8.9-.3-12.8 1.5-.1-.1-.1-.1-.2-.1h-.1c.1-.3.1-.7.1-1.1 0-.3-.5-.3-.6 0 0 .5 0 .9-.1 1.3-1.5.4-3.1.8-4.6 1.3-1.3.5-3.2.8-4.4 1.6-.8.5-.9 1.8-1.1 2.7-.3 1.5-.5 3.1-.6 4.6 0 .7 0 1.4.1 2-.8 2-1.4 4.2-1.6 6.3-.4 3.4 0 6.7.5 10 0 .1 0 .1.1.1-.1.8-.2 1.6-.4 2.4-.6 3.3-1.8 6.6-2 10-.2 3.4 1.6 7.52 0 10.72-.6 1.1-1.1 2.2-1.1 3.5-.1 1.6.3 3.1.6 4.6l.1.1c.1.1.1.1.2.1 1.8.1 3.7.1 5.5.1.1 0 .2 0 .2-.1.1 0 .1-.1.1-.2 0-1.7-.9-3.2-.9-5 .1-1.6.8-3.1 1.2-4.6-.4 2-.4 3.9-.2 5.8.1 1.5 0 3.3 1.1 4.4 0 .1.1.1.2.1h.1c.1 0 .1-.1.2-.1v-.2c.5-5.6 1.4-11.3 1.5-16.9 0-2.8-.3-5.7-.6-8.4-.1-1.8-.3-3.5-.4-5.2.3-3.9.6-7.52.6-8.62 0-2.6 2.3-7.5 3.3-9.9 1.2-2.8 2-5.7 2.5-8.7 4-.9 8.2-1.5 12.3-1.4 1.5 0 2.4.5 3.2 1.8.5.9.9 1.9 1.1 2.9.3 1.7.1 3.4 1 4.9.2.2.5.1.5-.2.4-2.9-.2-5.7-.9-8.5z" stroke="#000" stroke-opacity="0" fill="#b06d51"/><path d="M295.3 3399.57c.2-.3.3-.6.3-1s-.2-.8-.3-1.2c-.1-.7-.1-1.5 0-2.3 0-.4-.5-.5-.6-.2-.1.7-.1 1.5 0 2.2.2 1.2.5 1.7-.4 2.8-.2.4-.5.8-.5 1.3 0 .3.4 1.1.4 1.2-.2.4.3.7.5.3.2-.4.1-.3 0-.7 0-.4-.3-.9-.2-1.4.2-.3.7-.7.8-1zM285 3398.87c-2.3 1.2-4.7 2.3-6.4 4.2-1.5 1.7-2.4 3.7-2.9 5.8-.5 2.8.5 5.6-.6 8.3-1 2.5-2 4.7-1.8 7.5 0 .4.6.4.6 0-.2-2.8.8-4.8 1.8-7.3.9-2.4.3-4.6.4-7.1.2-2.4 1.2-4.7 2.8-6.6 1.7-2 4-3.1 6.4-4.2.3-.2 0-.7-.3-.6zM289.1 3397.47c-2.7-.5-5.3-.2-7.7 1-.4.2-.1.7.3.5 2.3-1.2 4.7-1.4 7.2-1 .4.1.5-.5.2-.5z" stroke="#000" stroke-opacity="0" fill="#8f5238"/><path d="M290.6 3476.9c27.6 0 50-22.4 50-50 0-27.63-22.4-50.04-50-50.04s-50 22.4-50 50.03c0 27.6 22.4 50 50 50z" stroke="#6c6e83" fill-opacity="0"/><defs><path fill="#172b4d" d="M688-137c238 0 323-102 359-325h193c-32 297-228 482-552 482-361 0-569-299-569-680 0-197 8-360 73-497 88-186 257-317 513-319 316-2 509 195 535 488h-193c-31-212-118-330-342-330-272 0-397 224-393 523v141c-3 282 115 517 376 517" id="F"/><path fill="#172b4d" d="M584 20C278 26 81-227 91-551c10-320 175-545 491-551 308-5 503 247 494 573-9 322-175 543-492 549zm-2-970c-208 0-305 185-305 421 0 216 106 398 307 398 211 0 307-186 307-420 0-214-109-399-309-399" id="G"/><path fill="#172b4d" d="M589-945c-131 0-219 81-264 174V0H140v-1082h175l6 136c83-104 191-156 324-156 229 0 346 129 346 387V0H806v-716c-2-153-65-229-217-229" id="H"/><path fill="#172b4d" d="M599-131c141 0 220-65 285-146l113 88C906-50 770 20 589 20 281 21 93-214 93-545c0-223 93-397 233-485 74-48 154-72 240-72 300 2 449 218 445 537v77H278c0 197 129 357 321 357zm227-509c-3-180-88-310-260-310-170 0-264 140-282 310h542" id="I"/><path fill="#172b4d" d="M277-555c0 244 77 420 297 424 127 2 249-93 255-210h175C980-127 805 20 574 20 258 20 81-222 92-562c11-319 164-533 481-540 237-5 426 165 431 392H829c-7-133-115-242-256-240-209 4-296 166-296 395" id="J"/><path fill="#172b4d" d="M456 20C285 20 205-92 206-268v-671H9v-143h197v-262h185v262h202v143H391v671c-9 125 92 149 207 118V0c-49 13-96 20-142 20" id="K"/><g id="a"><use transform="matrix(0.009114583333333334,0,0,0.009114583333333334,0,0)" xlink:href="#F"/><use transform="matrix(0.009114583333333334,0,0,0.009114583333333334,12.149739583333334,0)" xlink:href="#G"/><use transform="matrix(0.009114583333333334,0,0,0.009114583333333334,22.795572916666668,0)" xlink:href="#H"/><use transform="matrix(0.009114583333333334,0,0,0.009114583333333334,33.095052083333336,0)" xlink:href="#H"/><use transform="matrix(0.009114583333333334,0,0,0.009114583333333334,43.39453125,0)" xlink:href="#I"/><use transform="matrix(0.009114583333333334,0,0,0.009114583333333334,53.28385416666667,0)" xlink:href="#J"/><use transform="matrix(0.009114583333333334,0,0,0.009114583333333334,63.05468750000001,0)" xlink:href="#K"/></g><path fill="#172b4d" d="M572 20C306 25 99-136 101-391c0-70 20-134 59-193s113-127 223-205c-65-79-108-142-130-190s-33-96-33-143c-3-220 144-354 364-354 187 0 349 127 346 308-3 212-172 290-307 398l324 387c45-87 68-183 68-289h167c0 170-41 311-123 423L1267 0h-222l-97-115C862-36 726 17 572 20zM286-391c0 162 118 260 286 260 98 0 188-37 269-112L486-668c-110 72-200 183-200 277zm297-933c-109 0-180 87-178 196 0 64 39 144 118 240 93-79 236-119 236-280 0-91-82-156-176-156" id="L"/><use transform="matrix(0.009114583333333334,0,0,0.009114583333333334,0,0)" xlink:href="#L" id="b"/><path fill="#172b4d" d="M1240-945c-141 0-250 95-250 227V0H804v-709c0-157-77-236-231-236-121 0-204 52-249 155V0H139v-1082h175l5 120c79-93 186-140 321-140 151 0 254 58 309 174 69-98 181-174 345-174 237 0 362 126 362 377V0h-185v-714c-2-159-67-231-231-231" id="M"/><path fill="#172b4d" d="M561-1102c238-4 403 126 403 351v498c0 99 13 178 38 237V0H808c-11-21-19-59-26-114C696-25 593 20 474 20c-199 0-368-130-365-320 4-251 214-359 490-356h180v-85c-1-135-86-212-229-212-115 0-232 67-233 171H131c20-205 206-316 430-320zM294-326c0 117 90 185 207 185 122 0 239-75 278-162v-222H634c-227 0-340 66-340 199" id="N"/><path fill="#172b4d" d="M521 20C240 20 96-239 96-550c0-303 147-552 427-552 132 0 235 47 309 140l9-120h169V-26c4 277-183 454-459 452-165-1-334-81-400-187l96-111c79 98 176 147 291 147 180 1 288-109 286-290v-93C750-23 649 20 521 20zm48-965c-209 0-287 178-287 416 0 217 86 392 285 392 117 0 202-53 257-159v-494c-57-103-142-155-255-155" id="O"/><g id="c"><use transform="matrix(0.009114583333333334,0,0,0.009114583333333334,0,0)" xlink:href="#M"/><use transform="matrix(0.009114583333333334,0,0,0.009114583333333334,16.360677083333336,0)" xlink:href="#N"/><use transform="matrix(0.009114583333333334,0,0,0.009114583333333334,26.51432291666667,0)" xlink:href="#H"/><use transform="matrix(0.009114583333333334,0,0,0.009114583333333334,36.81380208333334,0)" xlink:href="#N"/><use transform="matrix(0.009114583333333334,0,0,0.009114583333333334,46.96744791666668,0)" xlink:href="#O"/><use transform="matrix(0.009114583333333334,0,0,0.009114583333333334,57.44010416666668,0)" xlink:href="#I"/></g><path fill="#172b4d" d="M632-1102c291 0 422 251 422 573 0 297-141 548-419 549-131 0-235-42-310-125v521H140v-1498h169l9 120c75-93 180-140 314-140zm-53 971c207 0 290-180 290-419 0-218-92-395-292-395-112 0-196 50-252 149v517c55 99 140 148 254 148" id="P"/><path fill="#172b4d" d="M341 0H156v-1536h185V0" id="Q"/><path fill="#172b4d" d="M704-1390c-164-38-297 28-288 194v114h231v143H416V0H231v-939H60v-143h171v-111c-12-274 208-416 483-347" id="R"/><path fill="#172b4d" d="M663-916c-163-27-288 18-338 148V0H140v-1082h180l3 125c61-97 147-145 258-145 36 0 63 5 82 14v172" id="S"/><path fill="#172b4d" d="M538-131c121 0 232-49 232-156 0-50-20-88-56-117-73-60-334-92-420-143-92-55-162-110-162-238 0-190 192-317 400-317 223 0 414 129 413 338H759c0-108-110-186-227-186-119 0-215 53-215 159 0 45 18 78 53 101 76 52 331 90 416 139 98 57 169 115 169 251C955-92 760 20 538 20c-176 0-314-68-386-174-38-55-57-115-57-179h185c6 129 116 202 258 202" id="T"/><g id="d"><use transform="matrix(0.009114583333333334,0,0,0.009114583333333334,0,0)" xlink:href="#P"/><use transform="matrix(0.009114583333333334,0,0,0.009114583333333334,10.47265625,0)" xlink:href="#Q"/><use transform="matrix(0.009114583333333334,0,0,0.009114583333333334,15.002604166666668,0)" xlink:href="#N"/><use transform="matrix(0.009114583333333334,0,0,0.009114583333333334,25.15625,0)" xlink:href="#K"/><use transform="matrix(0.009114583333333334,0,0,0.009114583333333334,31.253906250000004,0)" xlink:href="#R"/><use transform="matrix(0.009114583333333334,0,0,0.009114583333333334,37.734375,0)" xlink:href="#G"/><use transform="matrix(0.009114583333333334,0,0,0.009114583333333334,48.380208333333336,0)" xlink:href="#S"/><use transform="matrix(0.009114583333333334,0,0,0.009114583333333334,54.696614583333336,0)" xlink:href="#M"/><use transform="matrix(0.009114583333333334,0,0,0.009114583333333334,71.05729166666667,0)" xlink:href="#T"/></g><path fill="#172b4d" d="M375 0H183v-1456h192V0" id="U"/><g id="e"><use transform="matrix(0.009114583333333334,0,0,0.009114583333333334,0,0)" xlink:href="#U"/><use transform="matrix(0.009114583333333334,0,0,0.009114583333333334,5.076822916666667,0)" xlink:href="#M"/><use transform="matrix(0.009114583333333334,0,0,0.009114583333333334,21.437500000000007,0)" xlink:href="#P"/><use transform="matrix(0.009114583333333334,0,0,0.009114583333333334,31.910156250000004,0)" xlink:href="#Q"/><use transform="matrix(0.009114583333333334,0,0,0.009114583333333334,36.44010416666667,0)" xlink:href="#I"/><use transform="matrix(0.009114583333333334,0,0,0.009114583333333334,46.32942708333334,0)" xlink:href="#M"/><use transform="matrix(0.009114583333333334,0,0,0.009114583333333334,62.69010416666668,0)" xlink:href="#I"/><use transform="matrix(0.009114583333333334,0,0,0.009114583333333334,72.57942708333334,0)" xlink:href="#H"/><use transform="matrix(0.009114583333333334,0,0,0.009114583333333334,82.87890625000003,0)" xlink:href="#K"/></g><path fill="#172b4d" d="M520 20C244 20 95-247 95-550c0-298 151-550 427-552 127 0 227 43 301 130v-564h185V0H838l-9-116C755-25 652 20 520 20zm48-965c-210 0-288 177-288 416 0 218 87 392 286 392 117 0 203-53 257-158v-497c-55-102-140-153-255-153" id="V"/><path fill="#172b4d" d="M341 0H156v-1082h185V0zm-91-1264c-68 0-108-42-109-105 0-62 41-107 109-107s110 44 110 107-42 105-110 105" id="W"/><g id="f"><use transform="matrix(0.009114583333333334,0,0,0.009114583333333334,0,0)" xlink:href="#S"/><use transform="matrix(0.009114583333333334,0,0,0.009114583333333334,6.143229166666667,0)" xlink:href="#I"/><use transform="matrix(0.009114583333333334,0,0,0.009114583333333334,16.032552083333336,0)" xlink:href="#J"/><use transform="matrix(0.009114583333333334,0,0,0.009114583333333334,25.80338541666667,0)" xlink:href="#G"/><use transform="matrix(0.009114583333333334,0,0,0.009114583333333334,36.44921875000001,0)" xlink:href="#M"/><use transform="matrix(0.009114583333333334,0,0,0.009114583333333334,52.80989583333334,0)" xlink:href="#M"/><use transform="matrix(0.009114583333333334,0,0,0.009114583333333334,69.17057291666669,0)" xlink:href="#I"/><use transform="matrix(0.009114583333333334,0,0,0.009114583333333334,79.05989583333336,0)" xlink:href="#H"/><use transform="matrix(0.009114583333333334,0,0,0.009114583333333334,89.35937500000003,0)" xlink:href="#V"/><use transform="matrix(0.009114583333333334,0,0,0.009114583333333334,99.88671875000003,0)" xlink:href="#N"/><use transform="matrix(0.009114583333333334,0,0,0.009114583333333334,110.04036458333336,0)" xlink:href="#K"/><use transform="matrix(0.009114583333333334,0,0,0.009114583333333334,116.13802083333336,0)" xlink:href="#W"/><use transform="matrix(0.009114583333333334,0,0,0.009114583333333334,120.66796875000003,0)" xlink:href="#G"/><use transform="matrix(0.009114583333333334,0,0,0.009114583333333334,131.31380208333337,0)" xlink:href="#H"/><use transform="matrix(0.009114583333333334,0,0,0.009114583333333334,141.61328125000003,0)" xlink:href="#T"/></g><g id="g"><use transform="matrix(0.009114583333333334,0,0,0.009114583333333334,0,0)" xlink:href="#N"/><use transform="matrix(0.009114583333333334,0,0,0.009114583333333334,10.153645833333334,0)" xlink:href="#R"/><use transform="matrix(0.009114583333333334,0,0,0.009114583333333334,16.634114583333336,0)" xlink:href="#K"/><use transform="matrix(0.009114583333333334,0,0,0.009114583333333334,22.731770833333336,0)" xlink:href="#I"/><use transform="matrix(0.009114583333333334,0,0,0.009114583333333334,32.62109375,0)" xlink:href="#S"/></g><path fill="#172b4d" d="M992-673H361v516h733V0H169v-1456h915v158H361v468h631v157" id="X"/><path fill="#172b4d" d="M417-1456L893-268l476-1188h249V0h-192c-4-403 4-794 18-1179L966 0H819L342-1176c15 384 23 773 19 1176H169v-1456h248" id="Y"/><g id="h"><use transform="matrix(0.009114583333333334,0,0,0.009114583333333334,0,0)" xlink:href="#F"/><use transform="matrix(0.009114583333333334,0,0,0.009114583333333334,12.149739583333334,0)" xlink:href="#X"/><use transform="matrix(0.009114583333333334,0,0,0.009114583333333334,22.759114583333336,0)" xlink:href="#Y"/></g><g id="i"><use transform="matrix(0.009114583333333334,0,0,0.009114583333333334,0,0)" xlink:href="#T"/><use transform="matrix(0.009114583333333334,0,0,0.009114583333333334,9.625,0)" xlink:href="#J"/><use transform="matrix(0.009114583333333334,0,0,0.009114583333333334,19.395833333333336,0)" xlink:href="#N"/><use transform="matrix(0.009114583333333334,0,0,0.009114583333333334,29.54947916666667,0)" xlink:href="#H"/><use transform="matrix(0.009114583333333334,0,0,0.009114583333333334,39.84895833333334,0)" xlink:href="#T"/></g><path fill="#172b4d" d="M494-271l252-811h198L509 167C425 381 299 474 84 421V271c167 16 242-37 283-173l41-110L22-1082h202" id="Z"/><path fill="#172b4d" d="M314-151h633V0H88v-136l597-793H97v-153h820v131" id="aa"/><g id="j"><use transform="matrix(0.009114583333333334,0,0,0.009114583333333334,0,0)" xlink:href="#N"/><use transform="matrix(0.009114583333333334,0,0,0.009114583333333334,10.153645833333334,0)" xlink:href="#H"/><use transform="matrix(0.009114583333333334,0,0,0.009114583333333334,20.453125,0)" xlink:href="#N"/><use transform="matrix(0.009114583333333334,0,0,0.009114583333333334,30.606770833333336,0)" xlink:href="#Q"/><use transform="matrix(0.009114583333333334,0,0,0.009114583333333334,35.13671875,0)" xlink:href="#Z"/><use transform="matrix(0.009114583333333334,0,0,0.009114583333333334,43.96875,0)" xlink:href="#aa"/><use transform="matrix(0.009114583333333334,0,0,0.009114583333333334,53.07421875,0)" xlink:href="#I"/><use transform="matrix(0.009114583333333334,0,0,0.009114583333333334,62.96354166666667,0)" xlink:href="#T"/></g><path fill="#172b4d" d="M1098-255l208-827h185L1176 0h-150L763-820 507 0H357L43-1082h184l213 810 252-810h149" id="ab"/><path fill="#172b4d" d="M634-1102c292 0 422 254 422 573 0 298-143 547-420 549-137 0-242-48-317-145L310 0H140v-1536h185v573c75-93 178-139 309-139zm-44 965c207 0 281-175 281-413 0-224-79-395-283-395-122 0-210 57-263 170v468c57 113 145 170 265 170" id="ac"/><path fill="#172b4d" d="M589-945c-131 0-219 81-264 174V0H140v-1536h185v585c82-101 189-151 320-151 229 0 346 129 346 387V0H806v-716c-2-153-65-229-217-229" id="ad"/><path fill="#172b4d" d="M442-501L326-380V0H141v-1536h185v929c135-169 291-317 436-475h225L566-630 1036 0H819" id="ae"/><g id="k"><use transform="matrix(0.009114583333333334,0,0,0.009114583333333334,0,0)" xlink:href="#ab"/><use transform="matrix(0.009114583333333334,0,0,0.009114583333333334,14.027343750000002,0)" xlink:href="#I"/><use transform="matrix(0.009114583333333334,0,0,0.009114583333333334,23.91666666666667,0)" xlink:href="#ac"/><use transform="matrix(0.009114583333333334,0,0,0.009114583333333334,34.38932291666667,0)" xlink:href="#ad"/><use transform="matrix(0.009114583333333334,0,0,0.009114583333333334,44.67057291666667,0)" xlink:href="#G"/><use transform="matrix(0.009114583333333334,0,0,0.009114583333333334,55.31640625,0)" xlink:href="#G"/><use transform="matrix(0.009114583333333334,0,0,0.009114583333333334,65.96223958333334,0)" xlink:href="#ae"/><use transform="matrix(0.009114583333333334,0,0,0.009114583333333334,75.42317708333334,0)" xlink:href="#T"/></g><path fill="#172b4d" d="M973-380H363L226 0H28l556-1456h168L1309 0h-197zM421-538h495l-248-681" id="af"/><path fill="#172b4d" d="M491 20c-241-1-355-148-355-398v-704h185v699c0 164 67 246 200 246 141 0 235-53 282-158v-787h185V0H812l-4-107C736-22 630 20 491 20" id="ag"/><g id="l"><use transform="matrix(0.009114583333333334,0,0,0.009114583333333334,0,0)" xlink:href="#af"/><use transform="matrix(0.009114583333333334,0,0,0.009114583333333334,12.177083333333334,0)" xlink:href="#ag"/><use transform="matrix(0.009114583333333334,0,0,0.009114583333333334,22.467447916666668,0)" xlink:href="#K"/><use transform="matrix(0.009114583333333334,0,0,0.009114583333333334,28.382812500000004,0)" xlink:href="#G"/><use transform="matrix(0.009114583333333334,0,0,0.009114583333333334,39.028645833333336,0)" xlink:href="#M"/><use transform="matrix(0.009114583333333334,0,0,0.009114583333333334,55.38932291666667,0)" xlink:href="#N"/><use transform="matrix(0.009114583333333334,0,0,0.009114583333333334,65.54296875,0)" xlink:href="#K"/><use transform="matrix(0.009114583333333334,0,0,0.009114583333333334,71.640625,0)" xlink:href="#I"/></g><g id="m"><use transform="matrix(0.009114583333333334,0,0,0.009114583333333334,0,0)" xlink:href="#ag"/><use transform="matrix(0.009114583333333334,0,0,0.009114583333333334,10.290364583333334,0)" xlink:href="#T"/><use transform="matrix(0.009114583333333334,0,0,0.009114583333333334,19.915364583333336,0)" xlink:href="#W"/><use transform="matrix(0.009114583333333334,0,0,0.009114583333333334,24.4453125,0)" xlink:href="#H"/><use transform="matrix(0.009114583333333334,0,0,0.009114583333333334,34.74479166666667,0)" xlink:href="#O"/></g><path fill="#172b4d" d="M1216-1011c-1 297-202 441-512 441H361V0H169v-1456h537c297-6 510 164 510 445zm-192 2c1-178-126-288-307-289H361v571h345c196 1 318-92 318-282" id="ah"/><g id="n"><use transform="matrix(0.009114583333333334,0,0,0.009114583333333334,0,0)" xlink:href="#af"/><use transform="matrix(0.009114583333333334,0,0,0.009114583333333334,12.177083333333334,0)" xlink:href="#ah"/><use transform="matrix(0.009114583333333334,0,0,0.009114583333333334,23.953125,0)" xlink:href="#U"/><use transform="matrix(0.009114583333333334,0,0,0.009114583333333334,29.029947916666668,0)" xlink:href="#T"/></g><path fill="#172b4d" d="M1222-777c17 480-206 763-650 777H169v-1456h411c408 9 627 269 642 679zm-190 4c3-312-149-522-447-525H361v1141h202c308 0 473-209 469-531v-85" id="ai"/><path fill="#172b4d" d="M497-251l268-831h189L566 0H425L33-1082h189" id="aj"/><g id="o"><use transform="matrix(0.00911458333333333,0,0,0.00911458333333333,0,0)" xlink:href="#ai"/><use transform="matrix(0.00911458333333333,0,0,0.00911458333333333,12.240885416666663,0)" xlink:href="#I"/><use transform="matrix(0.00911458333333333,0,0,0.00911458333333333,22.011718749999993,0)" xlink:href="#aj"/><use transform="matrix(0.00911458333333333,0,0,0.00911458333333333,30.934895833333325,0)" xlink:href="#I"/><use transform="matrix(0.00911458333333333,0,0,0.00911458333333333,40.824218749999986,0)" xlink:href="#Q"/><use transform="matrix(0.00911458333333333,0,0,0.00911458333333333,45.35416666666665,0)" xlink:href="#G"/><use transform="matrix(0.00911458333333333,0,0,0.00911458333333333,55.999999999999986,0)" xlink:href="#P"/><use transform="matrix(0.00911458333333333,0,0,0.00911458333333333,66.47265624999997,0)" xlink:href="#I"/><use transform="matrix(0.00911458333333333,0,0,0.00911458333333333,76.36197916666663,0)" xlink:href="#S"/></g><g id="p"><use transform="matrix(0.009114583333333334,0,0,0.009114583333333334,0,0)" xlink:href="#Y"/><use transform="matrix(0.009114583333333334,0,0,0.009114583333333334,16.296875,0)" xlink:href="#G"/><use transform="matrix(0.009114583333333334,0,0,0.009114583333333334,26.942708333333336,0)" xlink:href="#H"/><use transform="matrix(0.009114583333333334,0,0,0.009114583333333334,37.2421875,0)" xlink:href="#W"/><use transform="matrix(0.009114583333333334,0,0,0.009114583333333334,41.772135416666664,0)" xlink:href="#K"/><use transform="matrix(0.009114583333333334,0,0,0.009114583333333334,47.6875,0)" xlink:href="#G"/><use transform="matrix(0.009114583333333334,0,0,0.009114583333333334,58.333333333333336,0)" xlink:href="#S"/></g><g id="q"><use transform="matrix(0.009114583333333334,0,0,0.009114583333333334,0,0)" xlink:href="#N"/><use transform="matrix(0.009114583333333334,0,0,0.009114583333333334,10.153645833333334,0)" xlink:href="#J"/><use transform="matrix(0.009114583333333334,0,0,0.009114583333333334,19.924479166666668,0)" xlink:href="#K"/><use transform="matrix(0.009114583333333334,0,0,0.009114583333333334,26.022135416666668,0)" xlink:href="#W"/><use transform="matrix(0.009114583333333334,0,0,0.009114583333333334,30.552083333333336,0)" xlink:href="#aj"/><use transform="matrix(0.009114583333333334,0,0,0.009114583333333334,39.59375,0)" xlink:href="#W"/><use transform="matrix(0.009114583333333334,0,0,0.009114583333333334,44.123697916666664,0)" xlink:href="#K"/><use transform="matrix(0.009114583333333334,0,0,0.009114583333333334,50.221354166666664,0)" xlink:href="#W"/><use transform="matrix(0.009114583333333334,0,0,0.009114583333333334,54.75130208333333,0)" xlink:href="#I"/><use transform="matrix(0.009114583333333334,0,0,0.009114583333333334,64.640625,0)" xlink:href="#T"/></g><g id="r"><use transform="matrix(0.008680555555555556,0,0,0.008680555555555556,0,0)" xlink:href="#af"/><use transform="matrix(0.008680555555555556,0,0,0.008680555555555556,11.597222222222223,0)" xlink:href="#ag"/><use transform="matrix(0.008680555555555556,0,0,0.008680555555555556,21.397569444444446,0)" xlink:href="#V"/><use transform="matrix(0.008680555555555556,0,0,0.008680555555555556,31.423611111111114,0)" xlink:href="#W"/><use transform="matrix(0.008680555555555556,0,0,0.008680555555555556,35.73784722222223,0)" xlink:href="#K"/><use transform="matrix(0.008680555555555556,0,0,0.008680555555555556,41.37152777777778,0)" xlink:href="#G"/><use transform="matrix(0.008680555555555556,0,0,0.008680555555555556,51.51041666666667,0)" xlink:href="#S"/></g><path fill="#3a414a" d="M67-125c0 53 21 87 73 88 37 1 54-22 65-47l45 17C233-25 199 4 140 4 58 4 20-42 15-125 8-235 124-281 211-232c18 10 29 29 36 50l-46 12c-8-25-30-41-62-41-52 0-71 34-72 86" id="ak"/><path fill="#3a414a" d="M24 0v-248h195v40H76v63h132v40H76v65h150V0H24" id="al"/><path fill="#3a414a" d="M230 0l2-204L168 0h-37L68-204 70 0H24v-248h70l56 185 57-185h69V0h-46" id="am"/><g id="s"><use transform="matrix(0.0987654320987654,0,0,0.0987654320987654,0,0)" xlink:href="#ak"/><use transform="matrix(0.0987654320987654,0,0,0.0987654320987654,25.58024691358024,0)" xlink:href="#al"/><use transform="matrix(0.0987654320987654,0,0,0.0987654320987654,49.283950617283935,0)" xlink:href="#am"/></g><g id="t"><use transform="matrix(0.009114583333333334,0,0,0.009114583333333334,0,0)" xlink:href="#af"/><use transform="matrix(0.009114583333333334,0,0,0.009114583333333334,12.177083333333334,0)" xlink:href="#V"/><use transform="matrix(0.009114583333333334,0,0,0.009114583333333334,22.704427083333336,0)" xlink:href="#V"/></g><use transform="matrix(0.009114583333333334,0,0,0.009114583333333334,0,0)" xlink:href="#L" id="u"/><g id="v"><use transform="matrix(0.009114583333333334,0,0,0.009114583333333334,0,0)" xlink:href="#M"/><use transform="matrix(0.009114583333333334,0,0,0.009114583333333334,16.360677083333336,0)" xlink:href="#N"/><use transform="matrix(0.009114583333333334,0,0,0.009114583333333334,26.51432291666667,0)" xlink:href="#H"/><use transform="matrix(0.009114583333333334,0,0,0.009114583333333334,36.81380208333334,0)" xlink:href="#N"/><use transform="matrix(0.009114583333333334,0,0,0.009114583333333334,46.96744791666668,0)" xlink:href="#O"/><use transform="matrix(0.009114583333333334,0,0,0.009114583333333334,57.44010416666668,0)" xlink:href="#I"/></g><g id="w"><use transform="matrix(0.009114583333333334,0,0,0.009114583333333334,0,0)" xlink:href="#ag"/><use transform="matrix(0.009114583333333334,0,0,0.009114583333333334,10.290364583333334,0)" xlink:href="#T"/><use transform="matrix(0.009114583333333334,0,0,0.009114583333333334,19.915364583333336,0)" xlink:href="#I"/><use transform="matrix(0.009114583333333334,0,0,0.009114583333333334,29.804687500000004,0)" xlink:href="#S"/><use transform="matrix(0.009114583333333334,0,0,0.009114583333333334,36.12109375,0)" xlink:href="#T"/></g><path fill="#172b4d" d="M631-137c179 0 314-70 314-231 0-71-25-127-75-166s-141-77-272-115c-165-47-285-106-360-175s-112-154-112-255c0-245 231-397 495-397 206 0 369 89 449 218 43 68 65 142 65 223H942c0-184-129-283-321-283-172 0-299 76-301 236 0 59 26 109 76 150s135 78 256 113c205 59 345 116 436 256 35 53 50 119 50 193-2 256-231 398-507 390C333 12 90-129 80-422h193c0 187 160 285 358 285" id="an"/><g id="x"><use transform="matrix(0.009114583333333334,0,0,0.009114583333333334,0,0)" xlink:href="#an"/><use transform="matrix(0.009114583333333334,0,0,0.009114583333333334,11.07421875,0)" xlink:href="#ad"/><use transform="matrix(0.009114583333333334,0,0,0.009114583333333334,21.35546875,0)" xlink:href="#N"/><use transform="matrix(0.009114583333333334,0,0,0.009114583333333334,31.509114583333336,0)" xlink:href="#S"/><use transform="matrix(0.009114583333333334,0,0,0.009114583333333334,37.65234375,0)" xlink:href="#I"/><use transform="matrix(0.009114583333333334,0,0,0.009114583333333334,47.54166666666667,0)" xlink:href="#V"/></g><g id="y"><use transform="matrix(0.009114583333333334,0,0,0.009114583333333334,0,0)" xlink:href="#an"/><use transform="matrix(0.009114583333333334,0,0,0.009114583333333334,11.07421875,0)" xlink:href="#I"/><use transform="matrix(0.009114583333333334,0,0,0.009114583333333334,20.963541666666668,0)" xlink:href="#S"/><use transform="matrix(0.009114583333333334,0,0,0.009114583333333334,27.444010416666668,0)" xlink:href="#aj"/><use transform="matrix(0.009114583333333334,0,0,0.009114583333333334,36.485677083333336,0)" xlink:href="#W"/><use transform="matrix(0.009114583333333334,0,0,0.009114583333333334,41.015625,0)" xlink:href="#J"/><use transform="matrix(0.009114583333333334,0,0,0.009114583333333334,50.786458333333336,0)" xlink:href="#I"/><use transform="matrix(0.009114583333333334,0,0,0.009114583333333334,60.67578125000001,0)" xlink:href="#T"/></g><g id="z"><use transform="matrix(0.009114583333333334,0,0,0.009114583333333334,0,0)" xlink:href="#N"/><use transform="matrix(0.009114583333333334,0,0,0.009114583333333334,10.153645833333334,0)" xlink:href="#V"/><use transform="matrix(0.009114583333333334,0,0,0.009114583333333334,20.680989583333336,0)" xlink:href="#M"/><use transform="matrix(0.009114583333333334,0,0,0.009114583333333334,37.04166666666667,0)" xlink:href="#W"/><use transform="matrix(0.009114583333333334,0,0,0.009114583333333334,41.571614583333336,0)" xlink:href="#H"/></g><g id="A"><use transform="matrix(0.009114583333333334,0,0,0.009114583333333334,0,0)" xlink:href="#F"/><use transform="matrix(0.009114583333333334,0,0,0.009114583333333334,12.149739583333334,0)" xlink:href="#X"/><use transform="matrix(0.009114583333333334,0,0,0.009114583333333334,22.759114583333336,0)" xlink:href="#Y"/></g><g id="B"><use transform="matrix(0.009114583333333334,0,0,0.009114583333333334,0,0)" xlink:href="#ag"/><use transform="matrix(0.009114583333333334,0,0,0.009114583333333334,10.290364583333334,0)" xlink:href="#T"/><use transform="matrix(0.009114583333333334,0,0,0.009114583333333334,19.915364583333336,0)" xlink:href="#I"/><use transform="matrix(0.009114583333333334,0,0,0.009114583333333334,29.804687500000004,0)" xlink:href="#S"/></g><g id="C"><use transform="matrix(0.009114583333333334,0,0,0.009114583333333334,0,0)" xlink:href="#F"/><use transform="matrix(0.009114583333333334,0,0,0.009114583333333334,12.149739583333334,0)" xlink:href="#G"/><use transform="matrix(0.009114583333333334,0,0,0.009114583333333334,22.795572916666668,0)" xlink:href="#H"/><use transform="matrix(0.009114583333333334,0,0,0.009114583333333334,33.095052083333336,0)" xlink:href="#R"/><use transform="matrix(0.009114583333333334,0,0,0.009114583333333334,39.575520833333336,0)" xlink:href="#W"/><use transform="matrix(0.009114583333333334,0,0,0.009114583333333334,44.10546875,0)" xlink:href="#O"/><use transform="matrix(0.009114583333333334,0,0,0.009114583333333334,54.578125,0)" xlink:href="#ag"/><use transform="matrix(0.009114583333333334,0,0,0.009114583333333334,64.86848958333333,0)" xlink:href="#S"/><use transform="matrix(0.009114583333333334,0,0,0.009114583333333334,71.01171875,0)" xlink:href="#I"/></g><g id="D"><use transform="matrix(0.009114583333333334,0,0,0.009114583333333334,0,0)" xlink:href="#W"/><use transform="matrix(0.009114583333333334,0,0,0.009114583333333334,4.529947916666667,0)" xlink:href="#H"/><use transform="matrix(0.009114583333333334,0,0,0.009114583333333334,14.829427083333336,0)" xlink:href="#K"/><use transform="matrix(0.009114583333333334,0,0,0.009114583333333334,20.927083333333336,0)" xlink:href="#I"/><use transform="matrix(0.009114583333333334,0,0,0.009114583333333334,30.816406250000004,0)" xlink:href="#O"/><use transform="matrix(0.009114583333333334,0,0,0.009114583333333334,41.2890625,0)" xlink:href="#S"/><use transform="matrix(0.009114583333333334,0,0,0.009114583333333334,47.240885416666664,0)" xlink:href="#N"/><use transform="matrix(0.009114583333333334,0,0,0.009114583333333334,57.39453125000001,0)" xlink:href="#K"/><use transform="matrix(0.009114583333333334,0,0,0.009114583333333334,63.49218750000001,0)" xlink:href="#W"/><use transform="matrix(0.009114583333333334,0,0,0.009114583333333334,68.02213541666667,0)" xlink:href="#G"/><use transform="matrix(0.009114583333333334,0,0,0.009114583333333334,78.66796875,0)" xlink:href="#H"/><use transform="matrix(0.009114583333333334,0,0,0.009114583333333334,88.96744791666667,0)" xlink:href="#T"/></g><path fill="#172b4d" d="M319-664C304-226 428 158 661 357l-38 113c-89-49-172-133-254-248C142-97 71-578 194-1025c67-244 240-513 429-618l38 122c-201 153-330 502-342 857" id="ao"/><path fill="#172b4d" d="M38 357C331 141 457-487 337-984c-53-219-157-429-299-546l39-113c190 106 362 378 431 621 75 268 76 597 0 868C440 88 266 365 77 470" id="ap"/><g id="E"><use transform="matrix(0.009114583333333334,0,0,0.009114583333333334,0,0)" xlink:href="#ao"/><use transform="matrix(0.009114583333333334,0,0,0.009114583333333334,6.380208333333334,0)" xlink:href="#G"/><use transform="matrix(0.009114583333333334,0,0,0.009114583333333334,17.026041666666668,0)" xlink:href="#P"/><use transform="matrix(0.009114583333333334,0,0,0.009114583333333334,27.498697916666668,0)" xlink:href="#K"/><use transform="matrix(0.009114583333333334,0,0,0.009114583333333334,33.59635416666667,0)" xlink:href="#W"/><use transform="matrix(0.009114583333333334,0,0,0.009114583333333334,38.126302083333336,0)" xlink:href="#G"/><use transform="matrix(0.009114583333333334,0,0,0.009114583333333334,48.77213541666667,0)" xlink:href="#H"/><use transform="matrix(0.009114583333333334,0,0,0.009114583333333334,59.07161458333334,0)" xlink:href="#N"/><use transform="matrix(0.009114583333333334,0,0,0.009114583333333334,69.22526041666667,0)" xlink:href="#Q"/><use transform="matrix(0.009114583333333334,0,0,0.009114583333333334,73.75520833333334,0)" xlink:href="#ap"/></g></defs></g></svg>