<svg xmlns="http://www.w3.org/2000/svg" xmlns:xlink="http://www.w3.org/1999/xlink" xmlns:lucid="lucid" width="1659" height="863"><g transform="translate(-3716 -6849)" lucid:page-tab-id="0_0"><path d="M3761.14 6906a6 6 0 0 1 6-6h1551a6 6 0 0 1 6 6v222.85a6 6 0 0 1-6 6h-1551a6 6 0 0 1-6-6z" fill="#e0e8f5"/><path d="M3782.13 6900h14.98m7.5 0h15m7.48 0h15m7.48 0h15m7.48 0h15m7.48 0h15m7.48 0h14.98m7.5 0h14.98m7.5 0h14.98m7.5 0h14.98m7.5 0h14.98m7.5 0h14.97m7.5 0h14.98m7.5 0h14.98m7.5 0h14.98m7.5 0h15m7.48 0h15m7.48 0h14.98m7.5 0h14.98m7.5 0h14.98m7.5 0h14.98m7.5 0h14.98m7.5 0h14.98m7.5 0h14.97m7.5 0h15m7.48 0h15m7.48 0h15m7.48 0h15m7.48 0h14.98m7.5 0h14.98m7.5 0h14.98m7.5 0h14.98m7.5 0h14.98m7.5 0h14.98m7.5 0h14.97m7.5 0h14.98m7.5 0h14.98m7.5 0h14.98m7.5 0h15m7.48 0h15m7.48 0h14.98m7.5 0h14.98m7.5 0h14.98m7.5 0h14.98m7.5 0h14.98m7.5 0h14.98m7.5 0h14.97m7.5 0h15m7.48 0h15m7.48 0h15m7.48 0h15m7.48 0h14.98m7.5 0h14.98m7.5 0h14.98m7.5 0h14.98m7.5 0h14.98m7.5 0h14.98m7.5 0h14.97m7.5 0h14.98m7.5 0h14.98m7.5 0h14.98m7.5 0h15m7.48 0h15m7.48 0h14.98m7.5 0h14.98m7.5 0h14.98m7.5 0h14.98m7.5 0h14.98m7.5 0h7.48l.94.07.92.22.87.35.8.5.7.6.63.72.5.8.35.88.22.9.07.95v7.43m0 7.43v14.85m0 7.44V6958m0 7.43v14.85m0 7.43v14.87m0 7.43v14.85m0 7.43v14.86m0 7.43v14.86m0 7.42v14.86m0 7.44V7114m0 7.42v7.43l-.07.94-.22.9-.36.88-.5.8-.62.7-.7.63-.8.5-.88.36-.92.22-.94.07h-7.5m-7.48 0h-15m-7.48 0h-15m-7.48 0h-15m-7.48 0h-14.98m-7.5 0h-14.98m-7.5 0h-14.98m-7.5 0h-14.98m-7.5 0h-14.98m-7.5 0h-14.97m-7.5 0h-14.98m-7.5 0h-14.98m-7.5 0h-15m-7.48 0h-15m-7.48 0h-15m-7.48 0h-14.98m-7.5 0H4951m-7.5 0h-14.98m-7.5 0h-14.98m-7.5 0h-14.98m-7.5 0h-14.98m-7.5 0h-14.97m-7.5 0h-14.97m-7.5 0h-14.98m-7.5 0h-14.98m-7.5 0h-14.98m-7.5 0h-15m-7.48 0h-14.98m-7.5 0h-14.98m-7.5 0h-14.98m-7.5 0h-14.98m-7.5 0h-14.98m-7.5 0h-14.97m-7.5 0h-14.98m-7.5 0h-14.98m-7.5 0h-15m-7.48 0h-15m-7.48 0h-15m-7.48 0h-14.98m-7.5 0H4434m-7.5 0h-14.98m-7.5 0h-14.98m-7.5 0h-14.98m-7.5 0h-14.98m-7.5 0h-14.97m-7.5 0h-14.97m-7.5 0h-14.98m-7.5 0h-14.98m-7.5 0h-14.98m-7.5 0h-14.98m-7.5 0h-14.98m-7.5 0h-14.98m-7.5 0h-14.98m-7.5 0h-14.98m-7.5 0h-14.98m-7.5 0h-14.98m-7.5 0h-14.97m-7.5 0h-14.98m-7.5 0h-15m-7.48 0h-15m-7.48 0h-15m-7.48 0h-14.98m-7.5 0H3917m-7.5 0h-14.98m-7.5 0h-14.98m-7.5 0h-14.98m-7.5 0h-14.98m-7.5 0h-14.97m-7.5 0h-14.97m-7.5 0h-7.5l-.93-.07-.9-.22-.88-.36-.8-.5-.72-.6-.6-.72-.5-.8-.36-.87-.22-.9-.08-.95v-7.43m0-7.43v-14.86m0-7.43v-14.85m0-7.43v-14.85m0-7.43v-14.86m0-7.43V7010m0-7.43v-14.86m0-7.42v-14.85m0-7.43v-14.86m0-7.43v-14.84m0-7.43V6906l.08-.94.22-.9.36-.88.5-.8.6-.72.72-.6.8-.5.87-.37.9-.23.94-.07h7.5" stroke="#2f3564" stroke-width="1.5" fill="none"/><path d="M3761.14 7169a6 6 0 0 1 6-6h1551a6 6 0 0 1 6 6v222.86a6 6 0 0 1-6 6h-1551a6 6 0 0 1-6-6z" fill="#e0e8f5"/><path d="M3782.13 7163h14.98m7.5 0h15m7.48 0h15m7.48 0h15m7.48 0h15m7.48 0h15m7.48 0h14.98m7.5 0h14.98m7.5 0h14.98m7.5 0h14.98m7.5 0h14.98m7.5 0h14.97m7.5 0h14.98m7.5 0h14.98m7.5 0h14.98m7.5 0h15m7.48 0h15m7.48 0h14.98m7.5 0h14.98m7.5 0h14.98m7.5 0h14.98m7.5 0h14.98m7.5 0h14.98m7.5 0h14.97m7.5 0h15m7.48 0h15m7.48 0h15m7.48 0h15m7.48 0h14.98m7.5 0h14.98m7.5 0h14.98m7.5 0h14.98m7.5 0h14.98m7.5 0h14.98m7.5 0h14.97m7.5 0h14.98m7.5 0h14.98m7.5 0h14.98m7.5 0h15m7.48 0h15m7.48 0h14.98m7.5 0h14.98m7.5 0h14.98m7.5 0h14.98m7.5 0h14.98m7.5 0h14.98m7.5 0h14.97m7.5 0h15m7.48 0h15m7.48 0h15m7.48 0h15m7.48 0h14.98m7.5 0h14.98m7.5 0h14.98m7.5 0h14.98m7.5 0h14.98m7.5 0h14.98m7.5 0h14.97m7.5 0h14.98m7.5 0h14.98m7.5 0h14.98m7.5 0h15m7.48 0h15m7.48 0h14.98m7.5 0h14.98m7.5 0h14.98m7.5 0h14.98m7.5 0h14.98m7.5 0h7.48l.94.08.92.22.87.36.8.5.7.6.63.72.5.8.35.87.22.92.07.94v7.43m0 7.43v14.86m0 7.43V7221m0 7.43v14.86m0 7.42v14.85m0 7.43v14.86m0 7.43v14.85m0 7.42v14.86m0 7.43v14.86m0 7.42V7377m0 7.43v7.43l-.07.94-.22.9-.36.88-.5.8-.62.72-.7.6-.8.5-.88.36-.92.22-.94.08h-7.5m-7.48 0h-15m-7.48 0h-15m-7.48 0h-15m-7.48 0h-14.98m-7.5 0h-14.98m-7.5 0h-14.98m-7.5 0h-14.98m-7.5 0h-14.98m-7.5 0h-14.97m-7.5 0h-14.98m-7.5 0h-14.98m-7.5 0h-15m-7.48 0h-15m-7.48 0h-15m-7.48 0h-14.98m-7.5 0H4951m-7.5 0h-14.98m-7.5 0h-14.98m-7.5 0h-14.98m-7.5 0h-14.98m-7.5 0h-14.97m-7.5 0h-14.97m-7.5 0h-14.98m-7.5 0h-14.98m-7.5 0h-14.98m-7.5 0h-15m-7.48 0h-14.98m-7.5 0h-14.98m-7.5 0h-14.98m-7.5 0h-14.98m-7.5 0h-14.98m-7.5 0h-14.97m-7.5 0h-14.98m-7.5 0h-14.98m-7.5 0h-15m-7.48 0h-15m-7.48 0h-15m-7.48 0h-14.98m-7.5 0H4434m-7.5 0h-14.98m-7.5 0h-14.98m-7.5 0h-14.98m-7.5 0h-14.98m-7.5 0h-14.97m-7.5 0h-14.97m-7.5 0h-14.98m-7.5 0h-14.98m-7.5 0h-14.98m-7.5 0h-14.98m-7.5 0h-14.98m-7.5 0h-14.98m-7.5 0h-14.98m-7.5 0h-14.98m-7.5 0h-14.98m-7.5 0h-14.98m-7.5 0h-14.97m-7.5 0h-14.98m-7.5 0h-15m-7.48 0h-15m-7.48 0h-15m-7.48 0h-14.98m-7.5 0H3917m-7.5 0h-14.98m-7.5 0h-14.98m-7.5 0h-14.98m-7.5 0h-14.98m-7.5 0h-14.97m-7.5 0h-14.97m-7.5 0h-7.5l-.93-.08-.9-.22-.88-.36-.8-.5-.72-.6-.6-.72-.5-.8-.36-.87-.22-.9-.08-.94v-7.43m0-7.43v-14.86m0-7.42v-14.86m0-7.43v-14.86m0-7.42v-14.86m0-7.44V7273m0-7.43v-14.85m0-7.43v-14.87m0-7.43v-14.85m0-7.43v-14.86m0-7.43V7169l.08-.93.22-.92.36-.87.5-.8.6-.72.72-.6.8-.5.87-.36.9-.22.94-.07h7.5" stroke="#2f3564" stroke-width="1.5" fill="none"/><path d="M3861.14 7285.52a19.5 19.5 0 0 1 19.5-19.5h117.87a19.5 19.5 0 0 1 19.5 19.5 19.5 19.5 0 0 1-19.5 19.5h-117.86a19.5 19.5 0 0 1-19.5-19.5z" stroke="#6c6e83" fill="#fff"/><path d="M3917.48 7272.02H4008v25.1h-90.52z" fill="none"/><use xlink:href="#a" transform="matrix(1,0,0,1,3917.475921563067,7272.02226713524) translate(0 19.380208333333336)"/><use xlink:href="#b" transform="matrix(1,0,0,1,3917.475921563067,7272.02226713524) translate(21.84765625 19.380208333333336)"/><path d="M3851.14 7335c27.6 0 50-22.32 50-50 0-27.55-22.4-49.97-50-49.97s-50 22.42-50 49.98c0 27.68 22.4 50 50 50z" stroke="#6c6e83" fill="#a2c6f6"/><path d="M3851.14 7333.88c26.9 0 48.8-21.8 48.8-48.77 0-26.94-21.9-48.75-48.8-48.75-27 0-48.8 21.8-48.8 48.76 0 26.97 21.8 48.78 48.8 48.78z" stroke="#000" stroke-opacity="0" fill="#a2c6f6"/><path d="M3872.04 7263.4c0-.2-.1-.4-.1-.6.2-.4.2-.8.2-1.2 0-1.02-.7-1.83-1.3-2.64-.7-1-1.4-2.02-2.2-2.82-.4-.4-.8-.8-1.2-1-.6-.32-1.1-.42-1.6-1.02-1-1.52-2.1-2.63-3.8-3.23-1.1-.42-2.3-.42-3.5-.32-.6-.7-1.7-1.1-2.8-1.1-.7-.1-1.5.2-2.3.1-.6-.1-1-.5-1.6-.6-1.2-.2-2.5.1-3.6.4-1.3.4-2.3 1-3.5 1.7-.7.4-1.4.2-2.2.3-.5 0-1 .2-1.5.4-1.8.82-2.9 2.44-3.4 4.26-1.2.1-2.2.6-3 1.4-1.4 1.42-1.4 3.04-1.3 4.86 0 .7 0 1.3-.2 1.9-.1.62-.3 1.13-.5 1.63-.3 1.1-.2 2.12 0 3.23l.9 5.76c-.4.9-.3 2.12.4 3.03.2.2.6.5.9.7.5.4 1 .9 1.4 1.52.5.8 1.1 1.6 1.8 2.32 3 2.92 7.3 3.83 11.4 3.52 2.5-.2 4.8-1 7.3-1.2 1.2-.1 2.4-.1 3.6-.3 1.1-.32 2.1-.72 3-1.22 3.6-1.72 6.9-4.85 7.3-9 0-.8 0-1.5.3-2.2.2-.52.5-1.02.7-1.53.3-1.1-.3-2.42 0-3.63.2-1.1.5-2.22.4-3.43z" stroke="#000" stroke-opacity="0" fill="#33261a"/><path d="M3872.64 7315.5c-3.6-2.22-8.8-3.12-10.6-7.36-.9-2.33-.5-5.15-.5-7.58v-7.37c0-.3-.4-.4-.5-.1-1 1.4-4 1.3-5.5 1.4-1.7.1-3.5.2-5.3.2-3.1 0-6.7.3-9.5-1.2 0-.4-.1-.7-.1-1.12 0-.3-.6-.3-.6 0 0 .4.1.7.1 1.1-.1.02-.1.12-.1.12 0 .1.1.2.1.2.1 1.1.1 2.22.2 3.33.2 2.93.3 5.86.3 8.78.1.92.1 1.93.1 2.84-.9 1.92-2.3 3.74-3.9 5.25-1.3 1.2-2.7 2.3-4.2 3.22-1.1.8-2.5 1.3-3.3 2.53v.2c0 .1.1.1.1.2 3.4 1.62 6.9 3.13 10.5 4.54 3.3 1.2 7.1 2.92 10.8 2.52 1.6-.2 2.9-.9 4.3-1.72 1.7-1 3.4-1.92 5.1-2.82.8-.5 1.6-.9 2.4-1.32 3.3-.2 6.5-1.1 9.5-2.52.6-.3 1.7-.6 2.1-1.2.8-1.02-.8-1.73-1.5-2.13z" stroke="#000" stroke-opacity="0" fill="#b86554"/><path d="M3865.44 7287.74c.2-.8.3-1.62.5-2.52 0-.2 0-.3.1-.5l.3-1.52c0-.3.1-.6.1-.9.1-.82.2-1.53.4-2.23l.3-2.33c.9-6.56 1.4-12.3 1.2-12.82-.8-2.22-2.3-3.23-4-4.54-.3-.3-.6-.5-.9-.7-.3-.2-.5-.4-.8-.62-1.7-1.5-4.2-1.9-6.4-2.02-5.2-.2-10.2 0-14.8 2.53-.7.3-1.3.7-1.9 1.2-.1.1-.3.2-.5.3-.6.62-1.2 1.23-1.7 2.03-.5.7-.8 1.52-.9 2.43-.2 1.2-.1 2.42-.4 3.73v.2c-.2 1-.2 3.74-.1 6.97V7278.75c.1.8.1 1.62.1 2.43.1.7.1 1.5.2 2.22v.6c.1.5.1.9.1 1.42.1.4.1.9.2 1.3.2 1.73.4 3.04.7 4.05.6 2.22 1.6 4.34 3 6.26 1.9 2.52 4.4 4.54 7.4 5.25 1.2.4 2.5.5 3.8.4.8-.1 1.6-.2 2.3-.4.5-.1 1-.2 1.5-.4 1.6-.4 3.1-1.22 4.4-2.23 1.8-1.4 3.2-3.33 4.1-5.55.6-1.5 1.2-3.84 1.7-6.36z" stroke="#000" stroke-opacity="0" fill="#b86554"/><path d="M3869.94 7277.44c-.4-1.5-2.1-2.32-3.1-.8-.1.2.1.4.3.4-.8 1.4-1.3 3.03-1.8 4.64-.3 1.1-1.1 2.93-.8 4.14.5 2.12 3.3-.2 4-1 1.7-2.03 2-4.96 1.4-7.38zM3833.44 7282.7c.5.9 3 3.53 3.8 1.5.4-1.2-.1-3.02-.3-4.23-.2-1.72.1-2.83-.5-4.35.2 0-.2-.6-.3-.9-.8-1.62-2.6-1.02-3.2.4-.9 2.42-1 5.35.5 7.57z" stroke="#000" stroke-opacity="0" fill="#b86554"/><path d="M3860.44 7278.85c.1-.6.2-1.2.1-1.7 0-.3-.1-.62-.3-.82-.6-.6-1.3-.1-1.4.5-.3.8-.3 2.53.4 2.93.7.4 1-.1 1.2-.9zM3844.24 7278.05c.1-.5.2-1.1.1-1.72 0-.3-.2-.5-.3-.7-.6-.6-1.3-.1-1.4.5-.3.8-.3 2.42.4 2.82.8.4 1.1-.1 1.2-.9z" stroke="#000" stroke-opacity="0" fill="#33261a"/><path d="M3868.04 7278.25v-.1c0-.1 0-.1-.1-.2h-.2-.1c-.1 0-.1.1-.1.1-.1 0-.1.1-.1.1V7278.45l-.3 1.2c-.1.42-.5.92-.4 1.33 0 .2.1.3.2.4.2.4.3.7.3 1.1 0 .4-.4 1.73-1 1.42-.4-.1-.7.4-.3.5 1 .5 1.8-.9 1.9-1.8 0-.2 0-.52-.1-.72 0-.3-.4-.6-.4-.9-.1-.3.3-.9.4-1.22l.3-1.5zM3835.94 7282.2c-1-.92-1.2-1.63-.4-2.23l.4-.4c.1-.2.1-.3.1-.5.1-1.02-.4-2.23-.7-3.24-.1-.3-.7-.2-.6.2.2.7.9 2.52.7 3.13-.2.6-.8.8-1 1.4-.2 1.02.4 1.83 1.3 2.13.4.1.5-.4.2-.5zM3857.44 7301.88c-.3-.5-1.4-.2-3.1.5-2.6.9-6.2.1-8.6-1-1.9-.92-3.9-2.64-5.4-4.35.2 3.03.3 5.96.3 8.88h.6c1.2 0 2.4.62 3.6.72 1 0 1.8-.5 2.7-.7 1.2-.4 2.4 0 3.7-.2.9-.1 1.8-.6 2.6-1.12 1-.6 4.2-1.3 3.6-2.73zM3854.14 7284.6c-.2-1.5-.4-3.12-.7-4.64-.1-.4-.7-.3-.6 0 .4 2.02.7 4.14.9 6.16 0 .7.3 1.22-.6 1.62-.6.3-1.5.2-2.1.1-.8-.1-1.4-.1-2.2-.1-.4.1-.4.7 0 .6 1.4-.1 4.6.9 5.4-.7.4-.8 0-2.22-.1-3.03z" stroke="#000" stroke-opacity="0" fill="#9c4736"/><path d="M3839.04 7272.8c.1.6.8.8 1.4.8 1.4.2 2.9 0 4.3 0 .8 0 2.6.3 3.3-.3 1.5-1.2-1.5-2.02-2.3-2.12-1.4-.2-2.8-.2-4.2.1-.5.1-2.7.9-2.5 1.52zM3863.04 7272.3c-1.3-.3-2.8-.4-4.2-.3-.7.1-3.8.7-2.3 2 .6.6 2.4.4 3.2.4 1.5.1 2.9.32 4.4.32.5 0 1.2-.2 1.4-.8.3-.62-1.9-1.53-2.5-1.63z" stroke="#000" stroke-opacity="0" fill="#33261a"/><path d="M3848.54 7291.48c-.6-.1-1.3-.3-1.9-.6-.1 0-1-.2-1.1-.4.2.6.9 1.3 1.3 1.8.9 1.22 1.7 1.62 3.1 1.72 1.6.1 3.5-.1 4.9-1 0 0 1.6-1.12 1.8-2.23-.1.2-2 .6-2.9.8-.8.1-3.4.2-5.2-.1z" stroke="#000" stroke-opacity="0" fill="#9c4736"/><path d="M3879.04 7321.06l-.3-4.14v-.1h-.1l-4.3-1.82c-1.4-.6-7.2-2.12-7.2-2.12s-13 11.1-14.5 11.4c-1.6.3-15.4-10.6-15.4-10.6s-5.7 1.83-7.3 2.94c-2.9 2.12-2.1 5.75-1.9 8.78 2.4 14.64 49.9 12.12 51-4.34z" stroke="#000" stroke-opacity="0" fill="#fff8f0"/><path d="M3831.64 7331.46s.3 1.3.7-1.2c.7-4.96 2.2-15.66 2.1-15.66-.2 0-.4 0-.5.1h-.1c-4.9 1.1-9.6 4.54-14.3 6.56-3.5 1.4-1.3 1.62-1.3 1.62l13.4 8.58zM3886.44 7318.64c-1.7-1.32-3.6-1.92-5.6-2.53-2.5-.7-4.5-.9-6.9-1.6-.6-.2-3.3-.7-3.3-.7 0 6.25-1.2 18.37 0 17.66 8.5-4.85 16.6-10.1 15.8-12.82z" stroke="#000" stroke-opacity="0" fill="#456664"/><path d="M3841.24 7332.77c-.5-1-1-2.02-1.3-3.13l-.1-.1c-.1 0-.1 0-.1-.1h-.2c0 .1-.1.1-.1.1-1 1-1.9 1.92-2.8 3.03-.2.3.2.7.5.4.7-.9 1.5-1.8 2.4-2.62.3.9.7 1.82 1.2 2.72.2.3.7 0 .5-.3zM3867.54 7325.5c-.5-.9-1-1.72-1.5-2.52-.2-.3-.4-.6-.8-.5-.5 0-1 .7-1.3 1-.6.6-1.2 1.32-1.7 2.02-.2.3.2.7.5.4.6-.9 1.3-1.7 2.1-2.52.4-.3.3-.3.7-.1.2.2.3.6.5.8.3.5.7 1.12 1 1.73.2.3.7 0 .5-.3zM3857.84 7335.1c-.5-.9-.9-1.93-1.4-2.73-.2-.2-.4-.5-.8-.4-.4 0-.9.8-1.1 1.1l-2 2.43c-.3.3.2.7.4.4.8-1 1.5-2.22 2.5-3.03.2-.2.1-.3.5-.1.1 0 .3.6.4.8l1 1.83c.2.3.7 0 .5-.3zM3840.14 7319.75c-.3-.7-.7-1.52-1.1-2.23-.2-.4-.6-1.2-1.1-1.2-.5-.1-1 .6-1.3.9-.7.6-1.4 1.3-2 2.12-.3.3.2.7.4.4.4-.5.7-.9 1.1-1.2.3-.4.9-1.12 1.3-1.32.7-.3.9.4 1.2.9.4.62.7 1.22.9 1.83.2.4.7.2.6-.2z" stroke="#000" stroke-opacity="0" fill="#aeb5c2"/><path d="M3869.24 7264.62c-.3-.7-.9-1.3-1.4-2.02-.7-.7-1.3-1.52-2-2.12-1.4-1.4-2.9-2.53-4.7-3.33-3.6-1.52-7.7-1.32-11.4-.6-2.1.5-4.2 1.1-6.3 1.8-1.7.6-3.5 1.12-4.9 2.23-3.5 3.03-2.5 8.18-3.4 12.1v.12h.1c.3 1.1.4 2.22.8 3.23.1.4.4.8.8.7.6-.3.6-1.5.7-2 .1-1.13 0-2.24.3-3.35.4-1 .4-1.92.6-2.93.2-1.3.7-2.22 1.5-3.23 1.3-1.5 2.4-3.23 3.1-5.15.4.1.7.1 1.1.1.9 0 1.8 0 2.6.1 1.8 0 3.7.1 5.5.1 3.6.2 7.1.6 10.7 1.02h.1c2.4 1.1 2.1 4.83 2.4 7.06.2 1.5.4 3.02.8 4.54.1.8 0 1.6 0 2.42-.1.7-.3 1.4-.4 2.12 0 .3 0 .6.3.7.5.5.8-.3.9-.7.2-.5.4-1.1.6-1.72.3-.5.5-1.1.6-1.7.2-1.12.3-2.23.5-3.34.2-1 .3-2.12.5-3.13.1-1 .3-2.02 0-3.03z" stroke="#000" stroke-opacity="0" fill="#33261a"/><path d="M3851.14 7335c27.6 0 50-22.32 50-50 0-27.55-22.4-49.97-50-49.97s-50 22.42-50 49.98c0 27.68 22.4 50 50 50z" stroke="#6c6e83" fill-opacity="0"/><path d="M3861.14 7014.47a21.87 21.87 0 0 1 21.87-21.86h170.74a21.87 21.87 0 0 1 21.87 21.87 21.87 21.87 0 0 1-21.86 21.87H3883a21.87 21.87 0 0 1-21.86-21.87z" stroke="#6c6e83" fill="#fff"/><path d="M3902.48 7004h142.66v21.5h-142.66z" fill="none"/><use xlink:href="#c" transform="matrix(1,0,0,1,3902.4759215627732,7004.006033989769) translate(10.141493055555557 17.07638888888889)"/><use xlink:href="#d" transform="matrix(1,0,0,1,3902.4759215627732,7004.006033989769) translate(83.45746527777777 17.07638888888889)"/><path d="M3851.14 7066.72c27.6 0 50-22.34 50-49.9 0-27.7-22.4-50.03-50-50.03s-50 22.33-50 50c0 27.58 22.4 49.92 50 49.92z" stroke="#6c6e83" fill="#a2c6f6"/><path d="M3850.44 7066.72c-18.8-1.2-32.2-10.97-37.1-18.2 1.2-1.93 4.8-6.96 6.5-8.37 1.5-1.2 3.2-2.2 5.1-2.8 1.8-.62 4.4-.42 4.4-.42h8.2c4.7 0 9.4.1 12.9.3 1.6 0 3.2.1 4.7.1 2.9.1 5.8.2 8.7.4.8.1 1.7.1 2.6.2.3 0 .6.1.9.1.3 0 .6 0 .9.1l.8.1c.5 0 1.1.1 1.7.1 1.3.2 2.6.3 3.8.52.4 0 .8.1 1.3.1s1.1.1 1.6.1c.2.1.5.1.8.2 1.9.3 3.7 1 5.4 2 1.9 1.22 5.3 7.26 5.3 7.26s-4.8 5.64-8.5 8.46c-9.8 7.55-17.7 10.57-30 9.76z" stroke="#000" stroke-opacity="0" fill="#ffa894"/><path d="M3871.14 6999.3c.2-1.92-.2-4.03-.5-5.95-.3-1.6-.3-3.82-1.2-5.33-.8-1.2-2.4-2.1-3.6-2.82-2.8-1.5-5.8-1.3-8.8-.6-2.1-2.42-6-2.52-8.9-.9-1.2.7-1.7 0-3.2.2-1 .1-3.3.3-4.1.8-1.7 1-3 2.82-3.8 4.63-2.2.2-3.7 1.1-4.3 3.42-.4 1.5 0 3.73-.3 5.23-.3 1.4-.8 2.72-.8 4.13 0 1.52.6 2.73 1 4.14.6 1.9.9 3.92.9 6.04-.1 1.2.1 2.5.8 3.62.2.4.5.8.9 1.2.7.6 4.2 4.64 4.2 4.64s1.3-2.42 2.4-2.32c2.6.4 5.4 0 8-.1 2.9 0 5.5-.2 8.1 1.3.4.2.7.5 1.1.7.4.22.8.42 1.3.62 1 .3 1.6 0 2.6-.1 2.1-.2.9.3 2 .9.4.2.9.1 1.3 0 .1-.1.3-.1.4-.2 1.2-.4 2.5-1.4 2.7-2.82.2-1.1-.4-2.1-.3-3.32.1-1.4 1-2.1 1.5-3.42.4-.9.2-1.7 0-2.62.9-1.3.9-3.82.4-5.03-.4-1.2-.8-2-.5-3.32.2-.9.6-1.8.7-2.7z" stroke="#000" stroke-opacity="0" fill="#fad3b1"/><path d="M3865.14 7017c-.9-1.2-1.6-2.2-2-3.72-.3-1.4-.6-2.92-.7-4.32 0-.4-.6-.3-.6.1.1 1.3.3 2.7.6 4.12-1.5 1.5-1.9 3.63-2.5 5.54-.3.8-.6 1.7-.9 2.6.4.22.8.42 1.3.62 1 .3 1.6 0 2.6-.1 2.1-.2.9.3 2 .9.4.2.9.1 1.3 0 .1-.1.3-.1.4-.2 0-.1 0-.2.1-.3.2-1.9-.4-3.72-1.6-5.23z" stroke="#000" stroke-opacity="0" fill="#ebbd94"/><path d="M3869.74 7039.85l-2.9-.8c-.3-.1-.6-.1-.8-.2l-1.5-.4c-1-.3-2.4-.5-3.6-1-.1-.1-.3-.22-.5-.32-.7-.4-1.2-1.1-1.2-2.1v-.1c-.1-2.83 0-5.55.1-8.36v-.1c.1-1 .1-2.02.2-3.02v-.1c-.1-.1-.1-.1-.1-.2h-.1c-.1 0-.1-.1-.2-.1-3 .5-6.1.4-9.2.8-2.7.3-5.4.8-8.1 1.6 0-1.7-.1-3.3-.2-5.02 0-.4-.6-.3-.6.1.2 4.53.3 9.06.4 13.6-.6.8-1.5 1.3-2.5 1.8-.2.1-.4.2-.5.2-.5.2-.9.4-1.4.5-.8.3-1.6.5-2.4.7-.4.1-.8.1-1.2.2h-.1l-.4.1c-.6.2-1.5.2-1.7.9-.2.92 1.3 2.73 1.8 3.54.4.8.9 1.7 1.4 2.5 1.4 2.33 2.9 4.54 4.6 6.76 2 2.7 4.2 5.33 6.5 7.85l.2.2c.1 0 .2 0 .2-.1l1.9-1.3.2-.2c1.3-.92 2.5-1.83 3.7-2.73 1.2-.9 2.4-1.8 3.6-2.72.1-.1.3-.2.4-.3 3.4-2.62 6.7-5.34 9.9-8.05 1.5-1.1 2.9-2.32 4.3-3.52 0-.1 0-.1.1-.2v-.1c0-.1-.1-.1-.1-.2-.1 0-.1-.1-.2-.1z" stroke="#000" stroke-opacity="0" fill="#ffa894"/><path d="M3863.74 6996.88c-.9-1-4.9-1.1-6.1-1.2-2.1-.1-4.1-.1-6.2-.1-4.6 0-9.2.3-13.8 1.3-.1 0-.2.1-.3.1 0 .1-.1.2 0 .4-.1 0-.1 0-.1.1-.1 0-.1 0-.1.1-.4 5.84-.8 16.3.9 22.75 1 3.42 3.8 7.65 6.6 9.76 5.4 4.12 11.6.6 15.2-4.04 4.2-5.43 4.6-12.78 4.7-19.42.1-1.9 0-3.72-.1-5.54 0-1.2.2-3.32-.7-4.22z" stroke="#000" stroke-opacity="0" fill="#ffa894"/><path d="M3858.54 7010.56c.1-.5.1-1.1 0-1.6 0-.3-.1-.6-.3-.8-.5-.5-1.2 0-1.3.6-.3.7-.3 2.3.4 2.7.7.4 1-.1 1.2-.9zM3844.04 7010.26c.2-.5.2-1.1.2-1.6-.1-.3-.2-.6-.3-.8-.5-.62-1.2-.1-1.4.5-.2.7-.3 2.3.4 2.7.6.4 1-.1 1.1-.8z" stroke="#000" stroke-opacity="0" fill="#232c44"/><path d="M3845.34 7031.5c.6.8 1.2 1 2.1 1.1 1.5.1 2.7.9 4.1 1.2 1 .1 1.9-.3 2.8-.3.8-.1 1.5.2 2.3.2 1 0 1.8-.4 2.6-.9 0-2.1 0-4.12.1-6.23-.6.5-3.9 3.72-7 4.63-2.7.8-5.7-.5-7.9-2.02.1.9.4 1.72.9 2.32z" stroke="#000" stroke-opacity="0" fill="#f7886d"/><path d="M3843.84 7004.12c-1.2.1-2.4.3-3.5.9-.2.1-.5.3-.7.4-.2.2-.2.62.1.62 1.7.1 3.4-.2 5.1-.3.6 0 2.2.3 2.5-.5.4-1.42-1.9-1.22-2.6-1.22-.3 0-.6 0-.9.1zM3857.04 7004.23c-.8-.1-3.1-.1-2.6 1.2.3.8 1.9.5 2.5.5 1.7.1 3.4.3 5.1.2.3 0 .3-.4.1-.6-.3-.1-.5-.3-.8-.4-1.1-.6-2.3-.8-3.5-.9h-.8z" stroke="#000" stroke-opacity="0" fill="#fad3b1"/><path d="M3845.04 7021.13s.5 1.6 3.9 2.02c4.1.5 5.4-1.6 5.4-1.6l-9.3-.42z" stroke="#000" stroke-opacity="0" fill="#fff"/><path d="M3850.34 7010.77c0-.4-.6-.5-.6-.1-.2 1.1-.4 2.3-.8 3.52-.2.7-.6 1.4-.7 2.2-.1 1.5 1 1.6 2.1 2.32.3.2.7-.3.4-.5-.3-.2-.8-.3-1.1-.5-1.3-1.02-.5-2.22-.2-3.33.4-1.22.7-2.43.9-3.63z" stroke="#000" stroke-opacity="0" fill="#f7886d"/><path d="M3866.44 7009.86c-.7-2.2-2.2-2-3.6-.4-.3.3.2.6.5.3.1 0 .2-.2.3-.4-.3 1.6-.7 3.12-1.3 4.63-.3.9-1.1 2.3-.8 3.3.6 1.42 3.2-1 3.8-1.5.6-.6 1.5-1.4 1.6-2.42.2-1-.1-2.5-.5-3.52zM3833.74 7011.77c0 1 .8 1.9 1.4 2.62.5.5 2.9 3.1 3.6 1.8.4-.9-.2-2.4-.4-3.32-.4-1.6-.7-3.12-.9-4.73.1.1.2.3.3.4.2.3.7 0 .5-.3-1.2-1.7-2.7-2.1-3.6.1-.5 1-.9 2.42-.9 3.42z" stroke="#000" stroke-opacity="0" fill="#ffa894"/><path d="M3836.94 7010.06v-1.4c-.1-.4-.7-.4-.6 0 0 .7.2 1.5-.1 2.1-.1.4-.4.6-.6 1-.2.82.4 1.52 1 1.93.3.3.7-.22.3-.42-.3-.2-.5-.5-.6-.9-.1-.4 0-.7.4-.9.1-.2.2-.2.2-.4.2-.3 0-.72 0-1.02zM3864.44 7009.46c-.1.8-.4 1.7-.3 2.5 0 .52 1 1.83-.3 1.93-.4.1-.4.7 0 .6.8 0 1.3-.7 1.2-1.52 0-.4-.2-.6-.3-.9-.1-.3.1-.8.1-1.1l.2-1.42c.1-.4-.5-.4-.6-.1z" stroke="#000" stroke-opacity="0" fill="#f7886d"/><path d="M3820.44 7056.76l4.2-12.78c.8-2.1 1.7-4.63 2.1-7.05h4c.6 2.72.8 6.04 1.7 7.15 0 .1 1.1 1.5 2.5 3.12 1.4 1.6 3.1 3.62 4.2 4.73.8.7 1.5 1.5 2.1 2.4.6.92 1.1 1.93 1.6 2.83 1.1 1.7 2.7 2.82 4 4.33.8.9 1.3 1.9 1.7 3.1.9 2.73.6 2.63 2.8 2.73 1.7-1.3 1.4-2.82 2.7-4.43.7-1.1 1.6-2 2.3-3.12.6-1.1 1.1-2.22 1.9-3.22 1.3-1.8 3.1-3.22 4.5-5.03 1-1.3 2-2.92 2.6-4.53.1-.4.3-.8.5-1.2.2-.72.4-1.62.5-2.63.1-1 .2-2 .4-2.92.1-.7.3-1.4.5-2.1l.1-.1c.3 0 .6 0 .8.1.3 0 .6 0 .9.1.5 0 1.1.1 1.7.1v.2c-.1 1.9.9 4.02 1.5 7.24.2 1.2.4 2.3.4 3.5.2 3.13 4 10.48 4 10.48s-3.4 1.8-5.7 2.92c-6.3 3.32-11.7 4.43-19.6 4.63-12.8.3-21.4-3.73-30.9-10.57z" stroke="#000" stroke-opacity="0" fill="#f2e7e1"/><path d="M3872.94 7057.87l-1.8-1.5c-.4-.42-.9-.82-1.2-1.32-.4-.4-.6-1.2-1-1.5-.2-.1-.3-.1-.6-.2-1.1-.2-2-.72-2.7-1.62 2.5-1.5 5-3.22 6.5-5.74 0 0 .1-.1.1-.2-.6-3.23-1.5-5.34-1.5-7.26-1.4.5-2.7 1-4 1.7-.2.92-.3 1.93-.4 2.93-.1 1-.3 1.9-.5 2.62-.2.4-.3.8-.5 1.2-.6 1.6-1.6 3.22-2.6 4.53-1.3 1.8-3.2 3.22-4.5 5.03-.8 1-1.2 2.1-1.9 3.22-.7 1.1-1.6 2-2.3 3.12-1.2 1.5-.7 2.72-2.2 4.02 3.7-1 8.5 1.4 8.2-7.85 1 .7 2.1 1.2 3.2 1.82 1 .5 1.6 1.2 2.4 1.8.6.6 1.3.8 2.1 1.1.9.2 9.7-1.8 5.2-5.93zM3842.14 7056.86c-.4-.9-.8-1.8-1.3-2.62-3.4 1.5-6.7 3.73-8 7.35-.1 0-.1.1-.1.1 0 .1.1.1.1.2l.1.1h.1c2.8.3 5.7 0 8.4-1.1.6-.32 1.1-.62 1.7-.82.7-.2 1.1 0 1.6 0-.9-1-1.9-2-2.6-3.22zM3829.44 7053.24c-2.2.1-4.3 1.3-6.1 2.4-1.2.82-1.7 1.22-3.2 1.52 1.9 1.1 3.2 1.9 6.1 3.63 1.1-1.73 3.4-3.64 4.1-5.55.3-.9.3-2-.9-2zM3860.44 7037.13c-.6 1.72-1.3 3.33-2.1 4.94-.4.8-.9 1.6-1.4 2.4-1.2 1.82-2.6 3.53-4.6 4.54-1.4.6-2.6.6-4 .2-1.2-.4-2.5-1-3.5-1.7-2.1-1.4-3.4-3.72-4.6-5.84h-.1c-.5-1.9-.9-3.72-1.2-5.63v-.1c-.2.1-.4.2-.5.2.2 1.8.5 3.62 1 5.33v.1c.2 2.82 1.1 5.44 2.4 8.05.6 1.32 1.3 2.63 2.1 3.84.7 1.1 1.6 2.1 2.4 3.12.5.6.9 1 1.5 1.4.3.2.7.4 1.1.4 1 .2 2 .1 2.8-.4 2.3-1.1 3.3-3.52 4-5.73v-.2l2.1-7.25c1.1-2.4 2.2-4.83 3.2-7.34l-.6-.3zm-5 14.9c0 .1-.1.2-.1.3-.7 2.22-1.8 4.63-4.1 5.54-1 .4-2.2.4-3.2-.1-.1-.1-.2-.1-.3-.2-1-.7-1.7-1.92-2.5-2.82-1.5-1.9-2.6-4.03-3.6-6.24-.9-1.8-1.5-3.62-1.8-5.63.5 1.6 1.2 3.02 2 4.43 1.5 2.62 4.2 6.04 7.3 7.04 3.1.9 5.1-2.6 6.3-4.83.5-1.1 1.1-2.2 1.6-3.3-.5 1.9-1 3.92-1.6 5.83zm.4-4.73c-1.4 2.72-3.6 8.15-7.4 6.04-4-2.22-6.5-6.24-7.9-10.57 1.1 1.9 2.3 3.72 4.1 5.03 1.1.7 2.4 1.2 3.6 1.7 1.3.42 2.4.42 3.6 0 2-.8 3.6-2.4 4.9-4.1l.3-.62c-.4.9-.8 1.7-1.2 2.52z" stroke="#000" stroke-opacity="0" fill="#fff"/><path d="M3838.94 7024.25c-.6-1.5-1.1-3.02-1.4-4.63-.2-1.2-.8-3.82-1.2-3.72-.3 0-.6 1.4-.6 2-.1.92-.1 1.92-.1 2.83l-.3 2.72c-.1.9-.5 1.8-.6 2.7 0 .12 0 .12.1.22h.1c.6.1 1.2 0 1.8-.2.7-.1 1.4.1 2-.1.3 0 .6 0 .6-.4.1-.4-.3-1.02-.4-1.42zM3867.04 7025.16c-.6-1.5-1-3.02-1.3-4.53-.3-1.3-.9-3.93-1.2-3.82-.4 0-.7 1.4-.7 2.02 0 1 0 1.9-.1 2.82 0 1-.1 1.9-.2 2.8-.1.92-.6 1.83-.6 2.73v.1h.1c.6.2 1.2 0 1.9-.1.6-.2 1.3 0 2-.1.3-.1.5-.1.5-.4.1-.5-.2-1.1-.4-1.5z" stroke="#000" stroke-opacity="0" fill="#3b2b2b"/><path d="M3836.74 7014.7v-.1-.1c-.1 0-.1-.1-.1-.1 0-.1-.1-.1-.1-.2-.1 0-.2-.1-.3-.1-.1 0-.2.1-.2.1-.1.1-.2.1-.2.2-.2.4-.3 1.2.1 1.5.1.1.2.1.3.1.1 0 .2 0 .3-.1.1 0 .2-.1.2-.1 0-.1.1-.2.1-.2v-.5c0-.2 0-.3-.1-.4zM3864.94 7015.8v-.1l-.1-.1v-.1c0-.1-.1-.1-.2-.2 0 0-.1-.1-.2-.1s-.2 0-.3.1c-.1 0-.1.1-.2.2-.2.4-.2 1.2.2 1.5.1.1.2.1.3.1.1 0 .2 0 .3-.1.1 0 .1-.1.2-.1 0-.1 0-.2.1-.3v-.4c-.1-.2-.1-.3-.1-.4z" stroke="#000" stroke-opacity="0" fill="#fff"/><path d="M3866.64 7000.7c-.2-1.6-.3-3.32-.7-4.83-.1-.5-.2-.8-.7-1.1-.9-.5-2.7-.5-3.8-.8-1.4-.2-2.8-.62-4.2-.72-1.4-.2-2.8-.1-4.2-.1-1.7 0-3.4-.2-5.1-.4-2.5-.2-5.2-.5-7.6.4-1.8.7-3.5 2.12-4.2 4.13-.7 2.2-.4 5.03-.4 7.45 0 0-.1 0-.1.1l-.1.1s0 .1.1.1v.1l.1.1v.2c0 .1 0 .1.1.1 0 0 0 .1.1.1h.1c.6.9 1 1.92 1.1 2.92 0 .1 0 .2.1.2 0 .1.1.1.2.1h.1c.1-.1.2-.1.2-.2.8-1.9.2-3.82.4-5.73.2-1.2.6-2.32.7-3.53.1-.7.1-1.52.3-2.22.4.2.8.4 1.3.6 1.4.4 2.5 0 3.9 0 1.1.1 1.8.7 2.9.5 1.3-.4 2.5-.8 3.5-1.7.4.2.8.4 1.1.5 1.9.7 3.9.4 5.1 2.3.6 1.12 1.2 2.23 2.5 2.63.6.2 1.3.4 1.9.5 1 1.82 2.6 3.44 2.5 5.65-.1 1.4-.2 2.52.2 3.93.4 1.4 1.1 2.8 1.3 4.22-.1.2.6 1.9.6 1.5 0-.4 1.2-.3 1.2-.8.8-2.1 1.2-2.9 1.1-5.33-.1-.7-1.2-3.52-1.3-4.23-.1-.9.1-1.8.1-2.7.1-1.32-.2-2.73-.4-4.04z" stroke="#000" stroke-opacity="0" fill="#fad3b1"/><path d="M3838.24 6993.76c-.1-.5-.5-.9-.6-1.4-.2-.6 0-1.22.2-1.82.1-.4-.5-.5-.6-.1-.3 1-.4 1.8 0 2.7.3.62.5 1.12.5 1.83-.1.6-.1 1 0 1.6 0 .4.6.3.6-.1-.2-.9.2-1.8-.1-2.7zM3864.74 6998.6c-.9-1.32-2.2-1.62-3.6-2.23-1-.3-1.7-.9-2.3-1.7-.4-.5-.7-.9-1.2-1.2-.7-.42-1.5-.62-2.3-.62-.8-.1-1.6 0-2.3.3-.4.1-.2.7.2.5.9-.3 1.8-.4 2.8-.1.9.2 1.7.7 2.3 1.42.5.7.9 1.3 1.7 1.7 1 .4 2 .6 3 1.1 1.7 1.12 2 3.13 1.8 5.05-.1.4.5.5.6.1.1-1.5.1-3.02-.7-4.33zM3866.54 6993.56c-.3-1-1-1.92-2-2.52-.9-.6-2-.9-3.1-.8-.4 0-.3.6.1.6 1 0 1.9.2 2.7.7.8.6 1.4 1.4 1.8 2.32.1.3.7.1.5-.3z" stroke="#000" stroke-opacity="0" fill="#ebbd94"/><path d="M3851.14 7066.72c27.6 0 50-22.44 50-50.02 0-27.67-22.4-50-50-50s-50 22.33-50 50c0 27.58 22.4 50.02 50 50.02z" stroke="#6c6e83" fill-opacity="0"/><path d="M4126.65 6995.74a6 6 0 0 1 6-6h120.3a6 6 0 0 1 6 6v38.3a6 6 0 0 1-6 6h-120.3a6 6 0 0 1-6-6z" stroke="#6c6e83" fill="#fff"/><path d="M4152.65 7003.4h89.78v22.24h-89.78z" fill="none"/><use xlink:href="#e" transform="matrix(1,0,0,1,4152.6525410410095,7003.393122708598) translate(0 17.880208333333336)"/><use xlink:href="#f" transform="matrix(1,0,0,1,4152.6525410410095,7003.393122708598) translate(37.852864583333336 17.880208333333336)"/><path d="M4260.2 7014.9h38.8" stroke="#6c6e83" stroke-width="1.5" fill="none"/><path d="M4260.22 7015.64h-.77v-1.5h.77z" stroke="#6c6e83" stroke-width=".05" fill="#6c6e83"/><path d="M4314.02 7014.9l-14.27 4.62v-9.27z" stroke="#6c6e83" stroke-width="1.5" fill="#6c6e83"/><path d="M4316.95 6995.74a6 6 0 0 1 6-6h163.96a6 6 0 0 1 6 6v38.3a6 6 0 0 1-6 6h-163.95a6 6 0 0 1-6-6z" stroke="#6c6e83" fill="#fff"/><path d="M4343.9 7003.4h131.34v23H4343.9z" fill="none"/><use xlink:href="#g" transform="matrix(1,0,0,1,4343.912863433789,7003.393122708643) translate(0 17.880208333333336)"/><use xlink:href="#h" transform="matrix(1,0,0,1,4343.912863433789,7003.393122708643) translate(85.52213541666667 17.880208333333336)"/><path d="M4495.7 7014.06h40.27M4495.72 7014.06h-.77" stroke="#6c6e83" stroke-width="1.5" fill="none"/><path d="M4551 7014.06l-14.28 4.63v-9.28z" stroke="#6c6e83" stroke-width="1.5" fill="#6c6e83"/><path d="M4553.9 6994.9a6 6 0 0 1 6-6h230.4a6 6 0 0 1 6 6v38.3a6 6 0 0 1-6 6h-230.4a6 6 0 0 1-6-6z" stroke="#6c6e83" fill="#fff"/><path d="M4580.2 7002.56h206.63v22.94H4580.2z" fill="none"/><use xlink:href="#i" transform="matrix(1,0,0,1,4580.187809358599,7002.563498131914) translate(0 17.880208333333336)"/><use xlink:href="#j" transform="matrix(1,0,0,1,4580.187809358599,7002.563498131914) translate(61.35026041666667 17.880208333333336)"/><use xlink:href="#k" transform="matrix(1,0,0,1,4580.187809358599,7002.563498131914) translate(77.57421875 17.880208333333336)"/><use xlink:href="#l" transform="matrix(1,0,0,1,4580.187809358599,7002.563498131914) translate(149.52473958333334 17.880208333333336)"/><path d="M4797.55 7014.06h39.16" stroke="#6c6e83" stroke-width="1.5" fill="none"/><path d="M4797.56 7014.8h-.77v-1.5h.76z" stroke="#6c6e83" stroke-width=".05" fill="#6c6e83"/><path d="M4851.73 7014.06l-14.27 4.63v-9.28z" stroke="#6c6e83" stroke-width="1.5" fill="#6c6e83"/><path d="M4856.52 6995.74a6 6 0 0 1 6-6h137a6 6 0 0 1 6 6v38.3a6 6 0 0 1-6 6h-137a6 6 0 0 1-6-6z" stroke="#6c6e83" fill="#fff"/><path d="M4885.48 7003.4h119.04v23h-119.04z" fill="none"/><use xlink:href="#m" transform="matrix(1,0,0,1,4885.485486287843,7003.393122708643) translate(0 17.880208333333336)"/><use xlink:href="#f" transform="matrix(1,0,0,1,4885.485486287843,7003.393122708643) translate(49.55598958333334 17.880208333333336)"/><path d="M4126.65 7265.15a6 6 0 0 1 6-6h395.94a6 6 0 0 1 6 6v38.3a6 6 0 0 1-6 6h-395.95a6 6 0 0 1-6-6z" stroke="#6c6e83" fill="#fff"/><path d="M4161.72 7272.8h340.52v24.3h-340.52z" fill="none"/><use xlink:href="#n" transform="matrix(1,0,0,1,4161.71642371266,7272.800104376218) translate(0 18.880208333333336)"/><use xlink:href="#o" transform="matrix(1,0,0,1,4161.71642371266,7272.800104376218) translate(71.88671875 18.880208333333336)"/><use xlink:href="#p" transform="matrix(1,0,0,1,4161.71642371266,7272.800104376218) translate(137.85807291666666 18.880208333333336)"/><use xlink:href="#q" transform="matrix(1,0,0,1,4161.71642371266,7272.800104376218) translate(242.046875 18.880208333333336)"/><path d="M3761.1 7432a6 6 0 0 1 6-6h1551a6 6 0 0 1 6 6v222.86a6 6 0 0 1-6 6h-1551a6 6 0 0 1-6-6z" fill="#e0e8f5"/><path d="M3782.1 7426h15m7.48 0h14.98m7.5 0h14.98m7.5 0h14.98m7.5 0H3887m7.5 0h14.98m7.5 0h14.97m7.5 0h14.98m7.5 0h14.98m7.5 0h15m7.48 0h15m7.48 0h15m7.48 0h14.98m7.5 0h14.98m7.5 0h14.98m7.5 0h14.98m7.5 0h14.98m7.5 0h14.98m7.5 0h14.97m7.5 0h14.97m7.5 0h14.98m7.5 0h14.98m7.5 0h14.98m7.5 0h14.98m7.5 0h14.98m7.5 0h14.98m7.5 0h14.98m7.5 0H4404m7.5 0h14.98m7.5 0h14.98m7.5 0h14.97m7.5 0h14.98m7.5 0h15m7.48 0h15m7.48 0h15m7.48 0h14.98m7.5 0h14.98m7.5 0h14.98m7.5 0h14.98m7.5 0h14.98m7.5 0h14.98m7.5 0h14.97m7.5 0h14.97m7.5 0h14.98m7.5 0h14.98m7.5 0h14.98m7.5 0h14.98m7.5 0h14.98m7.5 0h14.98m7.5 0h14.98m7.5 0H4921m7.5 0h14.98m7.5 0h14.98m7.5 0h14.97m7.5 0h14.98m7.5 0h15m7.48 0h15m7.48 0h15m7.48 0h14.98m7.5 0h14.98m7.5 0h14.98m7.5 0h14.98m7.5 0h14.98m7.5 0h14.98m7.5 0h14.97m7.5 0h14.97m7.5 0h14.98m7.5 0h14.98m7.5 0h7.48l.95.1.92.2.87.37.8.5.72.6.6.7.5.82.36.86.22.9.07.95v7.44m0 7.43v14.86m0 7.42V7484m0 7.44v14.86m0 7.42v14.86m0 7.43v14.87m0 7.43v14.85m0 7.43v14.86m0 7.43v14.85m0 7.43V7640m0 7.44v7.42l-.06.94-.22.92-.36.87-.5.8-.6.7-.72.62-.8.5-.87.35-.92.22-.94.06h-7.48m-7.5 0h-14.98m-7.5 0h-14.98m-7.5 0h-14.97m-7.5 0h-15m-7.48 0h-15m-7.48 0h-15m-7.48 0h-15m-7.48 0h-14.98m-7.5 0h-14.98m-7.5 0h-14.98m-7.5 0h-14.98m-7.5 0h-14.98m-7.5 0h-14.98m-7.5 0h-14.97m-7.5 0h-14.98m-7.5 0h-14.98m-7.5 0h-14.98m-7.5 0h-15m-7.48 0h-15m-7.48 0h-14.98m-7.5 0h-14.98m-7.5 0h-14.98m-7.5 0h-14.98m-7.5 0h-14.98m-7.5 0h-14.98m-7.5 0h-14.97m-7.5 0h-15m-7.48 0h-15m-7.48 0h-15m-7.48 0h-15m-7.48 0h-14.98m-7.5 0h-14.98m-7.5 0h-14.98m-7.5 0h-14.98m-7.5 0h-14.98m-7.5 0h-14.98m-7.5 0h-14.97m-7.5 0h-14.98m-7.5 0h-14.98m-7.5 0h-14.98m-7.5 0h-15m-7.48 0h-15m-7.48 0h-14.98m-7.5 0h-14.98m-7.5 0h-14.98m-7.5 0h-14.98m-7.5 0h-14.98m-7.5 0h-14.98m-7.5 0h-14.97m-7.5 0h-15m-7.48 0h-15m-7.48 0h-15m-7.48 0h-15m-7.48 0h-14.98m-7.5 0h-14.98m-7.5 0h-14.98m-7.5 0h-14.98m-7.5 0h-14.98m-7.5 0h-14.98m-7.5 0h-14.97m-7.5 0h-14.98m-7.5 0h-14.98m-7.5 0h-14.98m-7.5 0h-15m-7.48 0h-15m-7.48 0h-14.98m-7.5 0h-14.98m-7.5 0h-14.98m-7.5 0h-7.5l-.92-.07-.92-.23-.87-.36-.8-.48-.73-.6-.6-.73-.5-.8-.36-.88-.2-.92-.1-.94v-7.42m0-7.43v-14.85m0-7.43v-14.86m0-7.42v-14.86m0-7.43v-14.85m0-7.43V7536m0-7.42v-14.86m0-7.42v-14.86m0-7.43v-14.85m0-7.42v-14.86m0-7.43V7432l.1-.93.2-.9.37-.88.5-.82.6-.7.72-.62.8-.5.86-.35.92-.2.93-.1h7.5" stroke="#2f3564" stroke-width="1.5" fill="none"/><path d="M4126.65 7524.3a6 6 0 0 1 6-6h181.7a6 6 0 0 1 6 6v38.3a6 6 0 0 1-6 6h-181.7a6 6 0 0 1-6-6z" stroke="#6c6e83" fill="#fff"/><path d="M4165.26 7531.94h132.78v21.96h-132.78z" fill="none"/><use xlink:href="#r" transform="matrix(1,0,0,1,4165.260325902187,7531.942036182092) translate(0 17.380208333333336)"/><use xlink:href="#s" transform="matrix(1,0,0,1,4165.260325902187,7531.942036182092) translate(59.372395833333336 17.380208333333336)"/><path d="M3868 7543.44a19.5 19.5 0 0 1 19.5-19.5h101a19.5 19.5 0 0 1 19.5 19.5 19.5 19.5 0 0 1-19.5 19.5h-101a19.5 19.5 0 0 1-19.5-19.5z" stroke="#6c6e83" fill="#fff"/><path d="M3920.65 7532.23h63.67v22.42h-63.67z" fill="none"/><use xlink:href="#t" transform="matrix(1,0,0,1,3920.6522775234553,7532.230693000356) translate(0 17.57638888888889)"/><path d="M3852 7593.06c27.6 0 50-22.34 50-49.92 0-27.7-22.4-50.03-50-50.03s-50 22.35-50 50.04c0 27.58 22.4 49.92 50 49.92z" stroke="#6c6e83" fill="#a2c6f6"/><path d="M3851.9 7494.22c27 0 48.8 21.84 48.8 48.8 0 27-21.8 48.83-48.8 48.83-26.9 0-48.7-21.84-48.7-48.82 0-26.97 21.8-48.8 48.7-48.8z" stroke="#000" stroke-opacity="0" fill="#a2c6f6"/><path d="M3868 7574.54c.1.2.2.4.3.7.1.3.3.5.4.8 1.5 3.64 3 7.16 4.7 10.78.3.6.2.9.5 1.5 8.2-5.22 14.7-10.96 14.7-10.96s-.7-1.1-2.7-3.32c-1.6-1.9-3.5-3.63-5.5-5.14-4.2-2.9-9.1-5.03-14.2-5.13 0 0 0 .1-.1.2 0 .1-.1.3-.1.5 0 0 0 .1-.1.1 0 .2 0 .3-.1.5 0 .1-.1.3-.1.5v.1c.2 1.12.3 2.83.5 3.94.3 1.72 1.1 3.33 1.8 4.94z" stroke="#000" stroke-opacity="0" fill="#456664"/><path d="M3867.4 7565.08l-2.7.8-.7.2c-3.1 1-.9 5.04-3.3 5.74-.3.1-1.1 0-2.2-.3-2.6-.6-6.3-1.9-6.3-1.8 0 0-.4-.2-1.1-.4-1.6-.42-4.7-1.42-7.6-2.33l-3.6-1.22-.8-.2-1.7-.6 1.1-.5.5-.3h.1l1.5-.7 2.3-1.12s8.1 2.92 8.4 2.82c.2 0 7-3.32 7-3.32l6 2.1.1.1.5.2 1 .32.3.1 1.2.4z" stroke="#000" stroke-opacity="0" fill="#ffa894"/><path d="M3861.2 7511.73c-.1-1-.9-1.7-1.2-2.72-.3-1.1 0-2.3 0-3.4 0-.2.1-.4 0-.5 0-1.42-.4-2.73-1.7-3.54-1.1-.8-2.3-1.1-3.6-.9-.9.2-1.5.8-2.3 1.2-.4.2-.7.4-1 .7-.7.3-1.3.5-2 .72-1.1.2-2.1.6-2.8 1.6-.8 1.2-.9 3.03-1.2 4.43-.3 1.02-.4 2.03-.5 3.03v.3c-.1.7-.1 1.52.1 2.22.1.2.1.5.3.7.5 1.1 1.6 1.72 3 1.62.8 0 1.6-.2 2.4-.3 1.2-.1 2 .6 3.1.8h.1c.4.1.8.1 1.2.1.3 0 .5-.1.8-.1 0 0 .1-.1.2-.1 1.2-.3 2.4-1 3.4-1.9 1.1-1.12 1.9-2.53 1.7-3.94z" stroke="#000" stroke-opacity="0" fill="#db6e56"/><path d="M3861.2 7511.73c-.1-1-.9-1.7-1.2-2.72-.3-1.1 0-2.3 0-3.4 0-.2.1-.4 0-.5-.2.9-.5 1.8-.9 2.6-1 2.12-2.5 2.92-4.8 2.82-1.3-.1-2.1.1-3 1-1.4 1.22-4.6 2.12-6.4.8v.32c-.1.7-.1 1.5.1 2.2.1.2.1.5.3.72.5 1.1 1.6 1.7 3 1.6.8 0 1.6-.3 2.4-.3 1.2-.1 2 .5 3.1.8h1.3c.2 0 .5-.1.8-.1h.2c1.2-.3 2.4-1 3.4-1.9 1.1-1.1 1.9-2.52 1.7-3.93z" stroke="#000" stroke-opacity="0" fill="#c2563e"/><path d="M3868.3 7524.4c-.2-.9-.7-1.8-1.3-2.6-.2-.1-.3-.2-.4-.3-.5-.5-.6-.7-.8-1.4-.2-.42-.2-.72-.4-1.12-.5-.7-1.3-1.2-2.1-1.5-1.3-.6-2.6-1.12-3.8-1.82h-.1c-1.8-1-3.6-1.2-5.5-.7-.6-.3-1.2-.5-1.8-.5-1.3-.1-2.6.3-3.8.6-1 .2-2 .3-3 .5-.5.1-.9.1-1.4.3-4.8 1.3-6.8 6.24-7.5 10.77-.5.9-1 1.6-1.2 2.6-.1 1.02 0 2.03-.1 3.04-.2 1.3-.2 2.3.1 3.52.2.6.4 1.1.6 1.6.1.1.2.3.2.4.2 1 .7 1.8 1.3 2.42.3.5.5 1 .7 1.4 0 .2.1.4.2.6 0 .1 0 .1.1.2H3838.6c.1 0 .1-.1.2-.1v-.1-.1-.1l-.1-.1c0-.2-.1-.4-.2-.6l.2.2c.1 0 .2.1.2.2l.1.1c.4.2.7.5 1 .8 1.5 1.22 3 2.53 4.7 3.44 4.1 2.4 8.6 3.52 13.2 1.9 1.7-.5 3.3-1.4 4.8-2.5.4-.4.9-.8 1.3-1.22.2-.2.5-.4.7-.7.2-.2.4-.4.6-.7.7-.9 1.4-1.92 1.9-2.93.1-.3.2-.5.2-.7.7-2 .2-4.02.9-6.03.5-1.5.5-3.02.2-4.53.3-1.4.2-2.82-.2-4.23z" stroke="#000" stroke-opacity="0" fill="#db6e56"/><path d="M3856.1 7552.7c-1.5.1-3 .1-4.6-.2-1.7-.3-3.3-.8-4.9-1.4-.7-.2-1.4-.52-1.9-1.02-.5-.4-.7-1.1-1.1-1.6-.2-.2-.5-.1-.5.2 0 1.9-.1 3.82-.1 5.73v.1c-.1 2.23-.1 4.44-.2 6.65V7562.35c0 1.12 0 2.13-.1 3.13v1.2c0 1.22 0 2.43-.1 3.53 0 .1.1.2.1.2 0 .12.1.12.1.12 3.8 1.4 7.5 14 11.4 13.9.9 0 3.3-8.07 4.2-8.17.5-.1 2.8-2.82 2.8-2.82l-1.8-5.94v-1.72l.2-3.42.3-7.35.2-2.9s-3 .5-4 .6z" stroke="#000" stroke-opacity="0" fill="#ffa894"/><path d="M3838.8 7526.43c1-.9 5.4-3.93 6.6-3.93 2.1-.1 6.3-1 8.3-.9 4.7.1 7.7 2 10.4 4.93.2.2.4.3.4.5 0 0 .1 0 .1.1v.1c.4 5.54.2 16.1-1.6 22.15-1 3.22-3.7 7.14-6.7 8.95-6.1 3.73-9.8.6-13.3-3.82-4.2-5.32-4.1-11.06-4.7-17.9-.1-1.72-.4-9.27.5-10.17z" stroke="#000" stroke-opacity="0" fill="#ffa894"/><path d="M3844.3 7539.1c-.1-.5-.1-1.1-.1-1.6.1-.3.2-.5.4-.7.5-.6 1.1 0 1.3.5.2.7.2 2.3-.5 2.6-.7.42-1-.1-1.1-.8zM3857.1 7539.1c-.1-.5-.1-1.1 0-1.6 0-.3.1-.5.3-.7.5-.6 1.2-.1 1.3.5.2.7.2 2.2-.4 2.6-.7.42-1-.1-1.2-.8z" stroke="#000" stroke-opacity="0" fill="#232c44"/><path d="M3840 7540.32c-.1-.8-.2-1.6-.5-2.32v-.1c-.2-.3-.4-.5-.6-.7 0-.1 0-.1-.1-.2 0 0-.1 0-.1-.1-.1 0-.1 0-.2.1l-.2-.2c-.1 0-.2-.1-.3-.2-.8-.4-1.7-.3-2.2.8 0 .1-.1.3-.1.4-.6 2.32-.2 5.23 1.4 7.05.2.2.4.5.7.8.3.3.7.6 1.1.9.1.1.3.2.5.2.4 0 .6-.3.6-1.3v-2.82-2.3z" stroke="#000" stroke-opacity="0" fill="#ffa894"/><path d="M3847.5 7549.48s1 1.1 1.7 1.4c.8.2 1.6.6 2.4.5.9 0 1.9-.3 2.7-.7.5-.3 1.6-1.3 1.6-1.3l-8.4.1z" stroke="#000" stroke-opacity="0" fill="#ad4444"/><path d="M3856 7557.93c-2.1 1.5-5.1 1.7-7.5.6-2.1-1-3.7-2.3-5.5-4.02-.1 2.23-.1 4.44-.2 6.65v.1c.9.2 1.7.5 2.6.6 1.5.1 2.7-.8 4.1-.8 1.3.1 2.5.4 3.7-.3 1-.5 1.9-1.3 2.6-2.1.1-.2.3-.4.4-.52.1-.1-.1-.3-.2-.2z" stroke="#000" stroke-opacity="0" fill="#f7886d"/><path d="M3848.9 7533.98c-.2-.7-1.1-.9-1.6-1-2.2-.5-4.8.2-6.4 1.7-.4.3.9.2 1 .2 1.4-.3 2.7-.3 4.1-.3h2c.4 0 1-.1.9-.6zM3862.4 7535.08c-1.6-1.6-4.2-2.3-6.4-1.9-.5.1-1.5.3-1.6.9-.2.5.4.6.8.7h2c1.4.1 2.8.2 4.1.5.1 0 1.4.2 1.1-.2z" stroke="#000" stroke-opacity="0" fill="#db6e56"/><path d="M3838.8 7543.94c-.5-.2-1.4-1.9-.1-1.9h.1s.1 0 .1-.1c0 0 0-.1.1-.1v-.1c-.3-1.32-.6-2.63-.8-3.84-.1-.4-.6-.3-.6.1.2 1.2.5 2.32.7 3.53-1.4.3-.9 2.5.3 3.02.4.1.5-.4.2-.6z" stroke="#000" stroke-opacity="0" fill="#f7886d"/><path d="M3867.4 7539.2c0-.3 0-.5-.1-.8-.4-1.6-1.6-1.7-2.6-1.1 0 .1 0 .1-.1.1l-.1.1c-.1-.1-.1-.1-.2 0h-.1c-.3.3-.5.6-.7.9v.1c-.4.7-.5 1.4-.6 2.22-.1 1.6-.2 3.22-.2 4.73 0 .2-.1.3-.1.5 0 1.1.4 1.4.9 1.2.2-.1.4-.2.5-.3.4-.2.7-.5 1-.8l.6-.6c1.5-1.6 2.1-4.13 1.8-6.24z" stroke="#000" stroke-opacity="0" fill="#ffa894"/><path d="M3863.9 7544.44c.5-.1 1.5-1.8.3-1.9h-.2s0-.1-.1-.1v-.1-.1l.9-3.84c.1-.4.6-.2.5.2-.2 1.1-.5 2.32-.8 3.43 1.4.4.8 2.62-.4 3.02-.4.1-.5-.4-.2-.6zM3851.8 7545.75c-1.8-.8-.9-2.4-.7-3.82l.6-3.93c0-.3-.6-.4-.6 0-.2 1.1-.3 2.12-.5 3.22-.1 1-.6 2.12-.7 3.12 0 1 .9 1.6 1.8 2.02.3.1.5-.4.1-.6z" stroke="#000" stroke-opacity="0" fill="#f7886d"/><path d="M3865.3 7531.06c-.1-1.82-.1-3.93-.9-5.64-1-2.4-3.5-3.72-6-4.23-.2-.1-.4-.1-.6-.1-.5-.1-1.1-.2-1.7-.3h-1.1c-2.4 0-4.7.3-7 .7-2.1.3-4.2.8-6.1 1.7-.4.2-.7.4-1.1.5-.2.2-.5.3-.8.5-.9.52-1.8 1.22-2.1 2.33-.6 1.8-.6 7.95.1 10.06.1.4.2.6.4.8H3838.7l.2-.2c.4-.5.4-1.5.5-2.12.1-1.7 0-3.22.6-4.83.5-1.5 1.3-2.92 2.2-4.23 1-1.5 1.9-2.8 3.8-3.12 1.4-.2 3-.1 4.4-.2 1.2-.1 2.5-.2 3.7-.1 1.2.2 2.2.7 3.4 1 1.9.6 4.2.6 5.3 2.63.9 1.5.7 3.62.8 5.23l.6 5.74v.2l.1.1H3864.6c.1 0 .1-.1.1-.1.8-1.9.6-4.33.6-6.34z" stroke="#000" stroke-opacity="0" fill="#db6e56"/><path d="M3856.4 7518.98c-.1-.6-.3-1.1-.7-1.6-.4-.52-1.6-1.22-1.5-1.93.1-.4-.5-.4-.6 0 0 .7.3 1.1.8 1.52 1.4 1.2 2 2.8.7 4.42-.2.3.2.7.4.4.7-.8 1-1.7.9-2.82zM3857.9 7518.88c-.2-.3-.7-.1-.5.3.2.3.3.7.4 1.1.1.3 0 .7 0 1.1-.1.42.4.62.5.22.1-.5.2-.9.1-1.4-.1-.52-.3-.92-.5-1.32zM3841.1 7526.73c-1.6-.7-.2-2.52-.2-3.52 0-.5-.2-.7-.3-1.1-.4-1.1-.4-2.12.2-3.22.1-.4-.4-.7-.5-.3-.4.7-.7 1.5-.6 2.3 0 1.12.7 1.92.4 3.03-.3 1.12-.7 2.73.7 3.33.3.2.6-.3.3-.5zM3852.7 7508.2c-1-1.3-.8-3.3-.4-4.92 0-.3-.5-.5-.6-.1-.4 1.8-.6 3.92.5 5.43.3.3.7-.1.5-.4z" stroke="#000" stroke-opacity="0" fill="#c2563e"/><path d="M3868.7 7567.4c-.1-.6-.9-3.83-2.1-2.92-.1.1-.3.1-.4.2-.1 0-.2.1-.2.1v-.2h-.1l-1-.3-.5-.2-.1-.1c-1.1.8-11 16.6-11 16.6s-12.6-17.1-12.7-17.1c-.3-.1-1.2.2-1.8.4-.2.1-.5.2-.5.2-.2.1-.4.2-.6.2l-1.1.4-.4.2c-.5.2-1 .4-1.1.9v.1c0 .2 0 .4.1.7 0 .2.1.3.2.5.1.52.2 1.02.4 1.52.3 1 .7 2 1 3.02.4 1.1.9 2.32 1.3 3.42 1.1 2.92 2.3 5.74 3.4 8.56 5.6 9.56-.9 10.77 25.1 7.15 1.4-4.03.2 1.7.7-2.52.1-.6.1-1.2.2-1.8 0-1.12.1-2.33.1-3.53v-.8c.1-.82.1-1.62.1-2.43.1-1.7.1-3.42.3-5.13.1-.4.1-.7.1-1 .1-.8.3-1.52.4-2.32.1-.4.1-.7.2-1.1.1-.9.1-1.82 0-2.73z" stroke="#000" stroke-opacity="0" fill="#fff8f0"/><path d="M3845.9 7593.16c-1.2-4.83-.5-2.1-1.6-6.54-.6-2.62-1.5-5.13-2-7.75-.2-.7-.3-1.5-.4-2.32-1.2-3.12-2.7-6.74-3.5-7.95-.8-1.1-1.7-2.62-1.8-4.02-.3 0-.5 0-.7.1-.3.1-.6.2-.9.2-.2.1-.5.2-.7.2-1.4.4-2.9.8-4.4 1.3-.2 0-.5.1-.7.2-1.1.3-2.1.7-3.1 1.12-2 .8-4 1.7-5.9 2.9-1.2.82-8.8 8.17-5.7 5.95 0 0 18 16.9 31.4 16.6zM3883.2 7581.5c0-4.34-.2-8.87-4-11.7-3.8-2.9-8.4-4.72-13.1-5.83l-.3 1c-.5 1.92-.4 3.73-.7 5.64-.3 2.53-1.2 4.85-2 7.06-.4 4.83-.5 9.56-.8 14.3 12.9-2.42 20.9-9.77 20.9-10.47z" stroke="#000" stroke-opacity="0" fill="#456664"/><path d="M3863.2 7578.47c.1 3.52 2.2 6.54 5 8.55 1.6 1.2 2.7 1.8 4.5 2.52.5.2-.1-.4.4-.4-.3-.3 1 .3.7 0-3.4-3.63-7.2-7.05-10.6-10.67zM3878 7580.58c.3-2.82.6-6.04.2-8.86-1.5 1-2.7 4.93-3.1 6.55-1.1-3.43-2.9-7.86-5.5-10.47h-.1c.8 4.12 2 8.25 3.3 12.28.6 2.1 2.3 7.75 2.3 7.75l1.3-.3s1.3-5.04 1.6-6.95zM3878.7 7579.77c-.3 2.62-1.7 6.14.1 6.14 1.1-2 2.6-3.1 2.6-5.42.1-1.7-.2-3.42-.8-5.03-.1-.4-1.1-2.62-1.7-3.53.3 2.62.1 5.34-.2 7.85zM3872 7579.77c-1.1-3.72-2.2-7.44-3-11.27-1.2 4.33-.6 8.96 1.6 12.9-2.2-1.42-4.6-2.63-7-3.54-.1-.1-.1-.1-.2-.1 3.4 3.63 7.1 6.95 10.5 10.47.3.3-.3-.2 0 .1-.1-.4.7.1.5-.3-.8-2.72-1.5-5.54-2.4-8.26zM3836.1 7580.98c-.1 0-.1 0-.1-.1-2.2-2.92-3.3-7.55-3.8-11.17-.6 1.52-2.5 5.34-4.1 6.05.1-2.92.8-6.04 1.6-8.66.1-.3.2-.5.2-.7 1.5-.5 3-.92 4.4-1.32.2 1.1.3 2.1.5 3.22.6 4.23 1.1 8.46 1.3 12.68zM3829.2 7566.6c-.1.4-.3.8-.4 1.1-.6 2.4-1.2 5.13-1.3 7.75-.5-1-1.1-3.32-1.2-3.73-.3-1.3-.3-2.72-.2-4.02 1-.4 2-.8 3.1-1.1zM3838.1 7568.2c-.7-1.1-1.4-2.3-1.5-3.62-.3 0-.5 0-.7.1-.3.1-.6.2-.9.2.1 1.3.3 2.6.5 3.82.5 3.93 1 7.75 1.2 11.68 1.9-4.13 2-8.76.4-13 .4.32.7.52 1 .82z" stroke="#000" stroke-opacity="0" fill="#232c44"/><path d="M3865 7546.06c-.1 0-.2-.1-.3-.2 0-.1-.1-.1-.2-.1h-.2l-.2.2v.2l-.1.7-.2 6.95c0 .1 0 .1.1.2 0 .1 0 .1.1.1 0 .1.1.1.2.1h.2c.9-.4 2.7-1.5 2.7-4.02 0-1.7-1.2-3.22-2.1-4.13zM3838.9 7546.56l-.1-1s-.1-.1-.1-.2c-.1 0-.1-.1-.2-.1h-.2c-.1 0-.1.1-.2.1l-.3.3c-.8 1-1.9 2.5-1.8 4.12.2 2.52 2 3.52 3 3.93h.2c.1 0 .1-.1.2-.1 0 0 .1-.1.1-.2v-.1l-.6-6.74z" stroke="#000" stroke-opacity="0" fill="#f2e7e1"/><path d="M3837.6 7547.77c-.8.4-1 1.7-.8 2.5.2 1.02 1.5 1.52 1.8.3.1-.5.1-3.4-1-2.8zM3865.4 7548.37c-1.2-.4-1 2.42-.9 2.92.4 1.2 1.7.7 1.8-.3.2-.92-.1-2.23-.9-2.63z" stroke="#000" stroke-opacity="0" fill="#a2c6f6"/><path d="M3862.3 7563.27c0 .2 0 .4-.1.6 0 .4-.1.8-.2 1.1-.9 4.64-2.7 8.97-4.1 13.4-.9 2.5-1.5 5.13-1.9 7.85-.1.8-.2 1.6-.4 2.4l-.3-.1c-.3-.1-.4.4-.1.52l.3.1c-.2.5-.3 1.1-.6 1.6l-.6-.2h-.1c-.1 0-.1 0-.1.1h-.1v.1l-.1.1v.2c.1.3.2.7.4 1.02-.3.5-.5.9-.8 1.3h-.2s0 .1-.1.1c0 .1-.1.2-.1.3-.2-.6-.3-1.2-.5-1.9.2-.1.4-.3.6-.5.2-.2-.2-.6-.4-.3l-.3.3c-.1-.5-.2-1.02-.4-1.42l.6-.6c.3-.2-.1-.5-.3-.3-.1.1-.3.2-.4.3-.2-.9-.5-1.9-.8-2.82.3-.1.4-.3.6-.6.1-.2.1-.5.1-.7-.1-.3-.2-.5-.4-.7l-.6-.32h-.2-.2c-2.1-6.74-4.8-13.28-8.2-19.42-.2-.4-.6-1.1-.9-1.6-.2.1-.4.1-.4.2.2.3.5.9.6 1.2 3.5 6.24 6.3 12.88 8.5 19.83-.2.1-.4.3-.5.5-.1.2-.2.4-.2.7 0 .72.7 1.12 1.4 1.02.3 1.1.6 2.1.8 3.12-.3.3-.5.6-.8 1-.2.2.2.5.4.3.1-.3.4-.5.6-.7l.3 1.4c-.2.32-.3.52-.5.82-.2.2.3.4.4.2.1-.1.2-.3.3-.4.1.7.1.7.3 1.4 1.4 0 .4-.1 1.3-.1.2-.3.4-.7.6-1 0 .2.1.7.3.9.2.2.4.1.5 0 .4-.3.7-.7 1-1 .2-.3 1.1-1 .6-1.4-.3-.2-.8-.2-1.1-.3l-.5-.1.6-1.52.6.2c.3.1.4-.3.1-.4-.2-.1-.4-.2-.6-.2.2-.6.3-1.1.4-1.72.4-2.8 1-5.53 1.8-8.25 1.5-4.63 3.5-9.26 4.4-14.1 0-.3.1-.6.1-.9.1-.2.1-.3.1-.4l-.5-.2zm-12.4 22.34c0-.2 0-.3.1-.4 0-.2.1-.3.2-.4.2.5.3.9.4 1.42-.3 0-.7-.2-.7-.6zm1.2.42c-.1-.4-.3-.9-.4-1.3.7 0 .9.9.4 1.3zm3.4 5.03l.2.1c0 .1-.1.2-.1.3-.1-.1-.1-.2-.1-.4zm2 .5l-.7.7c-.1.1-.5.7-.7.9l-.3-1.1c.1-.3.2-.6.3-.8h.2c.2.1 1.2.2 1.2.3z" stroke="#000" stroke-opacity="0" fill="#fad3b1"/><path d="M3852 7593.06c27.6 0 50-22.34 50-49.92 0-27.7-22.4-50.03-50-50.03s-50 22.35-50 50.04c0 27.58 22.4 49.92 50 49.92z" stroke="#6c6e83" fill-opacity="0"/><path d="M5006.27 7016.18h41M5006.3 7016.18h-.78" stroke="#6c6e83" stroke-width="1.5" fill="none"/><path d="M5062.28 7016.18l-14.26 4.63v-9.26z" stroke="#6c6e83" stroke-width="1.5" fill="#6c6e83"/><path d="M5065.2 6994.9a6 6 0 0 1 6-6h205a6 6 0 0 1 6 6v38.3a6 6 0 0 1-6 6h-205a6 6 0 0 1-6-6z" stroke="#6c6e83" fill="#fff"/><path d="M5104.56 6992.56h161.73v22.94h-161.74z" fill="none"/><g><use xlink:href="#u" transform="matrix(1,0,0,1,5104.559614534731,6992.5634981319145) translate(0 17.317708333333336)"/><use xlink:href="#v" transform="matrix(1,0,0,1,5104.559614534731,6992.5634981319145) translate(78.54947916666667 17.317708333333336)"/><use xlink:href="#w" transform="matrix(1,0,0,1,5104.559614534731,6992.5634981319145) translate(100.39713541666667 17.317708333333336)"/><use xlink:href="#x" transform="matrix(1,0,0,1,5104.559614534731,6992.5634981319145) translate(0 39.19270833333334)"/><use xlink:href="#y" transform="matrix(1,0,0,1,5104.559614534731,6992.5634981319145) translate(43.61328125 39.19270833333334)"/></g><defs><path fill="#172b4d" d="M375 0H183v-1456h192V0" id="z"/><path fill="#172b4d" d="M688-137c238 0 323-102 359-325h193c-32 297-228 482-552 482-361 0-569-299-569-680 0-197 8-360 73-497 88-186 257-317 513-319 316-2 509 195 535 488h-193c-31-212-118-330-342-330-272 0-397 224-393 523v141c-3 282 115 517 376 517" id="A"/><g id="a"><use transform="matrix(0.009114583333333334,0,0,0.009114583333333334,0,0)" xlink:href="#z"/><use transform="matrix(0.009114583333333334,0,0,0.009114583333333334,5.076822916666667,0)" xlink:href="#A"/></g><path fill="#172b4d" d="M561-1102c238-4 403 126 403 351v498c0 99 13 178 38 237V0H808c-11-21-19-59-26-114C696-25 593 20 474 20c-199 0-368-130-365-320 4-251 214-359 490-356h180v-85c-1-135-86-212-229-212-115 0-232 67-233 171H131c20-205 206-316 430-320zM294-326c0 117 90 185 207 185 122 0 239-75 278-162v-222H634c-227 0-340 66-340 199" id="B"/><path fill="#172b4d" d="M520 20C244 20 95-247 95-550c0-298 151-550 427-552 127 0 227 43 301 130v-564h185V0H838l-9-116C755-25 652 20 520 20zm48-965c-210 0-288 177-288 416 0 218 87 392 286 392 117 0 203-53 257-158v-497c-55-102-140-153-255-153" id="C"/><path fill="#172b4d" d="M1240-945c-141 0-250 95-250 227V0H804v-709c0-157-77-236-231-236-121 0-204 52-249 155V0H139v-1082h175l5 120c79-93 186-140 321-140 151 0 254 58 309 174 69-98 181-174 345-174 237 0 362 126 362 377V0h-185v-714c-2-159-67-231-231-231" id="D"/><path fill="#172b4d" d="M341 0H156v-1082h185V0zm-91-1264c-68 0-108-42-109-105 0-62 41-107 109-107s110 44 110 107-42 105-110 105" id="E"/><path fill="#172b4d" d="M589-945c-131 0-219 81-264 174V0H140v-1082h175l6 136c83-104 191-156 324-156 229 0 346 129 346 387V0H806v-716c-2-153-65-229-217-229" id="F"/><g id="b"><use transform="matrix(0.009114583333333334,0,0,0.009114583333333334,0,0)" xlink:href="#B"/><use transform="matrix(0.009114583333333334,0,0,0.009114583333333334,10.153645833333334,0)" xlink:href="#C"/><use transform="matrix(0.009114583333333334,0,0,0.009114583333333334,20.680989583333336,0)" xlink:href="#D"/><use transform="matrix(0.009114583333333334,0,0,0.009114583333333334,37.04166666666667,0)" xlink:href="#E"/><use transform="matrix(0.009114583333333334,0,0,0.009114583333333334,41.571614583333336,0)" xlink:href="#F"/></g><path fill="#2f3564" d="M1216-1011c-1 297-202 441-512 441H361V0H169v-1456h537c297-6 510 164 510 445zm-192 2c1-178-126-288-307-289H361v571h345c196 1 318-92 318-282" id="G"/><path fill="#2f3564" d="M341 0H156v-1536h185V0" id="H"/><path fill="#2f3564" d="M561-1102c238-4 403 126 403 351v498c0 99 13 178 38 237V0H808c-11-21-19-59-26-114C696-25 593 20 474 20c-199 0-368-130-365-320 4-251 214-359 490-356h180v-85c-1-135-86-212-229-212-115 0-232 67-233 171H131c20-205 206-316 430-320zM294-326c0 117 90 185 207 185 122 0 239-75 278-162v-222H634c-227 0-340 66-340 199" id="I"/><path fill="#2f3564" d="M456 20C285 20 205-92 206-268v-671H9v-143h197v-262h185v262h202v143H391v671c-9 125 92 149 207 118V0c-49 13-96 20-142 20" id="J"/><path fill="#2f3564" d="M704-1390c-164-38-297 28-288 194v114h231v143H416V0H231v-939H60v-143h171v-111c-12-274 208-416 483-347" id="K"/><path fill="#2f3564" d="M584 20C278 26 81-227 91-551c10-320 175-545 491-551 308-5 503 247 494 573-9 322-175 543-492 549zm-2-970c-208 0-305 185-305 421 0 216 106 398 307 398 211 0 307-186 307-420 0-214-109-399-309-399" id="L"/><path fill="#2f3564" d="M663-916c-163-27-288 18-338 148V0H140v-1082h180l3 125c61-97 147-145 258-145 36 0 63 5 82 14v172" id="M"/><path fill="#2f3564" d="M1240-945c-141 0-250 95-250 227V0H804v-709c0-157-77-236-231-236-121 0-204 52-249 155V0H139v-1082h175l5 120c79-93 186-140 321-140 151 0 254 58 309 174 69-98 181-174 345-174 237 0 362 126 362 377V0h-185v-714c-2-159-67-231-231-231" id="N"/><g id="c"><use transform="matrix(0.008680555555555554,0,0,0.008680555555555554,0,0)" xlink:href="#G"/><use transform="matrix(0.008680555555555554,0,0,0.008680555555555554,11.215277777777777,0)" xlink:href="#H"/><use transform="matrix(0.008680555555555554,0,0,0.008680555555555554,15.52951388888889,0)" xlink:href="#I"/><use transform="matrix(0.008680555555555554,0,0,0.008680555555555554,25.199652777777775,0)" xlink:href="#J"/><use transform="matrix(0.008680555555555554,0,0,0.008680555555555554,31.006944444444443,0)" xlink:href="#K"/><use transform="matrix(0.008680555555555554,0,0,0.008680555555555554,37.17881944444445,0)" xlink:href="#L"/><use transform="matrix(0.008680555555555554,0,0,0.008680555555555554,47.31770833333333,0)" xlink:href="#M"/><use transform="matrix(0.008680555555555554,0,0,0.008680555555555554,53.33333333333333,0)" xlink:href="#N"/></g><path fill="#2f3564" d="M520 20C244 20 95-247 95-550c0-298 151-550 427-552 127 0 227 43 301 130v-564h185V0H838l-9-116C755-25 652 20 520 20zm48-965c-210 0-288 177-288 416 0 218 87 392 286 392 117 0 203-53 257-158v-497c-55-102-140-153-255-153" id="O"/><path fill="#2f3564" d="M341 0H156v-1082h185V0zm-91-1264c-68 0-108-42-109-105 0-62 41-107 109-107s110 44 110 107-42 105-110 105" id="P"/><path fill="#2f3564" d="M589-945c-131 0-219 81-264 174V0H140v-1082h175l6 136c83-104 191-156 324-156 229 0 346 129 346 387V0H806v-716c-2-153-65-229-217-229" id="Q"/><g id="d"><use transform="matrix(0.008680555555555554,0,0,0.008680555555555554,0,0)" xlink:href="#I"/><use transform="matrix(0.008680555555555554,0,0,0.008680555555555554,9.670138888888888,0)" xlink:href="#O"/><use transform="matrix(0.008680555555555554,0,0,0.008680555555555554,19.69618055555555,0)" xlink:href="#N"/><use transform="matrix(0.008680555555555554,0,0,0.008680555555555554,35.27777777777777,0)" xlink:href="#P"/><use transform="matrix(0.008680555555555554,0,0,0.008680555555555554,39.592013888888886,0)" xlink:href="#Q"/></g><path fill="#172b4d" d="M973-380H363L226 0H28l556-1456h168L1309 0h-197zM421-538h495l-248-681" id="R"/><g id="e"><use transform="matrix(0.009114583333333334,0,0,0.009114583333333334,0,0)" xlink:href="#R"/><use transform="matrix(0.009114583333333334,0,0,0.009114583333333334,12.177083333333334,0)" xlink:href="#C"/><use transform="matrix(0.009114583333333334,0,0,0.009114583333333334,22.704427083333336,0)" xlink:href="#C"/></g><path fill="#172b4d" d="M491 20c-241-1-355-148-355-398v-704h185v699c0 164 67 246 200 246 141 0 235-53 282-158v-787h185V0H812l-4-107C736-22 630 20 491 20" id="S"/><path fill="#172b4d" d="M538-131c121 0 232-49 232-156 0-50-20-88-56-117-73-60-334-92-420-143-92-55-162-110-162-238 0-190 192-317 400-317 223 0 414 129 413 338H759c0-108-110-186-227-186-119 0-215 53-215 159 0 45 18 78 53 101 76 52 331 90 416 139 98 57 169 115 169 251C955-92 760 20 538 20c-176 0-314-68-386-174-38-55-57-115-57-179h185c6 129 116 202 258 202" id="T"/><path fill="#172b4d" d="M599-131c141 0 220-65 285-146l113 88C906-50 770 20 589 20 281 21 93-214 93-545c0-223 93-397 233-485 74-48 154-72 240-72 300 2 449 218 445 537v77H278c0 197 129 357 321 357zm227-509c-3-180-88-310-260-310-170 0-264 140-282 310h542" id="U"/><path fill="#172b4d" d="M663-916c-163-27-288 18-338 148V0H140v-1082h180l3 125c61-97 147-145 258-145 36 0 63 5 82 14v172" id="V"/><g id="f"><use transform="matrix(0.009114583333333334,0,0,0.009114583333333334,0,0)" xlink:href="#S"/><use transform="matrix(0.009114583333333334,0,0,0.009114583333333334,10.290364583333334,0)" xlink:href="#T"/><use transform="matrix(0.009114583333333334,0,0,0.009114583333333334,19.915364583333336,0)" xlink:href="#U"/><use transform="matrix(0.009114583333333334,0,0,0.009114583333333334,29.804687500000004,0)" xlink:href="#V"/><use transform="matrix(0.009114583333333334,0,0,0.009114583333333334,36.12109375,0)" xlink:href="#T"/></g><path fill="#172b4d" d="M584 20C278 26 81-227 91-551c10-320 175-545 491-551 308-5 503 247 494 573-9 322-175 543-492 549zm-2-970c-208 0-305 185-305 421 0 216 106 398 307 398 211 0 307-186 307-420 0-214-109-399-309-399" id="W"/><path fill="#172b4d" d="M704-1390c-164-38-297 28-288 194v114h231v143H416V0H231v-939H60v-143h171v-111c-12-274 208-416 483-347" id="X"/><path fill="#172b4d" d="M521 20C240 20 96-239 96-550c0-303 147-552 427-552 132 0 235 47 309 140l9-120h169V-26c4 277-183 454-459 452-165-1-334-81-400-187l96-111c79 98 176 147 291 147 180 1 288-109 286-290v-93C750-23 649 20 521 20zm48-965c-209 0-287 178-287 416 0 217 86 392 285 392 117 0 202-53 257-159v-494c-57-103-142-155-255-155" id="Y"/><g id="g"><use transform="matrix(0.009114583333333334,0,0,0.009114583333333334,0,0)" xlink:href="#A"/><use transform="matrix(0.009114583333333334,0,0,0.009114583333333334,12.149739583333334,0)" xlink:href="#W"/><use transform="matrix(0.009114583333333334,0,0,0.009114583333333334,22.795572916666668,0)" xlink:href="#F"/><use transform="matrix(0.009114583333333334,0,0,0.009114583333333334,33.095052083333336,0)" xlink:href="#X"/><use transform="matrix(0.009114583333333334,0,0,0.009114583333333334,39.575520833333336,0)" xlink:href="#E"/><use transform="matrix(0.009114583333333334,0,0,0.009114583333333334,44.10546875,0)" xlink:href="#Y"/><use transform="matrix(0.009114583333333334,0,0,0.009114583333333334,54.578125,0)" xlink:href="#S"/><use transform="matrix(0.009114583333333334,0,0,0.009114583333333334,64.86848958333333,0)" xlink:href="#V"/><use transform="matrix(0.009114583333333334,0,0,0.009114583333333334,71.01171875,0)" xlink:href="#U"/></g><path fill="#172b4d" d="M417-1456L893-268l476-1188h249V0h-192c-4-403 4-794 18-1179L966 0H819L342-1176c15 384 23 773 19 1176H169v-1456h248" id="Z"/><path fill="#172b4d" d="M972-643H361V0H169v-1456h902v158H361v498h611v157" id="aa"/><g id="h"><use transform="matrix(0.009114583333333334,0,0,0.009114583333333334,0,0)" xlink:href="#Z"/><use transform="matrix(0.009114583333333334,0,0,0.009114583333333334,16.296875,0)" xlink:href="#aa"/><use transform="matrix(0.009114583333333334,0,0,0.009114583333333334,25.065104166666668,0)" xlink:href="#R"/></g><g id="i"><use transform="matrix(0.009114583333333334,0,0,0.009114583333333334,0,0)" xlink:href="#R"/><use transform="matrix(0.009114583333333334,0,0,0.009114583333333334,12.177083333333334,0)" xlink:href="#T"/><use transform="matrix(0.009114583333333334,0,0,0.009114583333333334,21.802083333333336,0)" xlink:href="#T"/><use transform="matrix(0.009114583333333334,0,0,0.009114583333333334,31.427083333333336,0)" xlink:href="#E"/><use transform="matrix(0.009114583333333334,0,0,0.009114583333333334,35.95703125,0)" xlink:href="#Y"/><use transform="matrix(0.009114583333333334,0,0,0.009114583333333334,46.4296875,0)" xlink:href="#F"/></g><path fill="#172b4d" d="M572 20C306 25 99-136 101-391c0-70 20-134 59-193s113-127 223-205c-65-79-108-142-130-190s-33-96-33-143c-3-220 144-354 364-354 187 0 349 127 346 308-3 212-172 290-307 398l324 387c45-87 68-183 68-289h167c0 170-41 311-123 423L1267 0h-222l-97-115C862-36 726 17 572 20zM286-391c0 162 118 260 286 260 98 0 188-37 269-112L486-668c-110 72-200 183-200 277zm297-933c-109 0-180 87-178 196 0 64 39 144 118 240 93-79 236-119 236-280 0-91-82-156-176-156" id="ab"/><use transform="matrix(0.009114583333333334,0,0,0.009114583333333334,0,0)" xlink:href="#ab" id="j"/><g id="k"><use transform="matrix(0.009114583333333334,0,0,0.009114583333333334,0,0)" xlink:href="#D"/><use transform="matrix(0.009114583333333334,0,0,0.009114583333333334,16.360677083333336,0)" xlink:href="#B"/><use transform="matrix(0.009114583333333334,0,0,0.009114583333333334,26.51432291666667,0)" xlink:href="#F"/><use transform="matrix(0.009114583333333334,0,0,0.009114583333333334,36.81380208333334,0)" xlink:href="#B"/><use transform="matrix(0.009114583333333334,0,0,0.009114583333333334,46.96744791666668,0)" xlink:href="#Y"/><use transform="matrix(0.009114583333333334,0,0,0.009114583333333334,57.44010416666668,0)" xlink:href="#U"/></g><path fill="#172b4d" d="M341 0H156v-1536h185V0" id="ac"/><g id="l"><use transform="matrix(0.009114583333333334,0,0,0.009114583333333334,0,0)" xlink:href="#V"/><use transform="matrix(0.009114583333333334,0,0,0.009114583333333334,6.134114583333333,0)" xlink:href="#W"/><use transform="matrix(0.009114583333333334,0,0,0.009114583333333334,16.779947916666668,0)" xlink:href="#ac"/><use transform="matrix(0.009114583333333334,0,0,0.009114583333333334,21.309895833333336,0)" xlink:href="#U"/><use transform="matrix(0.009114583333333334,0,0,0.009114583333333334,31.199218750000004,0)" xlink:href="#T"/></g><path fill="#172b4d" d="M497-251l268-831h189L566 0H425L33-1082h189" id="ad"/><path fill="#172b4d" d="M456 20C285 20 205-92 206-268v-671H9v-143h197v-262h185v262h202v143H391v671c-9 125 92 149 207 118V0c-49 13-96 20-142 20" id="ae"/><g id="m"><use transform="matrix(0.009114583333333334,0,0,0.009114583333333334,0,0)" xlink:href="#z"/><use transform="matrix(0.009114583333333334,0,0,0.009114583333333334,5.076822916666667,0)" xlink:href="#F"/><use transform="matrix(0.009114583333333334,0,0,0.009114583333333334,15.376302083333336,0)" xlink:href="#ad"/><use transform="matrix(0.009114583333333334,0,0,0.009114583333333334,24.41796875,0)" xlink:href="#E"/><use transform="matrix(0.009114583333333334,0,0,0.009114583333333334,28.94791666666667,0)" xlink:href="#ae"/><use transform="matrix(0.009114583333333334,0,0,0.009114583333333334,35.04557291666667,0)" xlink:href="#U"/></g><g id="n"><use transform="matrix(0.009114583333333334,0,0,0.009114583333333334,0,0)" xlink:href="#Z"/><use transform="matrix(0.009114583333333334,0,0,0.009114583333333334,16.296875,0)" xlink:href="#B"/><use transform="matrix(0.009114583333333334,0,0,0.009114583333333334,26.450520833333336,0)" xlink:href="#F"/><use transform="matrix(0.009114583333333334,0,0,0.009114583333333334,36.75,0)" xlink:href="#B"/><use transform="matrix(0.009114583333333334,0,0,0.009114583333333334,46.903645833333336,0)" xlink:href="#Y"/><use transform="matrix(0.009114583333333334,0,0,0.009114583333333334,57.376302083333336,0)" xlink:href="#U"/></g><path fill="#172b4d" d="M494-271l252-811h198L509 167C425 381 299 474 84 421V271c167 16 242-37 283-173l41-110L22-1082h202" id="af"/><g id="o"><use transform="matrix(0.009114583333333334,0,0,0.009114583333333334,0,0)" xlink:href="#z"/><use transform="matrix(0.009114583333333334,0,0,0.009114583333333334,5.076822916666667,0)" xlink:href="#C"/><use transform="matrix(0.009114583333333334,0,0,0.009114583333333334,15.604166666666668,0)" xlink:href="#U"/><use transform="matrix(0.009114583333333334,0,0,0.009114583333333334,25.493489583333336,0)" xlink:href="#F"/><use transform="matrix(0.009114583333333334,0,0,0.009114583333333334,35.79296875,0)" xlink:href="#ae"/><use transform="matrix(0.009114583333333334,0,0,0.009114583333333334,41.890625,0)" xlink:href="#E"/><use transform="matrix(0.009114583333333334,0,0,0.009114583333333334,46.420572916666664,0)" xlink:href="#ae"/><use transform="matrix(0.009114583333333334,0,0,0.009114583333333334,52.518229166666664,0)" xlink:href="#af"/></g><path fill="#172b4d" d="M277-555c0 244 77 420 297 424 127 2 249-93 255-210h175C980-127 805 20 574 20 258 20 81-222 92-562c11-319 164-533 481-540 237-5 426 165 431 392H829c-7-133-115-242-256-240-209 4-296 166-296 395" id="ag"/><g id="p"><use transform="matrix(0.009114583333333334,0,0,0.009114583333333334,0,0)" xlink:href="#ag"/><use transform="matrix(0.009114583333333334,0,0,0.009114583333333334,9.770833333333334,0)" xlink:href="#U"/><use transform="matrix(0.009114583333333334,0,0,0.009114583333333334,19.66015625,0)" xlink:href="#V"/><use transform="matrix(0.009114583333333334,0,0,0.009114583333333334,26.432291666666668,0)" xlink:href="#ae"/><use transform="matrix(0.009114583333333334,0,0,0.009114583333333334,32.52994791666667,0)" xlink:href="#E"/><use transform="matrix(0.009114583333333334,0,0,0.009114583333333334,37.059895833333336,0)" xlink:href="#X"/><use transform="matrix(0.009114583333333334,0,0,0.009114583333333334,43.540364583333336,0)" xlink:href="#E"/><use transform="matrix(0.009114583333333334,0,0,0.009114583333333334,48.0703125,0)" xlink:href="#ag"/><use transform="matrix(0.009114583333333334,0,0,0.009114583333333334,57.841145833333336,0)" xlink:href="#B"/><use transform="matrix(0.009114583333333334,0,0,0.009114583333333334,67.99479166666667,0)" xlink:href="#ae"/><use transform="matrix(0.009114583333333334,0,0,0.009114583333333334,74.09244791666667,0)" xlink:href="#E"/><use transform="matrix(0.009114583333333334,0,0,0.009114583333333334,78.62239583333334,0)" xlink:href="#W"/><use transform="matrix(0.009114583333333334,0,0,0.009114583333333334,89.26822916666667,0)" xlink:href="#F"/></g><path fill="#172b4d" d="M632-1102c291 0 422 251 422 573 0 297-141 548-419 549-131 0-235-42-310-125v521H140v-1498h169l9 120c75-93 180-140 314-140zm-53 971c207 0 290-180 290-419 0-218-92-395-292-395-112 0-196 50-252 149v517c55 99 140 148 254 148" id="ah"/><g id="q"><use transform="matrix(0.009114583333333334,0,0,0.009114583333333334,0,0)" xlink:href="#ag"/><use transform="matrix(0.009114583333333334,0,0,0.009114583333333334,9.770833333333334,0)" xlink:href="#B"/><use transform="matrix(0.009114583333333334,0,0,0.009114583333333334,19.924479166666668,0)" xlink:href="#D"/><use transform="matrix(0.009114583333333334,0,0,0.009114583333333334,36.28515625,0)" xlink:href="#ah"/><use transform="matrix(0.009114583333333334,0,0,0.009114583333333334,46.7578125,0)" xlink:href="#B"/><use transform="matrix(0.009114583333333334,0,0,0.009114583333333334,56.911458333333336,0)" xlink:href="#E"/><use transform="matrix(0.009114583333333334,0,0,0.009114583333333334,61.44140625000001,0)" xlink:href="#Y"/><use transform="matrix(0.009114583333333334,0,0,0.009114583333333334,71.9140625,0)" xlink:href="#F"/><use transform="matrix(0.009114583333333334,0,0,0.009114583333333334,82.21354166666667,0)" xlink:href="#T"/></g><g id="r"><use transform="matrix(0.009114583333333334,0,0,0.009114583333333334,0,0)" xlink:href="#A"/><use transform="matrix(0.009114583333333334,0,0,0.009114583333333334,12.149739583333334,0)" xlink:href="#U"/><use transform="matrix(0.009114583333333334,0,0,0.009114583333333334,22.0390625,0)" xlink:href="#V"/><use transform="matrix(0.009114583333333334,0,0,0.009114583333333334,28.811197916666668,0)" xlink:href="#ae"/><use transform="matrix(0.009114583333333334,0,0,0.009114583333333334,34.90885416666667,0)" xlink:href="#E"/><use transform="matrix(0.009114583333333334,0,0,0.009114583333333334,39.438802083333336,0)" xlink:href="#X"/><use transform="matrix(0.009114583333333334,0,0,0.009114583333333334,45.919270833333336,0)" xlink:href="#af"/></g><g id="s"><use transform="matrix(0.009114583333333334,0,0,0.009114583333333334,0,0)" xlink:href="#B"/><use transform="matrix(0.009114583333333334,0,0,0.009114583333333334,10.153645833333334,0)" xlink:href="#ag"/><use transform="matrix(0.009114583333333334,0,0,0.009114583333333334,19.924479166666668,0)" xlink:href="#ag"/><use transform="matrix(0.009114583333333334,0,0,0.009114583333333334,29.695312500000004,0)" xlink:href="#U"/><use transform="matrix(0.009114583333333334,0,0,0.009114583333333334,39.58463541666667,0)" xlink:href="#T"/><use transform="matrix(0.009114583333333334,0,0,0.009114583333333334,49.20963541666667,0)" xlink:href="#T"/></g><g id="t"><use transform="matrix(0.008680555555555556,0,0,0.008680555555555556,0,0)" xlink:href="#A"/><use transform="matrix(0.008680555555555556,0,0,0.008680555555555556,11.571180555555555,0)" xlink:href="#U"/><use transform="matrix(0.008680555555555556,0,0,0.008680555555555556,20.989583333333336,0)" xlink:href="#V"/><use transform="matrix(0.008680555555555556,0,0,0.008680555555555556,27.43923611111111,0)" xlink:href="#ae"/><use transform="matrix(0.008680555555555556,0,0,0.008680555555555556,33.24652777777778,0)" xlink:href="#E"/><use transform="matrix(0.008680555555555556,0,0,0.008680555555555556,37.56076388888889,0)" xlink:href="#X"/><use transform="matrix(0.008680555555555556,0,0,0.008680555555555556,43.73263888888889,0)" xlink:href="#E"/><use transform="matrix(0.008680555555555556,0,0,0.008680555555555556,48.04687500000001,0)" xlink:href="#U"/><use transform="matrix(0.008680555555555556,0,0,0.008680555555555556,57.465277777777786,0)" xlink:href="#V"/></g><g id="u"><use transform="matrix(0.009114583333333334,0,0,0.009114583333333334,0,0)" xlink:href="#z"/><use transform="matrix(0.009114583333333334,0,0,0.009114583333333334,5.076822916666667,0)" xlink:href="#F"/><use transform="matrix(0.009114583333333334,0,0,0.009114583333333334,15.376302083333336,0)" xlink:href="#ae"/><use transform="matrix(0.009114583333333334,0,0,0.009114583333333334,21.473958333333336,0)" xlink:href="#U"/><use transform="matrix(0.009114583333333334,0,0,0.009114583333333334,31.363281250000004,0)" xlink:href="#Y"/><use transform="matrix(0.009114583333333334,0,0,0.009114583333333334,41.8359375,0)" xlink:href="#V"/><use transform="matrix(0.009114583333333334,0,0,0.009114583333333334,47.787760416666664,0)" xlink:href="#B"/><use transform="matrix(0.009114583333333334,0,0,0.009114583333333334,57.94140625000001,0)" xlink:href="#ae"/><use transform="matrix(0.009114583333333334,0,0,0.009114583333333334,64.0390625,0)" xlink:href="#U"/></g><g id="v"><use transform="matrix(0.009114583333333334,0,0,0.009114583333333334,0,0)" xlink:href="#z"/><use transform="matrix(0.009114583333333334,0,0,0.009114583333333334,5.076822916666667,0)" xlink:href="#A"/></g><path fill="#172b4d" d="M1098-255l208-827h185L1176 0h-150L763-820 507 0H357L43-1082h184l213 810 252-810h149" id="ai"/><path fill="#172b4d" d="M589-945c-131 0-219 81-264 174V0H140v-1536h185v585c82-101 189-151 320-151 229 0 346 129 346 387V0H806v-716c-2-153-65-229-217-229" id="aj"/><g id="w"><use transform="matrix(0.009114583333333334,0,0,0.009114583333333334,0,0)" xlink:href="#ai"/><use transform="matrix(0.009114583333333334,0,0,0.009114583333333334,14.027343750000002,0)" xlink:href="#E"/><use transform="matrix(0.009114583333333334,0,0,0.009114583333333334,18.557291666666668,0)" xlink:href="#ae"/><use transform="matrix(0.009114583333333334,0,0,0.009114583333333334,24.654947916666668,0)" xlink:href="#aj"/></g><path fill="#172b4d" d="M1216-1011c-1 297-202 441-512 441H361V0H169v-1456h537c297-6 510 164 510 445zm-192 2c1-178-126-288-307-289H361v571h345c196 1 318-92 318-282" id="ak"/><g id="x"><use transform="matrix(0.009114583333333334,0,0,0.009114583333333334,0,0)" xlink:href="#ak"/><use transform="matrix(0.009114583333333334,0,0,0.009114583333333334,10.518229166666668,0)" xlink:href="#R"/><use transform="matrix(0.009114583333333334,0,0,0.009114583333333334,22.6953125,0)" xlink:href="#Z"/></g><path fill="#172b4d" d="M631-137c179 0 314-70 314-231 0-71-25-127-75-166s-141-77-272-115c-165-47-285-106-360-175s-112-154-112-255c0-245 231-397 495-397 206 0 369 89 449 218 43 68 65 142 65 223H942c0-184-129-283-321-283-172 0-299 76-301 236 0 59 26 109 76 150s135 78 256 113c205 59 345 116 436 256 35 53 50 119 50 193-2 256-231 398-507 390C333 12 90-129 80-422h193c0 187 160 285 358 285" id="al"/><path fill="#172b4d" d="M525-543H37v-151h488v151" id="am"/><path fill="#172b4d" d="M1288 0h-193v-673H361V0H169v-1456h192v626h734v-626h193V0" id="an"/><g id="y"><use transform="matrix(0.009114583333333334,0,0,0.009114583333333334,0,0)" xlink:href="#al"/><use transform="matrix(0.009114583333333334,0,0,0.009114583333333334,11.07421875,0)" xlink:href="#U"/><use transform="matrix(0.009114583333333334,0,0,0.009114583333333334,20.963541666666668,0)" xlink:href="#ac"/><use transform="matrix(0.009114583333333334,0,0,0.009114583333333334,25.493489583333336,0)" xlink:href="#X"/><use transform="matrix(0.009114583333333334,0,0,0.009114583333333334,31.973958333333336,0)" xlink:href="#am"/><use transform="matrix(0.009114583333333334,0,0,0.009114583333333334,37.12369791666667,0)" xlink:href="#an"/><use transform="matrix(0.009114583333333334,0,0,0.009114583333333334,50.43098958333334,0)" xlink:href="#W"/><use transform="matrix(0.009114583333333334,0,0,0.009114583333333334,61.07682291666668,0)" xlink:href="#T"/><use transform="matrix(0.009114583333333334,0,0,0.009114583333333334,70.70182291666669,0)" xlink:href="#ae"/><use transform="matrix(0.009114583333333334,0,0,0.009114583333333334,76.79947916666669,0)" xlink:href="#U"/><use transform="matrix(0.009114583333333334,0,0,0.009114583333333334,86.68880208333336,0)" xlink:href="#C"/></g></defs></g></svg>