<svg xmlns="http://www.w3.org/2000/svg" xmlns:xlink="http://www.w3.org/1999/xlink" xmlns:lucid="lucid" width="1666" height="1113"><g transform="translate(-3716 -8625)" lucid:page-tab-id="0_0"><path d="M3766.37 9464.38a6 6 0 0 1 6-6h1551a6 6 0 0 1 6 6v222.85a6 6 0 0 1-6 6h-1551a6 6 0 0 1-6-6z" fill="#e0e8f5"/><path d="M3787.36 9458.38h14.98m7.5 0h14.98m7.5 0h14.98m7.5 0h14.98m7.5 0h14.98m7.5 0h14.98m7.5 0h14.98m7.5 0h14.97m7.5 0h14.97m7.5 0h14.98m7.5 0h14.98m7.5 0h14.98m7.5 0h14.98m7.5 0h14.98m7.5 0h14.98m7.5 0h14.98m7.5 0H4162m7.5 0h14.98m7.5 0h14.97m7.5 0h14.98m7.5 0h14.98m7.5 0h15m7.48 0h15m7.48 0h15m7.48 0h14.98m7.5 0h14.98m7.5 0h14.98m7.5 0h14.98m7.5 0h14.98m7.5 0h14.97m7.5 0h15m7.5 0h14.97m7.5 0h14.98m7.5 0h14.98m7.5 0h14.98m7.5 0h14.98m7.5 0h14.98m7.5 0h14.98m7.5 0h14.98m7.5 0H4679m7.5 0h14.98m7.5 0h14.97m7.5 0h14.98m7.5 0h14.98m7.5 0h15m7.48 0h15m7.48 0h15m7.48 0h14.98m7.5 0h14.98m7.5 0h14.98m7.5 0h14.98m7.5 0h14.98m7.5 0h14.97m7.5 0h15m7.5 0h14.97m7.5 0h14.98m7.5 0h14.98m7.5 0h14.97m7.5 0h14.98m7.5 0h14.98m7.5 0h14.98m7.5 0h14.98m7.5 0H5196m7.5 0h14.98m7.5 0h14.97m7.5 0h14.98m7.5 0h14.98m7.5 0h15m7.48 0h7.5l.93.08.93.22.87.36.8.5.72.6.6.72.5.8.36.87.22.9.07.95v7.43m0 7.44v14.86m0 7.42v14.86m0 7.43v14.87m0 7.42v14.85m0 7.43v14.86m0 7.43v14.85m0 7.43v14.86m0 7.44v14.85m0 7.42v14.86m0 7.43v7.43l-.07.94-.22.92-.36.86-.5.8-.6.72-.72.6-.8.5-.87.36-.92.22-.93.07h-7.5m-7.48 0h-15m-7.5 0h-14.98m-7.5 0h-14.97m-7.5 0h-14.98m-7.5 0h-14.98m-7.5 0h-15m-7.48 0h-15m-7.48 0h-14.98m-7.5 0h-14.98m-7.5 0h-14.98m-7.5 0h-14.98m-7.5 0h-14.98m-7.5 0h-14.98m-7.5 0h-14.97m-7.5 0h-15m-7.5 0h-14.97m-7.5 0h-14.98m-7.5 0h-14.98m-7.5 0h-14.98m-7.5 0h-14.98m-7.5 0h-14.98m-7.5 0h-14.98m-7.5 0h-14.98m-7.5 0h-14.98m-7.5 0h-14.98m-7.5 0h-14.97m-7.5 0h-14.98m-7.5 0h-14.98m-7.5 0h-15m-7.48 0h-15m-7.48 0h-14.98m-7.5 0h-14.98m-7.5 0h-14.98m-7.5 0h-14.98m-7.5 0h-14.98m-7.5 0h-14.98m-7.5 0h-14.97m-7.5 0h-15m-7.5 0h-14.97m-7.5 0h-14.98m-7.5 0h-14.98m-7.5 0h-14.98m-7.5 0h-14.98m-7.5 0h-14.98m-7.5 0h-14.98m-7.5 0h-14.98m-7.5 0h-14.98m-7.5 0h-14.97m-7.5 0h-14.98m-7.5 0h-14.98m-7.5 0h-14.98m-7.5 0h-15m-7.48 0h-15m-7.48 0h-14.98m-7.5 0h-14.98m-7.5 0h-14.98m-7.5 0h-14.98m-7.5 0h-14.98m-7.5 0h-14.98m-7.5 0h-14.97m-7.5 0h-15m-7.48 0h-15m-7.48 0h-15m-7.48 0h-15m-7.48 0h-15m-7.48 0h-14.98m-7.5 0h-14.98m-7.5 0h-14.98m-7.5 0h-7.5l-.92-.07-.92-.22-.87-.36-.8-.5-.72-.6-.6-.72-.5-.8-.36-.87-.22-.93-.08-.94v-7.42m0-7.42v-14.86m0-7.43v-14.86m0-7.43v-14.85m0-7.43v-14.85m0-7.43v-14.86m0-7.43v-14.86m0-7.43v-14.86m0-7.42v-14.86m0-7.42v-14.86m0-7.43v-7.42l.08-.94.22-.9.36-.88.5-.8.6-.72.72-.6.8-.5.87-.36.92-.22.93-.08h7.5" stroke="#2f3564" stroke-width="1.5" fill="none"/><path d="M4291.45 9555.04a6 6 0 0 1 6-6h250.24a6 6 0 0 1 6 6v38.3a6 6 0 0 1-6 6h-250.25a6 6 0 0 1-6-6z" stroke="#6c6e83" fill="#fff"/><path d="M4328.6 9563.3h206.6v21.38h-206.6z" fill="none"/><use xlink:href="#a" transform="matrix(1,0,0,1,4328.607834563597,9563.311876932685) translate(0 17.380208333333336)"/><use xlink:href="#b" transform="matrix(1,0,0,1,4328.607834563597,9563.311876932685) translate(65.47916666666667 17.380208333333336)"/><use xlink:href="#c" transform="matrix(1,0,0,1,4328.607834563597,9563.311876932685) translate(129.04427083333334 17.380208333333336)"/><path d="M3864.22 9575.18a19.5 19.5 0 0 1 19.5-19.5h223.43a19.5 19.5 0 0 1 19.5 19.5 19.5 19.5 0 0 1-19.5 19.5h-223.43a19.5 19.5 0 0 1-19.5-19.5z" stroke="#6c6e83" fill="#fff"/><path d="M3923.24 9562.7h191.6v22.98h-191.6z" fill="none"/><use xlink:href="#d" transform="matrix(1,0,0,1,3923.2412829930236,9562.688254403141) translate(0 17.880208333333332)"/><path d="M3854.07 9625.6c27.6 0 50-22.38 50-50 0-27.6-22.4-50-50-50s-50 22.4-50 50c0 27.62 22.4 50 50 50z" stroke="#6c6e83" fill="#a2c6f6"/><path d="M3870.76 9564.96c.3-2 .7-4.1.8-6.12.1-1.8-.1-3.72-.8-5.42-.8-1.9-2.1-3.32-3.5-4.72.8-.2 1.6-.6 2.3-1.2.7-.7 1.2-1.7 1.2-2.82 0-.6-.2-1-.4-1.5s-.2-.8-.1-1.3v-.7c-.4-.92-1.7-1.52-2.5-1.92-.8-.3-1.6-.5-2.5-.6-.3-.8-1.3-1.3-2.2-1.4-.7-.2-1.5-.2-2.2 0-.9.3-1.6.8-2.5 1.2-.8.4-1.8.5-2.6.8-.7.3-1.3.7-1.8 1.2-.7.6-1 1.3-1.3 2.12-1.6-.3-3.3-.4-4.9-.1-.9.2-1.6.6-2.3 1.1-1 .5-2 .7-2.9 1.2-.7.3-1.2.9-1.8 1.5-.7.8-1.6 1.3-2.4 2.02-.8.6-1.4 1.5-1.8 2.5-.7 1-1.1 2.12-1.5 3.32-.3 1.2-.6 2.4-.9 3.72-.3 1.2-.6 2.5-.7 3.7-.1 2.12.4 4.03 1.6 5.53v.1l.2.2c.1.1.2.1.2 0 2.1.9 4 1.9 5.9 3.22 1.8 1.3 3.6 2.8 5.4 4.3 3.5 2.92 6.3 6.63 9.9 9.44 1.3 1 2.9 2.4 4.7 2 1.7-.4 2.8-2 3.7-3.4 2.2-3.52 3.6-7.63 4.5-11.75.5-2.02.9-4.13 1.2-6.24z" stroke="#000" stroke-opacity="0" fill="#5a3728"/><path d="M3865.47 9578.92c.6-3.72 2.8-20.18 1.6-23.1-1-2.1-2.5-3.1-4.3-4.3l-.9-.6c-.2-.2-.5-.4-.8-.6-1.8-1.52-4.3-1.72-6.5-1.72-5.1.1-10.2.4-14.7 3.2-.6.4-1.2.82-1.8 1.32-.1.1-.3.2-.4.4-.7.6-1.3 1.2-1.7 2-.5.8-.7 1.6-.8 2.42-1.1 6.22-.4 14.15.9 20.28 1.3 6.73 4.7 14.56 12 16.06 1.2.2 2.5.3 3.9.1 6.1-.7 10.3-4.82 12.3-10.54.5-1.6.9-3.3 1.2-4.92z" stroke="#000" stroke-opacity="0" fill="#fea689"/><path d="M3879.47 9602.92c-4.3-1.3-7.6.4-11.4-2.7-1.2-1.02-2.3-2.52-2.3-3.93l-.3-3.82c-.3-4.52-.5-9.04-.2-13.56h.1c.6-.5 1.3-1.1 1.9-1.8 1.2-1.5 1.8-3.32 1.8-5.23 0-1.6-.1-3.92-1.8-4.63-1.2-.4-2.7.6-3.4 1.6 0-.1-.1-.1-.2-.2.1-.2.2-.4.4-.6.1-.1-.1-.3-.2-.2-.5.6-.7 1.2-.7 1.9 0 1.12.1 2.12.1 3.13 0 1.7-.1 3.3-.2 4.92-.9 1-1.8 2-2.8 3-1.4 1.6-3 2.62-4.9 3.72-1.9 1.1-3.7 2.3-5.4 3.62-.9.6-4.6-.6-4.7-2.2-.1-.4-.6-.3-.6.1.5 5.2.8 10.43 1 15.65-.7.5-1.3 1.02-2 1.42-2 1.4-4.2 2.6-6.5 3.5-.2.1-.3.4-.1.5 3.3 2.62 7.9 5.23 11.5 7.44 1.4.9 2.1 1.3 3.7 1 2-.5 4-1.1 6-1.7 7.6-2.4 14.8-5.92 21.4-10.44.2-.1.1-.4-.2-.5z" stroke="#000" stroke-opacity="0" fill="#fea689"/><path d="M3842.16 9572.1c.1-.6 0-1.4-.1-1.6 0-.32-.1-.62-.3-.72-.6-.6-1.2 0-1.3.6-.2.7-.1 2.32.6 2.62.7.4 1-.2 1.1-.9zM3857.66 9571.1c.1-.6 0-1.42-.1-1.62 0-.3-.1-.6-.3-.7-.6-.6-1.2 0-1.3.6-.2.7-.1 2.3.6 2.6.7.4 1-.2 1.1-.9z" stroke="#000" stroke-opacity="0" fill="#232c44"/><path d="M3850.47 9580.33c-1 .4-3.1.9-3.8-.2-.4-.7.1-2.82.3-3.52.3-2.1.8-4.2 1-6.3.1-.42-.5-.52-.6-.1-.3 3.2-1.6 7-1.4 9.72.1 2 3.3 1.4 4.7 1 .4-.2.2-.7-.2-.6z" stroke="#000" stroke-opacity="0" fill="#b47a67"/><path d="M3844.57 9565.77c-.1 0-.2-.1-.3-.1-.7-.1-1.2-.2-2-.1-.9.1-2 .1-3 .4-1 .2-2.6.6-2.9 1.7 0 .1.1.3.2.3.9.4 1.6.1 2.6 0 1.3-.1 2.7-.1 4.1-.3.5 0 1.1-.3 1.4-.7.4-.4.3-.9-.1-1.2zM3852.57 9566.67c.4.3 1 .5 1.5.5 1.4-.1 2.8-.3 4.1-.5 1-.1 1.7.1 2.6-.5.1 0 .1-.2.1-.3-.6-1-2.1-1.1-3.2-1.2-1 0-2.1.2-3 .2-.8 0-1.3.2-2 .5-.1 0-.1.1-.2.1-.4.3-.3.9.1 1.2z" stroke="#000" stroke-opacity="0" fill="#b47a66"/><path d="M3863.66 9582.53c.1-1.6.1-3.3.1-5.02 0-.2.1-2.3-.7-1.5-.2.2-.2.7-.2 1l-.3 1.42c-.2 1-.4 2-.7 2.9-.1.8-.6 1.52-.8 2.32-.3.7-.7 1.3-1 2-.2.8-.5 1.5-1 2.22-.3.6-1 1-1.6 1.3-.6.4-1.9 1.2-2.5 1.6-2.9 1.5-3-3.5-3.5-5.4-.6-.1-1.2 0-1.8.2l-.1.1c-.1 0-.1 0-.2.1.1.3.2.7.3 1.1.1.3.1.5 0 .8 0 .9.3 1.7.1 2.5-.2 1.1-1.2 1.2-2.3 1.5-.6.1-1.1.1-1.7-.3-.6-.5-1.3-.4-1.9-.9-.3-.2-.6-.3-.9-.5-.5-.3-.8-1.1-1.2-1.5-.4-.5-.5-1.2-.7-1.8-.3-.7-.7-.9-1.2-1.2-.6-.4-.5-.72-.8-1.22-.2-.4-.7-1.3-.9-1.6-.1-.2-.2-.5-.2-.7-.3-.6-.7-1.2-1.1-1.7l-.5-.52s-.1.8-.1 1c.1.4.2.7.3 1 .3.5.3 1.32.5 1.92.2.6 0 1.5.3 2.1.3.6.5 3.22.7 3.82.3.7.3 1.3.6 1.9.4.6.3 1.42.6 2.02.3.6.8.9 1.3 1.2l.1.1.1.1c.4.4.8.7 1.2 1.2.2.3.7 1.3 1 1.5.5.42 1.1.52 1.5.92.3.3.6.1 1 .4.7.5 1.6.4 2.4.4.6 0 1 .3 1.5.4.5.1 1 0 1.5-.1 1.1-.3 3.2.4 4.3.2.9-.1 1.4-.4 2.1-1 .5-.5.9-.5 1.5-.7.3-.2.5-.6.7-.9.4-.4 1.8-1.7 2.1-2.12.4-.5.6-1 .8-1.6.2-.6.4-2.1.5-2.7.2-.4.3-.82.4-1.22.5-1.6.2-5.32.4-7.02z" stroke="#000" stroke-opacity="0" fill="#5a3728"/><path d="M3855.16 9583.04c-.7 0-9.3.9-9.5.9-.1 0-.2.1-.1.1 4.2 1.4 5.1 1.2 9.7-.9 0-.1-.1-.1-.1-.1z" stroke="#000" stroke-opacity="0" fill="#b66f58"/><path d="M3866.47 9576.1c-.4-.7-.5-.7-.1-1.7 0-.1.2-.2.2-.4.1-.4.2-.7 0-1.2-.1-.4-.7-.9-.7-1.3-.1-.7.5-1.92.7-2.52.1-.4-.5-.5-.6-.1-.2.7-.8 1.8-.8 2.6.1.4.4.6.6.9.7 1.32-.1 1.42-.3 2.32-.2.6.1 1.1.4 1.6.2.3.7.1.5-.2h.1zM3866.47 9547.4c-.9-.7-1.7-1.5-2.6-2.1-1.1-.62-2.2-.52-3.3-1.12-1.9-1.1-3.2-2.1-5.6-1.7-.4.1-.3.7.1.6 1.2-.2 2.5-.1 3.6.6.8.4 1.5 1 2.3 1.3.9.5 1.9.4 2.8 1 .8.6 1.6 1.3 2.3 1.92.3.2.7-.2.4-.5z" stroke="#000" stroke-opacity="0" fill="#392e2a"/><path d="M3871.86 9605.23c-1.2-1.9-4.7-.9-6.4-.5-1.4.3-2.7.7-4 1.3-.6.3-1.3.6-2 .7-1.2.2-2.3-.3-3.5-.3-3.5-.2-7.1 1.4-10.4-.5-1.9-1-3.7-2.9-5.9-2.7l-.1-.1c-.1 0-.3 0-.3.1l-.1.1c-.3.1-.6.2-.9.4-.4.2 0 .6.3.5l.6-.3c.1.1.2.1.2.1H3839.66c.3 1.1 1.2 3.7 1.3 4 .6 1.5 1.2 2.92 1.9 4.32 1.4 2.82 3 5.63 5 7.94 1.8 2.3 4.2 1.7 6.6.6 2.9-1.52 5.7-3.02 8.5-4.63 2.5-1.5 5-3.1 6.9-5.32 1.2-1.3 3.1-3.82 2-5.72z" stroke="#000" stroke-opacity="0" fill="#93aebe"/><path d="M3894.26 9604.92s-5.9-6.12-10.4-8.83c-.1-.1-.1-.2-.2-.2-2.9-1.12-6.9-3.53-10-1.82-1.5.8-2.3 2.4-3.4 3.5-1.5 1.62-3.6 2.32-5.5 3.03-1.7.6-3.3 1.3-4.7 2.52-1.5 1.3-2.7 3-3.9 4.72-1.7 2.4-3.3 4.92-4.7 7.63-.1-.7-.2-1.4-.4-2.1-.6-2.32-1.9-4.23-3.5-6.04-1.7-2-3.2-4-4.2-6.52-.8-1.7-1.4-3.8-2.9-5.1-1.4-1.22-3.1-1.12-4.7-.62-1.1.4-2.1.8-3.2 1.1-1.1.3-2.3.5-3.3.8-2.7.72-4.6 2.92-4.7 5.53-2.8.32-5.6 1.02-8.2 2.32-1.5.7-2.6 1.3-2.6 1.3 25.1 24.2 57.9 26.62 80.5-1.2z" stroke="#000" stroke-opacity="0" fill="#485a7e"/><path d="M3885.76 9614.76s.3 0 .3-.4c-.9-1.9-1.3-1.7-2.1-3.7-1.6-4.33-1.5-9.15.2-13.47.1-.4-.4-.6-.6-.3-1.6 4.2-1.8 8.83-.5 13.05.7 2.1 1.6 2.9 2.7 4.8zM3879.76 9601.2c-1.4 2.72-3.9 4.53-6.5 6.13-2.9 1.7-5.9 3.42-8.8 5.13-2.8 1.6-5.7 3.1-8.5 4.7-2 1.12-3.9 2.52-4.8 4.53-1.6-1.82-3.4-3.42-5.3-4.83-2.4-1.7-5-2.8-6.9-5.12-1.4-1.9-2.9-3.4-4.9-4.72-2.3-1.3-4.9-2.2-7.4-3-.4-.1-.7.4-.3.5 2.3.8 4.7 1.5 6.8 2.7 2.6 1.4 4.1 3.42 6 5.53 1.5 1.8 3.7 2.8 5.7 4.1 2.3 1.62 4.3 3.43 6.1 5.53.1.2.4.2.5 0 1.1-2.82 3.9-4.22 6.4-5.63 3-1.6 6-3.3 8.9-5.02 2.8-1.6 5.6-3.1 8.2-4.82 2.2-1.5 4.2-3.1 5.4-5.52.2-.3-.4-.6-.5-.2h-.1z" stroke="#000" stroke-opacity="0" fill="#2c3b59"/><path d="M3846.57 9613.26c-5.2-4.62-7.8-11.35-12.8-16.17-.3-.3-.7.2-.4.4 5 4.8 7.6 11.64 12.8 16.26.3.2.7-.2.4-.5zM3867.97 9600.6c-1.2 2.12-3.1 3.72-4.8 5.33-1.8 1.7-3.6 3.3-5.4 5.02-.2.2.2.6.5.4l5.7-5.42c1.7-1.5 3.4-3 4.6-5.12.2-.3-.4-.5-.6-.2z" stroke="#000" stroke-opacity="0" fill="#2c3b59"/><path d="M3848.26 9620.6c.2-1.42.2-2.82.3-4.23-.6-.1-1.5-.2-2 .2-.6.5-.3 2.4-.4 3.1-.4 2.73-.6 4.83-.6 4.83s2.3 1.2 2.3-1.6c.2-.7.3-1.5.4-2.3zM3854.66 9622.6c-1.8 4.3 1.9 3.8 2 2.5.2-1.9.7-3.8.8-5.72 0-1.8-.1-3.7-.2-5.62-.7.2-1.5.4-2.2.5-.1 1 .1 1.9.3 3 .3 1.82-.5 3.53-.7 5.33z" stroke="#000" stroke-opacity="0" fill="#232c44"/><path d="M3868.57 9559.94c0-1.7-.5-3.3-1.3-4.82-.8-1.5-1.8-2.8-2.9-4-1.1-1.32-2.2-2.52-4-3.02-1.9-.6-3.9-.4-5.9-.3-2.1.1-4.2.1-6.4.3-1 .1-2.1.2-3 .6-.9.4-1.6.9-2.4 1.4-1.6.8-3.3 1.3-4.9 2.3-1.7 1.02-2.4 2.63-3 4.53-.6 2.1-1 4.32-.8 6.53 0 .1 0 .1.1.1l-.1.1v.2c.2.2.3.3.5.4h.2c1.1-1.4 1.1-3.4 1.4-5.12.3-1 .4-2.5 1.4-3 .6-.4 1.5-.3 2.3-.5.6-.1 1.2-.3 1.7-.6.4-.22.7-.52 1.1-.62.6-.2 1.2.1 1.9.2 1.8.3 3.4-.2 5.2-.7 1.2-.3 2.2-.2 3.4 0 1 .2 2.1.3 3.1.5 1.1.2 2.1.3 3.2.5s2.3.3 2.9 1.5c.9 1.82 1.3 3.83 1.1 5.93-.1 1.9-.4 3.82-.2 5.73.1 1.1 1.1 1.6 1.7.6.3-.5.6-.6 1.2-.7.2 0 .4-.1.6-.2.5-.5.7-1.3.9-1.9.6-1.82 1-3.93 1-5.94z" stroke="#000" stroke-opacity="0" fill="#5a3728"/><path d="M3853.36 9542.77c-1.4-.1-2.7.3-3.8 1-1.5.9-2.1 2.62-3.8 3.22-2.4.8-4.1 2.4-3.9 5.1 0 .4.6.3.6-.1-.1-1.5.5-3 1.9-3.8.8-.6 1.9-.6 2.8-1.2 1-.7 1.5-1.82 2.4-2.52 1.1-.8 2.4-1.2 3.8-1.1.4 0 .4-.6 0-.6zM3867.07 9550.2c0-.4-.6-.3-.6 0 .1 2.92.2 5.63-2.3 7.53-.3.3.1.7.4.5 2.6-2.1 2.5-4.9 2.5-8.02zM3865.76 9548.1c0-.4-.6-.3-.6.1 0 1.9 0 3.8-1.1 5.52-.2.3.3.6.5.2 1.1-1.7 1.2-3.82 1.2-5.82z" stroke="#000" stroke-opacity="0" fill="#392e2a"/><path d="M3854.07 9625.6c27.6 0 50-22.38 50-50 0-27.6-22.4-50-50-50s-50 22.4-50 50c0 27.62 22.4 50 50 50z" stroke="#6c6e83" fill-opacity="0"/><path d="M3766.37 8938.33a6 6 0 0 1 6-6h1551a6 6 0 0 1 6 6v222.85a6 6 0 0 1-6 6h-1551a6 6 0 0 1-6-6z" fill="#e0e8f5"/><path d="M3787.36 8932.33h14.98m7.5 0h14.98m7.5 0h14.98m7.5 0h14.98m7.5 0h14.98m7.5 0h14.98m7.5 0h14.98m7.5 0h14.97m7.5 0h14.97m7.5 0h14.98m7.5 0h14.98m7.5 0h14.98m7.5 0h14.98m7.5 0h14.98m7.5 0h14.98m7.5 0h14.98m7.5 0H4162m7.5 0h14.98m7.5 0h14.97m7.5 0h14.98m7.5 0h14.98m7.5 0h15m7.48 0h15m7.48 0h15m7.48 0h14.98m7.5 0h14.98m7.5 0h14.98m7.5 0h14.98m7.5 0h14.98m7.5 0h14.97m7.5 0h15m7.5 0h14.97m7.5 0h14.98m7.5 0h14.98m7.5 0h14.98m7.5 0h14.98m7.5 0h14.98m7.5 0h14.98m7.5 0h14.98m7.5 0H4679m7.5 0h14.98m7.5 0h14.97m7.5 0h14.98m7.5 0h14.98m7.5 0h15m7.48 0h15m7.48 0h15m7.48 0h14.98m7.5 0h14.98m7.5 0h14.98m7.5 0h14.98m7.5 0h14.98m7.5 0h14.97m7.5 0h15m7.5 0h14.97m7.5 0h14.98m7.5 0h14.98m7.5 0h14.97m7.5 0h14.98m7.5 0h14.98m7.5 0h14.98m7.5 0h14.98m7.5 0H5196m7.5 0h14.98m7.5 0h14.97m7.5 0h14.98m7.5 0h14.98m7.5 0h15m7.48 0h7.5l.93.07.93.22.87.36.8.5.72.6.6.72.5.8.36.87.22.92.07.93v7.42m0 7.43v14.86m0 7.43v14.85m0 7.43v14.86m0 7.44v14.85m0 7.42v14.86m0 7.43v14.86m0 7.43v14.85m0 7.43v14.85m0 7.43v14.86m0 7.43v7.43l-.07.93-.22.93-.36.87-.5.8-.6.72-.72.6-.8.5-.87.36-.92.22-.93.08h-7.5m-7.48 0h-15m-7.5 0h-14.98m-7.5 0h-14.97m-7.5 0h-14.98m-7.5 0h-14.98m-7.5 0h-15m-7.48 0h-15m-7.48 0h-14.98m-7.5 0h-14.98m-7.5 0h-14.98m-7.5 0h-14.98m-7.5 0h-14.98m-7.5 0h-14.98m-7.5 0h-14.97m-7.5 0h-15m-7.5 0h-14.97m-7.5 0h-14.98m-7.5 0h-14.98m-7.5 0h-14.98m-7.5 0h-14.98m-7.5 0h-14.98m-7.5 0h-14.98m-7.5 0h-14.98m-7.5 0h-14.98m-7.5 0h-14.98m-7.5 0h-14.97m-7.5 0h-14.98m-7.5 0h-14.98m-7.5 0h-15m-7.48 0h-15m-7.48 0h-14.98m-7.5 0h-14.98m-7.5 0h-14.98m-7.5 0h-14.98m-7.5 0h-14.98m-7.5 0h-14.98m-7.5 0h-14.97m-7.5 0h-15m-7.5 0h-14.97m-7.5 0h-14.98m-7.5 0h-14.98m-7.5 0h-14.98m-7.5 0h-14.98m-7.5 0h-14.98m-7.5 0h-14.98m-7.5 0h-14.98m-7.5 0h-14.98m-7.5 0h-14.97m-7.5 0h-14.98m-7.5 0h-14.98m-7.5 0h-14.98m-7.5 0h-15m-7.48 0h-15m-7.48 0h-14.98m-7.5 0h-14.98m-7.5 0h-14.98m-7.5 0h-14.98m-7.5 0h-14.98m-7.5 0h-14.98m-7.5 0h-14.97m-7.5 0h-15m-7.48 0h-15m-7.48 0h-15m-7.48 0h-15m-7.48 0h-15m-7.48 0h-14.98m-7.5 0h-14.98m-7.5 0h-14.98m-7.5 0h-7.5l-.92-.08-.92-.22-.87-.36-.8-.5-.72-.6-.6-.72-.5-.8-.36-.87-.22-.92-.08-.92v-7.43m0-7.43v-14.86m0-7.42v-14.86m0-7.43v-14.86m0-7.43v-14.86m0-7.42v-14.86m0-7.43v-14.86m0-7.43v-14.85m0-7.43v-14.85m0-7.43v-14.86m0-7.43v-7.42l.08-.94.22-.93.36-.87.5-.8.6-.72.72-.6.8-.5.87-.36.92-.22.93-.07h7.5" stroke="#2f3564" stroke-width="1.5" fill="none"/><path d="M4291.45 9031.5a6 6 0 0 1 6-6h371.63a6 6 0 0 1 6 6v38.28a6 6 0 0 1-6 6h-371.63a6 6 0 0 1-6-6z" stroke="#6c6e83" fill="#fff"/><path d="M4324.63 9039.04h320.3v24.15h-320.3z" fill="none"/><use xlink:href="#e" transform="matrix(1,0,0,1,4324.633707797395,9039.03927963254) translate(0 18.880208333333336)"/><use xlink:href="#f" transform="matrix(1,0,0,1,4324.633707797395,9039.03927963254) translate(37.852864583333336 18.880208333333336)"/><use xlink:href="#g" transform="matrix(1,0,0,1,4324.633707797395,9039.03927963254) translate(139.03385416666669 18.880208333333336)"/><use xlink:href="#h" transform="matrix(1,0,0,1,4324.633707797395,9039.03927963254) translate(179.77604166666669 18.880208333333336)"/><use xlink:href="#i" transform="matrix(1,0,0,1,4324.633707797395,9039.03927963254) translate(204.17578125000003 18.880208333333336)"/><use xlink:href="#j" transform="matrix(1,0,0,1,4324.633707797395,9039.03927963254) translate(246.17578125000003 18.880208333333336)"/><path d="M3850.6 9050.63a21.7 21.7 0 0 1 21.7-21.7h246.28a21.7 21.7 0 0 1 21.7 21.7 21.7 21.7 0 0 1-21.7 21.7H3872.3a21.7 21.7 0 0 1-21.7-21.7z" stroke="#6c6e83" fill="#fff"/><path d="M3923.37 9036.07h224.34v25.06h-224.33z" fill="none"/><use xlink:href="#k" transform="matrix(1,0,0,1,3923.3734339473003,9036.066206712852) translate(0 19.380208333333336)"/><use xlink:href="#l" transform="matrix(1,0,0,1,3923.3734339473003,9036.066206712852) translate(75.59635416666667 19.380208333333336)"/><use xlink:href="#m" transform="matrix(1,0,0,1,3923.3734339473003,9036.066206712852) translate(128.36067708333334 19.380208333333336)"/><path d="M3857.24 9098.72c27.6 0 50-22.3 50-49.97 0-27.57-22.4-50-50-50s-50 22.43-50 50c0 27.66 22.4 49.97 50 49.97z" stroke="#6c6e83" fill="#a2c6f6"/><path d="M3857.24 9097.6c26.9 0 48.8-21.8 48.8-48.75 0-26.96-21.9-48.77-48.8-48.77-27 0-48.8 21.8-48.8 48.77 0 26.95 21.8 48.76 48.8 48.76z" stroke="#000" stroke-opacity="0" fill="#a2c6f6"/><path d="M3878.14 9027.14c0-.2-.1-.4-.1-.6.2-.4.2-.82.2-1.22 0-1-.7-1.82-1.3-2.63-.7-1.02-1.4-2.03-2.2-2.83-.4-.4-.8-.8-1.2-1-.6-.32-1.1-.42-1.6-1.02-1-1.52-2.1-2.63-3.8-3.23-1.1-.4-2.3-.4-3.5-.3-.6-.7-1.7-1.12-2.8-1.12-.7-.1-1.5.2-2.3.1-.6-.1-1-.5-1.6-.6-1.2-.2-2.5.1-3.6.4-1.3.4-2.3 1-3.5 1.72-.7.4-1.4.2-2.2.3-.5 0-1 .2-1.5.4-1.8.8-2.9 2.43-3.4 4.25-1.2.1-2.2.6-3 1.4-1.4 1.42-1.4 3.04-1.3 4.86 0 .7 0 1.3-.2 1.9-.1.62-.3 1.13-.5 1.63-.3 1.1-.2 2.12 0 3.23l.9 5.75c-.4.9-.3 2.12.4 3.03.2.2.6.5.9.7.5.4 1 .9 1.4 1.52.5.8 1.1 1.6 1.8 2.32 3 2.93 7.3 3.84 11.4 3.53 2.5-.2 4.8-1 7.3-1.2 1.2-.1 2.4-.1 3.6-.3 1.1-.3 2.1-.72 3-1.22 3.6-1.72 6.9-4.85 7.3-9 0-.8 0-1.5.3-2.2.2-.5.5-1.02.7-1.52.3-1.1-.3-2.42 0-3.63.2-1.1.5-2.22.4-3.43z" stroke="#000" stroke-opacity="0" fill="#33261a"/><path d="M3878.74 9079.24c-3.6-2.22-8.8-3.13-10.6-7.37-.9-2.33-.5-5.15-.5-7.58v-7.38c0-.3-.4-.4-.5-.1-1 1.42-4 1.32-5.5 1.42-1.7.1-3.5.2-5.3.2-3.1 0-6.7.3-9.5-1.2 0-.42-.1-.72-.1-1.13 0-.3-.6-.3-.6 0 0 .42.1.72.1 1.13-.1 0-.1.1-.1.1 0 .1.1.2.1.2.1 1.1.1 2.22.2 3.33.2 2.93.3 5.86.3 8.78.1.9.1 1.92.1 2.83-.9 1.92-2.3 3.74-3.9 5.25-1.3 1.2-2.7 2.33-4.2 3.23-1.1.8-2.5 1.32-3.3 2.53v.2c0 .1.1.1.1.2 3.4 1.62 6.9 3.13 10.5 4.55 3.3 1.2 7.1 2.92 10.8 2.52 1.6-.2 2.9-.9 4.3-1.72 1.7-1 3.4-1.9 5.1-2.82.8-.5 1.6-.9 2.4-1.3 3.3-.2 6.5-1.12 9.5-2.53.6-.3 1.7-.6 2.1-1.2.8-1.02-.8-1.73-1.5-2.13z" stroke="#000" stroke-opacity="0" fill="#b86554"/><path d="M3871.54 9051.47c.2-.8.3-1.6.5-2.52 0-.2 0-.3.1-.5l.3-1.52c0-.3.1-.6.1-.9.1-.82.2-1.53.4-2.23l.3-2.32c.9-6.57 1.4-12.32 1.2-12.83-.8-2.22-2.3-3.23-4-4.54-.3-.3-.6-.5-.9-.7-.3-.2-.5-.4-.8-.6-1.7-1.52-4.2-1.92-6.4-2.02-5.2-.2-10.2 0-14.8 2.52-.7.3-1.3.7-1.9 1.2-.1.1-.3.2-.5.32-.6.6-1.2 1.2-1.7 2-.5.72-.8 1.53-.9 2.44-.2 1.2-.1 2.42-.4 3.73v.2c-.2 1-.2 3.73-.1 6.96v2.33c.1.8.1 1.6.1 2.4.1.72.1 1.52.2 2.23v.6c.1.5.1.9.1 1.42.1.4.1.9.2 1.3.2 1.73.4 3.04.7 4.05.6 2.22 1.6 4.34 3 6.26 1.9 2.52 4.4 4.54 7.4 5.25 1.2.4 2.5.5 3.8.4.8-.1 1.6-.2 2.3-.4.5-.1 1-.2 1.5-.4 1.6-.4 3.1-1.2 4.4-2.22 1.8-1.4 3.2-3.33 4.1-5.55.6-1.5 1.2-3.83 1.7-6.36z" stroke="#000" stroke-opacity="0" fill="#b86554"/><path d="M3876.04 9041.17c-.4-1.5-2.1-2.32-3.1-.8-.1.2.1.4.3.4-.8 1.4-1.3 3.03-1.8 4.64-.3 1.12-1.1 2.94-.8 4.15.5 2.12 3.3-.2 4-1 1.7-2.03 2-4.95 1.4-7.38zM3839.54 9046.42c.5.9 3 3.54 3.8 1.52.4-1.22-.1-3.03-.3-4.24-.2-1.72.1-2.83-.5-4.35.2 0-.2-.6-.3-.9-.8-1.62-2.6-1-3.2.4-.9 2.42-1 5.35.5 7.57z" stroke="#000" stroke-opacity="0" fill="#b86554"/><path d="M3866.54 9042.6c.1-.62.2-1.23.1-1.73 0-.3-.1-.6-.3-.8-.6-.6-1.3-.1-1.4.5-.3.8-.3 2.52.4 2.92.7.4 1-.1 1.2-.9zM3850.34 9041.78c.1-.5.2-1.1.1-1.72 0-.3-.2-.5-.3-.7-.6-.6-1.3-.1-1.4.5-.3.8-.3 2.42.4 2.83.8.4 1.1-.1 1.2-.92z" stroke="#000" stroke-opacity="0" fill="#33261a"/><path d="M3874.14 9041.98v-.1c0-.1 0-.1-.1-.2h-.2-.1c-.1 0-.1.1-.1.1-.1 0-.1.1-.1.1V9042.18l-.3 1.2c-.1.42-.5.92-.4 1.33 0 .2.1.3.2.4.2.4.3.72.3 1.12 0 .4-.4 1.72-1 1.4-.4-.1-.7.42-.3.52 1 .5 1.8-.9 1.9-1.82 0-.2 0-.5-.1-.7 0-.3-.4-.6-.4-.9-.1-.32.3-.92.4-1.23l.3-1.52zM3842.04 9045.92c-1-.9-1.2-1.62-.4-2.22l.4-.4c.1-.2.1-.3.1-.5.1-1.02-.4-2.23-.7-3.24-.1-.3-.7-.2-.6.2.2.7.9 2.52.7 3.13-.2.6-.8.8-1 1.4-.2 1 .4 1.82 1.3 2.12.4.1.5-.4.2-.5zM3863.54 9065.6c-.3-.5-1.4-.2-3.1.5-2.6.92-6.2.1-8.6-1-1.9-.9-3.9-2.62-5.4-4.34.2 3.03.3 5.96.3 8.9h.6c1.2 0 2.4.6 3.6.7 1 0 1.8-.5 2.7-.72 1.2-.4 2.4 0 3.7-.2.9-.1 1.8-.6 2.6-1.1 1-.6 4.2-1.32 3.6-2.73zM3860.24 9048.34c-.2-1.5-.4-3.13-.7-4.64-.1-.4-.7-.3-.6 0 .4 2.02.7 4.14.9 6.15 0 .7.3 1.22-.6 1.62-.6.3-1.5.2-2.1.1-.8-.1-1.4-.1-2.2-.1-.4.1-.4.7 0 .6 1.4-.1 4.6.92 5.4-.7.4-.8 0-2.22-.1-3.03z" stroke="#000" stroke-opacity="0" fill="#9c4736"/><path d="M3845.14 9036.53c.1.6.8.8 1.4.8 1.4.2 2.9 0 4.3 0 .8 0 2.6.3 3.3-.3 1.5-1.2-1.5-2.02-2.3-2.12-1.4-.2-2.8-.2-4.2.1-.5.1-2.7.92-2.5 1.53zM3869.14 9036.02c-1.3-.3-2.8-.4-4.2-.3-.7.1-3.8.7-2.3 2.02.6.6 2.4.4 3.2.4 1.5.1 2.9.3 4.4.3.5 0 1.2-.2 1.4-.8.3-.6-1.9-1.52-2.5-1.62z" stroke="#000" stroke-opacity="0" fill="#33261a"/><path d="M3854.64 9055.2c-.6-.1-1.3-.3-1.9-.6-.1 0-1-.2-1.1-.4.2.6.9 1.3 1.3 1.8.9 1.23 1.7 1.63 3.1 1.73 1.6.1 3.5-.1 4.9-1 0 0 1.6-1.12 1.8-2.23-.1.2-2 .6-2.9.8-.8.1-3.4.2-5.2-.1z" stroke="#000" stroke-opacity="0" fill="#9c4736"/><path d="M3885.14 9084.8l-.3-4.15v-.1h-.1l-4.3-1.82c-1.4-.6-7.2-2.12-7.2-2.12s-13 11.12-14.5 11.42c-1.6.3-15.4-10.6-15.4-10.6s-5.7 1.82-7.3 2.93c-2.9 2.12-2.1 5.75-1.9 8.78 2.4 14.64 49.9 12.12 51-4.34z" stroke="#000" stroke-opacity="0" fill="#fff8f0"/><path d="M3837.74 9095.2s.3 1.3.7-1.22c.7-4.95 2.2-15.65 2.1-15.65-.2 0-.4 0-.5.1h-.1c-4.9 1.1-9.6 4.54-14.3 6.56-3.5 1.4-1.3 1.6-1.3 1.6l13.4 8.6zM3892.54 9082.37c-1.7-1.32-3.6-1.92-5.6-2.53-2.5-.7-4.5-.9-6.9-1.6-.6-.2-3.3-.72-3.3-.72 0 6.26-1.2 18.38 0 17.67 8.5-4.86 16.6-10.1 15.8-12.83z" stroke="#000" stroke-opacity="0" fill="#456664"/><path d="M3847.34 9096.5c-.5-1-1-2.02-1.3-3.13l-.1-.1c-.1 0-.1 0-.1-.1h-.2c0 .1-.1.1-.1.1-1 1-1.9 1.92-2.8 3.03-.2.3.2.7.5.4.7-.9 1.5-1.8 2.4-2.62.3.9.7 1.82 1.2 2.73.2.3.7 0 .5-.3zM3873.64 9089.23c-.5-.9-1-1.7-1.5-2.52-.2-.3-.4-.6-.8-.5-.5 0-1 .7-1.3 1-.6.62-1.2 1.33-1.7 2.03-.2.3.2.7.5.4.6-.9 1.3-1.7 2.1-2.52.4-.3.3-.3.7-.1.2.2.3.62.5.82.3.5.7 1.1 1 1.72.2.3.7 0 .5-.3zM3863.94 9098.83c-.5-.9-.9-1.92-1.4-2.73-.2-.2-.4-.5-.8-.4-.4 0-.9.8-1.1 1.1l-2 2.43c-.3.3.2.7.4.4.8-1 1.5-2.22 2.5-3.03.2-.2.1-.3.5-.1.1 0 .3.6.4.8l1 1.83c.2.3.7 0 .5-.3zM3846.24 9083.48c-.3-.7-.7-1.52-1.1-2.22-.2-.4-.6-1.22-1.1-1.22-.5-.1-1 .6-1.3.9-.7.62-1.4 1.33-2 2.13-.3.3.2.7.4.4.4-.5.7-.9 1.1-1.2.3-.4.9-1.1 1.3-1.32.7-.3.9.4 1.2.9.4.62.7 1.22.9 1.83.2.4.7.2.6-.2z" stroke="#000" stroke-opacity="0" fill="#aeb5c2"/><path d="M3875.34 9028.35c-.3-.7-.9-1.3-1.4-2.02-.7-.7-1.3-1.5-2-2.12-1.4-1.4-2.9-2.52-4.7-3.32-3.6-1.52-7.7-1.3-11.4-.6-2.1.5-4.2 1.1-6.3 1.8-1.7.6-3.5 1.12-4.9 2.23-3.5 3.04-2.5 8.2-3.4 12.13v.1h.1c.3 1.1.4 2.22.8 3.23.1.4.4.8.8.7.6-.3.6-1.5.7-2 .1-1.13 0-2.23.3-3.35.4-1 .4-1.9.6-2.9.2-1.33.7-2.24 1.5-3.25 1.3-1.5 2.4-3.23 3.1-5.15.4.1.7.1 1.1.1.9 0 1.8 0 2.6.1 1.8 0 3.7.1 5.5.1 3.6.2 7.1.6 10.7 1.02h.1c2.4 1.1 2.1 4.84 2.4 7.07.2 1.5.4 3 .8 4.53.1.8 0 1.6 0 2.42-.1.7-.3 1.42-.4 2.12 0 .3 0 .6.3.7.5.52.8-.3.9-.7.2-.5.4-1.1.6-1.7.3-.52.5-1.12.6-1.73.2-1.1.3-2.22.5-3.33.2-1 .3-2.1.5-3.12.1-1 .3-2.02 0-3.03z" stroke="#000" stroke-opacity="0" fill="#33261a"/><path d="M3857.24 9098.72c27.6 0 50-22.3 50-49.97 0-27.57-22.4-50-50-50s-50 22.43-50 50c0 27.66 22.4 49.97 50 49.97z" stroke="#6c6e83" fill-opacity="0"/><path d="M3766.37 8675.32a6 6 0 0 1 6-6h1551a6 6 0 0 1 6 6v222.85a6 6 0 0 1-6 6h-1551a6 6 0 0 1-6-6z" fill="#e0e8f5"/><path d="M3787.36 8669.32h14.98m7.5 0h14.98m7.5 0h14.98m7.5 0h14.98m7.5 0h14.98m7.5 0h14.98m7.5 0h14.98m7.5 0h14.97m7.5 0h14.97m7.5 0h14.98m7.5 0h14.98m7.5 0h14.98m7.5 0h14.98m7.5 0h14.98m7.5 0h14.98m7.5 0h14.98m7.5 0H4162m7.5 0h14.98m7.5 0h14.97m7.5 0h14.98m7.5 0h14.98m7.5 0h15m7.48 0h15m7.48 0h15m7.48 0h14.98m7.5 0h14.98m7.5 0h14.98m7.5 0h14.98m7.5 0h14.98m7.5 0h14.97m7.5 0h15m7.5 0h14.97m7.5 0h14.98m7.5 0h14.98m7.5 0h14.98m7.5 0h14.98m7.5 0h14.98m7.5 0h14.98m7.5 0h14.98m7.5 0H4679m7.5 0h14.98m7.5 0h14.97m7.5 0h14.98m7.5 0h14.98m7.5 0h15m7.48 0h15m7.48 0h15m7.48 0h14.98m7.5 0h14.98m7.5 0h14.98m7.5 0h14.98m7.5 0h14.98m7.5 0h14.97m7.5 0h15m7.5 0h14.97m7.5 0h14.98m7.5 0h14.98m7.5 0h14.97m7.5 0h14.98m7.5 0h14.98m7.5 0h14.98m7.5 0h14.98m7.5 0H5196m7.5 0h14.98m7.5 0h14.97m7.5 0h14.98m7.5 0h14.98m7.5 0h15m7.48 0h7.5l.93.07.93.2.87.37.8.5.72.6.6.72.5.8.36.86.22.92.07.94v7.43m0 7.43v14.85m0 7.43v14.86m0 7.43v14.85m0 7.43v14.86m0 7.42v14.85m0 7.43v14.86m0 7.43v14.84m0 7.43v14.86m0 7.43v14.85m0 7.44v7.43l-.07.94-.22.92-.36.88-.5.8-.6.7-.72.63-.8.5-.87.35-.92.22-.93.07h-7.5m-7.48 0h-15m-7.5 0h-14.98m-7.5 0h-14.97m-7.5 0h-14.98m-7.5 0h-14.98m-7.5 0h-15m-7.48 0h-15m-7.48 0h-14.98m-7.5 0h-14.98m-7.5 0h-14.98m-7.5 0h-14.98m-7.5 0h-14.98m-7.5 0h-14.98m-7.5 0h-14.97m-7.5 0h-15m-7.5 0h-14.97m-7.5 0h-14.98m-7.5 0h-14.98m-7.5 0h-14.98m-7.5 0h-14.98m-7.5 0h-14.98m-7.5 0h-14.98m-7.5 0h-14.98m-7.5 0h-14.98m-7.5 0h-14.98m-7.5 0h-14.97m-7.5 0h-14.98m-7.5 0h-14.98m-7.5 0h-15m-7.48 0h-15m-7.48 0h-14.98m-7.5 0h-14.98m-7.5 0h-14.98m-7.5 0h-14.98m-7.5 0h-14.98m-7.5 0h-14.98m-7.5 0h-14.97m-7.5 0h-15m-7.5 0h-14.97m-7.5 0h-14.98m-7.5 0h-14.98m-7.5 0h-14.98m-7.5 0h-14.98m-7.5 0h-14.98m-7.5 0h-14.98m-7.5 0h-14.98m-7.5 0h-14.98m-7.5 0h-14.97m-7.5 0h-14.98m-7.5 0h-14.98m-7.5 0h-14.98m-7.5 0h-15m-7.48 0h-15m-7.48 0h-14.98m-7.5 0h-14.98m-7.5 0h-14.98m-7.5 0h-14.98m-7.5 0h-14.98m-7.5 0h-14.98m-7.5 0h-14.97m-7.5 0h-15m-7.48 0h-15m-7.48 0h-15m-7.48 0h-15m-7.48 0h-15m-7.48 0h-14.98m-7.5 0h-14.98m-7.5 0h-14.98m-7.5 0h-7.5l-.92-.07-.92-.22-.87-.36-.8-.5-.72-.6-.6-.72-.5-.8-.36-.88-.22-.9-.08-.95v-7.43m0-7.43v-14.84m0-7.43v-14.86m0-7.43v-14.85m0-7.44v-14.86m0-7.43v-14.85m0-7.43v-14.87m0-7.43v-14.85m0-7.43v-14.86m0-7.43v-14.85m0-7.43v-7.43l.08-.94.22-.9.36-.9.5-.8.6-.7.72-.6.8-.5.87-.37.92-.2.93-.08h7.5" stroke="#2f3564" stroke-width="1.5" fill="none"/><path d="M4676.33 9049.27l39.8-.4" stroke="#6c6e83" stroke-width="1.5" fill="none"/><path d="M4676.36 9050.02h-.78v-1.5h.76z" stroke="#6c6e83" stroke-width=".05" fill="#6c6e83"/><path d="M4731.16 9048.7l-14.22 4.8-.1-9.28z" stroke="#6c6e83" stroke-width="1.5" fill="#6c6e83"/><path d="M4983.4 9031.5a6 6 0 0 1 6-6H5174a6 6 0 0 1 6 6v38.28a6 6 0 0 1-6 6h-184.6a6 6 0 0 1-6-6z" stroke="#6c6e83" fill="#fff"/><path d="M5009.56 9038.97h161.8v24.22h-161.8z" fill="none"/><use xlink:href="#e" transform="matrix(1,0,0,1,5009.5637029962045,9038.968751274777) translate(0 18.880208333333336)"/><use xlink:href="#n" transform="matrix(1,0,0,1,5009.5637029962045,9038.968751274777) translate(37.852864583333336 18.880208333333336)"/><use xlink:href="#o" transform="matrix(1,0,0,1,5009.5637029962045,9038.968751274777) translate(81.00130208333334 18.880208333333336)"/><path d="M4734.08 9031.5a6 6 0 0 1 6-6h178.76a6 6 0 0 1 6 6v38.28a6 6 0 0 1-6 6h-178.76a6 6 0 0 1-6-6z" stroke="#6c6e83" fill="#fff"/><path d="M4760.93 9039.62h168.88v23.57h-168.87z" fill="none"/><use xlink:href="#e" transform="matrix(1,0,0,1,4760.930307685185,9039.619498235697) translate(0 18.380208333333336)"/><use xlink:href="#n" transform="matrix(1,0,0,1,4760.930307685185,9039.619498235697) translate(37.852864583333336 18.380208333333336)"/><use xlink:href="#p" transform="matrix(1,0,0,1,4760.930307685185,9039.619498235697) translate(81.00130208333334 18.380208333333336)"/><path d="M4926.1 9050.96l39.36.44" stroke="#6c6e83" stroke-width="1.5" fill="none"/><path d="M4926.12 9050.2l-.02 1.5h-.76v-1.5z" stroke="#6c6e83" stroke-width=".05" fill="#6c6e83"/><path d="M4980.47 9051.57l-14.32 4.48.1-9.27z" stroke="#6c6e83" stroke-width="1.5" fill="#6c6e83"/><path d="M4291.45 8767.6a6 6 0 0 1 6-6h331.83a6 6 0 0 1 6 6v38.3a6 6 0 0 1-6 6h-331.83a6 6 0 0 1-6-6z" stroke="#6c6e83" fill="#fff"/><path d="M4323.52 8775.25H4618V8800h-294.48z" fill="none"/><use xlink:href="#e" transform="matrix(1,0,0,1,4323.523336618977,8775.248888234555) translate(0 18.880208333333336)"/><use xlink:href="#q" transform="matrix(1,0,0,1,4323.523336618977,8775.248888234555) translate(37.852864583333336 18.880208333333336)"/><use xlink:href="#r" transform="matrix(1,0,0,1,4323.523336618977,8775.248888234555) translate(88.22005208333334 18.880208333333336)"/><use xlink:href="#s" transform="matrix(1,0,0,1,4323.523336618977,8775.248888234555) translate(109.40234375000001 18.880208333333336)"/><use xlink:href="#t" transform="matrix(1,0,0,1,4323.523336618977,8775.248888234555) translate(140.29166666666669 18.880208333333336)"/><use xlink:href="#u" transform="matrix(1,0,0,1,4323.523336618977,8775.248888234555) translate(207.40234375000003 18.880208333333336)"/><use xlink:href="#v" transform="matrix(1,0,0,1,4323.523336618977,8775.248888234555) translate(246.09375000000003 18.880208333333336)"/><path d="M3849.08 8788.13a21.7 21.7 0 0 1 21.7-21.7h324.56a21.7 21.7 0 0 1 21.7 21.7 21.7 21.7 0 0 1-21.7 21.7H3870.8a21.7 21.7 0 0 1-21.72-21.7z" stroke="#6c6e83" fill="#fff"/><path d="M3923.37 8769.6h316.42v36.28h-316.43z" fill="none"/><use xlink:href="#w" transform="matrix(1,0,0,1,3923.3734339473003,8769.60809884679) translate(0 24.880208333333336)"/><use xlink:href="#x" transform="matrix(1,0,0,1,3923.3734339473003,8769.60809884679) translate(65.97135416666666 24.880208333333336)"/><use xlink:href="#y" transform="matrix(1,0,0,1,3923.3734339473003,8769.60809884679) translate(137.39322916666666 24.880208333333336)"/><use xlink:href="#m" transform="matrix(1,0,0,1,3923.3734339473003,8769.60809884679) translate(214.375 24.880208333333336)"/><path d="M3858.02 8838.04c27.6 0 50-22.34 50-49.92 0-27.68-22.4-50.02-50-50.02s-50 22.34-50 50.02c0 27.58 22.4 49.92 50 49.92z" stroke="#6c6e83" fill="#a2c6f6"/><path d="M3857.32 8838.04c-18.8-1.2-32.2-10.97-37.1-18.22 1.2-1.9 4.8-6.94 6.5-8.35 1.5-1.2 3.2-2.22 5.1-2.82 1.8-.6 4.4-.4 4.4-.4h8.2c4.7 0 9.4.1 12.9.3 1.6 0 3.2.1 4.7.1 2.9.1 5.8.2 8.7.4.8.1 1.7.1 2.6.2.3 0 .6.1.9.1.3 0 .6 0 .9.1l.8.1c.5 0 1.1.1 1.7.1 1.3.2 2.6.3 3.8.5.4 0 .8.1 1.3.1s1.1.1 1.6.1c.2.1.5.1.8.2 1.9.32 3.7 1.02 5.4 2.03 1.9 1.2 5.3 7.24 5.3 7.24s-4.8 5.64-8.5 8.46c-9.8 7.54-17.7 10.56-30 9.76z" stroke="#000" stroke-opacity="0" fill="#ffa894"/><path d="M3878.02 8770.6c.2-1.9-.2-4.02-.5-5.93-.3-1.6-.3-3.82-1.2-5.33-.8-1.2-2.4-2.12-3.6-2.82-2.8-1.5-5.8-1.3-8.8-.6-2.1-2.42-6-2.52-8.9-.9-1.2.7-1.7 0-3.2.2-1 .1-3.3.3-4.1.8-1.7 1-3 2.8-3.8 4.62-2.2.2-3.7 1.1-4.3 3.43-.4 1.5 0 3.72-.3 5.23-.3 1.4-.8 2.72-.8 4.13 0 1.5.6 2.7 1 4.12.6 1.9.9 3.93.9 6.04-.1 1.2.1 2.5.8 3.6.2.42.5.82.9 1.22.7.6 4.2 4.63 4.2 4.63s1.3-2.4 2.4-2.3c2.6.4 5.4 0 8-.1 2.9 0 5.5-.22 8.1 1.3.4.2.7.5 1.1.7.4.2.8.4 1.3.6 1 .3 1.6 0 2.6-.1 2.1-.2.9.3 2 .9.4.2.9.1 1.3 0 .1-.1.3-.1.4-.2 1.2-.4 2.5-1.4 2.7-2.8.2-1.12-.4-2.13-.3-3.33.1-1.4 1-2.12 1.5-3.42.4-.9.2-1.72 0-2.62.9-1.3.9-3.83.4-5.03-.4-1.2-.8-2.02-.5-3.32.2-.9.6-1.82.7-2.72z" stroke="#000" stroke-opacity="0" fill="#fad3b1"/><path d="M3872.02 8788.32c-.9-1.2-1.6-2.2-2-3.72-.3-1.4-.6-2.92-.7-4.33 0-.4-.6-.3-.6.1.1 1.3.3 2.72.6 4.13-1.5 1.5-1.9 3.62-2.5 5.53-.3.8-.6 1.7-.9 2.62.4.2.8.4 1.3.6 1 .3 1.6 0 2.6-.1 2.1-.2.9.3 2 .9.4.2.9.1 1.3 0 .1-.1.3-.1.4-.2 0-.1 0-.2.1-.3.2-1.9-.4-3.72-1.6-5.23z" stroke="#000" stroke-opacity="0" fill="#ebbd94"/><path d="M3876.62 8811.17l-2.9-.8c-.3-.1-.6-.1-.8-.2l-1.5-.4c-1-.3-2.4-.52-3.6-1.02-.1-.1-.3-.2-.5-.3-.7-.4-1.2-1.1-1.2-2.1v-.1c-.1-2.83 0-5.55.1-8.37v-.1c.1-1 .1-2 .2-3.02v-.1c-.1-.1-.1-.1-.1-.2h-.1c-.1 0-.1-.1-.2-.1-3 .5-6.1.4-9.2.8-2.7.3-5.4.8-8.1 1.6 0-1.7-.1-3.3-.2-5.02 0-.4-.6-.3-.6.1.2 4.53.3 9.06.4 13.6-.6.8-1.5 1.3-2.5 1.8-.2.1-.4.2-.5.2-.5.2-.9.4-1.4.5-.8.3-1.6.5-2.4.7-.4.1-.8.1-1.2.2h-.1l-.4.1c-.6.2-1.5.2-1.7.92-.2.9 1.3 2.72 1.8 3.52.4.8.9 1.7 1.4 2.52 1.4 2.3 2.9 4.53 4.6 6.74 2 2.72 4.2 5.33 6.5 7.85l.2.2c.1 0 .2 0 .2-.1.6-.4 1.3-.92 1.9-1.32l.2-.2c1.3-.9 2.5-1.8 3.7-2.72l3.6-2.7c.1-.1.3-.22.4-.32 3.4-2.6 6.7-5.33 9.9-8.05 1.5-1.1 2.9-2.32 4.3-3.53 0-.1 0-.1.1-.2v-.1c0-.1-.1-.1-.1-.2-.1 0-.1-.1-.2-.1z" stroke="#000" stroke-opacity="0" fill="#ffa894"/><path d="M3870.62 8768.2c-.9-1-4.9-1.12-6.1-1.22-2.1-.1-4.1-.1-6.2-.1-4.6 0-9.2.3-13.8 1.3-.1 0-.2.1-.3.1 0 .1-.1.2 0 .42-.1 0-.1 0-.1.1-.1 0-.1 0-.1.1-.4 5.83-.8 16.3.9 22.74 1 3.42 3.8 7.65 6.6 9.76 5.4 4.13 11.6.6 15.2-4.02 4.2-5.44 4.6-12.78 4.7-19.42.1-1.92 0-3.73-.1-5.54 0-1.2.2-3.32-.7-4.23z" stroke="#000" stroke-opacity="0" fill="#ffa894"/><path d="M3865.42 8781.88c.1-.5.1-1.1 0-1.6 0-.3-.1-.6-.3-.82-.5-.5-1.2 0-1.3.6-.3.7-.3 2.32.4 2.73.7.4 1-.1 1.2-.92zM3850.92 8781.58c.2-.5.2-1.1.2-1.6-.1-.3-.2-.62-.3-.82-.5-.6-1.2-.1-1.4.5-.2.7-.3 2.32.4 2.72.6.4 1-.1 1.1-.8z" stroke="#000" stroke-opacity="0" fill="#232c44"/><path d="M3852.22 8802.8c.6.82 1.2 1.02 2.1 1.12 1.5.1 2.7.9 4.1 1.2 1 .1 1.9-.3 2.8-.3.8-.1 1.5.2 2.3.2 1 0 1.8-.4 2.6-.9 0-2.1 0-4.13.1-6.24-.6.5-3.9 3.73-7 4.63-2.7.82-5.7-.5-7.9-2 .1.9.4 1.7.9 2.3z" stroke="#000" stroke-opacity="0" fill="#f7886d"/><path d="M3850.72 8775.44c-1.2.1-2.4.3-3.5.9-.2.1-.5.3-.7.4-.2.2-.2.6.1.6 1.7.1 3.4-.2 5.1-.3.6 0 2.2.3 2.5-.5.4-1.4-1.9-1.2-2.6-1.2-.3 0-.6 0-.9.1zM3863.92 8775.54c-.8-.1-3.1-.1-2.6 1.2.3.8 1.9.5 2.5.5 1.7.1 3.4.3 5.1.2.3 0 .3-.4.1-.6-.3-.1-.5-.3-.8-.4-1.1-.6-2.3-.8-3.5-.9h-.8z" stroke="#000" stroke-opacity="0" fill="#fad3b1"/><path d="M3851.92 8792.45s.5 1.6 3.9 2c4.1.5 5.4-1.6 5.4-1.6l-9.3-.4z" stroke="#000" stroke-opacity="0" fill="#fff"/><path d="M3857.22 8782.08c0-.4-.6-.5-.6-.1-.2 1.1-.4 2.32-.8 3.52-.2.7-.6 1.4-.7 2.22-.1 1.5 1 1.6 2.1 2.3.3.2.7-.3.4-.5-.3-.2-.8-.3-1.1-.5-1.3-1-.5-2.2-.2-3.32.4-1.2.7-2.4.9-3.62z" stroke="#000" stroke-opacity="0" fill="#f7886d"/><path d="M3873.32 8781.17c-.7-2.2-2.2-2-3.6-.4-.3.3.2.6.5.3.1 0 .2-.2.3-.4-.3 1.6-.7 3.12-1.3 4.63-.3.9-1.1 2.32-.8 3.32.6 1.4 3.2-1 3.8-1.5.6-.6 1.5-1.42 1.6-2.42.2-1-.1-2.52-.5-3.53zM3840.62 8783.1c0 1 .8 1.9 1.4 2.6.5.5 2.9 3.12 3.6 1.82.4-.9-.2-2.42-.4-3.33-.4-1.62-.7-3.13-.9-4.74.1.1.2.3.3.4.2.3.7 0 .5-.3-1.2-1.7-2.7-2.1-3.6.1-.5 1-.9 2.42-.9 3.43z" stroke="#000" stroke-opacity="0" fill="#ffa894"/><path d="M3843.82 8781.38v-1.4c-.1-.4-.7-.4-.6 0 0 .7.2 1.5-.1 2.1-.1.4-.4.6-.6 1-.2.8.4 1.52 1 1.92.3.3.7-.2.3-.4-.3-.2-.5-.5-.6-.9-.1-.4 0-.7.4-.9.1-.22.2-.22.2-.42.2-.3 0-.7 0-1zM3871.32 8780.77c-.1.8-.4 1.7-.3 2.52 0 .5 1 1.8-.3 1.9-.4.1-.4.7 0 .6.8 0 1.3-.7 1.2-1.5 0-.4-.2-.6-.3-.9-.1-.3.1-.82.1-1.12l.2-1.4c.1-.4-.5-.4-.6-.1z" stroke="#000" stroke-opacity="0" fill="#f7886d"/><path d="M3827.32 8828.07l4.2-12.78c.8-2.12 1.7-4.64 2.1-7.05h4c.6 2.72.8 6.04 1.7 7.14 0 .1 1.1 1.5 2.5 3.1 1.4 1.62 3.1 3.64 4.2 4.74.8.7 1.5 1.5 2.1 2.42.6.9 1.1 1.9 1.6 2.82 1.1 1.7 2.7 2.82 4 4.33.8.9 1.3 1.92 1.7 3.13.9 2.7.6 2.6 2.8 2.7 1.7-1.3 1.4-2.8 2.7-4.42.7-1.1 1.6-2 2.3-3.1.6-1.1 1.1-2.22 1.9-3.23 1.3-1.8 3.1-3.22 4.5-5.03 1-1.3 2-2.92 2.6-4.53.1-.4.3-.8.5-1.2.2-.7.4-1.6.5-2.6.1-1.02.2-2.02.4-2.93.1-.7.3-1.4.5-2.1l.1-.1c.3-.02.6-.02.8.1.3 0 .6 0 .9.1.5 0 1.1.1 1.7.1v.2c-.1 1.9.9 4 1.5 7.23.2 1.2.4 2.32.4 3.53.2 3.12 4 10.46 4 10.46s-3.4 1.8-5.7 2.9c-6.3 3.33-11.7 4.44-19.6 4.64-12.8.3-21.4-3.72-30.9-10.57z" stroke="#000" stroke-opacity="0" fill="#f2e7e1"/><path d="M3879.82 8829.18l-1.8-1.5c-.4-.4-.9-.8-1.2-1.32-.4-.4-.6-1.2-1-1.5-.2-.1-.3-.1-.6-.2-1.1-.2-2-.7-2.7-1.62 2.5-1.5 5-3.22 6.5-5.73 0 0 .1-.1.1-.2-.6-3.22-1.5-5.33-1.5-7.24-1.4.5-2.7 1-4 1.7-.2.92-.3 1.92-.4 2.93-.1 1-.3 1.9-.5 2.6-.2.4-.3.8-.5 1.2-.6 1.62-1.6 3.23-2.6 4.54-1.3 1.8-3.2 3.22-4.5 5.03-.8 1-1.2 2.12-1.9 3.22s-1.6 2-2.3 3.1c-1.2 1.52-.7 2.73-2.2 4.04 3.7-1 8.5 1.4 8.2-7.85 1 .7 2.1 1.2 3.2 1.8 1 .5 1.6 1.2 2.4 1.8.6.62 1.3.82 2.1 1.12.9.2 9.7-1.8 5.2-5.94zM3849.02 8828.17c-.4-.9-.8-1.8-1.3-2.6-3.4 1.5-6.7 3.7-8 7.34-.1 0-.1.1-.1.1 0 .1.1.1.1.2l.1.1h.1c2.8.3 5.7 0 8.4-1.1.6-.3 1.1-.6 1.7-.8.7-.2 1.1 0 1.6 0-.9-1-1.9-2.02-2.6-3.23zM3836.32 8824.55c-2.2.1-4.3 1.3-6.1 2.42-1.2.8-1.7 1.2-3.2 1.5 1.9 1.1 3.2 1.92 6.1 3.63 1.1-1.7 3.4-3.62 4.1-5.53.3-.9.3-2.02-.9-2.02zM3867.32 8808.45c-.6 1.7-1.3 3.32-2.1 4.93-.4.8-.9 1.6-1.4 2.42-1.2 1.8-2.6 3.52-4.6 4.53-1.4.6-2.6.6-4 .2-1.2-.4-2.5-1-3.5-1.72-2.1-1.4-3.4-3.7-4.6-5.82h-.1c-.5-1.9-.9-3.73-1.2-5.64v-.1c-.2.1-.4.2-.5.2.2 1.8.5 3.63 1 5.34v.1c.2 2.82 1.1 5.43 2.4 8.05.6 1.3 1.3 2.62 2.1 3.82.7 1.1 1.6 2.12 2.4 3.12.5.6.9 1 1.5 1.4.3.2.7.4 1.1.4 1 .22 2 .1 2.8-.4 2.3-1.1 3.3-3.5 4-5.72v-.2l2.1-7.25c1.1-2.42 2.2-4.83 3.2-7.35l-.6-.3zm-5 14.9c0 .1-.1.2-.1.3-.7 2.2-1.8 4.63-4.1 5.53-1 .4-2.2.4-3.2-.1-.1-.1-.2-.1-.3-.2-1-.7-1.7-1.9-2.5-2.82-1.5-1.9-2.6-4.02-3.6-6.24-.9-1.8-1.5-3.62-1.8-5.63.5 1.6 1.2 3 2 4.4 1.5 2.63 4.2 6.05 7.3 7.06 3.1.9 5.1-2.62 6.3-4.83.5-1.1 1.1-2.22 1.6-3.32-.5 1.92-1 3.93-1.6 5.84zm.4-4.74c-1.4 2.73-3.6 8.17-7.4 6.05-4-2.2-6.5-6.24-7.9-10.57 1.1 1.92 2.3 3.73 4.1 5.04 1.1.7 2.4 1.2 3.6 1.7 1.3.4 2.4.4 3.6 0 2-.8 3.6-2.4 4.9-4.12l.3-.6c-.4.9-.8 1.7-1.2 2.5z" stroke="#000" stroke-opacity="0" fill="#fff"/><path d="M3845.82 8795.57c-.6-1.5-1.1-3.02-1.4-4.63-.2-1.2-.8-3.83-1.2-3.73-.3 0-.6 1.42-.6 2.03-.1.9-.1 1.9-.1 2.82l-.3 2.7c-.1.92-.5 1.82-.6 2.73 0 .1 0 .1.1.2h.1c.6.1 1.2 0 1.8-.2.7-.1 1.4.1 2-.1.3 0 .6 0 .6-.4.1-.4-.3-1-.4-1.4zM3873.92 8796.47c-.6-1.5-1-3.02-1.3-4.53-.3-1.3-.9-3.92-1.2-3.82-.4 0-.7 1.4-.7 2 0 1.02 0 1.92-.1 2.83 0 1-.1 1.9-.2 2.82-.1.9-.6 1.8-.6 2.72v.1h.1c.6.2 1.2 0 1.9-.1.6-.22 1.3 0 2-.1.3-.12.5-.12.5-.42.1-.5-.2-1.1-.4-1.5z" stroke="#000" stroke-opacity="0" fill="#3b2b2b"/><path d="M3843.62 8786v-.1-.1c-.1 0-.1-.1-.1-.1 0-.1-.1-.1-.1-.2-.1 0-.2-.1-.3-.1-.1 0-.2.1-.2.1-.1.1-.2.1-.2.2-.2.4-.3 1.2.1 1.5.1.1.2.1.3.1.1.02.2.02.3-.1.1 0 .2-.1.2-.1 0-.1.1-.2.1-.2v-.5c0-.2 0-.3-.1-.4zM3871.82 8787.1v-.1l-.1-.1v-.1c0-.1-.1-.1-.2-.2 0 0-.1-.1-.2-.1s-.2 0-.3.1c-.1 0-.1.1-.2.2-.2.4-.2 1.22.2 1.52.1.1.2.1.3.1.1 0 .2 0 .3-.1.1 0 .1-.1.2-.1 0-.1 0-.2.1-.3v-.4c-.1-.2-.1-.3-.1-.4z" stroke="#000" stroke-opacity="0" fill="#fff"/><path d="M3873.52 8772.02c-.2-1.6-.3-3.32-.7-4.83-.1-.52-.2-.82-.7-1.12-.9-.5-2.7-.5-3.8-.8-1.4-.2-2.8-.6-4.2-.7-1.4-.2-2.8-.1-4.2-.1-1.7 0-3.4-.2-5.1-.4-2.5-.22-5.2-.52-7.6.4-1.8.7-3.5 2.1-4.2 4.1-.7 2.23-.4 5.05-.4 7.46 0 0-.1 0-.1.1l-.1.1s0 .1.1.1v.1l.1.1v.2c0 .1 0 .1.1.1 0 0 0 .1.1.1h.1c.6.9 1 1.92 1.1 2.93 0 .1 0 .2.1.2 0 .1.1.1.2.1h.1c.1-.1.2-.1.2-.2.8-1.9.2-3.83.4-5.74.2-1.2.6-2.3.7-3.52.1-.7.1-1.5.3-2.2.4.2.8.4 1.3.6 1.4.4 2.5 0 3.9 0 1.1.1 1.8.7 2.9.5 1.3-.4 2.5-.8 3.5-1.7.4.2.8.4 1.1.5 1.9.7 3.9.4 5.1 2.3.6 1.12 1.2 2.22 2.5 2.63.6.2 1.3.4 1.9.5 1 1.8 2.6 3.42 2.5 5.63-.1 1.4-.2 2.52.2 3.93.4 1.4 1.1 2.8 1.3 4.22-.1.2.6 1.9.6 1.5 0-.4 1.2-.3 1.2-.8.8-2.1 1.2-2.92 1.1-5.33-.1-.72-1.2-3.54-1.3-4.24-.1-.9.1-1.8.1-2.72.1-1.3-.2-2.72-.4-4.02z" stroke="#000" stroke-opacity="0" fill="#fad3b1"/><path d="M3845.12 8765.07c-.1-.5-.5-.9-.6-1.4-.2-.6 0-1.2.2-1.82.1-.4-.5-.5-.6-.1-.3 1-.4 1.8 0 2.72.3.6.5 1.1.5 1.8-.1.6-.1 1.02 0 1.62 0 .4.6.3.6-.1-.2-.92.2-1.82-.1-2.73zM3871.62 8769.9c-.9-1.3-2.2-1.6-3.6-2.2-1-.3-1.7-.92-2.3-1.72-.4-.5-.7-.9-1.2-1.2-.7-.4-1.5-.6-2.3-.6-.8-.1-1.6 0-2.3.3-.4.1-.2.7.2.5.9-.3 1.8-.4 2.8-.1.9.2 1.7.7 2.3 1.4.5.7.9 1.3 1.7 1.7 1 .4 2 .6 3 1.12 1.7 1.1 2 3.12 1.8 5.03-.1.4.5.5.6.1.1-1.5.1-3.02-.7-4.33zM3873.42 8764.87c-.3-1-1-1.9-2-2.52-.9-.6-2-.9-3.1-.8-.4 0-.3.6.1.6 1 0 1.9.2 2.7.7.8.6 1.4 1.42 1.8 2.32.1.3.7.1.5-.3z" stroke="#000" stroke-opacity="0" fill="#ebbd94"/><path d="M3858.02 8838.04c27.6 0 50-22.45 50-50.02 0-27.68-22.4-50.02-50-50.02s-50 22.34-50 50.02c0 27.57 22.4 50.02 50 50.02z" stroke="#6c6e83" fill-opacity="0"/><path d="M3766.37 9201.33a6 6 0 0 1 6-6h1551a6 6 0 0 1 6 6v222.85a6 6 0 0 1-6 6h-1551a6 6 0 0 1-6-6z" fill="#e0e8f5"/><path d="M3787.36 9195.33h14.98m7.5 0h14.98m7.5 0h14.98m7.5 0h14.98m7.5 0h14.98m7.5 0h14.98m7.5 0h14.98m7.5 0h14.97m7.5 0h14.97m7.5 0h14.98m7.5 0h14.98m7.5 0h14.98m7.5 0h14.98m7.5 0h14.98m7.5 0h14.98m7.5 0h14.98m7.5 0H4162m7.5 0h14.98m7.5 0h14.97m7.5 0h14.98m7.5 0h14.98m7.5 0h15m7.48 0h15m7.48 0h15m7.48 0h14.98m7.5 0h14.98m7.5 0h14.98m7.5 0h14.98m7.5 0h14.98m7.5 0h14.97m7.5 0h15m7.5 0h14.97m7.5 0h14.98m7.5 0h14.98m7.5 0h14.98m7.5 0h14.98m7.5 0h14.98m7.5 0h14.98m7.5 0h14.98m7.5 0H4679m7.5 0h14.98m7.5 0h14.97m7.5 0h14.98m7.5 0h14.98m7.5 0h15m7.48 0h15m7.48 0h15m7.48 0h14.98m7.5 0h14.98m7.5 0h14.98m7.5 0h14.98m7.5 0h14.98m7.5 0h14.97m7.5 0h15m7.5 0h14.97m7.5 0h14.98m7.5 0h14.98m7.5 0h14.97m7.5 0h14.98m7.5 0h14.98m7.5 0h14.98m7.5 0h14.98m7.5 0H5196m7.5 0h14.98m7.5 0h14.97m7.5 0h14.98m7.5 0h14.98m7.5 0h15m7.48 0h7.5l.93.08.93.23.87.36.8.48.72.6.6.72.5.8.36.88.22.9.07.95v7.43m0 7.43v14.84m0 7.43v14.86m0 7.43v14.85m0 7.44v14.86m0 7.43v14.85m0 7.43v14.87m0 7.43v14.86m0 7.42v14.86m0 7.43v14.86m0 7.42v7.43l-.07.94-.22.92-.36.87-.5.8-.6.73-.72.6-.8.5-.87.36-.92.2-.93.08h-7.5m-7.48 0h-15m-7.5 0h-14.98m-7.5 0h-14.97m-7.5 0h-14.98m-7.5 0h-14.98m-7.5 0h-15m-7.48 0h-15m-7.48 0h-14.98m-7.5 0h-14.98m-7.5 0h-14.98m-7.5 0h-14.98m-7.5 0h-14.98m-7.5 0h-14.98m-7.5 0h-14.97m-7.5 0h-15m-7.5 0h-14.97m-7.5 0h-14.98m-7.5 0h-14.98m-7.5 0h-14.98m-7.5 0h-14.98m-7.5 0h-14.98m-7.5 0h-14.98m-7.5 0h-14.98m-7.5 0h-14.98m-7.5 0h-14.98m-7.5 0h-14.97m-7.5 0h-14.98m-7.5 0h-14.98m-7.5 0h-15m-7.48 0h-15m-7.48 0h-14.98m-7.5 0h-14.98m-7.5 0h-14.98m-7.5 0h-14.98m-7.5 0h-14.98m-7.5 0h-14.98m-7.5 0h-14.97m-7.5 0h-15m-7.5 0h-14.97m-7.5 0h-14.98m-7.5 0h-14.98m-7.5 0h-14.98m-7.5 0h-14.98m-7.5 0h-14.98m-7.5 0h-14.98m-7.5 0h-14.98m-7.5 0h-14.98m-7.5 0h-14.97m-7.5 0h-14.98m-7.5 0h-14.98m-7.5 0h-14.98m-7.5 0h-15m-7.48 0h-15m-7.48 0h-14.98m-7.5 0h-14.98m-7.5 0h-14.98m-7.5 0h-14.98m-7.5 0h-14.98m-7.5 0h-14.98m-7.5 0h-14.97m-7.5 0h-15m-7.48 0h-15m-7.48 0h-15m-7.48 0h-15m-7.48 0h-15m-7.48 0h-14.98m-7.5 0h-14.98m-7.5 0h-14.98m-7.5 0h-7.5l-.92-.07-.92-.2-.87-.37-.8-.5-.72-.6-.6-.72-.5-.8-.36-.86-.22-.92-.08-.94v-7.43m0-7.42v-14.86m0-7.43v-14.86m0-7.42v-14.86m0-7.43v-14.86m0-7.42v-14.85m0-7.43v-14.86m0-7.43v-14.84m0-7.43v-14.86m0-7.42v-14.86m0-7.44v-7.43l.08-.94.22-.92.36-.87.5-.8.6-.7.72-.62.8-.5.87-.35.92-.22.93-.07h7.5" stroke="#2f3564" stroke-width="1.5" fill="none"/><path d="M3850.6 9312.78a21.7 21.7 0 0 1 21.7-21.7h220a21.7 21.7 0 0 1 21.7 21.7 21.7 21.7 0 0 1-21.7 21.7h-220a21.7 21.7 0 0 1-21.7-21.7z" stroke="#6c6e83" fill="#fff"/><path d="M3915 9301.07h182.66v23H3915z" fill="none"/><use xlink:href="#z" transform="matrix(1,0,0,1,3914.991993949682,9301.072283385465) translate(0 17.880208333333336)"/><use xlink:href="#A" transform="matrix(1,0,0,1,3914.991993949682,9301.072283385465) translate(44.43359375 17.880208333333336)"/><use xlink:href="#m" transform="matrix(1,0,0,1,3914.991993949682,9301.072283385465) translate(116.08333333333334 17.880208333333336)"/><path d="M3857.24 9361.73c27.6 0 50-22.3 50-49.98 0-27.56-22.4-49.98-50-49.98s-50 22.42-50 49.98c0 27.67 22.4 49.98 50 49.98z" stroke="#6c6e83" fill="#a2c6f6"/><path d="M3857.24 9360.62c26.9 0 48.8-21.8 48.8-48.77 0-26.96-21.9-48.77-48.8-48.77-27 0-48.8 21.8-48.8 48.77 0 26.96 21.8 48.77 48.8 48.77z" stroke="#000" stroke-opacity="0" fill="#a2c6f6"/><path d="M3878.14 9290.14c0-.2-.1-.4-.1-.6.2-.4.2-.8.2-1.2 0-1.02-.7-1.83-1.3-2.64-.7-1-1.4-2.02-2.2-2.83-.4-.4-.8-.8-1.2-1-.6-.3-1.1-.4-1.6-1.02-1-1.5-2.1-2.62-3.8-3.23-1.1-.4-2.3-.4-3.5-.3-.6-.7-1.7-1.1-2.8-1.1-.7-.1-1.5.2-2.3.1-.6-.1-1-.5-1.6-.6-1.2-.22-2.5.1-3.6.4-1.3.4-2.3 1-3.5 1.7-.7.4-1.4.2-2.2.3-.5 0-1 .2-1.5.4-1.8.82-2.9 2.43-3.4 4.25-1.2.1-2.2.6-3 1.42-1.4 1.4-1.4 3-1.3 4.83 0 .7 0 1.3-.2 1.92-.1.6-.3 1.1-.5 1.62-.3 1.1-.2 2.12 0 3.23l.9 5.75c-.4.9-.3 2.12.4 3.03.2.2.6.5.9.7.5.4 1 .92 1.4 1.52.5.8 1.1 1.62 1.8 2.33 3 2.92 7.3 3.83 11.4 3.53 2.5-.2 4.8-1 7.3-1.2 1.2-.1 2.4-.1 3.6-.3 1.1-.32 2.1-.72 3-1.23 3.6-1.7 6.9-4.84 7.3-8.98 0-.8 0-1.52.3-2.22.2-.5.5-1 .7-1.52.3-1.1-.3-2.4 0-3.62.2-1.1.5-2.23.4-3.44z" stroke="#000" stroke-opacity="0" fill="#33261a"/><path d="M3878.74 9342.24c-3.6-2.22-8.8-3.13-10.6-7.37-.9-2.32-.5-5.15-.5-7.57v-7.37c0-.3-.4-.4-.5-.1-1 1.4-4 1.3-5.5 1.4-1.7.1-3.5.2-5.3.2-3.1 0-6.7.32-9.5-1.2 0-.4-.1-.7-.1-1.1 0-.3-.6-.3-.6 0 0 .4.1.7.1 1.1-.1 0-.1.1-.1.1 0 .1.1.2.1.2.1 1.12.1 2.23.2 3.34.2 2.92.3 5.85.3 8.78.1.9.1 1.92.1 2.83-.9 1.92-2.3 3.73-3.9 5.25-1.3 1.2-2.7 2.32-4.2 3.23-1.1.8-2.5 1.3-3.3 2.52v.2c0 .1.1.1.1.2 3.4 1.62 6.9 3.14 10.5 4.55 3.3 1.2 7.1 2.93 10.8 2.53 1.6-.2 2.9-.9 4.3-1.72 1.7-1 3.4-1.92 5.1-2.83.8-.5 1.6-.9 2.4-1.3 3.3-.2 6.5-1.1 9.5-2.52.6-.3 1.7-.6 2.1-1.22.8-1-.8-1.7-1.5-2.12z" stroke="#000" stroke-opacity="0" fill="#b86554"/><path d="M3871.54 9314.48c.2-.8.3-1.62.5-2.53 0-.2 0-.3.1-.5l.3-1.52c0-.3.1-.6.1-.9.1-.8.2-1.52.4-2.23l.3-2.32c.9-6.56 1.4-12.32 1.2-12.82-.8-2.22-2.3-3.23-4-4.55-.3-.3-.6-.5-.9-.7-.3-.2-.5-.4-.8-.6-1.7-1.5-4.2-1.92-6.4-2.02-5.2-.2-10.2 0-14.8 2.53-.7.3-1.3.7-1.9 1.22-.1.1-.3.2-.5.3-.6.6-1.2 1.2-1.7 2.02-.5.7-.8 1.5-.9 2.42-.2 1.22-.1 2.43-.4 3.74v.2c-.2 1-.2 3.74-.1 6.97V9305.5c.1.8.1 1.6.1 2.4.1.72.1 1.53.2 2.24v.6c.1.5.1.9.1 1.42.1.4.1.9.2 1.3.2 1.72.4 3.04.7 4.05.6 2.23 1.6 4.35 3 6.27 1.9 2.52 4.4 4.54 7.4 5.25 1.2.4 2.5.5 3.8.4.8-.1 1.6-.2 2.3-.4.5-.1 1-.2 1.5-.4 1.6-.4 3.1-1.22 4.4-2.23 1.8-1.42 3.2-3.34 4.1-5.56.6-1.52 1.2-3.84 1.7-6.36z" stroke="#000" stroke-opacity="0" fill="#b86554"/><path d="M3876.04 9304.18c-.4-1.52-2.1-2.32-3.1-.8-.1.2.1.4.3.4-.8 1.4-1.3 3.02-1.8 4.64-.3 1.1-1.1 2.93-.8 4.14.5 2.12 3.3-.2 4-1 1.7-2.03 2-4.96 1.4-7.38zM3839.54 9309.43c.5.9 3 3.53 3.8 1.5.4-1.2-.1-3.02-.3-4.23-.2-1.7.1-2.83-.5-4.34.2 0-.2-.6-.3-.9-.8-1.62-2.6-1.02-3.2.4-.9 2.42-1 5.35.5 7.57z" stroke="#000" stroke-opacity="0" fill="#b86554"/><path d="M3866.54 9305.6c.1-.6.2-1.22.1-1.73 0-.3-.1-.6-.3-.8-.6-.6-1.3-.1-1.4.5-.3.8-.3 2.53.4 2.93.7.4 1-.1 1.2-.9zM3850.34 9304.78c.1-.5.2-1.1.1-1.7 0-.32-.2-.52-.3-.72-.6-.6-1.3-.1-1.4.5-.3.8-.3 2.43.4 2.83.8.4 1.1-.1 1.2-.92z" stroke="#000" stroke-opacity="0" fill="#33261a"/><path d="M3874.14 9305v-.1c0-.12 0-.12-.1-.22h-.2-.1c-.1 0-.1.1-.1.1-.1 0-.1.1-.1.1V9305.18l-.3 1.22c-.1.4-.5.9-.4 1.3 0 .2.1.3.2.42.2.4.3.7.3 1.1 0 .4-.4 1.72-1 1.42-.4-.1-.7.4-.3.5 1 .5 1.8-.9 1.9-1.8 0-.2 0-.52-.1-.72 0-.3-.4-.6-.4-.9-.1-.3.3-.92.4-1.22l.3-1.5zM3842.04 9308.92c-1-.9-1.2-1.6-.4-2.22l.4-.4c.1-.2.1-.3.1-.5.1-1.02-.4-2.23-.7-3.24-.1-.3-.7-.2-.6.2.2.7.9 2.53.7 3.14-.2.6-.8.8-1 1.4-.2 1.02.4 1.83 1.3 2.13.4.1.5-.4.2-.5zM3863.54 9328.6c-.3-.5-1.4-.2-3.1.52-2.6.9-6.2.1-8.6-1-1.9-.92-3.9-2.64-5.4-4.35.2 3.02.3 5.95.3 8.88h.6c1.2 0 2.4.6 3.6.7 1 0 1.8-.5 2.7-.7 1.2-.4 2.4 0 3.7-.2.9-.1 1.8-.6 2.6-1.1 1-.62 4.2-1.32 3.6-2.74zM3860.24 9311.35c-.2-1.52-.4-3.13-.7-4.65-.1-.4-.7-.3-.6 0 .4 2.02.7 4.14.9 6.16 0 .7.3 1.2-.6 1.62-.6.3-1.5.2-2.1.1-.8-.1-1.4-.1-2.2-.1-.4.1-.4.7 0 .6 1.4-.1 4.6.9 5.4-.7.4-.8 0-2.22-.1-3.03z" stroke="#000" stroke-opacity="0" fill="#9c4736"/><path d="M3845.14 9299.53c.1.6.8.8 1.4.8 1.4.2 2.9 0 4.3 0 .8 0 2.6.3 3.3-.3 1.5-1.2-1.5-2-2.3-2.1-1.4-.2-2.8-.2-4.2.1-.5.1-2.7.9-2.5 1.5zM3869.14 9299.03c-1.3-.3-2.8-.4-4.2-.3-.7.1-3.8.7-2.3 2.02.6.6 2.4.4 3.2.4 1.5.1 2.9.3 4.4.3.5 0 1.2-.2 1.4-.8.3-.6-1.9-1.52-2.5-1.62z" stroke="#000" stroke-opacity="0" fill="#33261a"/><path d="M3854.64 9318.2c-.6-.1-1.3-.3-1.9-.6-.1 0-1-.2-1.1-.4.2.6.9 1.32 1.3 1.82.9 1.2 1.7 1.62 3.1 1.72 1.6.1 3.5-.1 4.9-1 0 0 1.6-1.12 1.8-2.23-.1.2-2 .6-2.9.8-.8.12-3.4.22-5.2-.1z" stroke="#000" stroke-opacity="0" fill="#9c4736"/><path d="M3885.14 9347.8l-.3-4.14v-.1h-.1l-4.3-1.82c-1.4-.6-7.2-2.12-7.2-2.12s-13 11.1-14.5 11.4c-1.6.3-15.4-10.6-15.4-10.6s-5.7 1.82-7.3 2.93c-2.9 2.12-2.1 5.76-1.9 8.8 2.4 14.63 49.9 12.1 51-4.35z" stroke="#000" stroke-opacity="0" fill="#fff8f0"/><path d="M3837.74 9358.2s.3 1.3.7-1.22c.7-4.94 2.2-15.65 2.1-15.65-.2 0-.4 0-.5.1h-.1c-4.9 1.12-9.6 4.55-14.3 6.57-3.5 1.4-1.3 1.6-1.3 1.6l13.4 8.6zM3892.54 9345.37c-1.7-1.3-3.6-1.92-5.6-2.52-2.5-.7-4.5-.9-6.9-1.62-.6-.2-3.3-.7-3.3-.7 0 6.26-1.2 18.37 0 17.67 8.5-4.85 16.6-10.1 15.8-12.83z" stroke="#000" stroke-opacity="0" fill="#456664"/><path d="M3847.34 9359.5c-.5-1-1-2-1.3-3.12l-.1-.1c-.1 0-.1 0-.1-.1h-.2c0 .1-.1.1-.1.1-1 1-1.9 1.92-2.8 3.03-.2.3.2.7.5.4.7-.9 1.5-1.8 2.4-2.6.3.9.7 1.8 1.2 2.7.2.32.7 0 .5-.3zM3873.64 9352.24c-.5-.9-1-1.72-1.5-2.52-.2-.3-.4-.6-.8-.5-.5 0-1 .7-1.3 1-.6.6-1.2 1.3-1.7 2.02-.2.3.2.7.5.4.6-.9 1.3-1.7 2.1-2.52.4-.3.3-.3.7-.1.2.2.3.6.5.8.3.5.7 1.12 1 1.72.2.3.7 0 .5-.3zM3863.94 9361.83c-.5-.9-.9-1.92-1.4-2.73-.2-.2-.4-.5-.8-.4-.4 0-.9.8-1.1 1.1l-2 2.44c-.3.3.2.7.4.4.8-1 1.5-2.22 2.5-3.03.2-.2.1-.3.5-.1.1 0 .3.6.4.82l1 1.8c.2.32.7 0 .5-.3zM3846.24 9346.48c-.3-.7-.7-1.5-1.1-2.22-.2-.4-.6-1.2-1.1-1.2-.5-.1-1 .6-1.3.9-.7.6-1.4 1.3-2 2.12-.3.3.2.7.4.4.4-.5.7-.9 1.1-1.2.3-.4.9-1.12 1.3-1.32.7-.3.9.4 1.2.9.4.6.7 1.22.9 1.83.2.4.7.2.6-.22z" stroke="#000" stroke-opacity="0" fill="#aeb5c2"/><path d="M3875.34 9291.35c-.3-.7-.9-1.3-1.4-2-.7-.72-1.3-1.53-2-2.14-1.4-1.4-2.9-2.5-4.7-3.32-3.6-1.5-7.7-1.3-11.4-.6-2.1.5-4.2 1.1-6.3 1.8-1.7.62-3.5 1.13-4.9 2.24-3.5 3.02-2.5 8.18-3.4 12.1v.1h.1c.3 1.12.4 2.23.8 3.24.1.4.4.8.8.7.6-.3.6-1.5.7-2 .1-1.12 0-2.23.3-3.34.4-1 .4-1.92.6-2.93.2-1.32.7-2.23 1.5-3.24 1.3-1.5 2.4-3.23 3.1-5.15.4.1.7.1 1.1.1.9 0 1.8 0 2.6.1 1.8 0 3.7.1 5.5.1 3.6.22 7.1.62 10.7 1.02h.1c2.4 1.1 2.1 4.85 2.4 7.07.2 1.5.4 3.02.8 4.54.1.8 0 1.6 0 2.42-.1.7-.3 1.4-.4 2.12 0 .3 0 .6.3.7.5.5.8-.3.9-.7.2-.5.4-1.1.6-1.72.3-.5.5-1.1.6-1.7.2-1.12.3-2.24.5-3.35.2-1 .3-2.1.5-3.12.1-1 .3-2 0-3.02z" stroke="#000" stroke-opacity="0" fill="#33261a"/><path d="M3857.24 9361.73c27.6 0 50-22.3 50-49.98 0-27.56-22.4-49.98-50-49.98s-50 22.42-50 49.98c0 27.67 22.4 49.98 50 49.98z" stroke="#6c6e83" fill-opacity="0"/><path d="M4291.45 9293.63a6 6 0 0 1 6-6h492.85a6 6 0 0 1 6 6v38.3a6 6 0 0 1-6 6h-492.85a6 6 0 0 1-6-6z" stroke="#6c6e83" fill="#fff"/><path d="M4324.14 9300h446.1v24.06h-446.1z" fill="none"/><g><use xlink:href="#B" transform="matrix(1,0,0,1,4324.136285554333,9300) translate(0 18.880208333333336)"/><use xlink:href="#t" transform="matrix(1,0,0,1,4324.136285554333,9300) translate(85.52213541666667 18.880208333333336)"/><use xlink:href="#u" transform="matrix(1,0,0,1,4324.136285554333,9300) translate(152.6328125 18.880208333333336)"/><use xlink:href="#C" transform="matrix(1,0,0,1,4324.136285554333,9300) translate(191.32421875 18.880208333333336)"/><use xlink:href="#D" transform="matrix(1,0,0,1,4324.136285554333,9300) translate(297.8645833333333 18.880208333333336)"/><use xlink:href="#E" transform="matrix(1,0,0,1,4324.136285554333,9300) translate(323.4309895833333 18.880208333333336)"/><use xlink:href="#F" transform="matrix(1,0,0,1,4324.136285554333,9300) translate(367.8645833333333 18.880208333333336)"/></g><path d="M4797.55 9311.42h41.03" stroke="#6c6e83" stroke-width="1.5" fill="none"/><path d="M4797.56 9312.17h-.77v-1.5h.76z" stroke="#6c6e83" stroke-width=".05" fill="#6c6e83"/><path d="M4853.6 9311.42l-14.27 4.63v-9.27z" stroke="#6c6e83" stroke-width="1.5" fill="#6c6e83"/><path d="M4856.52 9293.63a6 6 0 0 1 6-6h257.3a6 6 0 0 1 6 6v38.3a6 6 0 0 1-6 6h-257.3a6 6 0 0 1-6-6z" stroke="#6c6e83" fill="#fff"/><path d="M4883.53 9299.43h222.38v26.63h-222.37z" fill="none"/><g><use xlink:href="#G" transform="matrix(1,0,0,1,4883.528172094602,9299.43428828235) translate(0 19.880208333333336)"/><use xlink:href="#C" transform="matrix(1,0,0,1,4883.528172094602,9299.43428828235) translate(45.8828125 19.880208333333336)"/><use xlink:href="#H" transform="matrix(1,0,0,1,4883.528172094602,9299.43428828235) translate(152.42317708333331 19.880208333333336)"/><use xlink:href="#I" transform="matrix(1,0,0,1,4883.528172094602,9299.43428828235) translate(171.87369791666666 19.880208333333336)"/></g><defs><path fill="#172b4d" d="M973-380H363L226 0H28l556-1456h168L1309 0h-197zM421-538h495l-248-681" id="J"/><path fill="#172b4d" d="M277-555c0 244 77 420 297 424 127 2 249-93 255-210h175C980-127 805 20 574 20 258 20 81-222 92-562c11-319 164-533 481-540 237-5 426 165 431 392H829c-7-133-115-242-256-240-209 4-296 166-296 395" id="K"/><path fill="#172b4d" d="M599-131c141 0 220-65 285-146l113 88C906-50 770 20 589 20 281 21 93-214 93-545c0-223 93-397 233-485 74-48 154-72 240-72 300 2 449 218 445 537v77H278c0 197 129 357 321 357zm227-509c-3-180-88-310-260-310-170 0-264 140-282 310h542" id="L"/><path fill="#172b4d" d="M538-131c121 0 232-49 232-156 0-50-20-88-56-117-73-60-334-92-420-143-92-55-162-110-162-238 0-190 192-317 400-317 223 0 414 129 413 338H759c0-108-110-186-227-186-119 0-215 53-215 159 0 45 18 78 53 101 76 52 331 90 416 139 98 57 169 115 169 251C955-92 760 20 538 20c-176 0-314-68-386-174-38-55-57-115-57-179h185c6 129 116 202 258 202" id="M"/><g id="a"><use transform="matrix(0.009114583333333334,0,0,0.009114583333333334,0,0)" xlink:href="#J"/><use transform="matrix(0.009114583333333334,0,0,0.009114583333333334,12.177083333333334,0)" xlink:href="#K"/><use transform="matrix(0.009114583333333334,0,0,0.009114583333333334,21.947916666666668,0)" xlink:href="#K"/><use transform="matrix(0.009114583333333334,0,0,0.009114583333333334,31.718750000000004,0)" xlink:href="#L"/><use transform="matrix(0.009114583333333334,0,0,0.009114583333333334,41.60807291666667,0)" xlink:href="#M"/><use transform="matrix(0.009114583333333334,0,0,0.009114583333333334,51.23307291666667,0)" xlink:href="#M"/></g><path fill="#172b4d" d="M494-271l252-811h198L509 167C425 381 299 474 84 421V271c167 16 242-37 283-173l41-110L22-1082h202" id="N"/><path fill="#172b4d" d="M589-945c-131 0-219 81-264 174V0H140v-1082h175l6 136c83-104 191-156 324-156 229 0 346 129 346 387V0H806v-716c-2-153-65-229-217-229" id="O"/><path fill="#172b4d" d="M520 20C244 20 95-247 95-550c0-298 151-550 427-552 127 0 227 43 301 130v-564h185V0H838l-9-116C755-25 652 20 520 20zm48-965c-210 0-288 177-288 416 0 218 87 392 286 392 117 0 203-53 257-158v-497c-55-102-140-153-255-153" id="P"/><g id="b"><use transform="matrix(0.009114583333333334,0,0,0.009114583333333334,0,0)" xlink:href="#M"/><use transform="matrix(0.009114583333333334,0,0,0.009114583333333334,9.625,0)" xlink:href="#N"/><use transform="matrix(0.009114583333333334,0,0,0.009114583333333334,18.45703125,0)" xlink:href="#O"/><use transform="matrix(0.009114583333333334,0,0,0.009114583333333334,28.756510416666668,0)" xlink:href="#K"/><use transform="matrix(0.009114583333333334,0,0,0.009114583333333334,38.52734375,0)" xlink:href="#L"/><use transform="matrix(0.009114583333333334,0,0,0.009114583333333334,48.41666666666667,0)" xlink:href="#P"/></g><path fill="#172b4d" d="M663-916c-163-27-288 18-338 148V0H140v-1082h180l3 125c61-97 147-145 258-145 36 0 63 5 82 14v172" id="Q"/><path fill="#172b4d" d="M456 20C285 20 205-92 206-268v-671H9v-143h197v-262h185v262h202v143H391v671c-9 125 92 149 207 118V0c-49 13-96 20-142 20" id="R"/><g id="c"><use transform="matrix(0.009114583333333334,0,0,0.009114583333333334,0,0)" xlink:href="#M"/><use transform="matrix(0.009114583333333334,0,0,0.009114583333333334,9.625,0)" xlink:href="#L"/><use transform="matrix(0.009114583333333334,0,0,0.009114583333333334,19.514322916666668,0)" xlink:href="#K"/><use transform="matrix(0.009114583333333334,0,0,0.009114583333333334,29.285156250000004,0)" xlink:href="#Q"/><use transform="matrix(0.009114583333333334,0,0,0.009114583333333334,35.42838541666667,0)" xlink:href="#L"/><use transform="matrix(0.009114583333333334,0,0,0.009114583333333334,45.31770833333334,0)" xlink:href="#R"/><use transform="matrix(0.009114583333333334,0,0,0.009114583333333334,51.41536458333334,0)" xlink:href="#M"/></g><path fill="#172b4d" d="M1222-777c17 480-206 763-650 777H169v-1456h411c408 9 627 269 642 679zm-190 4c3-312-149-522-447-525H361v1141h202c308 0 473-209 469-531v-85" id="S"/><path fill="#172b4d" d="M497-251l268-831h189L566 0H425L33-1082h189" id="T"/><path fill="#172b4d" d="M341 0H156v-1536h185V0" id="U"/><path fill="#172b4d" d="M584 20C278 26 81-227 91-551c10-320 175-545 491-551 308-5 503 247 494 573-9 322-175 543-492 549zm-2-970c-208 0-305 185-305 421 0 216 106 398 307 398 211 0 307-186 307-420 0-214-109-399-309-399" id="V"/><path fill="#172b4d" d="M632-1102c291 0 422 251 422 573 0 297-141 548-419 549-131 0-235-42-310-125v521H140v-1498h169l9 120c75-93 180-140 314-140zm-53 971c207 0 290-180 290-419 0-218-92-395-292-395-112 0-196 50-252 149v517c55 99 140 148 254 148" id="W"/><path fill="#172b4d" d="M177 125H18l608-1581h158" id="X"/><path fill="#172b4d" d="M483-459l28 192 41-173 288-1016h162l281 1016 40 176 31-196 226-996h193L1420 0h-175L945-1061l-23-111-23 111L588 0H413L61-1456h192" id="Y"/><path fill="#172b4d" d="M442-501L326-380V0H141v-1536h185v929c135-169 291-317 436-475h225L566-630 1036 0H819" id="Z"/><path fill="#172b4d" d="M561-1102c238-4 403 126 403 351v498c0 99 13 178 38 237V0H808c-11-21-19-59-26-114C696-25 593 20 474 20c-199 0-368-130-365-320 4-251 214-359 490-356h180v-85c-1-135-86-212-229-212-115 0-232 67-233 171H131c20-205 206-316 430-320zM294-326c0 117 90 185 207 185 122 0 239-75 278-162v-222H634c-227 0-340 66-340 199" id="aa"/><g id="d"><use transform="matrix(0.00911458333333333,0,0,0.00911458333333333,0,0)" xlink:href="#S"/><use transform="matrix(0.00911458333333333,0,0,0.00911458333333333,12.240885416666663,0)" xlink:href="#L"/><use transform="matrix(0.00911458333333333,0,0,0.00911458333333333,22.011718749999993,0)" xlink:href="#T"/><use transform="matrix(0.00911458333333333,0,0,0.00911458333333333,30.934895833333325,0)" xlink:href="#L"/><use transform="matrix(0.00911458333333333,0,0,0.00911458333333333,40.824218749999986,0)" xlink:href="#U"/><use transform="matrix(0.00911458333333333,0,0,0.00911458333333333,45.35416666666665,0)" xlink:href="#V"/><use transform="matrix(0.00911458333333333,0,0,0.00911458333333333,55.999999999999986,0)" xlink:href="#W"/><use transform="matrix(0.00911458333333333,0,0,0.00911458333333333,66.47265624999997,0)" xlink:href="#L"/><use transform="matrix(0.00911458333333333,0,0,0.00911458333333333,76.36197916666663,0)" xlink:href="#Q"/><use transform="matrix(0.00911458333333333,0,0,0.00911458333333333,82.67838541666663,0)" xlink:href="#X"/><use transform="matrix(0.00911458333333333,0,0,0.00911458333333333,90.37109374999996,0)" xlink:href="#Y"/><use transform="matrix(0.00911458333333333,0,0,0.00911458333333333,106.64973958333329,0)" xlink:href="#V"/><use transform="matrix(0.00911458333333333,0,0,0.00911458333333333,117.29557291666661,0)" xlink:href="#Q"/><use transform="matrix(0.00911458333333333,0,0,0.00911458333333333,123.61197916666661,0)" xlink:href="#Z"/><use transform="matrix(0.00911458333333333,0,0,0.00911458333333333,133.0729166666666,0)" xlink:href="#U"/><use transform="matrix(0.00911458333333333,0,0,0.00911458333333333,137.60286458333326,0)" xlink:href="#V"/><use transform="matrix(0.00911458333333333,0,0,0.00911458333333333,148.2486979166666,0)" xlink:href="#aa"/><use transform="matrix(0.00911458333333333,0,0,0.00911458333333333,158.40234374999994,0)" xlink:href="#P"/><use transform="matrix(0.00911458333333333,0,0,0.00911458333333333,168.92968749999994,0)" xlink:href="#M"/></g><g id="e"><use transform="matrix(0.009114583333333334,0,0,0.009114583333333334,0,0)" xlink:href="#J"/><use transform="matrix(0.009114583333333334,0,0,0.009114583333333334,12.177083333333334,0)" xlink:href="#P"/><use transform="matrix(0.009114583333333334,0,0,0.009114583333333334,22.704427083333336,0)" xlink:href="#P"/></g><path fill="#172b4d" d="M631-137c179 0 314-70 314-231 0-71-25-127-75-166s-141-77-272-115c-165-47-285-106-360-175s-112-154-112-255c0-245 231-397 495-397 206 0 369 89 449 218 43 68 65 142 65 223H942c0-184-129-283-321-283-172 0-299 76-301 236 0 59 26 109 76 150s135 78 256 113c205 59 345 116 436 256 35 53 50 119 50 193-2 256-231 398-507 390C333 12 90-129 80-422h193c0 187 160 285 358 285" id="ab"/><path fill="#172b4d" d="M1288 0h-193v-673H361V0H169v-1456h192v626h734v-626h193V0" id="ac"/><path fill="#172b4d" d="M491 20c-241-1-355-148-355-398v-704h185v699c0 164 67 246 200 246 141 0 235-53 282-158v-787h185V0H812l-4-107C736-22 630 20 491 20" id="ad"/><path fill="#172b4d" d="M634-1102c292 0 422 254 422 573 0 298-143 547-420 549-137 0-242-48-317-145L310 0H140v-1536h185v573c75-93 178-139 309-139zm-44 965c207 0 281-175 281-413 0-224-79-395-283-395-122 0-210 57-263 170v468c57 113 145 170 265 170" id="ae"/><g id="f"><use transform="matrix(0.009114583333333334,0,0,0.009114583333333334,0,0)" xlink:href="#ab"/><use transform="matrix(0.009114583333333334,0,0,0.009114583333333334,11.07421875,0)" xlink:href="#L"/><use transform="matrix(0.009114583333333334,0,0,0.009114583333333334,20.963541666666668,0)" xlink:href="#K"/><use transform="matrix(0.009114583333333334,0,0,0.009114583333333334,30.734375000000004,0)" xlink:href="#Q"/><use transform="matrix(0.009114583333333334,0,0,0.009114583333333334,36.87760416666667,0)" xlink:href="#L"/><use transform="matrix(0.009114583333333334,0,0,0.009114583333333334,46.76692708333334,0)" xlink:href="#R"/><use transform="matrix(0.009114583333333334,0,0,0.009114583333333334,52.86458333333334,0)" xlink:href="#M"/><use transform="matrix(0.009114583333333334,0,0,0.009114583333333334,62.48958333333334,0)" xlink:href="#ac"/><use transform="matrix(0.009114583333333334,0,0,0.009114583333333334,75.79687500000003,0)" xlink:href="#ad"/><use transform="matrix(0.009114583333333334,0,0,0.009114583333333334,86.08723958333334,0)" xlink:href="#ae"/></g><g id="g"><use transform="matrix(0.009114583333333334,0,0,0.009114583333333334,0,0)" xlink:href="#ad"/><use transform="matrix(0.009114583333333334,0,0,0.009114583333333334,10.290364583333334,0)" xlink:href="#M"/><use transform="matrix(0.009114583333333334,0,0,0.009114583333333334,19.915364583333336,0)" xlink:href="#L"/><use transform="matrix(0.009114583333333334,0,0,0.009114583333333334,29.804687500000004,0)" xlink:href="#Q"/></g><g id="h"><use transform="matrix(0.009114583333333334,0,0,0.009114583333333334,0,0)" xlink:href="#aa"/><use transform="matrix(0.009114583333333334,0,0,0.009114583333333334,10.153645833333334,0)" xlink:href="#M"/></g><path fill="#172b4d" d="M704-1390c-164-38-297 28-288 194v114h231v143H416V0H231v-939H60v-143h171v-111c-12-274 208-416 483-347" id="af"/><g id="i"><use transform="matrix(0.009114583333333334,0,0,0.009114583333333334,0,0)" xlink:href="#ab"/><use transform="matrix(0.009114583333333334,0,0,0.009114583333333334,11.07421875,0)" xlink:href="#aa"/><use transform="matrix(0.009114583333333334,0,0,0.009114583333333334,21.227864583333336,0)" xlink:href="#af"/><use transform="matrix(0.009114583333333334,0,0,0.009114583333333334,27.489583333333336,0)" xlink:href="#L"/></g><path fill="#172b4d" d="M1240-945c-141 0-250 95-250 227V0H804v-709c0-157-77-236-231-236-121 0-204 52-249 155V0H139v-1082h175l5 120c79-93 186-140 321-140 151 0 254 58 309 174 69-98 181-174 345-174 237 0 362 126 362 377V0h-185v-714c-2-159-67-231-231-231" id="ag"/><g id="j"><use transform="matrix(0.009114583333333334,0,0,0.009114583333333334,0,0)" xlink:href="#ag"/><use transform="matrix(0.009114583333333334,0,0,0.009114583333333334,16.360677083333336,0)" xlink:href="#L"/><use transform="matrix(0.009114583333333334,0,0,0.009114583333333334,26.25,0)" xlink:href="#ag"/><use transform="matrix(0.009114583333333334,0,0,0.009114583333333334,42.61067708333334,0)" xlink:href="#ae"/><use transform="matrix(0.009114583333333334,0,0,0.009114583333333334,53.08333333333334,0)" xlink:href="#L"/><use transform="matrix(0.009114583333333334,0,0,0.009114583333333334,62.972656250000014,0)" xlink:href="#Q"/></g><path fill="#172b4d" d="M1216-1011c-1 297-202 441-512 441H361V0H169v-1456h537c297-6 510 164 510 445zm-192 2c1-178-126-288-307-289H361v571h345c196 1 318-92 318-282" id="ah"/><path fill="#172b4d" d="M341 0H156v-1082h185V0zm-91-1264c-68 0-108-42-109-105 0-62 41-107 109-107s110 44 110 107-42 105-110 105" id="ai"/><path fill="#172b4d" d="M521 20C240 20 96-239 96-550c0-303 147-552 427-552 132 0 235 47 309 140l9-120h169V-26c4 277-183 454-459 452-165-1-334-81-400-187l96-111c79 98 176 147 291 147 180 1 288-109 286-290v-93C750-23 649 20 521 20zm48-965c-209 0-287 178-287 416 0 217 86 392 285 392 117 0 202-53 257-159v-494c-57-103-142-155-255-155" id="aj"/><g id="k"><use transform="matrix(0.009114583333333334,0,0,0.009114583333333334,0,0)" xlink:href="#ah"/><use transform="matrix(0.009114583333333334,0,0,0.009114583333333334,11.776041666666668,0)" xlink:href="#Q"/><use transform="matrix(0.009114583333333334,0,0,0.009114583333333334,18.092447916666668,0)" xlink:href="#ai"/><use transform="matrix(0.009114583333333334,0,0,0.009114583333333334,22.622395833333336,0)" xlink:href="#T"/><use transform="matrix(0.009114583333333334,0,0,0.009114583333333334,31.664062500000004,0)" xlink:href="#ai"/><use transform="matrix(0.009114583333333334,0,0,0.009114583333333334,36.19401041666667,0)" xlink:href="#U"/><use transform="matrix(0.009114583333333334,0,0,0.009114583333333334,40.723958333333336,0)" xlink:href="#L"/><use transform="matrix(0.009114583333333334,0,0,0.009114583333333334,50.61328125,0)" xlink:href="#aj"/><use transform="matrix(0.009114583333333334,0,0,0.009114583333333334,61.08593750000001,0)" xlink:href="#L"/></g><path fill="#172b4d" d="M688-137c238 0 323-102 359-325h193c-32 297-228 482-552 482-361 0-569-299-569-680 0-197 8-360 73-497 88-186 257-317 513-319 316-2 509 195 535 488h-193c-31-212-118-330-342-330-272 0-397 224-393 523v141c-3 282 115 517 376 517" id="ak"/><g id="l"><use transform="matrix(0.009114583333333334,0,0,0.009114583333333334,0,0)" xlink:href="#ak"/><use transform="matrix(0.009114583333333334,0,0,0.009114583333333334,12.149739583333334,0)" xlink:href="#U"/><use transform="matrix(0.009114583333333334,0,0,0.009114583333333334,16.6796875,0)" xlink:href="#V"/><use transform="matrix(0.009114583333333334,0,0,0.009114583333333334,27.325520833333336,0)" xlink:href="#ad"/><use transform="matrix(0.009114583333333334,0,0,0.009114583333333334,37.61588541666667,0)" xlink:href="#P"/></g><g id="m"><use transform="matrix(0.009114583333333334,0,0,0.009114583333333334,0,0)" xlink:href="#aa"/><use transform="matrix(0.009114583333333334,0,0,0.009114583333333334,10.153645833333334,0)" xlink:href="#P"/><use transform="matrix(0.009114583333333334,0,0,0.009114583333333334,20.680989583333336,0)" xlink:href="#ag"/><use transform="matrix(0.009114583333333334,0,0,0.009114583333333334,37.04166666666667,0)" xlink:href="#ai"/><use transform="matrix(0.009114583333333334,0,0,0.009114583333333334,41.571614583333336,0)" xlink:href="#O"/></g><g id="n"><use transform="matrix(0.009114583333333334,0,0,0.009114583333333334,0,0)" xlink:href="#M"/><use transform="matrix(0.009114583333333334,0,0,0.009114583333333334,9.625,0)" xlink:href="#N"/><use transform="matrix(0.009114583333333334,0,0,0.009114583333333334,18.45703125,0)" xlink:href="#O"/><use transform="matrix(0.009114583333333334,0,0,0.009114583333333334,28.756510416666668,0)" xlink:href="#K"/></g><g id="o"><use transform="matrix(0.009114583333333334,0,0,0.009114583333333334,0,0)" xlink:href="#W"/><use transform="matrix(0.009114583333333334,0,0,0.009114583333333334,10.47265625,0)" xlink:href="#V"/><use transform="matrix(0.009114583333333334,0,0,0.009114583333333334,21.118489583333336,0)" xlink:href="#U"/><use transform="matrix(0.009114583333333334,0,0,0.009114583333333334,25.6484375,0)" xlink:href="#ai"/><use transform="matrix(0.009114583333333334,0,0,0.009114583333333334,30.17838541666667,0)" xlink:href="#K"/><use transform="matrix(0.009114583333333334,0,0,0.009114583333333334,39.949218750000014,0)" xlink:href="#ai"/><use transform="matrix(0.009114583333333334,0,0,0.009114583333333334,44.47916666666667,0)" xlink:href="#L"/><use transform="matrix(0.009114583333333334,0,0,0.009114583333333334,54.36848958333334,0)" xlink:href="#M"/></g><g id="p"><use transform="matrix(0.009114583333333334,0,0,0.009114583333333334,0,0)" xlink:href="#R"/><use transform="matrix(0.009114583333333334,0,0,0.009114583333333334,6.09765625,0)" xlink:href="#aa"/><use transform="matrix(0.009114583333333334,0,0,0.009114583333333334,16.251302083333336,0)" xlink:href="#Q"/><use transform="matrix(0.009114583333333334,0,0,0.009114583333333334,22.394531250000007,0)" xlink:href="#aj"/><use transform="matrix(0.009114583333333334,0,0,0.009114583333333334,32.8671875,0)" xlink:href="#L"/><use transform="matrix(0.009114583333333334,0,0,0.009114583333333334,42.75651041666667,0)" xlink:href="#R"/><use transform="matrix(0.009114583333333334,0,0,0.009114583333333334,48.85416666666667,0)" xlink:href="#M"/></g><g id="q"><use transform="matrix(0.009114583333333334,0,0,0.009114583333333334,0,0)" xlink:href="#ad"/><use transform="matrix(0.009114583333333334,0,0,0.009114583333333334,10.290364583333334,0)" xlink:href="#M"/><use transform="matrix(0.009114583333333334,0,0,0.009114583333333334,19.915364583333336,0)" xlink:href="#L"/><use transform="matrix(0.009114583333333334,0,0,0.009114583333333334,29.804687500000004,0)" xlink:href="#Q"/><use transform="matrix(0.009114583333333334,0,0,0.009114583333333334,36.12109375,0)" xlink:href="#M"/></g><g id="r"><use transform="matrix(0.009114583333333334,0,0,0.009114583333333334,0,0)" xlink:href="#R"/><use transform="matrix(0.009114583333333334,0,0,0.009114583333333334,5.915364583333333,0)" xlink:href="#V"/></g><path fill="#172b4d" d="M589-945c-131 0-219 81-264 174V0H140v-1536h185v585c82-101 189-151 320-151 229 0 346 129 346 387V0H806v-716c-2-153-65-229-217-229" id="al"/><g id="s"><use transform="matrix(0.009114583333333334,0,0,0.009114583333333334,0,0)" xlink:href="#R"/><use transform="matrix(0.009114583333333334,0,0,0.009114583333333334,6.09765625,0)" xlink:href="#al"/><use transform="matrix(0.009114583333333334,0,0,0.009114583333333334,16.37890625,0)" xlink:href="#L"/></g><g id="t"><use transform="matrix(0.009114583333333334,0,0,0.009114583333333334,0,0)" xlink:href="#ab"/><use transform="matrix(0.009114583333333334,0,0,0.009114583333333334,11.07421875,0)" xlink:href="#L"/><use transform="matrix(0.009114583333333334,0,0,0.009114583333333334,20.963541666666668,0)" xlink:href="#K"/><use transform="matrix(0.009114583333333334,0,0,0.009114583333333334,30.734375000000004,0)" xlink:href="#Q"/><use transform="matrix(0.009114583333333334,0,0,0.009114583333333334,36.87760416666667,0)" xlink:href="#L"/><use transform="matrix(0.009114583333333334,0,0,0.009114583333333334,46.76692708333334,0)" xlink:href="#R"/><use transform="matrix(0.009114583333333334,0,0,0.009114583333333334,52.86458333333334,0)" xlink:href="#M"/></g><g id="u"><use transform="matrix(0.009114583333333334,0,0,0.009114583333333334,0,0)" xlink:href="#ac"/><use transform="matrix(0.009114583333333334,0,0,0.009114583333333334,13.307291666666668,0)" xlink:href="#ad"/><use transform="matrix(0.009114583333333334,0,0,0.009114583333333334,23.59765625,0)" xlink:href="#ae"/></g><g id="v"><use transform="matrix(0.009114583333333334,0,0,0.009114583333333334,0,0)" xlink:href="#Q"/><use transform="matrix(0.009114583333333334,0,0,0.009114583333333334,6.134114583333333,0)" xlink:href="#V"/><use transform="matrix(0.009114583333333334,0,0,0.009114583333333334,16.779947916666668,0)" xlink:href="#U"/><use transform="matrix(0.009114583333333334,0,0,0.009114583333333334,21.309895833333336,0)" xlink:href="#L"/></g><path fill="#172b4d" d="M375 0H183v-1456h192V0" id="am"/><g id="w"><use transform="matrix(0.009114583333333334,0,0,0.009114583333333334,0,0)" xlink:href="#am"/><use transform="matrix(0.009114583333333334,0,0,0.009114583333333334,5.076822916666667,0)" xlink:href="#P"/><use transform="matrix(0.009114583333333334,0,0,0.009114583333333334,15.604166666666668,0)" xlink:href="#L"/><use transform="matrix(0.009114583333333334,0,0,0.009114583333333334,25.493489583333336,0)" xlink:href="#O"/><use transform="matrix(0.009114583333333334,0,0,0.009114583333333334,35.79296875,0)" xlink:href="#R"/><use transform="matrix(0.009114583333333334,0,0,0.009114583333333334,41.890625,0)" xlink:href="#ai"/><use transform="matrix(0.009114583333333334,0,0,0.009114583333333334,46.420572916666664,0)" xlink:href="#R"/><use transform="matrix(0.009114583333333334,0,0,0.009114583333333334,52.518229166666664,0)" xlink:href="#N"/></g><g id="x"><use transform="matrix(0.009114583333333334,0,0,0.009114583333333334,0,0)" xlink:href="#ab"/><use transform="matrix(0.009114583333333334,0,0,0.009114583333333334,11.07421875,0)" xlink:href="#L"/><use transform="matrix(0.009114583333333334,0,0,0.009114583333333334,20.963541666666668,0)" xlink:href="#K"/><use transform="matrix(0.009114583333333334,0,0,0.009114583333333334,30.734375000000004,0)" xlink:href="#ad"/><use transform="matrix(0.009114583333333334,0,0,0.009114583333333334,41.024739583333336,0)" xlink:href="#Q"/><use transform="matrix(0.009114583333333334,0,0,0.009114583333333334,47.341145833333336,0)" xlink:href="#ai"/><use transform="matrix(0.009114583333333334,0,0,0.009114583333333334,51.87109375,0)" xlink:href="#R"/><use transform="matrix(0.009114583333333334,0,0,0.009114583333333334,57.96875000000001,0)" xlink:href="#N"/></g><g id="y"><use transform="matrix(0.009114583333333334,0,0,0.009114583333333334,0,0)" xlink:href="#ah"/><use transform="matrix(0.009114583333333334,0,0,0.009114583333333334,11.776041666666668,0)" xlink:href="#U"/><use transform="matrix(0.009114583333333334,0,0,0.009114583333333334,16.305989583333336,0)" xlink:href="#aa"/><use transform="matrix(0.009114583333333334,0,0,0.009114583333333334,26.45963541666667,0)" xlink:href="#R"/><use transform="matrix(0.009114583333333334,0,0,0.009114583333333334,32.55729166666667,0)" xlink:href="#af"/><use transform="matrix(0.009114583333333334,0,0,0.009114583333333334,39.03776041666667,0)" xlink:href="#V"/><use transform="matrix(0.009114583333333334,0,0,0.009114583333333334,49.68359375,0)" xlink:href="#Q"/><use transform="matrix(0.009114583333333334,0,0,0.009114583333333334,56,0)" xlink:href="#ag"/></g><g id="z"><use transform="matrix(0.009114583333333334,0,0,0.009114583333333334,0,0)" xlink:href="#J"/><use transform="matrix(0.009114583333333334,0,0,0.009114583333333334,12.177083333333334,0)" xlink:href="#Y"/><use transform="matrix(0.009114583333333334,0,0,0.009114583333333334,28.738281250000004,0)" xlink:href="#ab"/></g><g id="A"><use transform="matrix(0.009114583333333334,0,0,0.009114583333333334,0,0)" xlink:href="#aa"/><use transform="matrix(0.009114583333333334,0,0,0.009114583333333334,10.153645833333334,0)" xlink:href="#K"/><use transform="matrix(0.009114583333333334,0,0,0.009114583333333334,19.924479166666668,0)" xlink:href="#K"/><use transform="matrix(0.009114583333333334,0,0,0.009114583333333334,29.695312500000004,0)" xlink:href="#V"/><use transform="matrix(0.009114583333333334,0,0,0.009114583333333334,40.341145833333336,0)" xlink:href="#ad"/><use transform="matrix(0.009114583333333334,0,0,0.009114583333333334,50.63151041666667,0)" xlink:href="#O"/><use transform="matrix(0.009114583333333334,0,0,0.009114583333333334,60.93098958333334,0)" xlink:href="#R"/></g><g id="B"><use transform="matrix(0.009114583333333334,0,0,0.009114583333333334,0,0)" xlink:href="#ak"/><use transform="matrix(0.009114583333333334,0,0,0.009114583333333334,12.149739583333334,0)" xlink:href="#V"/><use transform="matrix(0.009114583333333334,0,0,0.009114583333333334,22.795572916666668,0)" xlink:href="#O"/><use transform="matrix(0.009114583333333334,0,0,0.009114583333333334,33.095052083333336,0)" xlink:href="#af"/><use transform="matrix(0.009114583333333334,0,0,0.009114583333333334,39.575520833333336,0)" xlink:href="#ai"/><use transform="matrix(0.009114583333333334,0,0,0.009114583333333334,44.10546875,0)" xlink:href="#aj"/><use transform="matrix(0.009114583333333334,0,0,0.009114583333333334,54.578125,0)" xlink:href="#ad"/><use transform="matrix(0.009114583333333334,0,0,0.009114583333333334,64.86848958333333,0)" xlink:href="#Q"/><use transform="matrix(0.009114583333333334,0,0,0.009114583333333334,71.01171875,0)" xlink:href="#L"/></g><g id="C"><use transform="matrix(0.009114583333333334,0,0,0.009114583333333334,0,0)" xlink:href="#W"/><use transform="matrix(0.009114583333333334,0,0,0.009114583333333334,10.47265625,0)" xlink:href="#L"/><use transform="matrix(0.009114583333333334,0,0,0.009114583333333334,20.361979166666668,0)" xlink:href="#Q"/><use transform="matrix(0.009114583333333334,0,0,0.009114583333333334,26.678385416666668,0)" xlink:href="#ag"/><use transform="matrix(0.009114583333333334,0,0,0.009114583333333334,43.0390625,0)" xlink:href="#ai"/><use transform="matrix(0.009114583333333334,0,0,0.009114583333333334,47.569010416666664,0)" xlink:href="#M"/><use transform="matrix(0.009114583333333334,0,0,0.009114583333333334,57.194010416666664,0)" xlink:href="#M"/><use transform="matrix(0.009114583333333334,0,0,0.009114583333333334,66.81901041666666,0)" xlink:href="#ai"/><use transform="matrix(0.009114583333333334,0,0,0.009114583333333334,71.34895833333333,0)" xlink:href="#V"/><use transform="matrix(0.009114583333333334,0,0,0.009114583333333334,81.99479166666666,0)" xlink:href="#O"/><use transform="matrix(0.009114583333333334,0,0,0.009114583333333334,92.29427083333333,0)" xlink:href="#M"/></g><g id="D"><use transform="matrix(0.009114583333333334,0,0,0.009114583333333334,0,0)" xlink:href="#V"/><use transform="matrix(0.009114583333333334,0,0,0.009114583333333334,10.645833333333334,0)" xlink:href="#O"/></g><g id="E"><use transform="matrix(0.009114583333333334,0,0,0.009114583333333334,0,0)" xlink:href="#J"/><use transform="matrix(0.009114583333333334,0,0,0.009114583333333334,12.177083333333334,0)" xlink:href="#Y"/><use transform="matrix(0.009114583333333334,0,0,0.009114583333333334,28.738281250000004,0)" xlink:href="#ab"/></g><g id="F"><use transform="matrix(0.009114583333333334,0,0,0.009114583333333334,0,0)" xlink:href="#aa"/><use transform="matrix(0.009114583333333334,0,0,0.009114583333333334,10.153645833333334,0)" xlink:href="#K"/><use transform="matrix(0.009114583333333334,0,0,0.009114583333333334,19.924479166666668,0)" xlink:href="#K"/><use transform="matrix(0.009114583333333334,0,0,0.009114583333333334,29.695312500000004,0)" xlink:href="#V"/><use transform="matrix(0.009114583333333334,0,0,0.009114583333333334,40.341145833333336,0)" xlink:href="#ad"/><use transform="matrix(0.009114583333333334,0,0,0.009114583333333334,50.63151041666667,0)" xlink:href="#O"/><use transform="matrix(0.009114583333333334,0,0,0.009114583333333334,60.93098958333334,0)" xlink:href="#R"/></g><g id="G"><use transform="matrix(0.009114583333333334,0,0,0.009114583333333334,0,0)" xlink:href="#S"/><use transform="matrix(0.009114583333333334,0,0,0.009114583333333334,12.240885416666668,0)" xlink:href="#L"/><use transform="matrix(0.009114583333333334,0,0,0.009114583333333334,22.130208333333336,0)" xlink:href="#O"/><use transform="matrix(0.009114583333333334,0,0,0.009114583333333334,32.4296875,0)" xlink:href="#N"/></g><g id="H"><use transform="matrix(0.009114583333333334,0,0,0.009114583333333334,0,0)" xlink:href="#ai"/><use transform="matrix(0.009114583333333334,0,0,0.009114583333333334,4.529947916666667,0)" xlink:href="#O"/></g><g id="I"><use transform="matrix(0.009114583333333334,0,0,0.009114583333333334,0,0)" xlink:href="#Q"/><use transform="matrix(0.009114583333333334,0,0,0.009114583333333334,6.134114583333333,0)" xlink:href="#V"/><use transform="matrix(0.009114583333333334,0,0,0.009114583333333334,16.779947916666668,0)" xlink:href="#U"/><use transform="matrix(0.009114583333333334,0,0,0.009114583333333334,21.309895833333336,0)" xlink:href="#L"/><use transform="matrix(0.009114583333333334,0,0,0.009114583333333334,31.199218750000004,0)" xlink:href="#M"/></g></defs></g></svg>