<svg width="40" height="40" viewBox="0 0 40 40" fill="none" xmlns="http://www.w3.org/2000/svg">
<path d="M19.9871 40.0002C16.6002 40.0002 13.3161 38.6705 10.9557 36.2151L3.77152 29.0539C-1.25717 24.0413 -1.25717 15.9592 3.77152 10.9466L10.9557 3.78535C13.419 1.32999 16.6005 0.000244141 19.9871 0.000244141C23.3738 0.000244141 26.6582 1.33032 29.0185 3.78535L36.2028 10.9466C38.666 13.402 40 16.5733 40 19.9491C40 23.3249 38.666 26.5989 36.2028 28.9516L29.0185 36.1129C26.6582 38.6705 23.4767 40.0002 19.9871 40.0002ZM22.3475 35.3969C23.887 35.3969 26.0421 34.2716 27.5816 29.0542C27.6842 28.6449 27.4791 28.3382 27.171 28.2357L21.6292 26.4966C21.2186 26.4002 21.0398 26.5463 20.9109 26.8037C20.8083 27.0085 18.6531 30.8958 19.474 33.4534C19.8322 34.7038 21.1227 35.3969 22.3475 35.3969ZM10.4426 23.0182C10.032 23.0182 9.82686 23.3253 9.82686 23.7342C10.1349 30.5884 12.9058 31.3044 14.1373 31.3044C15.1521 31.3044 16.1142 30.7963 16.7031 29.9747C18.0374 27.8264 17.0111 23.7342 16.8056 23.2227C16.7031 22.9157 16.4976 22.7112 16.1899 22.7112L10.4426 23.0182ZM22.3475 14.0802C22.3475 14.0802 20.9109 19.2002 21.2186 24.7573C21.3212 24.9617 21.4237 25.1665 21.7318 25.2688L27.4791 26.8033H27.5816C27.8897 26.8033 28.0948 26.5989 28.1974 26.3941C28.2999 26.1893 30.2115 21.0376 30.7631 17.4938C32.2658 7.84024 24.5715 6.08024 22.3475 14.0802ZM9.82686 20.8696C9.92943 21.1766 10.1349 21.4834 10.4426 21.4834H16.2925C16.4976 21.4834 16.9489 21.3251 17.0515 21.1202C18.0115 16.1602 20.1359 6.56024 14.4915 6.56024C8.40025 6.56024 9.82686 16.9389 9.82686 20.8696Z" fill="#1362CB"/>
</svg>
