<svg width="40" height="40" viewBox="0 0 40 40" fill="none" xmlns="http://www.w3.org/2000/svg">
<path fill-rule="evenodd" clip-rule="evenodd" d="M37.5262 29.6429C39.1028 26.7833 40 23.4966 40 20.0002C40 15.0448 38.1978 10.5104 35.2131 7.01651L20.3974 19.6807L37.5262 29.6429ZM38 18.5002C38 20.4332 36.433 22.0002 34.5 22.0002C32.567 22.0002 31 20.4332 31 18.5002C31 16.5672 32.567 15.0002 34.5 15.0002C36.433 15.0002 38 16.5672 38 18.5002Z" fill="#109AF0"/>
<path d="M35.8823 32.1573C32.2269 36.9257 26.4725 40.0002 20 40.0002C8.95431 40.0002 0 31.0459 0 20.0002C0 8.95455 8.95431 0.000244141 20 0.000244141C25.0075 0.000244141 29.5851 1.84051 33.0935 4.88164L30.0095 7.51781C28.0475 5.94449 25.7325 4.84833 23.2474 4.33324C19.9583 3.6515 16.5381 4.02219 13.4714 5.39278C10.4048 6.76338 7.84727 9.06434 6.16134 11.9696C4.47541 14.8748 3.74659 18.237 4.07816 21.5796C4.40972 24.9222 5.78486 28.0756 8.00869 30.5931C10.2325 33.1105 13.1922 34.8642 16.4684 35.6056C19.7445 36.347 23.1709 36.0386 26.262 34.7239C28.6567 33.7055 30.7561 32.1231 32.3887 30.1254L35.8823 32.1573Z" fill="#109AF0"/>
<path d="M22.8415 6.29161C24.8904 6.71631 26.8072 7.59245 28.458 8.84397L24.5148 12.2146C23.6292 11.701 22.657 11.3391 21.638 11.1505C19.7707 10.8049 17.8419 11.0588 16.1276 11.8759C14.4133 12.693 13.0015 14.0314 12.094 15.6996C11.1866 17.3678 10.8301 19.2803 11.0755 21.1634C11.3209 23.0465 12.1558 24.8038 13.4605 26.1836C14.7652 27.5635 16.473 28.4953 18.3394 28.8457C20.2058 29.1961 22.1353 28.9471 23.8516 28.1344C24.7197 27.7234 25.5109 27.1787 26.1987 26.5253L30.6348 29.1053C29.2372 30.7376 27.4755 32.0345 25.4792 32.8835C22.7746 34.0338 19.7765 34.3037 16.9098 33.6549C14.0432 33.0062 11.4535 31.4717 9.50761 29.269C7.56176 27.0662 6.35851 24.3069 6.06839 21.3822C5.77827 18.4574 6.41599 15.5155 7.89118 12.9734C9.36636 10.4313 11.6042 8.41798 14.2875 7.21871C16.9708 6.01945 19.9635 5.69509 22.8415 6.29161Z" fill="#109AF0"/>
<path d="M22.8738 13.6173L17.1402 18.5183C16.8055 18.8043 16.6278 19.2058 16.6155 19.6137C16.4164 20.2647 16.6826 20.9906 17.2965 21.3476L24.375 25.4646C23.9528 25.8027 23.4903 26.0926 22.9957 26.3268C21.6608 26.9589 20.1601 27.1526 18.7084 26.88C17.2568 26.6075 15.9285 25.8828 14.9137 24.8095C13.8989 23.7363 13.2496 22.3696 13.0587 20.9049C12.8678 19.4403 13.1451 17.9528 13.8509 16.6553C14.5567 15.3578 15.6548 14.3168 16.9881 13.6813C18.3215 13.0458 19.8216 12.8483 21.274 13.1171C21.8286 13.2198 22.3654 13.3884 22.8738 13.6173Z" fill="#109AF0"/>
</svg>
