<svg width="40" height="40" viewBox="0 0 40 40" fill="none" xmlns="http://www.w3.org/2000/svg">
<path d="M13.6955 30.9553H18.4254C20.2513 30.9553 22.0029 30.5044 23.574 29.7126C23.3198 29.551 23.0557 29.4038 22.7829 29.2719C21.4953 28.6498 20.0617 28.3931 18.6382 28.53C17.2148 28.6668 15.8563 29.192 14.7109 30.0481C14.3451 30.3214 14.0056 30.6252 13.6955 30.9553Z" fill="#624585"/>
<path d="M22.492 18.2102C22.492 19.9395 21.0902 21.3413 19.361 21.3413C17.6318 21.3413 16.23 19.9395 16.23 18.2102C16.23 16.481 17.6318 15.0792 19.361 15.0792C21.0902 15.0792 22.492 16.481 22.492 18.2102Z" fill="#624585"/>
<path fill-rule="evenodd" clip-rule="evenodd" d="M38.5 7C38.5 3.68629 35.8137 1 32.5 1H20.5C9.45431 1 0.500002 9.9543 0.500002 21L0.5 33C0.5 36.3137 3.18629 39 6.5 39H18.5C29.5457 39 38.5 30.0457 38.5 19V7ZM30.3148 16.4549V19.0659C30.3148 19.18 30.313 19.2939 30.3095 19.4075C30.2089 22.6528 28.6817 25.6627 26.3482 27.7955C25.682 27.2501 24.9509 26.7825 24.1686 26.4044C22.3559 25.5285 20.3374 25.1671 18.3334 25.3598C16.3294 25.5525 14.4168 26.2918 12.8042 27.4971C11.9499 28.1356 11.1972 28.8919 10.5664 29.7397C10.4508 29.895 10.3393 30.0535 10.232 30.2148C10.1121 30.395 9.99759 30.5788 9.88846 30.766C9.86394 30.808 9.84202 30.8506 9.82262 30.8937C9.00654 30.6804 8.40433 29.9382 8.40433 29.0553L8.40433 20.0108C8.40433 14.8515 13.8395 9.0448 20.2937 9.0448H26.3563C26.9729 9.0448 27.529 8.67444 27.7668 8.10559C28.1876 7.0985 27.4478 5.98752 26.3563 5.98752H20.2937C12.0389 5.98752 5.34706 12.6794 5.34706 20.9342L5.34705 30.2759C5.34705 32.3396 7.02002 34.0125 9.08372 34.0125H18.4254C26.6802 34.0125 33.3721 27.3207 33.3721 19.0659V15.6329L35.2979 15.1152C35.6724 15.0145 35.775 14.5317 35.4738 14.2875L30.7834 10.4845C30.5323 10.2809 30.1555 10.3822 30.0404 10.6843L27.8895 16.3265C27.8731 16.3695 27.8633 16.4125 27.8594 16.4549C27.8305 16.7692 28.1266 17.0431 28.4567 16.9544L30.3148 16.4549ZM25.437 18.2102C25.437 21.5659 22.7167 24.2863 19.361 24.2863C16.0053 24.2863 13.285 21.5659 13.285 18.2102C13.285 14.8546 16.0053 12.1342 19.361 12.1342C22.7167 12.1342 25.437 14.8546 25.437 18.2102Z" fill="#624585"/>
</svg>
