<svg width="40" height="40" viewBox="0 0 40 40" fill="none" xmlns="http://www.w3.org/2000/svg">
<path d="M31.2796 12.2965C29.2358 7.4231 24.4198 4 18.8042 4C11.5784 4 5.67637 9.66765 5.30251 16.8003C2.14348 18.5222 0 21.8727 0 25.7239C0 29.0185 1.56874 31.9467 4 33.8023V23.5C4 21.8431 5.34315 20.5 7 20.5H9V17.3C9 17.0214 9 16.8822 9.00555 16.7645C9.12704 14.1882 11.1882 12.127 13.7645 12.0056C13.8822 12 14.0214 12 14.3 12H15.7C15.9786 12 16.1178 12 16.2355 12.0056C18.8118 12.127 20.873 14.1882 20.9944 16.7645C21 16.8822 21 17.0214 21 17.3V20.5H23C24.6569 20.5 26 21.8431 26 23.5V35C26 35.3063 25.9541 35.6018 25.8688 35.8802H33.2344L33.2349 35.827C37.0447 35.3775 40 32.1371 40 28.2065C40 25.6365 38.7367 23.3616 36.797 21.97C37.0091 21.2672 37.123 20.5219 37.123 19.75C37.123 16.1429 34.6342 13.117 31.2796 12.2965Z" fill="#23A0C8"/>
<path fill-rule="evenodd" clip-rule="evenodd" d="M7 23C6.72386 23 6.5 23.2239 6.5 23.5V35C6.5 35.0797 6.51867 35.1551 6.55187 35.222C6.82703 35.3265 7.10791 35.4193 7.3939 35.5H23C23.2761 35.5 23.5 35.2761 23.5 35V23.5C23.5 23.2239 23.2761 23 23 23H7ZM13 28C13 27.4477 13.4477 27 14 27H16C16.5523 27 17 27.4477 17 28C17 28.5523 16.5523 29 16 29V31C16 31.5523 15.5523 32 15 32C14.4477 32 14 31.5523 14 31V29C13.4477 29 13 28.5523 13 28Z" fill="#23A0C8"/>
<path d="M18.5 20.5V17.3C18.5 16.9929 18.4993 16.9262 18.4972 16.8822C18.4365 15.5941 17.4059 14.5635 16.1178 14.5028C16.0737 14.5007 16.0071 14.5 15.7 14.5H14.3C13.9929 14.5 13.9262 14.5007 13.8822 14.5028C12.5941 14.5635 11.5635 15.5941 11.5028 16.8822C11.5007 16.9262 11.5 16.9929 11.5 17.3V20.5H18.5Z" fill="#23A0C8"/>
</svg>
