<svg width="40" height="40" viewBox="0 0 40 40" fill="none" xmlns="http://www.w3.org/2000/svg">
<path d="M19.805 11.2802H20.8638C21.741 11.2802 22.452 11.9517 22.452 12.7802V15.7802H18.2168V12.7802C18.2168 11.9517 18.9278 11.2802 19.805 11.2802Z" fill="#23A0C8"/>
<path fill-rule="evenodd" clip-rule="evenodd" d="M13.9815 28.2802V18.2802H26.6873V28.2802H13.9815ZM18.5844 20.7802C17.894 20.7802 17.3344 21.3398 17.3344 22.0302C17.3344 22.7205 17.894 23.2802 18.5844 23.2802H19.1448V24.6489C19.1448 25.2737 19.6513 25.7802 20.276 25.7802C20.9008 25.7802 21.4072 25.2737 21.4072 24.6489V23.2802H21.9668C22.6571 23.2802 23.2168 22.7205 23.2168 22.0302C23.2168 21.3398 22.6571 20.7802 21.9668 20.7802H18.5844Z" fill="#23A0C8"/>
<path fill-rule="evenodd" clip-rule="evenodd" d="M21.2022 1.19806C20.6538 0.933979 20.015 0.933979 19.4666 1.19806L5.56554 7.89248C5.01716 8.15656 4.61889 8.65598 4.48345 9.24937L1.05016 24.2916C0.914725 24.885 1.05687 25.5077 1.43635 25.9836L11.0562 38.0465C11.4357 38.5224 12.0112 38.7995 12.6199 38.7995H28.0489C28.6576 38.7995 29.2331 38.5224 29.6126 38.0465L39.2324 25.9836C39.6119 25.5077 39.7541 24.885 39.6186 24.2916L36.1854 9.24937C36.0499 8.65598 35.6516 8.15656 35.1033 7.89248L21.2022 1.19806ZM15.5697 15.7802V12.7802C15.5697 10.571 17.4659 8.78017 19.805 8.78017H20.8638C23.2029 8.78017 25.0991 10.571 25.0991 12.7802V15.7802H27.2168C28.3863 15.7802 29.3344 16.6756 29.3344 17.7802V28.7802C29.3344 29.8847 28.3863 30.7802 27.2168 30.7802H13.452C12.2825 30.7802 11.3344 29.8847 11.3344 28.7802V17.7802C11.3344 16.6756 12.2825 15.7802 13.452 15.7802H15.5697Z" fill="#23A0C8"/>
</svg>
