<svg width="40" height="40" viewBox="0 0 40 40" fill="none" xmlns="http://www.w3.org/2000/svg">
<path d="M24.2143 1.41127C21.7197 -0.470094 18.2803 -0.470097 15.7857 1.41126L2.78553 11.2156C0.423164 12.9972 -0.563864 16.072 0.320072 18.8959L5.38958 35.0915C5.50268 35.4528 5.6432 35.7999 5.80841 36.1306L9.55868 30.7151C9.80894 30.3537 9.79892 29.8709 9.56164 29.5002C7.19578 25.8024 7.08307 20.911 9.25682 17.1122C9.53544 16.6252 10.1638 16.518 10.6149 16.8439L14.6331 19.7471C15.0842 20.073 15.1795 20.7084 14.9651 21.2282C13.1 25.7503 18.7711 29.8477 22.3244 26.5452C22.7328 26.1656 23.3511 26.0458 23.8022 26.3717L27.8204 29.2749C28.2715 29.6008 28.3818 30.2417 28.025 30.6722C25.2394 34.0343 20.7061 35.5475 16.508 34.5093C16.0873 34.4052 15.6393 34.5565 15.3894 34.9173L11.8714 39.9975C11.9372 39.9993 12.0032 40.0002 12.0693 40.0002H27.9307C30.9908 40.0002 33.6962 38.0121 34.6104 35.0915L39.6799 18.8959C40.5639 16.072 39.5768 12.9972 37.2145 11.2156L33.6425 8.5217L30.442 13.1433C30.1917 13.5047 30.2018 13.9874 30.439 14.3582C32.8049 18.056 32.9176 22.9474 30.7438 26.7462C30.4652 27.2332 29.8368 27.3404 29.3857 27.0145L25.3675 24.1113C24.9164 23.7854 24.8211 23.15 25.0355 22.6302C26.9009 18.1082 21.2295 14.0107 17.6763 17.3132C17.2678 17.6928 16.6495 17.8126 16.1984 17.4867L12.1803 14.5835C11.7291 14.2576 11.6189 13.6167 11.9756 13.1862C14.7538 9.83305 19.2964 8.3115 23.4927 9.34906C23.9134 9.45312 24.3614 9.30189 24.6112 8.94105L27.9005 4.19127L24.2143 1.41127Z" fill="#1362CB"/>
</svg>
