<svg width="40" height="40" viewBox="0 0 40 40" fill="none" xmlns="http://www.w3.org/2000/svg">
<path fill-rule="evenodd" clip-rule="evenodd" d="M21 0C31.4934 0 40 8.50659 40 19V37C40 38.6569 38.6569 40 37 40H20C8.9543 40 0 31.0457 0 20C0 8.9543 8.9543 0 20 0H21ZM16.9874 21.0064H11.9874C10.8828 21.0064 9.98742 21.9018 9.98742 23.0064V28.0064C9.98742 29.111 10.8828 30.0064 11.9874 30.0064H16.9874C18.092 30.0064 18.9874 29.111 18.9874 28.0064V23.0064C18.9874 21.9018 18.092 21.0064 16.9874 21.0064ZM28.0126 21.0064H23.0126C21.908 21.0064 21.0126 21.9018 21.0126 23.0064V28.0064C21.0126 29.111 21.908 30.0064 23.0126 30.0064H28.0126C29.1172 30.0064 30.0126 29.111 30.0126 28.0064V23.0064C30.0126 21.9018 29.1172 21.0064 28.0126 21.0064ZM16.9874 9.99362H11.9874C10.8828 9.99362 9.98742 10.889 9.98742 11.9936V16.9936C9.98742 18.0982 10.8828 18.9936 11.9874 18.9936H16.9874C18.092 18.9936 18.9874 18.0982 18.9874 16.9936V11.9936C18.9874 10.889 18.092 9.99362 16.9874 9.99362ZM25.5126 9.99362C23.0273 9.99362 21.0126 12.0083 21.0126 14.4936C21.0126 16.9789 23.0273 18.9936 25.5126 18.9936C27.9979 18.9936 30.0126 16.9789 30.0126 14.4936C30.0126 12.0083 27.9979 9.99362 25.5126 9.99362Z" fill="#5F20A0"/>
</svg>
