<svg width="41" height="40" viewBox="0 0 41 40" fill="none" xmlns="http://www.w3.org/2000/svg">
<g clip-path="url(#clip0_14133_78)">
<path d="M20.4974 22.5016C21.8787 22.5016 22.9984 21.3819 22.9984 20.0006C22.9984 18.6193 21.8787 17.4995 20.4974 17.4995C19.1161 17.4995 17.9963 18.6193 17.9963 20.0006C17.9963 21.3819 19.1161 22.5016 20.4974 22.5016Z" fill="#3772FF"/>
<path fill-rule="evenodd" clip-rule="evenodd" d="M33.9787 19.9995C33.9787 27.4432 27.9443 33.4776 20.5006 33.4776C13.0568 33.4776 7.02249 27.4432 7.02249 19.9995C7.02249 12.5558 13.0568 6.52141 20.5006 6.52141C27.9443 6.52141 33.9787 12.5558 33.9787 19.9995ZM17.0359 15.7945C16.6974 15.9284 16.4295 16.1963 16.2956 16.5348L12.3937 26.397C11.9698 27.4684 13.0287 28.5293 14.1009 28.1074L23.9785 24.2209C24.3188 24.087 24.5881 23.8177 24.722 23.4774L28.6085 13.5998C29.0304 12.5276 27.9695 11.4687 26.898 11.8926L17.0359 15.7945Z" fill="#3772FF"/>
<path fill-rule="evenodd" clip-rule="evenodd" d="M20.5 40C31.5457 40 40.5 31.0457 40.5 20C40.5 8.9543 31.5457 0 20.5 0C9.4543 0 0.5 8.9543 0.5 20C0.5 31.0457 9.4543 40 20.5 40ZM36.1822 19.9995C36.1822 28.6602 29.1613 35.6812 20.5006 35.6812C11.8398 35.6812 4.81892 28.6602 4.81892 19.9995C4.81892 11.3388 11.8398 4.31784 20.5006 4.31784C29.1613 4.31784 36.1822 11.3388 36.1822 19.9995Z" fill="#3772FF"/>
</g>
<defs>
<clipPath id="clip0_14133_78">
<rect width="40" height="40" fill="white" transform="translate(0.5)"/>
</clipPath>
</defs>
</svg>
