<svg width="40" height="40" viewBox="0 0 40 40" fill="none" xmlns="http://www.w3.org/2000/svg">
<path d="M18.5037 0.394531C18.5012 0.429455 18.5 0.464708 18.5 0.50025V13.291C17.0341 13.8844 16 15.3216 16 17.0002C16 19.2094 17.7909 21.0002 20 21.0002C21.4806 21.0002 22.7733 20.1959 23.4649 19.0003L31.5 19.0002C32.3284 19.0002 33 18.3287 33 17.5002C33 16.6718 32.3284 16.0002 31.5 16.0002L23.874 16.0002C23.5563 14.766 22.6644 13.7623 21.5 13.291V0.50025C21.5 0.46471 21.4988 0.429458 21.4963 0.394536L38.2301 4.80389C38.6693 4.91961 38.9752 5.3194 38.9763 5.77355C38.9784 6.6708 38.9839 7.50991 38.989 8.29975C39.0376 15.7732 39.0576 18.8355 35.9792 25.0002C32.1794 32.6097 26.6687 36.5406 20.8915 39.5446C20.3323 39.8354 19.6665 39.836 19.106 39.5478C12.8739 36.3443 7.8348 32.6383 4.02075 25.0002C0.942465 18.8357 0.962374 15.7733 1.01096 8.30025C1.0161 7.51026 1.02155 6.67099 1.0237 5.77356C1.02479 5.31941 1.33069 4.91961 1.76985 4.80389L18.5037 0.394531Z" fill="#5ABDFB"/>
</svg>
