<svg width="40" height="40" viewBox="0 0 40 40" fill="none" xmlns="http://www.w3.org/2000/svg">
<path d="M20.1148 33.0451C21.4208 34.562 23.0965 35.7305 25.1418 37.0139L1 37.0137C0.447715 37.0137 0 36.5679 0 36.018L0 34.0165C0 33.4666 0.447715 33.0442 1 33.0442L20.1148 33.0451ZM30.1754 14.6113L39.999 17.9807L40 23.3951C40 28.3202 37.4275 32.6741 33.5189 35.1557C33.0966 35.4045 32.655 35.6527 32.1939 35.8992C31.5477 36.2168 30.8738 36.4861 30.1759 36.7028L30.1754 14.6113ZM40 6.03065L39.999 15.0176L30.8243 11.8714C30.4144 11.7308 29.9735 11.7131 29.5558 11.8183L29.3783 11.8708L17.6003 15.8928C16.9119 16.127 16.2674 16.9628 16.2674 17.7344C16.2674 22.1746 16.6301 27.4376 18.0944 30.3277C18.3838 30.899 18.7169 31.4565 19.0935 32.0003L4.00782 32.0002C2.90325 32.0003 2.00781 31.1087 2.00781 30.0089V6.03065C2.00781 4.93086 2.90324 4.03931 4.00781 4.03931H38C39.1046 4.03931 40 4.93086 40 6.03065Z" fill="#5ECCEF"/>
</svg>
