<svg width="40" height="40" viewBox="0 0 40 40" fill="none" xmlns="http://www.w3.org/2000/svg">
<path d="M14 11V7H26V11H14Z" fill="#862F7C"/>
<path d="M12 14H18.5V16.4455L12.891 21.2658C12.4239 21.6672 12.4272 22.3913 12.8979 22.7885L18.5625 27.568V30.0938H8V10.5H11V13C11 13.5523 11.4477 14 12 14Z" fill="#862F7C"/>
<path d="M20.0079 19.1052L23.4146 22.0101L20.0078 24.8623L16.6276 22.0102L20.0079 19.1052Z" fill="#862F7C"/>
<path d="M30.5 33C31.8807 33 33 31.8807 33 30.5C33 29.1193 31.8807 28 30.5 28C29.1193 28 28 29.1193 28 30.5C28 31.8807 29.1193 33 30.5 33Z" fill="#862F7C"/>
<path fill-rule="evenodd" clip-rule="evenodd" d="M7 1C3.68629 1 1 3.68629 1 7V33C1 36.3137 3.68629 39 7 39H33C36.3137 39 39 36.3137 39 33V7C39 3.68629 36.3137 1 33 1H7ZM11 5C11 4.44772 11.4477 4 12 4H28C28.5523 4 29 4.44772 29 5V13C29 13.5523 28.5523 14 28 14H21.5V16.435L26.3227 20.5474L29.4716 20.5116C30.8633 20.4958 32 21.6196 32 23.0114V25.207C34.3085 25.86 36 27.9824 36 30.5C36 33.5376 33.5376 36 30.5 36C27.4624 36 25 33.5376 25 30.5C25 27.9824 26.6915 25.86 29 25.207V23.5171L26.2506 23.5484L21.5625 27.4733V30.5938C21.5625 31.9745 20.4432 33.0938 19.0625 33.0938H7.5C6.11929 33.0938 5 31.9745 5 30.5938V10C5 8.61929 6.11929 7.5 7.5 7.5H11V5Z" fill="#862F7C"/>
</svg>
