<svg width="40" height="40" viewBox="0 0 40 40" fill="none" xmlns="http://www.w3.org/2000/svg">
<path fill-rule="evenodd" clip-rule="evenodd" d="M21.893 0.535013L35.786 8.53923C37.0236 9.25225 37.786 10.57 37.786 11.996L37.786 17.174L37.492 16.8311L36.8912 16.1429L36.3128 15.4926L35.7568 14.88L35.223 14.3051L34.7113 13.7679L34.2219 13.2682C34.1418 13.1884 34.063 13.1097 33.9852 13.0326L33.5285 12.5893C33.38 12.4477 33.235 12.3124 33.0937 12.1834L32.6807 11.8148C32.4796 11.6399 32.2866 11.4789 32.1017 11.3319C28.1035 8.15318 21.7474 7.57716 16.7581 10.7596C13.0426 13.1295 11.0639 16.6644 10.8937 21.2058C10.8617 22.0591 11.5289 22.7767 12.384 22.8086C13.2391 22.8405 13.9583 22.1747 13.9902 21.3214C14.1229 17.7816 15.5779 15.1823 18.427 13.365C22.2571 10.922 27.1737 11.3675 30.1708 13.7504C30.2239 13.7927 30.278 13.8364 30.333 13.8817L30.6745 14.1714C30.7333 14.2227 30.793 14.2755 30.8537 14.3298L31.2289 14.6738L31.6266 15.0538C31.6947 15.1202 31.7638 15.188 31.8338 15.2574L32.265 15.6915L32.7184 16.1615L33.1939 16.6674L33.6916 17.2092L34.2112 17.7867L34.7527 18.4L35.606 19.3867L36.508 20.4534L37.4587 21.6L37.786 22.0028L37.7875 27.388C36.6593 25.3208 35.0959 23.2357 33.103 21.1288L32.7037 20.7122C32.1081 20.0991 31.1272 20.0839 30.5128 20.6782C29.8984 21.2725 29.8831 22.2513 30.4787 22.8644C33.3083 25.7775 35.1876 28.5718 36.1366 31.2336C36.0249 31.3151 35.9077 31.3911 35.786 31.4613L32.993 33.0707C31.942 29.8627 29.5479 26.3078 25.8314 22.3602C25.2455 21.7379 24.265 21.7073 23.6413 22.292C23.0177 22.8767 22.9871 23.8551 23.573 24.4775C27.34 28.4787 29.5617 31.9366 30.2659 34.7894L30.232 34.661L26.751 36.6658L26.7331 36.5479C26.4358 35.0723 25.9912 33.6672 25.3994 32.3347L25.1706 31.8384L25.1068 31.7083L24.9709 31.4515C24.9472 31.4088 24.9228 31.3661 24.8978 31.3232L24.7386 31.0632C24.7105 31.0192 24.6815 30.9748 24.6516 30.9299L24.4603 30.6533L24.2426 30.358L23.9945 30.0383L23.712 29.6881L23.2151 29.0927L21.9776 27.6486L21.5965 27.194C21.5365 27.1214 21.4782 27.0504 21.4216 26.9809L21.1021 26.5818L20.822 26.2166L20.5797 25.8829C20.2064 25.3514 19.9844 24.9406 19.8824 24.5984C19.23 22.4101 19.6056 20.6745 21.404 19.1795C23.1863 17.6979 25.6891 17.8222 26.9665 19.0884L27.0773 19.1883C27.6877 19.6877 28.59 19.6513 29.1576 19.0811C29.7606 18.4753 29.7574 17.4964 29.1504 16.8945C26.7445 14.5099 22.4374 14.2958 19.4207 16.8037C16.5858 19.1602 15.9307 22.1877 16.9123 25.4802C17.1997 26.4439 17.7436 27.3402 18.7475 28.6002L19.146 29.0906L19.5899 29.6201L20.4592 30.6326L21.1108 31.4023L21.4964 31.8747L21.7101 32.1478L21.8927 32.3923L22.0474 32.6125L22.1771 32.8127L22.2849 32.9972L22.374 33.1702C22.9702 34.4167 23.4106 35.7449 23.6952 37.1575C23.7732 37.5447 23.99 37.8689 24.2835 38.0888L21.893 39.4655C20.6554 40.1785 19.1306 40.1785 17.893 39.4655L4 31.4613C2.7624 30.7482 2 29.4305 2 28.0045V11.996C2 10.57 2.7624 9.25225 4 8.53923L17.893 0.535013C19.1306 -0.178012 20.6554 -0.178012 21.893 0.535013ZM14.1269 25.8872C13.9383 25.0543 13.1088 24.5317 12.2741 24.7199C11.4395 24.9081 10.9158 25.7359 11.1044 26.5688C11.8949 30.0595 13.6927 33.1704 16.4702 35.8769C17.0825 36.4735 18.0634 36.4618 18.6613 35.851C19.2591 35.24 19.2474 34.2611 18.6352 33.6645C16.2758 31.3654 14.7823 28.7812 14.1269 25.8872Z" fill="#1362CB"/>
</svg>
