<svg width="40" height="40" viewBox="0 0 40 40" fill="none" xmlns="http://www.w3.org/2000/svg">
<g style="mix-blend-mode:plus-darker">
<path d="M6 12.934C6 11.7616 6.629 10.6794 7.65124 10.0932L14.0138 6.4444C16.2263 5.17561 19 6.76627 19 9.30386V30.7148C19 33.2461 16.2385 34.8221 14.026 33.5533L7.66342 29.9045C6.63432 29.3143 6 28.2248 6 27.0474L6 12.934Z" fill="#F5D010"/>
</g>
<g style="mix-blend-mode:plus-darker">
<path d="M34 27.066C34 28.2384 33.371 29.3206 32.3488 29.9068L25.9862 33.5556C23.7737 34.8244 21 33.2337 21 30.6961L21 9.28525C21 6.75386 23.7615 5.17793 25.974 6.44673L32.3366 10.0955C33.3657 10.6857 34 11.7752 34 12.9526L34 27.066Z" fill="#F3A714"/>
</g>
</svg>
