<svg width="42" height="42" viewBox="0 0 42 42" fill="none" xmlns="http://www.w3.org/2000/svg">
<path d="M23.1209 1.87172C21.9493 0.70015 20.0498 0.700148 18.8782 1.87172L1.87087 18.8791C0.699295 20.0507 0.699293 21.9501 1.87087 23.1217L10.5308 31.7817V25.0004C10.5308 24.4481 10.9785 24.0004 11.5308 24.0004H16.5308V20.0004C16.5308 19.4481 16.9785 19.0004 17.5308 19.0004H22.5308V15.0004C22.5308 14.4481 22.9785 14.0004 23.5308 14.0004H30.5308C31.0831 14.0004 31.5308 14.4481 31.5308 15.0004V31.7192L40.1282 23.1217C41.2998 21.9502 41.2998 20.0507 40.1282 18.8791L23.1209 1.87172Z" fill="#1362CB"/>
<path d="M28.5308 34.7192V17.0004H25.5308V37.7192L28.5308 34.7192Z" fill="#1362CB"/>
<path d="M22.5308 40.5884V22.0004H19.5308V40.6245C20.461 41.1473 21.6107 41.1352 22.5308 40.5884Z" fill="#1362CB"/>
<path d="M16.5308 37.7817V27.0004H13.5308V34.7817L16.5308 37.7817Z" fill="#1362CB"/>
</svg>
