<svg width="40" height="40" viewBox="0 0 40 40" fill="none" xmlns="http://www.w3.org/2000/svg">
<path fill-rule="evenodd" clip-rule="evenodd" d="M20.1183 0.0724398C20.2842 -0.0241466 20.4892 -0.0241466 20.655 0.0724398L37.5084 9.88577C37.6725 9.98137 37.7735 10.1571 37.7733 10.3471C37.7732 10.5371 37.672 10.7126 37.5077 10.808L29.1333 15.6671V23.7433L36.9854 19.478C37.1507 19.3882 37.351 19.3921 37.5126 19.4883C37.6743 19.5844 37.7733 19.7586 37.7733 19.9467V29.6533C37.7733 29.8432 37.6724 30.0187 37.5084 30.1142L20.655 39.9276C20.4907 40.0232 20.2879 40.0242 20.1227 39.9301L3.26936 30.3301C3.10283 30.2352 3 30.0583 3 29.8667V10.3467C3 10.1568 3.10091 9.9813 3.26496 9.88577L20.1183 0.0724398ZM28.0667 23.721L20.92 19.6372V11.297L28.0667 15.6593V23.721ZM28.6069 14.7394L36.1787 10.3459L20.92 1.46104V10.0474L28.6069 14.7394ZM19.8533 1.46104V10.0494L12.2696 14.7393L4.59949 10.343L19.8533 1.46104ZM4.06667 11.2671L11.7467 15.669V24.3374L4.06667 28.9267V11.2671ZM4.59152 29.8556L19.8533 38.5491V29.744L12.2812 25.2606L4.59152 29.8556ZM13.3355 24.6452L20.3884 28.8212L27.5341 24.6452L20.3884 20.5619L13.3355 24.6452ZM19.8533 19.6392V11.3036L12.8133 15.6573V23.715L19.8533 19.6392ZM20.92 29.746V38.539L36.7067 29.3467V20.8433L28.8619 25.1047L20.92 29.746Z" fill="#1362CB"/>
<defs>
</defs>
</svg>
