<svg width="32" height="32" viewBox="0 0 32 32" fill="none" xmlns="http://www.w3.org/2000/svg">
<path fill-rule="evenodd" clip-rule="evenodd" d="M29.0251 6.82952L17.6417 0.428424C16.6258 -0.142808 15.3743 -0.142808 14.3584 0.428424L2.97501 6.82952C1.95916 7.40076 1.33337 8.45644 1.33337 9.5989V22.4011C1.33337 23.5436 1.95916 24.5992 2.97501 25.1705L14.3584 31.5716C15.3743 32.1428 16.6258 32.1428 17.6417 31.5716L29.0251 25.1705C30.0409 24.5992 30.6667 23.5436 30.6667 22.4011V9.5989C30.6667 8.45644 30.0409 7.40076 29.0251 6.82952ZM13.6725 4.70552C13.6725 5.68919 14.3765 6.51247 15.3087 6.70243V10.0645H16.1302V6.7025C17.0629 6.51274 17.7664 5.68986 17.7664 4.70552C17.7664 3.58108 16.8477 2.66667 15.7195 2.66667C14.5913 2.66667 13.6725 3.58176 13.6725 4.70552ZM14.0217 13.9519C14.0217 12.8786 14.8952 12.0086 15.9728 12.0086C17.0503 12.0086 17.9239 12.8786 17.9239 13.9519C17.9239 15.0252 17.0503 15.8953 15.9728 15.8953C14.8952 15.8953 14.0217 15.0252 14.0217 13.9519ZM12.8674 17.8354C11.7745 18.901 13.3882 20.123 14.4635 20.123H17.482C18.5574 20.123 20.1711 18.901 19.0781 17.8354C17.4322 16.2307 14.505 16.2389 12.8674 17.8354ZM6.03519 12.6308C6.6114 12.6308 7.17537 12.3884 7.56941 11.9459L10.4928 13.627L10.9036 12.9184L7.98101 11.2377C8.28672 10.3324 7.8934 9.30498 7.06208 8.82754C6.08448 8.26567 4.8303 8.59979 4.26619 9.57353C3.48957 10.9141 4.51328 12.6308 6.03519 12.6308ZM8.2589 21.2434C8.56021 22.143 8.19609 23.1619 7.34071 23.6539C6.37478 24.209 5.10205 23.8698 4.54482 22.9072C3.98776 21.9449 4.32694 20.6783 5.29377 20.123C6.1247 19.6451 7.21349 19.8189 7.84847 20.5346L10.7708 18.854L11.1816 19.5627L8.2589 21.2434ZM15.8667 21.9362H16.6882V25.2975C17.6208 25.4874 18.3244 26.3108 18.3244 27.2952C18.3244 28.4196 17.4063 29.3333 16.2774 29.3333C15.1492 29.3333 14.2305 28.4189 14.2305 27.2952C14.2305 26.3114 14.934 25.4876 15.8667 25.2976V21.9362ZM21.5039 18.3733L21.0931 19.082L24.0161 20.7629C23.7156 21.6621 24.0793 22.6801 24.9348 23.1718C25.8999 23.7264 27.1696 23.3944 27.7307 22.4251C28.6318 20.8746 27.121 18.9844 25.4284 19.4371C25.0351 19.5423 24.6896 19.7565 24.4261 20.0538L21.5039 18.3733ZM20.815 12.4371L23.7371 10.7567C23.4362 9.85725 23.8003 8.83867 24.6555 8.34681C25.6213 7.79135 26.8935 8.13021 27.4507 9.0928C28.0148 10.0665 27.6787 11.3158 26.7018 11.8776C25.8457 12.3693 24.779 12.1746 24.1478 11.4654L21.2257 13.1457L20.815 12.4371Z" fill="#1975B2"/>
</svg>
