<svg width="40" height="40" viewBox="0 0 40 40" fill="none" xmlns="http://www.w3.org/2000/svg">
<path fill-rule="evenodd" clip-rule="evenodd" d="M18.8042 4.00024C24.4198 4.00024 29.2358 7.42335 31.2796 12.2968C34.6342 13.1173 37.123 16.1431 37.123 19.7503C37.123 20.5222 37.0091 21.2675 36.797 21.9702C38.7367 23.3618 40 25.6367 40 28.2067C40 32.1373 37.0447 35.3778 33.2349 35.8272L33.2344 35.8804H9.03277L9.03257 35.819C3.95219 35.2598 0 30.9535 0 25.7241C0 21.873 2.14348 18.5225 5.30251 16.8005C5.67637 9.66789 11.5784 4.00024 18.8042 4.00024ZM19.8346 10.0352C19.1019 10.0352 18.4997 10.5331 18.4314 11.1696L18.425 11.2905L18.4249 14.7712L14.7292 16.9056C14.1476 17.2414 13.7894 17.8619 13.7894 18.5334L13.7889 22.8192L10.4218 25.5649L10.3147 25.6617C9.80937 26.1668 9.75883 26.9826 10.2201 27.5483C10.6813 28.1139 11.4906 28.2287 12.0871 27.8354L12.2034 27.75L15.1789 25.3232L18.9748 27.5148C19.5563 27.8505 20.2728 27.8505 20.8544 27.5148L24.5439 25.3842L27.9125 27.6968C28.5543 28.1374 29.4319 27.9743 29.8725 27.3324C30.2872 26.7283 30.167 25.9155 29.6164 25.4546L29.5081 25.3725L26.0389 22.9902L26.0398 18.5334C26.0398 17.8619 25.6815 17.2414 25.1 16.9056L21.2439 14.6792L21.2443 11.2905L21.2378 11.1696C21.1695 10.5331 20.5674 10.0352 19.8346 10.0352ZM19.9141 17.1677L23.2202 19.0763V22.8937L19.9141 24.8023L16.608 22.8937V19.0763L19.9141 17.1677Z" fill="#3772FF"/>
</svg>
