<svg width="40" height="41" viewBox="0 0 40 41" fill="none" xmlns="http://www.w3.org/2000/svg">
<path fill-rule="evenodd" clip-rule="evenodd" d="M21.8683 0.536143L35.7366 8.54302C36.9742 9.25755 37.7366 10.5781 37.7366 12.0071V28.0209C37.7366 29.4499 36.9742 30.7704 35.7366 31.485L21.8683 39.4919C20.6307 40.2064 19.1059 40.2064 17.8683 39.4919L4 31.485C2.7624 30.7704 2 29.4499 2 28.0209L2 24.2542L4.13495 24.2546L4.27163 24.2481C4.99128 24.1793 5.5541 23.5731 5.5541 22.8354C5.5541 22.0516 4.91873 21.4163 4.13495 21.4163L2 21.4162V18.7942L4.13495 18.7951L4.27163 18.7886C4.99128 18.7198 5.5541 18.1136 5.5541 17.3759C5.5541 16.5921 4.91873 15.9568 4.13495 15.9568L2 15.9562L2 12.0071C2 10.5781 2.7624 9.25755 4 8.54302L17.8683 0.536143C19.1059 -0.178389 20.6307 -0.178389 21.8683 0.536143ZM19.6611 8.77007C18.907 8.77007 18.2873 9.28244 18.217 9.93758L18.2103 10.062L18.2096 13.6451L14.4067 15.8409L14.2727 15.9258C13.7537 16.285 13.4395 16.8782 13.4395 17.5162L13.4386 21.9271L9.97362 24.7529L9.86339 24.8524L9.76564 24.9605C9.33877 25.4831 9.32299 26.2507 9.76603 26.7941C10.2407 27.3762 11.0736 27.4943 11.6875 27.0896L11.8072 27.0017L14.8696 24.5031L18.7762 26.7596L18.9286 26.8388C19.4966 27.1027 20.162 27.0763 20.7106 26.7596L24.5076 24.5661L27.9746 26.947L28.1012 27.0247C28.7463 27.3775 29.5667 27.1912 29.9918 26.5719C30.4186 25.9502 30.2949 25.1137 29.7282 24.6393L29.6168 24.5548L26.0466 22.1041L26.0473 17.5162L26.0408 17.3577C25.9892 16.7286 25.6325 16.1599 25.0801 15.8409L21.1116 13.5501L21.1119 10.062L21.1052 9.93758L21.0857 9.8165C20.9569 9.2204 20.3681 8.77007 19.6611 8.77007ZM19.7429 16.1106L23.1454 18.075V22.0037L19.7429 23.968L16.3403 22.0037V18.075L19.7429 16.1106Z" fill="#729AF8"/>
</svg>
