<svg width="40" height="40" viewBox="0 0 40 40" fill="none" xmlns="http://www.w3.org/2000/svg">
<path fill-rule="evenodd" clip-rule="evenodd" d="M31 1C35.3349 1 38.8646 4.44784 38.9962 8.75082L39 9V37C39 38.0544 38.1842 38.9182 37.1493 38.9945L37 39H9C4.66509 39 1.13543 35.5522 1.00378 31.2492L1 31V3C1 1.94564 1.81585 1.08184 2.85071 1.00549L3 1H31ZM32.4056 21.8858H22.9064C22.4192 21.8858 22.0176 22.2526 21.9628 22.725L21.9564 22.8358V32.3358C21.9564 32.823 22.3232 33.2245 22.7957 33.2794L22.9064 33.2858H32.4056C32.8928 33.2858 33.2944 32.9191 33.3492 32.4466L33.3556 32.3358V22.8358C33.3556 22.3111 32.9303 21.8858 32.4056 21.8858ZM16.7664 30.0079H15.9164C15.3641 30.0079 14.9164 30.4557 14.9164 31.0079V31.8579C14.9164 32.4102 15.3641 32.8579 15.9164 32.8579H16.7664C17.3186 32.8579 17.7664 32.4102 17.7664 31.8579V31.0079C17.7664 30.4557 17.3186 30.0079 16.7664 30.0079ZM9.16455 30.0079H8.31458C7.7623 30.0079 7.31458 30.4557 7.31458 31.0079V31.8579C7.31458 32.4102 7.7623 32.8579 8.31458 32.8579H9.16455C9.71684 32.8579 10.1646 32.4102 10.1646 31.8579V31.0079C10.1646 30.4557 9.71684 30.0079 9.16455 30.0079ZM30.5051 24.7357V30.4358H24.806V24.7357H30.5051ZM13.036 26.201H12.1859C11.6336 26.201 11.1859 26.6487 11.1859 27.201V28.051C11.1859 28.6032 11.6336 29.051 12.1859 29.051H13.036C13.5883 29.051 14.036 28.6032 14.036 28.051V27.201C14.036 26.6487 13.5883 26.201 13.036 26.201ZM9.16455 22.2122H8.31458C7.7623 22.2122 7.31458 22.6599 7.31458 23.2122V24.0622C7.31458 24.6144 7.7623 25.0622 8.31458 25.0622H9.16455C9.71684 25.0622 10.1646 24.6144 10.1646 24.0622V23.2122C10.1646 22.6599 9.71684 22.2122 9.16455 22.2122ZM16.7664 22.2122H15.9164C15.3641 22.2122 14.9164 22.6599 14.9164 23.2122V24.0622C14.9164 24.6144 15.3641 25.0622 15.9164 25.0622H16.7664C17.3186 25.0622 17.7664 24.6144 17.7664 24.0622V23.2122C17.7664 22.6599 17.3186 22.2122 16.7664 22.2122ZM17.259 6.7H7.65002C7.16283 6.7 6.7613 7.06674 6.70642 7.53922L6.70007 7.64999V17.1435C6.70007 17.6307 7.06671 18.0322 7.53918 18.0871L7.65002 18.0935H17.259C17.7462 18.0935 18.1478 17.7268 18.2026 17.2543L18.209 17.1435V7.64999C18.209 7.12532 17.7837 6.7 17.259 6.7ZM32.4056 6.68582H22.9064C22.4192 6.68582 22.0176 7.05257 21.9628 7.52504L21.9564 7.63582V17.1358C21.9564 17.623 22.3232 18.0246 22.7957 18.0794L22.9064 18.0858H32.4056C32.8928 18.0858 33.2944 17.7191 33.3492 17.2466L33.3556 17.1358V7.63582C33.3556 7.11115 32.9303 6.68582 32.4056 6.68582ZM15.3583 9.55V15.2433H9.55005V9.55H15.3583ZM30.5051 9.53575V15.2357H24.806V9.53575H30.5051Z" fill="#335AD3"/>
</svg>
