<svg width="40" height="40" viewBox="0 0 40 40" fill="none" xmlns="http://www.w3.org/2000/svg">
<path d="M18.2606 12.4932C19.1565 11.255 20.5948 10.5001 22.1635 10.5001C24.7061 10.5001 26.7896 12.4711 26.9677 14.9675L27.0443 16.0417L28.0867 16.3125C29.2533 16.6157 30.0971 17.6787 30.0971 18.9178C30.0971 20.3092 29.0149 21.4273 27.5449 21.5001H12.4292C11.2995 21.1678 10.5 20.1235 10.5 18.9178C10.5 17.6585 11.372 16.5767 12.5781 16.2963L13.5968 16.0594L13.7267 15.0215C13.8705 13.8723 14.8541 12.9816 16.0437 12.9816C16.2538 12.9816 16.4585 13.0091 16.6544 13.062L17.6537 13.3318L18.2606 12.4932Z" fill="#109AF0"/>
<path fill-rule="evenodd" clip-rule="evenodd" d="M19.106 39.5477C19.6665 39.8358 20.3323 39.8352 20.8915 39.5445C26.6687 36.5404 32.1794 32.6095 35.9792 25.0001C39.0576 18.8354 39.0376 15.773 38.989 8.29959C38.9839 7.50975 38.9784 6.67064 38.9763 5.7734C38.9752 5.31925 38.6693 4.91945 38.2301 4.80373L20.5096 0.134373C20.1756 0.0463548 19.8244 0.0463548 19.4904 0.134373L1.76985 4.80373C1.33069 4.91945 1.02479 5.31925 1.0237 5.7734C1.02155 6.67083 1.0161 7.51011 1.01096 8.30009C0.962374 15.7732 0.942465 18.8355 4.02075 25.0001C7.8348 32.6381 12.8739 36.3441 19.106 39.5477ZM22.1635 7.50009C19.9479 7.50009 17.8901 8.4308 16.4365 9.99589C16.3062 9.98635 16.1751 9.98155 16.0437 9.98155C13.6681 9.98155 11.6566 11.5332 10.965 13.6784C8.90562 14.5531 7.5 16.5915 7.5 18.9178C7.5 21.5777 9.33853 23.8651 11.8973 24.461L12.0652 24.5001H27.6087L27.6391 24.4989C30.6248 24.3778 33.0971 22.0318 33.0971 18.9178C33.0971 16.6589 31.7736 14.6803 29.8258 13.7648C29.1056 10.1907 25.9493 7.50009 22.1635 7.50009Z" fill="#109AF0"/>
</svg>
