<svg width="40" height="40" viewBox="0 0 40 40" fill="none" xmlns="http://www.w3.org/2000/svg">
<path fill-rule="evenodd" clip-rule="evenodd" d="M14.3606 35.6421C16.3626 35.6421 18.2689 35.2324 20.0002 34.4924C21.7316 35.2324 23.6379 35.6421 25.6399 35.6421C33.571 35.6421 40.0005 29.2126 40.0005 21.2815C40.0005 13.3504 33.571 6.9209 25.6399 6.9209C23.6379 6.9209 21.7316 7.33056 20.0002 8.07062C18.2689 7.33056 16.3626 6.9209 14.3606 6.9209C6.42946 6.9209 0 13.3504 0 21.2815C0 29.2126 6.42946 35.6421 14.3606 35.6421ZM13.2923 17.6347L16.4979 14.3463L18.8336 16.3402L15.4293 19.7718C14.5715 20.6296 14.5715 22.0204 15.4293 22.8782L19.6474 27.0962C22.7732 30.2221 27.8412 30.2221 30.9671 27.0962C34.1544 23.9089 34.1544 18.7411 30.9671 15.5538C29.1309 13.7175 26.8628 12.8573 24.4736 13.1784L21.5966 10.8142C25.5436 9.28811 29.9194 10.2319 33.1041 13.4167C37.4718 17.7843 37.4718 24.8657 33.1041 29.2333C29.5504 32.7871 24.1743 33.408 19.9838 31.096L19.9825 31.0967L19.9547 31.0799C19.0784 30.593 18.2544 29.9774 17.5103 29.2333L13.2923 25.0153C11.2542 22.9772 11.2542 19.6728 13.2923 17.6347ZM24.549 22.8747C25.4048 22.0188 25.4048 20.6313 24.549 19.7754L20.3351 15.5615C17.2135 12.4399 12.1523 12.4399 9.03069 15.5615C5.8476 18.7446 5.8476 23.9054 9.03069 27.0885C10.8667 28.9245 12.9414 29.6813 15.33 29.3577L18.1215 31.8358C14.2761 32.9182 10.0518 32.3838 6.89362 29.2256C2.53025 24.8622 2.53025 17.7878 6.89362 13.4245C11.1955 9.12257 18.1703 9.12257 22.4722 13.4245L26.6861 17.6384C28.7222 19.6745 28.7222 22.9756 26.6861 25.0117L23.4481 28.3322L21.1979 26.3953L24.549 22.8747ZM21.4153 20.672C21.4153 21.1445 21.195 21.5655 20.8514 21.8379L20.9164 23.178C20.9369 23.6686 20.5447 24.0775 20.0537 24.0775H19.8188C19.322 24.0775 18.9277 23.6594 18.9568 23.1634L19.0479 21.8707C18.6799 21.6 18.4411 21.1639 18.4411 20.672C18.4411 19.8507 19.1069 19.1849 19.9282 19.1849C20.7495 19.1849 21.4153 19.8507 21.4153 20.672Z" fill="#2B57CA"/>
</svg>
