<svg width="41" height="40" viewBox="0 0 41 40" fill="none" xmlns="http://www.w3.org/2000/svg">
<path d="M28.6738 15.0755L20.1216 10.2473L20.1218 20.1167L28.6738 24.9778V15.0755Z" fill="#0B46B8"/>
<path d="M11.4669 15.1783L29.0868 5.14823L22.5696 1.55249C21.0579 0.718447 19.2204 0.734441 17.7235 1.59467L5.55983 8.58464C4.02704 9.46547 3.08203 11.0985 3.08203 12.8663V26.9718C3.08203 28.717 4.00327 30.3327 5.50526 31.2216L10.0091 33.887C10.9657 34.4531 12.1528 34.4611 13.117 33.908L28.6833 24.9771L20.1184 20.1159L11.4862 24.7913L11.4669 15.1783Z" fill="url(#paint0_linear_2239_9245)"/>
<path d="M35.0386 8.60643L29.0854 5.14737L20.1216 10.2473L28.6738 15.0755V24.9778L13.1427 33.8969C12.3422 34.3566 11.3781 34.4339 10.5146 34.1076L10.1791 33.9808L17.5983 38.3731C19.1333 39.2819 21.0391 39.2921 22.5838 38.4L35.0274 31.2132C36.555 30.331 37.4959 28.7009 37.4959 26.9369V12.8763C37.4959 11.1169 36.5599 9.49035 35.0386 8.60643Z" fill="url(#paint1_linear_2239_9245)"/>
<defs>
<linearGradient id="paint0_linear_2239_9245" x1="-60.6493" y1="-38.3164" x2="-15.7654" y2="112.067" gradientUnits="userSpaceOnUse">
<stop offset="0.0833333" stop-color="#D3EB33"/>
<stop offset="0.390625" stop-color="#13DBD4"/>
<stop offset="0.65625" stop-color="#3772FF"/>
</linearGradient>
<linearGradient id="paint1_linear_2239_9245" x1="-32.9362" y1="0.314135" x2="-16.0637" y2="80.9734" gradientUnits="userSpaceOnUse">
<stop offset="0.410321" stop-color="#3763FF"/>
<stop offset="0.671875" stop-color="#0D3685"/>
</linearGradient>
</defs>
</svg>
