<svg width="40" height="40" viewBox="0 0 40 40" fill="none" xmlns="http://www.w3.org/2000/svg">
<path fill-rule="evenodd" clip-rule="evenodd" d="M21.0129 0.204229C20.3661 -0.0680764 19.6339 -0.0680761 18.9871 0.204229L3.55849 6.69931C2.61302 7.09733 2 8.01053 2 9.02095V18.4217C2 24.5204 5.5491 31.5181 11.3819 35.3101L26.607 19.6506C26.3768 18.4085 25.4774 16.0522 22.9406 14.1287C21.6046 13.1156 19.3261 12.555 16.7232 12.2948C14.5499 12.0775 12.3934 12.0873 10.7704 12.0947C10.4952 12.096 10.2351 12.0972 9.99307 12.0972C9.14097 12.0972 8.45022 11.4186 8.45023 10.5816C8.45024 9.74463 9.14101 9.06612 9.99311 9.06613C10.2166 9.06613 10.4629 9.06492 10.729 9.06361C12.3435 9.05565 14.6835 9.04412 17.0357 9.27931C19.7144 9.54717 22.7568 10.1602 24.8261 11.7293C28.6275 14.6117 29.7245 18.3913 29.7573 20.1637C29.7647 20.563 29.6113 20.9491 29.3305 21.2379L14.1145 36.8881L19.3621 39.8336C19.7574 40.0555 20.2426 40.0555 20.6379 39.8336L27.6077 35.9214C34.0385 32.3118 38 24.865 38 18.4217V9.02095C38 8.01053 37.387 7.09733 36.4415 6.69931L21.0129 0.204229ZM11.4447 13.8343C12.2968 13.8343 12.9875 14.5128 12.9875 15.3498V23.7006H15.3937L19.0436 20.0788C19.643 19.4839 20.6199 19.479 21.2255 20.0678C21.8311 20.6567 21.836 21.6162 21.2366 22.2111L17.1339 26.2823C16.8441 26.5699 16.4493 26.7317 16.0374 26.7317H11.4447C10.5926 26.7317 9.9018 26.0532 9.9018 25.2162V15.3498C9.9018 14.5128 10.5926 13.8343 11.4447 13.8343ZM31.0848 24.6084C31.6945 25.1931 31.7063 26.1526 31.1111 26.7515L24.9874 32.9134C24.3922 33.5124 23.4154 33.5239 22.8056 32.9392C22.1959 32.3546 22.1841 31.3951 22.7793 30.7961L28.903 24.6342C29.4982 24.0353 30.475 24.0238 31.0848 24.6084ZM17.8295 16.8902C17.8295 17.741 17.1274 18.4307 16.2612 18.4307C15.3951 18.4307 14.693 17.741 14.693 16.8902C14.693 16.0395 15.3951 15.3498 16.2612 15.3498C17.1274 15.3498 17.8295 16.0395 17.8295 16.8902Z" fill="#6F3DAB"/>
</svg>
