<svg width="41" height="40" viewBox="0 0 41 40" fill="none" xmlns="http://www.w3.org/2000/svg">
<path fill-rule="evenodd" clip-rule="evenodd" d="M27.3522 31.2579C23.9957 28.5837 18.4895 28.0836 14.2001 30.8254C11.7373 32.3996 10.2046 34.4968 9.56609 37.1994C10.4828 37.7627 11.4509 38.2504 12.4606 38.6531C12.9576 37.2064 13.8901 35.8698 15.313 34.6845C18.6915 31.8701 23.5151 32.1103 26.2094 34.7865C26.8892 35.4619 26.8929 36.5606 26.2175 37.2405C25.5819 37.8804 24.5713 37.9213 23.8878 37.3608L23.7636 37.2487C22.3331 35.8277 19.5302 35.6881 17.5342 37.3509C16.6835 38.0595 16.1171 38.8163 15.8025 39.6404C16.9985 39.8763 18.2348 40 19.5 40H20.5C24.8847 40 28.9399 38.589 32.2362 36.1962L31.8771 35.7878L31.2952 35.1397L30.7379 34.5317L30.2053 33.9639L29.6975 33.4364L29.2147 32.9492C29.1363 32.8714 29.0589 32.7952 28.9826 32.7208L28.5372 32.2942L28.117 31.9082C28.049 31.8472 27.9822 31.788 27.9163 31.7304L27.5339 31.4053C27.4723 31.3545 27.4117 31.3053 27.3522 31.2579ZM40.5 20C40.5 8.9543 31.5457 0 20.5 0H3.46875C1.96875 0 0.499961 1.35938 0.5 3V21C0.5 26.5189 2.85306 31.4883 6.60945 34.9588C7.62655 32.0546 9.54182 29.6843 12.3311 27.9014C17.9187 24.3298 25.0371 24.9762 29.5147 28.5437C29.7218 28.7087 29.9379 28.8893 30.1631 29.0857L30.6257 29.4993C30.7839 29.6441 30.9462 29.796 31.1126 29.9548L31.624 30.4524L31.8891 30.7168L32.4372 31.2776L33.0103 31.8805L33.6081 32.5257L34.2308 33.2131L34.8597 33.9212C38.3509 30.3207 40.5 25.4113 40.5 20ZM11.5 15C11.5 10.0294 15.5294 6 20.5 6C25.4706 6 29.5 10.0294 29.5 15C29.5 19.9706 25.4706 24 20.5 24C15.5294 24 11.5 19.9706 11.5 15ZM20.5 9.46702C23.5558 9.46702 26.033 11.9442 26.033 15C26.033 18.0558 23.5558 20.533 20.5 20.533C17.4442 20.533 14.967 18.0558 14.967 15C14.967 11.9442 17.4442 9.46702 20.5 9.46702Z" fill="#A52D97"/>
</svg>
