<svg width="724" height="507" viewBox="0 0 724 507" fill="none" xmlns="http://www.w3.org/2000/svg">
<g id="404">
<g id="BG">
<g id="Group 27">
<g id="Group 3">
<path id="Fill 1" fill-rule="evenodd" clip-rule="evenodd" d="M91.7039 119.288C68.7526 149.989 69.513 195.437 91.2929 226.98C112.45 257.618 149.443 274.628 169.979 305.687C183.872 326.701 189.319 352.897 205.697 372.037C215.341 383.305 228.146 391.346 240.98 398.78C264.059 412.149 288.374 424.301 314.639 428.938C361.451 437.204 383.343 458.433 448.675 416.685C465.322 406.047 457.443 423.454 505.962 422.912C537.976 422.555 570.09 369.325 578.974 338.567C599.172 268.647 639.911 290.202 660.253 221.5C674.911 171.99 638.48 129.215 608.067 107.619C571.586 81.7115 526.195 72.5373 495.26 50.3492C482.943 41.5136 472.082 30.7403 459.509 22.2729C424.982 -0.978567 379.414 -4.6407 339.62 7.57437C305.12 18.165 274.916 39.7267 250.507 65.9669C245.31 71.5543 242.33 77.1367 234.801 78.4843C226.821 79.913 213.897 74.7192 205.43 74.2574C186.199 73.2093 166.763 75.6224 148.41 81.4788C126.414 88.4978 105.529 100.796 91.7039 119.288Z" fill="#E2F0FF"/>
</g>
<path id="Fill 7" fill-rule="evenodd" clip-rule="evenodd" d="M343.581 29.0425C342.526 29.0425 341.493 29.1245 340.482 29.2811C336.548 12.6799 321.639 0.323975 303.835 0.323975C285.542 0.323975 270.3 13.3642 266.884 30.6543C264.462 29.6184 261.796 29.0425 258.996 29.0425C250.369 29.0425 243.016 34.4863 240.177 42.1237C237.425 39.5638 233.738 37.9966 229.683 37.9966C223.501 37.9966 218.173 41.6382 215.717 46.8917C213.913 45.8087 211.803 45.1835 209.545 45.1835C203.209 45.1835 198.021 50.0984 197.58 56.324H362.314C363.175 54.0858 363.652 51.656 363.652 49.1142C363.652 38.0291 354.666 29.0425 343.581 29.0425Z" fill="#FFFFFE"/>
<path id="Fill 4" fill-rule="evenodd" clip-rule="evenodd" d="M229.928 155.63C228.272 155.63 226.646 155.76 225.059 156.006C218.877 129.918 195.449 110.502 167.472 110.502C138.726 110.502 114.775 130.992 109.407 158.163C105.601 156.534 101.411 155.63 97.01 155.63C83.455 155.63 71.8986 164.184 67.4385 176.187C63.1143 172.164 57.3222 169.7 50.9491 169.7C41.2353 169.7 32.8598 175.422 29.0022 183.679C26.1685 181.976 22.8505 180.996 19.3048 180.996C9.34579 180.996 1.19543 188.719 0.499878 198.502H259.364C260.719 194.984 261.469 191.167 261.469 187.171C261.469 169.752 247.349 155.63 229.928 155.63Z" fill="#FFFFFE"/>
<path id="Fill 9" fill-rule="evenodd" clip-rule="evenodd" d="M643.29 112.503C641.841 112.503 640.418 112.616 639.03 112.831C633.62 90.0044 613.119 73.0149 588.64 73.0149C563.487 73.0149 542.529 90.9452 537.832 114.719C534.501 113.295 530.835 112.503 526.984 112.503C515.123 112.503 505.012 119.988 501.11 130.49C497.327 126.97 492.257 124.815 486.681 124.815C478.181 124.815 470.855 129.822 467.476 137.045C464.996 135.556 462.094 134.698 458.992 134.698C450.277 134.698 443.145 141.455 442.537 150.015H669.047C670.233 146.937 670.889 143.596 670.889 140.101C670.889 124.859 658.532 112.503 643.29 112.503Z" fill="#FFFFFE"/>
</g>
</g>
<g id="trees">
<g id="Group 3_2">
<path id="Fill 1_2" fill-rule="evenodd" clip-rule="evenodd" d="M666.089 227.426C668.839 224.603 671.762 223.024 673.829 218.048C676.306 212.091 674.316 209.06 676.562 203.154C678.664 197.62 683.786 191.4 688.854 192.121C693.704 192.811 696.638 199.593 698.416 203.706C702.247 212.567 699.987 216.351 703.424 223.013C707.028 229.995 711.185 229.083 715.717 234.596C722.546 242.905 722.059 255.874 721.638 267.142C720.657 293.243 711.079 298.612 714.808 315.687C716.581 323.809 718.291 323.503 720.727 335.544C722.381 343.726 724.477 354.106 722.547 365.332C720.034 379.956 713.541 379.395 707.067 398.982C703.002 411.276 705.112 412.856 700.694 423.805C696.996 432.964 691.803 445.831 682.935 446.974C673.32 448.212 665.568 434.868 664.269 432.631C658.211 422.207 658.311 410.618 658.348 406.153C658.453 393.97 662.015 391.644 661.082 381.88C660.204 372.722 656.737 371.323 652.885 360.92C648.176 348.199 644.287 325.785 651.975 309.619C656.032 301.085 660.561 300.084 661.536 291.965C662.551 283.511 657.959 281.458 656.072 270.453C653.712 256.686 656.703 237.06 666.089 227.426Z" fill="#DCEAFF"/>
</g>
<path id="Fill 4_2" fill-rule="evenodd" clip-rule="evenodd" d="M680.366 484.007C678.305 463.386 677.997 442.927 679.454 423.199C680.444 409.769 681.91 401.061 683.201 393.377C684.871 383.447 686.313 374.87 686.282 359.265C686.256 347.778 685.445 341.106 684.728 335.22C683.848 327.981 683.089 321.731 684.006 309.011C684.543 301.574 685.354 296.072 686.21 290.247C687.229 283.316 688.284 276.15 689.014 264.888C689.729 253.895 689.881 242.785 689.468 231.866C689.453 231.453 689.776 231.102 690.192 231.087C690.637 231.111 690.957 231.397 690.972 231.811C691.386 242.779 691.231 253.941 690.516 264.985C689.781 276.306 688.722 283.506 687.697 290.467C686.847 296.262 686.039 301.736 685.507 309.12C684.599 321.692 685.352 327.878 686.223 335.038C686.944 340.968 687.761 347.686 687.786 359.262C687.82 374.995 686.366 383.628 684.684 393.626C683.397 401.279 681.941 409.947 680.956 423.309C679.504 442.949 679.81 463.322 681.863 483.857C681.905 484.271 681.603 484.64 681.114 484.685C680.732 484.685 680.406 484.396 680.366 484.007Z" fill="#A7BBDF"/>
<path id="Fill 6" fill-rule="evenodd" clip-rule="evenodd" d="M686.536 288.322L675.686 259.339C675.54 258.95 675.738 258.516 676.125 258.372C676.52 258.222 676.949 258.424 677.094 258.81L687.945 287.793C688.091 288.182 687.892 288.615 687.506 288.761C687.416 288.794 687.329 288.808 687.241 288.808C686.937 288.808 686.651 288.623 686.536 288.322Z" fill="#A7BBDF"/>
<path id="Fill 8" fill-rule="evenodd" clip-rule="evenodd" d="M685.055 334.114C684.715 333.877 684.632 333.408 684.871 333.067L702.41 308.082C702.65 307.745 703.122 307.662 703.458 307.9C703.799 308.137 703.881 308.607 703.641 308.946L686.102 333.931C685.955 334.141 685.723 334.251 685.487 334.251C685.337 334.251 685.185 334.208 685.055 334.114Z" fill="#A7BBDF"/>
<path id="Fill 10" fill-rule="evenodd" clip-rule="evenodd" d="M682.213 403.617C681.899 403.343 681.867 402.869 682.14 402.555L701.434 380.423C701.707 380.106 702.183 380.074 702.496 380.349C702.811 380.621 702.842 381.097 702.569 381.409L683.275 403.543C683.126 403.715 682.918 403.802 682.707 403.802C682.53 403.802 682.356 403.742 682.213 403.617Z" fill="#A7BBDF"/>
<path id="Fill 12" fill-rule="evenodd" clip-rule="evenodd" d="M685.951 372.59L669.579 341.968C669.384 341.602 669.523 341.145 669.89 340.95C670.249 340.756 670.709 340.891 670.908 341.26L687.278 371.882C687.474 372.248 687.335 372.703 686.968 372.899C686.858 372.96 686.735 372.988 686.615 372.988C686.348 372.988 686.088 372.843 685.951 372.59Z" fill="#A7BBDF"/>
<path id="Fill 14" fill-rule="evenodd" clip-rule="evenodd" d="M603.811 358.075C607.917 358.461 610.357 356.328 614.936 354.054C614.936 354.054 621.757 350.566 630.039 349.334C635.603 348.508 636.484 349.474 642.312 348.392C647.528 347.42 650.966 346.781 654.111 344.143C660.027 339.183 660.212 331.092 660.247 329.51C660.436 321.213 655.791 315.474 654.111 313.462C647.765 305.861 639.157 304.213 635.705 303.551C632.401 302.919 621.901 301.076 611.632 307.326C601.748 313.341 598.571 322.898 596.999 327.623C593.881 337.001 592.249 351.921 598.888 356.415C600.9 357.778 603.465 358.042 603.811 358.075Z" fill="#ECF3FF"/>
<g id="Group 18">
<path id="Fill 16" fill-rule="evenodd" clip-rule="evenodd" d="M591.808 382.375C593.25 380.989 598.357 376.764 606.439 372.935C613.879 369.41 621.908 365.605 632.4 366.326C644.895 367.186 653.363 373.947 657.416 377.182C663.102 381.723 673.004 389.631 673.936 402.198C674.04 403.612 674.934 415.659 667.8 420.607C660.348 425.774 653.317 416.831 637.592 416.831C616.4 416.831 607.847 433.86 593.695 427.687C572.374 418.389 576.42 397.158 591.808 382.375Z" fill="#ECF3FF"/>
</g>
<path id="Fill 19" fill-rule="evenodd" clip-rule="evenodd" d="M626.734 485.64C626.302 485.64 625.933 485.307 625.898 484.867C625.209 476.424 624.891 467.824 624.951 459.306C625.119 436.103 628.068 418.948 630.02 407.597C630.434 405.195 630.802 403.04 631.096 401.128C634.848 376.688 632.228 349.662 623.312 320.797C623.173 320.353 623.424 319.883 623.866 319.746C624.308 319.608 624.779 319.858 624.917 320.3C633.908 349.41 636.546 376.69 632.757 401.383C632.464 403.304 632.091 405.468 631.677 407.881C629.734 419.179 626.798 436.254 626.632 459.318C626.571 467.787 626.887 476.336 627.571 484.732C627.609 485.193 627.264 485.6 626.734 485.64Z" fill="#A7BBDF"/>
<path id="Fill 22" fill-rule="evenodd" clip-rule="evenodd" d="M628.961 340.304C628.645 339.967 628.663 339.435 629 339.118C629.808 338.363 630.519 337.52 631.114 336.61C633.396 333.121 633.595 329.344 633.358 326.786C633.317 326.324 633.656 325.915 634.119 325.872C634.571 325.826 634.99 326.168 635.033 326.631C635.292 329.454 635.07 333.637 632.519 337.531C631.852 338.553 631.054 339.498 630.15 340.346C629.987 340.496 629.78 340.571 629.575 340.571C629.351 340.571 629.127 340.481 628.961 340.304Z" fill="#A7BBDF"/>
<path id="Fill 24" fill-rule="evenodd" clip-rule="evenodd" d="M630.812 406.146C630.496 405.805 630.521 405.273 630.863 404.96C633.32 402.708 635.637 400.275 637.75 397.726C641.299 393.45 644.375 388.745 646.888 383.742C647.096 383.326 647.603 383.161 648.016 383.369C648.43 383.578 648.597 384.084 648.389 384.498C645.819 389.614 642.675 394.424 639.044 398.8C636.88 401.406 634.511 403.896 631.999 406.199C631.838 406.346 631.635 406.418 631.431 406.418C631.206 406.418 630.977 406.327 630.812 406.146Z" fill="#A7BBDF"/>
<path id="Fill 26" fill-rule="evenodd" clip-rule="evenodd" d="M641.004 393.843C640.469 391.198 640.215 388.487 640.254 385.789C640.279 383.83 640.46 381.855 640.789 379.917C640.869 379.46 641.315 379.167 641.759 379.231C642.217 379.309 642.524 379.744 642.447 380.201C642.132 382.052 641.959 383.939 641.933 385.813C641.899 388.391 642.139 390.981 642.652 393.51C642.744 393.965 642.45 394.409 641.993 394.5C641.937 394.512 641.881 394.517 641.827 394.517C641.435 394.517 641.084 394.242 641.004 393.843Z" fill="#A7BBDF"/>
<path id="Fill 28" fill-rule="evenodd" clip-rule="evenodd" d="M631.517 397.158C628.547 395.341 625.831 393.15 623.439 390.653C619.759 386.809 616.897 382.313 614.929 377.286C614.761 376.853 614.974 376.366 615.406 376.197C615.843 376.028 616.325 376.242 616.495 376.674C618.38 381.495 621.125 385.807 624.652 389.491C626.944 391.884 629.549 393.981 632.394 395.725C632.791 395.967 632.913 396.486 632.673 396.881C632.514 397.139 632.238 397.282 631.956 397.282C631.805 397.282 631.654 397.242 631.517 397.158Z" fill="#A7BBDF"/>
</g>
<g id="Leafs">
<g id="Group 6">
<g id="Group 3_3">
<mask id="mask0_8245_22323" style="mask-type:luminance" maskUnits="userSpaceOnUse" x="67" y="145" width="232" height="345">
<path id="Clip 2" fill-rule="evenodd" clip-rule="evenodd" d="M67.2275 188.06L206.153 145.586L298.28 446.921L159.355 489.395L67.2275 188.06Z" fill="white"/>
</mask>
<g mask="url(#mask0_8245_22323)">
<path id="Fill 1_3" fill-rule="evenodd" clip-rule="evenodd" d="M294.536 448.065C294.536 448.065 294.277 447.999 293.795 447.875C293.129 447.703 292.047 447.464 290.603 447.09C267.801 441.209 153.23 409.401 157.786 366.796C157.945 365.259 158.298 363.891 158.771 362.669C159.035 361.947 159.365 361.281 159.75 360.711C169.419 344.965 209.665 363.716 212.158 364.915C210.232 363.509 185.637 345.912 165.676 334.526C150.434 325.818 127.579 317.236 115.189 304.05C114.472 303.314 113.827 302.595 113.203 301.803C109.749 297.596 107.373 292.876 106.644 287.595C103.398 264.215 153.764 276.025 153.764 276.025C153.764 276.025 115.609 257.891 91.6728 235.136C91.0547 234.622 90.4566 234.034 89.8955 233.454C75.6488 219.356 67.2543 203.69 76.9015 189.558C77.296 188.948 77.7166 188.387 78.1832 187.796C78.4655 187.474 78.6988 187.179 78.9806 186.856C102.605 159.553 174.157 250.689 176.004 253.022C175.838 251.518 171.427 215.363 186.075 212.904C188.136 212.568 190.146 212.889 192.161 213.804C192.919 214.077 193.638 214.5 194.349 214.96C206.077 222.446 216.38 248.16 220.548 269.803C223.964 287.778 231.236 314.526 231.769 316.439C231.645 314.473 230.213 288.956 240.743 289.461C241.057 289.465 241.4 289.513 241.78 289.571C242.197 289.639 242.594 289.781 243.02 289.97C254.61 294.776 263.766 334.878 272.416 366.089C281.381 398.365 294.536 448.065 294.536 448.065Z" fill="#CFDFF8"/>
</g>
</g>
<path id="Fill 4_3" fill-rule="evenodd" clip-rule="evenodd" d="M293.795 447.876C293.129 447.704 292.046 447.463 290.603 447.091C285.079 439.271 276.2 426.558 265.616 411.115L158.808 362.677L158.771 362.67C159.035 361.947 159.365 361.282 159.75 360.711L263.268 407.668C247.513 384.574 228.386 356.033 210.976 328.486C210.789 328.596 210.538 328.65 210.279 328.582L115.189 304.051C114.472 303.315 113.827 302.594 113.202 301.802C113.428 301.545 113.762 301.473 114.132 301.568L209.519 326.174C207.98 323.726 206.477 321.286 204.965 318.881L107.47 287.452C106.924 287.271 106.603 286.678 106.793 286.094C106.973 285.548 107.662 285.332 108.153 285.419L203.217 316.022C202.768 315.315 202.282 314.596 201.842 313.851C183.338 283.812 152.86 253.21 125.614 229.206L91.6727 235.136C91.056 234.622 90.456 234.033 89.8954 233.455C90.092 233.308 90.2778 233.197 90.4924 233.135L123.523 227.364C104.3 210.521 86.9323 197.041 76.9009 189.557C77.2959 188.949 77.716 188.386 78.1845 187.796C88.5115 195.513 106.606 209.538 126.547 227.119C126.611 227.173 126.677 227.229 126.742 227.285C154.17 251.496 184.982 282.342 203.715 312.715C205.793 316.135 207.946 319.571 210.126 323.055L192.082 214.414C192.019 214.203 192.075 213.979 192.161 213.804C192.918 214.076 193.638 214.5 194.348 214.959L212.945 326.823C212.971 327.025 212.895 327.167 212.811 327.339C230.139 354.747 249.212 383.196 264.938 406.243L240.741 289.778C240.732 289.656 240.714 289.573 240.743 289.46C241.057 289.465 241.4 289.514 241.779 289.571C242.197 289.64 242.595 289.781 243.019 289.971L267.968 410.262C268.014 410.392 267.948 410.492 267.919 410.604C279.246 427.147 288.566 440.446 293.795 447.876Z" fill="white"/>
</g>
<g id="Group 15">
<path id="Fill 1_4" fill-rule="evenodd" clip-rule="evenodd" d="M443.902 475.781C443.902 475.781 495.924 465.096 534.102 434.895C572.281 404.695 584.668 356.098 584.668 356.098C584.668 356.098 540.306 361.029 501.75 389.648C461.154 419.782 443.902 475.781 443.902 475.781Z" fill="#BFD2EF"/>
<path id="Fill 4_4" fill-rule="evenodd" clip-rule="evenodd" d="M577.942 258.42C577.942 258.42 568.711 320.583 539.28 365.741C502.466 422.224 433.558 455.168 433.558 455.168L451.911 385.835C451.911 385.835 463.591 345.044 489.722 317.282C495.614 311.032 501.72 305.318 507.792 300.206L519.897 317.282L518.442 291.651C549.613 268.077 577.942 258.42 577.942 258.42Z" fill="#D8E4F9"/>
<g id="Group 8">
<mask id="mask1_8245_22323" style="mask-type:luminance" maskUnits="userSpaceOnUse" x="432" y="257" width="147" height="199">
<path id="Clip 7" fill-rule="evenodd" clip-rule="evenodd" d="M432.937 257.804H578.56V455.789H432.937V257.804Z" fill="white"/>
</mask>
<g mask="url(#mask1_8245_22323)">
<path id="Fill 6_2" fill-rule="evenodd" clip-rule="evenodd" d="M433.557 455.788C433.428 455.788 433.302 455.751 433.189 455.671C432.914 455.469 432.855 455.082 433.057 454.803L577.442 258.056C577.649 257.777 578.035 257.723 578.308 257.923C578.583 258.123 578.642 258.511 578.439 258.789L434.055 455.538C433.934 455.703 433.746 455.788 433.557 455.788Z" fill="white"/>
</g>
</g>
<path id="Fill 9_2" fill-rule="evenodd" clip-rule="evenodd" d="M510.162 351.402C509.905 351.402 509.663 351.238 509.576 350.979L495.984 310.571C495.876 310.247 496.05 309.897 496.372 309.786C496.696 309.68 497.045 309.85 497.156 310.18L510.748 350.588C510.858 350.911 510.681 351.261 510.36 351.371C510.295 351.393 510.227 351.402 510.162 351.402Z" fill="white"/>
<path id="Fill 11" fill-rule="evenodd" clip-rule="evenodd" d="M534.291 318.521C533.977 318.521 533.709 318.286 533.674 317.967C533.638 317.63 533.885 317.324 534.224 317.289L563.387 314.193C563.768 314.129 564.035 314.403 564.069 314.745C564.107 315.08 563.86 315.388 563.519 315.42L534.357 318.517C534.332 318.521 534.313 318.521 534.291 318.521Z" fill="white"/>
<path id="Fill 13" fill-rule="evenodd" clip-rule="evenodd" d="M526.383 329.297C526.057 329.297 525.784 329.044 525.764 328.715C525.746 328.373 526.008 328.08 526.348 328.062L558.911 326.285C559.312 326.288 559.544 326.532 559.562 326.869C559.582 327.211 559.32 327.502 558.98 327.52L526.417 329.297H526.383Z" fill="white"/>
</g>
<g id="Group 23">
<path id="Fill 1_5" fill-rule="evenodd" clip-rule="evenodd" d="M323.51 477.392C323.731 476.477 328.78 448.065 316.579 378.152C304.39 308.32 277.168 253.296 276.894 252.749C276.529 252.012 275.623 251.689 274.874 252.029C274.129 252.372 273.822 253.241 274.191 253.979C274.462 254.523 301.498 309.182 313.605 378.569C325.704 447.885 320.797 475.734 320.574 476.641C320.385 477.427 320.887 478.231 321.696 478.436C322.28 478.585 322.864 478.386 323.216 477.968C323.353 477.807 323.455 477.612 323.51 477.392Z" fill="#BFD2EF"/>
<path id="Fill 8_2" fill-rule="evenodd" clip-rule="evenodd" d="M318.938 419.054C318.938 419.054 380.419 375.845 361.227 358.335C342.03 340.827 318.938 419.054 318.938 419.054Z" fill="#BFD2EF"/>
<path id="Fill 10_2" fill-rule="evenodd" clip-rule="evenodd" d="M317.013 416.069C317.013 416.069 277.564 346.474 267.479 367.694C257.397 388.914 317.013 416.069 317.013 416.069Z" fill="#BFD2EF"/>
<path id="Fill 12_2" fill-rule="evenodd" clip-rule="evenodd" d="M308.013 343.697C308.013 343.697 368.676 293.349 347.763 281.359C326.848 269.366 308.013 343.697 308.013 343.697Z" fill="#BFD2EF"/>
<path id="Fill 14_2" fill-rule="evenodd" clip-rule="evenodd" d="M307.05 344.441C307.05 344.441 271.265 292.961 262.186 309.615C253.111 326.266 307.05 344.441 307.05 344.441Z" fill="#BFD2EF"/>
<path id="Fill 16_2" fill-rule="evenodd" clip-rule="evenodd" d="M289.315 285.333C289.315 285.333 315.568 240.118 302.194 238.687C288.822 237.252 289.315 285.333 289.315 285.333Z" fill="#BFD2EF"/>
<path id="Fill 18" fill-rule="evenodd" clip-rule="evenodd" d="M288.766 286.745C288.766 286.745 258.326 246.008 252.978 257.626C247.631 269.245 288.766 286.745 288.766 286.745Z" fill="#BFD2EF"/>
<g id="Group 22">
<mask id="mask2_8245_22323" style="mask-type:luminance" maskUnits="userSpaceOnUse" x="226" y="187" width="74" height="73">
<path id="Clip 21" fill-rule="evenodd" clip-rule="evenodd" d="M247.609 187.048L299.297 208.988L277.92 259.348L226.232 237.408L247.609 187.048Z" fill="white"/>
</mask>
<g mask="url(#mask2_8245_22323)">
<path id="Fill 20" fill-rule="evenodd" clip-rule="evenodd" d="M277.92 259.348C277.92 259.348 263.715 176.422 247.194 190.55C230.671 204.679 277.92 259.348 277.92 259.348Z" fill="#BFD2EF"/>
</g>
</g>
</g>
</g>
<g id="Manlookatsky">
<path id="Fill 4_5" fill-rule="evenodd" clip-rule="evenodd" d="M329.881 381.143L330.251 389.938C330.251 389.938 331.587 392.06 334.872 389.363L336.643 380.013L329.881 381.143Z" fill="#F0AB85"/>
<path id="Fill 4_6" fill-rule="evenodd" clip-rule="evenodd" d="M404.352 384.707L403.983 393.502C403.983 393.502 402.646 395.624 399.362 392.926L397.59 383.577L404.352 384.707Z" fill="#F0AB85"/>
<path id="Fill 7_2" fill-rule="evenodd" clip-rule="evenodd" d="M346.56 217.514C341.216 220.468 338.009 224.486 336.74 226.223C326.54 240.169 332.799 255.316 332.285 279.34C331.572 312.672 318.81 316.972 320.28 348.562C320.971 363.399 324.387 375.363 327.122 383.074C331.242 382.526 335.36 381.98 339.481 381.433C341.381 360.968 346.432 329.303 362.012 294.726C378.298 258.586 396.739 240.014 389.386 226.005C385.356 218.328 374.358 213.506 363.093 213.505C357.356 213.505 351.552 214.755 346.56 217.514Z" fill="#1A386B"/>
<path id="Fill 10_3" fill-rule="evenodd" clip-rule="evenodd" d="M389.385 226.005C383.304 214.418 361.355 209.337 346.56 217.514C346.014 217.816 345.504 218.136 345.002 218.456C355.758 236.73 355.949 249.263 353.546 257.74C351.086 266.415 345.946 270.723 344.738 283.253C343.394 297.194 349.015 299.558 346.864 310.892C344.157 325.154 334.602 324.862 331.981 338.835C329.491 352.112 336.968 358.506 332.285 367.081C330.484 370.38 327.593 372.687 324.379 374.329C325.289 377.654 326.24 380.588 327.122 383.074C331.242 382.526 335.361 381.98 339.481 381.433C341.382 360.967 346.431 329.303 362.013 294.726C378.299 258.585 396.739 240.013 389.385 226.005Z" fill="#1B2441"/>
<path id="Fill 13_2" fill-rule="evenodd" clip-rule="evenodd" d="M399.311 392.27C399.311 392.27 397.043 397.461 397.131 398.345C397.131 398.354 397.132 398.363 397.133 398.372C397.3 400.146 398.698 401.49 400.354 401.397C405.166 401.126 414.364 400.438 419.16 398.949C425.842 396.874 402.898 391.498 402.898 391.498L399.311 392.27Z" fill="#1B2441"/>
<path id="Fill 13_3" fill-rule="evenodd" clip-rule="evenodd" d="M329.594 389.769C329.594 389.769 327.191 395.373 327.285 396.327C327.285 396.337 327.286 396.346 327.286 396.357C327.464 398.272 328.945 399.722 330.699 399.622C335.797 399.33 345.543 398.587 350.623 396.979C357.702 394.739 333.395 388.936 333.395 388.936L329.594 389.769Z" fill="#1B2441"/>
<path id="Fill 19_2" fill-rule="evenodd" clip-rule="evenodd" d="M402.446 216.208C395.499 222.195 387.755 221.372 380.903 220.549C375.02 219.842 369.796 219.136 366.302 222.739C356.397 232.958 368.909 269.055 375.346 287.623C375.941 289.339 377.535 293.805 378.497 300.044C379.839 308.761 379.047 315.104 378.714 320.005C378.714 320.005 377.858 332.605 380.903 350.477C382.38 359.141 385.904 372.262 395.459 387.318C399.207 386.665 402.952 386.012 406.697 385.359C406.834 369.124 407.267 342.678 408.823 309.926C411.37 256.372 415.899 207.505 410.342 206.412C410.283 206.4 410.225 206.395 410.168 206.395C408.48 206.394 407.894 211.513 402.446 216.208Z" fill="#102851"/>
<path id="Fill 22_2" fill-rule="evenodd" clip-rule="evenodd" d="M295.428 128.555C289.537 135.211 275.08 151.543 281.988 165.864C288.646 179.666 313.4 187.972 342.755 183.365C344.732 180.865 346.707 178.364 348.684 175.864C332.461 174.207 321.23 166.604 320.523 158.675C319.906 151.745 327.473 146.162 331.268 143.361C344.204 133.819 360.511 134.011 366.099 134.298C369.283 121.455 372.466 108.613 375.65 95.7688C362.911 96.5296 320.333 100.418 295.428 128.555Z" fill="#5A96FB"/>
<path id="Fill 25" fill-rule="evenodd" clip-rule="evenodd" d="M468.717 11.4122C463.746 14.607 463.415 22.9504 467.978 30.0483C472.539 37.1461 480.267 40.3098 485.236 37.1159C490.207 33.9202 490.538 25.5768 485.976 18.4798C482.621 13.2591 477.554 10.1667 473.13 10.1667C471.539 10.1676 470.031 10.5677 468.717 11.4122Z" fill="#667ABC"/>
<path id="Fill 28_2" fill-rule="evenodd" clip-rule="evenodd" d="M467.182 17.1853L417.658 67.9235L420.746 70.525L482.981 35.343C483.926 34.8093 484.495 33.7848 484.458 32.6996C484.015 19.6434 473.608 16.9074 469.655 16.339C469.519 16.3185 469.383 16.3096 469.247 16.3096C468.475 16.3096 467.73 16.6232 467.182 17.1853Z" fill="#1B2441"/>
<path id="Fill 31" fill-rule="evenodd" clip-rule="evenodd" d="M417.644 66.5845C416.674 67.2082 416.609 68.8376 417.5 70.2248C418.391 71.6101 419.901 72.2284 420.872 71.6048C421.843 70.9803 421.907 69.3508 421.016 67.9645C420.36 66.9453 419.371 66.3413 418.507 66.3413C418.196 66.3413 417.901 66.4197 417.644 66.5845Z" fill="#667ABC"/>
<path id="Fill 34" fill-rule="evenodd" clip-rule="evenodd" d="M457.68 43.4172C459.248 49.9449 454.843 51.2501 454.843 51.2501L463.691 57.9265L467.438 56.1946L462.039 52.3049C462.039 52.3049 460.666 48.6869 460.525 43.4172C460.451 40.642 459.232 38.9805 458.323 38.9805C457.504 38.9805 456.937 40.3257 457.68 43.4172Z" fill="#F0AB85"/>
<path id="Fill 37" fill-rule="evenodd" clip-rule="evenodd" d="M399.967 83.3889C399.817 83.7239 399.667 84.0624 399.519 84.4027C399.245 85.0353 399.054 85.503 399.039 85.5378C398.736 86.2728 396.969 88.9963 395.044 90.6364C390.605 94.4219 380.38 96.6706 380.465 98.333C380.544 99.876 389.513 100.937 398.384 100.745C404.652 100.608 415.306 99.7504 415.494 97.5223C415.683 95.2977 405.007 94.2829 406.263 86.8492C406.387 86.1133 411.138 85.8665 412.581 83.29C414.539 79.7923 413.538 75.8741 413.312 75.0268C412.372 71.4828 412.039 70.9491 411.359 70.2097L410.401 69.243C410.401 69.243 410.342 69.2012 410.28 69.1593C409.618 68.7281 407.171 68.0581 406.647 68.043C406.641 68.043 406.635 68.043 406.629 68.043C404.947 68.0421 401.696 74.1199 399.967 83.3889Z" fill="#F0AB85"/>
<path id="Fill 40" fill-rule="evenodd" clip-rule="evenodd" d="M414.337 67.4317C413.641 70.2755 411.565 72.9909 410.764 73.3143C410.661 73.3562 410.069 73.6288 409.461 74.191C409.378 74.2676 409.298 74.3621 409.217 74.4886C408.161 76.1314 410.502 78.9315 409.758 79.6015C409.218 80.087 407.468 78.8398 407.117 79.287C406.784 79.7084 408.158 81.0777 407.775 81.5855C407.485 81.9677 406.589 81.337 405.805 81.8421C405.415 82.0934 405.443 82.374 404.872 83.2934C404.549 83.8128 404.139 84.3679 403.853 84.6619C402.466 86.0953 399.533 86.033 399.158 85.2347C399.054 85.012 399.22 84.8873 399.219 84.2253C399.219 84.2253 399.218 83.6106 398.976 82.8435C398.632 81.7468 397.406 80.7258 396.246 79.3761C394.1 76.8762 393.778 75.1104 393.697 74.5197C393.667 74.3095 393.655 74.1536 393.647 74.0404C393.478 71.7793 394.219 68.6977 395.619 67.0308C397.967 64.2378 401.166 66.6058 404.843 64.1656C409.085 61.3494 408.279 55.9051 410.238 55.7982C412.397 55.6815 415.626 62.1735 414.337 67.4317Z" fill="#26264F"/>
<path id="Fill 42" fill-rule="evenodd" clip-rule="evenodd" d="M406.681 79.401C406.374 80.6385 407.264 82.2181 408.489 82.2555C409.713 82.292 409.523 80.2019 408.897 78.6847C408.725 78.2696 408.42 78.0896 408.089 78.0896C407.521 78.0896 406.875 78.6188 406.681 79.401Z" fill="#F0AB85"/>
<path id="Fill 45" fill-rule="evenodd" clip-rule="evenodd" d="M461.769 58.5556C472.005 66.1613 477.038 75.9836 474.428 82.6939C472.053 88.8011 463.925 90.843 456.818 92.6257C446.743 95.155 440.903 93.9149 425.022 93.2227C417.709 92.9037 405.499 92.4012 392.365 93.3269C374.866 94.559 366.126 95.3083 360.633 99.2969C349.466 107.404 354.568 118.491 343.522 154.171C337.077 174.991 333.854 185.403 326.818 194.262C318.981 204.127 310.931 208.932 309.607 219.978C309.431 221.446 308.412 231.771 314.872 239.01C322.506 247.566 335.401 246.71 347.674 245.894C360.96 245.011 360.84 242.37 375.818 240.224C385.41 238.852 392.5 238.933 398.072 239.014C406.133 239.132 411.018 239.25 415.709 234.961C417.364 233.447 418.9 231.469 423.184 216.72C427.668 201.28 429.552 191.169 432.259 179.131C437.067 157.764 439.572 146.976 444.612 141.824C451.269 135.018 454.654 137.749 470.529 128.748C484.701 120.713 494.112 115.378 498.32 104.562C499.752 100.884 500.408 97.0099 500.422 93.1291V92.893C500.394 84.1274 497.103 75.3377 492.074 68.6567C483.671 57.4919 471.703 54.3621 467.948 53.5371C465.888 55.2093 463.829 56.8834 461.769 58.5556Z" fill="#5A96FB"/>
<path id="Fill 48" fill-rule="evenodd" clip-rule="evenodd" d="M499.824 86.4998C498.539 91.3214 496.418 96.1314 493.057 100.511C482.146 114.728 462.441 118.956 452.155 121.165C433.484 125.171 422.129 122.038 418.543 128.86C415.167 135.283 423.997 140.416 422.997 151.942C421.793 165.837 408.28 166.289 399.915 183.935C391.326 202.052 398.852 215.744 390.196 220.786C384.341 224.196 380.204 218.337 367.112 217.142C343.263 214.964 331.062 232.04 319.731 226.051C316.873 224.542 313.498 221.254 311.498 213.26C310.576 215.266 309.91 217.454 309.607 219.978C309.431 221.446 308.412 231.77 314.872 239.01C322.506 247.565 335.402 246.709 347.674 245.894C360.96 245.012 360.84 242.37 375.819 240.224C399.288 236.865 407.777 242.213 415.708 234.96C417.364 233.446 418.899 231.47 423.184 216.72C427.668 201.28 429.552 191.17 432.259 179.131C437.067 157.764 439.573 146.976 444.612 141.823C451.269 135.019 454.653 137.748 470.53 128.748C484.701 120.712 494.113 115.378 498.321 104.562C500.572 98.7792 500.89 92.5205 499.824 86.4998Z" fill="#386FCC"/>
</g>
<g id="stage">
<g id="Group 3_4">
<mask id="mask3_8245_22323" style="mask-type:luminance" maskUnits="userSpaceOnUse" x="244" y="397" width="121" height="88">
<path id="Clip 2_2" fill-rule="evenodd" clip-rule="evenodd" d="M364.117 397.357L244.139 398.407V481.909L364.117 484.542V397.357Z" fill="white"/>
</mask>
<g mask="url(#mask3_8245_22323)">
<path id="Fill 1_6" fill-rule="evenodd" clip-rule="evenodd" d="M364.117 397.357L244.139 398.407V477.663L364.117 484.542V397.357Z" fill="#5F669D"/>
</g>
</g>
<g id="Group 6_2">
<mask id="mask4_8245_22323" style="mask-type:luminance" maskUnits="userSpaceOnUse" x="364" y="397" width="130" height="88">
<path id="Clip 5" fill-rule="evenodd" clip-rule="evenodd" d="M364.117 397.357V484.542L493.215 480.848V398.997L364.117 397.357Z" fill="white"/>
</mask>
<g mask="url(#mask4_8245_22323)">
<path id="Fill 4_7" fill-rule="evenodd" clip-rule="evenodd" d="M363.117 397.357V484.542L492.215 477.293V398.997L363.117 397.357Z" fill="#6F77AE"/>
</g>
</g>
<path id="404_2" fill-rule="evenodd" clip-rule="evenodd" d="M340.606 469.433L340.915 451.767L345.945 451.983L346.048 446.118L341.016 445.968L341.619 411.442L337.305 411.649L319.404 445.322L319.308 450.838L336.608 451.582L336.303 469.077L340.606 469.433ZM301.641 467.728C305.561 468.068 308.774 465.788 311.282 460.842C313.79 455.836 315.123 448.864 315.278 439.97C315.433 431.077 314.345 424.067 312.012 418.986C309.679 413.965 306.547 411.579 302.618 411.782C298.688 411.986 295.469 414.613 292.961 419.619C290.453 424.564 289.127 431.18 288.982 439.512C288.836 447.844 289.93 454.507 292.264 459.546C294.596 464.645 297.721 467.387 301.641 467.728ZM279.58 449.045L279.315 464.187L275.012 463.83L275.273 448.86L257.973 448.116L258.055 443.428L275.87 414.688L280.183 414.481L279.666 444.074L284.698 444.224L284.61 449.261L279.58 449.045ZM262.826 443.571L275.359 443.945L275.734 422.464L262.826 443.571ZM295.266 455.157C296.548 459.771 298.704 462.201 301.734 462.424C304.776 462.648 307.019 460.483 308.461 455.903C309.904 451.293 310.678 445.948 310.784 439.892C310.889 433.854 310.302 428.49 309.021 423.824C307.739 419.188 305.574 416.94 302.526 417.059C299.489 417.176 297.25 419.534 295.808 424.11C294.366 428.654 293.595 433.806 293.494 439.591C293.393 445.393 293.984 450.574 295.266 455.157ZM324.176 445.465L336.709 445.839L337.147 420.737L324.176 445.465Z" fill="#D8E4F9" fill-opacity="0.4"/>
</g>
</g>
</svg>
