<svg xmlns="http://www.w3.org/2000/svg" xmlns:xlink="http://www.w3.org/1999/xlink" width="640" height="231" viewBox="0 0 640 231">
    <defs>
        <path id="a" d="M209.904 282.908c0 .66-.21 1.83-.63 3.511-.42 1.682-.93 3.8-1.532 6.356l8.266 8.557c2.74 7.36 4.024 11.078 3.848 11.155-.264.116-4.553 3.082-15.286 6.912-1.8.642-7.581 1.252-17.343 1.829l-4.128-.473c-7.362 8.558-17.205 14.358-29.528 17.4-1.607.396-3.968 3.678-7.082 9.845-29.644-5.885-52.447-10.082-68.41-12.59-8.492-1.334-34.185-1.6-77.079-.798v-109.67V.02c0 1.442 319.157 1.442 957.472 0v286.4H832.37c-134.806 0-118.864-5.557-255.506-5.557-91.094 0-168.026 1.852-230.794 5.556l-136.166-3.51z"/>
        <path id="c" d="M0 0h958v365H0z"/>
    </defs>
    <g fill="none" fill-rule="evenodd" transform="translate(-77 -117)">
        <mask id="b" fill="#fff">
            <use xlink:href="#a"/>
        </mask>
        <g mask="url(#b)">
            <mask id="d" fill="#fff">
                <use xlink:href="#c"/>
            </mask>
            <use fill="#FFF" xlink:href="#c"/>
            <g mask="url(#d)">
                <path stroke="#B5AA85" stroke-width="1.36" d="M139.13 247.898s30.168-1.73 43.793 3.35c13.624 5.08 22.707 10.27 27.573 11.242 4.866.973 2.92 2.919 0 3.567-2.92.649-2.27 3.567-12.651 4.864-10.38 1.297-16.534 1.161-14.598 2.919 4.279 3.883 4.74 7.215-2.794 9.775-6.45 2.19-19.646 2.234-22.24 5.152-2.595 2.918 0 3.891-13.3 5.189"/>
                <path stroke="#B5AA85" stroke-width="1.36" d="M219.413 312.557s-1.342-7.134-4.26-11.674c-2.92-4.54-8.76-6.161-7.462-10.052 1.298-3.892 1.946-9.404 1.622-12.972-.324-3.566 3.894-12.909 4.147-13.099M182.75 320.502s3.589-26.074 3.343-40.658"/>
                <path d="M114.357 244.29s-38.274-2.306-71.87-2.306"/>
                <path fill="#F98A8A" d="M129.674 247.615V241.77a2.944 2.944 0 0 0-2.937-2.934 2.944 2.944 0 0 0-2.936 2.934V247.615h5.873zm27.358.236l2.562 29.81-45.442-28.512-.132-.012 2.419-26.101 40.593 24.815zM153.352 205.013l1.954 22.738-37.197-22.738z"/>
                <path fill="#FFF" d="M153.352 198.868v.389h-11.749v-5.538h11.75zM141.604 193.719h11.748v-2.98h-11.748zM153.352 185.566v5.173H118.11v-5.173z"/>
                <path fill="#FFF" d="M141.604 198.822v.435h-11.747V193.719h11.747zM129.857 193.719h11.747v-2.98h-11.747z"/>
                <path fill="#FFF" d="M129.857 198.822v.435H118.11V193.718h11.748z"/>
                <path fill="#FFF" d="M118.109 193.719h11.748v-2.98H118.11z"/>
                <path stroke="#264762" stroke-width="2.04" d="M118.109 205.013l-1.67 18.022-2.42 26.101-2.508 27.081s5.914 5.96 24.057 5.96c18.142 0 24.025-4.516 24.025-4.516l-45.441-28.512M153.352 205.013l1.954 22.738 1.726 20.1 2.562 29.81"/>
                <path stroke="#264762" stroke-width="1.36" d="M113.542 190.739h44.052M113.542 193.719h44.052"/>
                <path stroke="#264762" stroke-width="2.04" d="M118.109 198.868V185.566M135.568 163.752V160.472"/>
                <path stroke="#264762" stroke-width="1.36" d="M129.857 198.822v-8.083M141.604 198.822v-8.083"/>
                <path stroke="#264762" stroke-width="2.04" d="M153.352 198.868V185.566M118.109 182.203c0-.059 0-.115.002-.17.1-12.761 11.56-18.523 17.457-18.627.055-.003.109-.003.162-.003 2.938 0 7.342 1.451 11.014 4.525 3.637 3.048 6.557 7.692 6.606 14.105.002.055.002.111.002.17M153.352 199.257h2.371c.67 0 1.217.549 1.217 1.22v3.317c0 .671-.546 1.22-1.217 1.22H115.575a1.22 1.22 0 0 1-1.218-1.22v-3.317c0-.671.547-1.22 1.218-1.22h37.778z"/>
                <path stroke="#264762" stroke-width="2.04" d="M153.35 182.033h2.373c.67 0 1.217.548 1.217 1.219v1.097c0 .671-.546 1.217-1.217 1.217H115.575c-.671 0-1.217-.546-1.217-1.217v-1.097c0-.67.546-1.22 1.217-1.22h37.775z"/>
                <path stroke="#264762" stroke-width="1.36" d="M118.109 205.013l37.197 22.738.041.025M116.058 222.802l.38.234 40.594 24.815.658.401M129.674 241.771a2.945 2.945 0 0 0-2.937-2.934 2.945 2.945 0 0 0-2.936 2.934V247.615h5.873V241.77z"/>
                <path stroke="#F7E21C" stroke-width="1.36" d="M159.51 192.258l43.013-2.693M207.752 189.238l12.634-.79M159.15 186.497l131.834-51.93M159.914 198.696l137.285 35.088"/>
                <path stroke="#B5AA85" stroke-width="1.36" d="M145.562 293.873c-15.028 1.43-25.746 1.407-32.154-.069M113.216 246.102S48.403 241.245 0 241.245"/>
                <g stroke="#B5AA85" stroke-width="1.36">
                    <path d="M145.047 347.947s8.143-32.463 9.161-44.355l1.018-11.892M122.145 342.958s3.054-16.262 6.616-21.234c3.563-4.972 4.519-13.205 4.519-13.205M152.714 338.078c-.51-2.548 5.09-13.938 6.107-21.24 1.018-7.3 3.563-9.848 4.072-12.397M160.824 319.947s3.563-6.162 4.072-8.88M201.77 284.663s3.227 6.344 5.23 8.251"/>
                </g>
            </g>
        </g>
    </g>
</svg>
