<svg xmlns="http://www.w3.org/2000/svg" xmlns:xlink="http://www.w3.org/1999/xlink" width="1279" height="357" viewBox="0 0 1279 357">
    <defs>
        <path id="a" d="M280.12 377.211c0 .88-.28 2.44-.842 4.682a644.371 644.371 0 0 0-2.046 8.473l11.043 11.41c3.663 9.813 5.377 14.77 5.142 14.873-.352.155-6.083 4.11-20.423 9.216-2.406.856-10.13 1.67-23.173 2.439l-5.515-.631c-9.837 11.411-22.988 19.145-39.454 23.2-2.146.529-5.3 4.904-9.462 13.127-39.608-7.847-70.075-13.443-91.403-16.786C92.64 445.435 58.311 445.08 1 446.15V299.922.027c0 1.923 426.432 1.923 1279.295 0v381.866h-168.488c-180.116 0-158.816-7.41-341.385-7.41-121.713 0-224.502 2.47-308.369 7.41L280.12 377.21z"/>
        <path id="c" d="M0 0h1280v487H0z"/>
    </defs>
    <g fill="none" fill-rule="evenodd" transform="translate(-1 -107)">
        <mask id="b" fill="#fff">
            <use xlink:href="#a"/>
        </mask>
        <g mask="url(#b)">
            <mask id="d" fill="#fff">
                <use xlink:href="#c"/>
            </mask>
            <use fill="#FFF" xlink:href="#c"/>
            <g mask="url(#d)">
                <path stroke="#B5AA85" stroke-width="1.36" d="M185.894 330.757s40.308-2.308 58.512 4.47c18.204 6.779 30.34 13.701 36.841 15 6.502 1.297 3.901 3.894 0 4.759-3.9.865-3.034 4.759-16.903 6.49-13.87 1.73-22.092 1.549-19.504 3.894 5.716 5.18 6.332 9.627-3.734 13.042-8.618 2.922-26.248 2.98-29.716 6.874-3.467 3.894 0 5.192-17.77 6.923"/>
                <path stroke="#B5AA85" stroke-width="1.36" d="M293.162 417.028s-1.793-9.518-5.693-15.576c-3.901-6.057-11.703-8.22-9.97-13.412 1.734-5.192 2.601-12.547 2.168-17.307-.434-4.759 5.202-17.224 5.54-17.477M244.175 427.629s4.796-34.789 4.467-54.248"/>
                <path d="M152.794 325.943s-51.138-3.077-96.026-3.077"/>
                <path fill="#F98A8A" d="M173.26 330.379v-7.796c0-2.153-1.765-3.915-3.925-3.915-2.157 0-3.922 1.762-3.922 3.915v7.796h7.847zm36.553.315l3.423 39.774-60.716-38.042-.176-.016 3.232-34.826 54.237 33.11zM204.896 273.539l2.611 30.337-49.7-30.337z"/>
                <path fill="#FFF" d="M204.896 265.34v.518H189.2v-7.39h15.697z"/>
                <path fill="#FFF" d="M189.199 258.469h15.697v-3.976H189.2zM204.896 247.591v6.901h-47.089v-6.9zM189.199 265.278v.58h-15.694v-7.39h15.694z"/>
                <path fill="#FFF" d="M173.505 258.469h15.694v-3.976h-15.694zM173.505 265.278v.58h-15.698v-7.389h15.698zM157.807 258.469h15.698v-3.976h-15.698z"/>
                <path stroke="#264762" stroke-width="2.04" d="M157.807 273.539l-2.231 24.045-3.233 34.825-3.351 36.133s7.901 7.952 32.142 7.952c24.241 0 32.101-6.026 32.101-6.026l-60.715-38.042M204.896 273.539l2.611 30.337 2.306 26.818 3.423 39.774"/>
                <path stroke="#264762" stroke-width="1.36" d="M151.705 254.493h58.859M151.705 258.469h58.859"/>
                <path stroke="#264762" stroke-width="2.04" d="M157.807 265.34V247.59M181.134 218.485v-4.376"/>
                <path stroke="#264762" stroke-width="1.36" d="M173.505 265.278v-10.785M189.199 265.278v-10.785"/>
                <path stroke="#264762" stroke-width="2.04" d="M204.896 265.34V247.59M157.807 243.104c0-.079 0-.153.003-.228.133-17.026 15.446-24.713 23.324-24.852.075-.004.146-.004.218-.004 3.925 0 9.81 1.936 14.716 6.037 4.859 4.068 8.76 10.264 8.825 18.82.004.074.004.148.004.227M204.896 265.858h3.169a1.63 1.63 0 0 1 1.626 1.627v4.427a1.63 1.63 0 0 1-1.626 1.626h-53.643a1.63 1.63 0 0 1-1.627-1.626v-4.427c0-.895.73-1.627 1.627-1.627H204.896z"/>
                <path stroke="#264762" stroke-width="2.04" d="M204.893 242.876h3.172a1.63 1.63 0 0 1 1.626 1.627v1.465c0 .894-.73 1.623-1.626 1.623H154.42a1.628 1.628 0 0 1-1.626-1.623v-1.465c0-.894.73-1.627 1.626-1.627h50.472z"/>
                <path stroke="#264762" stroke-width="1.36" d="M157.807 273.539l49.7 30.337.055.033M155.067 297.273l.509.312 54.237 33.11.88.534M173.26 322.583c0-2.152-1.765-3.916-3.925-3.916-2.157 0-3.922 1.764-3.922 3.916V330.379h7.847V322.583z"/>
                <path stroke="#047AD4" stroke-width="1.36" d="M101.64 179.427h7.316s.472-2.826 3.068-3.533c2.595-.707 4.247.824 4.247.824s.236-6.478 7.316-6.478c5.664 0 7.635 5.776 6.608 9.187h5.9M92.8 186.56h17.51" opacity=".5"/>
                <path stroke="#F7E21C" stroke-width="1.36" d="M213.125 256.52l57.47-3.593M277.582 252.49l16.879-1.054M212.643 248.833l176.146-69.288M213.664 265.11l183.428 46.815"/>
                <path stroke="#B5AA85" stroke-width="1.36" d="M194.488 392.102c-20.08 1.905-34.4 1.873-42.962-.097"/>
                <g>
                    <path stroke="#FBB116" stroke-width="2.04" d="M1130.233 185.624c0 15.632-12.674 28.304-28.31 28.304-15.633 0-28.308-12.672-28.308-28.304 0-15.632 12.675-28.304 28.309-28.304 15.635 0 28.309 12.672 28.309 28.304z"/>
                    <path stroke="#047AD4" stroke-linecap="round" stroke-width="2.04" d="M1160.764 185.2h-42.826M1141.919 189.28h-16.695" opacity=".5"/>
                    <path stroke="#047AD4" stroke-width="1.36" d="M944.84 161.535h12.121s.782-4.645 5.083-5.806c4.301-1.161 7.039 1.355 7.039 1.355s.39-10.644 12.12-10.644c9.385 0 12.65 9.49 10.95 15.095h9.774M938.04 168.2h29.723" opacity=".5"/>
                </g>
                <path stroke="#047AD4" stroke-width="1.36" d="M90 187h21.17M222 154l33.613.347" opacity=".5"/>
                <path stroke="#B5AA85" stroke-width="1.36" d="M151.27 328.36S64.671 321.88 0 321.88"/>
                <g stroke="#B5AA85" stroke-width="1.36">
                    <path d="M193.8 464.247s10.88-43.313 12.24-59.18l1.36-15.867M163.2 457.591s4.08-21.697 8.84-28.332c4.76-6.634 6.038-17.619 6.038-17.619M204.044 451.08c-.68-3.4 6.8-18.597 8.16-28.339 1.36-9.741 4.76-13.141 5.44-16.541M214.88 426.888s4.76-8.22 5.44-11.848M269.595 379.808s4.302 8.47 6.974 11.015"/>
                </g>
                <path stroke="#047AD4" stroke-width="1.36" d="M238 143.855h12.121s.782-4.645 5.083-5.806c4.301-1.161 7.039 1.355 7.039 1.355s.39-10.644 12.12-10.644c9.385 0 12.65 9.49 10.95 15.095h9.774M231.2 150.52h29.723M935 171h31.5" opacity=".5"/>
            </g>
        </g>
    </g>
</svg>
