<svg xmlns="http://www.w3.org/2000/svg" width="32" height="32" viewBox="0 0 32 32">
    <g fill="none" fill-rule="evenodd">
        <g fill="#1362CB" fill-rule="nonzero">
            <g>
                <path d="M27.197 17.393l.056.009c.407.08.672.473.593.88-.661 3.386-2.734 6.342-5.781 8.101-5.742 3.315-13.083 1.348-16.398-4.394-.44-.761-.791-1.56-1.053-2.386-.125-.394.094-.816.489-.941s.816.094.941.488c.229.722.537 1.422.922 2.09 2.901 5.023 9.325 6.745 14.349 3.844 2.199-1.27 3.817-3.249 4.641-5.566l-1.303.686c-.366.193-.82.053-1.013-.313-.177-.336-.074-.745.227-.96l.087-.054 2.698-1.423c.174-.092.368-.108.545-.06zM16.112 9.071c1.636 0 2.974 1.28 3.067 2.892l.005.18v1.789h.318c.918 0 1.671.708 1.744 1.607l.006.144v4.392c0 .966-.784 1.75-1.75 1.75h-6.878c-.966 0-1.75-.784-1.75-1.75v-4.392c0-.967.784-1.75 1.75-1.75l.416-.001v-1.789c0-1.696 1.376-3.072 3.072-3.072zm3.39 6.362h-6.878c-.138 0-.25.112-.25.25v4.392c0 .138.112.25.25.25h6.878c.138 0 .25-.112.25-.25v-4.392c0-.138-.112-.25-.25-.25zm6.956-5.447c.796 1.378 1.302 2.874 1.507 4.419.054.41-.234.787-.645.842-.41.054-.788-.234-.842-.645-.18-1.35-.622-2.66-1.319-3.866-2.9-5.024-9.324-6.745-14.348-3.845-2.79 1.61-4.629 4.36-5.12 7.437l1.471-1.17c.324-.258.796-.204 1.054.12.234.295.211.712-.039.979l-.081.075-2.82 2.243c-.324.257-.796.204-1.054-.12-.123-.156-.175-.346-.16-.53-.003-.028-.004-.057-.004-.087.056-4.202 2.295-8.105 6.003-10.246 5.741-3.315 13.083-1.347 16.397 4.394zm-10.346.585c-.82 0-1.493.628-1.565 1.43l-.007.142v1.789h3.144v-1.789c0-.868-.704-1.572-1.572-1.572z" transform="translate(-767 -719) translate(767 719)"/>
            </g>
        </g>
    </g>
</svg>
