<svg xmlns="http://www.w3.org/2000/svg" width="32" height="32" viewBox="0 0 32 32">
    <g fill="none" fill-rule="evenodd">
        <g fill="#1362CB" fill-rule="nonzero">
            <g>
                <path d="M22.5 16.25c4.004 0 7.25 3.246 7.25 7.25s-3.246 7.25-7.25 7.25-7.25-3.246-7.25-7.25 3.246-7.25 7.25-7.25zm0 1.5c-3.176 0-5.75 2.574-5.75 5.75s2.574 5.75 5.75 5.75 5.75-2.574 5.75-5.75-2.574-5.75-5.75-5.75zm-2.611 2.68c-.02-.566.57-.95 1.079-.7l5.239 2.559c.524.256.568.985.08 1.303l-5.033 3.268c-.489.317-1.137-.02-1.158-.603zM14.01 2.25c.578 0 1.077.39 1.215.93l.024.119.303 1.803.069.02c.118.034.235.071.352.11l.347.126c.36.137.71.298 1.05.479l.08.044 1.562-1.118c.2-.122.425-.188.658-.188.287 0 .562.097.784.274l.106.095 1.493 1.493c.384.386.47.967.234 1.447l-.066.118-.029.042-1.075 1.509.061.108c.066.124.13.25.19.377l.173.386c.085.204.163.411.234.622l.11.352 1.8.305c.515.079.688.402.734.825l.01.108c.007.132.003.275-.012.443l-.032.282-.063.481c0 .415-.336.75-.75.75s-.75-.335-.75-.75c0-.053.003-.108.01-.174l.075-.576-1.544-.26c-.373-.058-.683-.312-.813-.653l-.037-.117c-.094-.364-.213-.717-.356-1.058-.137-.326-.295-.641-.477-.946-.185-.315-.192-.707-.023-1.024l.071-.115 1.117-1.569-1.2-1.2-1.562 1.123c-.14.1-.304.162-.474.183l-.13.008c-.187 0-.372-.05-.535-.146-.37-.219-.759-.406-1.16-.56-.29-.11-.585-.204-.884-.28-.366-.09-.648-.37-.752-.725l-.028-.121-.316-1.882H12.11l-.326 1.915c-.063.364-.313.663-.658.8l-.118.04c-.342.088-.68.203-1.012.342-.333.14-.658.306-.98.498-.16.095-.346.144-.533.144-.175 0-.346-.043-.5-.125l-.113-.07-1.555-1.11-1.201 1.201 1.124 1.579c.215.299.258.685.117 1.019l-.062.122c-.18.307-.339.628-.475.962-.136.335-.25.682-.34 1.039-.09.365-.37.647-.726.751l-.121.028-1.881.315v1.695l1.914.326c.364.062.664.313.8.658l.04.118c.069.264.153.526.252.784.157.413.354.815.59 1.208.185.317.19.706.02 1.028l-.072.117-1.109 1.555 1.2 1.201 1.577-1.121.071-.047.01-.019.051-.016.098-.045c.04-.016.082-.03.124-.04l.11-.021.056-.016c.196-.058.25-.063.289-.037l.033.03.091.038.207.114c.311.179.632.336.96.47.327.134.66.245.993.331.363.092.644.37.747.723l.028.12.261 1.565.352-.038.359-.042.139-.011.059-.001c.414 0 .75.335.75.75 0 .38-.282.693-.648.743l-.145.01-.515.062-.127.013c-.263.026-.474.036-.657.026-.471-.027-.814-.144-.933-.608L10.7 24.7l-.303-1.817-.115-.033c-.133-.04-.266-.085-.397-.132l-.392-.15c-.26-.106-.515-.224-.765-.354l-.121-.065-1.577 1.12-.013.009c-.201.121-.425.187-.657.187-.287 0-.563-.097-.784-.275l-.107-.095-1.49-1.49c-.39-.39-.473-.974-.213-1.485l.073-.125 1.068-1.5-.051-.09c-.128-.236-.245-.475-.35-.719l-.151-.368-.113-.312-.113-.355-1.816-.31c-.573-.088-1.002-.551-1.057-1.118L1.25 15.1v-2.105c0-.575.385-1.07.922-1.213l.127-.027 1.804-.303.037-.133c.042-.139.087-.277.135-.413l.154-.405c.082-.2.17-.397.265-.59l.159-.306L3.77 8.083c-.323-.46-.297-1.08.047-1.51l.092-.103L5.4 4.98c.223-.223.525-.37.89-.37.214 0 .42.054.601.153l.13.083 1.488 1.061.027-.015c.191-.106.385-.204.582-.296l.297-.131c.299-.126.603-.235.905-.325l.034-.01.31-1.816c.088-.573.552-1.003 1.119-1.058l.123-.006h2.105zm7.422 19.376l.116 3.254 2.81-1.825-2.926-1.429zM13 9.25c2.623 0 4.75 2.127 4.75 4.75s-2.127 4.75-4.75 4.75S8.25 16.623 8.25 14 10.377 9.25 13 9.25zm0 1.5c-1.795 0-3.25 1.455-3.25 3.25s1.455 3.25 3.25 3.25 3.25-1.455 3.25-3.25-1.455-3.25-3.25-3.25z" transform="translate(-246 -719) translate(246 719)"/>
            </g>
        </g>
    </g>
</svg>
