<svg xmlns="http://www.w3.org/2000/svg" width="32" height="32" viewBox="0 0 32 32">
    <g fill="none" fill-rule="evenodd">
        <g>
            <g transform="translate(-245 -460) translate(245 460)">
                <rect width="1.5" height="8.29" x="20.947" y="10.3" fill="#1362CB" rx=".75" transform="rotate(90 21.697 14.445)"/>
                <rect width="1.5" height="8.29" x="20.947" y="14.001" fill="#1362CB" rx=".75" transform="rotate(90 21.697 18.146)"/>
                <rect width="1.5" height="5.627" x="22.279" y="19.034" fill="#1362CB" rx=".75" transform="rotate(90 23.029 21.848)"/>
                <g stroke="#1362CB" stroke-linecap="round" stroke-width="1.5">
                    <g>
                        <path d="M.453 0H24.67c1.196 0 2.165.9 2.165 2.012v14.491c0 1.111-.97 2.012-2.165 2.012H2.618c-1.196 0-2.165-.9-2.165-2.012V3.146" transform="translate(2.357 8.97)"/>
                    </g>
                </g>
                <rect width="1.509" height="4.457" x="15.247" y="4.514" fill="#1362CB" rx=".755" transform="rotate(-180 16.002 6.742)"/>
                <path stroke="#1362CB" stroke-linecap="round" stroke-width="1.5" d="M14.417 22.667c-1.036-1-2.445-1.614-3.998-1.614-1.513 0-2.89.584-3.917 1.538"/>
                <circle cx="10.411" cy="15.931" r="2.713" stroke="#1362CB" stroke-width="1.5"/>
            </g>
        </g>
    </g>
</svg>
