<svg xmlns="http://www.w3.org/2000/svg" width="32" height="32" viewBox="0 0 32 32">
    <g fill="none" fill-rule="evenodd">
        <g fill="#1362CB">
            <g>
                <g transform="translate(-594 -47) translate(594 47) translate(2.5 5)">
                    <path fill-rule="nonzero" d="M23.397.25H3C1.481.25.25 1.481.25 3v15.434c0 1.519 1.231 2.75 2.75 2.75h20.397c1.52 0 2.75-1.231 2.75-2.75V3c0-1.519-1.23-2.75-2.75-2.75zM3 1.75h20.397c.69 0 1.25.56 1.25 1.25v15.434c0 .69-.56 1.25-1.25 1.25H3c-.69 0-1.25-.56-1.25-1.25V3c0-.69.56-1.25 1.25-1.25z"/>
                    <path fill-rule="nonzero" d="M24.896 5.379L24.896 6.879 1.133 6.879 1.133 5.379z"/>
                    <circle cx="4.679" cy="3.626" r="1"/>
                    <circle cx="4.679" cy="9.172" r="1"/>
                    <circle cx="4.679" cy="16.646" r="1"/>
                    <circle cx="7.318" cy="3.626" r="1"/>
                    <rect width="1.5" height="4.354" x="7.928" y="7.062" rx=".75" transform="rotate(90 8.678 9.238)"/>
                    <rect width="1.5" height="4.354" x="7.928" y="14.536" rx=".75" transform="rotate(90 8.678 16.713)"/>
                    <rect width="1.5" height="5.526" x="8.514" y="8.62" rx=".75" transform="rotate(90 9.264 11.383)"/>
                    <rect width="1.5" height="8.098" x="11.977" y="9.478" rx=".75" transform="rotate(90 12.727 13.527)"/>
                </g>
            </g>
        </g>
    </g>
</svg>
