<svg xmlns="http://www.w3.org/2000/svg" width="32" height="32" viewBox="0 0 32 32">
    <g fill="none" fill-rule="evenodd">
        <g>
            <g>
                <g>
                    <g stroke-linejoin="round" transform="translate(-72 -47) translate(72 47) translate(3.542 3)">
                        <path stroke="#1362CB" stroke-width="1.5" d="M1.961 5.359l9.784-4.66C12.301.436 12.95.442 13.5.718l9.232 4.615c.65.326 1.073.978 1.104 1.704.138 3.245-.07 6.193-.622 8.845-.586 2.812-3.778 5.958-9.577 9.436h0c-.623.373-1.399.38-2.028.017-6.046-3.485-9.42-6.636-10.125-9.453C.819 13.226.6 10.274.826 7.026c.05-.72.484-1.357 1.135-1.667z"/>
                    </g>
                    <g stroke="#1362CB" stroke-width="1.5">
                        <path stroke-linecap="round" d="M2.347 3.673V4.69 2.515C2.347 1.126 3.473 0 4.862 0c1.39 0 2.516 1.126 2.516 2.515v2.293" transform="translate(-72 -47) translate(72 47) translate(3.542 3) translate(7.583 6.16)"/>
                        <path d="M1 5.267h7.618c.552 0 1 .447 1 1v4.924c0 .553-.448 1-1 1H1c-.552 0-1-.447-1-1V6.267c0-.553.448-1 1-1z" transform="translate(-72 -47) translate(72 47) translate(3.542 3) translate(7.583 6.16)"/>
                    </g>
                </g>
            </g>
        </g>
    </g>
</svg>
