<svg xmlns="http://www.w3.org/2000/svg" width="32" height="32" viewBox="0 0 32 32">
    <g fill="none" fill-rule="evenodd">
        <g fill="#1362CB">
            <g transform="translate(-942 -47) translate(942 47)">
                <path fill-rule="nonzero" d="M24.756 5.25c1.462 0 2.658 1.142 2.745 2.582l.005.168v7.118h-.167l.814.815c.295.296.365.74.191 1.11l-.06.109-.023.034-.64.899.119.234.115.258c.038.09.074.183.108.275l.093.278 1.068.18c.44.068.771.418.823.85l.007.119v1.339c0 .494-.3.877-.821.996l-1.081.179-.09.273-.107.272-.116.26-.121.241.641.902c.246.352.23.823-.027 1.158l-.084.096-.971.972c-.174.172-.409.285-.691.285-.207 0-.408-.065-.569-.183l-.892-.635-.22.112-.252.113c-.092.04-.186.076-.281.111l-.292.098-.18 1.07c-.068.438-.418.77-.85.822l-.118.007h-1.37c-.482 0-.893-.35-.965-.819l-.181-1.081-.244-.08-.262-.101c-.086-.036-.172-.073-.257-.112l-.245-.12-.954.677c-.12.073-.248.121-.383.14l-.136.01c-.261 0-.51-.103-.694-.288l-.809-.809H4.358c-1.462 0-2.658-1.142-2.745-2.582l-.005-.168V8c0-1.463 1.142-2.658 2.583-2.745l.167-.005h20.398zm-2.219 9.212h-.827l-.188 1.11c-.05.29-.247.528-.52.64l-.104.036c-.215.056-.428.128-.636.216-.21.088-.414.192-.618.314-.13.076-.279.116-.429.116-.175 0-.346-.054-.492-.157l-.9-.642-.586.586.65.914c.17.237.206.542.1.808l-.056.112c-.113.192-.212.394-.298.604-.086.21-.157.43-.214.654-.082.327-.35.57-.681.627l-1.089.182v.827l1.11.19c.29.05.529.246.64.518l.037.105c.043.166.095.33.157.493.1.26.223.512.373.761.167.287.152.647-.042.921l-.642.899.587.587.91-.648.04-.025.002-.008.022-.008.027-.017c.093-.051.196-.083.3-.096l.045-.004c.185-.053.215-.048.25-.015l.014.014.036.014.073.034.309.17c.133.07.269.132.406.189.206.084.416.154.625.208.324.082.567.349.624.68l.182 1.095h.826l.185-1.089c.046-.296.246-.543.516-.651l.104-.034c.235-.06.463-.137.682-.23.2-.084.392-.182.579-.293.13-.077.28-.117.43-.117.176 0 .347.054.487.155l.908.646.586-.586-.647-.913c-.168-.238-.199-.541-.09-.808l.055-.112c.114-.19.214-.39.3-.597.089-.212.163-.432.22-.655.083-.324.35-.567.68-.623l1.099-.184v-.826l-1.09-.184c-.296-.046-.543-.246-.65-.515l-.034-.105c-.06-.229-.134-.451-.224-.666-.086-.205-.186-.403-.3-.595-.168-.285-.155-.649.039-.917l.646-.908-.586-.586-.904.65c-.114.08-.245.131-.382.148l-.104.007c-.152 0-.3-.041-.43-.118-.234-.138-.478-.255-.731-.352-.182-.07-.368-.129-.556-.176-.327-.082-.572-.35-.628-.682l-.183-1.088zm3.468-2.584H3.108v11.556c0 .647.492 1.18 1.123 1.244l.127.006h11.765l.576-.808-.107-.208-.112-.242-.1-.246c-.027-.07-.052-.139-.076-.208l-.045-.141-1.08-.183c-.439-.068-.77-.418-.822-.849l-.007-.12v-1.368c0-.482.349-.893.817-.966l1.072-.18.087-.266.103-.27c.036-.09.075-.178.115-.265l.12-.245-.646-.908c-.248-.353-.233-.827.024-1.161l.085-.096.968-.969c.174-.174.41-.288.694-.288.208 0 .408.065.57.183l.883.631.252-.127.263-.118c.09-.038.179-.073.268-.106l.263-.09.184-1.078c.068-.439.418-.77.849-.822l.12-.008h1.368c.483 0 .894.35.966.818l.18 1.072.182.058.232.084c.32.123.63.272.924.445l-.26-.144.935-.67.037-.021v-2.926zm-3.853 5.6c1.925 0 3.486 1.56 3.486 3.485 0 1.926-1.56 3.486-3.486 3.486-1.925 0-3.486-1.56-3.486-3.486 0-1.925 1.561-3.485 3.486-3.485zm0 1.3c-1.207 0-2.186.978-2.186 2.185 0 1.208.979 2.186 2.186 2.186 1.207 0 2.186-.978 2.186-2.186 0-1.207-.979-2.185-2.186-2.185zM24.756 6.75H4.358c-.647 0-1.18.492-1.243 1.122L3.108 8v2.378h22.897V8c0-.647-.491-1.18-1.121-1.244l-.128-.006z"/>
                <circle cx="6.038" cy="8.626" r="1"/>
                <circle cx="8.676" cy="8.626" r="1"/>
            </g>
        </g>
    </g>
</svg>
