<svg xmlns="http://www.w3.org/2000/svg" width="32" height="32" viewBox="0 0 32 32">
    <g fill="none" fill-rule="evenodd">
        <g fill="#1362CB">
            <g transform="translate(-947 -460) translate(947 460)">
                <path fill-rule="nonzero" d="M25.245 4.023c1.519 0 2.75 1.231 2.75 2.75v18.484c0 1.52-1.231 2.75-2.75 2.75H6.755c-1.519 0-2.75-1.23-2.75-2.75V6.773c0-1.519 1.231-2.75 2.75-2.75zm0 1.5H6.755c-.69 0-1.25.56-1.25 1.25v18.484c0 .69.56 1.25 1.25 1.25h18.49c.69 0 1.25-.56 1.25-1.25V6.773c0-.69-.56-1.25-1.25-1.25zm-1.486 2.731l.015.016c.02.021.037.044.054.067l-.069-.083c.034.036.064.074.09.113.013.02.025.042.037.064.007.013.013.025.018.038.009.02.017.039.024.059.021.062.034.125.04.19l.001.057v5.372c0 .414-.335.75-.75.75-.38 0-.693-.282-.743-.648l-.007-.102V10.54l-4.296 4.147c-.216.209-.533.266-.805.154l-.1-.05-3.576-2.133-4.44 4.387c-.268.265-.684.286-.977.067l-.083-.073c-.265-.268-.287-.685-.067-.977l.073-.084 4.854-4.794c.216-.214.536-.273.81-.161l.1.05 3.582 2.136 3.817-3.684h-3.708c-.38 0-.694-.282-.744-.648l-.006-.102c0-.38.282-.693.648-.743l.102-.007h5.566l.035.001c.017 0 .033.002.05.004l-.085-.005c.046 0 .09.004.134.012l.054.012.045.013c.016.005.033.011.049.018l.062.028.026.014c.059.034.113.075.16.123l.01.01z"/>
                <rect width="1.5" height="2.99" x="8.008" y="21.3" rx=".75"/>
                <rect width="1.5" height="6.987" x="12.828" y="17.303" rx=".75"/>
                <rect width="1.5" height="6.622" x="22.469" y="17.668" rx=".75"/>
                <rect width="1.5" height="4.832" x="17.649" y="19.458" rx=".75"/>
            </g>
        </g>
    </g>
</svg>
