<svg xmlns="http://www.w3.org/2000/svg" width="32" height="32" viewBox="0 0 32 32">
    <g fill="none" fill-rule="evenodd">
        <g>
            <g>
                <g transform="translate(-1116 -47) translate(1116 47) translate(1 6)">
                    <g fill="#1362CB" fill-rule="nonzero">
                        <g>
                            <path d="M9.25 18.173c-.414 0-.75-.336-.75-.75 0-.38.283-.693.649-.743l.101-.007h14.381c2.112 0 3.825-1.712 3.825-3.824 0-1.884-1.371-3.479-3.21-3.776-.099-.016-.19-.05-.27-.1-.281-.108-.48-.38-.48-.699 0-3.603-2.92-6.524-6.524-6.524-2.27 0-4.337 1.167-5.525 3.052-.125.198-.327.318-.543.344-.156.047-.328.045-.49-.018-.385-.149-.795-.226-1.216-.226-1.863 0-3.372 1.51-3.372 3.372 0 .414-.336.75-.75.75l-.082-.004c-.069.041-.145.072-.228.09-1.747.375-3.016 1.928-3.016 3.739 0 1.787 1.236 3.325 2.953 3.725.403.094.654.497.56.9-.094.404-.497.654-.9.56C1.97 17.478.25 15.338.25 12.85c0-2.492 1.724-4.63 4.114-5.186.3-2.402 2.35-4.26 4.834-4.26.434 0 .861.056 1.272.167C11.962 1.51 14.36.25 16.972.25c4.237 0 7.707 3.284 8.003 7.445 2.312.6 3.98 2.701 3.98 5.154 0 2.867-2.266 5.205-5.105 5.32l-.219.004H9.251z"/>
                        </g>
                    </g>
                </g>
            </g>
        </g>
    </g>
</svg>
