<svg xmlns="http://www.w3.org/2000/svg" width="32" height="32" viewBox="0 0 32 32">
    <g fill="none" fill-rule="evenodd">
        <g fill="#1362CB" fill-rule="nonzero">
            <g>
                <path d="M21.5 2.25c2.347 0 4.25 1.903 4.25 4.25s-1.903 4.25-4.25 4.25c-2.02 0-3.712-1.41-4.143-3.3l-3.308.552c.449.903.701 1.921.701 2.998 0 .263-.015.523-.044.779l7.646 1.911c.36-1.403 1.633-2.44 3.148-2.44 1.795 0 3.25 1.455 3.25 3.25s-1.455 3.25-3.25 3.25c-1.555 0-2.856-1.093-3.175-2.552l-.007.03-7.949-1.987c-.19.541-.448 1.05-.762 1.519.045.004.09.015.134.03l.094.04 12 6c.1.049.183.118.249.199.493-.482 1.17-.779 1.916-.779 1.519 0 2.75 1.231 2.75 2.75s-1.231 2.75-2.75 2.75-2.75-1.231-2.75-2.75c0-.265.038-.522.108-.765-.033-.005-.066-.014-.1-.025l-.093-.04-12-6c-.18-.09-.309-.242-.372-.419-.501.508-1.083.935-1.725 1.263l.032.036 3 4c.031.042.058.086.079.13.786-.584 1.763-.93 2.821-.93 2.623 0 4.75 2.127 4.75 4.75s-2.127 4.75-4.75 4.75-4.75-2.127-4.75-4.75c0-1.057.345-2.034.93-2.823-.075-.034-.146-.082-.207-.143l-.073-.084-3-4c-.097-.13-.146-.28-.15-.43-.557.15-1.144.23-1.75.23-.253 0-.504-.014-.75-.041v2.755c1.457.515 2.5 1.903 2.5 3.536 0 2.071-1.679 3.75-3.75 3.75-2.071 0-3.75-1.679-3.75-3.75 0-1.987 1.546-3.613 3.5-3.742V17.5c0-.045.004-.089.011-.131C3.134 16.447 1.25 13.944 1.25 11c0-3.728 3.022-6.75 6.75-6.75 2.062 0 3.909.925 5.147 2.382l4.14-.69C17.56 3.858 19.341 2.25 21.5 2.25zM17 21.75c-1.795 0-3.25 1.455-3.25 3.25s1.455 3.25 3.25 3.25 3.25-1.455 3.25-3.25-1.455-3.25-3.25-3.25zm-11 0c-1.243 0-2.25 1.007-2.25 2.25S4.757 26.25 6 26.25 8.25 25.243 8.25 24 7.243 21.75 6 21.75zm22 0c-.69 0-1.25.56-1.25 1.25s.56 1.25 1.25 1.25 1.25-.56 1.25-1.25-.56-1.25-1.25-1.25zm-20-16C5.1 5.75 2.75 8.1 2.75 11S5.1 16.25 8 16.25s5.25-2.35 5.25-5.25S10.9 5.75 8 5.75zm17.5 7c-.966 0-1.75.784-1.75 1.75s.784 1.75 1.75 1.75 1.75-.784 1.75-1.75-.784-1.75-1.75-1.75zm-4-9c-1.519 0-2.75 1.231-2.75 2.75s1.231 2.75 2.75 2.75 2.75-1.231 2.75-2.75-1.231-2.75-2.75-2.75z" transform="translate(-767 -589) translate(767 589)"/>
            </g>
        </g>
    </g>
</svg>
