<svg xmlns="http://www.w3.org/2000/svg" width="32" height="32" viewBox="0 0 32 32">
    <g fill="none" fill-rule="evenodd">
        <g fill="#1362CB" fill-rule="nonzero">
            <g>
                <path d="M9.687 10.589l12.318 11.705c.3.285.313.76.027 1.06-.285.3-.76.313-1.06.027l-1.163-1.104-2.298 2.103c-1.38 1.26-3.465 1.308-4.898.14l-.151-.13-.948-.858-5.483 5.498c-.293.293-.767.294-1.06.001-.267-.266-.292-.683-.074-.976l.072-.085 5.432-5.447-.94-.852-5.434 5.363c-.295.29-.77.288-1.06-.007-.265-.268-.287-.685-.067-.977l.073-.084 5.375-5.304-.921-.835c-1.535-1.39-1.651-3.762-.26-5.297l.114-.121.12-.116 2.033-1.876-.78-.741c-.3-.285-.313-.76-.027-1.06.285-.3.76-.313 1.06-.027zm.836 2.863l-2.104 1.943c-.05.045-.096.093-.141.142-.8.883-.769 2.226.045 3.071l.111.108 5.035 4.563c.821.744 2.054.776 2.91.096l.12-.102 2.22-2.032-8.196-7.789zm16.49-10.149c.264.268.285.685.065.977l-.073.084-5.279 5.208.815.782 5.235-5.246c.293-.294.768-.294 1.06-.002.267.266.292.683.075.977l-.073.084-5.213 5.225 1.058 1.014c1.495 1.433 1.546 3.807.113 5.302l-.087.088-.09.085-1.591 1.454 1.11 1.018c.304.28.325.755.045 1.06-.28.305-.755.326-1.06.045L10.641 10.003c-.305-.28-.325-.755-.045-1.06.28-.305.754-.325 1.06-.045l.797.732 2.163-1.995c1.408-1.3 3.558-1.323 4.992-.085l.146.133.888.851 5.31-5.238c.295-.29.77-.288 1.06.007zM15.75 8.636l-.117.1-2.071 1.912 8.356 7.67 1.689-1.544c.036-.033.072-.068.106-.104.824-.86.83-2.204.04-3.07l-.108-.111-4.929-4.723c-.821-.787-2.092-.833-2.966-.13z" transform="translate(-598 -719) translate(598 719)"/>
            </g>
        </g>
    </g>
</svg>
