<svg xmlns="http://www.w3.org/2000/svg" width="32" height="32" viewBox="0 0 32 32">
    <g fill="none" fill-rule="evenodd">
        <g fill="#1362CB" fill-rule="nonzero">
            <g>
                <path d="M17.11 3.093c.675 0 1.249.487 1.349 1.14l.334 1.993.085.024c.13.038.258.079.386.122l.382.137c.527.202 1.036.448 1.52.733l-.271-.153 1.71-1.225.148-.082c.183-.086.38-.132.582-.132.365 0 .71.144.969.402l1.641 1.641c.453.455.526 1.16.183 1.702l-.03.046-1.19 1.667.073.127c.073.137.142.275.208.414l.19.424c.093.224.179.452.257.684l.122.394 1.991.338c.624.095 1.092.6 1.152 1.217l.006.134v2.265c0 .702-.415 1.23-1.148 1.398l-2.006.334-.012.045c-.068.232-.145.46-.23.686l-.132.335c-.09.216-.188.43-.293.637l-.182.342 1.188 1.672c.347.498.319 1.169-.054 1.637l-.1.113-1.643 1.643c-.243.24-.57.397-.965.397-.289 0-.568-.09-.794-.255l-1.656-1.18-.117.067c-.132.07-.266.138-.402.203l-.412.186c-.23.097-.462.185-.7.265l-.413.13-.336 1.99c-.096.624-.6 1.091-1.217 1.15l-.134.007h-2.315c-.674 0-1.248-.487-1.348-1.142l-.335-2.008-.136-.038c-.146-.045-.291-.093-.436-.145l-.43-.165c-.427-.175-.844-.38-1.249-.612l.268.146-1.741 1.238-.149.081c-.182.086-.379.132-.58.132-.365 0-.712-.144-.97-.402L6.09 24.354c-.457-.457-.53-1.165-.18-1.711l.027-.042 1.18-1.656-.06-.108c-.14-.259-.27-.522-.385-.79l-.165-.403c-.131-.342-.242-.689-.33-1.027l.045.16.035.125-2.008-.342c-.623-.096-1.09-.6-1.15-1.217l-.006-.133v-2.315c0-.674.486-1.247 1.14-1.349l1.992-.335.012-.04c.067-.23.14-.457.223-.68l.128-.333c.09-.22.187-.436.291-.648l.179-.344-1.196-1.683c-.352-.499-.324-1.173.05-1.641l.101-.113 1.638-1.638c.243-.243.572-.403.97-.403.289 0 .568.091.794.257l1.645 1.172.037-.021c.21-.116.423-.224.639-.324l.326-.145c.219-.092.44-.176.662-.25l.378-.12.343-2.006c.095-.624.6-1.092 1.217-1.152l.134-.006zm-.213 1.619h-1.89l-.36 2.119c-.067.395-.34.72-.713.868l-.128.043c-.377.098-.75.224-1.116.378-.366.154-.725.336-1.079.548-.174.103-.376.157-.579.157-.237 0-.467-.073-.665-.212L8.646 7.385 7.308 8.722l1.243 1.748c.234.325.28.744.127 1.106l-.067.133c-.198.337-.373.692-.523 1.06-.15.369-.275.751-.374 1.144-.11.44-.473.77-.92.846l-2.082.35v1.887l2.118.361c.395.068.72.34.869.714l.043.129c.075.29.168.58.277.864.174.454.39.897.65 1.33.226.387.205.874-.056 1.244l-1.228 1.72 1.337 1.338 1.746-1.24.078-.051.013-.022.065-.021.094-.043c.044-.018.089-.032.135-.044l.115-.022.158-.046c.165-.044.198-.034.238.003l.016.016c.052.019.093.037.157.072l.515.283c.233.12.47.23.71.329.361.148.728.27 1.096.365.437.111.764.47.84.916l.35 2.096h1.887l.354-2.087c.062-.405.338-.741.708-.883l.127-.04c.41-.106.81-.241 1.194-.404.349-.147.686-.318 1.013-.512.175-.104.377-.158.581-.158.237 0 .467.073.656.209l1.735 1.234 1.34-1.338-1.238-1.742c-.23-.327-.27-.743-.114-1.107l.067-.133c.199-.334.375-.684.526-1.047.155-.372.284-.757.386-1.149.111-.436.47-.764.915-.84l2.102-.35v-1.888L25.2 14.7c-.404-.063-.74-.338-.882-.708l-.04-.127c-.104-.4-.235-.79-.392-1.166-.15-.36-.325-.706-.525-1.042-.226-.385-.208-.875.052-1.236l1.236-1.735-1.34-1.339-1.726 1.243c-.153.108-.33.176-.515.199l-.14.008c-.205 0-.405-.055-.582-.159-.408-.24-.836-.447-1.278-.616-.319-.122-.644-.225-.974-.308-.441-.11-.77-.473-.846-.92l-.35-2.082zM16 10.392c3.096 0 5.606 2.51 5.606 5.606s-2.51 5.606-5.606 5.606-5.606-2.51-5.606-5.606S12.904 10.39 16 10.39zm0 1.619c-2.202 0-3.987 1.785-3.987 3.987s1.785 3.987 3.987 3.987 3.987-1.785 3.987-3.987S18.202 12.01 16 12.01z" transform="translate(-245 -47) translate(245 47)"/>
            </g>
        </g>
    </g>
</svg>
