<svg xmlns="http://www.w3.org/2000/svg" width="32" height="32" viewBox="0 0 32 32">
    <g fill="none" fill-rule="evenodd">
        <g fill="#1362CB" fill-rule="nonzero">
            <g>
                <path d="M18.69 13.704l.153.19.741.962c.253.328.192.8-.136 1.052-.299.23-.715.2-.978-.053l-.074-.083-.742-.963c-1.338-1.738-3.77-2.091-5.529-.842l-.173.13-6.644 5.265c-1.718 1.36-2.069 3.844-.831 5.636l.129.177.741.962c1.384 1.796 3.934 2.114 5.703.712l3.783-2.997c.325-.258.797-.203 1.054.122.257.324.202.796-.122 1.053l-3.783 2.998c-2.362 1.871-5.746 1.506-7.67-.782l-.153-.19-.742-.963c-1.838-2.386-1.48-5.802.772-7.75l.187-.154 6.644-5.265c2.361-1.87 5.746-1.506 7.67.783zm9.88-8.089l.156.186.764.943c1.898 2.343 1.596 5.75-.643 7.726l-.186.157-6.604 5.347c-2.343 1.897-5.752 1.595-7.729-.643l-.157-.185-.764-.944c-.26-.322-.211-.794.11-1.055.293-.237.71-.217.98.03l.076.081.764.943c1.381 1.705 3.848 2.015 5.603.74l.173-.133 6.605-5.347c1.705-1.38 2.015-3.845.74-5.6l-.133-.173-.764-.943c-1.428-1.762-4.014-2.034-5.776-.607l-3.839 3.107c-.322.261-.794.211-1.054-.11-.261-.323-.211-.795.11-1.056l3.839-3.107c2.343-1.896 5.752-1.595 7.728.643z" transform="translate(-597 -325) translate(597 325)"/>
            </g>
        </g>
    </g>
</svg>
