<svg xmlns="http://www.w3.org/2000/svg" width="32" height="32" viewBox="0 0 32 32">
    <g fill="none" fill-rule="evenodd">
        <g fill="#1362CB" fill-rule="nonzero">
            <g>
                <path d="M25 2.25c1.519 0 2.75 1.231 2.75 2.75v22c0 1.519-1.231 2.75-2.75 2.75H7c-1.519 0-2.75-1.231-2.75-2.75V5c0-1.519 1.231-2.75 2.75-2.75zm1.25 19H5.75V27c0 .647.492 1.18 1.122 1.244L7 28.25h18c.69 0 1.25-.56 1.25-1.25v-5.75zm0-9H5.75v7.5h20.5v-7.5zM25 3.75H7c-.69 0-1.25.56-1.25 1.25v5.75h20.5V5c0-.647-.492-1.18-1.122-1.244L25 3.75z" transform="translate(-767 -325) translate(767 325)"/>
            </g>
        </g>
    </g>
</svg>
