<svg xmlns="http://www.w3.org/2000/svg" width="32" height="32" viewBox="0 0 32 32">
    <g fill="none" fill-rule="evenodd">
        <g fill="#1362CB" fill-rule="nonzero">
            <g>
                <path d="M25.397 4.25c1.52 0 2.75 1.231 2.75 2.75v19c0 1.519-1.23 2.75-2.75 2.75H5c-1.519 0-2.75-1.231-2.75-2.75V7c0-1.519 1.231-2.75 2.75-2.75zm1.25 6.628H3.75V26c0 .647.492 1.18 1.122 1.244L5 27.25h20.397c.69 0 1.25-.56 1.25-1.25V10.878zm-9.931 2.904c.363.109.583.47.525.834l-.023.1-3 10c-.119.396-.537.621-.934.502-.363-.109-.583-.47-.525-.834l.023-.1 3-10c.119-.396.537-.621.934-.502zm-4.6 1.29c.215.308.165.723-.101.973l-.086.07-3.822 3.315 3.822 2.66.086.07c.266.25.316.665.1.974-.236.34-.704.424-1.044.187l-4.604-3.206-.086-.07c-.266-.25-.316-.665-.1-.974.03-.043.063-.082.1-.117l.038-.037.086-.07 4.566-3.963c.34-.236.808-.152 1.045.187zm6.202 0c.237-.34.704-.424 1.044-.188l4.567 3.963.086.07c.155.146.237.348.235.552.008.213-.074.425-.235.576l-.086.07-4.605 3.206c-.34.237-.807.153-1.044-.187-.215-.309-.165-.723.101-.974l.086-.07 3.841-2.675-3.803-3.3-.086-.07c-.267-.25-.316-.665-.101-.974zm7.08-9.322H5c-.69 0-1.25.56-1.25 1.25v2.378h22.897V7c0-.647-.491-1.18-1.122-1.244l-.128-.006zM6.678 6.809c.451 0 .817.366.817.817 0 .451-.366.817-.817.817-.451 0-.817-.366-.817-.817 0-.451.366-.817.817-.817zm2.639 0c.451 0 .817.366.817.817 0 .451-.366.817-.817.817-.451 0-.817-.366-.817-.817 0-.451.366-.817.817-.817z" transform="translate(-1116 -325) translate(1116 325)"/>
            </g>
        </g>
    </g>
</svg>
