<svg xmlns="http://www.w3.org/2000/svg" width="32" height="32" viewBox="0 0 32 32">
    <g fill="none" fill-rule="evenodd">
        <g fill="#1362CB" fill-rule="nonzero">
            <g>
                <path d="M22 4.25c2.004 0 3.641 1.572 3.745 3.55l.005.2v3.146H26c.477 0 .93.169 1.286.468l.128.118c.277.277.468.629.548 1.044l.028.181.01.189v14.336c0 .537-.214 1.042-.586 1.414-.277.277-.629.468-1.044.548l-.181.028-.189.01h-9.232c-.536 0-1.04-.213-1.414-.586-.277-.277-.468-.629-.548-1.044l-.028-.181-.01-.189V26.25H8.5c-.414 0-.75-.336-.75-.75 0-.38.282-.693.648-.743l.102-.007h6.268v-2H7c-2.004 0-3.641-1.572-3.745-3.55L3.25 19V8c0-2.004 1.572-3.641 3.55-3.745L7 4.25h15zm-5.189 8.395l-.102.004c-.112.013-.215.064-.295.143-.074.075-.123.17-.14.274l-.006.08-.001 14.293.004.102c.013.112.064.215.142.294.076.075.171.124.275.14l.08.007 9.189.001.102-.004c.112-.013.215-.064.295-.143.074-.075.123-.17.14-.274l.006-.08.001-14.293-.004-.102c-.013-.112-.064-.215-.143-.295-.075-.074-.17-.123-.274-.14l-.08-.006-9.189-.001zM22 5.75H7c-1.19 0-2.166.925-2.245 2.096L4.75 8v11c0 1.19.925 2.166 2.096 2.245L7 21.25h7.768v-8.104c0-.477.169-.93.468-1.286l.119-.13c.277-.276.629-.466 1.043-.546l.181-.028.189-.01h7.482V8c0-1.19-.925-2.166-2.096-2.245L22 5.75zm-3.213 8.498c.484 0 .876.392.876.876s-.392.876-.876.876-.876-.392-.876-.876.392-.876.876-.876z" transform="translate(-594 -589) translate(594 589)"/>
            </g>
        </g>
    </g>
</svg>
