<svg xmlns="http://www.w3.org/2000/svg" width="32" height="32" viewBox="0 0 32 32">
    <g fill="none" fill-rule="evenodd">
        <g fill="#1362CB" fill-rule="nonzero">
            <g>
                <path d="M16 21.25c3.728 0 6.75 3.022 6.75 6.75 0 .414-.336.75-.75.75s-.75-.336-.75-.75c0-2.9-2.35-5.25-5.25-5.25S10.75 25.1 10.75 28c0 .414-.336.75-.75.75s-.75-.336-.75-.75c0-3.728 3.022-6.75 6.75-6.75zm-8-5c1.007 0 1.985.221 2.877.642.375.177.535.624.358.999-.177.374-.623.535-.998.358-.693-.327-1.452-.499-2.237-.499-2.9 0-5.25 2.35-5.25 5.25 0 .414-.336.75-.75.75s-.75-.336-.75-.75c0-3.728 3.022-6.75 6.75-6.75zm15.557 0c3.728 0 6.75 3.022 6.75 6.75 0 .414-.336.75-.75.75s-.75-.336-.75-.75c0-2.9-2.35-5.25-5.25-5.25-.785 0-1.544.172-2.237.499-.374.177-.821.016-.998-.358-.177-.375-.016-.822.358-.999.892-.42 1.87-.642 2.877-.642zm-7.557-3c2.071 0 3.75 1.679 3.75 3.75 0 2.071-1.679 3.75-3.75 3.75-2.071 0-3.75-1.679-3.75-3.75 0-2.071 1.679-3.75 3.75-3.75zm0 1.5c-1.243 0-2.25 1.007-2.25 2.25s1.007 2.25 2.25 2.25 2.25-1.007 2.25-2.25-1.007-2.25-2.25-2.25zm-8-6.5c2.071 0 3.75 1.679 3.75 3.75 0 2.071-1.679 3.75-3.75 3.75-2.071 0-3.75-1.679-3.75-3.75 0-2.071 1.679-3.75 3.75-3.75zm16 0c2.071 0 3.75 1.679 3.75 3.75 0 2.071-1.679 3.75-3.75 3.75-2.071 0-3.75-1.679-3.75-3.75 0-2.071 1.679-3.75 3.75-3.75zM8 9.75c-1.243 0-2.25 1.007-2.25 2.25S6.757 14.25 8 14.25s2.25-1.007 2.25-2.25S9.243 9.75 8 9.75zm16 0c-1.243 0-2.25 1.007-2.25 2.25s1.007 2.25 2.25 2.25 2.25-1.007 2.25-2.25S25.243 9.75 24 9.75zm-8-5.5c2.071 0 3.75 1.679 3.75 3.75 0 2.071-1.679 3.75-3.75 3.75-2.071 0-3.75-1.679-3.75-3.75 0-2.071 1.679-3.75 3.75-3.75zm0 1.5c-1.243 0-2.25 1.007-2.25 2.25s1.007 2.25 2.25 2.25S18.25 9.243 18.25 8 17.243 5.75 16 5.75z" transform="translate(-1122 -719) translate(1122 719)"/>
            </g>
        </g>
    </g>
</svg>
