<svg xmlns="http://www.w3.org/2000/svg" width="32" height="32" viewBox="0 0 32 32">
    <g fill="none" fill-rule="evenodd">
        <g fill="#1362CB" fill-rule="nonzero">
            <g>
                <g>
                    <path d="M18.537 16.755c-.659-.586-1.417-1.103-2.272-1.532-.43-.216-.558-.429-.511-.804.284-2.237.3-4.472-.31-6.69-.755-2.748-2.431-5.168-5.186-7.415C9.998.11 9.525.081 9.14.392c-1.24 1.005-2.299 2.1-3.16 3.293-1.526 2.12-2.27 4.388-2.46 6.76-.122 1.52-.017 3.035.173 4.549.01.077-.04.188-.118.239-.723.47-1.485.907-2.18 1.395-.849.595-1.277 1.336-1.3 2.196-.018.65.08 1.29.282 1.921.497 1.56 1.34 3.028 2.293 4.467.07.107.181.217.314.282.417.207.874.097 1.13-.265.662-.935 1.318-1.871 1.97-2.809.082-.119.177-.165.37-.165.855.002 1.71-.001 2.565 0v2.564c0 .43.348.779.778.779.43 0 .778-.349.778-.779v-2.565c.885 0 1.77.002 2.653 0 .194-.001.284.048.367.168.597.858 1.2 1.713 1.813 2.565.09.123.212.257.37.327.44.2.887.075 1.122-.315.518-.863 1.055-1.72 1.509-2.599.54-1.044.952-2.117 1.031-3.24.06-.87-.11-1.697-.904-2.405zM4.905 21.71c-.475.693-.962 1.382-1.478 2.12-.842-1.443-1.622-2.85-1.808-4.379-.069-.554-.076-1.114.356-1.617.347-.406 1.315-1.107 1.932-1.391l.223 1.08c.268 1.317.537 2.634.8 3.952.016.076.02.169-.025.235zm8.755-3.5c-.177.96-.348 1.92-.524 2.88-.005.027-.014.054-.024.09l-2.536.002v-5.385c0-.43-.348-.779-.778-.779-.43 0-.778.349-.778.779v5.386l-2.623.002c-.162-.784-.335-1.541-.47-2.302-.298-1.688-.646-3.374-.847-5.068-.28-2.38-.137-4.749.808-7.065.71-1.742 1.829-3.334 3.381-4.768.141-.13.278-.262.417-.392.011-.01.03-.015.08-.037.248.226.51.45.748.686 1.285 1.275 2.273 2.658 2.92 4.164.671 1.56.96 3.162 1.003 4.79.061 2.357-.348 4.688-.777 7.017zm4.28.916c-.074 1.045-.5 2.034-.983 3.012-.241.489-.524.967-.822 1.51-.53-.756-1.02-1.449-1.501-2.146-.035-.05-.038-.12-.026-.177.328-1.643.659-3.286.99-4.929.01-.045.03-.09.055-.162.758.45 1.482.892 1.973 1.49.356.434.348.92.314 1.402z" transform="translate(-768 -47) translate(768 47) translate(6 3)"/>
                    <path d="M9.81 7.222c-.615 0-1.213.236-1.685.663-.458.415-.737 1.031-.766 1.69-.03.668.2 1.318.63 1.783.488.528 1.134.818 1.816.818.617 0 1.219-.243 1.694-.685.97-.903 1.026-2.49.122-3.464-.482-.519-1.125-.805-1.812-.805zm-.746 1.66c.204-.186.467-.289.74-.289.307 0 .594.126.807.356.401.43.373 1.14-.06 1.55-.21.199-.476.308-.748.308-.292 0-.571-.125-.785-.352-.196-.208-.302-.504-.29-.812.01-.299.133-.576.336-.76z" transform="translate(-768 -47) translate(768 47) translate(6 3)"/>
                </g>
            </g>
        </g>
    </g>
</svg>
