<svg xmlns="http://www.w3.org/2000/svg" width="32" height="32" viewBox="0 0 32 32">
    <g fill="none" fill-rule="evenodd">
        <g fill="#1362CB" fill-rule="nonzero">
            <g>
                <path d="M24 3.25c1.463 0 2.658 1.142 2.745 2.582L26.75 6v12.25h3V20c0 1.519-1.231 2.75-2.75 2.75H16.25v2.628c.64.226 1.146.733 1.372 1.373L29.5 26.75c.414 0 .75.336.75.75 0 .38-.282.693-.648.743l-.102.007H17.622c-.31.874-1.142 1.5-2.122 1.5s-1.813-.626-2.122-1.5H2.5c-.414 0-.75-.336-.75-.75 0-.38.282-.693.648-.743l.102-.007h10.878c.226-.64.733-1.146 1.373-1.372l-.001-2.628H4c-1.463 0-2.658-1.142-2.745-2.582L1.25 20v-1.75h3V6c0-1.463 1.142-2.658 2.582-2.745L7 3.25h17zm-8.5 23.5c-.414 0-.75.336-.75.75s.336.75.75.75.75-.336.75-.75-.336-.75-.75-.75zm12.75-7H2.75V20c0 .647.492 1.18 1.122 1.244L4 21.25h23c.69 0 1.25-.56 1.25-1.25v-.25zM24 4.75H7c-.647 0-1.18.492-1.244 1.122L5.75 6v12.25h19.5V6c0-.647-.492-1.18-1.122-1.244L24 4.75zm-8 1.5c1.519 0 2.75 1.231 2.75 2.75 0 1.052-.59 1.966-1.459 2.429 1.996.561 3.459 2.395 3.459 4.571 0 .414-.336.75-.75.75s-.75-.336-.75-.75c0-1.795-1.455-3.25-3.25-3.25s-3.25 1.455-3.25 3.25c0 .414-.336.75-.75.75s-.75-.336-.75-.75c0-2.176 1.463-4.01 3.459-4.572-.868-.462-1.459-1.376-1.459-2.428 0-1.519 1.231-2.75 2.75-2.75zm0 1.5c-.69 0-1.25.56-1.25 1.25s.56 1.25 1.25 1.25 1.25-.56 1.25-1.25-.56-1.25-1.25-1.25z" transform="translate(-420 -325) translate(420 325)"/>
            </g>
        </g>
    </g>
</svg>
