<svg xmlns="http://www.w3.org/2000/svg" width="32" height="32" viewBox="0 0 32 32">
    <g fill="none" fill-rule="evenodd">
        <g fill="#1362CB" fill-rule="nonzero">
            <g>
                <path d="M11.048 21.25c.415 0 .75.336.75.75 0 .38-.282.693-.648.743l-.102.007H5.091c-.155 0-.3.135-.334.33l-.007.087v4.666c0 .211.126.372.276.409l.065.008h21.818c.155 0 .3-.135.334-.33l.007-.087v-4.666c0-.211-.126-.372-.276-.409l-.065-.008h-7.284c-.414 0-.75-.336-.75-.75 0-.38.283-.693.649-.743l.101-.007h7.284c.98 0 1.763.788 1.836 1.768l.005.149v4.666c0 .998-.737 1.834-1.696 1.911l-.145.006H5.091c-.98 0-1.763-.788-1.836-1.768l-.005-.149v-4.666c0-.998.737-1.834 1.696-1.911l.145-.006h5.957zM25 25c.552 0 1 .448 1 1s-.448 1-1 1-1-.448-1-1 .448-1 1-1zm-3 0c.552 0 1 .448 1 1s-.448 1-1 1-1-.448-1-1 .448-1 1-1zm-6.5-10.194c.38 0 .693.282.743.648l.007.102v3.194h3.25c.414 0 .75.336.75.75 0 .38-.282.693-.648.743l-.102.007h-3.25v3.306c0 .414-.336.75-.75.75-.38 0-.693-.283-.743-.649l-.007-.101V20.25H11.5c-.414 0-.75-.336-.75-.75 0-.38.282-.693.648-.743l.102-.007h3.25v-3.194c0-.415.336-.75.75-.75zM17.972 2.25c4.237 0 7.707 3.284 8.003 7.445 2.312.6 3.98 2.701 3.98 5.154 0 2.94-2.383 5.324-5.324 5.324-.414 0-.75-.336-.75-.75s.336-.75.75-.75c2.112 0 3.825-1.712 3.825-3.824 0-1.884-1.371-3.479-3.21-3.776-.099-.016-.19-.05-.27-.1-.281-.108-.48-.38-.48-.699 0-3.603-2.92-6.524-6.524-6.524-2.27 0-4.337 1.167-5.525 3.052-.125.198-.327.318-.543.344-.156.047-.328.045-.49-.018-.385-.149-.795-.226-1.216-.226-1.863 0-3.372 1.51-3.372 3.372 0 .414-.336.75-.75.75l-.082-.004c-.069.041-.145.072-.228.09-1.747.375-3.016 1.928-3.016 3.739 0 1.787 1.236 3.325 2.953 3.725.403.094.654.497.56.9-.094.404-.497.654-.9.56-2.393-.557-4.113-2.697-4.113-5.185 0-2.492 1.724-4.63 4.114-5.186.3-2.402 2.35-4.26 4.834-4.26.434 0 .861.056 1.272.167 1.492-2.06 3.89-3.32 6.502-3.32z" transform="translate(-246 -589) translate(246 589)"/>
            </g>
        </g>
    </g>
</svg>
