<svg xmlns="http://www.w3.org/2000/svg" width="32" height="32" viewBox="0 0 32 32">
    <g fill="none" fill-rule="evenodd" stroke-linecap="round" stroke-linejoin="round">
        <g stroke="#1362CB">
            <g>
                <g transform="translate(-246 -195) translate(246 195) translate(2.5 5)">
                    <circle cx="18.201" cy="12.808" r="3.37" stroke-width="1.3"/>
                    <circle cx="6.815" cy="6.814" r="2.702" stroke-width="1.2"/>
                    <path stroke-width="1.3" d="M10.032 14.046l1.63.278c.088.015.161.083.186.173.058.226.13.45.214.669.134.35.3.69.497 1.019.046.078.042.18-.011.255l-.954 1.338c-.106.165-.085.367.047.499l1.15 1.151c.076.075.174.116.28.116.07 0 .14-.02.207-.061l.01-.006 1.365-.971c.034-.026.081-.04.129-.04.041 0-.144-.12.119.031s.533.283.81.397c.276.113.559.207.845.281.088.023.154.095.17.186l.27 1.621c.029.189.191.328.386.328h1.627c.194 0 .357-.14.386-.331l.274-1.619c.014-.09.08-.163.167-.184.316-.082.622-.185.918-.31.27-.114.53-.246.779-.394.035-.021.077-.033.12-.033.048 0 .093.015.13.042l1.34.954c.067.048.146.074.228.074.134 0 .225-.062.278-.115l1.152-1.152c.133-.133.151-.349.044-.502l-.955-1.347c-.053-.075-.057-.172-.01-.253.154-.258.29-.528.406-.807.12-.286.219-.582.297-.886.022-.088.095-.154.185-.17l1.622-.27c.22-.05.331-.191.331-.421v-1.592c0-.194-.139-.357-.33-.387l-1.62-.273c-.09-.014-.162-.081-.183-.167-.08-.308-.18-.608-.302-.897-.116-.277-.25-.544-.403-.8-.046-.078-.042-.179.01-.25l.96-1.349.004-.006c.1-.159.079-.36-.051-.491l-1.152-1.152c-.075-.075-.174-.116-.279-.116-.07 0-.14.02-.208.061l-.01.006-1.342.965c-.038.027-.084.042-.132.042-.042 0-.083-.012-.12-.033-.314-.186-.643-.344-.984-.475-.244-.093-.494-.172-.75-.236-.088-.023-.155-.097-.17-.189l-.271-1.61c-.029-.188-.192-.327-.386-.327h-1.627c-.195 0-.357.139-.387.33l-.277 1.63c-.016.088-.084.162-.174.187-.292.075-.58.173-.862.291"/>
                    <path stroke-width="1.2" d="M4.169 11.375c.21.12.428.227.65.318.22.09.447.166.677.226.07.018.123.076.136.148l.216 1.3c.024.151.154.263.31.263h1.304c.156 0 .287-.112.31-.265l.22-1.298c.01-.073.064-.13.134-.148.253-.065.499-.148.736-.249.215-.091.424-.196.624-.316.028-.016.062-.025.096-.025.039 0 .075.011.105.033l1.074.765c.054.039.117.06.183.06.107 0 .18-.05.222-.093l.924-.924c.106-.106.122-.28.036-.402l-.767-1.08c-.042-.06-.045-.138-.007-.203.123-.207.232-.423.325-.647.096-.23.175-.467.238-.71.018-.071.077-.124.149-.136l1.3-.217c.177-.04.266-.153.266-.338V6.161c0-.156-.112-.286-.266-.31l-1.297-.22c-.073-.01-.13-.064-.148-.133-.064-.247-.145-.487-.242-.719-.093-.222-.2-.436-.323-.642-.036-.062-.034-.143.008-.2l.77-1.081.003-.006c.08-.127.063-.288-.041-.393l-.924-.924c-.06-.06-.139-.093-.223-.093-.057 0-.113.017-.167.05l-.008.004-1.076.774c-.03.021-.067.033-.106.033-.033 0-.066-.009-.096-.026-.252-.149-.516-.276-.789-.38-.196-.076-.396-.14-.6-.19-.072-.018-.125-.078-.138-.152L7.75.262C7.727.112 7.597 0 7.44 0H6.137c-.156 0-.286.112-.31.265l-.222 1.307c-.013.07-.067.13-.14.15-.233.06-.465.138-.69.233-.227.096-.448.208-.662.336-.028.016-.061.026-.096.026-.04 0-.077-.012-.11-.035l-1.065-.76c-.054-.04-.117-.06-.183-.06-.108 0-.181.05-.224.093l-.923.923c-.106.107-.121.28-.034.403l.771 1.085c.044.06.048.139.011.2-.123.21-.231.43-.324.657-.092.227-.17.463-.23.705-.018.071-.078.125-.152.138l-1.291.217c-.15.023-.262.153-.262.31v1.303c0 .156.111.287.265.31l1.307.223c.07.012.13.067.15.14.046.18.103.359.17.535.108.28.242.554.4.817.036.063.033.144-.01.205l-.765 1.072-.003.005c-.081.128-.064.29.04.395l.924.923c.06.06.139.093.223.093.057 0 .113-.016.167-.049l.007-.004 1.095-.78c.027-.02.065-.031.103-.031.034 0-.115-.096.096.025z"/>
                </g>
            </g>
        </g>
    </g>
</svg>
