<svg xmlns="http://www.w3.org/2000/svg" width="32" height="32" viewBox="0 0 32 32">
    <defs>
    </defs>
    <g fill="none" fill-rule="evenodd">
        <g>
            <g transform="translate(-246 -325) translate(246 325)">
                <g>
                    <path fill="#1362CB" fill-rule="nonzero" d="M20.175 4.416c1.202 0 2.185.933 2.265 2.115l.006.156-.001 13.943h1.545c.428 0 .782-.32.833-.734l.007-.106V2.872c0-.429-.32-.782-.735-.834l-.105-.007H6.687c-.429 0-.782.32-.834.735l-.007.106v1.544h14.329zm0 1.43H2.872c-.429 0-.782.32-.834.735l-.007.106v16.918c0 .429.32.782.735.834l.106.007h17.303c.428 0 .781-.32.833-.735l.007-.106V6.687c0-.464-.376-.84-.84-.84zM11.808 16.26c3.453 0 6.263 2.697 6.263 6.04 0 .395-.32.715-.715.715-.395 0-.715-.32-.715-.715 0-2.54-2.157-4.61-4.833-4.61s-4.833 2.07-4.833 4.61c0 .395-.32.715-.715.715-.396 0-.716-.32-.716-.715 0-3.343 2.81-6.04 6.264-6.04zm-.194-7.638c2.035 0 3.696 1.595 3.696 3.577s-1.66 3.577-3.696 3.577c-2.036 0-3.697-1.595-3.697-3.577s1.66-3.577 3.697-3.577zm0 1.431c-1.259 0-2.267.967-2.267 2.146 0 1.179 1.008 2.146 2.267 2.146 1.258 0 2.266-.967 2.266-2.146 0-1.179-1.008-2.146-2.266-2.146zM4.416 2.872c0-1.203.933-2.186 2.115-2.266L6.687.6H23.99c1.202 0 2.186.933 2.266 2.115l.005.156V19.79c0 1.202-.934 2.186-2.116 2.266l-.155.005h-1.545v1.544c0 1.203-.933 2.186-2.115 2.266l-.155.005H2.872c-1.203 0-2.186-.933-2.266-2.115L.6 23.605V6.687c0-1.202.933-2.186 2.115-2.266l.156-.005h1.544V2.872z" transform="translate(2 3)"/>
                </g>
            </g>
        </g>
    </g>
</svg>
