<svg xmlns="http://www.w3.org/2000/svg" width="32" height="32" viewBox="0 0 32 32">
    <g fill="none" fill-rule="evenodd">
        <g fill="#1362CB" fill-rule="nonzero">
            <g>
                <path d="M19 1.25c1.519 0 2.75 1.231 2.75 2.75v1c0 1.519-1.231 2.75-2.75 2.75h-2.75l.001.896c.32.13.598.339.81.604h4.674c.612 0 1.177.2 1.633.538.465-.345 1.034-.538 1.632-.538 1.519 0 2.75 1.231 2.75 2.75 0 1.056-.595 1.973-1.468 2.433l1.914 4.788.032.097c.004.019.008.037.01.056.88.305 1.512 1.142 1.512 2.126 0 .414-.336.75-.75.75s-.75-.336-.75-.75l-.007-.102c-.05-.366-.363-.648-.743-.648-.414 0-.75.336-.75.75l-.007.102c-.05.366-.363.648-.743.648-.414 0-.75-.336-.75-.75 0-.945.582-1.753 1.407-2.087l-1.853-4.634-.013-.037c-.21-.016-.415-.055-.612-.117l-.86 6.89c-.172 1.376-1.342 2.409-2.729 2.409l-.84-.001V28c0 1.463-1.142 2.658-2.582 2.745L17 30.75h-2c-1.463 0-2.658-1.142-2.745-2.582L12.25 28v-4.077h-1.36c-1.285 0-2.39-.888-2.678-2.126l-.034-.17L7 14.561c-.251.098-.518.16-.792.18l-.013.037-1.853 4.634c.825.334 1.407 1.142 1.407 2.087 0 .414-.336.75-.75.75-.38 0-.693-.282-.743-.648L4.25 21.5c0-.414-.336-.75-.75-.75-.38 0-.693.282-.743.648l-.007.102c0 .414-.336.75-.75.75s-.75-.336-.75-.75c0-.984.632-1.821 1.513-2.126 0-.019.005-.037.01-.056l.03-.097 1.915-4.788C3.845 13.973 3.25 13.056 3.25 12c0-1.519 1.231-2.75 2.75-2.75.62 0 1.206.206 1.681.574.346-.27.764-.46 1.228-.537.15-.024.3-.037.452-.037h4.578c.212-.265.491-.475.811-.605V7.75H12c-1.463 0-2.658-1.142-2.745-2.582L9.25 5V4c0-1.519 1.231-2.75 2.75-2.75zm-.75 22.673h-4.5v.827h.75c.414 0 .75.336.75.75 0 .38-.282.693-.648.743l-.102.007h-.75v.5h.75c.414 0 .75.336.75.75 0 .38-.282.693-.648.743l-.102.007h-.725c.108.53.55.938 1.097.994l.128.006h2c.604 0 1.109-.429 1.225-1H17.5c-.414 0-.75-.336-.75-.75 0-.38.282-.693.648-.743l.102-.007h.75v-.5h-.75c-.414 0-.75-.336-.75-.75 0-.38.282-.693.648-.743l.102-.007h.75v-.827zm3.485-13.173H9.36c-.069 0-.138.006-.206.017-.68.114-1.14.758-1.027 1.439l1.53 9.173c.1.603.621 1.045 1.232 1.045h9.7c.63 0 1.162-.47 1.24-1.095l1.145-9.174c.007-.052.01-.103.01-.155 0-.69-.56-1.25-1.25-1.25zM6 10.75c-.69 0-1.25.56-1.25 1.25s.56 1.25 1.25 1.25c.238 0 .465-.066.661-.189l.079-.056-.092-.553c-.082-.496-.027-.984.14-1.423-.22-.179-.496-.279-.788-.279zm19 0c-.26 0-.508.08-.714.224.129.318.199.664.199 1.026 0 .114-.007.228-.021.34l-.093.74c.188.11.404.17.629.17.69 0 1.25-.56 1.25-1.25s-.56-1.25-1.25-1.25zm-6-8h-7c-.69 0-1.25.56-1.25 1.25v1c0 .69.56 1.25 1.25 1.25h7c.69 0 1.25-.56 1.25-1.25V4c0-.69-.56-1.25-1.25-1.25zM13.75 4c.414 0 .75.336.75.75s-.336.75-.75.75-.75-.336-.75-.75.336-.75.75-.75zm3 0c.414 0 .75.336.75.75s-.336.75-.75.75-.75-.336-.75-.75.336-.75.75-.75z" transform="translate(-71 -589) translate(71 589)"/>
            </g>
        </g>
    </g>
</svg>
