<svg xmlns="http://www.w3.org/2000/svg" width="32" height="32" viewBox="0 0 32 32">
    <g fill="none" fill-rule="evenodd">
        <g fill="#1362CB" fill-rule="nonzero">
            <g>
                <path d="M16 1.25c1.519 0 2.75 1.231 2.75 2.75 0 .194-.02.384-.058.567 1.239.428 2.24 1.203 2.983 2.316.51.765.889 1.682 1.237 2.954l.147.568c.025.098.049.198.073.3l.145.64.073.34.146.72.433 2.265.116.58.111.527.107.475.105.428c.017.068.034.134.052.198l.103.364.051.168.105.31c.123.342.252.62.395.86.232.388.502.768.833 1.185l.312.37.865 1.067.26.335.187.26.041.063c.554.893.601 1.73-.043 2.49-.055.064-.115.127-.179.19-1.081 1.044-3.681 1.923-6.859 2.401l-.715.1-.027.003.001-.044c0 2.071-1.679 3.75-3.75 3.75-2.023 0-3.671-1.601-3.747-3.606-.25-.024-.497-.052-.743-.08l-.709-.093-.349-.05-.684-.11c-.788-.136-1.537-.294-2.23-.472l-.578-.157c-1.6-.457-2.84-1.023-3.481-1.643-.064-.062-.124-.125-.179-.19-.644-.759-.597-1.596-.043-2.489l.04-.063.189-.26.259-.335.865-1.066.312-.37c.33-.418.6-.798.833-1.187.143-.24.272-.517.395-.859l.105-.31.051-.168.104-.364.051-.198.105-.428.107-.475.111-.526.116-.581.433-2.266.146-.72.073-.339.145-.64c.024-.102.048-.202.073-.3l.147-.568c.348-1.272.727-2.189 1.237-2.954.956-1.434 2.342-2.306 4.111-2.601-.01-.092-.015-.186-.015-.282 0-1.519 1.231-2.75 2.75-2.75zm2.241 25.951l-.375.032c-.624.045-1.258.076-1.898.089v.008l-.346-.005-.408.005v-.009c-.486-.009-.968-.029-1.447-.057.129 1.118 1.08 1.986 2.233 1.986 1.175 0 2.14-.9 2.241-2.049zm-4.39-21.486l-.262.034c-1.408.216-2.454.867-3.186 1.966-.359.538-.653 1.215-.928 2.135l-.136.48-.134.525-.134.57-.134.618-.136.67-.43 2.258-.18.884-.114.524-.112.477-.11.433-.113.395-.114.36-.118.33c-.04.104-.081.205-.124.303l-.13.281c-.068.136-.139.266-.214.391-.215.36-.455.71-.731 1.073l-.266.336-.834 1.011-.461.58-.133.178-.086.124c-.243.391-.25.535-.087.728.022.026.048.053.077.082.469.453 1.474.896 2.812 1.275l.517.14c.177.044.36.089.546.131l.572.125c.194.04.393.08.596.117l.617.108.317.05.645.094.662.083.674.073c.227.022.456.042.686.06l.694.048c.575.035 1.156.056 1.737.063 1.21-.014 2.403-.093 3.533-.222l.674-.084.655-.095c2.8-.437 5.035-1.178 5.85-1.966.03-.029.055-.056.077-.082.164-.193.156-.337-.087-.728l-.086-.124-.133-.177-.46-.58-.835-1.012-.266-.336c-.276-.363-.516-.712-.731-1.073-.075-.125-.146-.255-.213-.39l-.131-.282c-.043-.098-.084-.199-.124-.304l-.118-.33-.114-.36-.112-.394-.111-.433-.112-.477-.114-.524-.18-.884-.43-2.257-.136-.67-.134-.62-.134-.57-.134-.523-.136-.48c-.275-.92-.57-1.598-.928-2.136-.599-.9-1.407-1.497-2.45-1.804-.5.518-1.2.839-1.976.839-.87 0-1.646-.404-2.15-1.035zM16 2.75c-.69 0-1.25.56-1.25 1.25s.56 1.25 1.25 1.25c.577 0 1.062-.39 1.206-.922l.011-.096.011.002c.014-.076.022-.154.022-.234 0-.69-.56-1.25-1.25-1.25z" transform="translate(-424 -719) translate(424 719)"/>
            </g>
        </g>
    </g>
</svg>
