<?xml version="1.0" encoding="UTF-8"?>
<svg width="32px" height="32px" viewBox="0 0 32 32" version="1.1" xmlns="http://www.w3.org/2000/svg" xmlns:xlink="http://www.w3.org/1999/xlink">
    <title>CCD4D498-D201-4299-839E-39C7CED75E24</title>
    <g id="Page-1" stroke="none" stroke-width="1" fill="none" fill-rule="evenodd">
        <g id="Docs-Icons" transform="translate(-69.000000, -728.000000)" fill="#1362CB" fill-rule="nonzero">
            <g id="icon/32/node" transform="translate(69.000000, 728.000000)">
                <path d="M21.5,2.25 C23.8472102,2.25 25.75,4.15278981 25.75,6.5 C25.75,8.84721019 23.8472102,10.75 21.5,10.75 C19.4795583,10.75 17.7884097,9.34012858 17.3566991,7.4505306 L14.0494803,8.00225487 C14.4978903,8.90541351 14.75,9.92326506 14.75,11 C14.75,11.2633615 14.7349174,11.5232003 14.7055688,11.7786998 L22.3517088,13.690148 C22.7115718,12.2870575 23.984677,11.25 25.5,11.25 C27.2949254,11.25 28.75,12.7050746 28.75,14.5 C28.75,16.2949254 27.2949254,17.75 25.5,17.75 C23.9445621,17.75 22.644336,16.6573079 22.3250615,15.1976633 L22.3180983,15.2276069 L14.3692521,13.2405279 C14.2338483,13.6254564 14.0645372,13.9944109 13.8649037,14.3438065 L26.5288679,20.6761658 C26.9542947,20.40628 27.4588968,20.25 28,20.25 C29.5187831,20.25 30.75,21.4812169 30.75,23 C30.75,24.5187831 29.5187831,25.75 28,25.75 C26.4812169,25.75 25.25,24.5187831 25.25,23 C25.25,22.5857864 25.3415781,22.1929621 25.5055919,21.8406694 L12.9659825,15.5718705 C12.4263378,16.157735 11.7843419,16.6478678 11.0683644,17.0138995 L11.1,17.05 L14.1,21.05 C14.1312657,21.0916876 14.1575352,21.1355708 14.178911,21.1809323 C14.9652595,20.5957361 15.9422542,20.25 17,20.25 C19.6233526,20.25 21.75,22.3766474 21.75,25 C21.75,27.6233526 19.6233526,29.75 17,29.75 C14.3766474,29.75 12.25,27.6233526 12.25,25 C12.25,23.9427013 12.5954439,22.9660853 13.1796242,22.1768597 C13.1046163,22.1429877 13.0344472,22.0945987 12.9730032,22.0337844 L12.9,21.95 L9.9,17.95 C9.80295568,17.8206076 9.75404444,17.6700627 9.75020182,17.5198167 C9.19320803,17.6701613 8.60592768,17.75 8,17.75 C7.74659607,17.75 7.49645352,17.7360364 7.25029984,17.7088366 L7.25067984,20.4636225 C8.70681517,20.9786099 9.75,22.3674805 9.75,24 C9.75,26.0710678 8.07106781,27.75 6,27.75 C3.92893219,27.75 2.25,26.0710678 2.25,24 C2.25,22.0127838 3.79573391,20.3865932 5.7504588,20.258171 L5.75,17.5 C5.75,17.4552678 5.75391612,17.4114502 5.76142422,17.3688714 C3.13426579,16.4471913 1.25,13.9436426 1.25,11 C1.25,7.27207794 4.27207794,4.25 8,4.25 C10.0622548,4.25 11.9085065,5.17481878 13.1466444,6.63234548 L17.2863095,5.94194951 C17.5595712,3.85846247 19.3419473,2.25 21.5,2.25 Z M17,21.75 C15.2050746,21.75 13.75,23.2050746 13.75,25 C13.75,26.7949254 15.2050746,28.25 17,28.25 C18.7949254,28.25 20.25,26.7949254 20.25,25 C20.25,23.2050746 18.7949254,21.75 17,21.75 Z M6,21.75 C4.75735931,21.75 3.75,22.7573593 3.75,24 C3.75,25.2426407 4.75735931,26.25 6,26.25 C7.24264069,26.25 8.25,25.2426407 8.25,24 C8.25,22.7573593 7.24264069,21.75 6,21.75 Z M28,21.75 C27.3096441,21.75 26.75,22.3096441 26.75,23 C26.75,23.6903559 27.3096441,24.25 28,24.25 C28.6903559,24.25 29.25,23.6903559 29.25,23 C29.25,22.3096441 28.6903559,21.75 28,21.75 Z M8,5.75 C5.10050506,5.75 2.75,8.10050506 2.75,11 C2.75,13.8994949 5.10050506,16.25 8,16.25 C10.8994949,16.25 13.25,13.8994949 13.25,11 C13.25,8.10050506 10.8994949,5.75 8,5.75 Z M25.5,12.75 C24.5335017,12.75 23.75,13.5335017 23.75,14.5 C23.75,15.4664983 24.5335017,16.25 25.5,16.25 C26.4664983,16.25 27.25,15.4664983 27.25,14.5 C27.25,13.5335017 26.4664983,12.75 25.5,12.75 Z M8,7.25 C10.0710678,7.25 11.75,8.92893219 11.75,11 C11.75,13.0710678 10.0710678,14.75 8,14.75 C5.92893219,14.75 4.25,13.0710678 4.25,11 C4.25,8.92893219 5.92893219,7.25 8,7.25 Z M8,8.75 C6.75735931,8.75 5.75,9.75735931 5.75,11 C5.75,12.2426407 6.75735931,13.25 8,13.25 C9.24264069,13.25 10.25,12.2426407 10.25,11 C10.25,9.75735931 9.24264069,8.75 8,8.75 Z M8,10 C8.55228475,10 9,10.4477153 9,11 C9,11.5522847 8.55228475,12 8,12 C7.44771525,12 7,11.5522847 7,11 C7,10.4477153 7.44771525,10 8,10 Z M21.5,3.75 C19.9812169,3.75 18.75,4.98121694 18.75,6.5 C18.75,8.01878306 19.9812169,9.25 21.5,9.25 C23.0187831,9.25 24.25,8.01878306 24.25,6.5 C24.25,4.98121694 23.0187831,3.75 21.5,3.75 Z" id="Combined-Shape"></path>
            </g>
        </g>
    </g>
</svg>