<svg xmlns="http://www.w3.org/2000/svg" width="32" height="29" viewBox="0 0 32 29">
    <g fill="none" fill-rule="evenodd">
        <g fill="#1362CB" fill-rule="nonzero">
            <g>
                <path d="M19 1.25c1.519 0 2.75 1.231 2.75 2.75v.278c5.035.384 9 4.59 9 9.722s-3.965 9.338-9 9.722V24c0 1.519-1.231 2.75-2.75 2.75H5c-1.519 0-2.75-1.231-2.75-2.75V4c0-1.519 1.231-2.75 2.75-2.75zm0 1.5H5c-.69 0-1.25.56-1.25 1.25v20c0 .69.56 1.25 1.25 1.25h14c.69 0 1.25-.56 1.25-1.25V4c0-.69-.56-1.25-1.25-1.25zm2.75 3.034v4.541c1.712.348 3 1.861 3 3.675 0 1.814-1.288 3.327-3 3.675v4.541c4.205-.38 7.5-3.913 7.5-8.216 0-4.303-3.295-7.837-7.5-8.216zM14.93 9.9c.467 0 .857.073 1.17.22.313.147.565.333.755.56.19.227.328.477.415.75.087.273.14.537.16.79h-1.19l-.02-.16c-.025-.154-.065-.293-.12-.415-.073-.163-.17-.302-.29-.415-.12-.113-.255-.198-.405-.255-.15-.057-.308-.085-.475-.085-.153 0-.303.015-.45.045-.147.03-.278.08-.395.15-.117.07-.212.16-.285.27-.073.11-.11.245-.11.405 0 .16.045.3.135.42.09.12.208.225.355.315s.313.168.5.235c.187.067.377.13.57.19.28.087.56.183.84.29.28.107.532.242.755.405.223.163.407.362.55.595.143.233.215.517.215.85 0 .353-.065.662-.195.925s-.31.485-.54.665c-.23.18-.503.315-.82.405-.317.09-.662.135-1.035.135-.34 0-.67-.06-.99-.18-.32-.12-.605-.293-.855-.52-.25-.227-.452-.502-.605-.825-.153-.323-.237-.685-.25-1.085h1.19l.02.172c.027.168.07.325.13.473.08.197.185.367.315.51.13.143.283.255.46.335.177.08.372.12.585.12.187 0 .365-.022.535-.065.17-.043.32-.11.45-.2.13-.09.235-.207.315-.35.08-.143.12-.315.12-.515 0-.16-.045-.298-.135-.415-.09-.117-.207-.218-.35-.305s-.308-.162-.495-.225-.373-.125-.56-.185c-.28-.087-.562-.18-.845-.28-.283-.1-.538-.23-.765-.39-.227-.16-.412-.36-.555-.6-.143-.24-.215-.54-.215-.9 0-.3.058-.567.175-.8.117-.233.282-.428.495-.585.213-.157.468-.275.765-.355.297-.08.622-.12.975-.12zm-6.48.02c.507 0 .958.09 1.355.27.397.18.73.43 1 .75s.475.702.615 1.145c.14.443.21.932.21 1.465s-.07 1.022-.21 1.465c-.14.443-.345.825-.615 1.145-.27.32-.603.568-1 .745-.397.177-.848.265-1.355.265s-.955-.088-1.345-.265c-.39-.177-.72-.425-.99-.745s-.475-.702-.615-1.145c-.14-.443-.21-.932-.21-1.465s.07-1.022.21-1.465c.14-.443.345-.825.615-1.145.27-.32.6-.57.99-.75.39-.18.838-.27 1.345-.27zm0 1c-.28 0-.542.06-.785.18s-.453.292-.63.515c-.177.223-.317.498-.42.825-.103.327-.155.697-.155 1.11 0 .413.052.782.155 1.105.103.323.243.598.42.825.177.227.387.4.63.52s.505.18.785.18.543-.06.79-.18.46-.293.64-.52c.18-.227.322-.502.425-.825.103-.323.155-.692.155-1.105 0-.413-.052-.783-.155-1.11-.103-.327-.245-.602-.425-.825-.18-.223-.393-.395-.64-.515s-.51-.18-.79-.18zm13.3.958v.54c.592.282 1 .884 1 1.582 0 .698-.408 1.3-.999 1.58v.542c.873-.31 1.499-1.142 1.499-2.122s-.626-1.813-1.5-2.122zm3.105-3.74C26.64 9.333 27.75 11.558 27.75 14c0 .414-.336.75-.75.75s-.75-.336-.75-.75c0-1.955-.875-3.708-2.23-4.617-.345-.231-.436-.697-.206-1.041.231-.344.697-.436 1.041-.205z" transform="translate(-1116 -589) translate(1116 589)"/>
            </g>
        </g>
    </g>
</svg>
