<svg xmlns="http://www.w3.org/2000/svg" width="32" height="32" viewBox="0 0 32 32">
    <g fill="none" fill-rule="evenodd">
        <g fill="#1362CB">
            <g transform="translate(-947 -325) translate(947 325)">
                <path fill-rule="nonzero" d="M26.5 22.219c.966 0 1.75.783 1.75 1.75v4c0 .966-.784 1.75-1.75 1.75h-21c-.966 0-1.75-.784-1.75-1.75v-4c0-.967.784-1.75 1.75-1.75zm0 1.5h-21c-.138 0-.25.112-.25.25v4c0 .138.112.25.25.25h21c.138 0 .25-.112.25-.25v-4c0-.138-.112-.25-.25-.25zm0-10.5c.966 0 1.75.783 1.75 1.75v4c0 .966-.784 1.75-1.75 1.75h-21c-.966 0-1.75-.784-1.75-1.75v-4c0-.967.784-1.75 1.75-1.75zm0 1.5h-21c-.138 0-.25.112-.25.25v4c0 .138.112.25.25.25h21c.138 0 .25-.112.25-.25v-4c0-.138-.112-.25-.25-.25zM21.844 2.295l.095.043 2.934 1.557c.214.113.358.323.391.56l.007.102v3.656l3.073 1.59c.338.174.487.569.363.917l-.04.093c-.175.338-.57.487-.918.363l-.093-.041-3.48-1.799c-.217-.113-.364-.324-.398-.562l-.007-.104V5.008l-1.434-.761v2.698c0 .508-.49.859-.96.72l-.093-.034-4.777-2.109L4.314 11.15c-.344.159-.748.034-.946-.277l-.049-.09c-.16-.345-.034-.748.277-.946l.09-.05 12.5-5.769c.163-.075.346-.089.516-.041l.1.036 4.035 1.781V3c0-.53.53-.882 1.007-.705z"/>
                <circle cx="24.5" cy="16.969" r="1"/>
                <circle cx="21.5" cy="16.969" r="1"/>
                <circle cx="24.5" cy="25.969" r="1"/>
                <circle cx="21.5" cy="25.969" r="1"/>
            </g>
        </g>
    </g>
</svg>
