<svg xmlns="http://www.w3.org/2000/svg" width="32" height="32" viewBox="0 0 32 32">
    <g fill="none" fill-rule="evenodd">
        <g fill="#1362CB" fill-rule="nonzero">
            <g>
                <path d="M26.5 23.219c.966 0 1.75.783 1.75 1.75v4c0 .966-.784 1.75-1.75 1.75h-21c-.966 0-1.75-.784-1.75-1.75v-4c0-.967.784-1.75 1.75-1.75zm0 1.5h-21c-.138 0-.25.112-.25.25v4c0 .138.112.25.25.25h21c.138 0 .25-.112.25-.25v-4c0-.138-.112-.25-.25-.25zm-2 1.25c.552 0 1 .447 1 1 0 .552-.448 1-1 1s-1-.448-1-1c0-.553.448-1 1-1zm-3 0c.552 0 1 .447 1 1 0 .552-.448 1-1 1s-1-.448-1-1c0-.553.448-1 1-1zm5-11.75c.966 0 1.75.783 1.75 1.75v4c0 .966-.784 1.75-1.75 1.75h-21c-.966 0-1.75-.784-1.75-1.75v-4c0-.967.784-1.75 1.75-1.75zm0 1.5h-21c-.138 0-.25.112-.25.25v4c0 .138.112.25.25.25h21c.138 0 .25-.112.25-.25v-4c0-.138-.112-.25-.25-.25zm-2 1.25c.552 0 1 .447 1 1 0 .552-.448 1-1 1s-1-.448-1-1c0-.553.448-1 1-1zm-3 0c.552 0 1 .447 1 1 0 .552-.448 1-1 1s-1-.448-1-1c0-.553.448-1 1-1zm5-11.75c.918 0 1.671.707 1.744 1.606l.006.144v4c0 .918-.707 1.67-1.606 1.744l-.144.006h-21c-.918 0-1.671-.707-1.744-1.607l-.006-.143v-1c0-.414.336-.75.75-.75.38 0 .693.282.743.648l.007.102v1c0 .118.082.217.193.243l.057.007h21c.118 0 .217-.082.243-.193l.007-.057v-4c0-.119-.082-.218-.19-.244l-.056-.006-6.5.031c-.415.002-.752-.332-.754-.746-.002-.38.279-.695.645-.747l.101-.007 6.504-.031zm-2 2.75c.552 0 1 .447 1 1 0 .552-.448 1-1 1s-1-.448-1-1c0-.553.448-1 1-1zm-3 0c.552 0 1 .447 1 1 0 .552-.448 1-1 1s-1-.448-1-1c0-.553.448-1 1-1zM11 1c.552 0 1 .448 1 1 0 .279-.114.531-.299.713l1.155 1.908 2.763-1.3c.139-.065.282-.084.416-.066C16.012 3.175 16 3.089 16 3c0-.552.448-1 1-1s1 .448 1 1-.448 1-1 1c-.11 0-.215-.018-.314-.05l.002.008-.002.097-.014.1-1.057 5c-.074.347-.38.595-.734.595H7.116c-.348 0-.65-.24-.73-.578l-1.178-5c-.015-.065-.022-.13-.02-.191l-.071.012L5 4c-.552 0-1-.448-1-1s.448-1 1-1 1 .448 1 1c0 .086-.01.17-.031.25.097.003.198.027.297.076L8.95 4.632l1.341-1.928c-.18-.18-.29-.43-.29-.704 0-.552.448-1 1-1zm-.045 3.376l-1.14 1.64c-.21.303-.611.408-.943.246l-1.843-.897.681 2.885h6.563l.619-2.929-2.008.945c-.312.147-.68.06-.895-.198l-.066-.092-.968-1.6z" transform="translate(-71 -460) translate(71 460)"/>
            </g>
        </g>
    </g>
</svg>
