<svg xmlns="http://www.w3.org/2000/svg" width="32" height="32" viewBox="0 0 32 32">
    <g fill="none" fill-rule="evenodd">
        <g>
            <g transform="translate(-425 -460) translate(425 460)">
                <path stroke="#1362CB" stroke-width="1.5" d="M16.75 25.133h0H5.808c-1.105 0-2-.895-2-2V5.843c0-1.104.895-2 2-2h14.49c1.105 0 2 .896 2 2v9.997h0"/>
                <circle cx="22.135" cy="22.058" r="6.135" stroke="#1362CB" stroke-width="1.5"/>
                <rect width="1.5" height="6.987" x="9.778" y="12.304" fill="#1362CB" rx=".75" transform="rotate(90 10.529 15.798)"/>
                <rect width="1.5" height="12.27" x="12.42" y="5.667" fill="#1362CB" rx=".75" transform="rotate(90 13.17 11.801)"/>
                <rect width="1.5" height="12.27" x="12.42" y="1.67" fill="#1362CB" rx=".75" transform="rotate(90 13.17 7.805)"/>
                <path stroke="#1362CB" stroke-linecap="round" stroke-linejoin="round" stroke-width="1.5" d="M19.13 22.205L21.16 23.846 25.14 20.271"/>
            </g>
        </g>
    </g>
</svg>
