<svg xmlns="http://www.w3.org/2000/svg" width="32" height="32" viewBox="0 0 32 32">
    <g fill="none" fill-rule="evenodd">
        <g fill="#1362CB" fill-rule="nonzero">
            <g>
                <path d="M3 11.33c.38 0 .693.283.743.649l.007.102V25c0 .647.492 1.18 1.122 1.244L5 26.25h13.128c.415 0 .75.336.75.75 0 .38-.282.693-.648.743l-.102.007H5c-1.463 0-2.658-1.142-2.745-2.582L2.25 25V12.08c0-.414.336-.75.75-.75zm20.327 4.338c.276-.557 1.07-.557 1.346 0l1.587 3.219 3.554.517c.58.084.83.758.487 1.2l-.071.079-2.571 2.505.607 3.54c.1.578-.469 1.027-.996.831l-.092-.041L24 25.847l-3.178 1.671c-.52.273-1.122-.128-1.099-.69l.011-.1.606-3.54-2.57-2.505c-.419-.408-.226-1.102.311-1.257l.105-.022 3.553-.517zM24 17.694l-1.09 2.21c-.11.222-.321.376-.566.411l-2.438.354 1.764 1.721c.152.148.233.351.227.56l-.011.104-.417 2.429 2.182-1.147c.187-.098.406-.112.602-.042l.096.042 2.181 1.147-.416-2.43c-.036-.208.018-.42.146-.585l.07-.078 1.763-1.721-2.437-.354c-.21-.03-.395-.147-.512-.32l-.053-.09L24 17.694zm-13.581 2.609c1.708 0 3.314.662 4.518 1.824.298.288.307.763.02 1.061-.289.298-.763.306-1.061.019-.928-.896-2.161-1.404-3.477-1.404-1.282 0-2.487.483-3.407 1.338-.303.282-.778.264-1.06-.04-.282-.303-.264-.777.04-1.06 1.194-1.11 2.762-1.738 4.427-1.738zm-.008-7.835c1.913 0 3.463 1.55 3.463 3.463s-1.55 3.463-3.463 3.463-3.463-1.55-3.463-3.463 1.55-3.463 3.463-3.463zm0 1.5c-1.084 0-1.963.879-1.963 1.963s.879 1.963 1.963 1.963 1.963-.879 1.963-1.963-.879-1.963-1.963-1.963zM16.5 4.75c.38 0 .693.282.743.648l.007.102v2.75H27c1.463 0 2.658 1.142 2.745 2.582l.005.168v6.083c0 .414-.336.75-.75.75-.38 0-.693-.283-.743-.649l-.007-.101V11c0-.647-.492-1.18-1.122-1.244L27 9.75H3c-.414 0-.75-.336-.75-.75 0-.38.282-.693.648-.743L3 8.25h12.75V5.5c0-.414.336-.75.75-.75z" transform="translate(-943 -589) translate(943 589)"/>
            </g>
        </g>
    </g>
</svg>
