<?xml version="1.0" encoding="UTF-8"?>
<svg width="32px" height="32px" viewBox="0 0 32 32" version="1.1" xmlns="http://www.w3.org/2000/svg" xmlns:xlink="http://www.w3.org/1999/xlink">
    <title>0E00A2AF-354D-4E9D-A1A5-F386DCBDA997</title>
    <g id="Page-1" stroke="none" stroke-width="1" fill="none" fill-rule="evenodd">
        <g id="Docs-Icons" transform="translate(-422.000000, -589.000000)" fill="#1362CB">
            <g id="icon/32/reports" transform="translate(422.000000, 589.000000)">
                <path d="M20.4418945,1.734375 C20.6314425,1.734375 20.8139605,1.80614543 20.9527407,1.93525191 L20.9527407,1.93525191 L27.0007876,7.56171676 C27.153305,7.70360289 27.2399414,7.9025294 27.2399414,8.11083984 L27.2399414,8.11083984 L27.2402502,8.37875434 C27.2466652,8.41822086 27.25,8.45872099 27.25,8.5 C27.25,8.54156225 27.2466193,8.58233487 27.2401178,8.62205789 L27.2399414,27.484375 C27.2399414,29.0031581 26.0087245,30.234375 24.4899414,30.234375 L24.4899414,30.234375 L6,30.234375 C4.48121694,30.234375 3.25,29.0031581 3.25,27.484375 L3.25,27.484375 L3.25,4.484375 C3.25,2.96559194 4.48121694,1.734375 6,1.734375 L6,1.734375 Z M19.7987737,3.23338083 L6,3.234375 C5.30964406,3.234375 4.75,3.79401906 4.75,4.484375 L4.75,4.484375 L4.75,27.484375 C4.75,28.1747309 5.30964406,28.734375 6,28.734375 L6,28.734375 L24.4899414,28.734375 C25.1802973,28.734375 25.7399414,28.1747309 25.7399414,27.484375 L25.7399414,27.484375 L25.738,9.249375 L20.5,9.25 L20.5,9.25 C20.1203042,9.25 19.806509,8.96784612 19.7568466,8.60177056 L19.75,8.5 L19.75,3.5 C19.75,3.40609675 19.7672574,3.31622418 19.7987737,3.23338083 Z M8.00332031,23.5268555 C8.41764174,23.5268555 8.75351563,23.8627294 8.75351563,24.2770508 L8.75351563,25.7666992 C8.75351563,26.1810206 8.41764174,26.5168945 8.00332031,26.5168945 C7.58899888,26.5168945 7.253125,26.1810206 7.253125,25.7666992 L7.253125,24.2770508 C7.253125,23.8627294 7.58899888,23.5268555 8.00332031,23.5268555 Z M12.8237109,19.5303711 C13.2380324,19.5303711 13.5739063,19.866245 13.5739063,20.2805664 L13.5739063,25.7666992 C13.5739063,26.1810206 13.2380324,26.5168945 12.8237109,26.5168945 C12.4093895,26.5168945 12.0735156,26.1810206 12.0735156,25.7666992 L12.0735156,20.2805664 C12.0735156,19.866245 12.4093895,19.5303711 12.8237109,19.5303711 Z M22.4644922,19.8948745 C22.8788136,19.8948745 23.2146875,20.2307484 23.2146875,20.6450698 L23.2146875,25.7666992 C23.2146875,26.1810206 22.8788136,26.5168945 22.4644922,26.5168945 C22.0501708,26.5168945 21.7142969,26.1810206 21.7142969,25.7666992 L21.7142969,20.6450698 C21.7142969,20.2307484 22.0501708,19.8948745 22.4644922,19.8948745 Z M17.6441016,21.6848633 C18.058423,21.6848633 18.3942969,22.0207372 18.3942969,22.4350586 L18.3942969,25.7666992 C18.3942969,26.1810206 18.058423,26.5168945 17.6441016,26.5168945 C17.2297801,26.5168945 16.8939063,26.1810206 16.8939063,25.7666992 L16.8939063,22.4350586 C16.8939063,22.0207372 17.2297801,21.6848633 17.6441016,21.6848633 Z M22.9644922,11.7522461 C23.344188,11.7522461 23.6579831,12.0344 23.7076456,12.4004755 L23.7144922,12.5022461 L23.7144922,16.5022461 C23.7144922,16.9164597 23.3787057,17.2522461 22.9644922,17.2522461 C22.5847964,17.2522461 22.2710012,16.9700922 22.2213388,16.6040167 L22.2144922,16.5022461 L22.214,14.151375 L17.360928,17.9639647 C17.1473972,18.1316607 16.8627988,18.169149 16.6164512,18.0694244 L16.5135342,18.0182641 L12.938,15.885 L8.4974396,20.2721484 C8.22954427,20.5367761 7.81273991,20.5584251 7.52047067,20.3387732 L7.4367994,20.2656403 C7.17217162,19.997745 7.15052262,19.5809406 7.37017454,19.2886714 L7.44330747,19.2050001 L12.2966449,14.4108595 C12.5127266,14.1974133 12.8327705,14.137776 13.1073343,14.250081 L13.207872,14.3002906 L16.839,16.466 L20.932,13.251375 L18.9644922,13.2522461 C18.5847964,13.2522461 18.2710012,12.9700922 18.2213388,12.6040167 L18.2144922,12.5022461 C18.2144922,12.1225503 18.4966461,11.8087551 18.8627216,11.7590927 L18.9644922,11.7522461 L22.9644922,11.7522461 Z M21.25,4.259375 L21.25,7.749375 L25.001,7.749375 L21.25,4.259375 Z" id="Combined-Shape"></path>
            </g>
        </g>
    </g>
</svg>