<svg xmlns="http://www.w3.org/2000/svg" width="32" height="32" viewBox="0 0 32 32">
    <g fill="none" fill-rule="evenodd">
        <g fill="#1362CB" fill-rule="nonzero">
            <g>
                <path d="M22 2.25c.414 0 .75.336.75.75 0 .38-.282.693-.648.743L22 3.75H7c-.647 0-1.18.492-1.244 1.122L5.75 5v22c0 .647.492 1.18 1.122 1.244L7 28.25h15c.647 0 1.18-.492 1.244-1.122L23.25 27v-8.22c0-.415.336-.75.75-.75.38 0 .693.281.743.647l.007.102V27c0 1.463-1.142 2.658-2.582 2.745L22 29.75H7c-1.463 0-2.658-1.142-2.745-2.582L4.25 27V5c0-1.463 1.142-2.658 2.582-2.745L7 2.25h15zm2.797 2.594c.684-.683 1.792-.683 2.475 0l2.677 2.677c.683.684.683 1.792 0 2.475L17.454 22.491c-.245.244-.544.402-.858.471l-6.2 2.405c-.577.224-1.145-.305-.999-.879l.031-.096 2.373-6.01c.033-.304.147-.6.34-.856l-.012.026c.068-.172.193-.305.345-.386zM12.693 20.205l-1.24 3.142 3.157-1.225-1.917-1.917zM23.58 8.183L13.435 18.328l-.131.33c.005.015.01.029.018.042l.041.054 2.677 2.676c.047.047.107.071.168.073l.07-.027.093-.03.022-.016L26.61 11.213l-3.03-3.03zM10 13.75c.414 0 .75.336.75.75 0 .38-.282.693-.648.743L10 15.25H8.5c-.414 0-.75-.336-.75-.75 0-.38.282-.693.648-.743l.102-.007H10zm3.5-3c.414 0 .75.336.75.75 0 .38-.282.693-.648.743l-.102.007h-5c-.414 0-.75-.336-.75-.75 0-.38.282-.693.648-.743l.102-.007h5zm12.711-4.845c-.097-.097-.255-.097-.353 0L24.64 7.122l3.031 3.03 1.217-1.217c.082-.081.095-.204.04-.3l-.04-.053zM16.55 7.5c.414 0 .75.336.75.75 0 .38-.282.693-.648.743L16.55 9h-8.1c-.414 0-.75-.336-.75-.75 0-.38.282-.693.648-.743L8.45 7.5h8.1z" transform="translate(-947 -719) translate(947 719)"/>
            </g>
        </g>
    </g>
</svg>
