<svg xmlns="http://www.w3.org/2000/svg" width="32" height="32" viewBox="0 0 32 32">
    <g fill="none" fill-rule="evenodd">
        <g>
            <g>
                <g>
                    <g>
                        <path fill="#1362CB" stroke="#1362CB" stroke-linecap="round" stroke-linejoin="round" stroke-width=".6" d="M22.254 21.27l-.98.985c-.564.566-1.546.563-2.11 0l-7.142-7.156c-.58-.582-.581-1.532 0-2.114l.982-.981c.28-.282.655-.439 1.053-.439.4 0 .775.157 1.056.439l7.141 7.151c.283.286.44.66.438 1.059 0 .4-.154.775-.438 1.057m-6.626-9.78c-.839-.841-2.303-.84-3.14 0l-.98.981c-.863.866-.863 2.274 0 3.143l7.143 7.153c.42.42.978.652 1.568.65.593.002 1.15-.23 1.57-.65l.98-.983c.42-.419.651-.975.65-1.571 0-.593-.232-1.152-.65-1.572l-7.14-7.152z" transform="translate(-420 -47) translate(420 47) translate(3 3.5) translate(1 .733)"/>
                    </g>
                    <path fill="#1362CB" stroke="#1362CB" stroke-linecap="round" stroke-linejoin="round" stroke-width=".6" d="M2.747.84c.119-.118.302-.14.444-.054h0l2.461 1.478c.024.014.049.034.068.054.527.527.728 1.254.613 1.938.015.01.032.015.045.029h0l6.842 6.845-.513.513-.012-.01-6.574-6.576-.798.8 6.577 6.572.012.011-.515.516-6.845-6.843c-.013-.013-.017-.03-.026-.043-.125.02-.248.036-.375.036h0c-.594 0-1.151-.23-1.57-.65-.022-.02-.04-.045-.054-.07h0L1.052 2.926c-.086-.143-.064-.327.055-.443h0zm.314.715l-1.24 1.24 1.303 2.178c.279.263.642.407 1.026.407h0c.4 0 .774-.155 1.055-.436.572-.575.583-1.5.031-2.083h0L3.061 1.555z" transform="translate(-420 -47) translate(420 47) translate(3 3.5)"/>
                    <path fill="#1362CB" fill-rule="nonzero" d="M9.221 12.06l-3.087 3.047.158.025c-1.533-.275-3.115.209-4.211 1.29-1.311 1.303-1.733 3.26-1.074 4.986.08.211.262.368.485.418.221.05.454-.02.617-.18l2.135-2.107c.096-.096.276-.097.37-.004l1.062 1.047c.05.048.075.109.075.178 0 .067-.027.132-.075.178L3.538 23.05c-.164.166-.232.397-.18.62.042.215.203.4.418.48.539.201 1.105.302 1.682.302 1.269 0 2.462-.485 3.357-1.369l.17-.177c.933-1.023 1.36-2.383 1.177-3.75l-.014-.082 1.923-1.896c.109-.107.12-.278.026-.398-.136-.175-.253-.372-.357-.598-.087-.189-.335-.234-.483-.088l-2.31 2.282c-.164.164-.233.4-.18.625.267 1.142-.07 2.313-.9 3.133l-.154.143c-.635.55-1.464.848-2.303.838l-.028-.001 1.241-1.226c.305-.3.474-.701.474-1.127-.002-.428-.17-.83-.473-1.126l-1.06-1.045-.12-.106c-.62-.495-1.583-.46-2.153.11l-1.245 1.229v-.033c-.013-.896.336-1.776.986-2.422.766-.754 1.883-1.1 2.966-.93l.217.04c.214.054.451-.014.618-.172l3.338-3.298c.119-.118.119-.31 0-.427l-.528-.52c-.117-.116-.305-.116-.422 0z" transform="translate(-420 -47) translate(420 47) translate(3 3.5)"/>
                    <path fill="#1362CB" stroke="#1362CB" stroke-linecap="round" stroke-linejoin="round" stroke-width=".6" d="M13.063 9.674l3.26-3.297c.09-.091.127-.223.1-.349-.285-1.265.08-2.563.978-3.468.866-.877 2.13-1.256 3.322-1.01L19.05 3.243c-.247.253-.384.587-.38.94.001.346.135.673.379.917l1.05 1.062c.488.493 1.344.495 1.831 0l1.677-1.693c.24 1.206-.125 2.478-1 3.364-.886.896-2.201 1.27-3.428.987-.125-.03-.255.01-.345.101l-2.25 2.278c.234.105.45.24.653.395l1.98-2.004c1.425.26 2.898-.202 3.913-1.228 1.22-1.237 1.615-3.096 1.005-4.74-.045-.117-.146-.206-.268-.234-.122-.023-.252.012-.34.103l-2.118 2.14c-.21.213-.578.215-.787.002L19.57 4.569c-.104-.105-.161-.243-.161-.39-.001-.155.056-.3.164-.407l2.113-2.14c.09-.091.128-.22.1-.346-.026-.122-.113-.224-.231-.271-1.6-.61-3.468-.209-4.678 1.017-1.03 1.038-1.478 2.504-1.218 3.957l-3.12 3.156.523.529z" transform="translate(-420 -47) translate(420 47) translate(3 3.5)"/>
                    <path fill="#1362CB" stroke="#1362CB" stroke-linecap="round" stroke-linejoin="round" stroke-width=".5" d="M14.865 14.077c-.145-.144-.378-.142-.52 0-.145.145-.145.375 0 .52l7.071 7.071c.071.076.164.108.26.108.092 0 .188-.032.259-.108.143-.142.143-.374 0-.517l-7.07-7.074z" transform="translate(-420 -47) translate(420 47) translate(3 3.5)"/>
                </g>
            </g>
        </g>
    </g>
</svg>
