<svg xmlns="http://www.w3.org/2000/svg" width="32" height="32" viewBox="0 0 32 32">
    <g fill="none" fill-rule="evenodd">
        <g fill="#1362CB" fill-rule="nonzero">
            <g>
                <g>
                    <path d="M19.982 4.66c.474 0 .883.316 1.003.756l.024.113.226 1.349.011.003c.092.027.184.056.275.087l.27.097c.282.108.555.233.82.374l.023.014 1.176-.841c.166-.101.352-.156.545-.156.231 0 .453.076.634.215l.104.091 1.154 1.154c.313.315.388.787.202 1.18l-.063.116-.829 1.165.026.047.148.294.135.301c.088.212.167.43.236.652l.019.065 1.348.229c.47.072.824.45.876.912l.006.117v1.592c0 .487-.267.867-.74 1.025l-.134.037-1.361.227-.017.065c-.034.11-.07.217-.11.325l-.123.318c-.086.205-.18.406-.284.6l-.03.05.806 1.135c.264.377.244.883-.035 1.24l-.082.094-1.155 1.154c-.184.183-.434.303-.735.303-.176 0-.347-.044-.497-.126l-.107-.069-1.123-.799-.038.023c-.094.05-.19.098-.286.144l-.293.132c-.217.092-.439.173-.667.244l-.075.021-.227 1.349c-.072.47-.45.823-.912.875l-.117.007h-1.627c-.474 0-.883-.317-1.003-.758l-.024-.113-.228-1.361-.047-.012c-.104-.032-.207-.067-.31-.103l-.305-.118c-.203-.083-.402-.175-.597-.276l-.056-.03-1.198.85c-.166.1-.351.155-.544.155-.231 0-.453-.077-.634-.216l-.104-.09-1.15-1.151c-.322-.321-.393-.802-.182-1.223l.065-.113.799-1.123-.018-.031c-.1-.184-.19-.371-.273-.561l-.118-.287c-.03-.081-.06-.163-.088-.244l-.076-.235-1.368-.233c-.322-.055-.548-.337-.541-.654l.009-.096c.055-.322.337-.548.654-.54l.096.009 1.631.277c.34.059.612.312.705.652.053.201.117.401.192.599.12.314.27.621.451.922.153.262.16.583.024.85l-.067.112-.824 1.152.844.844 1.17-.83.053-.036.004-.011.03-.011c.103-.056.21-.09.318-.103l.018-.002.034-.01c.15-.043.195-.047.227-.028l.032.028.075.031.166.092c.238.136.483.256.733.358.25.103.505.187.759.253.3.077.534.305.624.597l.027.112.234 1.405h1.189l.237-1.398c.048-.31.256-.567.538-.68l.108-.034c.285-.074.561-.167.828-.28.242-.102.475-.22.702-.355.136-.08.292-.123.45-.123.146 0 .29.036.416.105l.092.057 1.163.828.843-.843-.83-1.169c-.174-.249-.207-.565-.093-.843l.058-.117c.137-.23.26-.473.364-.725.108-.257.197-.524.267-.796.077-.3.305-.534.596-.623l.112-.027 1.41-.234v-1.19l-1.398-.236c-.31-.048-.567-.256-.68-.538l-.035-.108c-.072-.278-.162-.548-.271-.809-.105-.249-.226-.489-.364-.722-.153-.26-.162-.583-.027-.847l.067-.11.828-1.163-.842-.843-1.16.833c-.118.084-.255.136-.398.154l-.108.007c-.158 0-.313-.043-.45-.123-.283-.167-.58-.31-.886-.428-.22-.084-.446-.155-.675-.213-.303-.076-.538-.306-.628-.599l-.027-.112-.234-1.396h-1.191l-.24 1.422c-.053.302-.259.55-.542.667l-.11.038c-.261.067-.52.155-.773.261-.33.14-.712-.015-.851-.346-.14-.331.016-.712.347-.852.207-.087.418-.164.628-.23l.062-.018.233-1.36c.072-.47.449-.823.912-.875l.117-.006h1.627zm-.78 5.128c2.22 0 4.02 1.8 4.02 4.02 0 2.22-1.8 4.02-4.02 4.02-2.221 0-4.021-1.8-4.021-4.02 0-2.22 1.8-4.02 4.02-4.02zm0 1.3c-1.503 0-2.721 1.218-2.721 2.72 0 1.502 1.218 2.72 2.72 2.72 1.503 0 2.72-1.218 2.72-2.72 0-1.502-1.217-2.72-2.72-2.72zM8.44.4c.45 0 .834.326.9.763l.174 1.033.185.059.22.08c.305.116.598.257.878.422l-.238-.131.901-.645c.075-.045.154-.08.235-.104l.123-.027.128-.01c.243 0 .475.097.647.269l.925.925c.303.304.352.775.123 1.137l-.638.897.117.234.11.245c.036.086.07.174.102.262l.092.275 1.03.174c.41.063.72.39.768.792l.007.111v1.276c0 .463-.28.819-.767.93l-1.041.173c-.03.095-.059.183-.09.27l-.101.259c-.035.083-.072.166-.11.247l-.12.239.617.87c.229.328.214.767-.025 1.08l-.078.09-.926.925c-.162.16-.381.266-.645.266-.193 0-.38-.06-.53-.17l-.859-.612-.222.112-.238.107c-.088.037-.177.072-.267.105l-.289.097-.174 1.031c-.063.41-.39.718-.791.767l-.112.007H7.158c-.45 0-.834-.326-.902-.764l-.173-1.042-.244-.08-.248-.096c-.082-.034-.164-.069-.245-.106l-.243-.12-.917.652c-.113.068-.232.113-.358.131l-.127.01c-.244 0-.475-.097-.647-.27l-.923-.922c-.306-.306-.355-.78-.122-1.144l.633-.89-.032-.056c-.052-.1-.102-.201-.148-.304l-.13-.31-.071-.198-.047-.145-1.04-.177c-.41-.063-.719-.39-.767-.791L.4 8.496V7.192c0-.45.325-.833.763-.901l1.032-.174c.028-.09.057-.178.087-.264l.098-.257c.034-.085.07-.168.109-.251l.119-.243-.622-.875c-.232-.33-.217-.771.023-1.084l.078-.09.923-.922c.162-.162.382-.269.648-.269.193 0 .38.061.53.171l.853.608.249-.126.25-.113c.085-.035.17-.069.255-.1l.261-.089.177-1.039c.063-.41.39-.719.792-.767L7.136.4zm-.242 1.2h-.822l-.182 1.074c-.046.265-.224.484-.47.59l-.11.038c-.206.053-.41.122-.609.206-.2.085-.396.184-.59.3-.121.072-.26.109-.4.109-.163 0-.321-.05-.458-.146l-.871-.621-.581.581.63.885c.158.22.191.504.091.751l-.05.103c-.109.185-.204.378-.286.579-.082.201-.15.41-.205.625-.076.304-.326.531-.634.584L1.6 7.434v.82l1.074.184c.265.045.483.224.59.47l.038.11c.041.159.092.316.151.472.095.248.213.49.356.728.156.266.141.601-.038.856l-.622.87.582.582.882-.627.04-.032.021-.008.023-.013c.087-.048.182-.078.279-.09l.041-.004.1-.026c.083-.02.106-.012.13.01l.014.014.034.013.068.033.294.162c.127.066.257.126.389.18.197.08.397.147.597.2.302.076.528.323.58.63L7.4 14.03h.82l.179-1.054c.042-.276.228-.505.48-.605l.096-.032c.225-.058.443-.132.653-.22.19-.081.375-.174.553-.28.122-.072.26-.11.401-.11.163 0 .322.05.453.145l.878.625.582-.582-.626-.883c-.156-.221-.185-.503-.084-.751l.051-.104c.109-.182.205-.373.287-.571.085-.203.156-.414.211-.628.077-.301.324-.527.631-.579l1.064-.177v-.821l-1.054-.177c-.276-.043-.505-.229-.606-.48l-.03-.097c-.058-.219-.13-.432-.215-.637-.082-.196-.177-.386-.287-.57-.156-.265-.144-.603.036-.852l.625-.879-.581-.582-.875.63c-.099.07-.213.115-.331.134l-.12.01c-.142 0-.28-.039-.401-.11-.223-.132-.457-.244-.7-.337-.173-.067-.351-.123-.53-.168-.305-.076-.533-.326-.585-.634L8.2 1.6zm-.384 2.912c1.824 0 3.302 1.478 3.302 3.302 0 1.823-1.478 3.302-3.302 3.302S4.513 9.637 4.513 7.814c0-1.824 1.478-3.302 3.302-3.302zm0 1.2c-1.161 0-2.102.94-2.102 2.102 0 1.16.94 2.102 2.102 2.102 1.16 0 2.102-.941 2.102-2.102s-.941-2.102-2.102-2.102z" transform="translate(-594 -460) translate(594 460) translate(2 5)"/>
                </g>
            </g>
        </g>
    </g>
</svg>
