<svg xmlns="http://www.w3.org/2000/svg" width="32" height="32" viewBox="0 0 32 32">
    <g fill="none" fill-rule="evenodd">
        <g fill="#1362CB" fill-rule="nonzero">
            <g>
                <g>
                    <path d="M11.387.743c.765-.365 1.654-.356 2.412.023l8.954 4.477c.895.447 1.476 1.345 1.518 2.344.134 3.211-.073 6.137-.623 8.779-.52 2.492-2.833 5.11-6.92 7.92l-.74.498c-.506.333-1.036.67-1.59 1.008l-.411.249c-.857.514-1.925.523-2.79.024-6.043-3.486-9.45-6.671-10.2-9.67-.665-2.661-.885-5.607-.663-8.838.068-.99.664-1.868 1.56-2.294zm1.741 1.364c-.344-.172-.749-.176-1.096-.01L2.54 6.617c-.408.194-.68.593-.71 1.043-.212 3.08-.003 5.87.622 8.37.576 2.305 3.33 5.009 8.281 8.018l.8.477.414.24c.393.228.878.224 1.265-.009l.802-.49.766-.485c4.478-2.894 6.936-5.496 7.4-7.721.523-2.515.721-5.318.592-8.41-.02-.454-.283-.862-.69-1.066z" transform="translate(-72 -325) translate(72 325) translate(3.696 2)"/>
                    <g>
                        <path d="M3.904.25c2.017 0 3.653 1.636 3.653 3.654 0 1.775-1.266 3.254-2.945 3.584v3.443c.004.034.007.068.007.102l-.007.102v1.119c0 .414-.336.75-.75.75-.38 0-.694-.282-.744-.648l-.007-.102v-.471h-.994c-.415 0-.75-.336-.75-.75 0-.38.282-.693.648-.743l.102-.007h.994V7.471C1.535 7.122.341 5.756.255 4.098L.25 3.904C.25 1.886 1.886.25 3.904.25zm0 1.5c-1.19 0-2.154.964-2.154 2.154 0 1.189.964 2.153 2.154 2.153 1.189 0 2.153-.964 2.153-2.153 0-1.19-.964-2.154-2.153-2.154z" transform="translate(-72 -325) translate(72 325) translate(3.696 2) translate(8.69 6.547)"/>
                    </g>
                </g>
            </g>
        </g>
    </g>
</svg>
