<svg xmlns="http://www.w3.org/2000/svg" width="32" height="32" viewBox="0 0 32 32">
    <g fill="none" fill-rule="evenodd">
        <g fill="#1362CB">
            <g transform="translate(-1116 -460) translate(1116 460)">
                <path fill-rule="nonzero" d="M26.5 21.219c.966 0 1.75.783 1.75 1.75v4c0 .966-.784 1.75-1.75 1.75h-21c-.966 0-1.75-.784-1.75-1.75v-4c0-.967.784-1.75 1.75-1.75zm0 1.5h-21c-.138 0-.25.112-.25.25v4c0 .138.112.25.25.25h21c.138 0 .25-.112.25-.25v-4c0-.138-.112-.25-.25-.25zm0-10.5c.966 0 1.75.783 1.75 1.75v4c0 .966-.784 1.75-1.75 1.75h-21c-.966 0-1.75-.784-1.75-1.75v-4c0-.967.784-1.75 1.75-1.75zm0 1.5h-21c-.138 0-.25.112-.25.25v4c0 .138.112.25.25.25h21c.138 0 .25-.112.25-.25v-4c0-.138-.112-.25-.25-.25zm0-10.5c.966 0 1.75.783 1.75 1.75v4c0 .966-.784 1.75-1.75 1.75h-21c-.966 0-1.75-.784-1.75-1.75v-4c0-.967.784-1.75 1.75-1.75zm0 1.5h-21c-.138 0-.25.112-.25.25v4c0 .138.112.25.25.25h21c.138 0 .25-.112.25-.25v-4c0-.138-.112-.25-.25-.25z"/>
                <circle cx="24.5" cy="15.969" r="1"/>
                <circle cx="21.5" cy="15.969" r="1"/>
                <circle cx="24.5" cy="6.969" r="1"/>
                <circle cx="21.5" cy="6.969" r="1"/>
                <circle cx="24.5" cy="24.969" r="1"/>
                <circle cx="21.5" cy="24.969" r="1"/>
            </g>
        </g>
    </g>
</svg>
