<svg xmlns="http://www.w3.org/2000/svg" width="32" height="32" viewBox="0 0 32 32">
    <g fill="none" fill-rule="evenodd">
        <g fill="#1362CB" fill-rule="nonzero">
            <g>
                <path d="M14.62 4.341c1.033-.498 2.237-.495 3.268.006l7.866 3.828c.943.458 1.543 1.413 1.547 2.462.011 2.82-.088 4.927-.3 6.332-.705 4.65-4.251 8.248-10.524 10.793-.188.077-.398.074-.584-.008-6.598-2.9-10.139-6.5-10.486-10.837-.165-2.054-.26-4.133-.285-6.24-.012-1.068.594-2.047 1.557-2.51zm2.612 1.355c-.619-.3-1.34-.302-1.96-.004L7.33 9.518c-.438.21-.714.656-.708 1.141.025 2.073.118 4.119.28 6.138.282 3.516 3.18 6.603 8.81 9.229l.495.225.503-.215c5.192-2.273 8.082-5.279 8.761-9.017l.046-.275c.177-1.167.272-2.907.284-5.211v-.89c-.002-.477-.274-.911-.703-1.12zm4.79 6.345c.266.268.29.684.07.977l-.072.084-6.135 6.097c-.266.265-.682.289-.975.072l-.083-.073-3.584-3.577c-.293-.292-.294-.767-.001-1.06.266-.267.683-.291.976-.074l.085.073 3.054 3.048 5.605-5.57c.294-.292.769-.29 1.06.003z" transform="translate(-768 -195) translate(768 195)"/>
            </g>
        </g>
    </g>
</svg>
