<svg xmlns="http://www.w3.org/2000/svg" width="32" height="32" viewBox="0 0 32 32">
    <g fill="none" fill-rule="evenodd">
        <g fill="#1362CB" fill-rule="nonzero">
            <g>
                <path d="M15 1.25c5.385 0 9.75 4.365 9.75 9.75 0 .595-.053 1.177-.155 1.742.07.092.123.197.155.311l.025.114.18 1.073.182.058.232.083c.214.082.422.176.625.28l.039.021.944-.674c.155-.095.33-.146.512-.146.217 0 .426.071.596.202l.098.085.97.971c.295.297.365.74.191 1.11l-.06.11-.663.932.119.234.115.259c.038.09.074.182.108.275l.092.277 1.07.181c.439.068.77.418.822.849l.007.12v1.338c0 .454-.252.813-.696.96l-.125.036-1.081.18-.09.272-.107.272-.116.26-.121.241.641.903c.246.352.23.823-.027 1.158l-.084.096-.971.971c-.174.173-.409.285-.691.285-.166 0-.327-.041-.468-.118l-.1-.065-.893-.635-.22.113-.252.113-.281.11-.292.099-.18 1.07c-.068.438-.418.77-.85.821l-.118.007h-1.37c-.442 0-.824-.293-.94-.703l-.025-.115-.181-1.082-.244-.08-.262-.1-.257-.113-.246-.12-.961.683c-.155.093-.33.145-.511.145-.218 0-.427-.072-.597-.203l-.097-.085-.969-.969c-.297-.297-.368-.744-.19-1.116l.06-.109.656-.924-.106-.207-.112-.242-.1-.246-.076-.209-.045-.14-1.08-.184c-.439-.067-.77-.418-.822-.848l-.007-.12c0-.042.004-.084.012-.125l-.09.004-.272.004c-1.076 0-2.112-.174-3.08-.497l-.043.09L6.059 30.84c-.184.332-.583.47-.927.335l-.093-.043-2.623-1.455c-.332-.184-.47-.583-.336-.927l.043-.092L7.941 18.16c.052-.093.12-.171.2-.232C6.357 16.163 5.25 13.71 5.25 11c0-5.385 4.365-9.75 9.75-9.75zM9.256 18.88l-.003.009-5.454 9.838 1.312.727 5.423-9.785c-.447-.23-.874-.495-1.278-.79zm14.601-3.802l-.003.011c-.259.559-.568 1.089-.923 1.584l.03-.003.191-.005c1.925 0 3.486 1.56 3.486 3.486 0 1.925-1.56 3.486-3.486 3.486-1.925 0-3.486-1.56-3.486-3.486 0-.212.02-.419.055-.62-.927.516-1.948.884-3.03 1.073l1.069.182c.29.05.528.247.64.519l.036.105c.043.166.095.33.157.493.1.259.223.512.373.76.146.252.153.559.022.815l-.064.107-.642.898.587.587.91-.647.04-.026.002-.008.02-.006.029-.018c.093-.052.196-.084.3-.097l.047-.003c.183-.053.213-.048.248-.015l.014.013.07.03.15.081c.196.113.398.212.604.296.206.085.416.154.625.209.288.073.512.291.598.571l.026.108.182 1.096h.826l.185-1.089c.046-.297.246-.544.516-.652l.104-.033c.235-.06.463-.138.682-.23.2-.085.392-.182.579-.294.13-.076.28-.117.43-.117.14 0 .278.035.4.1l.087.056.908.646.586-.587-.647-.913c-.168-.238-.199-.54-.09-.807l.055-.112c.114-.19.214-.39.3-.597.089-.212.163-.432.22-.656.074-.288.292-.512.572-.597l.107-.026 1.1-.183v-.827l-1.09-.183c-.296-.046-.543-.246-.65-.516l-.034-.104c-.06-.23-.134-.452-.224-.666-.086-.205-.186-.403-.3-.596-.147-.25-.155-.559-.025-.812l.064-.104.646-.908-.586-.586-.904.65c-.114.08-.245.13-.382.148l-.104.006c-.152 0-.3-.04-.43-.118-.234-.137-.478-.255-.731-.352-.182-.07-.368-.128-.556-.175-.204-.052-.377-.176-.49-.342zm-.705 2.887c-1.207 0-2.186.979-2.186 2.186 0 1.207.979 2.186 2.186 2.186 1.207 0 2.186-.979 2.186-2.186 0-1.207-.979-2.186-2.186-2.186zM15 2.75c-4.556 0-8.25 3.694-8.25 8.25s3.694 8.25 8.25 8.25 8.25-3.694 8.25-8.25S19.556 2.75 15 2.75z" transform="translate(-72 -195) translate(72 195)"/>
                <path d="M15.5 12.725l.554-6.005h-2.095l.447 6.005H15.5zm-.5 3.434c.415 0 .737-.107.968-.32.23-.215.346-.512.346-.893 0-.385-.111-.684-.333-.898-.222-.214-.55-.32-.981-.32-.436 0-.768.106-.997.32-.228.214-.342.513-.342.898 0 .381.118.678.355.892.237.214.565.32.984.32z" transform="translate(-72 -195) translate(72 195)"/>
            </g>
        </g>
    </g>
</svg>
