<svg xmlns="http://www.w3.org/2000/svg" width="32" height="32" viewBox="0 0 32 32">
    <defs>
        
    </defs>
    <g fill="none" fill-rule="evenodd">
        <g>
            <g>
                <g transform="translate(-594 -195) translate(594 195) translate(0 1.5)">
                    <g fill="#1362CB" fill-rule="nonzero">
                        <path d="M13.537 4.287c-2.535 0-4.59 2.055-4.59 4.59 0 2.534 2.055 4.589 4.59 4.589 2.535 0 4.59-2.055 4.59-4.59 0-2.534-2.055-4.589-4.59-4.589zm0 1.5c1.706 0 3.09 1.383 3.09 3.09 0 1.706-1.384 3.089-3.09 3.089s-3.09-1.383-3.09-3.09c0-1.706 1.384-3.089 3.09-3.089zM13.537 14.868c4.76 0 8.646 3.663 8.786 8.247l.004.255h-1.5c0-3.86-3.258-7.002-7.29-7.002-3.95 0-7.156 3.014-7.286 6.767l-.004.235h-1.5c0-4.702 3.942-8.502 8.79-8.502z" transform="translate(2 2)"/>
                        <path d="M13.537 0C6.061 0 0 6.06 0 13.537c0 7.476 6.06 13.537 13.537 13.537 7.476 0 13.537-6.06 13.537-13.537C27.074 6.061 21.014 0 13.537 0zm0 1.5c6.648 0 12.037 5.39 12.037 12.037 0 6.648-5.389 12.037-12.037 12.037C6.89 25.574 1.5 20.185 1.5 13.537 1.5 6.89 6.89 1.5 13.537 1.5z" transform="translate(2 2)"/>
                    </g>
                </g>
            </g>
        </g>
    </g>
</svg>
