<svg xmlns="http://www.w3.org/2000/svg" width="32" height="32" viewBox="0 0 32 32">
    <g fill="none" fill-rule="evenodd">
        <g fill="#1362CB" fill-rule="nonzero">
            <g>
                <path d="M27 3.25c1.519 0 2.75 1.231 2.75 2.75v20c0 1.519-1.231 2.75-2.75 2.75H5c-1.519 0-2.75-1.231-2.75-2.75V6c0-1.519 1.231-2.75 2.75-2.75zm0 1.5H5c-.69 0-1.25.56-1.25 1.25v20c0 .69.56 1.25 1.25 1.25h22c.69 0 1.25-.56 1.25-1.25V6c0-.69-.56-1.25-1.25-1.25zm-4 2.5c1.463 0 2.658 1.142 2.745 2.582l.005.168v12c0 1.463-1.142 2.658-2.582 2.745L23 24.75H9c-1.463 0-2.658-1.142-2.745-2.582L6.25 22v-1.835c0-.415.336-.75.75-.75.38 0 .693.282.743.648l.007.102V22c0 .647.492 1.18 1.122 1.244L9 23.25h14c.647 0 1.18-.492 1.244-1.122L24.25 22V10c0-.647-.492-1.18-1.122-1.244L23 8.75H9c-.647 0-1.18.492-1.244 1.122L7.75 10v2.1c0 .413-.336.75-.75.75-.38 0-.693-.283-.743-.65l-.007-.1V10c0-1.463 1.142-2.658 2.582-2.745L9 7.25h14zm-2.844 3.583c.282-.145.638-.1.874.137.293.293.293.767 0 1.06l-1.901 1.902c.392.593.621 1.304.621 2.068s-.229 1.475-.621 2.068l1.901 1.902c.293.293.293.767 0 1.06-.266.267-.683.29-.976.073l-.084-.073-1.902-1.901c-.593.392-1.304.621-2.068.621s-1.475-.229-2.068-.621L12.03 21.03l-.084.073c-.293.218-.71.194-.976-.073-.293-.293-.293-.767 0-1.06l1.901-1.902c-.392-.593-.621-1.304-.621-2.068s.229-1.475.621-2.068L10.97 12.03c-.293-.293-.293-.767 0-1.06.236-.237.592-.282.874-.137l.102.064.084.073 1.902 1.901c.593-.392 1.304-.621 2.068-.621s1.475.229 2.068.621l1.902-1.901.084-.073zM16 13.75c-1.243 0-2.25 1.007-2.25 2.25s1.007 2.25 2.25 2.25 2.25-1.007 2.25-2.25-1.007-2.25-2.25-2.25zm-9 .62c.38 0 .693.281.743.647l.007.102v2.259c0 .414-.336.75-.75.75-.38 0-.693-.282-.743-.648l-.007-.102v-2.259c0-.414.336-.75.75-.75z" transform="translate(-1116 -195) translate(1116 195)"/>
            </g>
        </g>
    </g>
</svg>
