<svg xmlns="http://www.w3.org/2000/svg" width="33" height="32" viewBox="0 0 33 32">
    <g fill="none" fill-rule="evenodd">
        <g fill="#1362CB" fill-rule="nonzero">
            <g>
                <path d="M27.86 17.987c.404.094.655.497.562.9-1.058 4.567-4.565 8.189-9.06 9.415l.668.668.073.084c.218.293.194.71-.073.976-.266.267-.683.29-.976.073l-.084-.073-2-2c-.267-.266-.29-.683-.073-.976l.073-.084 2-2 .084-.073c.293-.218.71-.194.976.073.267.266.29.683.073.976l-.073.084-.725.727c3.802-1.167 6.75-4.296 7.655-8.208.094-.404.497-.655.9-.562zM5.03 16.97l2 2c.293.293.293.767 0 1.06-.266.267-.683.29-.976.073l-.084-.073-.727-.726c1.252 4.085 4.761 7.161 9.042 7.816l.299.042c.41.051.702.426.65.837-.051.411-.426.703-.837.651-5.14-.645-9.355-4.358-10.699-9.287l-.668.667c-.293.293-.767.293-1.06 0-.267-.266-.29-.683-.073-.976l.073-.084 2-2c.293-.293.767-.293 1.06 0zM16 8.25c4.28 0 7.75 3.47 7.75 7.75 0 4.28-3.47 7.75-7.75 7.75-4.28 0-7.75-3.47-7.75-7.75 0-4.28 3.47-7.75 7.75-7.75zm0 1.5c-3.452 0-6.25 2.798-6.25 6.25s2.798 6.25 6.25 6.25 6.25-2.798 6.25-6.25S19.452 9.75 16 9.75zm-2.129 2.94l.097.04 5.239 2.559c.489.239.56.89.17 1.234l-.09.069-5.033 3.268c-.46.298-1.061.017-1.148-.503l-.01-.1-.207-5.827c-.019-.53.498-.9.982-.74zm.561 1.936l.116 3.254 2.81-1.825-2.926-1.429zM17.624 3.36l.101.007c5.088.688 9.245 4.384 10.577 9.272l.668-.668.084-.073c.293-.218.71-.194.976.073.267.266.29.683.073.976l-.073.084-2 2c-.266.267-.683.29-.976.073l-.084-.073-2-2-.073-.084c-.218-.293-.194-.71.073-.976.266-.267.683-.29.976-.073l.084.073.727.727c-1.27-4.144-4.864-7.253-9.233-7.845-.41-.055-.698-.433-.643-.844.047-.342.317-.598.643-.642l.1-.007zm-4.678-1.462l.084.073 2 2c.293.293.293.767 0 1.06l-2 2c-.293.293-.767.293-1.06 0-.267-.266-.29-.683-.073-.976l.073-.084.726-.727c-3.92 1.202-6.93 4.49-7.733 8.569-.08.406-.475.67-.881.59-.407-.08-.671-.474-.591-.88.937-4.757 4.517-8.561 9.147-9.824l-.668-.668c-.293-.293-.293-.767 0-1.06.266-.267.683-.29.976-.073z" transform="translate(-65 -852) translate(65.5 852)"/>
            </g>
        </g>
    </g>
</svg>
