<svg xmlns="http://www.w3.org/2000/svg" xmlns:xlink="http://www.w3.org/1999/xlink" xmlns:lucid="lucid" width="687" height="505"><g transform="translate(-933 -126)" lucid:page-tab-id="0_0"><path d="M1080 280h500v320h-500z" stroke="#000" stroke-opacity="0" stroke-width="2" fill="#f2f3f5"/><path d="M1085 281v317h-3V281z" stroke="#cc4e00" stroke-width="3" fill="none"/><path d="M1194.9 220.05c.9 0 1.67.75 1.8 1.75v35.23c0 1.8 1.27 3.24 2.8 3.42h32.9c1.06 0 1.9.88 1.9 2 0 1.05-.7 1.93-1.6 2.05h-32.9c-3.58 0-6.6-3.1-6.8-6.97V222.1c0-1.1.84-2.05 1.9-2.05zm50.4 11.77c.7-1.56 2.65-1.56 3.35 0l3.92 8.7 8.82 1.38c1.46.25 2.1 2.06 1.18 3.24l-.14.25-6.37 6.77 1.47 9.6c.28 1.55-1.12 2.73-2.45 2.23l-.22-.12-7.9-4.55-7.92 4.55c-1.26.74-2.73-.38-2.73-1.87l.07-.24 1.47-9.6-6.37-6.77c-1.05-1.13-.56-3 .77-3.43l.28-.07 8.82-1.37zm1.67 5.48l-2.73 5.97c-.2.63-.77 1-1.4 1.12l-6.02.93 4.34 4.67c.42.37.63.93.63 1.5l-.08.3-1.05 6.54 5.46-3.05c.42-.32.98-.32 1.47-.14l.2.13 5.47 3.04-1.05-6.54c-.07-.56.07-1.12.35-1.62l.2-.18 4.35-4.67-6.02-.94c-.56-.13-.98-.44-1.26-.88l-.14-.25-2.73-5.97zm-33.67 7.03c4.2 0 8.2 1.8 11.2 4.98.7.76.77 2.07 0 2.87-.7.8-1.9.8-2.6 0-2.3-2.36-5.38-3.8-8.6-3.8-3.22 0-6.23 1.3-8.47 3.68-.77.75-1.96.68-2.66-.12-.7-.8-.63-2.12.14-2.87 2.95-3 6.87-4.73 11-4.73zm-.07-21.16c4.76 0 8.6 4.17 8.6 9.33 0 5.17-3.84 9.4-8.6 9.4-4.7 0-8.54-4.23-8.54-9.4 0-5.16 3.84-9.33 8.53-9.33zm0 4.04c-2.66 0-4.83 2.38-4.83 5.3 0 2.93 2.17 5.3 4.83 5.3 2.73 0 4.9-2.37 4.9-5.3 0-2.92-2.17-5.3-4.9-5.3zm15.12-24.95c.98 0 1.75.75 1.9 1.74v7.7h24.14c3.63 0 6.64 3.12 6.85 6.98v16.94c0 1.12-.84 2.05-1.9 2.05-.9 0-1.67-.75-1.8-1.74v-16.75c0-1.74-1.27-3.24-2.8-3.36l-.36-.06h-59.5c-1.06 0-1.9-.87-1.9-2 0-1.05.7-1.86 1.6-2.05h31.93v-7.4c0-1.12.84-2.05 1.82-2.05zM1341.62 347.32c.78 0 1.44.63 1.56 1.46v29.46c0 1.52 1.08 2.72 2.4 2.88h28.2c.9 0 1.62.72 1.62 1.66 0 .9-.6 1.62-1.38 1.72h-28.2c-3.06 0-5.64-2.6-5.82-5.83v-29.62c0-.94.72-1.73 1.62-1.73zm43.2 9.85c.6-1.3 2.28-1.3 2.88 0l3.36 7.28 7.56 1.15c1.26.2 1.8 1.72 1.02 2.7l-.12.22-5.46 5.67 1.26 8c.24 1.3-.96 2.3-2.1 1.88l-.18-.1-6.78-3.8-6.78 3.8c-1.08.62-2.34-.3-2.34-1.56l.06-.2 1.26-8.03-5.46-5.68c-.9-.94-.48-2.5.66-2.87l.24-.05 7.56-1.15zm1.44 4.58l-2.34 5c-.18.52-.66.83-1.2.93l-5.16.78 3.72 3.9c.36.32.54.8.54 1.26l-.06.26-.9 5.47 4.68-2.56c.36-.27.84-.27 1.26-.1l.18.1 4.68 2.55-.9-5.47c-.06-.47.06-.94.3-1.36l.18-.15 3.72-3.9-5.16-.8c-.48-.1-.84-.35-1.08-.72l-.12-.2-2.34-5zm-28.86 5.88c3.6 0 7.02 1.5 9.6 4.17.6.62.66 1.7 0 2.4-.6.67-1.62.67-2.22 0-1.98-2-4.62-3.2-7.38-3.2s-5.34 1.1-7.26 3.1c-.66.6-1.68.56-2.28-.12-.6-.67-.54-1.77.12-2.4 2.52-2.5 5.88-3.95 9.42-3.95zm-.06-17.7c4.08 0 7.38 3.5 7.38 7.8 0 4.33-3.3 7.87-7.38 7.87-4.02 0-7.32-3.54-7.32-7.86s3.3-7.8 7.32-7.8zm0 3.38c-2.28 0-4.14 2-4.14 4.44 0 2.45 1.86 4.42 4.14 4.42 2.34 0 4.2-1.97 4.2-4.42s-1.86-4.43-4.2-4.43zm12.96-20.87c.84 0 1.5.63 1.62 1.46v6.45h20.7c3.12 0 5.7 2.6 5.88 5.83v14.16c0 .94-.72 1.72-1.62 1.72-.78 0-1.44-.63-1.56-1.46v-14c0-1.46-1.08-2.7-2.4-2.82l-.3-.05h-51c-.9 0-1.62-.73-1.62-1.66 0-.9.6-1.57 1.38-1.72h27.36v-6.2c0-.94.72-1.72 1.56-1.72zM1341.62 427.32c.78 0 1.44.63 1.56 1.46v29.46c0 1.52 1.08 2.72 2.4 2.88h28.2c.9 0 1.62.72 1.62 1.66 0 .9-.6 1.62-1.38 1.72h-28.2c-3.06 0-5.64-2.6-5.82-5.83v-29.62c0-.94.72-1.73 1.62-1.73zm43.2 9.85c.6-1.3 2.28-1.3 2.88 0l3.36 7.28 7.56 1.15c1.26.2 1.8 1.72 1.02 2.7l-.12.22-5.46 5.67 1.26 8c.24 1.3-.96 2.3-2.1 1.88l-.18-.1-6.78-3.8-6.78 3.8c-1.08.62-2.34-.3-2.34-1.56l.06-.2 1.26-8.03-5.46-5.68c-.9-.94-.48-2.5.66-2.87l.24-.05 7.56-1.15zm1.44 4.58l-2.34 5c-.18.52-.66.83-1.2.93l-5.16.78 3.72 3.9c.36.32.54.8.54 1.26l-.06.26-.9 5.47 4.68-2.56c.36-.27.84-.27 1.26-.1l.18.1 4.68 2.55-.9-5.47c-.06-.47.06-.94.3-1.36l.18-.15 3.72-3.9-5.16-.8c-.48-.1-.84-.35-1.08-.72l-.12-.2-2.34-5zm-28.86 5.88c3.6 0 7.02 1.5 9.6 4.17.6.62.66 1.7 0 2.4-.6.67-1.62.67-2.22 0-1.98-2-4.62-3.2-7.38-3.2s-5.34 1.1-7.26 3.1c-.66.6-1.68.56-2.28-.12-.6-.67-.54-1.77.12-2.4 2.52-2.5 5.88-3.95 9.42-3.95zm-.06-17.7c4.08 0 7.38 3.5 7.38 7.8 0 4.33-3.3 7.87-7.38 7.87-4.02 0-7.32-3.54-7.32-7.86s3.3-7.8 7.32-7.8zm0 3.38c-2.28 0-4.14 2-4.14 4.44 0 2.45 1.86 4.42 4.14 4.42 2.34 0 4.2-1.97 4.2-4.42s-1.86-4.43-4.2-4.43zm12.96-20.87c.84 0 1.5.63 1.62 1.46v6.45h20.7c3.12 0 5.7 2.6 5.88 5.83v14.16c0 .94-.72 1.72-1.62 1.72-.78 0-1.44-.63-1.56-1.46v-14c0-1.46-1.08-2.7-2.4-2.82l-.3-.05h-51c-.9 0-1.62-.73-1.62-1.66 0-.9.6-1.57 1.38-1.72h27.36v-6.2c0-.94.72-1.72 1.56-1.72z" stroke="#000" stroke-opacity="0" fill="#0b3c79"/><path d="M1190 372c0-1.66 1.34-3 3-3h74c1.66 0 3 1.34 3 3v54.34c0 1.66-1.34 3-3 3h-74c-1.66 0-3-1.34-3-3z" stroke="#0b3c79" fill-opacity="0"/><path d="M1230.48 408.13c7.68 0 13.92 5.67 13.92 12.7 0 .77-.72 1.42-1.56 1.42-.84 0-1.56-.65-1.56-1.43 0-5.45-4.86-9.88-10.8-9.88-6 0-10.86 4.43-10.86 9.88 0 .78-.72 1.43-1.56 1.43-.84 0-1.56-.65-1.56-1.43 0-7.02 6.24-12.7 13.98-12.7zm-16.56-9.42c2.1 0 4.14.43 5.94 1.2.78.33 1.14 1.16.78 1.9-.36.7-1.32 1.02-2.1.65-1.44-.6-3-.92-4.62-.92-6 0-10.8 4.43-10.8 9.87 0 .8-.72 1.43-1.56 1.43-.84 0-1.56-.64-1.56-1.43 0-7 6.24-12.7 13.92-12.7zm32.16 0c7.68 0 13.92 5.7 13.92 12.7 0 .8-.72 1.43-1.56 1.43-.84 0-1.56-.64-1.56-1.43 0-5.44-4.8-9.87-10.8-9.87-1.62 0-3.18.32-4.62.92-.78.37-1.74.05-2.1-.65-.36-.74 0-1.57.78-1.9 1.8-.77 3.84-1.2 5.94-1.2zm-15.6-5.67c4.26 0 7.74 3.2 7.74 7.07 0 3.92-3.48 7.06-7.74 7.06-4.32 0-7.74-3.14-7.74-7.06 0-3.88 3.42-7.07 7.74-7.07zm0 2.87c-2.58 0-4.68 1.9-4.68 4.2 0 2.35 2.1 4.24 4.68 4.24 2.52 0 4.62-1.9 4.62-4.24 0-2.3-2.1-4.2-4.62-4.2zm-16.56-12.28c4.32 0 7.74 3.18 7.74 7.06 0 3.92-3.42 7.06-7.74 7.06-4.26 0-7.74-3.14-7.74-7.06 0-3.88 3.48-7.06 7.74-7.06zm33.06 0c4.26 0 7.74 3.18 7.74 7.06 0 3.92-3.48 7.06-7.74 7.06s-7.74-3.14-7.74-7.06c0-3.88 3.48-7.06 7.74-7.06zm-33.06 2.82c-2.52 0-4.62 1.93-4.62 4.24 0 2.35 2.1 4.25 4.62 4.25 2.58 0 4.68-1.9 4.68-4.25 0-2.3-2.1-4.24-4.68-4.24zm33.06 0c-2.58 0-4.62 1.93-4.62 4.24 0 2.35 2.04 4.25 4.62 4.25s4.62-1.9 4.62-4.25c0-2.3-2.04-4.24-4.62-4.24zm-16.5-10.34c4.26 0 7.74 3.18 7.74 7.06 0 3.92-3.48 7.06-7.74 7.06-4.32 0-7.74-3.14-7.74-7.06 0-3.88 3.42-7.06 7.74-7.06zm0 2.8c-2.58 0-4.68 1.9-4.68 4.26 0 2.35 2.1 4.24 4.68 4.24 2.52 0 4.62-1.9 4.62-4.24 0-2.36-2.1-4.25-4.62-4.25z" stroke="#000" stroke-opacity="0" fill="#0b3c79"/><path d="M1190 503c0-1.66 1.34-3 3-3h74c1.66 0 3 1.34 3 3v54.34c0 1.66-1.34 3-3 3h-74c-1.66 0-3-1.34-3-3z" stroke="#0b3c79" fill-opacity="0"/><path d="M1230.48 539.13c7.68 0 13.92 5.67 13.92 12.7 0 .77-.72 1.42-1.56 1.42-.84 0-1.56-.65-1.56-1.43 0-5.45-4.86-9.88-10.8-9.88-6 0-10.86 4.43-10.86 9.88 0 .78-.72 1.43-1.56 1.43-.84 0-1.56-.65-1.56-1.43 0-7.02 6.24-12.7 13.98-12.7zm-16.56-9.42c2.1 0 4.14.43 5.94 1.2.78.33 1.14 1.16.78 1.9-.36.7-1.32 1.02-2.1.65-1.44-.6-3-.92-4.62-.92-6 0-10.8 4.43-10.8 9.87 0 .8-.72 1.43-1.56 1.43-.84 0-1.56-.64-1.56-1.43 0-7 6.24-12.7 13.92-12.7zm32.16 0c7.68 0 13.92 5.7 13.92 12.7 0 .8-.72 1.43-1.56 1.43-.84 0-1.56-.64-1.56-1.43 0-5.44-4.8-9.87-10.8-9.87-1.62 0-3.18.32-4.62.92-.78.37-1.74.05-2.1-.65-.36-.74 0-1.57.78-1.9 1.8-.77 3.84-1.2 5.94-1.2zm-15.6-5.67c4.26 0 7.74 3.2 7.74 7.07 0 3.92-3.48 7.06-7.74 7.06-4.32 0-7.74-3.14-7.74-7.06 0-3.88 3.42-7.07 7.74-7.07zm0 2.87c-2.58 0-4.68 1.9-4.68 4.2 0 2.35 2.1 4.24 4.68 4.24 2.52 0 4.62-1.9 4.62-4.24 0-2.3-2.1-4.2-4.62-4.2zm-16.56-12.28c4.32 0 7.74 3.18 7.74 7.06 0 3.92-3.42 7.06-7.74 7.06-4.26 0-7.74-3.14-7.74-7.06 0-3.88 3.48-7.06 7.74-7.06zm33.06 0c4.26 0 7.74 3.18 7.74 7.06 0 3.92-3.48 7.06-7.74 7.06s-7.74-3.14-7.74-7.06c0-3.88 3.48-7.06 7.74-7.06zm-33.06 2.82c-2.52 0-4.62 1.93-4.62 4.24 0 2.35 2.1 4.25 4.62 4.25 2.58 0 4.68-1.9 4.68-4.25 0-2.3-2.1-4.24-4.68-4.24zm33.06 0c-2.58 0-4.62 1.93-4.62 4.24 0 2.35 2.04 4.25 4.62 4.25s4.62-1.9 4.62-4.25c0-2.3-2.04-4.24-4.62-4.24zm-16.5-10.34c4.26 0 7.74 3.18 7.74 7.06 0 3.92-3.48 7.06-7.74 7.06-4.32 0-7.74-3.14-7.74-7.06 0-3.88 3.42-7.06 7.74-7.06zm0 2.8c-2.58 0-4.68 1.9-4.68 4.26 0 2.35 2.1 4.24 4.68 4.24 2.52 0 4.62-1.9 4.62-4.24 0-2.36-2.1-4.25-4.62-4.25z" stroke="#000" stroke-opacity="0" fill="#0b3c79"/><path d="M1100 285.23c0-3.32 2.7-6 6-6h428c3.3 0 6 2.68 6 6v41.2c0 3.32-2.7 6-6 6h-428c-3.3 0-6-2.68-6-6z" stroke="#000" stroke-opacity="0" stroke-width="3" fill="#fff" fill-opacity="0"/><use xlink:href="#a" transform="matrix(1,0,0,1,1105,284.2266666666667) translate(35.0833333333334 26.999999999999993)"/><use xlink:href="#b" transform="matrix(1,0,0,1,1105,284.2266666666667) translate(86.08333333333339 26.999999999999993)"/><use xlink:href="#c" transform="matrix(1,0,0,1,1105,284.2266666666667) translate(162.47222222222223 26.999999999999993)"/><use xlink:href="#d" transform="matrix(1,0,0,1,1105,284.2266666666667) translate(225.30555555555557 26.999999999999993)"/><use xlink:href="#e" transform="matrix(1,0,0,1,1105,284.2266666666667) translate(282.9722222222222 26.999999999999993)"/><path d="M1160 439.25c0-3.32 2.7-6 6-6h128c3.3 0 6 2.68 6 6v27.18c0 3.32-2.7 6-6 6h-128c-3.3 0-6-2.68-6-6z" stroke="#000" stroke-opacity="0" stroke-width="3" fill="#fff" fill-opacity="0"/><use xlink:href="#f" transform="matrix(1,0,0,1,1165,438.24724712643683) translate(20.558641975308646 18.069444444444443)"/><use xlink:href="#g" transform="matrix(1,0,0,1,1165,438.24724712643683) translate(86.15123456790123 18.069444444444443)"/><path d="M1160 559.25c0-3.32 2.7-6 6-6h128c3.3 0 6 2.68 6 6v27.18c0 3.32-2.7 6-6 6h-128c-3.3 0-6-2.68-6-6z" stroke="#000" stroke-opacity="0" stroke-width="3" fill="#fff" fill-opacity="0"/><use xlink:href="#h" transform="matrix(1,0,0,1,1165,558.2472471264368) translate(18.441358024691368 18.069444444444443)"/><use xlink:href="#g" transform="matrix(1,0,0,1,1165,558.2472471264368) translate(88.26851851851852 18.069444444444443)"/><path d="M1386 348.56c0-3.3 2.7-6 6-6h128c3.3 0 6 2.7 6 6v27.2c0 3.3-2.7 6-6 6h-128c-3.3 0-6-2.7-6-6z" stroke="#000" stroke-opacity="0" stroke-width="3" fill="#fff" fill-opacity="0"/><use xlink:href="#i" transform="matrix(1,0,0,1,1391,347.56) translate(13.320987654321002 18.069444444444443)"/><use xlink:href="#j" transform="matrix(1,0,0,1,1391,347.56) translate(57.22222222222223 18.069444444444443)"/><path d="M1400 426c0-3.3 2.7-6 6-6h149c3.3 0 6 2.7 6 6v35.33c0 3.32-2.7 6-6 6h-149c-3.3 0-6-2.68-6-6z" stroke="#000" stroke-opacity="0" stroke-width="3" fill="#fff" fill-opacity="0"/><use xlink:href="#k" transform="matrix(1,0,0,1,1405,425) translate(0.055555555555571345 21.944444444444443)"/><use xlink:href="#l" transform="matrix(1,0,0,1,1405,425) translate(32.76543209876544 21.944444444444443)"/><use xlink:href="#m" transform="matrix(1,0,0,1,1405,425) translate(91.48765432098764 21.944444444444443)"/><path d="M1248 223.17c0-3.32 2.7-6 6-6h188c3.3 0 6 2.68 6 6v35.33c0 3.3-2.7 6-6 6h-188c-3.3 0-6-2.7-6-6z" stroke="#000" stroke-opacity="0" stroke-width="3" fill="#fff" fill-opacity="0"/><use xlink:href="#n" transform="matrix(1,0,0,1,1253,222.16666666666666) translate(16.18827160493828 21.944444444444443)"/><use xlink:href="#j" transform="matrix(1,0,0,1,1253,222.16666666666666) translate(115.35493827160494 21.944444444444443)"/><path d="M940 159.83c0-3.3 2.7-6 6-6h108c3.3 0 6 2.7 6 6v36.42c0 3.3-2.7 6-6 6H946c-3.3 0-6-2.7-6-6z" stroke="#000" stroke-opacity="0" stroke-width="3" fill="#fff" fill-opacity="0"/><use xlink:href="#o" transform="matrix(1,0,0,1,945,158.83333333333334) translate(32.33333333333334 23.312499999999993)"/><path d="M1000 203.25v320.92c0 3.32 2.7 6 6 6h182.5" stroke="#0b3c79" stroke-width="2" fill="none"/><path d="M1001 203.28h-2v-1.03h2zM1189.5 531.17h-1.03v-2h1.03z" stroke="#0b3c79" stroke-width=".05" fill="#0b3c79"/><path d="M1192 233.38h-191" stroke="#0b3c79" stroke-width="2" fill="none"/><path d="M1193 234.38h-1.03v-2h1.03z" stroke="#0b3c79" stroke-width=".05" fill="#0b3c79"/><path d="M1001.03 233.38H1000M1188.5 401.43H1001" stroke="#0b3c79" stroke-width="2" fill="none"/><path d="M1189.5 402.43h-1.03v-2h1.03z" stroke="#0b3c79" stroke-width=".05" fill="#0b3c79"/><path d="M1001.03 401.43H1000M1339 358.47h-23c-3.3 0-6 2.68-6 6V434c0 3.3 2.7 6 6 6h23" stroke="#0b3c79" stroke-width="2" fill="none"/><path d="M1340 359.47h-1.03v-2h1.03zM1340 441h-1.03v-2h1.03z" stroke="#0b3c79" stroke-width=".05" fill="#0b3c79"/><path d="M1309 401.33h-37.5M1308.97 401.33h1.03" stroke="#0b3c79" stroke-width="2" fill="none"/><path d="M1271.53 402.33h-1.03v-2h1.03z" stroke="#0b3c79" stroke-width=".05" fill="#0b3c79"/><defs><path fill="#cc4e00" d="M199 0l-22-63H83L61 0H9l90-248h61L250 0h-51zm-33-102l-36-108c-10 38-24 72-36 108h72" id="p"/><path fill="#cc4e00" d="M275 0h-61l-44-196L126 0H64L0-248h53L97-49l45-199h58l43 199 44-199h52" id="q"/><path fill="#cc4e00" d="M169-182c-1-43-94-46-97-3 18 66 151 10 154 114 3 95-165 93-204 36-6-8-10-19-12-30l50-8c3 46 112 56 116 5-17-69-150-10-154-114-4-87 153-88 188-35 5 8 8 18 10 28" id="r"/><g id="a"><use transform="matrix(0.05555555555555554,0,0,0.05555555555555554,0,0)" xlink:href="#p"/><use transform="matrix(0.05555555555555554,0,0,0.05555555555555554,13.277777777777773,0)" xlink:href="#q"/><use transform="matrix(0.05555555555555554,0,0,0.05555555555555554,32.1111111111111,0)" xlink:href="#r"/></g><path fill="#cc4e00" d="M67-125c0 53 21 87 73 88 37 1 54-22 65-47l45 17C233-25 199 4 140 4 58 4 20-42 15-125 8-235 124-281 211-232c18 10 29 29 36 50l-46 12c-8-25-30-41-62-41-52 0-71 34-72 86" id="s"/><path fill="#cc4e00" d="M110-194c64 0 96 36 96 99 0 64-35 99-97 99-61 0-95-36-95-99 0-62 34-99 96-99zm-1 164c35 0 45-28 45-65 0-40-10-65-43-65-34 0-45 26-45 65 0 36 10 65 43 65" id="t"/><path fill="#cc4e00" d="M135-194c87-1 58 113 63 194h-50c-7-57 23-157-34-157-59 0-34 97-39 157H25l-1-190h47c2 12-1 28 3 38 12-26 28-41 61-42" id="u"/><path fill="#cc4e00" d="M115-3C79 11 28 4 28-45v-112H4v-33h27l15-45h31v45h36v33H77v99c-1 23 16 31 38 25v30" id="v"/><path fill="#cc4e00" d="M135-150c-39-12-60 13-60 57V0H25l-1-190h47c2 13-1 29 3 40 6-28 27-53 61-41v41" id="w"/><path fill="#cc4e00" d="M25 0v-261h50V0H25" id="x"/><g id="b"><use transform="matrix(0.05555555555555554,0,0,0.05555555555555554,0,0)" xlink:href="#s"/><use transform="matrix(0.05555555555555554,0,0,0.05555555555555554,14.388888888888884,0)" xlink:href="#t"/><use transform="matrix(0.05555555555555554,0,0,0.05555555555555554,26.555555555555546,0)" xlink:href="#u"/><use transform="matrix(0.05555555555555554,0,0,0.05555555555555554,38.72222222222221,0)" xlink:href="#v"/><use transform="matrix(0.05555555555555554,0,0,0.05555555555555554,45.333333333333314,0)" xlink:href="#w"/><use transform="matrix(0.05555555555555554,0,0,0.05555555555555554,53.111111111111086,0)" xlink:href="#t"/><use transform="matrix(0.05555555555555554,0,0,0.05555555555555554,65.27777777777774,0)" xlink:href="#x"/></g><path fill="#cc4e00" d="M136-208V0H84v-208H4v-40h212v40h-80" id="y"/><path fill="#cc4e00" d="M231 0h-52l-39-155L100 0H48L-1-190h46L77-45c9-52 24-97 36-145h53l37 145 32-145h46" id="z"/><path fill="#cc4e00" d="M185-48c-13 30-37 53-82 52C43 2 14-33 14-96s30-98 90-98c62 0 83 45 84 108H66c0 31 8 55 39 56 18 0 30-7 34-22zm-45-69c5-46-57-63-70-21-2 6-4 13-4 21h74" id="A"/><g id="c"><use transform="matrix(0.05555555555555554,0,0,0.05555555555555554,0,0)" xlink:href="#y"/><use transform="matrix(0.05555555555555554,0,0,0.05555555555555554,10.666666666666663,0)" xlink:href="#t"/><use transform="matrix(0.05555555555555554,0,0,0.05555555555555554,22.833333333333325,0)" xlink:href="#z"/><use transform="matrix(0.05555555555555554,0,0,0.05555555555555554,38.38888888888887,0)" xlink:href="#A"/><use transform="matrix(0.05555555555555554,0,0,0.05555555555555554,49.49999999999998,0)" xlink:href="#w"/></g><path fill="#cc4e00" d="M25-224v-37h50v37H25zM25 0v-190h50V0H25" id="B"/><path fill="#cc4e00" d="M133-34C117-15 103 5 69 4 32 3 11-16 11-54c-1-60 55-63 116-61 1-26-3-47-28-47-18 1-26 9-28 27l-52-2c7-38 36-58 82-57s74 22 75 68l1 82c-1 14 12 18 25 15v27c-30 8-71 5-69-32zm-48 3c29 0 43-24 42-57-32 0-66-3-65 30 0 17 8 27 23 27" id="C"/><g id="d"><use transform="matrix(0.05555555555555554,0,0,0.05555555555555554,0,0)" xlink:href="#B"/><use transform="matrix(0.05555555555555554,0,0,0.05555555555555554,5.555555555555554,0)" xlink:href="#u"/><use transform="matrix(0.05555555555555554,0,0,0.05555555555555554,17.722222222222214,0)" xlink:href="#B"/><use transform="matrix(0.05555555555555554,0,0,0.05555555555555554,23.277777777777768,0)" xlink:href="#v"/><use transform="matrix(0.05555555555555554,0,0,0.05555555555555554,29.88888888888888,0)" xlink:href="#B"/><use transform="matrix(0.05555555555555554,0,0,0.05555555555555554,35.44444444444443,0)" xlink:href="#C"/><use transform="matrix(0.05555555555555554,0,0,0.05555555555555554,46.555555555555536,0)" xlink:href="#x"/></g><path fill="#cc4e00" d="M88-194c31-1 46 15 58 34l-1-101h50l1 261h-48c-2-10 0-23-3-31C134-8 116 4 84 4 32 4 16-41 15-95c0-56 19-97 73-99zm17 164c33 0 40-30 41-66 1-37-9-64-41-64s-38 30-39 65c0 43 13 65 39 65" id="D"/><path fill="#cc4e00" d="M135-194c53 0 70 44 70 98 0 56-19 98-73 100-31 1-45-17-59-34 3 33 2 69 2 105H25l-1-265h48c2 10 0 23 3 31 11-24 29-35 60-35zM114-30c33 0 39-31 40-66 0-38-9-64-40-64-56 0-55 130 0 130" id="E"/><path fill="#cc4e00" d="M123 10C108 53 80 86 19 72V37c35 8 53-11 59-39L3-190h52l48 148c12-52 28-100 44-148h51" id="F"/><path fill="#cc4e00" d="M220-157c-53 9-28 100-34 157h-49v-107c1-27-5-49-29-50C55-147 81-57 75 0H25l-1-190h47c2 12-1 28 3 38 10-53 101-56 108 0 13-22 24-43 59-42 82 1 51 116 57 194h-49v-107c-1-25-5-48-29-50" id="G"/><g id="e"><use transform="matrix(0.05555555555555554,0,0,0.05555555555555554,0,0)" xlink:href="#D"/><use transform="matrix(0.05555555555555554,0,0,0.05555555555555554,12.166666666666663,0)" xlink:href="#A"/><use transform="matrix(0.05555555555555554,0,0,0.05555555555555554,23.27777777777777,0)" xlink:href="#E"/><use transform="matrix(0.05555555555555554,0,0,0.05555555555555554,35.444444444444436,0)" xlink:href="#x"/><use transform="matrix(0.05555555555555554,0,0,0.05555555555555554,40.999999999999986,0)" xlink:href="#t"/><use transform="matrix(0.05555555555555554,0,0,0.05555555555555554,53.16666666666665,0)" xlink:href="#F"/><use transform="matrix(0.05555555555555554,0,0,0.05555555555555554,64.27777777777776,0)" xlink:href="#G"/><use transform="matrix(0.05555555555555554,0,0,0.05555555555555554,82.05555555555553,0)" xlink:href="#A"/><use transform="matrix(0.05555555555555554,0,0,0.05555555555555554,93.16666666666663,0)" xlink:href="#u"/><use transform="matrix(0.05555555555555554,0,0,0.05555555555555554,105.33333333333329,0)" xlink:href="#v"/></g><path fill="#0b3c79" d="M169-182c-1-43-94-46-97-3 18 66 151 10 154 114 3 95-165 93-204 36-6-8-10-19-12-30l50-8c3 46 112 56 116 5-17-69-150-10-154-114-4-87 153-88 188-35 5 8 8 18 10 28" id="H"/><path fill="#0b3c79" d="M185-48c-13 30-37 53-82 52C43 2 14-33 14-96s30-98 90-98c62 0 83 45 84 108H66c0 31 8 55 39 56 18 0 30-7 34-22zm-45-69c5-46-57-63-70-21-2 6-4 13-4 21h74" id="I"/><path fill="#0b3c79" d="M190-63c-7 42-38 67-86 67-59 0-84-38-90-98-12-110 154-137 174-36l-49 2c-2-19-15-32-35-32-30 0-35 28-38 64-6 74 65 87 74 30" id="J"/><path fill="#0b3c79" d="M85 4C-2 5 27-109 22-190h50c7 57-23 150 33 157 60-5 35-97 40-157h50l1 190h-47c-2-12 1-28-3-38-12 25-28 42-61 42" id="K"/><path fill="#0b3c79" d="M135-150c-39-12-60 13-60 57V0H25l-1-190h47c2 13-1 29 3 40 6-28 27-53 61-41v41" id="L"/><path fill="#0b3c79" d="M25-224v-37h50v37H25zM25 0v-190h50V0H25" id="M"/><path fill="#0b3c79" d="M115-3C79 11 28 4 28-45v-112H4v-33h27l15-45h31v45h36v33H77v99c-1 23 16 31 38 25v30" id="N"/><path fill="#0b3c79" d="M123 10C108 53 80 86 19 72V37c35 8 53-11 59-39L3-190h52l48 148c12-52 28-100 44-148h51" id="O"/><g id="f"><use transform="matrix(0.04320987654320987,0,0,0.04320987654320987,0,0)" xlink:href="#H"/><use transform="matrix(0.04320987654320987,0,0,0.04320987654320987,10.370370370370368,0)" xlink:href="#I"/><use transform="matrix(0.04320987654320987,0,0,0.04320987654320987,19.01234567901234,0)" xlink:href="#J"/><use transform="matrix(0.04320987654320987,0,0,0.04320987654320987,27.654320987654316,0)" xlink:href="#K"/><use transform="matrix(0.04320987654320987,0,0,0.04320987654320987,37.11728395061728,0)" xlink:href="#L"/><use transform="matrix(0.04320987654320987,0,0,0.04320987654320987,43.16666666666666,0)" xlink:href="#M"/><use transform="matrix(0.04320987654320987,0,0,0.04320987654320987,47.487654320987644,0)" xlink:href="#N"/><use transform="matrix(0.04320987654320987,0,0,0.04320987654320987,52.62962962962962,0)" xlink:href="#O"/></g><path fill="#0b3c79" d="M140-251c80 0 125 45 125 126S219 4 139 4C58 4 15-44 15-125s44-126 125-126zm-1 214c52 0 73-35 73-88 0-50-21-86-72-86-52 0-73 35-73 86s22 88 72 88" id="P"/><path fill="#0b3c79" d="M238-95c0 69-44 99-111 99C63 4 22-25 22-93v-155h51v151c-1 38 19 59 55 60 90 1 49-130 58-211h52v153" id="Q"/><g id="g"><use transform="matrix(0.04320987654320987,0,0,0.04320987654320987,0,0)" xlink:href="#P"/><use transform="matrix(0.04320987654320987,0,0,0.04320987654320987,12.098765432098762,0)" xlink:href="#Q"/></g><path fill="#0b3c79" d="M133-34C117-15 103 5 69 4 32 3 11-16 11-54c-1-60 55-63 116-61 1-26-3-47-28-47-18 1-26 9-28 27l-52-2c7-38 36-58 82-57s74 22 75 68l1 82c-1 14 12 18 25 15v27c-30 8-71 5-69-32zm-48 3c29 0 43-24 42-57-32 0-66-3-65 30 0 17 8 27 23 27" id="R"/><path fill="#0b3c79" d="M135-194c87-1 58 113 63 194h-50c-7-57 23-157-34-157-59 0-34 97-39 157H25l-1-190h47c2 12-1 28 3 38 12-26 28-41 61-42" id="S"/><path fill="#0b3c79" d="M88-194c31-1 46 15 58 34l-1-101h50l1 261h-48c-2-10 0-23-3-31C134-8 116 4 84 4 32 4 16-41 15-95c0-56 19-97 73-99zm17 164c33 0 40-30 41-66 1-37-9-64-41-64s-38 30-39 65c0 43 13 65 39 65" id="T"/><path fill="#0b3c79" d="M135-194c52 0 70 43 70 98 0 56-19 99-73 100-30 1-46-15-58-35L72 0H24l1-261h50v104c11-23 29-37 60-37zM114-30c31 0 40-27 40-66 0-37-7-63-39-63s-41 28-41 65c0 36 8 64 40 64" id="U"/><path fill="#0b3c79" d="M110-194c64 0 96 36 96 99 0 64-35 99-97 99-61 0-95-36-95-99 0-62 34-99 96-99zm-1 164c35 0 45-28 45-65 0-40-10-65-43-65-34 0-45 26-45 65 0 36 10 65 43 65" id="V"/><path fill="#0b3c79" d="M144 0l-44-69L55 0H2l70-98-66-92h53l41 62 40-62h54l-67 91 71 99h-54" id="W"/><g id="h"><use transform="matrix(0.04320987654320987,0,0,0.04320987654320987,0,0)" xlink:href="#H"/><use transform="matrix(0.04320987654320987,0,0,0.04320987654320987,10.370370370370368,0)" xlink:href="#R"/><use transform="matrix(0.04320987654320987,0,0,0.04320987654320987,19.01234567901234,0)" xlink:href="#S"/><use transform="matrix(0.04320987654320987,0,0,0.04320987654320987,28.475308641975303,0)" xlink:href="#T"/><use transform="matrix(0.04320987654320987,0,0,0.04320987654320987,37.938271604938265,0)" xlink:href="#U"/><use transform="matrix(0.04320987654320987,0,0,0.04320987654320987,47.40123456790123,0)" xlink:href="#V"/><use transform="matrix(0.04320987654320987,0,0,0.04320987654320987,56.86419753086418,0)" xlink:href="#W"/></g><path fill="#0b3c79" d="M199 0l-22-63H83L61 0H9l90-248h61L250 0h-51zm-33-102l-36-108c-10 38-24 72-36 108h72" id="X"/><g id="i"><use transform="matrix(0.04320987654320987,0,0,0.04320987654320987,0,0)" xlink:href="#X"/><use transform="matrix(0.04320987654320987,0,0,0.04320987654320987,11.191358024691356,0)" xlink:href="#K"/><use transform="matrix(0.04320987654320987,0,0,0.04320987654320987,20.654320987654316,0)" xlink:href="#T"/><use transform="matrix(0.04320987654320987,0,0,0.04320987654320987,30.117283950617278,0)" xlink:href="#M"/><use transform="matrix(0.04320987654320987,0,0,0.04320987654320987,34.438271604938265,0)" xlink:href="#N"/></g><g id="j"><use transform="matrix(0.04320987654320987,0,0,0.04320987654320987,0,0)" xlink:href="#R"/><use transform="matrix(0.04320987654320987,0,0,0.04320987654320987,8.641975308641973,0)" xlink:href="#J"/><use transform="matrix(0.04320987654320987,0,0,0.04320987654320987,17.283950617283946,0)" xlink:href="#J"/><use transform="matrix(0.04320987654320987,0,0,0.04320987654320987,25.925925925925917,0)" xlink:href="#V"/><use transform="matrix(0.04320987654320987,0,0,0.04320987654320987,35.38888888888888,0)" xlink:href="#K"/><use transform="matrix(0.04320987654320987,0,0,0.04320987654320987,44.85185185185184,0)" xlink:href="#S"/><use transform="matrix(0.04320987654320987,0,0,0.04320987654320987,54.3148148148148,0)" xlink:href="#N"/></g><path fill="#0b3c79" d="M24 0v-248h52v208h133V0H24" id="Y"/><path fill="#0b3c79" d="M195-6C206 82 75 100 31 46c-4-6-6-13-8-21l49-6c3 16 16 24 34 25 40 0 42-37 40-79-11 22-30 35-61 35-53 0-70-43-70-97 0-56 18-96 73-97 30 0 46 14 59 34l2-30h47zm-90-29c32 0 41-27 41-63 0-35-9-62-40-62-32 0-39 29-40 63 0 36 9 62 39 62" id="Z"/><g id="k"><use transform="matrix(0.04320987654320987,0,0,0.04320987654320987,0,0)" xlink:href="#Y"/><use transform="matrix(0.04320987654320987,0,0,0.04320987654320987,9.46296296296296,0)" xlink:href="#V"/><use transform="matrix(0.04320987654320987,0,0,0.04320987654320987,18.92592592592592,0)" xlink:href="#Z"/></g><path fill="#0b3c79" d="M114-157C55-157 80-60 75 0H25v-261h50l-1 109c12-26 28-41 61-42 86-1 58 113 63 194h-50c-7-57 23-157-34-157" id="aa"/><path fill="#0b3c79" d="M128 0H69L1-190h53L99-40l48-150h52" id="ab"/><g id="l"><use transform="matrix(0.04320987654320987,0,0,0.04320987654320987,0,0)" xlink:href="#R"/><use transform="matrix(0.04320987654320987,0,0,0.04320987654320987,8.641975308641973,0)" xlink:href="#L"/><use transform="matrix(0.04320987654320987,0,0,0.04320987654320987,14.691358024691354,0)" xlink:href="#J"/><use transform="matrix(0.04320987654320987,0,0,0.04320987654320987,23.33333333333333,0)" xlink:href="#aa"/><use transform="matrix(0.04320987654320987,0,0,0.04320987654320987,32.79629629629629,0)" xlink:href="#M"/><use transform="matrix(0.04320987654320987,0,0,0.04320987654320987,37.11728395061728,0)" xlink:href="#ab"/><use transform="matrix(0.04320987654320987,0,0,0.04320987654320987,45.75925925925925,0)" xlink:href="#I"/></g><g id="m"><use transform="matrix(0.04320987654320987,0,0,0.04320987654320987,0,0)" xlink:href="#R"/><use transform="matrix(0.04320987654320987,0,0,0.04320987654320987,8.641975308641973,0)" xlink:href="#J"/><use transform="matrix(0.04320987654320987,0,0,0.04320987654320987,17.283950617283946,0)" xlink:href="#J"/><use transform="matrix(0.04320987654320987,0,0,0.04320987654320987,25.925925925925917,0)" xlink:href="#V"/><use transform="matrix(0.04320987654320987,0,0,0.04320987654320987,35.38888888888888,0)" xlink:href="#K"/><use transform="matrix(0.04320987654320987,0,0,0.04320987654320987,44.85185185185184,0)" xlink:href="#S"/><use transform="matrix(0.04320987654320987,0,0,0.04320987654320987,54.3148148148148,0)" xlink:href="#N"/></g><path fill="#0b3c79" d="M230 0l2-204L168 0h-37L68-204 70 0H24v-248h70l56 185 57-185h69V0h-46" id="ac"/><path fill="#0b3c79" d="M220-157c-53 9-28 100-34 157h-49v-107c1-27-5-49-29-50C55-147 81-57 75 0H25l-1-190h47c2 12-1 28 3 38 10-53 101-56 108 0 13-22 24-43 59-42 82 1 51 116 57 194h-49v-107c-1-25-5-48-29-50" id="ad"/><g id="n"><use transform="matrix(0.04320987654320987,0,0,0.04320987654320987,0,0)" xlink:href="#ac"/><use transform="matrix(0.04320987654320987,0,0,0.04320987654320987,12.91975308641975,0)" xlink:href="#R"/><use transform="matrix(0.04320987654320987,0,0,0.04320987654320987,21.56172839506172,0)" xlink:href="#S"/><use transform="matrix(0.04320987654320987,0,0,0.04320987654320987,31.024691358024686,0)" xlink:href="#R"/><use transform="matrix(0.04320987654320987,0,0,0.04320987654320987,39.66666666666666,0)" xlink:href="#Z"/><use transform="matrix(0.04320987654320987,0,0,0.04320987654320987,49.12962962962962,0)" xlink:href="#I"/><use transform="matrix(0.04320987654320987,0,0,0.04320987654320987,57.771604938271594,0)" xlink:href="#ad"/><use transform="matrix(0.04320987654320987,0,0,0.04320987654320987,71.59876543209876,0)" xlink:href="#I"/><use transform="matrix(0.04320987654320987,0,0,0.04320987654320987,80.24074074074073,0)" xlink:href="#S"/><use transform="matrix(0.04320987654320987,0,0,0.04320987654320987,89.70370370370371,0)" xlink:href="#N"/></g><path fill="#0b3c79" d="M240-174c0 40-23 61-54 70L253 0h-59l-57-94H76V0H24v-248c93 4 217-23 216 74zM76-134c48-2 112 12 112-38 0-48-66-32-112-35v73" id="ae"/><g id="o"><use transform="matrix(0.05555555555555554,0,0,0.05555555555555554,0,0)" xlink:href="#ae"/><use transform="matrix(0.05555555555555554,0,0,0.05555555555555554,14.388888888888884,0)" xlink:href="#V"/><use transform="matrix(0.05555555555555554,0,0,0.05555555555555554,26.555555555555546,0)" xlink:href="#V"/><use transform="matrix(0.05555555555555554,0,0,0.05555555555555554,38.72222222222221,0)" xlink:href="#N"/></g></defs></g></svg>