<svg width="25" height="24" viewBox="0 0 25 24" fill="none" xmlns="http://www.w3.org/2000/svg">
<path fill-rule="evenodd" clip-rule="evenodd" d="M12.3709 3.28927L2.92366 21.5294H21.8043L12.3709 3.28927ZM13.9317 0.948362C13.2737 -0.317232 11.4625 -0.31582 10.8065 0.950799L0.199627 21.4299C-0.409112 22.6052 0.448228 24.0067 1.77181 24H22.97C24.2869 23.9933 25.1305 22.4879 24.523 21.3195L13.9317 0.948362Z" fill="#DA1E28"/>
<path d="M13.7053 18.582C13.7053 19.3341 13.0956 19.9438 12.3435 19.9438C11.5914 19.9438 10.9817 19.3341 10.9817 18.582C10.9817 17.8299 11.5914 17.2202 12.3435 17.2202C13.0956 17.2202 13.7053 17.8299 13.7053 18.582Z" fill="#DA1E28"/>
<path fill-rule="evenodd" clip-rule="evenodd" d="M12.357 8.14878C13.0376 8.14878 13.5893 8.7005 13.5893 9.38109V14.9921C13.5893 15.6727 13.0376 16.2244 12.357 16.2244C11.6764 16.2244 11.1247 15.6727 11.1247 14.9921V9.38109C11.1247 8.7005 11.6764 8.14878 12.357 8.14878Z" fill="#DA1E28"/>
</svg>
