<svg width="30" height="24" viewBox="0 0 30 24" fill="none" xmlns="http://www.w3.org/2000/svg">
<path d="M18.9725 0.0959281C19.7456 0.395041 20.1442 1.30372 19.8628 2.12553L12.7299 22.9577C12.4485 23.7795 11.5937 24.2032 10.8206 23.9041C10.0475 23.605 9.6489 22.6963 9.93029 21.8745L17.0632 1.04235C17.3446 0.220541 18.1994 -0.203184 18.9725 0.0959281ZM3.59635 12.3842L8.86307 17.9828C9.44482 18.6012 9.44482 19.6038 8.86307 20.2222C8.28133 20.8406 7.33813 20.8406 6.75638 20.2222L0.43631 13.5039C-0.145437 12.8855 -0.145437 11.8829 0.43631 11.2645L6.75638 4.54627C7.33813 3.92787 8.28133 3.92787 8.86307 4.54627C9.44482 5.16467 9.44482 6.16729 8.86307 6.78568L3.59635 12.3842ZM26.1968 12.3842L20.93 6.78568C20.3483 6.16729 20.3483 5.16467 20.93 4.54627C21.5118 3.92787 22.455 3.92787 23.0367 4.54627L29.3568 11.2645C29.9385 11.8829 29.9385 12.8855 29.3568 13.5039L23.0367 20.2222C22.455 20.8406 21.5118 20.8406 20.93 20.2222C20.3483 19.6038 20.3483 18.6012 20.93 17.9828L26.1968 12.3842Z" fill="white"/>
</svg>
