<svg width="20" height="24" viewBox="0 0 20 24" fill="none" xmlns="http://www.w3.org/2000/svg">
<path d="M1.79993 4.79982H0V2.39991L1.23024e-05 2.39236C0.00407438 1.07292 1.08046 0.00406357 2.39991 0H4.79982V1.8003L1.79993 1.79993V4.79982Z" fill="#6F3DAB"/>
<path d="M0 10.7996H1.79993V7.19974H0V10.7996Z" fill="#6F3DAB"/>
<path d="M0 16.7994H1.79993V13.1995H0V16.7994Z" fill="#6F3DAB"/>
<path d="M4.79982 23.9982V22.1982L1.79993 22.1992V19.1993H0V21.6001L1.14441e-05 21.6076C0.00407352 22.9271 1.07291 23.9959 2.39236 24L2.39991 24L4.79982 23.9982Z" fill="#6F3DAB"/>
<path d="M16.7994 24L16.8069 24C18.1264 23.9959 19.1952 22.9271 19.1993 21.6076L19.1993 21.6001L19.1993 19.1993H17.3994L17.3975 22.1982L14.3995 22.2001V24H16.7994Z" fill="#6F3DAB"/>
<path d="M11.9996 22.1992V23.9991H7.19974V22.1992H11.9996Z" fill="#6F3DAB"/>
<path fill-rule="evenodd" clip-rule="evenodd" d="M7.19974 1.80081V0.000878874L10.314 3.15188e-06C10.9243 0.000935718 11.5259 0.239371 11.9737 0.669895L18.4681 6.93306C18.9345 7.38427 19.1983 8.00511 19.1993 8.65402L19.1993 10.7996H17.3994L17.3991 9.43179L11.6055 9.43178C10.4977 9.43178 9.59965 8.51515 9.59965 7.38442L9.59965 1.80045L7.19974 1.80081ZM11.319 2.53908L11.319 7.38442C11.319 7.54595 11.4473 7.6769 11.6055 7.6769L16.6462 7.6769L11.319 2.53908Z" fill="#6F3DAB"/>
<path d="M17.3975 13.1995H19.1993V16.7994H17.3994L17.3975 13.1995Z" fill="#6F3DAB"/>
<path d="M15.3592 15.2326H12.9803V16.2908H14.1164V17.5418C14.007 17.5609 13.8895 17.5801 13.7637 17.5992C13.6406 17.6156 13.4889 17.6238 13.3084 17.6238C12.9393 17.6238 12.6398 17.5391 12.4102 17.3695C12.1805 17.1973 12.0123 16.9607 11.9057 16.66C11.799 16.3564 11.7457 16.0092 11.7457 15.6182C11.7457 15.2053 11.8195 14.8471 11.9672 14.5436C12.1176 14.2373 12.3281 13.9994 12.5988 13.8299C12.8723 13.6604 13.1936 13.5756 13.5627 13.5756C13.8197 13.5756 14.0658 13.607 14.301 13.6699C14.5361 13.7328 14.7453 13.8107 14.9285 13.9037L15.351 12.8865C15.0994 12.7771 14.8191 12.6883 14.5102 12.6199C14.2012 12.5516 13.8881 12.5174 13.5709 12.5174C12.8982 12.5174 12.3281 12.6432 11.8605 12.8947C11.3957 13.1463 11.0416 13.5018 10.7982 13.9611C10.5576 14.4205 10.4373 14.9646 10.4373 15.5936C10.4373 16.2635 10.5453 16.8281 10.7613 17.2875C10.9773 17.7469 11.2932 18.0941 11.7088 18.3293C12.1244 18.5645 12.6303 18.682 13.2264 18.682C13.6557 18.682 14.0398 18.652 14.3789 18.5918C14.718 18.5289 15.0447 18.4455 15.3592 18.3416V15.2326Z" fill="#6F3DAB"/>
<path d="M7.05352 18.6H3.6V12.6035H7.05352V13.6453H4.87148V14.9619H6.90176V16.0037H4.87148V17.55H7.05352V18.6Z" fill="#6F3DAB"/>
<path d="M8.03379 18.0135C8.03379 17.7564 8.10352 17.576 8.24297 17.4721C8.38516 17.3682 8.55606 17.3162 8.75566 17.3162C8.94981 17.3162 9.1166 17.3682 9.25605 17.4721C9.39824 17.576 9.46934 17.7564 9.46934 18.0135C9.46934 18.2596 9.39824 18.4373 9.25605 18.5467C9.1166 18.6561 8.94981 18.7107 8.75566 18.7107C8.55606 18.7107 8.38516 18.6561 8.24297 18.5467C8.10352 18.4373 8.03379 18.2596 8.03379 18.0135Z" fill="#6F3DAB"/>
</svg>
