<svg width="25" height="24" viewBox="0 0 25 24" fill="none" xmlns="http://www.w3.org/2000/svg">
<path d="M13.6585 4.57502H10.9816L11.3109 11.0623H13.3434L13.6585 4.57502Z" fill="#E37500"/>
<path d="M12.3268 12.2868C11.9104 12.2868 11.5413 12.4372 11.2761 12.7064C11.0112 12.9752 10.8657 13.3466 10.8657 13.7608C10.8657 14.1668 11.007 14.5375 11.2693 14.8082C11.5326 15.08 11.9024 15.2348 12.3268 15.2348C12.7514 15.2348 13.1187 15.0796 13.3792 14.8066C13.6382 14.5352 13.7752 14.1647 13.7752 13.7608L13.7751 13.7552C13.7671 13.3472 13.6274 12.9781 13.3685 12.7088C13.1079 12.4379 12.7442 12.2868 12.3268 12.2868Z" fill="#E37500"/>
<path fill-rule="evenodd" clip-rule="evenodd" d="M3.71721 0C1.66425 0 0 1.66425 0 3.71721V15.6028C0 17.6557 1.66425 19.32 3.71721 19.32H8.63221C8.73416 19.32 8.8284 19.3743 8.87955 19.4625L11.0981 23.2876C11.6563 24.25 13.0514 24.2341 13.5876 23.2593L15.6727 19.4681C15.723 19.3768 15.819 19.32 15.9233 19.32H20.6627C22.7157 19.32 24.3799 17.6557 24.3799 15.6028V3.71721C24.3799 1.66425 22.7157 0 20.6627 0H3.71721ZM1.71563 3.71721C1.71563 2.61177 2.61177 1.71563 3.71721 1.71563H20.6627C21.7682 1.71563 22.6643 2.61177 22.6643 3.71721V15.6028C22.6643 16.7082 21.7682 17.6044 20.6627 17.6044H15.9233C15.1933 17.6044 14.5212 18.0017 14.1695 18.6413L12.3283 21.989L10.3636 18.6017C10.0056 17.9844 9.34588 17.6044 8.63221 17.6044H3.71721C2.61177 17.6044 1.71563 16.7082 1.71563 15.6028V3.71721Z" fill="#E37500"/>
</svg>
