<svg width="24" height="24" viewBox="0 0 24 24" fill="none" xmlns="http://www.w3.org/2000/svg">
<path fill-rule="evenodd" clip-rule="evenodd" d="M11.9377 8.00838C12.658 8.00838 13.2419 7.42448 13.2419 6.70419C13.2419 5.98391 12.658 5.4 11.9377 5.4C11.2174 5.4 10.6335 5.98391 10.6335 6.70419C10.6335 7.42448 11.2174 8.00838 11.9377 8.00838ZM10.883 17.9257H10.2V18.6H13.6748V17.9257H12.9461V9.31011H10.4507V9.98443H10.883V17.9257Z" fill="#5ABDFB"/>
<path fill-rule="evenodd" clip-rule="evenodd" d="M12 22.2C17.6333 22.2 22.2 17.6333 22.2 12C22.2 6.3667 17.6333 1.8 12 1.8C6.3667 1.8 1.8 6.3667 1.8 12C1.8 17.6333 6.3667 22.2 12 22.2ZM12 24C18.6274 24 24 18.6274 24 12C24 5.37258 18.6274 0 12 0C5.37258 0 0 5.37258 0 12C0 18.6274 5.37258 24 12 24Z" fill="#5ABDFB"/>
</svg>
