<svg width="24" height="24" viewBox="0 0 24 24" fill="none" xmlns="http://www.w3.org/2000/svg">
<path d="M12.0019 0C11.5382 0 11.1662 0.368906 11.1662 0.828733V3.16085C11.1662 3.61558 11.5368 3.98958 12.0019 3.98958C12.4604 3.98958 12.8376 3.62206 12.8376 3.16085V0.828733C12.8376 0.374 12.467 0 12.0019 0Z" fill="#2DB573"/>
<path d="M20.4577 3.45901C20.1166 3.14992 19.5911 3.17331 19.2793 3.51161L17.7226 5.20348C17.411 5.54173 17.4347 6.06278 17.7758 6.37186C18.1152 6.67945 18.6454 6.65946 18.955 6.31831L18.9561 6.31713L20.5107 4.62755C20.8224 4.28931 20.7988 3.76814 20.4577 3.45901Z" fill="#2DB573"/>
<path d="M6.2809 5.20691L4.72065 3.51531C4.40891 3.17711 3.88334 3.15365 3.54229 3.46271C3.20115 3.77184 3.17766 4.29311 3.48934 4.63135L5.04969 6.32306C5.36143 6.66126 5.8869 6.68461 6.22795 6.37556C6.56909 6.06643 6.59258 5.54516 6.2809 5.20691Z" fill="#2DB573"/>
<path d="M0.889955 11.0727C0.432746 11.0436 0.0313505 11.3862 0.00173462 11.8444C-0.0275571 12.2975 0.317529 12.6954 0.779146 12.7251L0.779928 12.7252L2.98497 12.8732L2.98606 12.8732C3.44327 12.9023 3.84467 12.5597 3.87428 12.1015C3.90357 11.6484 3.55849 11.2505 3.09687 11.2208L3.09609 11.2207L0.891042 11.0727L0.889955 11.0727Z" fill="#2DB573"/>
<path d="M23.9983 11.8481C23.9686 11.3899 23.5673 11.0473 23.11 11.0764L23.109 11.0764L20.9039 11.2244L20.9031 11.2245C20.4415 11.2542 20.0964 11.6521 20.1257 12.1052C20.1553 12.5634 20.5567 12.906 21.0139 12.8769L21.015 12.8769L23.2201 12.7289L23.2208 12.7288C23.6825 12.6991 24.0276 12.3012 23.9983 11.8481Z" fill="#2DB573"/>
<path d="M6.281 17.7746C5.96953 17.4366 5.44555 17.4134 5.10478 17.7164L5.10381 17.7173L3.54346 19.1165L3.54229 19.1176C3.20144 19.4265 3.17805 19.9461 3.48356 20.284C3.79275 20.626 4.32223 20.6462 4.66173 20.3444L4.6627 20.3435L6.22304 18.9442L6.22422 18.9432C6.56507 18.6343 6.58847 18.1147 6.28295 17.7768L6.281 17.7746Z" fill="#2DB573"/>
<path fill-rule="evenodd" clip-rule="evenodd" d="M12.0117 5.38844C10.2123 5.38844 8.57369 6.06985 7.37913 7.18065C6.18779 8.2921 5.43478 9.84747 5.43478 11.5699C5.43478 13.0854 5.79796 14.469 6.38525 15.7251C6.92146 16.8699 7.63959 17.9122 8.44348 18.8825V20.7836C8.44348 21.7055 8.87313 22.526 9.5291 23.0954C10.1801 23.6637 11.0625 24 12.0154 24C12.9684 24 13.8508 23.6637 14.5019 23.0952C15.1531 22.5266 15.5873 21.7065 15.5873 20.7836V18.8974C16.3911 17.9274 17.1132 16.8843 17.6497 15.7317C18.2334 14.475 18.5904 13.0882 18.5904 11.5699C18.5904 9.84724 17.8357 8.29227 16.6445 7.18099C15.4533 6.06967 13.8107 5.38844 12.0117 5.38844ZM8.5183 8.38482C9.40259 7.56024 10.6342 7.04221 12.0079 7.04221C13.3812 7.04221 14.6094 7.55996 15.4978 8.38507C16.3825 9.21382 16.9171 10.3316 16.9171 11.5699C16.9171 12.827 16.6232 13.9632 16.1274 15.0399C15.6793 16.0078 15.0547 16.9178 14.3273 17.8005H12.8362V16.7407L14.7154 12.6671C14.9111 12.2483 14.7189 11.7595 14.3055 11.569C13.883 11.3743 13.3897 11.5658 13.1974 11.976L12.0001 14.5701L10.7997 11.9759C10.6058 11.5622 10.1106 11.3817 9.69324 11.5683C9.39641 11.7051 9.21778 11.9926 9.20722 12.2962C9.20634 12.3129 9.20626 12.3297 9.207 12.3465C9.20983 12.4533 9.23362 12.5612 9.28051 12.6643L11.1648 16.7408V17.8005H9.7038C8.97596 16.9139 8.34739 15.9984 7.89557 15.03C7.39632 13.9536 7.10237 12.8194 7.09871 11.5695C7.09883 10.3348 7.63369 9.21341 8.5183 8.38482ZM13.9122 20.7836V19.4579H10.1074V20.7824C10.1107 21.1827 10.2899 21.5552 10.628 21.8525C10.9656 22.1494 11.4527 22.3462 12.0117 22.3462C12.5687 22.3462 13.0547 22.1469 13.3941 21.8519C13.7328 21.5539 13.9122 21.1817 13.9122 20.7836Z" fill="#2DB573"/>
<path d="M18.8969 17.7179L18.8974 17.7183L20.4518 19.1157L20.4525 19.1163C20.7967 19.423 20.8169 19.9476 20.5127 20.284C20.206 20.6232 19.6757 20.653 19.3329 20.3429L19.3324 20.3425L17.7772 18.9445C17.436 18.6405 17.406 18.1154 17.718 17.7757C18.0248 17.4375 18.5544 17.4081 18.8969 17.7179Z" fill="#2DB573"/>
</svg>
