<svg width="24" height="24" viewBox="0 0 24 24" fill="none" xmlns="http://www.w3.org/2000/svg">
<rect y="0.000244141" width="24" height="24" rx="4" fill="#2F3564"/>
<path d="M7.637 20.2502H4.268V9.40024H7.638V20.2502H7.637ZM5.951 7.92024C4.874 7.92024 4 7.02924 4 5.95224C4 4.87524 4.874 4.00024 5.951 4.00024C7.03 4.00024 7.902 4.87424 7.902 5.95124C7.902 7.02824 7.028 7.92124 5.952 7.92124L5.951 7.92024ZM20.246 20.2502H16.885V14.9692C16.885 13.7102 16.859 12.0962 15.133 12.0962C13.381 12.0962 13.113 13.4632 13.113 14.8782V20.2502H9.748V9.40024H12.978V10.8802H13.026C13.476 10.0282 14.574 9.12924 16.214 9.12924C19.624 9.12924 20.25 11.3742 20.25 14.2902V20.2502H20.246Z" fill="white"/>
</svg>
