<svg width="25" height="24" viewBox="0 0 25 24" fill="none" xmlns="http://www.w3.org/2000/svg">
<path fill-rule="evenodd" clip-rule="evenodd" d="M21.625 9C21.625 9.41421 21.2892 9.75 20.875 9.75L4 9.75C3.58579 9.75 3.25 9.41421 3.25 9C3.25 8.58579 3.58579 8.25 4 8.25L20.875 8.25C21.2892 8.25 21.625 8.58579 21.625 9Z" fill="white"/>
<path fill-rule="evenodd" clip-rule="evenodd" d="M21.625 15C21.625 15.4142 21.2892 15.75 20.875 15.75L4 15.75C3.58579 15.75 3.25 15.4142 3.25 15C3.25 14.5858 3.58579 14.25 4 14.25L20.875 14.25C21.2892 14.25 21.625 14.5858 21.625 15Z" fill="white"/>
<path fill-rule="evenodd" clip-rule="evenodd" d="M12.5 20.5C17.1944 20.5 21 16.6944 21 12C21 7.30558 17.1944 3.5 12.5 3.5C7.80558 3.5 4 7.30558 4 12C4 16.6944 7.80558 20.5 12.5 20.5ZM12.5 22C18.0228 22 22.5 17.5228 22.5 12C22.5 6.47715 18.0228 2 12.5 2C6.97715 2 2.5 6.47715 2.5 12C2.5 17.5228 6.97715 22 12.5 22Z" fill="white"/>
<path fill-rule="evenodd" clip-rule="evenodd" d="M9.73241 21.6121C10.2795 21.3708 10.8021 21.0842 11.2955 20.7571C8.9595 18.5676 7.5 15.4543 7.5 12C7.5 8.54574 8.9595 5.43237 11.2955 3.24291C10.8021 2.91575 10.2795 2.62917 9.73241 2.38792C10.5025 2.16659 11.3107 2.0353 12.1449 2.00619C12.2648 2.08607 12.3832 2.16806 12.5 2.2521C12.6168 2.16806 12.7352 2.08607 12.8551 2.00619C13.6893 2.0353 14.4975 2.16659 15.2676 2.38792C14.7205 2.62917 14.1979 2.91575 13.7045 3.24291C16.0405 5.43237 17.5 8.54574 17.5 12C17.5 15.4543 16.0405 18.5676 13.7045 20.7571C14.1979 21.0842 14.7205 21.3708 15.2676 21.6121C14.4975 21.8334 13.6893 21.9647 12.8551 21.9938C12.7352 21.9139 12.6168 21.8319 12.5 21.7479C12.3832 21.8319 12.2648 21.9139 12.1449 21.9938C11.3107 21.9647 10.5025 21.8334 9.73241 21.6121ZM16 12C16 8.89025 14.6481 6.09625 12.5 4.17363C10.3519 6.09625 9 8.89025 9 12C9 15.1097 10.3519 17.9037 12.5 19.8264C14.6481 17.9037 16 15.1097 16 12Z" fill="white"/>
</svg>
