<svg width="20" height="20" viewBox="0 0 20 20" fill="none" xmlns="http://www.w3.org/2000/svg">
<path fill-rule="evenodd" clip-rule="evenodd" d="M7.75697 0.914328C8.10632 0.691774 8.56993 0.79456 8.79249 1.14391L8.95527 1.39943C9.32997 1.9876 9.34536 2.73564 8.99518 3.33873C8.75713 3.74871 8.37192 4.0527 7.91783 4.18892L7.83663 4.21328C7.71402 4.25007 7.60701 4.32639 7.53229 4.43034L7.25584 4.81496C7.09354 5.04077 6.89793 5.24066 6.67568 5.4078L5.56382 6.24397C5.50354 6.28931 5.47435 6.36502 5.48859 6.43909C5.62106 7.12794 5.31617 7.82732 4.72132 8.1991L3.92699 8.69556C3.45272 8.99198 2.89936 9.13674 2.3407 9.11055L1.96488 9.09293C1.55112 9.07353 1.23143 8.72238 1.25082 8.30863C1.27022 7.89487 1.62137 7.57517 2.03513 7.59457L2.41095 7.61219C2.66488 7.6241 2.91641 7.5583 3.13199 7.42356L3.92632 6.9271C3.99552 6.88385 4.03099 6.80249 4.01558 6.72236C3.89314 6.08567 4.14408 5.43484 4.66225 5.04515L5.77411 4.20898C5.87513 4.13301 5.96405 4.04215 6.03782 3.93951L6.31427 3.55488C6.5822 3.18212 6.96591 2.90845 7.40561 2.77654L7.48681 2.75219C7.57582 2.72548 7.65133 2.66589 7.698 2.58552C7.76664 2.4673 7.76363 2.32067 7.69017 2.20537L7.52739 1.94984C7.30484 1.6005 7.40762 1.13688 7.75697 0.914328ZM13.3004 0.913526C13.6761 1.088 13.8392 1.53398 13.6648 1.90965L13.1531 3.01133C13.0569 3.21848 12.9305 3.41019 12.7779 3.58018L12.408 3.99238C12.342 4.0659 12.3424 4.17741 12.4088 4.25051C12.4549 4.30126 12.5246 4.32365 12.5917 4.30928L13.0496 4.21116C13.5541 4.10308 14.0796 4.15326 14.5544 4.35487L15.1938 4.62634C15.4005 4.71411 15.6271 4.74456 15.8497 4.71449L17.6183 4.4755C18.0288 4.42004 18.4065 4.70784 18.462 5.11832C18.5175 5.5288 18.2297 5.90653 17.8192 5.962L16.0505 6.20098C15.5609 6.26715 15.0624 6.20015 14.6076 6.00705L13.9682 5.73558C13.7775 5.65462 13.5665 5.63446 13.3639 5.67787L12.9059 5.77599C12.3164 5.9023 11.7043 5.70552 11.2988 5.25939C10.7148 4.61688 10.7117 3.6367 11.2916 2.99052L11.6616 2.57832C11.7149 2.51891 11.7591 2.45191 11.7927 2.37952L12.3043 1.27785C12.4788 0.902168 12.9248 0.739057 13.3004 0.913526ZM11.5211 8.24621C11.8057 7.04226 13.0129 6.29738 14.2166 6.583L14.3818 6.62222C14.6023 6.67452 14.8142 6.75767 15.0114 6.8692L16.4 7.65457C16.5294 7.72773 16.6708 7.77723 16.8175 7.80076L17.0312 7.83504C17.4544 7.90291 17.8829 7.7492 18.1665 7.42779L18.3751 7.19131C18.6491 6.8807 19.1231 6.85106 19.4337 7.1251C19.7443 7.39914 19.7739 7.87309 19.4999 8.18369L19.2913 8.42017C18.6674 9.12728 17.7247 9.46543 16.7937 9.31611L16.58 9.28184C16.2572 9.23007 15.9462 9.12116 15.6616 8.96022L14.273 8.17484C14.1986 8.13278 14.1187 8.10142 14.0355 8.08169L13.8703 8.04248C13.4731 7.94824 13.0748 8.19401 12.9809 8.59125C12.9601 8.6794 12.9556 8.77064 12.9678 8.8604L13.0305 9.32304C13.0889 9.75317 13.3662 10.1223 13.763 10.298L14.1836 10.4843C14.8486 10.7788 15.362 11.3356 15.6016 12.0224C15.6798 12.2468 15.8269 12.4407 16.0217 12.5767L16.7274 13.069C16.773 13.1008 16.8221 13.1273 16.8736 13.1479C17.538 13.4137 18.0343 13.9822 18.2078 14.6764L18.2901 15.0056C18.3906 15.4074 18.1462 15.8146 17.7444 15.9151C17.3426 16.0156 16.9354 15.7712 16.8349 15.3694L16.7526 15.0402C16.6959 14.8133 16.5337 14.6275 16.3166 14.5406C16.1587 14.4775 16.0086 14.3965 15.8692 14.2992L15.1635 13.8069C14.7098 13.4903 14.3675 13.0388 14.1853 12.5165C14.0824 12.2215 13.8619 11.9823 13.5762 11.8558L13.1557 11.6695C12.2825 11.2829 11.6725 10.4709 11.5441 9.52459L11.4814 9.06194C11.4445 8.7899 11.458 8.51339 11.5211 8.24621ZM4.83864 10.9164L4.62647 11.2432C4.57912 11.3162 4.57392 11.4087 4.61281 11.4865L5.1194 12.4997C5.15369 12.5682 5.19421 12.6335 5.24045 12.6947L5.81436 13.4535C6.07104 13.7929 6.24545 14.1873 6.32387 14.6055L6.77828 17.029C6.88546 17.6006 7.64411 17.7337 7.93938 17.2326C7.9978 17.1335 8.02793 17.0202 8.02649 16.9051L8.01271 15.8021C8.00178 14.9277 8.40742 14.1001 9.10533 13.5731L9.4915 13.2815C9.54699 13.2396 9.58331 13.1772 9.5923 13.1083C9.61103 12.9647 9.50841 12.8336 9.3645 12.8173L9.25817 12.8052C8.69745 12.7418 8.19566 12.4277 7.89345 11.9512L7.80102 11.8054C7.66808 11.5958 7.4371 11.4688 7.18886 11.4688H5.96015C5.51848 11.4688 5.10486 11.2627 4.83864 10.9164ZM6.00623 9.96875C5.44216 9.13586 4.20272 9.14129 3.64941 9.99354L3.36837 10.4264C3.03145 10.9454 2.99447 11.6039 3.27117 12.1573L3.77776 13.1705C3.85319 13.3213 3.94232 13.4649 4.04405 13.5994L4.61797 14.3583C4.73464 14.5126 4.81392 14.6919 4.84957 14.882L5.30397 17.3055C5.66653 19.2391 8.23287 19.6891 9.23168 17.9942C9.42932 17.6588 9.53124 17.2756 9.52637 16.8864L9.51259 15.7834C9.50762 15.3859 9.692 15.0097 10.0092 14.7702L10.3954 14.4786C10.7721 14.1942 11.0187 13.7703 11.0797 13.3023C11.2069 12.3273 10.5102 11.4374 9.53324 11.3268L9.42691 11.3148C9.31733 11.3024 9.21927 11.241 9.16022 11.1479L9.06779 11.0021C8.65974 10.3587 7.9508 9.96875 7.18886 9.96875H6.00623Z" fill="#6C6E83"/>
<path fill-rule="evenodd" clip-rule="evenodd" d="M10 18.5C14.6944 18.5 18.5 14.6944 18.5 10C18.5 5.30558 14.6944 1.5 10 1.5C5.30558 1.5 1.5 5.30558 1.5 10C1.5 14.6944 5.30558 18.5 10 18.5ZM10 20C15.5228 20 20 15.5228 20 10C20 4.47715 15.5228 0 10 0C4.47715 0 0 4.47715 0 10C0 15.5228 4.47715 20 10 20Z" fill="#6C6E83"/>
</svg>
