<svg xmlns="http://www.w3.org/2000/svg" width="20" height="20" viewBox="0 0 20 20">
    <defs>
        <filter id="wpi440ztxa">
            <feColorMatrix in="SourceGraphic" values="0 0 0 0 1.000000 0 0 0 0 1.000000 0 0 0 0 1.000000 0 0 0 1.000000 0"/>
        </filter>
    </defs>
    <g fill="none" fill-rule="evenodd">
        <g>
            <g>
                <g>
                    <g filter="url(#wpi440ztxa)" transform="translate(-951 -1379) translate(838 1323) translate(0 56) translate(113)">
                        <g>
                            <path fill="#000" fill-rule="nonzero" d="M3.637 16.25H.268V5.4h3.37v10.85zM1.951 3.92C.874 3.92 0 3.029 0 1.952S.874 0 1.951 0C3.03 0 3.902.874 3.902 1.951s-.874 1.97-1.95 1.97zm14.295 12.33h-3.361v-5.281c0-1.259-.026-2.873-1.752-2.873-1.752 0-2.02 1.367-2.02 2.782v5.372H5.748V5.4h3.23v1.48h.048c.45-.852 1.548-1.751 3.188-1.751 3.41 0 4.036 2.245 4.036 5.161v5.96h-.004z" transform="translate(2.5 2.5)"/>
                        </g>
                    </g>
                </g>
            </g>
        </g>
    </g>
</svg>
