<svg xmlns="http://www.w3.org/2000/svg" width="20" height="20" viewBox="0 0 20 20">
    <defs>
        <filter id="emnrz2nvja">
            <feColorMatrix in="SourceGraphic" values="0 0 0 0 1.000000 0 0 0 0 1.000000 0 0 0 0 1.000000 0 0 0 1.000000 0"/>
        </filter>
    </defs>
    <g fill="none" fill-rule="evenodd">
        <g>
            <g>
                <g>
                    <g filter="url(#emnrz2nvja)" transform="translate(-1006 -1379) translate(838 1323) translate(0 56) translate(168)">
                        <g>
                            <path fill="#000" fill-rule="nonzero" d="M4.646 13.927c0 1.283-1.04 2.323-2.323 2.323S0 15.21 0 13.927s1.04-2.323 2.323-2.323 2.323 1.04 2.323 2.323zm6.371 1.714C10.714 10.033 6.223 5.536.61 5.233.278 5.215 0 5.48 0 5.813v1.743c0 .306.235.562.54.581 4.056.265 7.308 3.508 7.573 7.573.02.305.275.54.58.54h1.744c.332 0 .598-.278.58-.61zm5.233.01C15.945 7.171 9.12.306.599.001.27-.012 0 .252 0 .58v1.743c0 .313.248.568.56.58 6.935.285 12.5 5.852 12.785 12.785.013.313.268.561.58.561h1.744c.328 0 .592-.271.58-.599z" transform="translate(2.5 2.5)"/>
                        </g>
                    </g>
                </g>
            </g>
        </g>
    </g>
</svg>
