<svg width="24" height="24" viewBox="0 0 24 24" fill="none" xmlns="http://www.w3.org/2000/svg">
<rect y="0.000244141" width="24" height="24" rx="4" fill="#2F3564"/>
<path d="M8.646 17.9267C8.646 19.2097 7.606 20.2497 6.323 20.2497C5.04 20.2497 4 19.2097 4 17.9267C4 16.6437 5.04 15.6037 6.323 15.6037C7.606 15.6037 8.646 16.6437 8.646 17.9267ZM15.017 19.6407C14.714 14.0327 10.223 9.5357 4.61 9.2327C4.278 9.2147 4 9.4797 4 9.8127V11.5557C4 11.8617 4.235 12.1177 4.54 12.1367C8.596 12.4017 11.848 15.6447 12.113 19.7097C12.133 20.0147 12.388 20.2497 12.693 20.2497H14.437C14.769 20.2497 15.035 19.9717 15.017 19.6397V19.6407ZM20.25 19.6507C19.945 11.1707 13.12 4.3057 4.599 4.0007C4.27 3.9877 4 4.2517 4 4.5797V6.3227C4 6.6357 4.248 6.8907 4.56 6.9027C11.495 7.1877 17.06 12.7547 17.345 19.6877C17.358 20.0007 17.613 20.2487 17.925 20.2487H19.669C19.997 20.2487 20.261 19.9777 20.249 19.6497L20.25 19.6507Z" fill="white"/>
</svg>
