<svg width="24" height="24" viewBox="0 0 24 24" fill="none" xmlns="http://www.w3.org/2000/svg">
<rect y="0.000244141" width="24" height="24" rx="4" fill="#2F3564"/>
<path d="M21.582 7.26024C21.352 6.37024 20.674 5.67024 19.814 5.43224C18.254 5.00024 12 5.00024 12 5.00024C12 5.00024 5.746 5.00024 4.186 5.43224C3.326 5.67024 2.648 6.37024 2.418 7.26024C2 8.87324 2 12.2372 2 12.2372C2 12.2372 2 15.6012 2.418 17.2142C2.648 18.1042 3.326 18.7742 4.186 19.0122C5.746 19.4442 12 19.4442 12 19.4442C12 19.4442 18.254 19.4442 19.814 19.0122C20.674 18.7752 21.352 18.1032 21.582 17.2142C22 15.6002 22 12.2372 22 12.2372C22 12.2372 22 8.87324 21.582 7.26024ZM9.955 15.2912V9.18224L15.182 12.2372L9.955 15.2912Z" fill="white"/>
</svg>
