<svg xmlns="http://www.w3.org/2000/svg" width="20" height="20" viewBox="0 0 20 20">
    <defs>
        <filter id="oe0s92dfoa">
            <feColorMatrix in="SourceGraphic" values="0 0 0 0 1.000000 0 0 0 0 1.000000 0 0 0 0 1.000000 0 0 0 1.000000 0"/>
        </filter>
    </defs>
    <g fill="none" fill-rule="evenodd">
        <g>
            <g>
                <g>
                    <g filter="url(#oe0s92dfoa)" transform="translate(-1062 -1379) translate(838 1323) translate(0 56) translate(224)">
                        <g fill="#000" fill-rule="nonzero">
                            <path d="M19.582 2.26c-.23-.89-.908-1.59-1.768-1.828C16.254 0 10 0 10 0S3.746 0 2.186.432C1.326.67.648 1.37.418 2.26 0 3.873 0 7.237 0 7.237s0 3.364.418 4.977c.23.89.908 1.56 1.768 1.798 1.56.432 7.814.432 7.814.432s6.254 0 7.814-.432c.86-.237 1.538-.909 1.768-1.798C20 10.6 20 7.237 20 7.237s0-3.364-.418-4.977zM7.955 10.291V4.182l5.227 3.055-5.227 3.054z" transform="translate(0 2.5)"/>
                        </g>
                    </g>
                </g>
            </g>
        </g>
    </g>
</svg>
