<svg xmlns="http://www.w3.org/2000/svg" width="20" height="20" viewBox="0 0 20 20">
    <defs>
        <filter id="tma2zdgg5a">
            <feColorMatrix in="SourceGraphic" values="0 0 0 0 1.000000 0 0 0 0 1.000000 0 0 0 0 1.000000 0 0 0 1.000000 0"/>
        </filter>
    </defs>
    <g fill="none" fill-rule="evenodd">
        <g>
            <g>
                <g filter="url(#tma2zdgg5a)" transform="translate(-838 -1379) translate(838 1323) translate(0 56)">
                    <g>
                        <path fill="#000" fill-rule="nonzero" d="M16.823 3.848c.012.17.012.338.012.507 0 5.151-3.867 11.086-10.934 11.086-2.177 0-4.2-.64-5.901-1.749.31.036.607.048.928.048 1.796 0 3.45-.615 4.77-1.665-1.689-.036-3.104-1.158-3.592-2.702.238.036.476.06.726.06.345 0 .69-.048 1.01-.132-1.76-.362-3.08-1.93-3.08-3.824v-.048c.511.29 1.106.47 1.736.494C1.463 5.223.785 4.03.785 2.678c0-.724.19-1.387.524-1.966C3.2 3.076 6.044 4.62 9.232 4.789c-.06-.29-.095-.59-.095-.893C9.137 1.75 10.85 0 12.98 0c1.106 0 2.106.47 2.808 1.23.868-.168 1.7-.494 2.439-.94-.286.904-.893 1.664-1.69 2.147.773-.085 1.523-.302 2.213-.603-.523.772-1.178 1.46-1.927 2.014z" transform="translate(1.25 2.5)"/>
                    </g>
                </g>
            </g>
        </g>
    </g>
</svg>
